/* XPM */
static char *_015[] = {
/* columns rows colors chars-per-pixel */
"32 32 13 1 ",
"  c #231818",
". c #56443E",
"X c #4C4343",
"o c #D57B47",
"O c #F19B5E",
"+ c #F1BD61",
"@ c #FFC37F",
"# c #AEAFB0",
"$ c #AFB0B1",
"% c #B1B2B3",
"& c #B3B3B4",
"* c #B7B7B7",
"= c #ECD2B2",
/* pixels */
"********************************",
"**==****&%==***%%****===&***==**",
"*%%===*****==********=*****==***",
"%%$%&==*****===****==****%==*&**",
"#*%&&&=&*****************==**%**",
"&**********          *********=*",
"*==*****     XXXXXX     *****==&",
"%*==***   XXX      XXX   ***==*&",
"%**==*  XXX   OOOO   XXX  **=*&*",
"&*%%=% XX  OOOO@OOOOO  XX ******",
"&&*&*& X  OOOOOOOO@OOO  X ****&*",
"******   OO@OO@OOOOO@OO   ******",
"******    OOOOOOOOOOOO    ******",
"*****  XX              XX  *&%**",
"****  XXXXXXXXXXXXXXXXXXXX  ****",
"**** XXXXXXXXXXXXXXXXXXXXXX ****",
"***  XXXXXXXXXXXXXXXXXXXXXX  ***",
"*** XXXXXXXXXXXXXXXXXXXXXXXX +**",
"**+ +XXX+XXX++XXXX+XXXXX+XX+ ***",
"***+++XXXX+XXXX+XX+XX+XX+X+++&**",
"&** +++XX++X++XX+XXXXXX+XX++ &%*",
"&** o++XX+++++XX++++X+X++++o ***",
"**  oo++++++++X+++++++++++oo  **",
"**  .oo++o+++++++o++o++oo+o.  *%",
"** .....ooo++o++oo+oo+++o.... **",
"** ....  oo.ooo+oo+o.++ o.... &*",
"**  ..  .... oo...  ....  ..  **",
"***     ...  ......  ...     ***",
"******        ....        ***%**",
"**********            %*****&%**",
"*************      %***&*&%&****",
"***&&%**************************"
};
