/* XPM */
static char *_005[] = {
/* columns rows colors chars-per-pixel */
"32 32 13 1 ",
"  c #1C0505",
". c #200000",
"X c #231818",
"o c #451919",
"O c #4C4343",
"+ c #913000",
"@ c #D57B47",
"# c #F1BD61",
"$ c #AEAFB0",
"% c #AFB0B1",
"& c #B1B2B3",
"* c #B3B3B4",
"= c #B7B7B7",
/* pixels */
"================================",
"========*&*====&&=====&=*=======",
"=&&==XXXXXXXXXXXXXXXXXXXXXX&====",
"&&%&XOOOOOOOOOOOOOOOOOOOOOOX=*==",
"$=&XOOOOOOOOOOOOOOOOOOOOOOOOX&==",
"*=XOOOOOOOOOOOOOOOOOOOOOOOOOOX==",
"=*XXXXXXXXXXXXXXXXXXXXXXXXXXXX=*",
"&=XOOOOOOOOOOOOOOOOOOOOOOOOOOX=*",
"&=XOOOOOOOOOOOOOOOOOOOOOOOOOOX*=",
"*                              =",
"*                              =",
"==XOO  OOOOOOOOOOOOOOOOOO  OOX==",
"==XOO  OOOOOOOOOOOOOOOOOO  OOX==",
"==XOOO OOOOOOOOOOOOOOOOOO OOOX==",
"==XOOOOOXXXXXXXXXXXXXXXXOOOOOX==",
"==XOOOOXXOOXOOOXXOOOXOOXXOOOOX==",
"==XOOOXXOOXXXXXXXXXXXXOOXXOOOX==",
"==XOOXXOXXX++++++++++XXXOXXOOX==",
"==XOOXOOX++++++++++++++XOOXOOX==",
"==XOOXOXX+++++++#+++++#XXOXOOX==",
"*=XOOXXX++#++##+##+++##+XX##OX&=",
"*=XOO##X++#++##++#++++++XOXOOX==",
"==XOOX##+++++##++++++##+##XOOX==",
"==XOOX#####+##############XOOX=&",
"==XOOX#@@@###@##@####@##@#XOOX==",
"==XOOX##@@##@@##@@##@@#@@#XOOX*=",
"==XOOXX##@##@@##@@##@@#@##XOOX==",
"==XOOXOX#oo..o##@##..ooo#OXOOX==",
"==XXOXOXoo..ooo..ooo..ooXOXOXX==",
"===XXXXXo..ooo....ooo..oXXXXX&==",
"====XXXXXXXXXXXXXXXXXXXXXXXX====",
"===**&=========================="
};
