/* XPM */
static char *_018[] = {
/* columns rows colors chars-per-pixel */
"32 64 31 1 ",
"  c #090806",
". c #22100F",
"X c #30190B",
"o c #221C16",
"O c #3A1A18",
"+ c #28241A",
"@ c #10182C",
"# c #141F38",
"$ c #392120",
"% c #4A3527",
"& c #692329",
"* c #594E3A",
"= c #5C523A",
"- c #223462",
"; c #87232A",
": c #A2501D",
"> c #AD7939",
", c #EF952C",
"< c #E09D34",
"1 c #A9895B",
"2 c #BC9C65",
"3 c #EEB74B",
"4 c #ACADAF",
"5 c #AEAFB0",
"6 c #AFB0B1",
"7 c #B1B2B3",
"8 c #B3B3B4",
"9 c #B7B7B7",
"0 c #FFDC8E",
"q c #EBC8B5",
"w c white",
/* pixels */
"99999999999999999999999999999999",
"99999999878999977999997989999999",
"97799999999999999999999999979999",
"77678889999999999999999997799899",
"59788898999999999999999999999799",
"89999999999999999999999999999999",
"98999999779999999999999999999998",
"79999999999999999999999999999998",
"79998989999899999999999999999989",
"89778777999999999999999999999999",
"88989898888989999999899997999989",
"9999999999999>>>>>>8677789999999",
"99999999999>>><<<<>>>98579999999",
"9999999999>><<<333<<>>9999998799",
"9999999XX7><<333333<<>>9999XX999",
"9999999Xq><<33333333<<>>999XqX99",
"9999999Xq><3333333333<<>999XqqX9",
"999999XXX<333<33333333<>>9XXXqX9",
"999999X:><33>><3333333<<>XXX%X99",
"99999X%X><3>>0>33333333<>XX%%X99",
"8999XX%X><3===0>3333333<>>X%:X79",
"8999X%XX><3=,==033333333<>%::X99",
"999XX:X:><3=w=00>3333333<>::X999",
"999X:X%%><30=000>33333<3<>::X797",
"99XXXX%%><>00000>33>3<<<<>%:X999",
"99X:XX::><>2000>33>><<><<>%%X989",
"99X:%XX::>3>20>333><<>><<>%XX799",
"99XX:%X::>3>>o>3>><<>><<<>XX9999",
"999XX:XX:>3>ooo>><<<>><<<>X99799",
"9999XXXXX>3>o$oo><<>>><<<>998799",
"999999999>3o$$o&><>>>>><>8789999",
"9998879999>o$o&;;>><>&><>9999999",
"99999999999*o&;;;;&>&&&>99999999",
"99999999878*1&;;;;;&;;&989999999",
"97799999999*1&;;;;;;;;&999979999",
"77678889999*11&;;;;;;;;&97799899",
"597888989999*1&&;;;;;;;&99999799",
"899999999999*11&;;;;;;;&&9999999",
"989999997799*11&&;;;;;;;&9999998",
"799999999999@+11&&;;;;;;&9999998",
"799989899998@+++*&;;;;;;&9999989",
"89778777999@#---=&;;;;;&&9999999",
"88989898888##---=&;;;;&&&7999989",
"9999999999@#---=2&;;;&&&89999999",
"999999999@@#---=2&;;&&@579999999",
"999999999@#----==&;&&#@999998799",
"99999999@@#------&&&-#@@99999999",
"99999999@##-------&--##@99989999",
"99999999@#------------#@99995999",
"9999998@@#------------#@@9999999",
"9999999@#--------------#@9999999",
"999999@##--------------##@899899",
"899999@##--------------##@999879",
"899999@@#--------------#@@999999",
"9999999@@#------------#@@7999999",
"99979999@@#----------#@@79999797",
"999978997@@@########@@@999999999",
"9999999889@@@@@@@@@@@@9899997989",
"9999998899789 OO OO 997989999799",
"999999998879 OOO O. 799999999999",
"99999999999 OOO.   9984699999699",
"99999999999.     997677999898799",
"99999999999999999987999898789999",
"99988799999999999999999999999999"
};
