/* XPM */
static char *_002[] = {
/* columns rows colors chars-per-pixel */
"32 64 30 1 ",
"  c #090806",
". c #1A0808",
"X c #200909",
"o c #300000",
"O c #3E0D03",
"+ c #22100F",
"@ c #221C16",
"# c #3A1A18",
"$ c #28241A",
"% c #10182C",
"& c #141F38",
"* c #392120",
"= c #692329",
"- c #594E3A",
"; c #5C523A",
": c #223462",
"> c #87232A",
", c #AD7939",
"< c #EF952C",
"1 c #E09D34",
"2 c #A9895B",
"3 c #BC9C65",
"4 c #EEB74B",
"5 c #AEAFB0",
"6 c #AFB0B1",
"7 c #B1B2B3",
"8 c #B3B3B4",
"9 c #B7B7B7",
"0 c #FFDC8E",
"q c white",
/* pixels */
"XXXXXXXXXXXXXXXXXXXXXXXXXXXXXXXX",
"X.......XXXXXXXXXXXXXXX.......XX",
"X.XXXXX.XXX........XXXX.XXXXX.XX",
"X.XXXXX.XXX.XXXXXX.XXXX.XXXXX.XX",
"X.......XXX.XXXXXX.XXXX.......XX",
"XXXXXXXXXXX........XXXXXXXXXXXXX",
"XXXXXXXXXXXXXXXXXXXXXXXXXXXXXXXX",
"oooooooooooooooooooooooooooooooo",
"OOOOOOOOoooOOOOOOOoooOOOOOOOoooO",
"OOOOOOOOOoOOOOOOOOOoOOOOOOOOOoOO",
"OOOOOOOOOoOOOOOOOOOoOOOOOOOOOoOO",
"OOOOOOOOoooOO,,,,,,ooOOOOOOOoooO",
"ooooooooooo,,,1111,,,ooooooooooo",
"OOOoooOOOO,,11111111,,OOOoooOOOO",
"OOOOoOOOO,,1144444411,,OOOoOOOOO",
"OOOOoOOO,,114444444411,,OOoOOOOO",
"OOOoooOO,11444144444411,OoooOOOO",
"ooooooo,,144411444,4411,,ooooooo",
"OOOOOOO,11441,,444,,4411,OOOoooO",
"OOOOOOO,1441,0,44,0,,441,OOOOoOO",
"OOOOOO,1144,;;;4,;;;,,411,OOOoOO",
"OOOOOO,144,;;<;,0;<;;,411,OOoooO",
"oooooo,144,0;q;00;q;0,441,oooooo",
"OOOooo,44,,00;0000;00,441,ooOOOO",
"OOOOoO,44,,300000000,444,,oOOOOO",
"OOOOoO,44,,,30000003,44,1,oOOOOO",
"OOOooo,44,,,,300003,,,4,1,ooOOOO",
"oooooo,44,,,@@$33$@@,,4,1,oooooo",
"OOOOOO,4,,@@*@@$$@@*@@,1,OOOOooo",
"OOOOOO,4,@*****@@****@@1,OOOOOoO",
"OOOOOO,4,=@@**@**@**@@=,OOOOOOoO",
"OOOOOOO,=>>>@*@**@*@>>>=OOOOOooo",
"99999999=>>>>@*@@*@>>>>=99999999",
"9999999=>>>>>>2222>>>>>>=9999999",
"9779999=>>>>22222222>>>>=9979999",
"776788=>>>>2222222222>>>>=799899",
"597888=>>>>2222222222>>>>=999799",
"899999=>>>$-22222222-$>>>=999999",
"989999=>>>$--222222--$>>>=999998",
"79999=>>>3;$--------$;3>>>=99998",
"79998=>>;3;%$$$$$$$$%;3;>>=99989",
"89778=>>3;%%&::::::&%%;3>>=99999",
"8898=>>>3;%&&::::::&&%;3>>>=9989",
"9999=>>3;;%&::::::::&%;;3>>=9999",
"9999=>>3;%%&::::::::&%%;3>>=9999",
"9999=>>;;%&::::::::::&%;;>>=8799",
"9999=>==%%&::::::::::&%%==>=9999",
"9999===9%&&::::::::::&&%9===9999",
"99999999%&::::::::::::&%99995999",
"9999998%%&::::::::::::&%%9999999",
"9999999%&::::::::::::::&%9999999",
"999999%&&::::::::::::::&&%899899",
"899999%&&::::::::::::::&&%999879",
"899999%%&::::::::::::::&%%999999",
"9999999%%&::::::::::::&%%7999999",
"99979999%%&::::::::::&%%79999797",
"999978997%%&&&&&&&&&&%%999999999",
"9999999889%%%%%%%%%%%%9899997989",
"9999998899 ### 99 ### 7989999799",
"999999998 ###+ 99 +### 999999999",
"999999999 ##+ 9978 +## 699999699",
"999999999+   899899   +999898799",
"99999999999999999987999898789999",
"99988799999999999999999999999999"
};
