/* XPM */
static char *_014[] = {
/* columns rows colors chars-per-pixel */
"32 64 24 1 ",
"  c #090806",
". c #22100F",
"X c #231818",
"o c #3A1A18",
"O c #10182C",
"+ c #141F38",
"@ c #692329",
"# c #56443E",
"$ c #223462",
"% c #4C4343",
"& c #87232A",
"* c #AD7939",
"= c #D57B47",
"- c #E09D34",
"; c #F19B5E",
": c #EEB74B",
"> c #F1BD61",
", c #FFC37F",
"< c #AEAFB0",
"1 c #AFB0B1",
"2 c #B1B2B3",
"3 c #B3B3B4",
"4 c #B7B7B7",
"5 c #ECD2B2",
/* pixels */
"44444444444444444444444444444444",
"44554444325544422444455534445544",
"42255544444554444444454444455444",
"22123554444455544445544442554344",
"<4233353444444444444444445544244",
"34444444444XXXXXXXXXX44444444454",
"45544444XXXXX%%%%%%XXXXX44444553",
"2455444XXX%%%XXXXXX%%%XXX4445543",
"244554XX%%%XXX;;;;XXX%%%XX445434",
"342252X%%XX;;;;,;;;;;XX%%X444444",
"334343X%XX;;;;;;;;,;;;XX%X444434",
"444444XXX;;,;******;,;;XXX444444",
"444444XXXX;***----***;XXXX444444",
"44444XX%%X**--:::::-**X%%XX43244",
"4444XX%%%**--:::::::-**%%%XX4444",
"4444X%%%**--:::::::::-**%%%X4444",
"444XX%%%*--:::::::::::-*%%%XX444",
"444X%%%**-::::::::::::-**%%%X>44",
"44>X>%%*-::::::::::::::-*%%>X444",
"444>>>%*-::::::::::::::-*%>>>344",
"344X>>*-::::::::::::::::-*>>X324",
"344X=>*-::::::::::::::::-*>=X444",
"44XX==*-::::::::::::::::-*==XX44",
"44XX#=*-::::::::::::::::-*=#XX42",
"44X###*-::::::::::::::::-*###X44",
"44X###*-::::::::::::::::-*###X34",
"44XX##*-::::::::::::::::-*##XX44",
"444XXX*-::::::-:::::::::-*XXX444",
"44444**::--:::-::::-*:::-*444244",
"44444*-::-*:--*-:::-*::-***43244",
"44444*-:*-*-*-*-::-*-::-*-*34444",
"44433*-**-*-*--*-:-*-::-*-*44444",
"444444****--*--*--**--:-*-*44444",
"4444444*&*--**--*-*&*-:-*-*44444",
"4224444*&*-*&*-*&*&&&*-****24444",
"221233@&&&*&&&*&&&&&&&*&&@244344",
"<42333@&&&&&&&&&&&&&&&&&&@444244",
"344444@&&&&&&&&&&&&&&&&&&@444444",
"434444@&&&&&&&&&&&&&&&&&&@444443",
"24444@&&&&&&&&&&&&&&&&&&&&@44443",
"24443@&&&&&&&&&&&&&&&&&&&&@44434",
"34223@&&&&&&&&&&&&&&&&&&&&@44444",
"3343@&&&&&&&&&&&&&&&&&&&&&&@4434",
"4444@&&&&&&&@@@@@@@@&&&&&&&@4444",
"4444@&&&&@@@@$$$$$$@@@@&&&&@4444",
"4444@&&@@@@$$$$$$$$$$@@@@&&@3244",
"4444@&@@OO+$$$$$$$$$$+OO@@&@4444",
"4444@@@4O++$$$$$$$$$$++O4@@@4444",
"44444444O+$$$$$$$$$$$$+O4444<444",
"4444443OO+$$$$$$$$$$$$+OO4444444",
"4444444O+$$$$$$$$$$$$$$+O4444444",
"444444O++$$$$$$$$$$$$$$++O344344",
"344444O++$$$$$$$$$$$$$$++O444324",
"344444OO+$$$$$$$$$$$$$$+OO444444",
"4444444OO+$$$$$$$$$$$$+OO2444444",
"44424444OO+$$$$$$$$$$+OO24444242",
"444423442OO++++++++++OO444444444",
"4444444334OOOOOOOOOOOO4344442434",
"4444443344..oo 44 oo..2434444244",
"444444443 oooo 44 oooo 444444444",
"444444444..ooo.42.ooo..144444144",
"4444444444.  .4434.  .2444343244",
"44444444444444444432444343234444",
"44433244444444444444444444444444"
};
