/* XPM */
static char *_013[] = {
/* columns rows colors chars-per-pixel */
"32 64 33 1 ",
"  c #090806",
". c #1C0505",
"X c #22100F",
"o c #221C16",
"O c #231818",
"+ c #3A1A18",
"@ c #28241A",
"# c #10182C",
"$ c #141F38",
"% c #392120",
"& c #451919",
"* c #692329",
"= c #594E3A",
"- c #5C523A",
"; c #223462",
": c #4C4343",
"> c #87232A",
", c #AD7939",
"< c #D57B47",
"1 c #EF952C",
"2 c #E09D34",
"3 c #A9895B",
"4 c #BC9C65",
"5 c #EEB74B",
"6 c #F1BD61",
"7 c #ACADAF",
"8 c #AEAFB0",
"9 c #AFB0B1",
"0 c #B1B2B3",
"q c #B3B3B4",
"w c #B7B7B7",
"e c #FFDC8E",
"r c white",
/* pixels */
"wwwwwwwwwwwwwwwwwwwwwwwwwwwwwwww",
"wwwwwwwwq0qwwww00wwwww0wqwwwwwww",
"w00wwOOOOOOOOOOOOOOOOOOOOOO0wwww",
"0090O::::::::::::::::::::::Owqww",
"8w0O::::::::::::::::::::::::O0ww",
"qwO::::::::::::::::::::::::::Oww",
"wqOOOOOOOOOOOOOOOOOOOOOOOOOOOOwq",
"0wO::::::::::::::::::::::::::Owq",
"0wO::::::::::::::::::::::::::Oqw",
"q..............................w",
"q..............................w",
"wwO::..::::::,,,,,,::::::..::Oww",
"wwO::..::::,,,2222,,,::::..::Oww",
"wwO:::.:::,,22255522,,:::.:::Oww",
"wwO:::::OO,2255555522,,O:::::Oww",
"wwO::::OO,225555555522,,O::::Oww",
"wwO:::OO:,2555555555522,OO:::Oww",
"wwO::OO:O25552555555552,,OO::Oww",
"wwO::O::,255,,2555555522,:O::Oww",
"wwO::O:O,25,,e,555555552,:O::Oww",
"qwO::OOO,25---e,55555552,,66:O0w",
"qwO::66O,25-1--e555555552,O::Oww",
"wwO::O66,25-r-ee,55555552,O::Oww",
"wwO::O66,25e-eee,55555252,O::Ow0",
"wwO::O6<,2,eeeee,55,52222,O::Oww",
"wwO::O66,2,4eee,55,,22,22,O::Oqw",
"wwO::OO66,5,4e,555,22,,22,O::Oww",
"wwO::O:O6,5,,o,5,,22,,222,O::Oww",
"wwOO:O:O&,5,ooo,,222,,222,O:OOww",
"wwwOOOOO&,5,o%oo,22,,,222,OOO0ww",
"wwwwOOOOO,5o%%o*,2,,,,,2,OOOwwww",
"wwwqq0wwww,o%o*>>,,2,*,2,wwwwwww",
"wwwwwwwwwww=o*>>>>*,***,wwwwwwww",
"wwwwwwwwq0q=3*>>>>>*>>*wqwwwwwww",
"w00wwwwwwww=3*>>>>>>>>*wwww0wwww",
"0090qqqwwww=33*>>>>>>>>*w00wwqww",
"8w0qqqwqwwww=3**>>>>>>>*wwwww0ww",
"qwwwwwwwwwww=33*>>>>>>>**wwwwwww",
"wqwwwwww00ww=33**>>>>>>>*wwwwwwq",
"0wwwwwwwwwww#@33**>>>>>>*wwwwwwq",
"0wwwqwqwwwwq#@@@=*>>>>>>*wwwwwqw",
"qw00q000www#$;;;-*>>>>>**wwwwwww",
"qqwqwqwqqqq$$;;;-*>>>>***0wwwwqw",
"wwwwwwwwww#$;;;-4*>>>***qwwwwwww",
"wwwwwwwww##$;;;-4*>>**#80wwwwwww",
"wwwwwwwww#$;;;;--*>**$#wwwwwq0ww",
"wwwwwwww##$;;;;;;***;$##wwwwwwww",
"wwwwwwww#$$;;;;;;;*;;$$#wwwqwwww",
"wwwwwwww#$;;;;;;;;;;;;$#wwww8www",
"wwwwwwq##$;;;;;;;;;;;;$##wwwwwww",
"wwwwwww#$;;;;;;;;;;;;;;$#wwwwwww",
"wwwwww#$$;;;;;;;;;;;;;;$$#qwwqww",
"qwwwww#$$;;;;;;;;;;;;;;$$#wwwq0w",
"qwwwww##$;;;;;;;;;;;;;;$##wwwwww",
"wwwwwww##$;;;;;;;;;;;;$##0wwwwww",
"www0wwww##$;;;;;;;;;;$##0wwww0w0",
"wwww0qww0###$$$$$$$$###wwwwwwwww",
"wwwwwwwqqw############wqwwww0wqw",
"wwwwwwqqww0qw ++ ++ ww0wqwwww0ww",
"wwwwwwwwqq0w +++ +X 0wwwwwwwwwww",
"wwwwwwwwwww +++X   wwq79wwwww9ww",
"wwwwwwwwwwwX     ww0900wwwqwq0ww",
"wwwwwwwwwwwwwwwwwwq0wwwqwq0qwwww",
"wwwqq0wwwwwwwwwwwwwwwwwwwwwwwwww"
};
