/* XPM */
static char *_002[] = {
/* columns rows colors chars-per-pixel */
"32 64 33 1 ",
"  c #090806",
". c #1C0505",
"X c #0F1017",
"o c #200000",
"O c #22100F",
"+ c #221C16",
"@ c #3A1A18",
"# c #28241A",
"$ c #10182C",
"% c #191D30",
"& c #141F38",
"* c #392120",
"= c #402828",
"- c #692329",
"; c #594E3A",
": c #5C523A",
"> c #223462",
", c #4B4949",
"< c #87232A",
"1 c #AD7939",
"2 c #EF952C",
"3 c #E09D34",
"4 c #A9895B",
"5 c #BC9C65",
"6 c #EEB74B",
"7 c #ACADAF",
"8 c #AEAFB0",
"9 c #AFB0B1",
"0 c #B1B2B3",
"q c #B3B3B4",
"w c #B7B7B7",
"e c #FFDC8E",
"r c white",
/* pixels */
"wwwwwwwwwwwwwwwwwwwwwwwwwwwwwwww",
"wwwwwwwwq0qwwww00wwwww0wqwwwwwww",
"w00wwXXXXXXXXXXXXXXXXXXXXXX0wwww",
"0090X,,,,,,,,,,,,,,,,,,,,,,Xwqww",
"8w0X,,,,,,,,,,,,,,,,,,,,,,,,X0ww",
"qwX,,,,,,,,,,,,,,,,,,,,,,,,,,Xww",
"wqXXXXXXXXXXXXXXXXXXXXXXXXXXXXwq",
"0wX,,,,,,,,,,,,,,,,,,,,,,,,,,Xwq",
"0wX,,,,,,,,,,,,,,,,,,,,,,,,,,Xqw",
"q..............................w",
"q..............................w",
"wwX,,..,,,,,,111111,,,,,,..,,Xww",
"wwX,,..,,,,1113333111,,,,..,,Xww",
"wwX,,,.,,,113366663311,,,.,,,Xww",
"wwX,,,,,X1133666666631XX,,,,,Xww",
"wwX,,,,X113366666666631XX,,,,Xww",
"wwX,,,XX133666666663631,XX,,,Xww",
"wwX,,XX1136666666633631X,XX,,Xww",
"wwX,,X,1336666666311661X,,X,,Xww",
"wwX,,X,13666666631e16611X,X,,Xww",
"qwX,,X11366666631e:::631XXX,,X0w",
"qwX,,X1366666661e::2:631X,X,,Xww",
"wwX,,X1366666661ee:r:631X,X,,Xww",
"wwX,,X1363666661eee:e631XXX,,Xw0",
"wwX,,X1333366661eeeee61%X,X,,Xww",
"wwX,,X13313366661eee511%X,X,,Xqw",
"wwX,,X13313331661ee5131oXXX,,Xww",
"wwX,,X133313316661+1131=X,X,,Xww",
"wwXX,X133313311661++331=X,X,XXww",
"wwwXXX133311311161*+31o=XXXXX0ww",
"wwwwXX13311111-161**+1XXXXXXwwww",
"wwwqq01131--1---1-+*+wwwwwwwwwww",
"wwwwwww131----<----+;wwwwwwwwwww",
"wwwwwww11-<<-<<<-<-4;w0wqwwwwwww",
"w00wwww11-<<<<<<<<-4;wwwwww0wwww",
"0090qqqw-<<<<<<<<-44;wwww00wwqww",
"8w0qqqwq-<<<<<<<--4;wwwwwwwww0ww",
"qwwwwww--<<<<<<<-44;wwwwwwwwwwww",
"wqwwwww-<<<<<<<--44;wwwwwwwwwwwq",
"0wwwwww-<<<<<<--44;$wwwwwwwwwwwq",
"0wwwqwq-<<<<<<-:###$wwwwwwwwwwqw",
"qw00q00--<<<<<-:>>>&$wwwwwwwwwww",
"qqwqwqw---<<<<-:>>>&$wwww0wwwwqw",
"wwwwwwww---<<<-5:>>>&$00qwwwwwww",
"wwwwwwwww$--<<-5:>>>&$$80wwwwwww",
"wwwwwwwww$&--<-::>>>>&$wwwwwq0ww",
"wwwwwwww$$&>--->>>>>>&$$wwwwwwww",
"wwwwwwww$&&>>>>>>>>>>&&$wwwqwwww",
"wwwwwwww$&>>>>>>>>>>>>&$wwww8www",
"wwwwwwq$$&>>>>>>>>>>>>&$$wwwwwww",
"wwwwwww$&>>>>>>>>>>>>>>&$wwwwwww",
"wwwwww$&&>>>>>>>>>>>>>>&&$qwwqww",
"qwwwww$&&>>>>>>>>>>>>>>&&$wwwq0w",
"qwwwww$$&>>>>>>>>>>>>>>&$$wwwwww",
"wwwwwww$$&>>>>>>>>>>>>&$$0wwwwww",
"www0wwww$$&>>>>>>>>>>&$$0wwww0w0",
"wwww0qww0$$$&&&&&&&&$$$wwwwwwwww",
"wwwwwwwqqw$$$$$$$$$$$$wqwwww0wqw",
"wwwwwwqqww0q @@ @@ www0wqwwww0ww",
"wwwwwwwwqq0w O@ @@@ 0wwwwwwwwwww",
"wwwwwwwwwwwww   O@@@ q79wwwww9ww",
"wwwwwwwwwwwwwqw     O00wwwqwq0ww",
"wwwwwwwwwwwwwwwwwwq0wwwqwq0qwwww",
"wwwqq0wwwwwwwwwwwwwwwwwwwwwwwwww"
};
