/* XPM */
static char *_002[] = {
/* columns rows colors chars-per-pixel */
"32 64 29 1 ",
"  c #090806",
". c #1C0505",
"X c #0F1017",
"o c #22100F",
"O c #221C16",
"+ c #3A1A18",
"@ c #28241A",
"# c #10182C",
"$ c #141F38",
"% c #392120",
"& c #692329",
"* c #594E3A",
"= c #5C523A",
"- c #223462",
"; c #4B4949",
": c #87232A",
"> c #AD7939",
", c #EF952C",
"< c #E09D34",
"1 c #A9895B",
"2 c #BC9C65",
"3 c #EEB74B",
"4 c #AEAFB0",
"5 c #AFB0B1",
"6 c #B1B2B3",
"7 c #B3B3B4",
"8 c #B7B7B7",
"9 c #FFDC8E",
"0 c white",
/* pixels */
"88888888888888888888888888888888",
"88888888767888866888886878888888",
"86688XXXXXXXXXXXXXXXXXXXXXX68888",
"6656X;;;;;;;;;;;;;;;;;;;;;;X8788",
"486X;;;;;;;;;;;;;;;;;;;;;;;;X688",
"78X;;;;;;;;;;;;;;;;;;;;;;;;;;X88",
"87XXXXXXXXXXXXXXXXXXXXXXXXXXXX87",
"68X;;;;;;;;;;;;;;;;;;;;;;;;;;X87",
"68X;;;;;;;;;;;;;;;;;;;;;;;;;;X78",
"7..............................8",
"7..............................8",
"88X;;..;;;;;;>>>>>>;;;;;;..;;X88",
"88X;;..;;;;>>><<<<>>>;;;;..;;X88",
"88X;;;.;;;>><<<<<<<<>>;;;.;;;X88",
"88X;;;;;X>><<333333<<>>X;;;;;X88",
"88X;;;;X>><<33333333<<>>X;;;;X88",
"88X;;;XX><<333<333333<<>XX;;;X88",
"88X;;XX>><333<<333>33<<>>XX;;X88",
"88X;;X;><<33<>>333>>33<<>;X;;X88",
"88X;;X;><33<>9>33>9>>33<>;X;;X88",
"78X;;X><<33>===3>===>>3<<>X;;X68",
"78X;;X><33>==,=>9=,==>3<<>X;;X88",
"88X;;X><33>9=0=99=0=9>33<>X;;X88",
"88X;;X>33>>99=9999=99>33<>X;;X86",
"88X;;X>33>>299999999>333>>X;;X88",
"88X;;X>33>>>29999992>33><>X;;X78",
"88X;;X>33>>>>299992>>>3><>X;;X88",
"88X;;X>33>>>OO@22@OO>>3><>X;;X88",
"88XX;X>3>>OO%OO@@OO%OO><>;X;XX88",
"888XXX>3>O%%%%%OO%%%%OO<>XXXX688",
"8888XX>3>&OO%%O%%O%%OO&>XXXX8888",
"8887768>&:::O%O%%O%O:::&88888888",
"88888888&::::O%OO%O::::&88888888",
"8888888&::::::1111::::::&8888888",
"8668888&::::11111111::::&8868888",
"665677&::::1111111111::::&688788",
"486777&::::1111111111::::&888688",
"788888&:::@*11111111*@:::&888888",
"878888&:::@**111111**@:::&888887",
"68888&:::2=@********@=2:::&88887",
"68887&::=2=#@@@@@@@@#=2=::&88878",
"78667&::2=##$------$##=2::&88888",
"7787&:::2=#$$------$$#=2:::&8878",
"8888&::2==#$--------$#==2::&8888",
"8888&::2=##$--------$##=2::&8888",
"8888&::==#$----------$#==::&7688",
"8888&:&&##$----------$##&&:&8888",
"8888&&&8#$$----------$$#8&&&8888",
"88888888#$------------$#88884888",
"8888887##$------------$##8888888",
"8888888#$--------------$#8888888",
"888888#$$--------------$$#788788",
"788888#$$--------------$$#888768",
"788888##$--------------$##888888",
"8888888##$------------$##6888888",
"88868888##$----------$##68888686",
"888867886##$$$$$$$$$$##888888888",
"8888888778############8788886878",
"8888887788 +++ 88 +++ 6878888688",
"888888887 +++o 88 o+++ 888888888",
"888888888 ++o 8867 o++ 588888588",
"888888888o   788788   o888787688",
"88888888888888888876888787678888",
"88877688888888888888888888888888"
};
