/* XPM */
static char *_015[] = {
/* columns rows colors chars-per-pixel */
"32 64 23 1 ",
"  c #090806",
". c #22100F",
"X c #3A1A18",
"o c #10182C",
"O c #141F38",
"+ c #302320",
"@ c #4A2622",
"# c #4E2926",
"$ c #692329",
"% c #752026",
"& c #223462",
"* c #87232A",
"= c #A9292F",
"- c #AD7939",
"; c #D28438",
": c #E09D34",
"> c #F0BF3F",
", c #EEB74B",
"< c #AEAFB0",
"1 c #AFB0B1",
"2 c #B1B2B3",
"3 c #B3B3B4",
"4 c #B7B7B7",
/* pixels */
"44444444444444444444444444444444",
"44444444323444422444442434444444",
"42244444444444444444444444424444",
"22123334444444444444444442244344",
"<4233343444444444444444444444244",
"34444444444444444444444444444444",
"43444444224444444444444444444443",
"24444444444444444+++444444444443",
"2444343444434444+=%=+44444444434",
"342232224444444+>%=%=+4444444444",
"33434343333434+##;>%%=+442444434",
"4444444444444------;=%=+34444444",
"44444444444---::::---;%=+4444444",
"4444444444--::,,,,,:-->%++443244",
"444444443--::,,,,,,,:--+@+444444",
"44444444--::,,,,,,,,,:--@+434444",
"44444444-::,,,,,,,,,,,:-+444<444",
"4444443--:,,,,,,,,,,,,:--4444444",
"444444+-:,,,,,,,,,,,,,,:-4444444",
"444444+-:,,,,,,,,,,,,,,:-3344344",
"344444-:,,,,,,,,,,,,,,,,:-444324",
"344444-:,,,,,,,,,,,,,,,,:-444444",
"444444-:,,,,,,,,,,,,,,,,:-444444",
"444244-:,,,,,,,,,,,,,,,,:-444242",
"444423-:,,,,,,,,,,,,,,,,:-444444",
"444444-:,,,,,,,,,,,,,,,,:-442434",
"444444-:,,,,,,,,,,,,,,,,:-443244",
"444444-:,,,,,,:,,,,,,,,,:-444444",
"44444--,,::,,,:,,,,:-,,,:-444244",
"44444-:,,:-,::-:,,,:-,,:---43244",
"44444-:,-:-:-:-:,,:-:,,:-:-34444",
"44433-:--:-:-::-:,:-:,,:-:-44444",
"444444----::-::-::--::,:-:-44444",
"4444444-*-::--::-:-*-:,:-:-44444",
"4224444-*-:-*-:-*-***-:----24444",
"221233$***-***-*******-**$244344",
"<42333$******************$444244",
"344444$******************$444444",
"434444$******************$444443",
"24444$********************$44443",
"24443$********************$44434",
"34223$********************$44444",
"3343$**********************$4434",
"4444$*******$$$$$$$$*******$4444",
"4444$****$$$$&&&&&&$$$$****$4444",
"4444$**$$$$&&&&&&&&&&$$$$**$3244",
"4444$*$$ooO&&&&&&&&&&Ooo$$*$4444",
"4444$$$4oOO&&&&&&&&&&OOo4$$$4444",
"44444444oO&&&&&&&&&&&&Oo4444<444",
"4444443ooO&&&&&&&&&&&&Ooo4444444",
"4444444oO&&&&&&&&&&&&&&Oo4444444",
"444444oOO&&&&&&&&&&&&&&OOo344344",
"344444oOO&&&&&&&&&&&&&&OOo444324",
"344444ooO&&&&&&&&&&&&&&Ooo444444",
"4444444ooO&&&&&&&&&&&&Ooo2444444",
"44424444ooO&&&&&&&&&&Ooo24444242",
"444423442ooOOOOOOOOOOoo444444444",
"4444444334oooooooooooo4344442434",
"4444443344..XX 44 XX..2434444244",
"444444443 XXXX 44 XXXX 444444444",
"444444444..XXX.42.XXX..144444144",
"4444444444.  .4434.  .2444343244",
"44444444444444444432444343234444",
"44433244444444444444444444444444"
};
