/* XPM */
static char *_000[] = {
/* columns rows colors chars-per-pixel */
"32 64 37 1 ",
"  c #090806",
". c #22100F",
"X c #30190B",
"o c #221C16",
"O c #3A1A18",
"+ c #28241A",
"@ c #10182C",
"# c #141F38",
"$ c #302320",
"% c #392120",
"& c #4A2622",
"* c #4E2926",
"= c #4A3527",
"- c #692329",
"; c #752026",
": c #594E3A",
"> c #5C523A",
", c #223462",
"< c #87232A",
"1 c #A9292F",
"2 c #A2501D",
"3 c #AD7939",
"4 c #D28438",
"5 c #EF952C",
"6 c #E09D34",
"7 c #F0BF3F",
"8 c #A9895B",
"9 c #BC9C65",
"0 c #EEB74B",
"q c #AEAFB0",
"w c #AFB0B1",
"e c #B1B2B3",
"r c #B3B3B4",
"t c #B7B7B7",
"y c #FFDC8E",
"u c #EBC8B5",
"i c white",
/* pixels */
"tttttttttttttttttttttttttttttttt",
"ttttttttrertttteetttttetrttttttt",
"teettttttttttttttttttttttttetttt",
"eewerrrtttttttttttttttttteettrtt",
"qterrrtrtttttttttttttttttttttett",
"rttttttttttttttttttttttttttttttt",
"trtttttteetttttttttttttttttttttr",
"etttttttttttttttt$$$tttttttttttr",
"etttrtrttttrtttt$1;1$tttttttttrt",
"rteereeettttttt$7;1;1$tttttttttt",
"rrtrtrtrrrrtrt$**47;;1$ttettttrt",
"ttttttttttttt33333341;1$rttttttt",
"ttttttttttt33366663334;1$ttttttt",
"tttttttttt3366666666337;$$ttrett",
"tttttttXX33660000006633$&$tXXttt",
"tttttttX3366000000006633&$tXuXtt",
"tttttttX3660006000000663$ttXuuXt",
"ttttttX336000660003006633tXXXuXt",
"ttttttX366006330003300663XXX=Xtt",
"tttttX=360063y3003y330063XX==Xtt",
"rtttXX366003>>>03>>>330663X=2Xet",
"rtttX=36003>>5>3y>5>>30663=22Xtt",
"tttXX236003y>i>yy>i>y3006322Xttt",
"tttX2X30033yy>yyyy>yy3006322Xete",
"ttXXXX300339yyyyyyyy300033=2Xttt",
"ttX2XX3003339yyyyyy9300363==Xtrt",
"ttX2=X30033339yyyy93330363=XXett",
"ttXX2=300333oo+99+oo330363XXtttt",
"tttXX23033oo%oo++oo%oo363XXttett",
"ttttXX303o%%%%%oo%%%%oo63Xttrett",
"tttttt303-oo%%o%%o%%oo-3trertttt",
"tttrret3-<<<o%o%%o%o<<<-tttttttt",
"tttttttt-<<<<o%oo%o<<<<-tttttttt",
"ttttttt-<<<<<<8888<<<<<<-ttttttt",
"teetttt-<<<<88888888<<<<-ttetttt",
"eewerr-<<<<8888888888<<<<-ettrtt",
"qterrr-<<<<8888888888<<<<-tttett",
"rttttt-<<<+:88888888:+<<<-tttttt",
"trtttt-<<<+::888888::+<<<-tttttr",
"etttt-<<<9>+::::::::+>9<<<-ttttr",
"etttr-<<>9>@++++++++@>9><<-tttrt",
"rteer-<<9>@@#,,,,,,#@@>9<<-ttttt",
"rrtr-<<<9>@##,,,,,,##@>9<<<-ttrt",
"tttt-<<9>>@#,,,,,,,,#@>>9<<-tttt",
"tttt-<<9>@@#,,,,,,,,#@@>9<<-tttt",
"tttt-<<>>@#,,,,,,,,,,#@>><<-rett",
"tttt-<--@@#,,,,,,,,,,#@@--<-tttt",
"tttt---t@##,,,,,,,,,,##@t---tttt",
"tttttttt@#,,,,,,,,,,,,#@ttttqttt",
"ttttttr@@#,,,,,,,,,,,,#@@ttttttt",
"ttttttt@#,,,,,,,,,,,,,,#@ttttttt",
"tttttt@##,,,,,,,,,,,,,,##@rttrtt",
"rttttt@##,,,,,,,,,,,,,,##@tttret",
"rttttt@@#,,,,,,,,,,,,,,#@@tttttt",
"ttttttt@@#,,,,,,,,,,,,#@@etttttt",
"tttetttt@@#,,,,,,,,,,#@@ettttete",
"ttttertte@@##########@@ttttttttt",
"tttttttrrt@@@@@@@@@@@@trttttetrt",
"ttttttrrtt OOO tt OOO etrttttett",
"ttttttttr OOO. tt .OOO ttttttttt",
"ttttttttt OO. tter .OO wtttttwtt",
"ttttttttt.   rttrtt   .tttrtrett",
"ttttttttttttttttttretttrtrertttt",
"tttrretttttttttttttttttttttttttt"
};
