/* XPM */
static char *_010[] = {
/* columns rows colors chars-per-pixel */
"32 64 20 1 ",
"  c #090806",
". c #1A0808",
"X c #200909",
"o c #300000",
"O c #3E0D03",
"+ c #22100F",
"@ c #3A1A18",
"# c #10182C",
"$ c #141F38",
"% c #692329",
"& c #223462",
"* c #87232A",
"= c #AD7939",
"- c #E09D34",
"; c #EEB74B",
": c #AEAFB0",
"> c #AFB0B1",
", c #B1B2B3",
"< c #B3B3B4",
"1 c #B7B7B7",
/* pixels */
"XXXXXXXXXXXXXXXXXXXXXXXXXXXXXXXX",
"X.......XXXXXXXXXXXXXXX.......XX",
"X.XXXXX.XXX........XXXX.XXXXX.XX",
"X.XXXXX.XXX.XXXXXX.XXXX.XXXXX.XX",
"X.......XXX.XXXXXX.XXXX.......XX",
"XXXXXXXXXXX........XXXXXXXXXXXXX",
"XXXXXXXXXXXXXXXXXXXXXXXXXXXXXXXX",
"oooooooooooooooooooooooooooooooo",
"OOOOOOOOoooOOOOOOOoooOOOOOOOoooO",
"OOOOOOOOOoOOOOOOOOOoOOOOOOOOOoOO",
"OOOOOOOOOoOOOOOOOOOoOOOOOOOOOoOO",
"OOOOOOOOoooOO======ooOOOOOOOoooO",
"ooooooooooo===----===ooooooooooo",
"OOOoooOOOO==--;;;;;-==OOOoooOOOO",
"OOOOoOOOO==--;;;;;;;-==OOOoOOOOO",
"OOOOoOOO==--;;;;;;;;;-==OOoOOOOO",
"OOOoooOO=--;;;;;;;;;;;-=OoooOOOO",
"ooooooo==-;;;;;;;;;;;;-==ooooooo",
"OOOOOOO=-;;;;;;;;;;;;;;-=OOOoooO",
"OOOOOOO=-;;;;;;;;;;;;;;-=OOOOoOO",
"OOOOOO=-;;;;;;;;;;;;;;;;-=OOOoOO",
"OOOOOO=-;;;;;;;;;;;;;;;;-=OOoooO",
"oooooo=-;;;;;;;;;;;;;;;;-=oooooo",
"OOOooo=-;;;;;;;;;;;;;;;;-=ooOOOO",
"OOOOoO=-;;;;;;;;;;;;;;;;-=oOOOOO",
"OOOOoO=-;;;;;;;;;;;;;;;;-=oOOOOO",
"OOOooo=-;;;;;;;;;;;;;;;;-=ooOOOO",
"oooooo=-;;;;;;-;;;;;;;;;-=oooooo",
"OOOOO==;;--;;;-;;;;-=;;;-=OOOooo",
"OOOOO=-;;-=;--=-;;;-=;;-===OOOoO",
"OOOOO=-;=-=-=-=-;;-=-;;-=-=OOOoO",
"OOOOO=-==-=-=--=-;-=-;;-=-=OOooo",
"111111====--=--=--==--;-=-=11111",
"1111111=*=--==--=-=*=-;-=-=11111",
"1,,1111=*=-=*=-=*=***=-====,1111",
",,>,<<%***=***=*******=**%,11<11",
":1,<<<%******************%111,11",
"<11111%******************%111111",
"1<1111%******************%11111<",
",1111%********************%1111<",
",111<%********************%111<1",
"<1,,<%********************%11111",
"<<1<%**********************%11<1",
"1111%*******%%%%%%%%*******%1111",
"1111%****%%%%&&&&&&%%%%****%1111",
"1111%**%%%%&&&&&&&&&&%%%%**%<,11",
"1111%*%%##$&&&&&&&&&&$##%%*%1111",
"1111%%%1#$$&&&&&&&&&&$$#1%%%1111",
"11111111#$&&&&&&&&&&&&$#1111:111",
"111111<##$&&&&&&&&&&&&$##1111111",
"1111111#$&&&&&&&&&&&&&&$#1111111",
"111111#$$&&&&&&&&&&&&&&$$#<11<11",
"<11111#$$&&&&&&&&&&&&&&$$#111<,1",
"<11111##$&&&&&&&&&&&&&&$##111111",
"1111111##$&&&&&&&&&&&&$##,111111",
"111,1111##$&&&&&&&&&&$##,1111,1,",
"1111,<11,##$$$$$$$$$$##111111111",
"1111111<<1############1<1111,1<1",
"111111<<11++@@ 11 @@++,1<1111,11",
"11111111< @@@@ 11 @@@@ 111111111",
"111111111++@@@+1,+@@@++>11111>11",
"1111111111+  +11<1+  +,111<1<,11",
"111111111111111111<,111<1<,<1111",
"111<<,11111111111111111111111111"
};
