/* XPM */
static char *_005[] = {
/* columns rows colors chars-per-pixel */
"32 64 27 1 ",
"  c #090806",
". c #22100F",
"X c #30190B",
"o c #3A1A18",
"O c #10182C",
"+ c #141F38",
"@ c #302320",
"# c #4A2622",
"$ c #4E2926",
"% c #4A3527",
"& c #692329",
"* c #752026",
"= c #223462",
"- c #87232A",
"; c #A9292F",
": c #A2501D",
"> c #AD7939",
", c #D28438",
"< c #E09D34",
"1 c #F0BF3F",
"2 c #EEB74B",
"3 c #AEAFB0",
"4 c #AFB0B1",
"5 c #B1B2B3",
"6 c #B3B3B4",
"7 c #B7B7B7",
"8 c #EBC8B5",
/* pixels */
"77777777777777777777777777777777",
"77777777656777755777775767777777",
"75577777777777777777777777757777",
"55456667777777777777777775577677",
"37566676777777777777777777777577",
"67777777777777777777777777777777",
"76777777557777777777777777777776",
"57777777777777777@@@777777777776",
"5777676777767777@;*;@77777777767",
"675565557777777@1*;*;@7777777777",
"66767676666767@$$,1**;@775777767",
"7777777777777>>>>>>,;*;@67777777",
"77777777777>>><<<<>>>,*;@7777777",
"7777777777>><<22222<>>1*@@776577",
"77777777X>><<2222222<>>@#@777777",
"77777777>><<222222222<>>#@767777",
"77777777><<22222222222<>X77XX777",
"7777776>><222222222222<>>X7X8X77",
"777777X><22222222222222<>%XX88X7",
"77777X%><22222222222222<>%XXX8X7",
"6777X%><2222222222222222<>%%XX57",
"677X%:><2222222222222222<>%:X777",
"777X%:><2222222222222222<>::X777",
"777X:X><2222222222222222<>:X7575",
"777X:X><2222222222222222<>XX7777",
"777XXX><2222222222222222<>X75767",
"777X:%><2222222222222222<>X77577",
"777XX:><222222<222222222<>777777",
"7777X>>22<<222<2222<>222<>777577",
"77777><22<>2<<><222<>22<>>>76577",
"77777><2><><><><22<><22<><>67777",
"77766><>><><><<><2<><22<><>77777",
"777777>>>><<><<><<>><<2<><>77777",
"7777777>-><<>><<><>-><2<><>77777",
"7557777>-><>-><>->---><>>>>57777",
"554566&--->--->------->--&577677",
"375666&------------------&777577",
"677777&------------------&777777",
"767777&------------------&777776",
"57777&--------------------&77776",
"57776&--------------------&77767",
"67556&--------------------&77777",
"6676&----------------------&7767",
"7777&-------&&&&&&&&-------&7777",
"7777&----&&&&======&&&&----&7777",
"7777&--&&&&==========&&&&--&6577",
"7777&-&&OO+==========+OO&&-&7777",
"7777&&&7O++==========++O7&&&7777",
"77777777O+============+O77773777",
"7777776OO+============+OO7777777",
"7777777O+==============+O7777777",
"777777O++==============++O677677",
"677777O++==============++O777657",
"677777OO+==============+OO777777",
"7777777OO+============+OO5777777",
"77757777OO+==========+OO57777575",
"777756775OO++++++++++OO777777777",
"7777777667OOOOOOOOOOOO7677775767",
"7777776677..oo 77 oo..5767777577",
"777777776 oooo 77 oooo 777777777",
"777777777..ooo.75.ooo..477777477",
"7777777777.  .7767.  .5777676577",
"77777777777777777765777676567777",
"77766577777777777777777777777777"
};
