/* XPM */
static char *_006[] = {
/* columns rows colors chars-per-pixel */
"32 32 15 1 ",
"  c #302320",
". c #4A2622",
"X c #4E2926",
"o c #5D2E2A",
"O c #752026",
"+ c #6E342F",
"@ c #A9292F",
"# c #D28438",
"$ c #F0BF3F",
"% c #ACADAF",
"& c #AEAFB0",
"* c #AFB0B1",
"= c #B1B2B3",
"- c #B3B3B4",
"; c #B7B7B7",
/* pixels */
";;;;;;;;;;;;;;;;;;;;;;;;;;;;;;;;",
";;;;;;;;-=-;;;;==;;;;;=;-;;;;;;;",
";==;;;;;;;;;;;;;;;;;;;;;;;;=;;;;",
"==*=---;;;;;;;;;;;;;;;;;;==;;-;;",
"&;=---;-;;;;;;;;;;;;;;;;;;;;;=;;",
"-;;;;;;;;;;;;;;;;;;;;;;;;;;;;;;;",
";-;;;;;;==;;;;;;;;;;;;;;;;;;;;;-",
"=;;;;;;;;;;;;;;;;   ;;;;;;;;;;;-",
"=;;;-;-;;;;-;;;; @O@ ;;;;;;;;;-;",
"-;==-===;;;;;;; $O@O@ ;;;;;;;;;;",
"--;-;-;----;-; XX#$OO@ ;;=;;;;-;",
";;;;;;;;;;;;; XXXX$#@O@ -;;;;;;;",
";;;;;;;;;;;; XXXX..#$#O@ ;;;;;;;",
";;;;;;;;;;; +++X....#$$O  ;;-=;;",
";;;;;;;;-= ++++oo.....$ . ;;;;;;",
";;;;;;;;- ++++oooo.... .. ;-;;;;",
";;;;;;;; ++++oooooo.. .. ;;;&;;;",
";;;;;;- ++++oooooooo    ;;;;;;;;",
";;;;;; o ++oooooooo oo ;-;;;;;;;",
";;;;;; oo oooooooo oo -----;;-;;",
"-;;;;;; oo oooooo oo ;;-;;;;;-=;",
"-;;;;;;; oo oooo oo ;;==;;;;;;;;",
";;;;;;;;; oo oo oo ;;;==*=;;;;;;",
";;;=;;;;;; oo  oo ;;;;;-=;;;;=;=",
";;;;=-;;==; oo o ;;;;;;;;;;;;;;;",
";;;;;;;--;;; oo ;;;;;;;-;;;;=;-;",
";;;;;;--;;=-;  ;;;;;;;=;-;;;;=;;",
";;;;;;;;--=;-;;;;;;;=;;;;;;;;;;;",
";;;;;;;;;;;;;-;;=--;;-%*;;;;;*;;",
";;;;;;;;;;;;;-;;-;;=*==;;;-;-=;;",
";;;;;;;;;;;;;;;;;;-=-;;-;-=-;;;;",
";;;--=;;;;;;;;;;;;;;;;;;;;;;;;;;"
};
