/* XPM */
static char *_010[] = {
/* columns rows colors chars-per-pixel */
"32 64 31 1 ",
"  c #090806",
". c #1A0808",
"X c #200909",
"o c #300000",
"O c #3E0D03",
"+ c #22100F",
"@ c #221C16",
"# c #3A1A18",
"$ c #28241A",
"% c #10182C",
"& c #141F38",
"* c #392120",
"= c #692329",
"- c #594E3A",
"; c #5C523A",
": c #223462",
"> c #87232A",
", c #AD7939",
"< c #EF952C",
"1 c #E09D34",
"2 c #A9895B",
"3 c #BC9C65",
"4 c #EEB74B",
"5 c #ACADAF",
"6 c #AEAFB0",
"7 c #AFB0B1",
"8 c #B1B2B3",
"9 c #B3B3B4",
"0 c #B7B7B7",
"q c #FFDC8E",
"w c white",
/* pixels */
"XXXXXXXXXXXXXXXXXXXXXXXXXXXXXXXX",
"X.......XXXXXXXXXXXXXXX.......XX",
"X.XXXXX.XXX........XXXX.XXXXX.XX",
"X.XXXXX.XXX.XXXXXX.XXXX.XXXXX.XX",
"X.......XXX.XXXXXX.XXXX.......XX",
"XXXXXXXXXXX........XXXXXXXXXXXXX",
"XXXXXXXXXXXXXXXXXXXXXXXXXXXXXXXX",
"oooooooooooooooooooooooooooooooo",
"OOOOOOOOoooOOOOOOOoooOOOOOOOoooO",
"OOOOOOOOOoOOOOOOOOOoOOOOOOOOOoOO",
"OOOOOOOOOoOOOOOOOOOoOOOOOOOOOoOO",
"OOOOOOOOoooOO,,,,,,ooOOOOOOOoooO",
"ooooooooooo,,,1111,,,ooooooooooo",
"OOOoooOOOO,,11144411,,OOOoooOOOO",
"OOOOoOOOOO,1144444411,,OOOoOOOOO",
"OOOOoOOOO,114444444411,,OOoOOOOO",
"OOOoooOOO,1444444444411,OoooOOOO",
"ooooooooo14441444444441,,ooooooo",
"OOOOOOOO,144,,1444444411,OOOoooO",
"OOOOOOOO,14,,q,444444441,OOOOoOO",
"OOOOOOOO,14;;;q,44444441,,OOOoOO",
"OOOOOOOO,14;<;;q444444441,OOoooO",
"oooooooo,14;w;qq,44444441,oooooo",
"OOOoooOO,14q;qqq,44444141,ooOOOO",
"OOOOoOOO,1,qqqqq,44,41111,oOOOOO",
"OOOOoOOO,1,3qqq,44,,11,11,oOOOOO",
"OOOoooOOO,4,3q,444,11,,11,ooOOOO",
"ooooooooo,4,,@,4,,11,,111,oooooo",
"OOOOOOOOo,4,@@@,,111,,111,OOOooo",
"OOOOOOOOO,4,@*@@,11,,,111,OOOOoO",
"OOOOOOOOO,4@**@=,1,,,,,1,OOOOOoO",
"OOOOOOOOoo,@*@=>>,,1,=,1,OOOOooo",
"00000000000-@=>>>>=,===,00000000",
"00000000989-2=>>>>>=>>=090000000",
"08800000000-2=>>>>>>>>=000080000",
"88789990000-22=>>>>>>>>=08800900",
"608999090000-2==>>>>>>>=00000800",
"900000000000-22=>>>>>>>==0000000",
"090000008800-22==>>>>>>>=0000009",
"800000000000%$22==>>>>>>=0000009",
"800090900009%$$$-=>>>>>>=0000090",
"90889888000%&:::;=>>>>>==0000000",
"99090909999&&:::;=>>>>===8000090",
"0000000000%&:::;3=>>>===90000000",
"000000000%%&:::;3=>>==%680000000",
"000000000%&::::;;=>==&%000009800",
"00000000%%&::::::===:&%%00000000",
"00000000%&&:::::::=::&&%00090000",
"00000000%&::::::::::::&%00006000",
"0000009%%&::::::::::::&%%0000000",
"0000000%&::::::::::::::&%0000000",
"000000%&&::::::::::::::&&%900900",
"900000%&&::::::::::::::&&%000980",
"900000%%&::::::::::::::&%%000000",
"0000000%%&::::::::::::&%%8000000",
"00080000%%&::::::::::&%%80000808",
"000089008%%%&&&&&&&&%%%000000000",
"0000000990%%%%%%%%%%%%0900008090",
"0000009900890 ## ## 008090000800",
"000000009980 ### #+ 800000000000",
"00000000000 ###+   0095700000700",
"00000000000+     008788000909800",
"00000000000000000098000909890000",
"00099800000000000000000000000000"
};
