/* XPM */
static char *_007[] = {
/* columns rows colors chars-per-pixel */
"32 64 20 1 ",
"  c #090806",
". c #22100F",
"X c #3A1A18",
"o c #0E3417",
"O c #10182C",
"+ c #1B1C28",
"@ c #141F38",
"# c #692329",
"$ c #223462",
"% c #4B4949",
"& c #474A50",
"* c #87232A",
"= c #AD7939",
"- c #E09D34",
"; c #EEB74B",
": c #AEAFB0",
"> c #AFB0B1",
", c #B1B2B3",
"< c #B3B3B4",
"1 c #B7B7B7",
/* pixels */
"11111111111111111111111111111111",
"11111111<,<1111,,11111,1<1111111",
"1,,111111111111111111111111,1111",
",,>,<<<111111111111111111,,11<11",
":1,<<<1<111111111111111111111,11",
"<1111111111++++++++++11111111111",
"1<111111+++++%%%%%%+++++1111111<",
",111111+++%%%++++++%%%+++111111<",
",111<1++%%%+++oooo+++%%%++1111<1",
"<1,,<,+%%++oooooooooo++%%+111111",
"<<1<1<+%++oooooooooooo++%+1111<1",
"111111+++oooo======oooo+++111111",
"111111++++o===----===o++++111111",
"11111++%%+==--;;;;;-==+%%++1<,11",
"1111++%%%==--;;;;;;;-==%%%++1111",
"1111+%%%==--;;;;;;;;;-==%%%+1111",
"111++%%%=--;;;;;;;;;;;-=%%%++111",
"111+%%%==-;;;;;;;;;;;;-==%%%+111",
"111+%%%=-;;;;;;;;;;;;;;-=%%%+111",
"111+%%%=-;;;;;;;;;;;;;;-=%%%+<11",
"<11++%=-;;;;;;;;;;;;;;;;-=%++<,1",
"<11+++=-;;;;;;;;;;;;;;;;-=+++111",
"11++++=-;;;;;;;;;;;;;;;;-=++++11",
"11++&&=-;;;;;;;;;;;;;;;;-=&&++1,",
"11+&&&=-;;;;;;;;;;;;;;;;-=&&&+11",
"11+&&&=-;;;;;;;;;;;;;;;;-=&&&+<1",
"11++&&=-;;;;;;;;;;;;;;;;-=&&++11",
"111+++=-;;;;;;-;;;;;;;;;-=+++111",
"11111==;;--;;;-;;;;-=;;;-=111,11",
"11111=-;;-=;--=-;;;-=;;-===1<,11",
"11111=-;=-=-=-=-;;-=-;;-=-=<1111",
"111<<=-==-=-=--=-;-=-;;-=-=11111",
"111111====--=--=--==--;-=-=11111",
"1111111=*=--==--=-=*=-;-=-=11111",
"1,,1111=*=-=*=-=*=***=-====,1111",
",,>,<<#***=***=*******=**#,11<11",
":1,<<<#******************#111,11",
"<11111#******************#111111",
"1<1111#******************#11111<",
",1111#********************#1111<",
",111<#********************#111<1",
"<1,,<#********************#11111",
"<<1<#**********************#11<1",
"1111#*******########*******#1111",
"1111#****####$$$$$$####****#1111",
"1111#**####$$$$$$$$$$####**#<,11",
"1111#*##OO@$$$$$$$$$$@OO##*#1111",
"1111###1O@@$$$$$$$$$$@@O1###1111",
"11111111O@$$$$$$$$$$$$@O1111:111",
"111111<OO@$$$$$$$$$$$$@OO1111111",
"1111111O@$$$$$$$$$$$$$$@O1111111",
"111111O@@$$$$$$$$$$$$$$@@O<11<11",
"<11111O@@$$$$$$$$$$$$$$@@O111<,1",
"<11111OO@$$$$$$$$$$$$$$@OO111111",
"1111111OO@$$$$$$$$$$$$@OO,111111",
"111,1111OO@$$$$$$$$$$@OO,1111,1,",
"1111,<11,OO@@@@@@@@@@OO111111111",
"1111111<<1OOOOOOOOOOOO1<1111,1<1",
"111111<<11..XX 11 XX..,1<1111,11",
"11111111< XXXX 11 XXXX 111111111",
"111111111..XXX.1,.XXX..>11111>11",
"1111111111.  .11<1.  .,111<1<,11",
"111111111111111111<,111<1<,<1111",
"111<<,11111111111111111111111111"
};
