/* XPM */
static char *_009[] = {
/* columns rows colors chars-per-pixel */
"32 64 31 1 ",
"  c #090806",
". c #22100F",
"X c #30190B",
"o c #221C16",
"O c #3A1A18",
"+ c #28241A",
"@ c #10182C",
"# c #141F38",
"$ c #392120",
"% c #4A3527",
"& c #692329",
"* c #594E3A",
"= c #5C523A",
"- c #223462",
"; c #87232A",
": c #A2501D",
"> c #AD7939",
", c #EF952C",
"< c #E09D34",
"1 c #A9895B",
"2 c #BC9C65",
"3 c #EEB74B",
"4 c #ACADAF",
"5 c #AEAFB0",
"6 c #AFB0B1",
"7 c #B1B2B3",
"8 c #B3B3B4",
"9 c #B7B7B7",
"0 c #FFDC8E",
"q c #EBC8B5",
"w c white",
/* pixels */
"99999999999999999999999999999999",
"99999999878999977999997989999999",
"97799999999999999999999999979999",
"77678889999999999999999997799899",
"59788898999999999999999999999799",
"89999999999999999999999999999999",
"98999999779999999999999999999998",
"79999999999999999999999999999998",
"79998989999899999999999999999989",
"89778777999999999999999999999999",
"88989898888989999999899997999989",
"9999999999999>>>>>>8677789999999",
"99999999999>>><<<<>>>98579999999",
"9999999999>><<3333<<>>9999998799",
"99999999X>><<3333333<>9999999999",
"99999999>><<333333333<>999989999",
"99999999><<33333333<3<>XX99XX999",
"9999998>><33333333<<3<>XXX9XqX99",
"999999X><<3333333<>>33>%%%XXqqX9",
"99999X%><3333333<>0>33>>%%XXXqX9",
"8999X%>><333333<>0===3<>XX%%XX79",
"899X%:><3333333>0==,=3<>%%%:X999",
"999X%:><3333333>00=w=3<>::::X999",
"999X:X><3<33333>000=03<>:::X9797",
"999X:X><<<<3333>000003>%::XX9999",
"999XXX><<><<3333>0002>>%%:X97989",
"999X:%><<><<<>33>002><>%%XX99799",
"999XX:><<<><<>333>o>><>XXX999999",
"9999XX><<<><<>>33>oo<<>XX9999799",
"99999X><<<>><>>>3>$o<>XX99998799",
"999999><<>>>>>&>3>$$o>9898789999",
"999887>><>&&>&&&>&o$o99999999999",
"9999999><>&&&&;&&&&o*99999999999",
"9999999>>&;;&;;;&;&1*97989999999",
"9779999>>&;;;;;;;;&1*99999979999",
"77678889&;;;;;;;;&11*99997799899",
"59788898&;;;;;;;&&1*999999999799",
"8999999&&;;;;;;;&11*999999999999",
"9899999&;;;;;;;&&11*999999999998",
"7999999&;;;;;;&&11*@999999999998",
"7999898&;;;;;;&=+++@999999999989",
"8977877&&;;;;;&=---#@99999999999",
"8898989&&&;;;;&=---#@99997999989",
"99999999&&&;;;&2=---#@7789999999",
"999999999@&&;;&2=---#@@579999999",
"999999999@#&&;&==----#@999998799",
"99999999@@#-&&&------#@@99999999",
"99999999@##----------##@99989999",
"99999999@#------------#@99995999",
"9999998@@#------------#@@9999999",
"9999999@#--------------#@9999999",
"999999@##--------------##@899899",
"899999@##--------------##@999879",
"899999@@#--------------#@@999999",
"9999999@@#------------#@@7999999",
"99979999@@#----------#@@79999797",
"999978997@@@########@@@999999999",
"9999999889@@@@@@@@@@@@9899997989",
"999999889978 OO OO 9997989999799",
"999999998879 .O OOO 799999999999",
"9999999999999   .OOO 84699999699",
"999999999999989     .77999898799",
"99999999999999999987999898789999",
"99988799999999999999999999999999"
};
