/* XPM */
static char *_005[] = {
/* columns rows colors chars-per-pixel */
"32 64 33 1 ",
"  c #090806",
". c #22100F",
"X c #221C16",
"o c #3A1A18",
"O c #28241A",
"+ c #10182C",
"@ c #141F38",
"# c #302320",
"$ c #392120",
"% c #4A2622",
"& c #4E2926",
"* c #692329",
"= c #752026",
"- c #594E3A",
"; c #5C523A",
": c #223462",
"> c #87232A",
", c #A9292F",
"< c #AD7939",
"1 c #D28438",
"2 c #EF952C",
"3 c #E09D34",
"4 c #F0BF3F",
"5 c #A9895B",
"6 c #BC9C65",
"7 c #EEB74B",
"8 c #AEAFB0",
"9 c #AFB0B1",
"0 c #B1B2B3",
"q c #B3B3B4",
"w c #B7B7B7",
"e c #FFDC8E",
"r c white",
/* pixels */
"wwwwwwwwwwwwwwwwwwwwwwwwwwwwwwww",
"wwwwwwwwq0qwwww00wwwww0wqwwwwwww",
"w00wwwwwwwwwwwwwwwwwwwwwwww0wwww",
"0090qqqwwwwwwwwwwwwwwwwww00wwqww",
"8w0qqqwqwwwwwwwwwwwwwwwwwwwww0ww",
"qwwwwwwwwwwwwwwwwwwwwwwwwwwwwwww",
"wqwwwwww00wwwwwwwwwwwwwwwwwwwwwq",
"0wwwwwwwwwwwwwwww###wwwwwwwwwwwq",
"0wwwqwqwwwwqwwww#,=,#wwwwwwwwwqw",
"qw00q000wwwwwww#4=,=,#wwwwwwwwww",
"qqwqwqwqqqqwqw#&&14==,#ww0wwwwqw",
"wwwwwwwwwwwww<<<<<<1,=,#qwwwwwww",
"wwwwwwwwwww<<<3333<<<1=,#wwwwwww",
"wwwwwwwwww<<33333333<<4=##wwq0ww",
"wwwwwwwwq<<3377777733<<#%#wwwwww",
"wwwwwwww<<337777777733<<%#wqwwww",
"wwwwwwww<33777377777733<#www8www",
"wwwwwwq<<377733777<7733<<wwwwwww",
"wwwwww#<33773<<777<<7733<wwwwwww",
"wwwwww#<3773<e<77<e<<773<qqwwqww",
"qwwwww<3377<;;;7<;;;<<733<wwwq0w",
"qwwwww<377<;;2;<e;2;;<733<wwwwww",
"wwwwww<377<e;r;ee;r;e<773<wwwwww",
"www0ww<77<<ee;eeee;ee<773<www0w0",
"wwww0q<77<<6eeeeeeee<777<<wwwwww",
"wwwwww<77<<<6eeeeee6<77<3<ww0wqw",
"wwwwww<77<<<<6eeee6<<<7<3<wwq0ww",
"wwwwww<77<<<XXO66OXX<<7<3<wwwwww",
"wwwwww<7<<XX$XXOOXX$XX<3<wwww0ww",
"wwwwww<7<X$$$$$XX$$$$XX3<wwwq0ww",
"wwwwww<7<*XX$$X$$X$$XX*<wq0qwwww",
"wwwqq0w<*>>>X$X$$X$X>>>*wwwwwwww",
"wwwwwwww*>>>>X$XX$X>>>>*wwwwwwww",
"wwwwwww*>>>>>>5555>>>>>>*wwwwwww",
"w00wwww*>>>>55555555>>>>*ww0wwww",
"0090qq*>>>>5555555555>>>>*0wwqww",
"8w0qqq*>>>>5555555555>>>>*www0ww",
"qwwwww*>>>O-55555555-O>>>*wwwwww",
"wqwwww*>>>O--555555--O>>>*wwwwwq",
"0wwww*>>>6;O--------O;6>>>*wwwwq",
"0wwwq*>>;6;+OOOOOOOO+;6;>>*wwwqw",
"qw00q*>>6;++@::::::@++;6>>*wwwww",
"qqwq*>>>6;+@@::::::@@+;6>>>*wwqw",
"wwww*>>6;;+@::::::::@+;;6>>*wwww",
"wwww*>>6;++@::::::::@++;6>>*wwww",
"wwww*>>;;+@::::::::::@+;;>>*q0ww",
"wwww*>**++@::::::::::@++**>*wwww",
"wwww***w+@@::::::::::@@+w***wwww",
"wwwwwwww+@::::::::::::@+wwww8www",
"wwwwwwq++@::::::::::::@++wwwwwww",
"wwwwwww+@::::::::::::::@+wwwwwww",
"wwwwww+@@::::::::::::::@@+qwwqww",
"qwwwww+@@::::::::::::::@@+wwwq0w",
"qwwwww++@::::::::::::::@++wwwwww",
"wwwwwww++@::::::::::::@++0wwwwww",
"www0wwww++@::::::::::@++0wwww0w0",
"wwww0qww0++@@@@@@@@@@++wwwwwwwww",
"wwwwwwwqqw++++++++++++wqwwww0wqw",
"wwwwwwqqww ooo ww ooo 0wqwwww0ww",
"wwwwwwwwq ooo. ww .ooo wwwwwwwww",
"wwwwwwwww oo. ww0q .oo 9wwwww9ww",
"wwwwwwwww.   qwwqww   .wwwqwq0ww",
"wwwwwwwwwwwwwwwwwwq0wwwqwq0qwwww",
"wwwqq0wwwwwwwwwwwwwwwwwwwwwwwwww"
};
