/* XPM */
static char *_007[] = {
/* columns rows colors chars-per-pixel */
"32 32 11 1 ",
"  c #3E0D03",
". c #9A2D35",
"X c #B63A44",
"o c #D1A752",
"O c #F0BF5D",
"+ c #ACADAF",
"@ c #AEAFB0",
"# c #AFB0B1",
"$ c #B1B2B3",
"% c #B3B3B4",
"& c #B7B7B7",
/* pixels */
"&&&&&&&&&&&&&&&&&&&&&&&&&&&&&&&&",
"&&&&&&&&%$%&&&&$$&&&&&$&%&&&&&&&",
"&$$&&&&&&&&&&&&&&&&&&&&&&&&$&&&&",
"$$#$%%%&&&&&&&&&&&&&&&&&&$$&&%&&",
"@&$%%%&%&&&&&&&&&&&&&&&&&&&&&$&&",
"%&&&&&&&&&&&&&&&&&&&&&&&&&&&&&&&",
"&%&&&&&&$$&&&&&&&&&&&&&&&&&&&&&%",
"$&&&&&&&&&&&&&&&&&&&&&&&&&&&&&&%",
"$&&&%&%&&&&%&&&&&&&&&&&&&&&&&&%&",
"%&$$%$$$&&&&&&XX.X&&&&&&&&&&&&&&",
"%%&%&%&%%%%&XX.XX..X%&&&&$&&&&%&",
"&&&&&&&&&&&&O.XXX.X.X$$$%&&&&&&&",
"&&&&&&&&&&&OOXX.XX..X&%@$&&&&&&&",
"&&&&&&&&&&&OoO.X..XX.X&&&&&&%$&&",
"&&&&&&&&%$ OOOoOoX.Xo&&&&&&&&&&&",
"&&&&&&&&%$  OooOoOooo&&&&&&%&&&&",
"&&&&&&&&&&O OoOoOoooO &&&&&&@&&&",
"&&&&&&%$&&O   OoOoOo  &&&&&&&&&&",
"&&&&&&&&%OoOo          &%&&&&&&&",
"&&&&&&%&&OoOoOoOoOoO &  %%%&&%&&",
"%&&&&&&&&%OooooOoOO& && &&&&&%$&",
"%&&&&&&&&&OoOoOoOoO&&&$$&&&&&&&&",
"&&&&&&&&&&&&OoOoOO&&&&$$#$&&&&&&",
"&&&$&&&&&&&&&&&O&&&&&&&%$&&&&$&$",
"&&&&$%&&$$&&&&&&&&&&&&&&&&&&&&&&",
"&&&&&&&%%&&&&&&&&&&&&&&%&&&&$&%&",
"&&&&&&%%&&$%&&&&&&&&&&$&%&&&&$&&",
"&&&&&&&&%%$&%&&&&&&&$&&&&&&&&&&&",
"&&&&&&&&&&&&&%&&$%%&&%+#&&&&&#&&",
"&&&&&&&&&&&&&%&&%&&$#$$&&&%&%$&&",
"&&&&&&&&&&&&&&&&&&%$%&&%&%$%&&&&",
"&&&%%$&&&&&&&&&&&&&&&&&&&&&&&&&&"
};
