/* XPM */
static char *_015[] = {
/* columns rows colors chars-per-pixel */
"32 64 36 1 ",
"  c #090806",
". c #22100F",
"X c #221C16",
"o c #3A1A18",
"O c #28241A",
"+ c #10182C",
"@ c #141F38",
"# c #302320",
"$ c #392120",
"% c #4A2622",
"& c #4E2926",
"* c #5D2E2A",
"= c #692329",
"- c #752026",
"; c #6E342F",
": c #594E3A",
"> c #5C523A",
", c #223462",
"< c #87232A",
"1 c #A9292F",
"2 c #AD7939",
"3 c #D28438",
"4 c #EF952C",
"5 c #E09D34",
"6 c #F0BF3F",
"7 c #A9895B",
"8 c #BC9C65",
"9 c #EEB74B",
"0 c #ACADAF",
"q c #AEAFB0",
"w c #AFB0B1",
"e c #B1B2B3",
"r c #B3B3B4",
"t c #B7B7B7",
"y c #FFDC8E",
"u c white",
/* pixels */
"tttttttttttttttttttttttttttttttt",
"ttttttttrertttteetttttetrttttttt",
"teettttttttttttttttttttttttetttt",
"eewerrrtttttttttttttttttteettrtt",
"qterrrtrtttttttttttttttttttttett",
"rttttttttttttttttttttttttttttttt",
"trtttttteetttttttttttttttttttttr",
"etttttttttttttttt###tttttttttttr",
"etttrtrttttrtttt#1-1#tttttttttrt",
"rteereeettttttt#6-1-1#tttttttttt",
"rrtrtrtrrrrtrt#&&36--1#ttettttrt",
"ttttttttttttt22222231-1#rttttttt",
"ttttttttttt22255552223-1#ttttttt",
"tttttttttt2255599955226-##ttrett",
"ttttttttre2559999995522#%#tttttt",
"ttttttttr255999999995522%#trtttt",
"tttttttt#259999999999552#tttqttt",
"ttttttr#;5999599999999522ttttttt",
"tttttt#*25992259999999552ttttttt",
"tttttt#*25922y29999999952rrttrtt",
"rtttttt#259>>>y29999999522tttret",
"rttttttt259>4>>y9999999952tttttt",
"tttttttt259>u>yy2999999952tttttt",
"tttetttt259y>yyy2999995952tttete",
"ttttertt252yyyyy2992955552tttttt",
"tttttttr2528yyy29922552552ttetrt",
"ttttttrrt2928y299925522552ttrett",
"ttttttttr2922X292255225552tttttt",
"ttttttttt292XXX22555225552tttett",
"ttttttttt292X$XX2552225552ttrett",
"ttttttttt29X$$X=252222252rertttt",
"tttrretttt2X$X=<<2252=252ttttttt",
"ttttttttttt:X=<<<<=2===2tttttttt",
"ttttttttrer:7=<<<<<=<<=trttttttt",
"teetttttttt:7=<<<<<<<<=ttttetttt",
"eewerrrtttt:77=<<<<<<<<=teettrtt",
"qterrrtrtttt:7==<<<<<<<=tttttett",
"rttttttttttt:77=<<<<<<<==ttttttt",
"trtttttteett:77==<<<<<<<=ttttttr",
"ettttttttttt+O77==<<<<<<=ttttttr",
"etttrtrttttr+OOO:=<<<<<<=tttttrt",
"rteereeettt+@,,,>=<<<<<==ttttttt",
"rrtrtrtrrrr@@,,,>=<<<<===ettttrt",
"tttttttttt+@,,,>8=<<<===rttttttt",
"ttttttttt++@,,,>8=<<==+qettttttt",
"ttttttttt+@,,,,>>=<==@+tttttrett",
"tttttttt++@,,,,,,===,@++tttttttt",
"tttttttt+@@,,,,,,,=,,@@+tttrtttt",
"tttttttt+@,,,,,,,,,,,,@+ttttqttt",
"ttttttr++@,,,,,,,,,,,,@++ttttttt",
"ttttttt+@,,,,,,,,,,,,,,@+ttttttt",
"tttttt+@@,,,,,,,,,,,,,,@@+rttrtt",
"rttttt+@@,,,,,,,,,,,,,,@@+tttret",
"rttttt++@,,,,,,,,,,,,,,@++tttttt",
"ttttttt++@,,,,,,,,,,,,@++etttttt",
"tttetttt++@,,,,,,,,,,@++ettttete",
"ttttertte+++@@@@@@@@+++ttttttttt",
"tttttttrrt++++++++++++trttttetrt",
"ttttttrrttert oo oo ttetrttttett",
"ttttttttrret ooo o. ettttttttttt",
"ttttttttttt ooo.   ttr0wtttttwtt",
"ttttttttttt.     tteweetttrtrett",
"ttttttttttttttttttretttrtrertttt",
"tttrretttttttttttttttttttttttttt"
};
