/* XPM */
static char *_005[] = {
/* columns rows colors chars-per-pixel */
"32 64 34 1 ",
"  c #090806",
". c #22100F",
"X c #221C16",
"o c #3A1A18",
"O c #28241A",
"+ c #10182C",
"@ c #141F38",
"# c #302320",
"$ c #392120",
"% c #4A2622",
"& c #4E2926",
"* c #692329",
"= c #752026",
"- c #594E3A",
"; c #5C523A",
": c #223462",
"> c #87232A",
", c #A9292F",
"< c #AD7939",
"1 c #D28438",
"2 c #EF952C",
"3 c #E09D34",
"4 c #F0BF3F",
"5 c #A9895B",
"6 c #BC9C65",
"7 c #EEB74B",
"8 c #ACADAF",
"9 c #AEAFB0",
"0 c #AFB0B1",
"q c #B1B2B3",
"w c #B3B3B4",
"e c #B7B7B7",
"r c #FFDC8E",
"t c white",
/* pixels */
"eeeeeeeeeeeeeeeeeeeeeeeeeeeeeeee",
"eeeeeeeewqweeeeqqeeeeeqeweeeeeee",
"eqqeeeeeeeeeeeeeeeeeeeeeeeeqeeee",
"qq0qwwweeeeeeeeeeeeeeeeeeqqeewee",
"9eqwwweweeeeeeeeeeeeeeeeeeeeeqee",
"weeeeeeeeeeeeeeeeeeeeeeeeeeeeeee",
"eweeeeeeqqeeeeeeeeeeeeeeeeeeeeew",
"qeeeeeeeeeeeeeeee###eeeeeeeeeeew",
"qeeeweweeeeweeee#,=,#eeeeeeeeewe",
"weqqwqqqeeeeeee#4=,=,#eeeeeeeeee",
"wwewewewwwwewe#&&14==,#eeqeeeewe",
"eeeeeeeeeeeee<<<<<<1,=,#weeeeeee",
"eeeeeeeeeee<<<3333<<<1=,#eeeeeee",
"eeeeeeeeee<<33777733<<4=##eewqee",
"eeeeeeeew<<3377777773<4#%#eeeeee",
"eeeeeeee<<337777777773<%%#eweeee",
"eeeeeeee<3377777777373<%#eee9eee",
"eeeeeew<<3777777773373<#eeeeeeee",
"eeeeee#<3377777773<<77<eweeeeeee",
"eeeeee#<377777773<r<77<<wwweewee",
"weeeee<<37777773<r;;;73<eeeeewqe",
"weeeee<37777777<r;;2;73<eeeeeeee",
"eeeeee<37777777<rr;t;73<0qeeeeee",
"eeeqee<37377777<rrr;r73<qeeeeqeq",
"eeeeqw<33337777<rrrrr7<eeeeeeeee",
"eeeeee<33<337777<rrr6<<weeeeqeqe",
"eeeeee<33<333<77<rr6<3<eweeewqee",
"eeeeee<333<33<777<X<<3<eeeeeeeee",
"eeeeee<333<33<<77<XX33<0eeeeeqee",
"eeeeee<333<<3<<<7<$X3<qeeeeewqee",
"eeeeee<33<<<<<*<7<$$X<ewewqweeee",
"eeewwq<<3<**<***<*X$Xeeeeeeeeeee",
"eeeeeee<3<****>****X-eeeeeeeeeee",
"eeeeeee<<*>>*>>>*>*5-eqeweeeeeee",
"eqqeeee<<*>>>>>>>>*5-eeeeeeqeeee",
"qq0qwwwe*>>>>>>>>*55-eeeeqqeewee",
"9eqwwwew*>>>>>>>**5-eeeeeeeeeqee",
"weeeeee**>>>>>>>*55-eeeeeeeeeeee",
"eweeeee*>>>>>>>**55-eeeeeeeeeeew",
"qeeeeee*>>>>>>**55-+eeeeeeeeeeew",
"qeeewew*>>>>>>*;OOO+eeeeeeeeeewe",
"weqqwqq**>>>>>*;:::@+eeeeeeeeeee",
"wwewewe***>>>>*;:::@+eeeeqeeeewe",
"eeeeeeee***>>>*6;:::@+qqweeeeeee",
"eeeeeeeee+**>>*6;:::@++9qeeeeeee",
"eeeeeeeee+@**>*;;::::@+eeeeewqee",
"eeeeeeee++@:***::::::@++eeeeeeee",
"eeeeeeee+@@::::::::::@@+eeeweeee",
"eeeeeeee+@::::::::::::@+eeee9eee",
"eeeeeew++@::::::::::::@++eeeeeee",
"eeeeeee+@::::::::::::::@+eeeeeee",
"eeeeee+@@::::::::::::::@@+weewee",
"weeeee+@@::::::::::::::@@+eeewqe",
"weeeee++@::::::::::::::@++eeeeee",
"eeeeeee++@::::::::::::@++qeeeeee",
"eeeqeeee++@::::::::::@++qeeeeqeq",
"eeeeqweeq+++@@@@@@@@+++eeeeeeeee",
"eeeeeeewwe++++++++++++eweeeeqewe",
"eeeeeewweeqw oo oo eeeqeweeeeqee",
"eeeeeeeewwqe .o ooo qeeeeeeeeeee",
"eeeeeeeeeeeee   .ooo w80eeeee0ee",
"eeeeeeeeeeeeewe     .qqeeewewqee",
"eeeeeeeeeeeeeeeeeewqeeewewqweeee",
"eeewwqeeeeeeeeeeeeeeeeeeeeeeeeee"
};
