/* XPM */
static char *_019[] = {
/* columns rows colors chars-per-pixel */
"32 64 38 1 ",
"  c #090806",
". c #22100F",
"X c #30190B",
"o c #221C16",
"O c #3A1A18",
"+ c #28241A",
"@ c #10182C",
"# c #141F38",
"$ c #302320",
"% c #392120",
"& c #4A2622",
"* c #4E2926",
"= c #4A3527",
"- c #692329",
"; c #752026",
": c #594E3A",
"> c #5C523A",
", c #223462",
"< c #87232A",
"1 c #A9292F",
"2 c #A2501D",
"3 c #AD7939",
"4 c #D28438",
"5 c #EF952C",
"6 c #E09D34",
"7 c #F0BF3F",
"8 c #A9895B",
"9 c #BC9C65",
"0 c #EEB74B",
"q c #ACADAF",
"w c #AEAFB0",
"e c #AFB0B1",
"r c #B1B2B3",
"t c #B3B3B4",
"y c #B7B7B7",
"u c #FFDC8E",
"i c #EBC8B5",
"p c white",
/* pixels */
"yyyyyyyyyyyyyyyyyyyyyyyyyyyyyyyy",
"yyyyyyyytrtyyyyrryyyyyrytyyyyyyy",
"yrryyyyyyyyyyyyyyyyyyyyyyyyryyyy",
"rrertttyyyyyyyyyyyyyyyyyyrryytyy",
"wyrtttytyyyyyyyyyyyyyyyyyyyyyryy",
"tyyyyyyyyyyyyyyyyyyyyyyyyyyyyyyy",
"ytyyyyyyrryyyyyyyyyyyyyyyyyyyyyt",
"ryyyyyyyyyyyyyyyy$$$yyyyyyyyyyyt",
"ryyytytyyyytyyyy$1;1$yyyyyyyyyty",
"tyrrtrrryyyyyyy$7;1;1$yyyyyyyyyy",
"ttytytyttttyty$**47;;1$yyryyyyty",
"yyyyyyyyyyyyy33333341;1$tyyyyyyy",
"yyyyyyyyyyy33366663334;1$yyyyyyy",
"yyyyyyyyyy3366000066337;$$yytryy",
"yyyyyyyXX33660000000637$&$yXXyyy",
"yyyyyyyX336600000000063&&$yXiXyy",
"yyyyyyyX366000000006063&$yyXiiXy",
"yyyyyyX3360000000066063$yyXXXiXy",
"yyyyyyX3660000000633003XXXXX=Xyy",
"yyyyyX=36000000063u30033=XX==Xyy",
"tyyyXX33600000063u>>>0632XX=2Xry",
"tyyyX=3600000003u>>5>063XX=22Xyy",
"yyyXX23600000003uu>p>063X=22Xyyy",
"yyyX2X3606000003uuu>u0632222Xryr",
"yyXXXX3666600003uuuuu03X2==2Xyyy",
"yyX2XX36636600003uuu933XXX==Xyty",
"yyX2=X36636663003uu9363==X=XXryy",
"yyXX2=366636630003o3363==XXXyyyy",
"yyyXX2366636633003oo6632XXXyyryy",
"yyyyXX366633633303%o63XXXXyytryy",
"yyyyyy36633333-303%%o3ytytrtyyyy",
"yyyttr3363--3---3-o%oyyyyyyyyyyy",
"yyyyyyy363----<----o:yyyyyyyyyyy",
"yyyyyyy33-<<-<<<-<-8:yrytyyyyyyy",
"yrryyyy33-<<<<<<<<-8:yyyyyyryyyy",
"rrerttty-<<<<<<<<-88:yyyyrryytyy",
"wyrtttyt-<<<<<<<--8:yyyyyyyyyryy",
"tyyyyyy--<<<<<<<-88:yyyyyyyyyyyy",
"ytyyyyy-<<<<<<<--88:yyyyyyyyyyyt",
"ryyyyyy-<<<<<<--88:@yyyyyyyyyyyt",
"ryyytyt-<<<<<<->+++@yyyyyyyyyyty",
"tyrrtrr--<<<<<->,,,#@yyyyyyyyyyy",
"ttytyty---<<<<->,,,#@yyyyryyyyty",
"yyyyyyyy---<<<-9>,,,#@rrtyyyyyyy",
"yyyyyyyyy@--<<-9>,,,#@@wryyyyyyy",
"yyyyyyyyy@#--<->>,,,,#@yyyyytryy",
"yyyyyyyy@@#,---,,,,,,#@@yyyyyyyy",
"yyyyyyyy@##,,,,,,,,,,##@yyytyyyy",
"yyyyyyyy@#,,,,,,,,,,,,#@yyyywyyy",
"yyyyyyt@@#,,,,,,,,,,,,#@@yyyyyyy",
"yyyyyyy@#,,,,,,,,,,,,,,#@yyyyyyy",
"yyyyyy@##,,,,,,,,,,,,,,##@tyytyy",
"tyyyyy@##,,,,,,,,,,,,,,##@yyytry",
"tyyyyy@@#,,,,,,,,,,,,,,#@@yyyyyy",
"yyyyyyy@@#,,,,,,,,,,,,#@@ryyyyyy",
"yyyryyyy@@#,,,,,,,,,,#@@ryyyyryr",
"yyyyrtyyr@@@########@@@yyyyyyyyy",
"yyyyyyytty@@@@@@@@@@@@ytyyyyryty",
"yyyyyyttyyrt OO OO yyyrytyyyyryy",
"yyyyyyyyttry .O OOO ryyyyyyyyyyy",
"yyyyyyyyyyyyy   .OOO tqeyyyyyeyy",
"yyyyyyyyyyyyyty     .rryyytytryy",
"yyyyyyyyyyyyyyyyyytryyytytrtyyyy",
"yyyttryyyyyyyyyyyyyyyyyyyyyyyyyy"
};
