/* XPM */
static char *_004[] = {
/* columns rows colors chars-per-pixel */
"32 64 34 1 ",
"  c #090806",
". c #22100F",
"X c #221C16",
"o c #231818",
"O c #3A1A18",
"+ c #28241A",
"@ c #10182C",
"# c #141F38",
"$ c #392120",
"% c #692329",
"& c #56443E",
"* c #594E3A",
"= c #5C523A",
"- c #223462",
"; c #4C4343",
": c #87232A",
"> c #AD7939",
", c #D57B47",
"< c #EF952C",
"1 c #E09D34",
"2 c #A9895B",
"3 c #BC9C65",
"4 c #F19B5E",
"5 c #EEB74B",
"6 c #F1BD61",
"7 c #FFC37F",
"8 c #AEAFB0",
"9 c #AFB0B1",
"0 c #B1B2B3",
"q c #B3B3B4",
"w c #B7B7B7",
"e c #FFDC8E",
"r c #ECD2B2",
"t c white",
/* pixels */
"wwwwwwwwwwwwwwwwwwwwwwwwwwwwwwww",
"wwrrwwwwq0rrwww00wwwwrrrqwwwrrww",
"w00rrrwwwwwrrwwwwwwwwrwwwwwrrwww",
"0090qrrwwwwwrrrwwwwrrwwww0rrwqww",
"8w0qqqrqwwwwwwwwwwwwwwwwwrrww0ww",
"qwwwwwwwwwwoooooooooowwwwwwwwwrw",
"wrrwwwwwooooo;;;;;;ooooowwwwwrrq",
"0wrrwwwooo;;;oooooo;;;ooowwwrrwq",
"0wwrrwoo;;;ooo4444ooo;;;oowwrwqw",
"qw00r0o;;oo4444744444oo;;owwwwww",
"qqwqwqo;oo444444447444oo;owwwwqw",
"wwwwwwooo4474>>>>>>4744ooowwwwww",
"wwwwwwoooo4>>>1111>>>4oooowwwwww",
"wwwwwoo;;o>>11111111>>o;;oowq0ww",
"wwwwoo;;;>>1155555511>>;;;oowwww",
"wwwwo;;;>>115555555511>>;;;owwww",
"wwwoo;;;>11555155555511>;;;oowww",
"wwwo;;;>>155511555>5511>>;;;o6ww",
"ww6o6;;>11551>>555>>5511>;;6owww",
"www666;>1551>e>55>e>>551>;666qww",
"qwwo66>1155>===5>===>>511>66oq0w",
"qwwo,6>155>==<=>e=<==>511>6,owww",
"wwoo,,>155>e=t=ee=t=e>551>,,ooww",
"wwoo&,>55>>ee=eeee=ee>551>,&oow0",
"wwo&&&>55>>3eeeeeeee>555>>&&&oww",
"wwo&&&>55>>>3eeeeee3>55>1>&&&oqw",
"wwoo&&>55>>>>3eeee3>>>5>1>&&ooww",
"wwwooo>55>>>XX+33+XX>>5>1>ooowww",
"wwwwww>5>>XX$XX++XX$XX>1>owww0ww",
"wwwwww>5>X$$$$$XX$$$$XX1>wwwq0ww",
"wwwwww>5>%XX$$X$$X$$XX%>wq0qwwww",
"wwwqq0w>%:::X$X$$X$X:::%wwwwwwww",
"wwwwwwww%::::X$XX$X::::%wwwwwwww",
"wwwwwww%::::::2222::::::%wwwwwww",
"w00wwww%::::22222222::::%ww0wwww",
"0090qq%::::2222222222::::%0wwqww",
"8w0qqq%::::2222222222::::%www0ww",
"qwwwww%:::+*22222222*+:::%wwwwww",
"wqwwww%:::+**222222**+:::%wwwwwq",
"0wwww%:::3=+********+=3:::%wwwwq",
"0wwwq%::=3=@++++++++@=3=::%wwwqw",
"qw00q%::3=@@#------#@@=3::%wwwww",
"qqwq%:::3=@##------##@=3:::%wwqw",
"wwww%::3==@#--------#@==3::%wwww",
"wwww%::3=@@#--------#@@=3::%wwww",
"wwww%::==@#----------#@==::%q0ww",
"wwww%:%%@@#----------#@@%%:%wwww",
"wwww%%%w@##----------##@w%%%wwww",
"wwwwwwww@#------------#@wwww8www",
"wwwwwwq@@#------------#@@wwwwwww",
"wwwwwww@#--------------#@wwwwwww",
"wwwwww@##--------------##@qwwqww",
"qwwwww@##--------------##@wwwq0w",
"qwwwww@@#--------------#@@wwwwww",
"wwwwwww@@#------------#@@0wwwwww",
"www0wwww@@#----------#@@0wwww0w0",
"wwww0qww0@@##########@@wwwwwwwww",
"wwwwwwwqqw@@@@@@@@@@@@wqwwww0wqw",
"wwwwwwqqww OOO ww OOO 0wqwwww0ww",
"wwwwwwwwq OOO. ww .OOO wwwwwwwww",
"wwwwwwwww OO. ww0q .OO 9wwwww9ww",
"wwwwwwwww.   qwwqww   .wwwqwq0ww",
"wwwwwwwwwwwwwwwwwwq0wwwqwq0qwwww",
"wwwqq0wwwwwwwwwwwwwwwwwwwwwwwwww"
};
