/* XPM */
static char *_014[] = {
/* columns rows colors chars-per-pixel */
"32 64 35 1 ",
"  c #090806",
". c #22100F",
"X c #221C16",
"o c #231818",
"O c #3A1A18",
"+ c #28241A",
"@ c #10182C",
"# c #141F38",
"$ c #392120",
"% c #692329",
"& c #56443E",
"* c #594E3A",
"= c #5C523A",
"- c #223462",
"; c #4C4343",
": c #87232A",
"> c #AD7939",
", c #D57B47",
"< c #EF952C",
"1 c #E09D34",
"2 c #A9895B",
"3 c #BC9C65",
"4 c #F19B5E",
"5 c #EEB74B",
"6 c #F1BD61",
"7 c #FFC37F",
"8 c #ACADAF",
"9 c #AEAFB0",
"0 c #AFB0B1",
"q c #B1B2B3",
"w c #B3B3B4",
"e c #B7B7B7",
"r c #FFDC8E",
"t c #ECD2B2",
"y c white",
/* pixels */
"eeeeeeeeeeeeeeeeeeeeeeeeeeeeeeee",
"eetteeeewqtteeeqqeeeetttweeettee",
"eqqttteeeeetteeeeeeeeteeeeetteee",
"qq0qwtteeeeettteeeetteeeeqttewee",
"9eqwwwtweeeeeeeeeeeeeeeeetteeqee",
"weeeeeeeeeeooooooooooeeeeeeeeete",
"etteeeeeooooo;;;;;;oooooeeeeettw",
"qetteeeooo;;;oooooo;;;oooeeettew",
"qeetteoo;;;ooo4444ooo;;;ooeetewe",
"weqqtqo;;oo4444744444oo;;oeeeeee",
"wwewewo;oo444444447444oo;oeeeewe",
"eeeeeeooo4474>>>>>>4744oooeeeeee",
"eeeeeeoooo4>>>1111>>>4ooooeeeeee",
"eeeeeoo;;o>>11155511>>o;;ooewqee",
"eeeeoo;;;;>1155555511>>;;;ooeeee",
"eeeeo;;;;>115555555511>>;;;oeeee",
"eeeoo;;;;>1555555555511>;;;ooeee",
"eeeo;;;;;15551555555551>>;;;o6ee",
"ee6o6;;;>155>>1555555511>;;6oeee",
"eee666;;>15>>r>555555551>;666wee",
"weeo666;>15===r>55555551>>66owqe",
"weeo,66;>15=<==r555555551>6,oeee",
"eeoo,,66>15=y=rr>55555551>,,ooee",
"eeoo&,,6>15r=rrr>55555151>,&ooeq",
"eeo&&&&&>1>rrrrr>55>51111>&&&oee",
"eeo&&&&o>1>3rrr>55>>11>11>&&&owe",
"eeoo&&oo&>5>3r>555>11>>11>&&ooee",
"eeeooooo&>5>>X>5>>11>>111>oooeee",
"eeeeeeooo>5>XXX>>111>>111>eeeqee",
"eeeeeeeee>5>X$XX>11>>>111>eewqee",
"eeeeeeeee>5X$$X%>1>>>>>1>wqweeee",
"eeewwqeeee>X$X%::>>1>%>1>eeeeeee",
"eeeeeeeeeee*X%::::%>%%%>eeeeeeee",
"eeeeeeeewqw*2%:::::%::%eweeeeeee",
"eqqeeeeeeee*2%::::::::%eeeeqeeee",
"qq0qwwweeee*22%::::::::%eqqeewee",
"9eqwwweweeee*2%%:::::::%eeeeeqee",
"weeeeeeeeeee*22%:::::::%%eeeeeee",
"eweeeeeeqqee*22%%:::::::%eeeeeew",
"qeeeeeeeeeee@+22%%::::::%eeeeeew",
"qeeeweweeeew@+++*%::::::%eeeeewe",
"weqqwqqqeee@#---=%:::::%%eeeeeee",
"wwewewewwww##---=%::::%%%qeeeewe",
"eeeeeeeeee@#---=3%:::%%%weeeeeee",
"eeeeeeeee@@#---=3%::%%@9qeeeeeee",
"eeeeeeeee@#----==%:%%#@eeeeewqee",
"eeeeeeee@@#------%%%-#@@eeeeeeee",
"eeeeeeee@##-------%--##@eeeweeee",
"eeeeeeee@#------------#@eeee9eee",
"eeeeeew@@#------------#@@eeeeeee",
"eeeeeee@#--------------#@eeeeeee",
"eeeeee@##--------------##@weewee",
"weeeee@##--------------##@eeewqe",
"weeeee@@#--------------#@@eeeeee",
"eeeeeee@@#------------#@@qeeeeee",
"eeeqeeee@@#----------#@@qeeeeqeq",
"eeeeqweeq@@@########@@@eeeeeeeee",
"eeeeeeewwe@@@@@@@@@@@@eweeeeqewe",
"eeeeeewweeqwe OO OO eeqeweeeeqee",
"eeeeeeeewwqe OOO O. qeeeeeeeeeee",
"eeeeeeeeeee OOO.   eew80eeeee0ee",
"eeeeeeeeeee.     eeq0qqeeewewqee",
"eeeeeeeeeeeeeeeeeewqeeewewqweeee",
"eeewwqeeeeeeeeeeeeeeeeeeeeeeeeee"
};
