/* XPM */
static char *_011[] = {
/* columns rows colors chars-per-pixel */
"32 64 16 1 ",
"  c #090806",
". c #22100F",
"X c #3A1A18",
"o c #10182C",
"O c #141F38",
"+ c #692329",
"@ c #223462",
"# c #87232A",
"$ c #AD7939",
"% c #E09D34",
"& c #EEB74B",
"* c #AEAFB0",
"= c #AFB0B1",
"- c #B1B2B3",
"; c #B3B3B4",
": c #B7B7B7",
/* pixels */
"::::::::::::::::::::::::::::::::",
"::::::::;-;::::--:::::-:;:::::::",
":--::::::::::::::::::::::::-::::",
"--=-;;;::::::::::::::::::--::;::",
"*:-;;;:;:::::::::::::::::::::-::",
";:::::::::::::::::::::::::::::::",
":;::::::--:::::::::::::::::::::;",
"-::::::::::::::::::::::::::::::;",
"-:::;:;::::;::::::::::::::::::;:",
";:--;---::::::::::::::::::::::::",
";;:;:;:;;;;:;:::::::;::::-::::;:",
":::::::::::::$$$$$$;=---;:::::::",
":::::::::::$$$%%%%$$$:;*-:::::::",
"::::::::::$$%%&&&&&%$$::::::;-::",
"::::::::;$$%%&&&&&&&%$$:::::::::",
"::::::::$$%%&&&&&&&&&%$$:::;::::",
"::::::::$%%&&&&&&&&&&&%$::::*:::",
"::::::;$$%&&&&&&&&&&&&%$$:::::::",
":::::::$%&&&&&&&&&&&&&&%$:::::::",
"::::::;$%&&&&&&&&&&&&&&%$;;::;::",
";:::::$%&&&&&&&&&&&&&&&&%$:::;-:",
";:::::$%&&&&&&&&&&&&&&&&%$::::::",
"::::::$%&&&&&&&&&&&&&&&&%$::::::",
":::-::$%&&&&&&&&&&&&&&&&%$:::-:-",
"::::-;$%&&&&&&&&&&&&&&&&%$::::::",
"::::::$%&&&&&&&&&&&&&&&&%$::-:;:",
"::::::$%&&&&&&&&&&&&&&&&%$::;-::",
"::::::$%&&&&&&%&&&&&&&&&%$::::::",
":::::$$&&%%&&&%&&&&%$&&&%$:::-::",
":::::$%&&%$&%%$%&&&%$&&%$$$:;-::",
":::::$%&$%$%$%$%&&%$%&&%$%$;::::",
":::;;$%$$%$%$%%$%&%$%&&%$%$:::::",
"::::::$$$$%%$%%$%%$$%%&%$%$:::::",
":::::::$#$%%$$%%$%$#$%&%$%$:::::",
":--::::$#$%$#$%$#$###$%$$$$-::::",
"--=-;;+###$###$#######$##+-::;::",
"*:-;;;+##################+:::-::",
";:::::+##################+::::::",
":;::::+##################+:::::;",
"-::::+####################+::::;",
"-:::;+####################+:::;:",
";:--;+####################+:::::",
";;:;+######################+::;:",
"::::+#######++++++++#######+::::",
"::::+####++++@@@@@@++++####+::::",
"::::+##++++@@@@@@@@@@++++##+;-::",
"::::+#++ooO@@@@@@@@@@Ooo++#+::::",
"::::+++:oOO@@@@@@@@@@OOo:+++::::",
"::::::::oO@@@@@@@@@@@@Oo::::*:::",
"::::::;ooO@@@@@@@@@@@@Ooo:::::::",
":::::::oO@@@@@@@@@@@@@@Oo:::::::",
"::::::oOO@@@@@@@@@@@@@@OOo;::;::",
";:::::oOO@@@@@@@@@@@@@@OOo:::;-:",
";:::::ooO@@@@@@@@@@@@@@Ooo::::::",
":::::::ooO@@@@@@@@@@@@Ooo-::::::",
":::-::::ooO@@@@@@@@@@Ooo-::::-:-",
"::::-;::-ooOOOOOOOOOOoo:::::::::",
":::::::;;:oooooooooooo:;::::-:;:",
"::::::;;::..XX :: XX..-:;::::-::",
"::::::::; XXXX :: XXXX :::::::::",
":::::::::..XXX.:-.XXX..=:::::=::",
"::::::::::.  .::;:.  .-:::;:;-::",
"::::::::::::::::::;-:::;:;-;::::",
":::;;-::::::::::::::::::::::::::"
};
