/* XPM */
static char *_003[] = {
/* columns rows colors chars-per-pixel */
"32 64 30 1 ",
"  c #090806",
". c #1C0505",
"X c #22100F",
"o c #221C16",
"O c #231818",
"+ c #3A1A18",
"@ c #28241A",
"# c #10182C",
"$ c #141F38",
"% c #392120",
"& c #692329",
"* c #594E3A",
"= c #5C523A",
"- c #223462",
"; c #4C4343",
": c #87232A",
"> c #AD7939",
", c #EF952C",
"< c #E09D34",
"1 c #A9895B",
"2 c #BC9C65",
"3 c #EEB74B",
"4 c #F1BD61",
"5 c #AEAFB0",
"6 c #AFB0B1",
"7 c #B1B2B3",
"8 c #B3B3B4",
"9 c #B7B7B7",
"0 c #FFDC8E",
"q c white",
/* pixels */
"99999999999999999999999999999999",
"99999999878999977999997989999999",
"97799OOOOOOOOOOOOOOOOOOOOOO79999",
"7767O;;;;;;;;;;;;;;;;;;;;;;O9899",
"597O;;;;;;;;;;;;;;;;;;;;;;;;O799",
"89O;;;;;;;;;;;;;;;;;;;;;;;;;;O99",
"98OOOOOOOOOOOOOOOOOOOOOOOOOOOO98",
"79O;;;;;;;;;;;;;;;;;;;;;;;;;;O98",
"79O;;;;;;;;;;;;;;;;;;;;;;;;;;O89",
"8..............................9",
"8..............................9",
"99O;;..;;;;;;>>>>>>;;;;;;..;;O99",
"99O;;..;;;;>>><<<<>>>;;;;..;;O99",
"99O;;;.;;;>><<<<<<<<>>;;;.;;;O99",
"99O;;;;;O>><<333333<<>>O;;;;;O99",
"99O;;;;O>><<33333333<<>>O;;;;O99",
"99O;;;OO><<333<333333<<>OO;;;O99",
"99O;;OO>><333<<333>33<<>>OO;;O99",
"99O;;O;><<33<>>333>>33<<>;O;;O99",
"99O;;O;><33<>0>33>0>>33<>;O;;O99",
"89O;;O><<33>===3>===>>3<<>44;O79",
"89O;;4><33>==,=>0=,==>3<<>O;;O99",
"99O;;O><33>0=q=00=q=0>33<>O;;O99",
"99O;;O>33>>00=0000=00>33<>O;;O97",
"99O;;O>33>>200000000>333>>O;;O99",
"99O;;O>33>>>20000002>33><>O;;O89",
"99O;;O>33>>>>200002>>>3><>O;;O99",
"99O;;O>33>>>oo@22@oo>>3><>O;;O99",
"99OO;O>3>>oo%oo@@oo%oo><>;O;OO99",
"999OOO>3>o%%%%%oo%%%%oo<>OOOO799",
"9999OO>3>&oo%%o%%o%%oo&>OOOO9999",
"9998879>&:::o%o%%o%o:::&99999999",
"99999999&::::o%oo%o::::&99999999",
"9999999&::::::1111::::::&9999999",
"9779999&::::11111111::::&9979999",
"776788&::::1111111111::::&799899",
"597888&::::1111111111::::&999799",
"899999&:::@*11111111*@:::&999999",
"989999&:::@**111111**@:::&999998",
"79999&:::2=@********@=2:::&99998",
"79998&::=2=#@@@@@@@@#=2=::&99989",
"89778&::2=##$------$##=2::&99999",
"8898&:::2=#$$------$$#=2:::&9989",
"9999&::2==#$--------$#==2::&9999",
"9999&::2=##$--------$##=2::&9999",
"9999&::==#$----------$#==::&8799",
"9999&:&&##$----------$##&&:&9999",
"9999&&&9#$$----------$$#9&&&9999",
"99999999#$------------$#99995999",
"9999998##$------------$##9999999",
"9999999#$--------------$#9999999",
"999999#$$--------------$$#899899",
"899999#$$--------------$$#999879",
"899999##$--------------$##999999",
"9999999##$------------$##7999999",
"99979999##$----------$##79999797",
"999978997##$$$$$$$$$$##999999999",
"9999999889############9899997989",
"9999998899 +++ 99 +++ 7989999799",
"999999998 +++X 99 X+++ 999999999",
"999999999 ++X 9978 X++ 699999699",
"999999999X   899899   X999898799",
"99999999999999999987999898789999",
"99988799999999999999999999999999"
};
