/* XPM */
static char *_007[] = {
/* columns rows colors chars-per-pixel */
"32 64 27 1 ",
"  c #090806",
". c #22100F",
"X c #221C16",
"o c #3A1A18",
"O c #28241A",
"+ c #10182C",
"@ c #141F38",
"# c #392120",
"$ c #692329",
"% c #594E3A",
"& c #5C523A",
"* c #223462",
"= c #87232A",
"- c #AD7939",
"; c #EF952C",
": c #E09D34",
"> c #A9895B",
", c #BC9C65",
"< c #EEB74B",
"1 c #ACADAF",
"2 c #AEAFB0",
"3 c #AFB0B1",
"4 c #B1B2B3",
"5 c #B3B3B4",
"6 c #B7B7B7",
"7 c #FFDC8E",
"8 c white",
/* pixels */
"66666666666666666666666666666666",
"66666666545666644666664656666666",
"64466666666666666666666666646666",
"44345556666666666666666664466566",
"26455565666666666666666666666466",
"56666666666666666666666666666666",
"65666666446666666666666666666665",
"46666666666666666666666666666665",
"46665656666566666666666666666656",
"56445444666666666666666666666666",
"55656565555656666666566664666656",
"6666666666666------5344456666666",
"66666666666---::::---65246666666",
"6666666666--::<<<<::--6666665466",
"666666665--::<<<<<<<:-6666666666",
"66666666--::<<<<<<<<<:-666656666",
"66666666-::<<<<<<<<:<:-666662666",
"6666665--:<<<<<<<<::<:-666666666",
"6666666-::<<<<<<<:--<<-656666666",
"6666665-:<<<<<<<:-7-<<--55566566",
"566666--:<<<<<<:-7&&&<:-66666546",
"566666-:<<<<<<<-7&&;&<:-66666666",
"666666-:<<<<<<<-77&8&<:-34666666",
"666466-:<:<<<<<-777&7<:-46666464",
"666645-::::<<<<-77777<-666666666",
"666666-::-::<<<<-777,--566664646",
"666666-::-:::-<<-77,-:-656665466",
"666666-:::-::-<<<-X--:-666666666",
"666666-:::-::--<<-XX::-366666466",
"666666-:::--:---<-#X:-4666665466",
"666666-::-----$-<-##X-6565456666",
"666554--:-$$-$$$-$X#X66666666666",
"6666666-:-$$$$=$$$$X%66666666666",
"6666666--$==$===$=$>%64656666666",
"6446666--$========$>%66666646666",
"44345556$========$>>%66664466566",
"26455565$=======$$>%666666666466",
"5666666$$=======$>>%666666666666",
"6566666$=======$$>>%666666666665",
"4666666$======$$>>%+666666666665",
"4666565$======$&OOO+666666666656",
"5644544$$=====$&***@+66666666666",
"5565656$$$====$&***@+66664666656",
"66666666$$$===$,&***@+4456666666",
"666666666+$$==$,&***@++246666666",
"666666666+@$$=$&&****@+666665466",
"66666666++@*$$$******@++66666666",
"66666666+@@**********@@+66656666",
"66666666+@************@+66662666",
"6666665++@************@++6666666",
"6666666+@**************@+6666666",
"666666+@@**************@@+566566",
"566666+@@**************@@+666546",
"566666++@**************@++666666",
"6666666++@************@++4666666",
"66646666++@**********@++46666464",
"666645664+++@@@@@@@@+++666666666",
"6666666556++++++++++++6566664656",
"666666556645 oo oo 6664656666466",
"666666665546 .o ooo 466666666666",
"6666666666666   .ooo 51366666366",
"666666666666656     .44666565466",
"66666666666666666654666565456666",
"66655466666666666666666666666666"
};
