/* XPM */
static char *_008[] = {
/* columns rows colors chars-per-pixel */
"32 64 30 1 ",
"  c #090806",
". c #22100F",
"X c #30190B",
"o c #221C16",
"O c #3A1A18",
"+ c #28241A",
"@ c #10182C",
"# c #141F38",
"$ c #392120",
"% c #4A3527",
"& c #692329",
"* c #594E3A",
"= c #5C523A",
"- c #223462",
"; c #87232A",
": c #A2501D",
"> c #AD7939",
", c #EF952C",
"< c #E09D34",
"1 c #A9895B",
"2 c #BC9C65",
"3 c #EEB74B",
"4 c #AEAFB0",
"5 c #AFB0B1",
"6 c #B1B2B3",
"7 c #B3B3B4",
"8 c #B7B7B7",
"9 c #FFDC8E",
"0 c #EBC8B5",
"q c white",
/* pixels */
"88888888888888888888888888888888",
"88888888767888866888886878888888",
"86688888888888888888888888868888",
"66567778888888888888888886688788",
"48677787888888888888888888888688",
"78888888888888888888888888888888",
"87888888668888888888888888888887",
"68888888888888888888888888888887",
"68887878888788888888888888888878",
"78667666888888888888888888888888",
"77878787777878888888788886888878",
"8888888888888>>>>>>7566678888888",
"88888888888>>><<<<>>>87468888888",
"8888888888>><<<<<<<<>>8888887688",
"8888888XX>><<333333<<>>8888XX888",
"8888888X>><<33333333<<>>888X0X88",
"8888888X><<333<333333<<>888X00X8",
"888888X>><333<<333>33<<>>8XXX0X8",
"888888X><<33<>>333>>33<<>XXX%X88",
"88888X%><33<>9>33>9>>33<>XX%%X88",
"7888XX><<33>===3>===>>3<<>X%:X68",
"7888X%><33>==,=>9=,==>3<<>%::X88",
"888XX:><33>9=q=99=q=9>33<>::X888",
"888X:X>33>>99=9999=99>33<>::X686",
"88XXXX>33>>299999999>333>>%:X888",
"88X:XX>33>>>29999992>33><>%%X878",
"88X:%X>33>>>>299992>>>3><>%XX688",
"88XX:%>33>>>oo+22+oo>>3><>XX8888",
"888XX:>3>>oo$oo++oo$oo><>XX88688",
"8888XX>3>o$$$$$oo$$$$oo<>X887688",
"888888>3>&oo$$o$$o$$oo&>87678888",
"8887768>&;;;o$o$$o$o;;;&88888888",
"88888888&;;;;o$oo$o;;;;&88888888",
"8888888&;;;;;;1111;;;;;;&8888888",
"8668888&;;;;11111111;;;;&8868888",
"665677&;;;;1111111111;;;;&688788",
"486777&;;;;1111111111;;;;&888688",
"788888&;;;+*11111111*+;;;&888888",
"878888&;;;+**111111**+;;;&888887",
"68888&;;;2=+********+=2;;;&88887",
"68887&;;=2=@++++++++@=2=;;&88878",
"78667&;;2=@@#------#@@=2;;&88888",
"7787&;;;2=@##------##@=2;;;&8878",
"8888&;;2==@#--------#@==2;;&8888",
"8888&;;2=@@#--------#@@=2;;&8888",
"8888&;;==@#----------#@==;;&7688",
"8888&;&&@@#----------#@@&&;&8888",
"8888&&&8@##----------##@8&&&8888",
"88888888@#------------#@88884888",
"8888887@@#------------#@@8888888",
"8888888@#--------------#@8888888",
"888888@##--------------##@788788",
"788888@##--------------##@888768",
"788888@@#--------------#@@888888",
"8888888@@#------------#@@6888888",
"88868888@@#----------#@@68888686",
"888867886@@##########@@888888888",
"8888888778@@@@@@@@@@@@8788886878",
"8888887788 OOO 88 OOO 6878888688",
"888888887 OOO. 88 .OOO 888888888",
"888888888 OO. 8867 .OO 588888588",
"888888888.   788788   .888787688",
"88888888888888888876888787678888",
"88877688888888888888888888888888"
};
