/* XPM */
static char *_000[] = {
/* columns rows colors chars-per-pixel */
"32 64 31 1 ",
"  c #090806",
". c #1A0808",
"X c #200909",
"o c #300000",
"O c #3E0D03",
"+ c #22100F",
"@ c #221C16",
"# c #3A1A18",
"$ c #28241A",
"% c #10182C",
"& c #141F38",
"* c #392120",
"= c #692329",
"- c #594E3A",
"; c #5C523A",
": c #223462",
"> c #87232A",
", c #AD7939",
"< c #EF952C",
"1 c #E09D34",
"2 c #A9895B",
"3 c #BC9C65",
"4 c #EEB74B",
"5 c #ACADAF",
"6 c #AEAFB0",
"7 c #AFB0B1",
"8 c #B1B2B3",
"9 c #B3B3B4",
"0 c #B7B7B7",
"q c #FFDC8E",
"w c white",
/* pixels */
"XXXXXXXXXXXXXXXXXXXXXXXXXXXXXXXX",
"X.......XXXXXXXXXXXXXXX.......XX",
"X.XXXXX.XXX........XXXX.XXXXX.XX",
"X.XXXXX.XXX.XXXXXX.XXXX.XXXXX.XX",
"X.......XXX.XXXXXX.XXXX.......XX",
"XXXXXXXXXXX........XXXXXXXXXXXXX",
"XXXXXXXXXXXXXXXXXXXXXXXXXXXXXXXX",
"oooooooooooooooooooooooooooooooo",
"OOOOOOOOoooOOOOOOOoooOOOOOOOoooO",
"OOOOOOOOOoOOOOOOOOOoOOOOOOOOOoOO",
"OOOOOOOOOoOOOOOOOOOoOOOOOOOOOoOO",
"OOOOOOOOoooOO,,,,,,ooOOOOOOOoooO",
"ooooooooooo,,,1111,,,ooooooooooo",
"OOOoooOOOO,,11444411,,OOOoooOOOO",
"OOOOoOOOO,,1144444441,OOOOoOOOOO",
"OOOOoOOO,,114444444441,OOOoOOOOO",
"OOOoooOO,1144444444141,OOoooOOOO",
"ooooooo,,1444444441141,ooooooooo",
"OOOOOOO,1144444441,,44,OOOOOoooO",
"OOOOOOO,144444441,q,44,,OOOOOoOO",
"OOOOOO,,14444441,q;;;41,OOOOOoOO",
"OOOOOO,14444444,q;;<;41,OOOOoooO",
"oooooo,14444444,qq;w;41,oooooooo",
"OOOooo,14144444,qqq;q41,OoooOOOO",
"OOOOoO,11114444,qqqqq4,OOOoOOOOO",
"OOOOoO,11,114444,qqq3,,OOOoOOOOO",
"OOOooo,11,111,44,qq3,1,OOoooOOOO",
"oooooo,111,11,444,@,,1,ooooooooo",
"OOOOOO,111,11,,44,@@11,OOOOOOooo",
"OOOOOO,111,,1,,,4,*@1,OOOOOOOOoO",
"OOOOOO,11,,,,,=,4,**@,OOOOOOOOoO",
"OOOOOO,,1,==,===,=@*@OOOOOOOOooo",
"0000000,1,====>====@-00000000000",
"0000000,,=>>=>>>=>=2-08090000000",
"0880000,,=>>>>>>>>=2-00000080000",
"88789990=>>>>>>>>=22-00008800900",
"60899909=>>>>>>>==2-000000000800",
"9000000==>>>>>>>=22-000000000000",
"0900000=>>>>>>>==22-000000000009",
"8000000=>>>>>>==22-%000000000009",
"8000909=>>>>>>=;$$$%000000000090",
"9088988==>>>>>=;:::&%00000000000",
"9909090===>>>>=;:::&%00008000090",
"00000000===>>>=3;:::&%8890000000",
"000000000%==>>=3;:::&%%680000000",
"000000000%&==>=;;::::&%000009800",
"00000000%%&:===::::::&%%00000000",
"00000000%&&::::::::::&&%00090000",
"00000000%&::::::::::::&%00006000",
"0000009%%&::::::::::::&%%0000000",
"0000000%&::::::::::::::&%0000000",
"000000%&&::::::::::::::&&%900900",
"900000%&&::::::::::::::&&%000980",
"900000%%&::::::::::::::&%%000000",
"0000000%%&::::::::::::&%%8000000",
"00080000%%&::::::::::&%%80000808",
"000089008%%%&&&&&&&&%%%000000000",
"0000000990%%%%%%%%%%%%0900008090",
"000000990089 ## ## 0008090000800",
"000000009980 +# ### 800000000000",
"0000000000000   +### 95700000700",
"000000000000090     +88000909800",
"00000000000000000098000909890000",
"00099800000000000000000000000000"
};
