/* XPM */
static char *_012[] = {
/* columns rows colors chars-per-pixel */
"32 64 30 1 ",
"  c #090806",
". c #22100F",
"X c #221C16",
"o c #3A1A18",
"O c #28241A",
"+ c #10182C",
"@ c #141F38",
"# c #392120",
"$ c #692329",
"% c #594E3A",
"& c #5C523A",
"* c #223462",
"= c #87232A",
"- c #9A2D35",
"; c #AD7939",
": c #B63A44",
"> c #EF952C",
", c #E09D34",
"< c #A9895B",
"1 c #BC9C65",
"2 c #EEB74B",
"3 c #F0BF5D",
"4 c #ACADAF",
"5 c #AEAFB0",
"6 c #AFB0B1",
"7 c #B1B2B3",
"8 c #B3B3B4",
"9 c #B7B7B7",
"0 c #FFDC8E",
"q c white",
/* pixels */
"99999999999999999999999999999999",
"99999999878999977999997989999999",
"97799999999999999999999999979999",
"77678889999999999999999997799899",
"59788898999999999999999999999799",
"89999999999999999999999999999999",
"98999999779999999999999999999998",
"79999999999999999999999999999998",
"79998989999899999999999999999989",
"89778777999999::-:99999999999999",
"889898988889::-::--:899997999989",
"9999999999993;;;;;;-:77789999999",
"99999999999;;;,,,,;;;98579999999",
"9999999999;;,,,222,,;;9999998799",
"9999999987;,,222222,,;;999999999",
"999999998;,,22222222,,;;99989999",
"999999999;,2222222222,,;99995999",
"999999879,222,22222222,;;9999999",
"99999999;,22;;,2222222,,;9999999",
"99999989;,2;;0;22222222,;8899899",
"89999999;,2&&&0;2222222,;;999879",
"89999999;,2&>&&022222222,;999999",
"99999999;,2&q&00;2222222,;999999",
"99979999;,20&000;22222,2,;999797",
"99997899;,;00000;22;2,,,,;999999",
"99999998;,;1000;22;;,,;,,;997989",
"999999889;2;10;222;,,;;,,;998799",
"999999998;2;;X;2;;,,;;,,,;999999",
"999999999;2;XXX;;,,,;;,,,;999799",
"999999999;2;X#XX;,,;;;,,,;998799",
"999999999;2X##X$;,;;;;;,;8789999",
"9998879999;X#X$==;;,;$;,;9999999",
"99999999999%X$====$;$$$;99999999",
"99999999878%<$=====$==$989999999",
"97799999999%<$========$999979999",
"77678889999%<<$========$97799899",
"597888989999%<$$=======$99999799",
"899999999999%<<$=======$$9999999",
"989999997799%<<$$=======$9999998",
"799999999999+O<<$$======$9999998",
"799989899998+OOO%$======$9999989",
"89778777999+@***&$=====$$9999999",
"88989898888@@***&$====$$$7999989",
"9999999999+@***&1$===$$$89999999",
"999999999++@***&1$==$$+579999999",
"999999999+@****&&$=$$@+999998799",
"99999999++@******$$$*@++99999999",
"99999999+@@*******$**@@+99989999",
"99999999+@************@+99995999",
"9999998++@************@++9999999",
"9999999+@**************@+9999999",
"999999+@@**************@@+899899",
"899999+@@**************@@+999879",
"899999++@**************@++999999",
"9999999++@************@++7999999",
"99979999++@**********@++79999797",
"999978997+++@@@@@@@@+++999999999",
"9999999889++++++++++++9899997989",
"9999998899789 oo oo 997989999799",
"999999998879 ooo o. 799999999999",
"99999999999 ooo.   9984699999699",
"99999999999.     997677999898799",
"99999999999999999987999898789999",
"99988799999999999999999999999999"
};
