/* XPM */
static char *_003[] = {
/* columns rows colors chars-per-pixel */
"32 64 34 1 ",
"  c #090806",
". c #1C0505",
"X c #200000",
"o c #22100F",
"O c #221C16",
"+ c #231818",
"@ c #3A1A18",
"# c #28241A",
"$ c #10182C",
"% c #141F38",
"& c #392120",
"* c #451919",
"= c #692329",
"- c #594E3A",
"; c #5C523A",
": c #223462",
"> c #4C4343",
", c #87232A",
"< c #AD7939",
"1 c #D57B47",
"2 c #EF952C",
"3 c #E09D34",
"4 c #A9895B",
"5 c #BC9C65",
"6 c #EEB74B",
"7 c #F1BD61",
"8 c #ACADAF",
"9 c #AEAFB0",
"0 c #AFB0B1",
"q c #B1B2B3",
"w c #B3B3B4",
"e c #B7B7B7",
"r c #FFDC8E",
"t c white",
/* pixels */
"eeeeeeeeeeeeeeeeeeeeeeeeeeeeeeee",
"eeeeeeeewqweeeeqqeeeeeqeweeeeeee",
"eqqee++++++++++++++++++++++qeeee",
"qq0q+>>>>>>>>>>>>>>>>>>>>>>+ewee",
"9eq+>>>>>>>>>>>>>>>>>>>>>>>>+qee",
"we+>>>>>>>>>>>>>>>>>>>>>>>>>>+ee",
"ew++++++++++++++++++++++++++++ew",
"qe+>>>>>>>>>>>>>>>>>>>>>>>>>>+ew",
"qe+>>>>>>>>>>>>>>>>>>>>>>>>>>+we",
"w..............................e",
"w..............................e",
"ee+>>..>>>>>><<<<<<>>>>>>..>>+ee",
"ee+>>..>>>><<<3333<<<>>>>..>>+ee",
"ee+>>>.>>><<33666633<<>>>.>>>+ee",
"ee+>>>>>+<<3366666663<++>>>>>+ee",
"ee+>>>>+<<336666666663<++>>>>+ee",
"ee+>>>++<3366666666363<>++>>>+ee",
"ee+>>++<<3666666663363<+>++>>+ee",
"ee+>>+><3366666663<<66<+>>+>>+ee",
"ee+>>+><366666663<r<66<<+>+>>+ee",
"we+>>+<<36666663<r;;;63<++77>+qe",
"we+>>7<36666666<r;;2;63<+>+>>+ee",
"ee+>>+<36666666<rr;t;63<77+>>+ee",
"ee+>>+<36366666<rrr;r63<77+>>+eq",
"ee+>>+<33336666<rrrrr6<717+>>+ee",
"ee+>>+<33<336666<rrr5<<117+>>+we",
"ee+>>+<33<333<66<rr5<3<177+>>+ee",
"ee+>>+<333<33<666<O<<3<*7>+>>+ee",
"ee++>+<333<33<<66<OO33<*+>+>++ee",
"eee+++<333<<3<<<6<&O3<X*+++++qee",
"eeee++<33<<<<<=<6<&&O<++++++eeee",
"eeewwq<<3<==<===<=O&Oeeeeeeeeeee",
"eeeeeee<3<====,====O-eeeeeeeeeee",
"eeeeeee<<=,,=,,,=,=4-eqeweeeeeee",
"eqqeeee<<=,,,,,,,,=4-eeeeeeqeeee",
"qq0qwwwe=,,,,,,,,=44-eeeeqqeewee",
"9eqwwwew=,,,,,,,==4-eeeeeeeeeqee",
"weeeeee==,,,,,,,=44-eeeeeeeeeeee",
"eweeeee=,,,,,,,==44-eeeeeeeeeeew",
"qeeeeee=,,,,,,==44-$eeeeeeeeeeew",
"qeeewew=,,,,,,=;###$eeeeeeeeeewe",
"weqqwqq==,,,,,=;:::%$eeeeeeeeeee",
"wwewewe===,,,,=;:::%$eeeeqeeeewe",
"eeeeeeee===,,,=5;:::%$qqweeeeeee",
"eeeeeeeee$==,,=5;:::%$$9qeeeeeee",
"eeeeeeeee$%==,=;;::::%$eeeeewqee",
"eeeeeeee$$%:===::::::%$$eeeeeeee",
"eeeeeeee$%%::::::::::%%$eeeweeee",
"eeeeeeee$%::::::::::::%$eeee9eee",
"eeeeeew$$%::::::::::::%$$eeeeeee",
"eeeeeee$%::::::::::::::%$eeeeeee",
"eeeeee$%%::::::::::::::%%$weewee",
"weeeee$%%::::::::::::::%%$eeewqe",
"weeeee$$%::::::::::::::%$$eeeeee",
"eeeeeee$$%::::::::::::%$$qeeeeee",
"eeeqeeee$$%::::::::::%$$qeeeeqeq",
"eeeeqweeq$$$%%%%%%%%$$$eeeeeeeee",
"eeeeeeewwe$$$$$$$$$$$$eweeeeqewe",
"eeeeeewweeqw @@ @@ eeeqeweeeeqee",
"eeeeeeeewwqe o@ @@@ qeeeeeeeeeee",
"eeeeeeeeeeeee   o@@@ w80eeeee0ee",
"eeeeeeeeeeeeewe     oqqeeewewqee",
"eeeeeeeeeeeeeeeeeewqeeewewqweeee",
"eeewwqeeeeeeeeeeeeeeeeeeeeeeeeee"
};
