/* XPM */
static char *_015[] = {
/* columns rows colors chars-per-pixel */
"32 64 20 1 ",
"  c #090806",
". c #22100F",
"X c #30190B",
"o c #3A1A18",
"O c #10182C",
"+ c #141F38",
"@ c #4A3527",
"# c #692329",
"$ c #223462",
"% c #87232A",
"& c #A2501D",
"* c #AD7939",
"= c #E09D34",
"- c #EEB74B",
"; c #AEAFB0",
": c #AFB0B1",
"> c #B1B2B3",
", c #B3B3B4",
"< c #B7B7B7",
"1 c #EBC8B5",
/* pixels */
"<<<<<<<<<<<<<<<<<<<<<<<<<<<<<<<<",
"<<<<<<<<,>,<<<<>><<<<<><,<<<<<<<",
"<>><<<<<<<<<<<<<<<<<<<<<<<<><<<<",
">>:>,,,<<<<<<<<<<<<<<<<<<>><<,<<",
";<>,,,<,<<<<<<<<<<<<<<<<<<<<<><<",
",<<<<<<<<<<<<<<<<<<<<<<<<<<<<<<<",
"<,<<<<<<>><<<<<<<<<<<<<<<<<<<<<,",
"><<<<<<<<<<<<<<<<<<<<<<<<<<<<<<,",
"><<<,<,<<<<,<<<<<<<<<<<<<<<<<<,<",
",<>>,>>><<<<<<<<<<<<<<<<<<<<<<<<",
",,<,<,<,,,,<,<<<<<<<,<<<<><<<<,<",
"<<<<<<<<<<<<<******,:>>>,<<<<<<<",
"<<<<<<<<<<<***====***<,;><<<<<<<",
"<<<<<<<<<<**==-----=**<<<<<<,><<",
"<<<<<<<XX**==-------=**<<<<XX<<<",
"<<<<<<<X**==---------=**<<<X1X<<",
"<<<<<<<X*==-----------=*<<<X11X<",
"<<<<<<X**=------------=**<XXX1X<",
"<<<<<<X*=--------------=*XXX@X<<",
"<<<<<X@*=--------------=*XX@@X<<",
",<<<XX*=----------------=*X@&X><",
",<<<X@*=----------------=*@&&X<<",
"<<<XX&*=----------------=*&&X<<<",
"<<<X&X*=----------------=*&&X><>",
"<<XXXX*=----------------=*@&X<<<",
"<<X&XX*=----------------=*@@X<,<",
"<<X&@X*=----------------=*@XX><<",
"<<XX&@*=------=---------=*XX<<<<",
"<<<XX**--==---=----=*---=*X<<><<",
"<<<<X*=--=*-==*=---=*--=***<,><<",
"<<<<<*=-*=*=*=*=--=*=--=*=*,<<<<",
"<<<,,*=**=*=*==*=-=*=--=*=*<<<<<",
"<<<<<<****==*==*==**==-=*=*<<<<<",
"<<<<<<<*%*==**==*=*%*=-=*=*<<<<<",
"<>><<<<*%*=*%*=*%*%%%*=****><<<<",
">>:>,,#%%%*%%%*%%%%%%%*%%#><<,<<",
";<>,,,#%%%%%%%%%%%%%%%%%%#<<<><<",
",<<<<<#%%%%%%%%%%%%%%%%%%#<<<<<<",
"<,<<<<#%%%%%%%%%%%%%%%%%%#<<<<<,",
"><<<<#%%%%%%%%%%%%%%%%%%%%#<<<<,",
"><<<,#%%%%%%%%%%%%%%%%%%%%#<<<,<",
",<>>,#%%%%%%%%%%%%%%%%%%%%#<<<<<",
",,<,#%%%%%%%%%%%%%%%%%%%%%%#<<,<",
"<<<<#%%%%%%%########%%%%%%%#<<<<",
"<<<<#%%%%####$$$$$$####%%%%#<<<<",
"<<<<#%%####$$$$$$$$$$####%%#,><<",
"<<<<#%##OO+$$$$$$$$$$+OO##%#<<<<",
"<<<<###<O++$$$$$$$$$$++O<###<<<<",
"<<<<<<<<O+$$$$$$$$$$$$+O<<<<;<<<",
"<<<<<<,OO+$$$$$$$$$$$$+OO<<<<<<<",
"<<<<<<<O+$$$$$$$$$$$$$$+O<<<<<<<",
"<<<<<<O++$$$$$$$$$$$$$$++O,<<,<<",
",<<<<<O++$$$$$$$$$$$$$$++O<<<,><",
",<<<<<OO+$$$$$$$$$$$$$$+OO<<<<<<",
"<<<<<<<OO+$$$$$$$$$$$$+OO><<<<<<",
"<<<><<<<OO+$$$$$$$$$$+OO><<<<><>",
"<<<<>,<<>OO++++++++++OO<<<<<<<<<",
"<<<<<<<,,<OOOOOOOOOOOO<,<<<<><,<",
"<<<<<<,,<<..oo << oo..><,<<<<><<",
"<<<<<<<<, oooo << oooo <<<<<<<<<",
"<<<<<<<<<..ooo.<>.ooo..:<<<<<:<<",
"<<<<<<<<<<.  .<<,<.  .><<<,<,><<",
"<<<<<<<<<<<<<<<<<<,><<<,<,>,<<<<",
"<<<,,><<<<<<<<<<<<<<<<<<<<<<<<<<"
};
