/* XPM */
static char *_004[] = {
/* columns rows colors chars-per-pixel */
"32 64 30 1 ",
"  c #090806",
". c #22100F",
"X c #221C16",
"o c #3A1A18",
"O c #28241A",
"+ c #10182C",
"@ c #141F38",
"# c #392120",
"$ c #692329",
"% c #594E3A",
"& c #5C523A",
"* c #223462",
"= c #87232A",
"- c #9A2D35",
"; c #AD7939",
": c #B63A44",
"> c #EF952C",
", c #E09D34",
"< c #A9895B",
"1 c #BC9C65",
"2 c #EEB74B",
"3 c #F0BF5D",
"4 c #ACADAF",
"5 c #AEAFB0",
"6 c #AFB0B1",
"7 c #B1B2B3",
"8 c #B3B3B4",
"9 c #B7B7B7",
"0 c #FFDC8E",
"q c white",
/* pixels */
"99999999999999999999999999999999",
"99999999878999977999997989999999",
"97799999999999999999999999979999",
"77678889999999999999999997799899",
"59788898999999999999999999999799",
"89999999999999999999999999999999",
"98999999779999999999999999999998",
"79999999999999999999999999999998",
"79998989999899999999999999999989",
"89778777999999::-:99999999999999",
"889898988889::-::--:899997999989",
"9999999999993;;;;;;-:77789999999",
"99999999999;;;,,,,;;;98579999999",
"9999999999;;,,2222,,;;9999998799",
"999999998;;,,2222222,;9999999999",
"99999999;;,,222222222,;999989999",
"99999999;,,22222222,2,;999995999",
"9999998;;,22222222,,2,;999999999",
"9999999;,,2222222,;;22;989999999",
"9999998;,2222222,;0;22;;88899899",
"899999;;,222222,;0&&&2,;99999879",
"899999;,2222222;0&&>&2,;99999999",
"999999;,2222222;00&q&2,;67999999",
"999799;,2,22222;000&02,;79999797",
"999978;,,,,2222;000002;999999999",
"999999;,,;,,2222;0001;;899997979",
"999999;,,;,,,;22;001;,;989998799",
"999999;,,,;,,;222;X;;,;999999999",
"999999;,,,;,,;;22;XX,,;699999799",
"999999;,,,;;,;;;2;#X,;7999998799",
"999999;,,;;;;;$;2;##X;9898789999",
"999887;;,;$$;$$$;$X#X99999999999",
"9999999;,;$$$$=$$$$X%99999999999",
"9999999;;$==$===$=$<%97989999999",
"9779999;;$========$<%99999979999",
"77678889$========$<<%99997799899",
"59788898$=======$$<%999999999799",
"8999999$$=======$<<%999999999999",
"9899999$=======$$<<%999999999998",
"7999999$======$$<<%+999999999998",
"7999898$======$&OOO+999999999989",
"8977877$$=====$&***@+99999999999",
"8898989$$$====$&***@+99997999989",
"99999999$$$===$1&***@+7789999999",
"999999999+$$==$1&***@++579999999",
"999999999+@$$=$&&****@+999998799",
"99999999++@*$$$******@++99999999",
"99999999+@@**********@@+99989999",
"99999999+@************@+99995999",
"9999998++@************@++9999999",
"9999999+@**************@+9999999",
"999999+@@**************@@+899899",
"899999+@@**************@@+999879",
"899999++@**************@++999999",
"9999999++@************@++7999999",
"99979999++@**********@++79999797",
"999978997+++@@@@@@@@+++999999999",
"9999999889++++++++++++9899997989",
"999999889978 oo oo 9997989999799",
"999999998879 .o ooo 799999999999",
"9999999999999   .ooo 84699999699",
"999999999999989     .77999898799",
"99999999999999999987999898789999",
"99988799999999999999999999999999"
};
