/* XPM */
static char *_009[] = {
/* columns rows colors chars-per-pixel */
"32 32 10 1 ",
"  c #30190B",
". c #4A3527",
"X c #A2501D",
"o c #ADAEAF",
"O c #AEAFB0",
"+ c #AFB0B1",
"@ c #B1B2B3",
"# c #B3B3B4",
"$ c #B7B7B7",
"% c #EBC8B5",
/* pixels */
"$$$$$$$$$$$$$$$$$$$$$$$$$$$$$$$$",
"$$$$$$$$#@#$$$$@@$$$$$@$#$$$$$$$",
"$@@$$$$$$$$$$$$$$$$$$$$$$$$@$$$$",
"@@+@###$$$$$$$$$$$$$$$$$$@@$$#$$",
"O$@###$#$$$$$$$$$$$$$$$$$$$$$@$$",
"#$$$$$$$$$$$$$$$$$$$$$$$$$$$$$$$",
"$#$$$$$$@@$$$$$$$$$$$$$$$$$$$$$#",
"@$$$$$$$$$$$$$$$$$$$$$$$$$$$$$$#",
"@$$$#$#$$$$#$$$$$$$$$$$$$$$$$$#$",
"#$@@#@@@$$$$$$$$$$$$$$$$$$$$$$$$",
"##$#$#$####$#$$$$$$$#$$$$@$$$$#$",
"$$$$$$$$$$$$$$$$$$##+@@@#$$$$$$$",
"$$$$$$$$$$$$$$$$$$$$$$#O@$$$$$$$",
"$$$$$$$$$$$$$$$$$$$$$$$$$$$$#@$$",
"$$$$$$$  @$$$$$#@##$$$$$$$$  $$$",
"$$$$$$$ % @#@#$$$o$#$$$$$$$ % $$",
"$$$$$$$ %% $$$$$$$$$$$$$$$$ %% $",
"$$$$$$     $$$$$$$$$@$$$$$   % $",
"$$$$$$ X     $$$$$#$        . $$",
"$$$$$ .  ...  $$#$  .....  .. $$",
"#$$$  .  XX..     ....XXX  .X @$",
"#$$$ .  XXX..........XXX  .XX $$",
"$$$  X XXX...XXX....XXXX .XX $$$",
"$$$ X ......XXX......XX XXXX @$@",
"$$    ......XX......... X..X $$$",
"$$ X  XXX...X......XXX    .. $#$",
"$$ X.  XXX........XXX  .. .  @$$",
"$$  X. XXX......XXXX  ...   $$$$",
"$$$  X  XXX....XXXX  .XX   $$@$$",
"$$$$                      $$#@$$",
"$$$$$$$$$$$$$$$$$$#@$$$#$#@#$$$$",
"$$$##@$$$$$$$$$$$$$$$$$$$$$$$$$$"
};
