/* XPM */
static char *_010[] = {
/* columns rows colors chars-per-pixel */
"32 32 9 1 ",
"  c #30190B",
". c #4A3527",
"X c #A2501D",
"o c #AEAFB0",
"O c #AFB0B1",
"+ c #B1B2B3",
"@ c #B3B3B4",
"# c #B7B7B7",
"$ c #EBC8B5",
/* pixels */
"################################",
"########@+@####++#####+#@#######",
"#++########################+####",
"++O+@@@##################++##@##",
"o#+@@@#@#####################+##",
"@###############################",
"#@######++#####################@",
"+##############################@",
"+###@#@####@##################@#",
"@#++@+++########################",
"@@#@#@#@@@@#@#######@####+####@#",
"##################@@O+++@#######",
"######################@o+#######",
"############################@+##",
"########  #####@+@@#############",
"######## $ @          #####@####",
"######## $$ ..........   ##  ###",
"######@    ...XXX......   # $ ##",
"###### .X X...XXXX........  $$ #",
"##### .X XX..XXXX.....XX..   $ #",
"@### .X XX...XXX.....XXX  ..  +#",
"@## .X XX...XXX.....XXX ...X ###",
"### .X .....XX.....XXX .XXXX ###",
"### X ......X........ XXXXX #+#+",
"### X ..X........... XX.XX  ####",
"###   .XXX......XXXX X...X #+#@#",
"### X. XXX.....XXX     ..  ##+##",
"###  X. XX....XXX .....   ######",
"####  X. X...XXX ..XXX   ####+##",
"#####                   ####@+##",
"##################@+###@#@+@####",
"###@@+##########################"
};
