/* XPM */
static char *_000[] = {
/* columns rows colors chars-per-pixel */
"64 64 9 1 ",
"  c #0E3417",
". c #1B1C28",
"X c #4B4949",
"o c #474A50",
"O c #AEAFB0",
"+ c #AFB0B1",
"@ c #B1B2B3",
"# c #B3B3B4",
"$ c #B7B7B7",
/* pixels */
"$$$$$$$$$$$$$$$$$$$$$$$$$$$$$$$$$$$$$$$$$$$$$$$$$$$$$$$$$$$$$$$$",
"$$$$$$$$$$$$$$$$$$$$$$$$$$$$$$$$$$$$$$$$$$$$$$$$$$$$$$$$$$$$$$$$",
"$$$$$$$$$$$$$$$$##@@##$$$$$$$$@@@@$$$$$$$$$$@@$$##$$$$$$$$$$$$$$",
"$$$$$$$$$$$$$$$$##@@##$$$$$$$$@@@@$$$$$$$$$$@@$$##$$$$$$$$$$$$$$",
"$$@@@@$$$$$$$$$$$$$$$$$$$$$$$$$$$$$$$$$$$$$$$$$$$$$$$$@@$$$$$$$$",
"$$@@@@$$$$$$$$$$$$$$$$$$$$$$$$$$$$$$$$$$$$$$$$$$$$$$$$@@$$$$$$$$",
"@@@@++@@######$$$$$$$$$$$$$$$$$$$$$$$$$$$$$$$$$$$$@@@@$$$$##$$$$",
"@@@@++@@######$$$$$$$$$$$$$$$$$$$$$$$$$$$$$$$$$$$$@@@@$$$$##$$$$",
"OO$$@@######$$##$$$$$$$$$$$$$$$$$$$$$$$$$$$$$$$$$$$$$$$$$$@@$$$$",
"OO$$@@######$$##$$$$$$$$$$$$$$$$$$$$$$$$$$$$$$$$$$$$$$$$$$@@$$$$",
"##$$$$$$$$$$$$$$$$$$$$....................$$$$$$$$$$$$$$$$$$$$$$",
"##$$$$$$$$$$$$$$$$$$$$....................$$$$$$$$$$$$$$$$$$$$$$",
"$$##$$$$$$$$$$$$..........XXXXXXXXXXXX..........$$$$$$$$$$$$$$##",
"$$##$$$$$$$$$$$$..........XXXXXXXXXXXX..........$$$$$$$$$$$$$$##",
"@@$$$$$$$$$$$$......XXXXXX............XXXXXX......$$$$$$$$$$$$##",
"@@$$$$$$$$$$$$......XXXXXX............XXXXXX......$$$$$$$$$$$$##",
"@@$$$$$$##$$....XXXXXX......        ......XXXXXX....$$$$$$$$@###",
"@@$$$$$$##$$....XXXXXX......        ......XXXXXX....$$$$$$$$@#$#",
"##$$@@@@##@@..XXXX....                    ....XXXX..$$$$$$$$$$$$",
"##$$@@@@##@@..XXXX....                    ....XXXX..$$$$$$$$$$$$",
"####$$##$$##..XX....                        ....XX..$$$$$$$$##$$",
"####$$##$$##..XX....                        ....XX..$$$$$$$$##$$",
"$$$$$$$$$$$$......                            ......$$$$$$$$$$$$",
"$$$$$$$$$$$$......                            ......$$$$$$$$$$$$",
"$$$$$$$$$$$$........                        ........$$$$$$$$$$$$",
"$$$$$$$$$$$$........                        ........$$$$$$$$$$$$",
"$$$$$$$$$$....XXXX............................XXXX....$$##@@$$$$",
"$$$$$$$$$$....XXXX............................XXXX....$$##@@$$$$",
"$$$$$$$$....XXXXXXXXXXXXXXXXXXXXXXXXXXXXXXXXXXXXXXXX....$$$$$$$$",
"$$$$$$$$....XXXXXXXXXXXXXXXXXXXXXXXXXXXXXXXXXXXXXXXX....$$$$$$$$",
"$$$$$$$$..XXXXXXXXXXXXXXXXXXXXXXXXXXXXXXXXXXXXXXXXXXXX..$$$$$$$$",
"$$$$$$$$..XXXXXXXXXXXXXXXXXXXXXXXXXXXXXXXXXXXXXXXXXXXX..$$$$$$$$",
"$$$$$$....XXXXXXXXXXXXXXXXXXXXXXXXXXXXXXXXXXXXXXXXXXXX....$$$$$$",
"$$$$$$....XXXXXXXXXXXXXXXXXXXXXXXXXXXXXXXXXXXXXXXXXXXX....$$$$$$",
"$$$$$$..XXXXXXXXXXXXXXXXXXXXXXXXXXXXXXXXXXXXXXXXXXXXXXXX..$$$$$$",
"$$$$$$..XXXXXXXXXXXXXXXXXXXXXXXXXXXXXXXXXXXXXXXXXXXXXXXX..$$$$$$",
"$$$$$$..XXXXXXXXXXXXXXXXXXXXXXXXXXXXXXXXXXXXXXXXXXXXXXXX..$$$$$$",
"$$$$$$..XXXXXXXXXXXXXXXXXXXXXXXXXXXXXXXXXXXXXXXXXXXXXXXX..$$$$$$",
"$$$$$$..XXXXXXXXXXXXXXXXXXXXXXXXXXXXXXXXXXXXXXXXXXXXXXXX..##$$$$",
"$$$$$$..XXXXXXXXXXXXXXXXXXXXXXXXXXXXXXXXXXXXXXXXXXXXXXXX..##$$$$",
"##$$$$....XXXXXXXXXXXXXXXXXXXXXXXXXXXXXXXXXXXXXXXXXXXX....##@@$$",
"##$$$$....XXXXXXXXXXXXXXXXXXXXXXXXXXXXXXXXXXXXXXXXXXXX....##@@$$",
"##$$$$......XXXXXXXXXXXXXXXXXXXXXXXXXXXXXXXXXXXXXXXX......$$$$$$",
"##$$$$......XXXXXXXXXXXXXXXXXXXXXXXXXXXXXXXXXXXXXXXX......$$$$$$",
"$$$$..............XXXXXXXXXXXXXXXXXXXXXXXXXXXX..............$$$$",
"$$$$..............XXXXXXXXXXXXXXXXXXXXXXXXXXXX..............$$$$",
"$$$$....oooooooo..........XXXXXXXXXXXX..........oooooooo....$$@@",
"$$$$....oooooooo..........XXXXXXXXXXXX..........oooooooo....$$@@",
"$$$$..oooooooooo..oooo....................oooo..oooooooooo..$$$$",
"$$$$..oooooooooo..oooo....................oooo..oooooooooo..$$$$",
"$$$$..oooooooo....oooooo....oooooooo....oooooo....oooooooo..##$$",
"$$$$..oooooooo....oooooo....oooooooo....oooooo....oooooooo..##$$",
"$$$$....oooo....oooooooo....oooooooo....oooooooo....oooo....$$$$",
"$$$$....oooo....oooooooo....oooooooo....oooooooo....oooo....$$$$",
"$$$$$$..........oooooo....oooooooooooo....oooooo..........$$$$$$",
"$$$$$$..........oooooo....oooooooooooo....oooooo..........$$$$$$",
"$$$$$$$$$$$$................oooooooo................$$$$$$++$$$$",
"$$$$$$$$$$$$................oooooooo................$$$$$$@@$$$$",
"$$$$$$$$$$$$$$$$$$$$........................@@$$$$$$$$$$##@@$$$$",
"$$$$$$$$$$$$$$$$$$$$........................@@$$$$$$$$$$##@@$$$$",
"$$$$$$$$$$$$$$$$$$$$$$$$$$............@@$$$$$$##$$@@@@##$$$$$$$$",
"$$$$$$$$$$$$$$$$$$$$$$$$$$............@@$$$$$$##$$@@@@##$$$$$$$$",
"$$$$$$####@@$$$$$$$$$$$$$$$$$$$$$$$$$$$$$$$$$$$$$$$$$$$$$$$$$$$$",
"$$$$$$####@@$$$$$$$$$$$$$$$$$$$$$$$$$$$$$$$$$$$$$$$$$$$$$$$$$$$$"
};
