/* XPM */
static char *_001[] = {
/* columns rows colors chars-per-pixel */
"64 64 13 1 ",
"  c #231818",
". c #56443E",
"X c #4C4343",
"o c #D57B47",
"O c #F19B5E",
"+ c #F1BD61",
"@ c #FFC37F",
"# c #AEAFB0",
"$ c #AFB0B1",
"% c #B1B2B3",
"& c #B3B3B4",
"* c #B7B7B7",
"= c #ECD2B2",
/* pixels */
"****************************************************************",
"****************************************************************",
"****====********&&%%====******%%%%********======&&******====****",
"****====********&&%%====******%%%%********======&&******====****",
"**%%%%======**********====****************==**********====******",
"**%%%%======**********====****************==**********====******",
"%%%%$$%%&&====**********======********====********%%====**&&****",
"%%%%$$%%&&====**********======********====********%%====**&&****",
"##**%%&&&&&&==&&**********************************====****%%****",
"##**%%&&&&&&==&&**********************************====****%%****",
"&&********************                    ******************==**",
"&&********************                    ******************==**",
"**====**********          XXXXXXXXXXXX          **********====&&",
"**====**********          XXXXXXXXXXXX          **********====&&",
"%%**====******      XXXXXX            XXXXXX      ******====**&&",
"%%**====******      XXXXXX            XXXXXX      ******====**&&",
"%%****====**    XXXXXX      OOOOOOOO      XXXXXX    ****==**%&&&",
"%%****====**    XXXXXX      OOOOOOOO      XXXXXX    ****==**%&*&",
"&&**%%%%==%%  XXXX    OOOOOOOO@@OOOOOOOOOO    XXXX  ************",
"&&**%%%%==%%  XXXX    OOOOOOOO@@OOOOOOOOOO    XXXX  ************",
"&&&&**&&**&&  XX    OOOOOOOOOOOOOOOO@@OOOOOO    XX  ********&&**",
"&&&&**&&**&&  XX    OOOOOOOOOOOOOOOO@@OOOOOO    XX  ********&&**",
"************      OOOO@@OOOO@@OOOOOOOOOO@@OOOO      ************",
"************      OOOO@@OOOO@@OOOOOOOOOO@@OOOO      ************",
"************        OOOOOOOOOOOOOOOOOOOOOOOO        ************",
"************        OOOOOOOOOOOOOOOOOOOOOOOO        ************",
"**********    XXXX                            XXXX    **&&%%****",
"**********    XXXX                            XXXX    **&&%%****",
"********    XXXXXXXXXXXXXXXXXXXXXXXXXXXXXXXXXXXXXXXX    ********",
"********    XXXXXXXXXXXXXXXXXXXXXXXXXXXXXXXXXXXXXXXX    ********",
"********  XXXXXXXXXXXXXXXXXXXXXXXXXXXXXXXXXXXXXXXXXXXX  ********",
"********  XXXXXXXXXXXXXXXXXXXXXXXXXXXXXXXXXXXXXXXXXXXX  ********",
"******    XXXXXXXXXXXXXXXXXXXXXXXXXXXXXXXXXXXXXXXXXXXX    ******",
"******    XXXXXXXXXXXXXXXXXXXXXXXXXXXXXXXXXXXXXXXXXXXX    ******",
"******  XXXXXXXXXXXXXXXXXXXXXXXXXXXXXXXXXXXXXXXXXXXXXXXX  ++****",
"******  XXXXXXXXXXXXXXXXXXXXXXXXXXXXXXXXXXXXXXXXXXXXXXXX  ++****",
"****++  ++XXXXXX++XXXXXX++++XXXXXXXX++XXXXXXXXXX++XXXX++  ******",
"****++  ++XXXXXX++XXXXXX++++XXXXXXXX++XXXXXXXXXX++XXXX++  ******",
"******++++++XXXXXXXX++XXXXXXXX++XXXX++XXXX++XXXX++XX++++++&&****",
"******++++++XXXXXXXX++XXXXXXXX++XXXX++XXXX++XXXX++XX++++++&&****",
"&&****  ++++++XXXX++++XX++++XXXX++XXXXXXXXXXXX++XXXX++++  &&%%**",
"&&****  ++++++XXXX++++XX++++XXXX++XXXXXXXXXXXX++XXXX++++  &&%%**",
"&&****  oo++++XXXX++++++++++XXXX++++++++XX++XX++++++++oo  ******",
"&&****  oo++++XXXX++++++++++XXXX++++++++XX++XX++++++++oo  ******",
"****    oooo++++++++++++++++XX++++++++++++++++++++++oooo    ****",
"****    oooo++++++++++++++++XX++++++++++++++++++++++oooo    ****",
"****    ..oooo++++oo++++++++++++++oo++++oo++++oooo++oo..    **%%",
"****    ..oooo++++oo++++++++++++++oo++++oo++++oooo++oo..    **%%",
"****  ..........oooooo++++oo++++oooo++oooo++++++oo........  ****",
"****  ..........oooooo++++oo++++oooo++oooo++++++oo........  ****",
"****  ........    oooo..oooooo++oooo++oo..++++  oo........  &&**",
"****  ........    oooo..oooooo++oooo++oo..++++  oo........  &&**",
"****    ....    ........  oooo......    ........    ....    ****",
"****    ....    ........  oooo......    ........    ....    ****",
"******          ......    ............    ......          ******",
"******          ......    ............    ......          ******",
"************                ........                ******$$****",
"************                ........                ******%%****",
"********************                        %%**********&&%%****",
"********************                        %%**********&&%%****",
"**************************            %%******&&**%%%%&&********",
"**************************            %%******&&**%%%%&&********",
"******&&&&%%****************************************************",
"******&&&&%%****************************************************"
};
