/* XPM */
static char *_012[] = {
/* columns rows colors chars-per-pixel */
"64 64 13 1 ",
"  c #1C0505",
". c #200000",
"X c #231818",
"o c #451919",
"O c #4C4343",
"+ c #913000",
"@ c #D57B47",
"# c #F1BD61",
"$ c #AEAFB0",
"% c #AFB0B1",
"& c #B1B2B3",
"* c #B3B3B4",
"= c #B7B7B7",
/* pixels */
"================================================================",
"================================================================",
"================**&&**========&&&&==========&&==**==============",
"================**&&**========&&&&==========&&==**==============",
"==&&&&====XXXXXXXXXXXXXXXXXXXXXXXXXXXXXXXXXXXXXXXXXXXX&&========",
"==&&&&====XXXXXXXXXXXXXXXXXXXXXXXXXXXXXXXXXXXXXXXXXXXX&&========",
"&&&&%%&&XXOOOOOOOOOOOOOOOOOOOOOOOOOOOOOOOOOOOOOOOOOOOOXX==**====",
"&&&&%%&&XXOOOOOOOOOOOOOOOOOOOOOOOOOOOOOOOOOOOOOOOOOOOOXX==**====",
"$$==&&XXOOOOOOOOOOOOOOOOOOOOOOOOOOOOOOOOOOOOOOOOOOOOOOOOXX&&====",
"$$==&&XXOOOOOOOOOOOOOOOOOOOOOOOOOOOOOOOOOOOOOOOOOOOOOOOOXX&&====",
"**==XXOOOOOOOOOOOOOOOOOOOOOOOOOOOOOOOOOOOOOOOOOOOOOOOOOOOOXX====",
"**==XXOOOOOOOOOOOOOOOOOOOOOOOOOOOOOOOOOOOOOOOOOOOOOOOOOOOOXX====",
"==**XXXXXXXXXXXXXXXXXXXXXXXXXXXXXXXXXXXXXXXXXXXXXXXXXXXXXXXX==**",
"==**XXXXXXXXXXXXXXXXXXXXXXXXXXXXXXXXXXXXXXXXXXXXXXXXXXXXXXXX==**",
"&&==XXOOOOOOOOOOOOOOOOOOOOOOOOOOOOOOOOOOOOOOOOOOOOOOOOOOOOXX==**",
"&&==XXOOOOOOOOOOOOOOOOOOOOOOOOOOOOOOOOOOOOOOOOOOOOOOOOOOOOXX==**",
"&&==XXOOOOOOOOOOOOOOOOOOOOOOOOOOOOOOOOOOOOOOOOOOOOOOOOOOOOXX&*=*",
"&&==XXOOOOOOOOOOOOOOOOOOOOOOOOOOOOOOOOOOOOOOOOOOOOOOOOOOOOXX&*=*",
"**                                                            ==",
"**                                                            ==",
"**                                                            ==",
"**                                                            ==",
"====XXOOOO    OOOOOOOOOOOOOOOOOOOOOOOOOOOOOOOOOOOO    OOOOXX====",
"====XXOOOO    OOOOOOOOOOOOOOOOOOOOOOOOOOOOOOOOOOOO    OOOOXX====",
"====XXOOOO    OOOOOOOOOOOOOOOOOOOOOOOOOOOOOOOOOOOO    OOOOXX====",
"====XXOOOO    OOOOOOOOOOOOOOOOOOOOOOOOOOOOOOOOOOOO    OOOOXX====",
"====XXOOOOOO  OOOOOOOOOOOOOOOOOOOOOOOOOOOOOOOOOOOO  OOOOOOXX====",
"====XXOOOOOO  OOOOOOOOOOOOOOOOOOOOOOOOOOOOOOOOOOOO  OOOOOOXX====",
"====XXOOOOOOOOOOXXXXXXXXXXXXXXXXXXXXXXXXXXXXXXXXOOOOOOOOOOXX====",
"====XXOOOOOOOOOOXXXXXXXXXXXXXXXXXXXXXXXXXXXXXXXXOOOOOOOOOOXX====",
"====XXOOOOOOOOXXXXOOOOXXOOOOOOXXXXOOOOOOXXOOOOXXXXOOOOOOOOXX====",
"====XXOOOOOOOOXXXXOOOOXXOOOOOOXXXXOOOOOOXXOOOOXXXXOOOOOOOOXX====",
"====XXOOOOOOXXXXOOOOXXXXXXXXXXXXXXXXXXXXXXXXOOOOXXXXOOOOOOXX====",
"====XXOOOOOOXXXXOOOOXXXXXXXXXXXXXXXXXXXXXXXXOOOOXXXXOOOOOOXX====",
"====XXOOOOXXXXOOXXXXXX++++++++++++++++++++XXXXXXOOXXXXOOOOXX====",
"====XXOOOOXXXXOOXXXXXX++++++++++++++++++++XXXXXXOOXXXXOOOOXX====",
"====XXOOOOXXOOOOXX++++++++++++++++++++++++++++XXOOOOXXOOOOXX====",
"====XXOOOOXXOOOOXX++++++++++++++++++++++++++++XXOOOOXXOOOOXX====",
"====XXOOOOXXOOXXXX++++++++++++++##++++++++++##XXXXOOXXOOOOXX====",
"====XXOOOOXXOOXXXX++++++++++++++##++++++++++##XXXXOOXXOOOOXX====",
"**==XXOOOOXXXXXX++++##++++####++####++++++####++XXXX####OOXX&&==",
"**==XXOOOOXXXXXX++++##++++####++####++++++####++XXXX####OOXX&&==",
"**==XXOOOO####XX++++##++++####++++##++++++++++++XXOOXXOOOOXX====",
"**==XXOOOO####XX++++##++++####++++##++++++++++++XXOOXXOOOOXX====",
"====XXOOOOXX####++++++++++####++++++++++++####++####XXOOOOXX====",
"====XXOOOOXX####++++++++++####++++++++++++####++####XXOOOOXX====",
"====XXOOOOXX##########++############################XXOOOOXX==&&",
"====XXOOOOXX##########++############################XXOOOOXX==&&",
"====XXOOOOXX##@@@@@@######@@####@@########@@####@@##XXOOOOXX====",
"====XXOOOOXX##@@@@@@######@@####@@########@@####@@##XXOOOOXX====",
"====XXOOOOXX####@@@@####@@@@####@@@@####@@@@##@@@@##XXOOOOXX**==",
"====XXOOOOXX####@@@@####@@@@####@@@@####@@@@##@@@@##XXOOOOXX**==",
"====XXOOOOXXXX####@@####@@@@####@@@@####@@@@##@@####XXOOOOXX====",
"====XXOOOOXXXX####@@####@@@@####@@@@####@@@@##@@####XXOOOOXX====",
"====XXOOOOXXOOXX##oooo....oo####@@####....oooooo##OOXXOOOOXX====",
"====XXOOOOXXOOXX##oooo....oo####@@####....oooooo##OOXXOOOOXX====",
"====XXXXOOXXOOXXoooo....oooooo....oooooo....ooooXXOOXXOOXXXX====",
"====XXXXOOXXOOXXoooo....oooooo....oooooo....ooooXXOOXXOOXXXX====",
"======XXXXXXXXXXoo....oooooo........oooooo....ooXXXXXXXXXX&&====",
"======XXXXXXXXXXoo....oooooo........oooooo....ooXXXXXXXXXX&&====",
"========XXXXXXXXXXXXXXXXXXXXXXXXXXXXXXXXXXXXXXXXXXXXXXXX========",
"========XXXXXXXXXXXXXXXXXXXXXXXXXXXXXXXXXXXXXXXXXXXXXXXX========",
"======****&&====================================================",
"======****&&===================================================="
};
