/* XPM */
static char *_011[] = {
/* columns rows colors chars-per-pixel */
"64 64 11 1 ",
"  c #1C0505",
". c #0F1017",
"X c #200000",
"o c #191D30",
"O c #402828",
"+ c #4B4949",
"@ c #AEAFB0",
"# c #AFB0B1",
"$ c #B1B2B3",
"% c #B3B3B4",
"& c #B7B7B7",
/* pixels */
"&&&&&&&&&&&&&&&&&&&&&&&&&&&&&&&&&&&&&&&&&&&&&&&&&&&&&&&&&&&&&&&&",
"&&&&&&&&&&&&&&&&&&&&&&&&&&&&&&&&&&&&&&&&&&&&&&&&&&&&&&&&&&&&&&&&",
"&&&&&&&&&&&&&&&&%%$$%%&&&&&&&&$$$$&&&&&&&&&&$$&&%%&&&&&&&&&&&&&&",
"&&&&&&&&&&&&&&&&%%$$%%&&&&&&&&$$$$&&&&&&&&&&$$&&%%&&&&&&&&&&&&&&",
"&&$$$$&&&&............................................$$&&&&&&&&",
"&&$$$$&&&&............................................$$&&&&&&&&",
"$$$$##$$..++++++++++++++++++++++++++++++++++++++++++++..&&%%&&&&",
"$$$$##$$..++++++++++++++++++++++++++++++++++++++++++++..&&%%&&&&",
"@@&&$$..++++++++++++++++++++++++++++++++++++++++++++++++..$$&&&&",
"@@&&$$..++++++++++++++++++++++++++++++++++++++++++++++++..$$&&&&",
"%%&&..++++++++++++++++++++++++++++++++++++++++++++++++++++..&&&&",
"%%&&..++++++++++++++++++++++++++++++++++++++++++++++++++++..&&&&",
"&&%%........................................................&&%%",
"&&%%........................................................&&%%",
"$$&&..++++++++++++++++++++++++++++++++++++++++++++++++++++..&&%%",
"$$&&..++++++++++++++++++++++++++++++++++++++++++++++++++++..&&%%",
"$$&&..++++++++++++++++++++++++++++++++++++++++++++++++++++..$%&%",
"$$&&..++++++++++++++++++++++++++++++++++++++++++++++++++++..$%&%",
"%%                                                            &&",
"%%                                                            &&",
"%%                                                            &&",
"%%                                                            &&",
"&&&&..++++    ++++++++++++++++++++++++++++++++++++    ++++..&&&&",
"&&&&..++++    ++++++++++++++++++++++++++++++++++++    ++++..&&&&",
"&&&&..++++    ++++++++++++++++++++++++++++++++++++    ++++..&&&&",
"&&&&..++++    ++++++++++++++++++++++++++++++++++++    ++++..&&&&",
"&&&&..++++++  ++++++++++++++++++++++++++++++++++++  ++++++..&&&&",
"&&&&..++++++  ++++++++++++++++++++++++++++++++++++  ++++++..&&&&",
"&&&&..++++++++++................................++++++++++..&&&&",
"&&&&..++++++++++................................++++++++++..&&&&",
"&&&&..++++++++....++++..++++++....++++++..++++....++++++++..&&&&",
"&&&&..++++++++....++++..++++++....++++++..++++....++++++++..&&&&",
"&&&&..++++++....++++........................++++....++++++..&&&&",
"&&&&..++++++....++++........................++++....++++++..&&&&",
"&&&&..++++....++......oooooooooooooooooooo......++....++++..&&&&",
"&&&&..++++....++......oooooooooooooooooooo......++....++++..&&&&",
"&&&&..++++..++++..oooooooooooooooooooooooooooo..++++..++++..&&&&",
"&&&&..++++..++++..oooooooooooooooooooooooooooo..++++..++++..&&&&",
"&&&&..++++..++....oooooooooooooooooooooooooooo....++..++++..&&&&",
"&&&&..++++..++....oooooooooooooooooooooooooooo....++..++++..&&&&",
"%%&&..++++......oooooooooooooooooooooooooooooooo......++++..$$&&",
"%%&&..++++......oooooooooooooooooooooooooooooooo......++++..$$&&",
"%%&&..++++..++..oooooooooooooooooooooooooooooooo..++..++++..&&&&",
"%%&&..++++..++..oooooooooooooooooooooooooooooooo..++..++++..&&&&",
"&&&&..++++..++..oooooooooooooooooooooooooooooooo..++..++++..&&&&",
"&&&&..++++..++..oooooooooooooooooooooooooooooooo..++..++++..&&&&",
"&&&&..++++......oooooooooooooooooooooooooooooooo......++++..&&$$",
"&&&&..++++......oooooooooooooooooooooooooooooooo......++++..&&$$",
"&&&&..++++..++..oooooooooooooooooooooooooooooooo..++..++++..&&&&",
"&&&&..++++..++..oooooooooooooooooooooooooooooooo..++..++++..&&&&",
"&&&&..++++..++..ooXXXXXXooooooooooooooooXXXXXXoo..++..++++..%%&&",
"&&&&..++++..++..ooXXXXXXooooooooooooooooXXXXXXoo..++..++++..%%&&",
"&&&&..++++......XXOOOOXXXXXXXXXXXXXXXXXXXXOOOOXX......++++..&&&&",
"&&&&..++++......XXOOOOXXXXXXXXXXXXXXXXXXXXOOOOXX......++++..&&&&",
"&&&&..++++..++..OOOOOOXXXXOOOOXXXXOOOOXXXXOOOOOO..++..++++..&&&&",
"&&&&..++++..++..OOOOOOXXXXOOOOXXXXOOOOXXXXOOOOOO..++..++++..&&&&",
"&&&&....++..++..OOOOXXXXOOOOOOXXXXOOOOOOXXXXOOOO..++..++....&&&&",
"&&&&....++..++..OOOOXXXXOOOOOOXXXXOOOOOOXXXXOOOO..++..++....&&&&",
"&&&&&&..........OOXXXXOOOOOOXXXXXXXXOOOOOOXXXXOO..........$$&&&&",
"&&&&&&..........OOXXXXOOOOOOXXXXXXXXOOOOOOXXXXOO..........$$&&&&",
"&&&&&&&&................................................&&&&&&&&",
"&&&&&&&&................................................&&&&&&&&",
"&&&&&&%%%%$$&&&&&&&&&&&&&&&&&&&&&&&&&&&&&&&&&&&&&&&&&&&&&&&&&&&&",
"&&&&&&%%%%$$&&&&&&&&&&&&&&&&&&&&&&&&&&&&&&&&&&&&&&&&&&&&&&&&&&&&"
};
