/* XPM */
static char *_000[] = {
/* columns rows colors chars-per-pixel */
"64 128 37 1 ",
"  c #090806",
". c #22100F",
"X c #30190B",
"o c #221C16",
"O c #3A1A18",
"+ c #28241A",
"@ c #10182C",
"# c #141F38",
"$ c #302320",
"% c #392120",
"& c #4A2622",
"* c #4E2926",
"= c #4A3527",
"- c #692329",
"; c #752026",
": c #594E3A",
"> c #5C523A",
", c #223462",
"< c #87232A",
"1 c #A9292F",
"2 c #A2501D",
"3 c #AD7939",
"4 c #D28438",
"5 c #EF952C",
"6 c #E09D34",
"7 c #F0BF3F",
"8 c #A9895B",
"9 c #BC9C65",
"0 c #EEB74B",
"q c #AEAFB0",
"w c #AFB0B1",
"e c #B1B2B3",
"r c #B3B3B4",
"t c #B7B7B7",
"y c #FFDC8E",
"u c #EBC8B5",
"i c white",
/* pixels */
"tttttttttttttttttttttttttttttttttttttttttttttttttttttttttttttttt",
"tttttttttttttttttttttttttttttttttttttttttttttttttttttttttttttttt",
"ttttttttttttttttrreerrtttttttteeeetttttttttteettrrtttttttttttttt",
"ttttttttttttttttrreerrtttttttteeeetttttttttteettrrtttttttttttttt",
"tteeeetttttttttttttttttttttttttttttttttttttttttttttttteetttttttt",
"tteeeetttttttttttttttttttttttttttttttttttttttttttttttteetttttttt",
"eeeewweerrrrrrtttttttttttttttttttttttttttttttttttteeeettttrrtttt",
"eeeewweerrrrrrtttttttttttttttttttttttttttttttttttteeeettttrrtttt",
"qqtteerrrrrrttrrtttttttttttttttttttttttttttttttttttttttttteetttt",
"qqtteerrrrrrttrrtttttttttttttttttttttttttttttttttttttttttteetttt",
"rrtttttttttttttttttttttttttttttttttttttttttttttttttttttttttttttt",
"rrtttttttttttttttttttttttttttttttttttttttttttttttttttttttttttttt",
"ttrrtttttttttttteeeettttttttttttttttttttttttttttttttttttttttttrr",
"ttrrtttttttttttteeeettttttttttttttttttttttttttttttttttttttttttrr",
"eetttttttttttttttttttttttttttttttt$$$$$$ttttttttttttttttttttttrr",
"eetttttttttttttttttttttttttttttttt$$$$$$ttttttttttttttttttttttrr",
"eettttttrrttrrttttttttrrtttttttt$$11;;11$$ttttttttttttttttttrrtt",
"eettttttrrttrrttttttttrrtttttttt$$11;;11$$ttttttttttttttttttrrtt",
"rrtteeeerreeeeeetttttttttttttt$$77;;11;;11$$tttttttttttttttttttt",
"rrtteeeerreeeeeetttttttttttttt$$77;;11;;11$$tttttttttttttttttttt",
"rrrrtterttrrttrrrrrrerttrrtt$$****4477;;;;11$$tttteettttttttrett",
"rrrrttrrttrrttrrrrreeettrrtt$$****4477;;;;11$$tttteettttttttrrtt",
"tttttttttttttttttttttttttt3333333333334411;;11$$rrtttttttttttttt",
"tttttttttttttttttttttttttt3333333333334411;;11$$rrtttttttttttttt",
"tttttttttttttttttttttt3333336666666633333344;;11$$tttttttttttttt",
"tttttttttttttttttttttt3333336666666633333344;;11$$tttttttttttttt",
"tttttttttttttttttttt33336666666666666666333377;;$$$$ttttrreetttt",
"tttttttttttttttttttt33336666666666666666333377;;$$$$ttttrreetttt",
"ttttttttttttttXXXX3333666600000000000066663333$$&&$$ttXXXXtttttt",
"ttttttttttttttXXXX3333666600000000000066663333$$&&$$ttXXXXtttttt",
"ttttttttttttttXX33336666000000000000000066663333&&$$ttXXuuXXtttt",
"ttttttttttttttXX33336666000000000000000066663333&&$$ttXXuuXXtttt",
"ttttttttttttttXX33666600000066000000000000666633$$ttttXXuuuuXXtt",
"ttttttttttttttXX33666600000066000000000000666633$$ttttXXuuuuXXtt",
"ttttttttttttXX333366000000666600000033000066663333ttXXXXXXuuXXtt",
"ttttttttttttXX333366000000666600000033000066663333ttXXXXXXuuXXtt",
"ttttttttttttXX336666000066333300000033330000666633XXXXXX==XXtttt",
"ttttttttttttXX336666000066333300000033330000666633XXXXXX==XXtttt",
"ttttttttttXX==336600006633yy33000033yy333300006633XXXX====XXtttt",
"ttttttttttXX==336600006633yy33000033yy333300006633XXXX====XXtttt",
"rrttttttXXXX336666000033>>>>>>0033>>>>>>333300666633XX==22XXeett",
"rrttttttXXXX336666000033>>>>>>0033>>>>>>333300666633XX==22XXeett",
"rrttttttXX==3366000033>>>>55>>33yy>>55>>>>3300666633==2222XXtttt",
"rrttttttXX==3366000033>>>>55>>33yy>>55>>>>3300666633==2222XXtttt",
"ttttttXXXX223366000033yy>>ii>>yyyy>>ii>>yy33000066332222XXtttttt",
"ttttttXXXX223366000033yy>>ii>>yyyy>>ii>>yy33000066332222XXtttttt",
"ttttttXX22XX3300003333yyyy>>yyyyyyyy>>yyyy33000066332222XXeettee",
"ttttttXX22XX3300003333yyyy>>yyyyyyyy>>yyyy33000066332222XXeettee",
"ttttXXXXXXXX330000333399yyyyyyyyyyyyyyyy330000003333==22XXtttttt",
"ttttXXXXXXXX330000333399yyyyyyyyyyyyyyyy330000003333==22XXtttttt",
"ttttXX22XXXX33000033333399yyyyyyyyyyyy99330000336633====XXttrrrr",
"ttttXX22XXXX33000033333399yyyyyyyyyyyy99330000336633====XXttrrtr",
"ttttXX22==XX3300003333333399yyyyyyyy9933333300336633==XXXXeetttt",
"ttttXX22==XX3300003333333399yyyyyyyy9933333300336633==XXXXeetttt",
"ttttXXXX22==330000333333oooo++9999++oooo333300336633XXXXtttttttt",
"ttttXXXX22==330000333333oooo++9999++oooo333300336633XXXXtttttttt",
"ttttttXXXX2233003333oooo%%oooo++++oooo%%oooo336633XXXXtttteetttt",
"ttttttXXXX2233003333oooo%%oooo++++oooo%%oooo336633XXXXtttteetttt",
"ttttttttXXXX330033oo%%%%%%%%%%oooo%%%%%%%%oooo6633XXttttrreetttt",
"ttttttttXXXX330033oo%%%%%%%%%%oooo%%%%%%%%oooo6633XXttttrreetttt",
"tttttttttttt330033--oooo%%%%oo%%%%oo%%%%oooo--33ttrreerrtttttttt",
"tttttttttttt330033--oooo%%%%oo%%%%oo%%%%oooo--33ttrreerrtttttttt",
"ttttttrrrreett33--<<<<<<oo%%oo%%%%oo%%oo<<<<<<--tttttttttttttttt",
"ttttttrrrreett33--<<<<<<oo%%oo%%%%oo%%oo<<<<<<--tttttttttttttttt",
"tttttttttttttttt--<<<<<<<<oo%%oooo%%oo<<<<<<<<--tttttttttttttttt",
"tttttttttttttttt--<<<<<<<<oo%%oooo%%oo<<<<<<<<--tttttttttttttttt",
"tttttttttttttt--<<<<<<<<<<<<88888888<<<<<<<<<<<<--tttttttttttttt",
"tttttttttttttt--<<<<<<<<<<<<88888888<<<<<<<<<<<<--tttttttttttttt",
"tteeeetttttttt--<<<<<<<<8888888888888888<<<<<<<<--tttteetttttttt",
"tteeeetttttttt--<<<<<<<<8888888888888888<<<<<<<<--tttteetttttttt",
"eeeewweerrrr--<<<<<<<<88888888888888888888<<<<<<<<--eettttrrtttt",
"eeeewweerrrr--<<<<<<<<88888888888888888888<<<<<<<<--eettttrrtttt",
"qqtteerrrrrr--<<<<<<<<88888888888888888888<<<<<<<<--tttttteetttt",
"qqtteerrrrrr--<<<<<<<<88888888888888888888<<<<<<<<--tttttteetttt",
"rrtttttttttt--<<<<<<++::8888888888888888::++<<<<<<--tttttttttttt",
"rrtttttttttt--<<<<<<++::8888888888888888::++<<<<<<--tttttttttttt",
"ttrrtttttttt--<<<<<<++::::888888888888::::++<<<<<<--ttttttttttrr",
"ttrrtttttttt--<<<<<<++::::888888888888::::++<<<<<<--ttttttttttrr",
"eetttttttt--<<<<<<99>>++::::::::::::::::++>>99<<<<<<--ttttttttrr",
"eetttttttt--<<<<<<99>>++::::::::::::::::++>>99<<<<<<--ttttttttrr",
"eettttttrr--<<<<>>99>>@@++++++++++++++++@@>>99>><<<<--tttttterrr",
"eettttttrr--<<<<>>99>>@@++++++++++++++++@@>>99>><<<<--ttttttertr",
"rrtteeeerr--<<<<99>>@@@@##,,,,,,,,,,,,##@@@@>>99<<<<--tttttttttt",
"rrtteeeerr--<<<<99>>@@@@##,,,,,,,,,,,,##@@@@>>99<<<<--tttttttttt",
"rrrrttrr--<<<<<<99>>@@####,,,,,,,,,,,,####@@>>99<<<<<<--ttttrrtt",
"rrrrttrr--<<<<<<99>>@@####,,,,,,,,,,,,####@@>>99<<<<<<--ttttrrtt",
"tttttttt--<<<<99>>>>@@##,,,,,,,,,,,,,,,,##@@>>>>99<<<<--tttttttt",
"tttttttt--<<<<99>>>>@@##,,,,,,,,,,,,,,,,##@@>>>>99<<<<--tttttttt",
"tttttttt--<<<<99>>@@@@##,,,,,,,,,,,,,,,,##@@@@>>99<<<<--tttttttt",
"tttttttt--<<<<99>>@@@@##,,,,,,,,,,,,,,,,##@@@@>>99<<<<--tttttttt",
"tttttttt--<<<<>>>>@@##,,,,,,,,,,,,,,,,,,,,##@@>>>><<<<--rreetttt",
"tttttttt--<<<<>>>>@@##,,,,,,,,,,,,,,,,,,,,##@@>>>><<<<--rreetttt",
"tttttttt--<<----@@@@##,,,,,,,,,,,,,,,,,,,,##@@@@----<<--tttttttt",
"tttttttt--<<----@@@@##,,,,,,,,,,,,,,,,,,,,##@@@@----<<--tttttttt",
"tttttttt------tt@@####,,,,,,,,,,,,,,,,,,,,####@@tt------tttttttt",
"tttttttt------tt@@####,,,,,,,,,,,,,,,,,,,,####@@tt------tttttttt",
"tttttttttttttttt@@##,,,,,,,,,,,,,,,,,,,,,,,,##@@ttttttttqqtttttt",
"tttttttttttttttt@@##,,,,,,,,,,,,,,,,,,,,,,,,##@@ttttttttqqtttttt",
"ttttttttttttrr@@@@##,,,,,,,,,,,,,,,,,,,,,,,,##@@@@tttttttttttttt",
"ttttttttttttrr@@@@##,,,,,,,,,,,,,,,,,,,,,,,,##@@@@tttttttttttttt",
"tttttttttttttt@@##,,,,,,,,,,,,,,,,,,,,,,,,,,,,##@@tttttttttttttt",
"tttttttttttttt@@##,,,,,,,,,,,,,,,,,,,,,,,,,,,,##@@tttttttttttttt",
"tttttttttttt@@####,,,,,,,,,,,,,,,,,,,,,,,,,,,,####@@rrttttrrtttt",
"tttttttttttt@@####,,,,,,,,,,,,,,,,,,,,,,,,,,,,####@@rrttttrrtttt",
"rrtttttttttt@@####,,,,,,,,,,,,,,,,,,,,,,,,,,,,####@@ttttttrreett",
"rrtttttttttt@@####,,,,,,,,,,,,,,,,,,,,,,,,,,,,####@@ttttttrreett",
"rrtttttttttt@@@@##,,,,,,,,,,,,,,,,,,,,,,,,,,,,##@@@@tttttttttttt",
"rrtttttttttt@@@@##,,,,,,,,,,,,,,,,,,,,,,,,,,,,##@@@@tttttttttttt",
"tttttttttttttt@@@@##,,,,,,,,,,,,,,,,,,,,,,,,##@@@@eetttttttttttt",
"tttttttttttttt@@@@##,,,,,,,,,,,,,,,,,,,,,,,,##@@@@eetttttttttttt",
"tttttteetttttttt@@@@##,,,,,,,,,,,,,,,,,,,,##@@@@eetttttttteettee",
"tttttteetttttttt@@@@##,,,,,,,,,,,,,,,,,,,,##@@@@eetttttttteettee",
"tttttttteerrttttee@@@@####################@@@@tttttttttttttttttt",
"tttttttteerrttttee@@@@####################@@@@tttttttttttttttttt",
"ttttttttttttttrrrrtt@@@@@@@@@@@@@@@@@@@@@@@@ttrrtttttttteettrerr",
"ttttttttttttttrrrrtt@@@@@@@@@@@@@@@@@@@@@@@@ttrrtttttttteetteerr",
"ttttttttttttrrrrtttt  OOOOOO  tttt  OOOOOO  eettrrtttttttteetttt",
"ttttttttttttrrrrtttt  OOOOOO  tttt  OOOOOO  eettrrtttttttteetttt",
"ttttttttttttttttrr  OOOOOO..  tttt  ..OOOOOO  tttttttttttttttttt",
"ttttttttttttttttrr  OOOOOO..  tttt  ..OOOOOO  tttttttttttttttttt",
"tttttttttttttttttt  OOOO..  tttteerr  ..OOOO  wwttttttttttwwtttt",
"tttttttttttttttttt  OOOO..  tttteerr  ..OOOO  wwtttttttttteetttt",
"tttttttttttttttttt..      rrttttrrtttt      ..ttttttttttrreetttt",
"tttttttttttttttttt..      rrttttrrtttt      ..ttttttttttrreetttt",
"tttttttttttttttttttttttttttttttttttteeeettttttrrtteeeerrtttttttt",
"tttttttttttttttttttttttttttttttttttteeeettttttrrtteeeerrtttttttt",
"ttttttrrrreetttttttttttttttttttttttttttttttttttttttttttttttttttt",
"ttttttrrrreetttttttttttttttttttttttttttttttttttttttttttttttttttt"
};
