/* XPM */
static char *_003[] = {
/* columns rows colors chars-per-pixel */
"64 64 11 1 ",
"  c #3E0D03",
". c #9A2D35",
"X c #B63A44",
"o c #D1A752",
"O c #F0BF5D",
"+ c #ACADAF",
"@ c #AEAFB0",
"# c #AFB0B1",
"$ c #B1B2B3",
"% c #B3B3B4",
"& c #B7B7B7",
/* pixels */
"&&&&&&&&&&&&&&&&&&&&&&&&&&&&&&&&&&&&&&&&&&&&&&&&&&&&&&&&&&&&&&&&",
"&&&&&&&&&&&&&&&&&&&&&&&&&&&&&&&&&&&&&&&&&&&&&&&&&&&&&&&&&&&&&&&&",
"&&&&&&&&&&&&&&&&%%$$%%&&&&&&&&$$$$&&&&&&&&&&$$&&%%&&&&&&&&&&&&&&",
"&&&&&&&&&&&&&&&&%%$$%%&&&&&&&&$$$$&&&&&&&&&&$$&&%%&&&&&&&&&&&&&&",
"&&$$$$&&&&&&&&&&&&&&&&&&&&&&&&&&&&&&&&&&&&&&&&&&&&&&&&$$&&&&&&&&",
"&&$$$$&&&&&&&&&&&&&&&&&&&&&&&&&&&&&&&&&&&&&&&&&&&&&&&&$$&&&&&&&&",
"$$$$##$$%%%%%%&&&&&&&&&&&&&&&&&&&&&&&&&&&&&&&&&&&&$$$$&&&&%%&&&&",
"$$$$##$$%%%%%%&&&&&&&&&&&&&&&&&&&&&&&&&&&&&&&&&&&&$$$$&&&&%%&&&&",
"@@&&$$%%%%%%&&%%&&&&&&&&&&&&&&&&&&&&&&&&&&&&&&&&&&&&&&&&&&$$&&&&",
"@@&&$$%%%%%%&&%%&&&&&&&&&&&&&&&&&&&&&&&&&&&&&&&&&&&&&&&&&&$$&&&&",
"%%&&&&&&&&&&&&&&&&&&&&&&&&&&&&&&&&&&&&&&&&&&&&&&&&&&&&&&&&&&&&&&",
"%%&&&&&&&&&&&&&&&&&&&&&&&&&&&&&&&&&&&&&&&&&&&&&&&&&&&&&&&&&&&&&&",
"&&%%&&&&&&&&&&&&$$$$&&&&&&&&&&&&&&&&&&&&&&&&&&&&&&&&&&&&&&&&&&%%",
"&&%%&&&&&&&&&&&&$$$$&&&&&&&&&&&&&&&&&&&&&&&&&&&&&&&&&&&&&&&&&&%%",
"$$&&&&&&&&&&&&&&&&&&&&&&&&&&&&&&&&&&&&&&&&&&&&&&&&&&&&&&&&&&&&%%",
"$$&&&&&&&&&&&&&&&&&&&&&&&&&&&&&&&&&&&&&&&&&&&&&&&&&&&&&&&&&&&&%%",
"$$&&&&&&%%&&%%&&&&&&&&$$&&&&&&&&&&&&&&&&&&&&&&&&&&&&&&&&&&&&$%%%",
"$$&&&&&&%%&&%%&&&&&&&&$$&&&&&&&&&&&&&&&&&&&&&&&&&&&&&&&&&&&&$%&%",
"%%&&$$$$%%$$$$$$&&&&&&&&&&&&XXXX..XX&&&&&&&&&&&&&&&&&&&&&&&&&&&&",
"%%&&$$$$%%$$$$$$&&&&&&&&&&&&XXXX..XX&&&&&&&&&&&&&&&&&&&&&&&&&&&&",
"%%%%&&%%&&%%&&%%%%%%%%&&XXXX..XXXX....XX%%&&&&&&&&$$&&&&&&&&%%&&",
"%%%%&&%%&&%%&&%%%%%%%%&&XXXX..XXXX....XX%%&&&&&&&&$$&&&&&&&&%%&&",
"&&&&&&&&&&&&&&&&&&&&&&&&OO..XXXXXX..XX..XX$$$$$$%%&&&&&&&&&&&&&&",
"&&&&&&&&&&&&&&&&&&&&&&&&OO..XXXXXX..XX..XX$$$$$$%%&&&&&&&&&&&&&&",
"&&&&&&&&&&&&&&&&&&&&&&OOOOXXXX..XXXX....XX&&%%@@#$&&&&&&&&&&&&&&",
"&&&&&&&&&&&&&&&&&&&&&&OOOOXXXX..XXXX....XX&&%%@@$$&&&&&&&&&&&&&&",
"&&&&&&&&&&&&&&&&&&&&&&OOooOO..XX....XXXX..XX&&&&&&&&&&&&%%$$&&&&",
"&&&&&&&&&&&&&&&&&&&&&&OOooOO..XX....XXXX..XX&&&&&&&&&&&&%%$$&&&&",
"&&&&&&&&&&&&&&&&%%$$  OOOOOOooOOooXX..XXoo&&&&&&&&&&&&&&&&&&&&&&",
"&&&&&&&&&&&&&&&&%%$$  OOOOOOooOOooXX..XXoo&&&&&&&&&&&&&&&&&&&&&&",
"&&&&&&&&&&&&&&&&%%$$    OOooooOOooOOoooooo&&&&&&&&&&&&%%&&&&&&&&",
"&&&&&&&&&&&&&&&&%%$$    OOooooOOooOOoooooo&&&&&&&&&&&&%%&&&&&&&&",
"&&&&&&&&&&&&&&&&&&&&OO  OOooOOooOOooooooOO  &&&&&&&&&&&&@@&&&&&&",
"&&&&&&&&&&&&&&&&&&&&OO  OOooOOooOOooooooOO  &&&&&&&&&&&&@@&&&&&&",
"&&&&&&&&&&&&%%$$&&&&OO      OOooOOooOOoo    &&&&&&&&&&&&&&&&&&&&",
"&&&&&&&&&&&&%%$$&&&&OO      OOooOOooOOoo    &&&&&&&&&&&&&&&&&&&&",
"&&&&&&&&&&&&&&&&%%OOooOOoo                    &&%%&&&&&&&&&&&&&&",
"&&&&&&&&&&&&&&&&%%OOooOOoo                    &&%%&&&&&&&&&&&&&&",
"&&&&&&&&&&&&%%&&&&OOooOOooOOooOOooOOooOO  &&    %%%%%%&&&&%%&&&&",
"&&&&&&&&&&&&%%&&&&OOooOOooOOooOOooOOooOO  &&    %%%$$%&&&&%%&&&&",
"%%&&&&&&&&&&&&&&&&%$OOooooooooOOooOOOO&&  &&&&  &&&&&&&&&&%%$$&&",
"%%&&&&&&&&&&&&&&&&%%OOooooooooOOooOOOO&&  &&&&  &&&&&&&&&&%%$$&&",
"%%&&&&&&&&&&&&&&&&&&OOooOOooOOooOOooOO&&&&&&$$$$&&&&&&&&&&&&&&&&",
"%%&&&&&&&&&&&&&&&&&&OOooOOooOOooOOooOO&&&&&&$$$$&&&&&&&&&&&&&&&&",
"&&&&&&&&&&&&&&&&&&&&&&&&OOooOOooOOOO&&&&&&&&$$$$##$$&&&&&&&&&&&&",
"&&&&&&&&&&&&&&&&&&&&&&&&OOooOOooOOOO&&&&&&&&$$$$##$$&&&&&&&&&&&&",
"&&&&&&$$&&&&&&&&&&&&&&&&&&&&&&OO&&&&&&&&&&&&&&%%$$&&&&&&&&$$&&$$",
"&&&&&&$$&&&&&&&&&&&&&&&&&&&&&&OO&&&&&&&&&&&&&&%%$$&&&&&&&&$$&&$$",
"&&&&&&&&$$%%&&&&$$$$&&&&&&&&&&&&&&&&&&&&&&&&&&&&&&&&&&&&&&&&&&&&",
"&&&&&&&&$$%%&&&&$$$$&&&&&&&&&&&&&&&&&&&&&&&&&&&&&&&&&&&&&&&&&&&&",
"&&&&&&&&&&&&&&%%%%&&&&&&&&&&&&&&&&&&&&&&&&&&&&%%&&&&&&&&$$&&%$%%",
"&&&&&&&&&&&&&&%%%%&&&&&&&&&&&&&&&&&&&&&&&&&&&&%%&&&&&&&&$$&&$$%%",
"&&&&&&&&&&&&%%%%&&&&$$%%&&&&&&&&&&&&&&&&&&&&$$&&%%&&&&&&&&$$&&&&",
"&&&&&&&&&&&&%%%%&&&&$$%%&&&&&&&&&&&&&&&&&&&&$$&&%%&&&&&&&&$$&&&&",
"&&&&&&&&&&&&&&&&%%%%$$&&%%&&&&&&&&&&&&&&$$&&&&&&&&&&&&&&&&&&&&&&",
"&&&&&&&&&&&&&&&&%%%%$$&&$$&&&&&&&&&&&&&&$$&&&&&&&&&&&&&&&&&&&&&&",
"&&&&&&&&&&&&&&&&&&&&&&&&&&%%&&&&$$%%%%&&&&%%++#@&&&&&&&&&&##&&&&",
"&&&&&&&&&&&&&&&&&&&&&&&&&&%%&&&&$$%%%%&&&&%%++##&&&&&&&&&&$$&&&&",
"&&&&&&&&&&&&&&&&&&&&&&&&&&%%&&&&%%&&&&$$##$$$$&&&&&&&&&&%%$$&&&&",
"&&&&&&&&&&&&&&&&&&&&&&&&&&%%&&&&%%&&&&$$##$$$$&&&&&&&&&&%%$$&&&&",
"&&&&&&&&&&&&&&&&&&&&&&&&&&&&&&&&&&&&$$$$&&&&&&%%&&$$$$%%&&&&&&&&",
"&&&&&&&&&&&&&&&&&&&&&&&&&&&&&&&&&&&&$$$$&&&&&&%$&&$$$$%%&&&&&&&&",
"&&&&&&%%%%$$&&&&&&&&&&&&&&&&&&&&&&&&&&&&&&&&&&&&&&&&&&&&&&&&&&&&",
"&&&&&&%%%%$$&&&&&&&&&&&&&&&&&&&&&&&&&&&&&&&&&&&&&&&&&&&&&&&&&&&&"
};
