/* XPM */
static char *_013[] = {
/* columns rows colors chars-per-pixel */
"64 128 36 1 ",
"  c #090806",
". c #22100F",
"X c #221C16",
"o c #3A1A18",
"O c #28241A",
"+ c #10182C",
"@ c #141F38",
"# c #302320",
"$ c #392120",
"% c #4A2622",
"& c #4E2926",
"* c #5D2E2A",
"= c #692329",
"- c #752026",
"; c #6E342F",
": c #594E3A",
"> c #5C523A",
", c #223462",
"< c #87232A",
"1 c #A9292F",
"2 c #AD7939",
"3 c #D28438",
"4 c #EF952C",
"5 c #E09D34",
"6 c #F0BF3F",
"7 c #A9895B",
"8 c #BC9C65",
"9 c #EEB74B",
"0 c #ACADAF",
"q c #AEAFB0",
"w c #AFB0B1",
"e c #B1B2B3",
"r c #B3B3B4",
"t c #B7B7B7",
"y c #FFDC8E",
"u c white",
/* pixels */
"tttttttttttttttttttttttttttttttttttttttttttttttttttttttttttttttt",
"tttttttttttttttttttttttttttttttttttttttttttttttttttttttttttttttt",
"ttttttttttttttttrreerrtttttttteeeetttttttttteettrrtttttttttttttt",
"ttttttttttttttttrreerrtttttttteeeetttttttttteettrrtttttttttttttt",
"tteeeetttttttttttttttttttttttttttttttttttttttttttttttteetttttttt",
"tteeeetttttttttttttttttttttttttttttttttttttttttttttttteetttttttt",
"eeeewweerrrrrrtttttttttttttttttttttttttttttttttttteeeettttrrtttt",
"eeeewweerrrrrrtttttttttttttttttttttttttttttttttttteeeettttrrtttt",
"qqtteerrrrrrttrrtttttttttttttttttttttttttttttttttttttttttteetttt",
"qqtteerrrrrrttrrtttttttttttttttttttttttttttttttttttttttttteetttt",
"rrtttttttttttttttttttttttttttttttttttttttttttttttttttttttttttttt",
"rrtttttttttttttttttttttttttttttttttttttttttttttttttttttttttttttt",
"ttrrtttttttttttteeeettttttttttttttttttttttttttttttttttttttttttrr",
"ttrrtttttttttttteeeettttttttttttttttttttttttttttttttttttttttttrr",
"eetttttttttttttttttttttttttttttttt######ttttttttttttttttttttttrr",
"eetttttttttttttttttttttttttttttttt######ttttttttttttttttttttttrr",
"eettttttrrttrrttttttttrrtttttttt##11--11##ttttttttttttttttttrrtt",
"eettttttrrttrrttttttttrrtttttttt##11--11##ttttttttttttttttttrrtt",
"rrtteeeerreeeeeetttttttttttttt##66--11--11##tttttttttttttttttttt",
"rrtteeeerreeeeeetttttttttttttt##66--11--11##tttttttttttttttttttt",
"rrrrtterttrrttrrrrrrerttrrtt##&&&&3366----11##tttteettttttttrett",
"rrrrttrrttrrttrrrrreeettrrtt##&&&&3366----11##tttteettttttttrrtt",
"tttttttttttttttttttttttttt2222222222223311--11##rrtttttttttttttt",
"tttttttttttttttttttttttttt2222222222223311--11##rrtttttttttttttt",
"tttttttttttttttttttttt2222225555555522222233--11##tttttttttttttt",
"tttttttttttttttttttttt2222225555555522222233--11##tttttttttttttt",
"tttttttttttttttttttt22225555559999995555222266--####ttttrreetttt",
"tttttttttttttttttttt22225555559999995555222266--####ttttrreetttt",
"ttttttttttttttttrree22555599999999999955552222##%%##tttttttttttt",
"ttttttttttttttttrree22555599999999999955552222##%%##tttttttttttt",
"ttttttttttttttttrr225555999999999999999955552222%%##ttrrtttttttt",
"ttttttttttttttttrr225555999999999999999955552222%%##ttrrtttttttt",
"tttttttttttttttt##225599999999999999999999555522##ttttttqqtttttt",
"tttttttttttttttt##225599999999999999999999555522##ttttttqqtttttt",
"ttttttttttttrr##;;55999999559999999999999999552222tttttttttttttt",
"ttttttttttttrr##;;55999999559999999999999999552222tttttttttttttt",
"tttttttttttt##**2255999922225599999999999999555522tttttttttttttt",
"tttttttttttt##**2255999922225599999999999999555522tttttttttttttt",
"tttttttttttt##**2255992222yy2299999999999999995522rrrrttttrrtttt",
"tttttttttttt##**2255992222yy2299999999999999995522rrrrttttrrtttt",
"rrtttttttttttt##225599>>>>>>yy2299999999999999552222ttttttrreett",
"rrtttttttttttt##225599>>>>>>yy2299999999999999552222ttttttrreett",
"rrtttttttttttttt225599>>44>>>>yy99999999999999995522tttttttttttt",
"rrtttttttttttttt225599>>44>>>>yy99999999999999995522tttttttttttt",
"tttttttttttttttt225599>>uu>>yyyy22999999999999995522tttttttttttt",
"tttttttttttttttt225599>>uu>>yyyy22999999999999995522tttttttttttt",
"tttttteetttttttt225599yy>>yyyyyy22999999999955995522tttttteettee",
"tttttteetttttttt225599yy>>yyyyyy22999999999955995522tttttteettee",
"tttttttteerrtttt225522yyyyyyyyyy22999922995555555522tttttttttttt",
"tttttttteerrtttt225522yyyyyyyyyy22999922995555555522tttttttttttt",
"ttttttttttttttrr22552288yyyyyy2299992222555522555522tttteettrerr",
"ttttttttttttttrr22552288yyyyyy2299992222555522555522tttteettrerr",
"ttttttttttttrrrrtt22992288yy229999992255552222555522tttttteetttt",
"ttttttttttttrrrrtt22992288yy229999992255552222555522tttttreetttt",
"ttttttttttttttttrr22992222XX229922225555222255555522tttttttttttt",
"ttttttttttttttttrr22992222XX229922225555222255555522tttttttttttt",
"tttttttttttttttttt229922XXXXXX2222555555222255555522tttttteetttt",
"tttttttttttttttttt229922XXXXXX2222555555222255555522tttttteetttt",
"tttttttttttttttttt229922XX$$XXXX22555522222255555522ttttrreetttt",
"tttttttttttttttttt229922XX$$XXXX22555522222255555522ttttrreetttt",
"tttttttttttttttttt2299XX$$$$XX==225522222222225522rreerrtttttttt",
"tttttttttttttttttt2299XX$$$$XX==225522222222225522rreerrtttttttt",
"ttttttrrrreetttttttt22XX$$XX==<<<<22225522==225522tttttttttttttt",
"ttttttrrrreetttttttt22XX$$XX==<<<<22225522==225522tttttttttttttt",
"tttttttttttttttttttttt::XX==<<<<<<<<==22======22tttttttttttttttt",
"tttttttttttttttttttttt::XX==<<<<<<<<==22======22tttttttttttttttt",
"ttttttttttttttttrreerr::77==<<<<<<<<<<==<<<<==ttrrtttttttttttttt",
"ttttttttttttttttrreerr::77==<<<<<<<<<<==<<<<==ttrrtttttttttttttt",
"tteeeetttttttttttttttt::77==<<<<<<<<<<<<<<<<==tttttttteetttttttt",
"tteeeetttttttttttttttt::77==<<<<<<<<<<<<<<<<==tttttttteetttttttt",
"eeeewweerrrrrrtttttttt::7777==<<<<<<<<<<<<<<<<==tteeeettttrrtttt",
"eeeewweerrrrrrtttttttt::7777==<<<<<<<<<<<<<<<<==tteeeettttrrtttt",
"qqtteerrrrrrttrrtttttttt::77====<<<<<<<<<<<<<<==tttttttttteetttt",
"qqtteerrrrrrttrrtttttttt::77====<<<<<<<<<<<<<<==tttttttttteetttt",
"rrtttttttttttttttttttttt::7777==<<<<<<<<<<<<<<====tttttttttttttt",
"rrtttttttttttttttttttttt::7777==<<<<<<<<<<<<<<====tttttttttttttt",
"ttrrtttttttttttteeeetttt::7777====<<<<<<<<<<<<<<==ttttttttttttrr",
"ttrrtttttttttttteeeetttt::7777====<<<<<<<<<<<<<<==ttttttttttttrr",
"eetttttttttttttttttttttt++OO7777====<<<<<<<<<<<<==ttttttttttttrr",
"eetttttttttttttttttttttt++OO7777====<<<<<<<<<<<<==ttttttttttttrr",
"eettttttrrttrrttttttttrr++OOOOOO::==<<<<<<<<<<<<==tttttttttterrr",
"eettttttrrttrrttttttttrr++OOOOOO::==<<<<<<<<<<<<==ttttttttttertr",
"rrtteeeerreeeeeetttttt++@@,,,,,,>>==<<<<<<<<<<====tttttttttttttt",
"rrtteeeerreeeeeetttttt++@@,,,,,,>>==<<<<<<<<<<====tttttttttttttt",
"rrrrttrrttrrttrrrrrrrr@@@@,,,,,,>>==<<<<<<<<======eettttttttrrtt",
"rrrrttrrttrrttrrrrrrrr@@@@,,,,,,>>==<<<<<<<<======eettttttttrrtt",
"tttttttttttttttttttt++@@,,,,,,>>88==<<<<<<======rrtttttttttttttt",
"tttttttttttttttttttt++@@,,,,,,>>88==<<<<<<======rrtttttttttttttt",
"tttttttttttttttttt++++@@,,,,,,>>88==<<<<====++qqeetttttttttttttt",
"tttttttttttttttttt++++@@,,,,,,>>88==<<<<====++qqeetttttttttttttt",
"tttttttttttttttttt++@@,,,,,,,,>>>>==<<====@@++ttttttttttrreetttt",
"tttttttttttttttttt++@@,,,,,,,,>>>>==<<====@@++ttttttttttrreetttt",
"tttttttttttttttt++++@@,,,,,,,,,,,,======,,@@++++tttttttttttttttt",
"tttttttttttttttt++++@@,,,,,,,,,,,,======,,@@++++tttttttttttttttt",
"tttttttttttttttt++@@@@,,,,,,,,,,,,,,==,,,,@@@@++ttttttrrtttttttt",
"tttttttttttttttt++@@@@,,,,,,,,,,,,,,==,,,,@@@@++ttttttrrtttttttt",
"tttttttttttttttt++@@,,,,,,,,,,,,,,,,,,,,,,,,@@++ttttttttqqtttttt",
"tttttttttttttttt++@@,,,,,,,,,,,,,,,,,,,,,,,,@@++ttttttttqqtttttt",
"ttttttttttttrr++++@@,,,,,,,,,,,,,,,,,,,,,,,,@@++++tttttttttttttt",
"ttttttttttttrr++++@@,,,,,,,,,,,,,,,,,,,,,,,,@@++++tttttttttttttt",
"tttttttttttttt++@@,,,,,,,,,,,,,,,,,,,,,,,,,,,,@@++tttttttttttttt",
"tttttttttttttt++@@,,,,,,,,,,,,,,,,,,,,,,,,,,,,@@++tttttttttttttt",
"tttttttttttt++@@@@,,,,,,,,,,,,,,,,,,,,,,,,,,,,@@@@++rrttttrrtttt",
"tttttttttttt++@@@@,,,,,,,,,,,,,,,,,,,,,,,,,,,,@@@@++rrttttrrtttt",
"rrtttttttttt++@@@@,,,,,,,,,,,,,,,,,,,,,,,,,,,,@@@@++ttttttrreett",
"rrtttttttttt++@@@@,,,,,,,,,,,,,,,,,,,,,,,,,,,,@@@@++ttttttrreett",
"rrtttttttttt++++@@,,,,,,,,,,,,,,,,,,,,,,,,,,,,@@++++tttttttttttt",
"rrtttttttttt++++@@,,,,,,,,,,,,,,,,,,,,,,,,,,,,@@++++tttttttttttt",
"tttttttttttttt++++@@,,,,,,,,,,,,,,,,,,,,,,,,@@++++eetttttttttttt",
"tttttttttttttt++++@@,,,,,,,,,,,,,,,,,,,,,,,,@@++++eetttttttttttt",
"tttttteetttttttt++++@@,,,,,,,,,,,,,,,,,,,,@@++++eetttttttteettee",
"tttttteetttttttt++++@@,,,,,,,,,,,,,,,,,,,,@@++++eetttttttteettee",
"tttttttteerrttttee++++++@@@@@@@@@@@@@@@@++++++tttttttttttttttttt",
"tttttttteerrttttee++++++@@@@@@@@@@@@@@@@++++++tttttttttttttttttt",
"ttttttttttttttrrrrtt++++++++++++++++++++++++ttrrtttttttteettrerr",
"ttttttttttttttrrrrtt++++++++++++++++++++++++ttrrtttttttteetteerr",
"ttttttttttttrrrrtttteerrtt  oooo  oooo  tttteettrrtttttttteetttt",
"ttttttttttttrrrrtttteerrtt  oooo  oooo  tttteettrrtttttttteetttt",
"ttttttttttttttttrrrreett  oooooo  oo..  eetttttttttttttttttttttt",
"ttttttttttttttttrrrreett  oooooo  oo..  eetttttttttttttttttttttt",
"tttttttttttttttttttttt  oooooo..      ttttrr00wqttttttttttwwtttt",
"tttttttttttttttttttttt  oooooo..      ttttrr00wwtttttttttteetttt",
"tttttttttttttttttttttt..          tttteewweeeettttttttttrreetttt",
"tttttttttttttttttttttt..          tttteewweeeettttttttttrreetttt",
"tttttttttttttttttttttttttttttttttttteeeettttttrrtteeeerrtttttttt",
"tttttttttttttttttttttttttttttttttttteeeettttttretteeeerrtttttttt",
"ttttttrrrreetttttttttttttttttttttttttttttttttttttttttttttttttttt",
"ttttttrrrreetttttttttttttttttttttttttttttttttttttttttttttttttttt"
};
