/* XPM */
static char *_000[] = {
/* columns rows colors chars-per-pixel */
"64 128 31 1 ",
"  c #090806",
". c #1A0808",
"X c #200909",
"o c #300000",
"O c #3E0D03",
"+ c #22100F",
"@ c #221C16",
"# c #3A1A18",
"$ c #28241A",
"% c #10182C",
"& c #141F38",
"* c #392120",
"= c #692329",
"- c #594E3A",
"; c #5C523A",
": c #223462",
"> c #87232A",
", c #AD7939",
"< c #EF952C",
"1 c #E09D34",
"2 c #A9895B",
"3 c #BC9C65",
"4 c #EEB74B",
"5 c #ACADAF",
"6 c #AEAFB0",
"7 c #AFB0B1",
"8 c #B1B2B3",
"9 c #B3B3B4",
"0 c #B7B7B7",
"q c #FFDC8E",
"w c white",
/* pixels */
"XXXXXXXXXXXXXXXXXXXXXXXXXXXXXXXXXXXXXXXXXXXXXXXXXXXXXXXXXXXXXXXX",
"XXXXXXXXXXXXXXXXXXXXXXXXXXXXXXXXXXXXXXXXXXXXXXXXXXXXXXXXXXXXXXXX",
"XX..............XXXXXXXXXXXXXXXXXXXXXXXXXXXXXX..............XXXX",
"XX..............XXXXXXXXXXXXXXXXXXXXXXXXXXXXXX..............XXXX",
"XX..XXXXXXXXXX..XXXXXX................XXXXXXXX..XXXXXXXXXX..XXXX",
"XX..XXXXXXXXXX..XXXXXX................XXXXXXXX..XXXXXXXXXX..XXXX",
"XX..XXXXXXXXXX..XXXXXX..XXXXXXXXXXXX..XXXXXXXX..XXXXXXXXXX..XXXX",
"XX..XXXXXXXXXX..XXXXXX..XXXXXXXXXXXX..XXXXXXXX..XXXXXXXXXX..XXXX",
"XX..............XXXXXX..XXXXXXXXXXXX..XXXXXXXX..............XXXX",
"XX..............XXXXXX..XXXXXXXXXXXX..XXXXXXXX..............XXXX",
"XXXXXXXXXXXXXXXXXXXXXX................XXXXXXXXXXXXXXXXXXXXXXXXXX",
"XXXXXXXXXXXXXXXXXXXXXX................XXXXXXXXXXXXXXXXXXXXXXXXXX",
"XXXXXXXXXXXXXXXXXXXXXXXXXXXXXXXXXXXXXXXXXXXXXXXXXXXXXXXXXXXXXXXX",
"XXXXXXXXXXXXXXXXXXXXXXXXXXXXXXXXXXXXXXXXXXXXXXXXXXXXXXXXXXXXXXXX",
"oooooooooooooooooooooooooooooooooooooooooooooooooooooooooooooooo",
"oooooooooooooooooooooooooooooooooooooooooooooooooooooooooooooooo",
"OOOOOOOOOOOOOOOOooooooOOOOOOOOOOOOOOooooooOOOOOOOOOOOOOOooooooOO",
"OOOOOOOOOOOOOOOOooooooOOOOOOOOOOOOOOooooooOOOOOOOOOOOOOOooooooOO",
"OOOOOOOOOOOOOOOOOOooOOOOOOOOOOOOOOOOOOooOOOOOOOOOOOOOOOOOOooOOOO",
"OOOOOOOOOOOOOOOOOOooOOOOOOOOOOOOOOOOOOooOOOOOOOOOOOOOOOOOOooOOOO",
"OOOOOOOOOOOOOOOOOOooOOOOOOOOOOOOOOOOOOooOOOOOOOOOOOOOOOOOOooOOOO",
"OOOOOOOOOOOOOOOOOOooOOOOOOOOOOOOOOOOOOooOOOOOOOOOOOOOOOOOOooOOOO",
"OOOOOOOOOOOOOOOOooooooOOOO,,,,,,,,,,,,ooooOOOOOOOOOOOOOOooooooOO",
"OOOOOOOOOOOOOOOOooooooOOOO,,,,,,,,,,,,ooooOOOOOOOOOOOOOOooooooOO",
"oooooooooooooooooooooo,,,,,,11111111,,,,,,oooooooooooooooooooooo",
"oooooooooooooooooooooo,,,,,,11111111,,,,,,oooooooooooooooooooooo",
"OOOOOOooooooOOOOOOOO,,,,1111444444441111,,,,OOOOOOooooooOOOOOOOO",
"OOOOOOooooooOOOOOOOO,,,,1111444444441111,,,,OOOOOOooooooOOOOOOOO",
"OOOOOOOOooOOOOOOOO,,,,11114444444444444411,,OOOOOOOOooOOOOOOOOOO",
"OOOOOOOOooOOOOOOOO,,,,11114444444444444411,,OOOOOOOOooOOOOOOOOOO",
"OOOOOOOOooOOOOOO,,,,111144444444444444444411,,OOOOOOooOOOOOOOOOO",
"OOOOOOOOooOOOOOO,,,,111144444444444444444411,,OOOOOOooOOOOOOOOOO",
"OOOOOOooooooOOOO,,11114444444444444444114411,,OOOOooooooOOOOOOOO",
"OOOOOOooooooOOOO,,11114444444444444444114411,,OOOOooooooOOOOOOOO",
"oooooooooooooo,,,,11444444444444444411114411,,oooooooooooooooooo",
"oooooooooooooo,,,,11444444444444444411114411,,oooooooooooooooooo",
"OOOOOOOOOOOOOO,,11114444444444444411,,,,4444,,OOOOOOOOOOooooooOO",
"OOOOOOOOOOOOOO,,11114444444444444411,,,,4444,,OOOOOOOOOOooooooOO",
"OOOOOOOOOOOOOO,,114444444444444411,,qq,,4444,,,,OOOOOOOOOOooOOOO",
"OOOOOOOOOOOOOO,,114444444444444411,,qq,,4444,,,,OOOOOOOOOOooOOOO",
"OOOOOOOOOOOO,,,,1144444444444411,,qq;;;;;;4411,,OOOOOOOOOOooOOOO",
"OOOOOOOOOOOO,,,,1144444444444411,,qq;;;;;;4411,,OOOOOOOOOOooOOOO",
"OOOOOOOOOOOO,,1144444444444444,,qq;;;;<<;;4411,,OOOOOOOOooooooOO",
"OOOOOOOOOOOO,,1144444444444444,,qq;;;;<<;;4411,,OOOOOOOOooooooOO",
"oooooooooooo,,1144444444444444,,qqqq;;ww;;4411,,oooooooooooooooo",
"oooooooooooo,,1144444444444444,,qqqq;;ww;;4411,,oooooooooooooooo",
"OOOOOOoooooo,,1144114444444444,,qqqqqq;;qq4411,,OOooooooOOOOOOOO",
"OOOOOOoooooo,,1144114444444444,,qqqqqq;;qq4411,,OOooooooOOOOOOOO",
"OOOOOOOOooOO,,1111111144444444,,qqqqqqqqqq44,,OOOOOOooOOOOOOOOOO",
"OOOOOOOOooOO,,1111111144444444,,qqqqqqqqqq44,,OOOOOOooOOOOOOOOOO",
"OOOOOOOOooOO,,1111,,111144444444,,qqqqqq33,,,,OOOOOOooOOOOOOOOOO",
"OOOOOOOOooOO,,1111,,111144444444,,qqqqqq33,,,,OOOOOOooOOOOOOOOOO",
"OOOOOOoooooo,,1111,,111111,,4444,,qqqq33,,11,,OOOOooooooOOOOOOOO",
"OOOOOOoooooo,,1111,,111111,,4444,,qqqq33,,11,,OOOOooooooOOOOOOOO",
"oooooooooooo,,111111,,1111,,444444,,@@,,,,11,,oooooooooooooooooo",
"oooooooooooo,,111111,,1111,,444444,,@@,,,,11,,oooooooooooooooooo",
"OOOOOOOOOOOO,,111111,,1111,,,,4444,,@@@@1111,,OOOOOOOOOOOOoooooo",
"OOOOOOOOOOOO,,111111,,1111,,,,4444,,@@@@1111,,OOOOOOOOOOOOoooooo",
"OOOOOOOOOOOO,,111111,,,,11,,,,,,44,,**@@11,,OOOOOOOOOOOOOOOOooOO",
"OOOOOOOOOOOO,,111111,,,,11,,,,,,44,,**@@11,,OOOOOOOOOOOOOOOOooOO",
"OOOOOOOOOOOO,,1111,,,,,,,,,,==,,44,,****@@,,OOOOOOOOOOOOOOOOooOO",
"OOOOOOOOOOOO,,1111,,,,,,,,,,==,,44,,****@@,,OOOOOOOOOOOOOOOOooOO",
"OOOOOOOOOOOO,,,,11,,====,,======,,==@@**@@OOOOOOOOOOOOOOOOoooooo",
"OOOOOOOOOOOO,,,,11,,====,,======,,==@@**@@OOOOOOOOOOOOOOOOoooooo",
"00000000000000,,11,,========>>========@@--0000000000000000000000",
"00000000000000,,11,,========>>========@@--0000000000000000000000",
"00000000000000,,,,==>>>>==>>>>>>==>>==22--0088009900000000000000",
"00000000000000,,,,==>>>>==>>>>>>==>>==22--0088009900000000000000",
"00888800000000,,,,==>>>>>>>>>>>>>>>>==22--0000000000008800000000",
"00888800000000,,,,==>>>>>>>>>>>>>>>>==22--0000000000008800000000",
"8888778899999900==>>>>>>>>>>>>>>>>==2222--0000000088880000990000",
"8888778899999900==>>>>>>>>>>>>>>>>==2222--0000000088880000990000",
"6600889999990099==>>>>>>>>>>>>>>====22--000000000000000000880000",
"6600889999990099==>>>>>>>>>>>>>>====22--000000000000000000880000",
"99000000000000====>>>>>>>>>>>>>>==2222--000000000000000000000000",
"99000000000000====>>>>>>>>>>>>>>==2222--000000000000000000000000",
"00990000000000==>>>>>>>>>>>>>>====2222--000000000000000000000099",
"00990000000000==>>>>>>>>>>>>>>====2222--000000000000000000000099",
"88000000000000==>>>>>>>>>>>>====2222--%%000000000000000000000099",
"88000000000000==>>>>>>>>>>>>====2222--%%000000000000000000000099",
"88000000990099==>>>>>>>>>>>>==;;$$$$$$%%000000000000000000008999",
"88000000990099==>>>>>>>>>>>>==;;$$$$$$%%000000000000000000008909",
"99008888998888====>>>>>>>>>>==;;::::::&&%%0000000000000000000000",
"99008888998888====>>>>>>>>>>==;;::::::&&%%0000000000000000000000",
"99990099009900======>>>>>>>>==;;::::::&&%%0000000088000000009900",
"99990099009900======>>>>>>>>==;;::::::&&%%0000000088000000009900",
"0000000000000000======>>>>>>==33;;::::::&&%%88889900000000000000",
"0000000000000000======>>>>>>==33;;::::::&&%%88889900000000000000",
"000000000000000000%%====>>>>==33;;::::::&&%%%%667800000000000000",
"000000000000000000%%====>>>>==33;;::::::&&%%%%668800000000000000",
"000000000000000000%%&&====>>==;;;;::::::::&&%%000000000099880000",
"000000000000000000%%&&====>>==;;;;::::::::&&%%000000000099880000",
"0000000000000000%%%%&&::======::::::::::::&&%%%%0000000000000000",
"0000000000000000%%%%&&::======::::::::::::&&%%%%0000000000000000",
"0000000000000000%%&&&&::::::::::::::::::::&&&&%%0000009900000000",
"0000000000000000%%&&&&::::::::::::::::::::&&&&%%0000009900000000",
"0000000000000000%%&&::::::::::::::::::::::::&&%%0000000066000000",
"0000000000000000%%&&::::::::::::::::::::::::&&%%0000000066000000",
"00000000000099%%%%&&::::::::::::::::::::::::&&%%%%00000000000000",
"00000000000099%%%%&&::::::::::::::::::::::::&&%%%%00000000000000",
"00000000000000%%&&::::::::::::::::::::::::::::&&%%00000000000000",
"00000000000000%%&&::::::::::::::::::::::::::::&&%%00000000000000",
"000000000000%%&&&&::::::::::::::::::::::::::::&&&&%%990000990000",
"000000000000%%&&&&::::::::::::::::::::::::::::&&&&%%990000990000",
"990000000000%%&&&&::::::::::::::::::::::::::::&&&&%%000000998800",
"990000000000%%&&&&::::::::::::::::::::::::::::&&&&%%000000998800",
"990000000000%%%%&&::::::::::::::::::::::::::::&&%%%%000000000000",
"990000000000%%%%&&::::::::::::::::::::::::::::&&%%%%000000000000",
"00000000000000%%%%&&::::::::::::::::::::::::&&%%%%88000000000000",
"00000000000000%%%%&&::::::::::::::::::::::::&&%%%%88000000000000",
"0000008800000000%%%%&&::::::::::::::::::::&&%%%%8800000000880088",
"0000008800000000%%%%&&::::::::::::::::::::&&%%%%8800000000880088",
"000000008899000088%%%%%%&&&&&&&&&&&&&&&&%%%%%%000000000000000000",
"000000008899000088%%%%%%&&&&&&&&&&&&&&&&%%%%%%000000000000000000",
"00000000000000999900%%%%%%%%%%%%%%%%%%%%%%%%00990000000088009899",
"00000000000000999900%%%%%%%%%%%%%%%%%%%%%%%%00990000000088008899",
"000000000000999900008899  ####  ####  00000088009900000000880000",
"000000000000999900008899  ####  ####  00000088009900000000880000",
"000000000000000099998800  ++##  ######  880000000000000000000000",
"000000000000000099998800  ++##  ######  880000000000000000000000",
"00000000000000000000000000      ++######  9955760000000000770000",
"00000000000000000000000000      ++######  9955770000000000880000",
"000000000000000000000000009900          ++8888000000000099880000",
"000000000000000000000000009900          ++8888000000000099880000",
"0000000000000000000000000000000000008888000000990088889900000000",
"0000000000000000000000000000000000008888000000980088889900000000",
"0000009999880000000000000000000000000000000000000000000000000000",
"0000009999880000000000000000000000000000000000000000000000000000"
};
