/* XPM */
static char *_006[] = {
/* columns rows colors chars-per-pixel */
"64 128 27 1 ",
"  c #090806",
". c #22100F",
"X c #30190B",
"o c #3A1A18",
"O c #10182C",
"+ c #141F38",
"@ c #302320",
"# c #4A2622",
"$ c #4E2926",
"% c #4A3527",
"& c #692329",
"* c #752026",
"= c #223462",
"- c #87232A",
"; c #A9292F",
": c #A2501D",
"> c #AD7939",
", c #D28438",
"< c #E09D34",
"1 c #F0BF3F",
"2 c #EEB74B",
"3 c #AEAFB0",
"4 c #AFB0B1",
"5 c #B1B2B3",
"6 c #B3B3B4",
"7 c #B7B7B7",
"8 c #EBC8B5",
/* pixels */
"7777777777777777777777777777777777777777777777777777777777777777",
"7777777777777777777777777777777777777777777777777777777777777777",
"7777777777777777665566777777775555777777777755776677777777777777",
"7777777777777777665566777777775555777777777755776677777777777777",
"7755557777777777777777777777777777777777777777777777775577777777",
"7755557777777777777777777777777777777777777777777777775577777777",
"5555445566666677777777777777777777777777777777777755557777667777",
"5555445566666677777777777777777777777777777777777755557777667777",
"3377556666667766777777777777777777777777777777777777777777557777",
"3377556666667766777777777777777777777777777777777777777777557777",
"6677777777777777777777777777777777777777777777777777777777777777",
"6677777777777777777777777777777777777777777777777777777777777777",
"7766777777777777555577777777777777777777777777777777777777777766",
"7766777777777777555577777777777777777777777777777777777777777766",
"5577777777777777777777777777777777@@@@@@777777777777777777777766",
"5577777777777777777777777777777777@@@@@@777777777777777777777766",
"55777777667766777777776677777777@@;;**;;@@7777777777777777776677",
"55777777667766777777776677777777@@;;**;;@@7777777777777777776677",
"667755556655555577777777777777@@11**;;**;;@@77777777777777777777",
"667755556655555577777777777777@@11**;;**;;@@77777777777777777777",
"6666775677667766666656776677@@$$$$,,11****;;@@777755777777776577",
"6666776677667766666555776677@@$$$$,,11****;;@@777755777777776677",
"77777777777777777777777777>>>>>>>>>>>>,,;;**;;@@6677777777777777",
"77777777777777777777777777>>>>>>>>>>>>,,;;**;;@@6677777777777777",
"7777777777777777777777>>>>>><<<<<<<<>>>>>>,,**;;@@77777777777777",
"7777777777777777777777>>>>>><<<<<<<<>>>>>>,,**;;@@77777777777777",
"77777777777777777777>>>><<<<2222222222<<>>>>11**@@@@777766557777",
"77777777777777777777>>>><<<<2222222222<<>>>>11**@@@@777766557777",
"7777777777777777XX>>>><<<<22222222222222<<>>>>@@##@@777777777777",
"7777777777777777XX>>>><<<<22222222222222<<>>>>@@##@@777777777777",
"7777777777777777>>>><<<<222222222222222222<<>>>>##@@776677777777",
"7777777777777777>>>><<<<222222222222222222<<>>>>##@@776677777777",
"7777777777777777>><<<<2222222222222222222222<<>>XX7777XXXX777777",
"7777777777777777>><<<<2222222222222222222222<<>>XX7777XXXX777777",
"77777777777766>>>><<222222222222222222222222<<>>>>XX77XX88XX7777",
"77777777777766>>>><<222222222222222222222222<<>>>>XX77XX88XX7777",
"777777777777XX>><<2222222222222222222222222222<<>>%%XXXX8888XX77",
"777777777777XX>><<2222222222222222222222222222<<>>%%XXXX8888XX77",
"7777777777XX%%>><<2222222222222222222222222222<<>>%%XXXXXX88XX77",
"7777777777XX%%>><<2222222222222222222222222222<<>>%%XXXXXX88XX77",
"66777777XX%%>><<22222222222222222222222222222222<<>>%%%%XXXX5577",
"66777777XX%%>><<22222222222222222222222222222222<<>>%%%%XXXX5577",
"667777XX%%::>><<22222222222222222222222222222222<<>>%%::XX777777",
"667777XX%%::>><<22222222222222222222222222222222<<>>%%::XX777777",
"777777XX%%::>><<22222222222222222222222222222222<<>>::::XX777777",
"777777XX%%::>><<22222222222222222222222222222222<<>>::::XX777777",
"777777XX::XX>><<22222222222222222222222222222222<<>>::XX77557755",
"777777XX::XX>><<22222222222222222222222222222222<<>>::XX77557755",
"777777XX::XX>><<22222222222222222222222222222222<<>>XXXX77777777",
"777777XX::XX>><<22222222222222222222222222222222<<>>XXXX77777777",
"777777XXXXXX>><<22222222222222222222222222222222<<>>XX7755776666",
"777777XXXXXX>><<22222222222222222222222222222222<<>>XX7755776566",
"777777XX::%%>><<22222222222222222222222222222222<<>>XX7777557777",
"777777XX::%%>><<22222222222222222222222222222222<<>>XX7776557777",
"777777XXXX::>><<222222222222<<222222222222222222<<>>777777777777",
"777777XXXX::>><<222222222222<<222222222222222222<<>>777777777777",
"77777777XX>>>>2222<<<<222222<<22222222<<>>222222<<>>777777557777",
"77777777XX>>>>2222<<<<222222<<22222222<<>>222222<<>>777777557777",
"7777777777>><<2222<<>>22<<<<>><<222222<<>>2222<<>>>>>>7766557777",
"7777777777>><<2222<<>>22<<<<>><<222222<<>>2222<<>>>>>>7766557777",
"7777777777>><<22>><<>><<>><<>><<2222<<>><<2222<<>><<>>6677777777",
"7777777777>><<22>><<>><<>><<>><<2222<<>><<2222<<>><<>>6677777777",
"7777776666>><<>>>><<>><<>><<<<>><<22<<>><<2222<<>><<>>7777777777",
"7777776666>><<>>>><<>><<>><<<<>><<22<<>><<2222<<>><<>>7777777777",
"777777777777>>>>>>>><<<<>><<<<>><<<<>>>><<<<22<<>><<>>7777777777",
"777777777777>>>>>>>><<<<>><<<<>><<<<>>>><<<<22<<>><<>>7777777777",
"77777777777777>>-->><<<<>>>><<<<>><<>>-->><<22<<>><<>>7777777777",
"77777777777777>>-->><<<<>>>><<<<>><<>>-->><<22<<>><<>>7777777777",
"77555577777777>>-->><<>>-->><<>>-->>------>><<>>>>>>>>5577777777",
"77555577777777>>-->><<>>-->><<>>-->>------>><<>>>>>>>>5577777777",
"555544556666&&------>>------>>-------------->>----&&557777667777",
"555544556666&&------>>------>>-------------->>----&&557777667777",
"337755666666&&------------------------------------&&777777557777",
"337755666666&&------------------------------------&&777777557777",
"667777777777&&------------------------------------&&777777777777",
"667777777777&&------------------------------------&&777777777777",
"776677777777&&------------------------------------&&777777777766",
"776677777777&&------------------------------------&&777777777766",
"5577777777&&----------------------------------------&&7777777766",
"5577777777&&----------------------------------------&&7777777766",
"5577777766&&----------------------------------------&&7777775666",
"5577777766&&----------------------------------------&&7777775676",
"6677555566&&----------------------------------------&&7777777777",
"6677555566&&----------------------------------------&&7777777777",
"66667766&&--------------------------------------------&&77776677",
"66667766&&--------------------------------------------&&77776677",
"77777777&&--------------&&&&&&&&&&&&&&&&--------------&&77777777",
"77777777&&--------------&&&&&&&&&&&&&&&&--------------&&77777777",
"77777777&&--------&&&&&&&&============&&&&&&&&--------&&77777777",
"77777777&&--------&&&&&&&&============&&&&&&&&--------&&77777777",
"77777777&&----&&&&&&&&====================&&&&&&&&----&&66557777",
"77777777&&----&&&&&&&&====================&&&&&&&&----&&66557777",
"77777777&&--&&&&OOOO++====================++OOOO&&&&--&&77777777",
"77777777&&--&&&&OOOO++====================++OOOO&&&&--&&77777777",
"77777777&&&&&&77OO++++====================++++OO77&&&&&&77777777",
"77777777&&&&&&77OO++++====================++++OO77&&&&&&77777777",
"7777777777777777OO++========================++OO7777777733777777",
"7777777777777777OO++========================++OO7777777733777777",
"77777777777766OOOO++========================++OOOO77777777777777",
"77777777777766OOOO++========================++OOOO77777777777777",
"77777777777777OO++============================++OO77777777777777",
"77777777777777OO++============================++OO77777777777777",
"777777777777OO++++============================++++OO667777667777",
"777777777777OO++++============================++++OO667777667777",
"667777777777OO++++============================++++OO777777665577",
"667777777777OO++++============================++++OO777777665577",
"667777777777OOOO++============================++OOOO777777777777",
"667777777777OOOO++============================++OOOO777777777777",
"77777777777777OOOO++========================++OOOO55777777777777",
"77777777777777OOOO++========================++OOOO55777777777777",
"7777775577777777OOOO++====================++OOOO5577777777557755",
"7777775577777777OOOO++====================++OOOO5577777777557755",
"777777775566777755OOOO++++++++++++++++++++OOOO777777777777777777",
"777777775566777755OOOO++++++++++++++++++++OOOO777777777777777777",
"77777777777777666677OOOOOOOOOOOOOOOOOOOOOOOO77667777777755776566",
"77777777777777666677OOOOOOOOOOOOOOOOOOOOOOOO77667777777755775566",
"77777777777766667777....oooo  7777  oooo....55776677777777557777",
"77777777777766667777....oooo  7777  oooo....55776677777777557777",
"777777777777777766  oooooooo  7777  oooooooo  777777777777777777",
"777777777777777766  oooooooo  7777  oooooooo  777777777777777777",
"777777777777777777....oooooo..7755..oooooo....437777777777447777",
"777777777777777777....oooooo..7755..oooooo....447777777777557777",
"77777777777777777777..    ..77776677..    ..55777777777766557777",
"77777777777777777777..    ..77776677..    ..55777777777766557777",
"7777777777777777777777777777777777775555777777667755556677777777",
"7777777777777777777777777777777777775555777777667755556677777777",
"7777776666557777777777777777777777777777777777777777777777777777",
"7777776666557777777777777777777777777777777777777777777777777777"
};
