/* XPM */
static char *_008[] = {
/* columns rows colors chars-per-pixel */
"64 128 24 1 ",
"  c #090806",
". c #22100F",
"X c #231818",
"o c #3A1A18",
"O c #10182C",
"+ c #141F38",
"@ c #692329",
"# c #56443E",
"$ c #223462",
"% c #4C4343",
"& c #87232A",
"* c #AD7939",
"= c #D57B47",
"- c #E09D34",
"; c #F19B5E",
": c #EEB74B",
"> c #F1BD61",
", c #FFC37F",
"< c #AEAFB0",
"1 c #AFB0B1",
"2 c #B1B2B3",
"3 c #B3B3B4",
"4 c #B7B7B7",
"5 c #ECD2B2",
/* pixels */
"4444444444444444444444444444444444444444444444444444444444444444",
"4444444444444444444444444444444444444444444444444444444444444444",
"4444555544444444332255554444442222444444445555553344444455554444",
"4444555544444444332255554444442222444444445555553344444455554444",
"4422225555554444444444555544444444444444445544444444445555444444",
"4422225555554444444444555544444444444444445544444444445555444444",
"2222112233555544444444445555554444444455554444444422555544334444",
"2222112233555544444444445555554444444455554444444422555544334444",
"<<44223333335533444444444444444444444444444444444455554444224444",
"<<44223333335533444444444444444444444444444444444455554444224444",
"3344444444444444444444XXXXXXXXXXXXXXXXXXXX4444444444444444445544",
"3344444444444444444444XXXXXXXXXXXXXXXXXXXX4444444444444444445544",
"4455554444444444XXXXXXXXXX%%%%%%%%%%%%XXXXXXXXXX4444444444555533",
"4455554444444444XXXXXXXXXX%%%%%%%%%%%%XXXXXXXXXX4444444444555533",
"22445555444444XXXXXX%%%%%%XXXXXXXXXXXX%%%%%%XXXXXX44444455554433",
"22445555444444XXXXXX%%%%%%XXXXXXXXXXXX%%%%%%XXXXXX44444455554433",
"224444555544XXXX%%%%%%XXXXXX;;;;;;;;XXXXXX%%%%%%XXXX444455443344",
"224444555544XXXX%%%%%%XXXXXX;;;;;;;;XXXXXX%%%%%%XXXX444455443344",
"334422225522XX%%%%XXXX;;;;;;;;,,;;;;;;;;;;XXXX%%%%XX444444444444",
"334422225522XX%%%%XXXX;;;;;;;;,,;;;;;;;;;;XXXX%%%%XX444444444444",
"333344334433XX%%XXXX;;;;;;;;;;;;;;;;,,;;;;;;XXXX%%XX444444443244",
"333344334433XX%%XXXX;;;;;;;;;;;;;;;;,,;;;;;;XXXX%%XX444444443344",
"444444444444XXXXXX;;;;,,;;************;;,,;;;;XXXXXX444444444444",
"444444444444XXXXXX;;;;,,;;************;;,,;;;;XXXXXX444444444444",
"444444444444XXXXXXXX;;******--------******;;XXXXXXXX444444444444",
"444444444444XXXXXXXX;;******--------******;;XXXXXXXX444444444444",
"4444444444XXXX%%%%XX****----::::::::::--****XX%%%%XXXX4433224444",
"4444444444XXXX%%%%XX****----::::::::::--****XX%%%%XXXX4433224444",
"44444444XXXX%%%%%%****----::::::::::::::--****%%%%%%XXXX44444444",
"44444444XXXX%%%%%%****----::::::::::::::--****%%%%%%XXXX44444444",
"44444444XX%%%%%%****----::::::::::::::::::--****%%%%%%XX44444444",
"44444444XX%%%%%%****----::::::::::::::::::--****%%%%%%XX44444444",
"444444XXXX%%%%%%**----::::::::::::::::::::::--**%%%%%%XXXX444444",
"444444XXXX%%%%%%**----::::::::::::::::::::::--**%%%%%%XXXX444444",
"444444XX%%%%%%****--::::::::::::::::::::::::--****%%%%%%XX>>4444",
"444444XX%%%%%%****--::::::::::::::::::::::::--****%%%%%%XX>>4444",
"4444>>XX>>%%%%**--::::::::::::::::::::::::::::--**%%%%>>XX444444",
"4444>>XX>>%%%%**--::::::::::::::::::::::::::::--**%%%%>>XX444444",
"444444>>>>>>%%**--::::::::::::::::::::::::::::--**%%>>>>>>334444",
"444444>>>>>>%%**--::::::::::::::::::::::::::::--**%%>>>>>>334444",
"334444XX>>>>**--::::::::::::::::::::::::::::::::--**>>>>XX332244",
"334444XX>>>>**--::::::::::::::::::::::::::::::::--**>>>>XX332244",
"334444XX==>>**--::::::::::::::::::::::::::::::::--**>>==XX444444",
"334444XX==>>**--::::::::::::::::::::::::::::::::--**>>==XX444444",
"4444XXXX====**--::::::::::::::::::::::::::::::::--**====XXXX4444",
"4444XXXX====**--::::::::::::::::::::::::::::::::--**====XXXX4444",
"4444XXXX##==**--::::::::::::::::::::::::::::::::--**==##XXXX4422",
"4444XXXX##==**--::::::::::::::::::::::::::::::::--**==##XXXX4422",
"4444XX######**--::::::::::::::::::::::::::::::::--**######XX4444",
"4444XX######**--::::::::::::::::::::::::::::::::--**######XX4444",
"4444XX######**--::::::::::::::::::::::::::::::::--**######XX3344",
"4444XX######**--::::::::::::::::::::::::::::::::--**######XX3344",
"4444XXXX####**--::::::::::::::::::::::::::::::::--**####XXXX4444",
"4444XXXX####**--::::::::::::::::::::::::::::::::--**####XXXX4444",
"444444XXXXXX**--::::::::::::--::::::::::::::::::--**XXXXXX444444",
"444444XXXXXX**--::::::::::::--::::::::::::::::::--**XXXXXX444444",
"4444444444****::::----::::::--::::::::--**::::::--**444444224444",
"4444444444****::::----::::::--::::::::--**::::::--**444444224444",
"4444444444**--::::--**::----**--::::::--**::::--******4433224444",
"4444444444**--::::--**::----**--::::::--**::::--******4433224444",
"4444444444**--::**--**--**--**--::::--**--::::--**--**3344444444",
"4444444444**--::**--**--**--**--::::--**--::::--**--**3344444444",
"4444443333**--****--**--**----**--::--**--::::--**--**4444444444",
"4444443333**--****--**--**----**--::--**--::::--**--**4444444444",
"444444444444********----**----**----****----::--**--**4444444444",
"444444444444********----**----**----****----::--**--**4444444444",
"44444444444444**&&**----****----**--**&&**--::--**--**4444444444",
"44444444444444**&&**----****----**--**&&**--::--**--**4444444444",
"44222244444444**&&**--**&&**--**&&**&&&&&&**--********2244444444",
"44222244444444**&&**--**&&**--**&&**&&&&&&**--********2244444444",
"222211223333@@&&&&&&**&&&&&&**&&&&&&&&&&&&&&**&&&&@@224444334444",
"222211223333@@&&&&&&**&&&&&&**&&&&&&&&&&&&&&**&&&&@@224444334444",
"<<4422333333@@&&&&&&&&&&&&&&&&&&&&&&&&&&&&&&&&&&&&@@444444224444",
"<<4422333333@@&&&&&&&&&&&&&&&&&&&&&&&&&&&&&&&&&&&&@@444444224444",
"334444444444@@&&&&&&&&&&&&&&&&&&&&&&&&&&&&&&&&&&&&@@444444444444",
"334444444444@@&&&&&&&&&&&&&&&&&&&&&&&&&&&&&&&&&&&&@@444444444444",
"443344444444@@&&&&&&&&&&&&&&&&&&&&&&&&&&&&&&&&&&&&@@444444444433",
"443344444444@@&&&&&&&&&&&&&&&&&&&&&&&&&&&&&&&&&&&&@@444444444433",
"2244444444@@&&&&&&&&&&&&&&&&&&&&&&&&&&&&&&&&&&&&&&&&@@4444444433",
"2244444444@@&&&&&&&&&&&&&&&&&&&&&&&&&&&&&&&&&&&&&&&&@@4444444433",
"2244444433@@&&&&&&&&&&&&&&&&&&&&&&&&&&&&&&&&&&&&&&&&@@4444442333",
"2244444433@@&&&&&&&&&&&&&&&&&&&&&&&&&&&&&&&&&&&&&&&&@@4444442343",
"3344222233@@&&&&&&&&&&&&&&&&&&&&&&&&&&&&&&&&&&&&&&&&@@4444444444",
"3344222233@@&&&&&&&&&&&&&&&&&&&&&&&&&&&&&&&&&&&&&&&&@@4444444444",
"33334433@@&&&&&&&&&&&&&&&&&&&&&&&&&&&&&&&&&&&&&&&&&&&&@@44443344",
"33334433@@&&&&&&&&&&&&&&&&&&&&&&&&&&&&&&&&&&&&&&&&&&&&@@44443344",
"44444444@@&&&&&&&&&&&&&&@@@@@@@@@@@@@@@@&&&&&&&&&&&&&&@@44444444",
"44444444@@&&&&&&&&&&&&&&@@@@@@@@@@@@@@@@&&&&&&&&&&&&&&@@44444444",
"44444444@@&&&&&&&&@@@@@@@@$$$$$$$$$$$$@@@@@@@@&&&&&&&&@@44444444",
"44444444@@&&&&&&&&@@@@@@@@$$$$$$$$$$$$@@@@@@@@&&&&&&&&@@44444444",
"44444444@@&&&&@@@@@@@@$$$$$$$$$$$$$$$$$$$$@@@@@@@@&&&&@@33224444",
"44444444@@&&&&@@@@@@@@$$$$$$$$$$$$$$$$$$$$@@@@@@@@&&&&@@33224444",
"44444444@@&&@@@@OOOO++$$$$$$$$$$$$$$$$$$$$++OOOO@@@@&&@@44444444",
"44444444@@&&@@@@OOOO++$$$$$$$$$$$$$$$$$$$$++OOOO@@@@&&@@44444444",
"44444444@@@@@@44OO++++$$$$$$$$$$$$$$$$$$$$++++OO44@@@@@@44444444",
"44444444@@@@@@44OO++++$$$$$$$$$$$$$$$$$$$$++++OO44@@@@@@44444444",
"4444444444444444OO++$$$$$$$$$$$$$$$$$$$$$$$$++OO44444444<<444444",
"4444444444444444OO++$$$$$$$$$$$$$$$$$$$$$$$$++OO44444444<<444444",
"44444444444433OOOO++$$$$$$$$$$$$$$$$$$$$$$$$++OOOO44444444444444",
"44444444444433OOOO++$$$$$$$$$$$$$$$$$$$$$$$$++OOOO44444444444444",
"44444444444444OO++$$$$$$$$$$$$$$$$$$$$$$$$$$$$++OO44444444444444",
"44444444444444OO++$$$$$$$$$$$$$$$$$$$$$$$$$$$$++OO44444444444444",
"444444444444OO++++$$$$$$$$$$$$$$$$$$$$$$$$$$$$++++OO334444334444",
"444444444444OO++++$$$$$$$$$$$$$$$$$$$$$$$$$$$$++++OO334444334444",
"334444444444OO++++$$$$$$$$$$$$$$$$$$$$$$$$$$$$++++OO444444332244",
"334444444444OO++++$$$$$$$$$$$$$$$$$$$$$$$$$$$$++++OO444444332244",
"334444444444OOOO++$$$$$$$$$$$$$$$$$$$$$$$$$$$$++OOOO444444444444",
"334444444444OOOO++$$$$$$$$$$$$$$$$$$$$$$$$$$$$++OOOO444444444444",
"44444444444444OOOO++$$$$$$$$$$$$$$$$$$$$$$$$++OOOO22444444444444",
"44444444444444OOOO++$$$$$$$$$$$$$$$$$$$$$$$$++OOOO22444444444444",
"4444442244444444OOOO++$$$$$$$$$$$$$$$$$$$$++OOOO2244444444224422",
"4444442244444444OOOO++$$$$$$$$$$$$$$$$$$$$++OOOO2244444444224422",
"444444442233444422OOOO++++++++++++++++++++OOOO444444444444444444",
"444444442233444422OOOO++++++++++++++++++++OOOO444444444444444444",
"44444444444444333344OOOOOOOOOOOOOOOOOOOOOOOO44334444444422443233",
"44444444444444333344OOOOOOOOOOOOOOOOOOOOOOOO44334444444422442233",
"44444444444433334444....oooo  4444  oooo....22443344444444224444",
"44444444444433334444....oooo  4444  oooo....22443344444444224444",
"444444444444444433  oooooooo  4444  oooooooo  444444444444444444",
"444444444444444433  oooooooo  4444  oooooooo  444444444444444444",
"444444444444444444....oooooo..4422..oooooo....1<4444444444114444",
"444444444444444444....oooooo..4422..oooooo....114444444444224444",
"44444444444444444444..    ..44443344..    ..22444444444433224444",
"44444444444444444444..    ..44443344..    ..22444444444433224444",
"4444444444444444444444444444444444442222444444334422223344444444",
"4444444444444444444444444444444444442222444444334422223344444444",
"4444443333224444444444444444444444444444444444444444444444444444",
"4444443333224444444444444444444444444444444444444444444444444444"
};
