/* XPM */
static char *_012[] = {
/* columns rows colors chars-per-pixel */
"64 128 27 1 ",
"  c #090806",
". c #22100F",
"X c #221C16",
"o c #3A1A18",
"O c #28241A",
"+ c #10182C",
"@ c #141F38",
"# c #392120",
"$ c #692329",
"% c #594E3A",
"& c #5C523A",
"* c #223462",
"= c #87232A",
"- c #AD7939",
"; c #EF952C",
": c #E09D34",
"> c #A9895B",
", c #BC9C65",
"< c #EEB74B",
"1 c #ACADAF",
"2 c #AEAFB0",
"3 c #AFB0B1",
"4 c #B1B2B3",
"5 c #B3B3B4",
"6 c #B7B7B7",
"7 c #FFDC8E",
"8 c white",
/* pixels */
"6666666666666666666666666666666666666666666666666666666666666666",
"6666666666666666666666666666666666666666666666666666666666666666",
"6666666666666666554455666666664444666666666644665566666666666666",
"6666666666666666554455666666664444666666666644665566666666666666",
"6644446666666666666666666666666666666666666666666666664466666666",
"6644446666666666666666666666666666666666666666666666664466666666",
"4444334455555566666666666666666666666666666666666644446666556666",
"4444334455555566666666666666666666666666666666666644446666556666",
"2266445555556655666666666666666666666666666666666666666666446666",
"2266445555556655666666666666666666666666666666666666666666446666",
"5566666666666666666666666666666666666666666666666666666666666666",
"5566666666666666666666666666666666666666666666666666666666666666",
"6655666666666666444466666666666666666666666666666666666666666655",
"6655666666666666444466666666666666666666666666666666666666666655",
"4466666666666666666666666666666666666666666666666666666666666655",
"4466666666666666666666666666666666666666666666666666666666666655",
"4466666655665566666666556666666666666666666666666666666666665566",
"4466666655665566666666556666666666666666666666666666666666665566",
"5566444455444444666666666666666666666666666666666666666666666666",
"5566444455444444666666666666666666666666666666666666666666666666",
"5555664566556655555545665566666666666666556666666644666666665466",
"5555665566556655555444665566666666666666556666666644666666665566",
"66666666666666666666666666------------55334444445566666666666666",
"66666666666666666666666666------------55334444445566666666666666",
"6666666666666666666666------::::::::------6655224466666666666666",
"6666666666666666666666------::::::::------6655224466666666666666",
"66666666666666666666----::::::<<<<<<::::----66666666666655446666",
"66666666666666666666----::::::<<<<<<::::----66666666666655446666",
"66666666666666665544--::::<<<<<<<<<<<<::::----666666666666666666",
"66666666666666665544--::::<<<<<<<<<<<<::::----666666666666666666",
"666666666666666655--::::<<<<<<<<<<<<<<<<::::----6666665566666666",
"666666666666666655--::::<<<<<<<<<<<<<<<<::::----6666665566666666",
"666666666666666666--::<<<<<<<<<<<<<<<<<<<<::::--6666666622666666",
"666666666666666666--::<<<<<<<<<<<<<<<<<<<<::::--6666666622666666",
"666666666666554466::<<<<<<::<<<<<<<<<<<<<<<<::----66666666666666",
"666666666666554466::<<<<<<::<<<<<<<<<<<<<<<<::----66666666666666",
"6666666666666666--::<<<<----::<<<<<<<<<<<<<<::::--66666666666666",
"6666666666666666--::<<<<----::<<<<<<<<<<<<<<::::--66666666666666",
"6666666666665566--::<<----77--<<<<<<<<<<<<<<<<::--55556666556666",
"6666666666665566--::<<----77--<<<<<<<<<<<<<<<<::--55556666556666",
"5566666666666666--::<<&&&&&&77--<<<<<<<<<<<<<<::----666666554466",
"5566666666666666--::<<&&&&&&77--<<<<<<<<<<<<<<::----666666554466",
"5566666666666666--::<<&&;;&&&&77<<<<<<<<<<<<<<<<::--666666666666",
"5566666666666666--::<<&&;;&&&&77<<<<<<<<<<<<<<<<::--666666666666",
"6666666666666666--::<<&&88&&7777--<<<<<<<<<<<<<<::--666666666666",
"6666666666666666--::<<&&88&&7777--<<<<<<<<<<<<<<::--666666666666",
"6666664466666666--::<<77&&777777--<<<<<<<<<<::<<::--666666446644",
"6666664466666666--::<<77&&777777--<<<<<<<<<<::<<::--666666446644",
"6666666644556666--::--7777777777--<<<<--<<::::::::--666666666666",
"6666666644556666--::--7777777777--<<<<--<<::::::::--666666666666",
"6666666666666655--::--,,777777--<<<<----::::--::::--666644665455",
"6666666666666655--::--,,777777--<<<<----::::--::::--666644665455",
"666666666666555566--<<--,,77--<<<<<<--::::----::::--666666446666",
"666666666666555566--<<--,,77--<<<<<<--::::----::::--666665446666",
"666666666666666655--<<----XX--<<----::::----::::::--666666666666",
"666666666666666655--<<----XX--<<----::::----::::::--666666666666",
"666666666666666666--<<--XXXXXX----::::::----::::::--666666446666",
"666666666666666666--<<--XXXXXX----::::::----::::::--666666446666",
"666666666666666666--<<--XX##XXXX--::::------::::::--666655446666",
"666666666666666666--<<--XX##XXXX--::::------::::::--666655446666",
"666666666666666666--<<XX####XX$$--::----------::--55445566666666",
"666666666666666666--<<XX####XX$$--::----------::--55445566666666",
"66666655554466666666--XX##XX$$====----::--$$--::--66666666666666",
"66666655554466666666--XX##XX$$====----::--$$--::--66666666666666",
"6666666666666666666666%%XX$$========$$--$$$$$$--6666666666666666",
"6666666666666666666666%%XX$$========$$--$$$$$$--6666666666666666",
"6666666666666666554455%%>>$$==========$$====$$665566666666666666",
"6666666666666666554455%%>>$$==========$$====$$665566666666666666",
"6644446666666666666666%%>>$$================$$666666664466666666",
"6644446666666666666666%%>>$$================$$666666664466666666",
"4444334455555566666666%%>>>>$$================$$6644446666556666",
"4444334455555566666666%%>>>>$$================$$6644446666556666",
"226644555555665566666666%%>>$$$$==============$$6666666666446666",
"226644555555665566666666%%>>$$$$==============$$6666666666446666",
"556666666666666666666666%%>>>>$$==============$$$$66666666666666",
"556666666666666666666666%%>>>>$$==============$$$$66666666666666",
"665566666666666644446666%%>>>>$$$$==============$$66666666666655",
"665566666666666644446666%%>>>>$$$$==============$$66666666666655",
"446666666666666666666666++OO>>>>$$$$============$$66666666666655",
"446666666666666666666666++OO>>>>$$$$============$$66666666666655",
"446666665566556666666655++OOOOOO%%$$============$$66666666664555",
"446666665566556666666655++OOOOOO%%$$============$$66666666664565",
"5566444455444444666666++@@******&&$$==========$$$$66666666666666",
"5566444455444444666666++@@******&&$$==========$$$$66666666666666",
"5555665566556655555555@@@@******&&$$========$$$$$$44666666665566",
"5555665566556655555555@@@@******&&$$========$$$$$$44666666665566",
"66666666666666666666++@@******&&,,$$======$$$$$$5566666666666666",
"66666666666666666666++@@******&&,,$$======$$$$$$5566666666666666",
"666666666666666666++++@@******&&,,$$====$$$$++224466666666666666",
"666666666666666666++++@@******&&,,$$====$$$$++224466666666666666",
"666666666666666666++@@********&&&&$$==$$$$@@++666666666655446666",
"666666666666666666++@@********&&&&$$==$$$$@@++666666666655446666",
"6666666666666666++++@@************$$$$$$**@@++++6666666666666666",
"6666666666666666++++@@************$$$$$$**@@++++6666666666666666",
"6666666666666666++@@@@**************$$****@@@@++6666665566666666",
"6666666666666666++@@@@**************$$****@@@@++6666665566666666",
"6666666666666666++@@************************@@++6666666622666666",
"6666666666666666++@@************************@@++6666666622666666",
"66666666666655++++@@************************@@++++66666666666666",
"66666666666655++++@@************************@@++++66666666666666",
"66666666666666++@@****************************@@++66666666666666",
"66666666666666++@@****************************@@++66666666666666",
"666666666666++@@@@****************************@@@@++556666556666",
"666666666666++@@@@****************************@@@@++556666556666",
"556666666666++@@@@****************************@@@@++666666554466",
"556666666666++@@@@****************************@@@@++666666554466",
"556666666666++++@@****************************@@++++666666666666",
"556666666666++++@@****************************@@++++666666666666",
"66666666666666++++@@************************@@++++44666666666666",
"66666666666666++++@@************************@@++++44666666666666",
"6666664466666666++++@@********************@@++++4466666666446644",
"6666664466666666++++@@********************@@++++4466666666446644",
"666666664455666644++++++@@@@@@@@@@@@@@@@++++++666666666666666666",
"666666664455666644++++++@@@@@@@@@@@@@@@@++++++666666666666666666",
"66666666666666555566++++++++++++++++++++++++66556666666644665455",
"66666666666666555566++++++++++++++++++++++++66556666666644664455",
"66666666666655556666445566  oooo  oooo  666644665566666666446666",
"66666666666655556666445566  oooo  oooo  666644665566666666446666",
"666666666666666655554466  oooooo  oo..  446666666666666666666666",
"666666666666666655554466  oooooo  oo..  446666666666666666666666",
"6666666666666666666666  oooooo..      66665511326666666666336666",
"6666666666666666666666  oooooo..      66665511336666666666446666",
"6666666666666666666666..          666644334444666666666655446666",
"6666666666666666666666..          666644334444666666666655446666",
"6666666666666666666666666666666666664444666666556644445566666666",
"6666666666666666666666666666666666664444666666546644445566666666",
"6666665555446666666666666666666666666666666666666666666666666666",
"6666665555446666666666666666666666666666666666666666666666666666"
};
