/* XPM */
static char *_002[] = {
/* columns rows colors chars-per-pixel */
"64 128 33 1 ",
"  c #090806",
". c #1C0505",
"X c #0F1017",
"o c #200000",
"O c #22100F",
"+ c #221C16",
"@ c #3A1A18",
"# c #28241A",
"$ c #10182C",
"% c #191D30",
"& c #141F38",
"* c #392120",
"= c #402828",
"- c #692329",
"; c #594E3A",
": c #5C523A",
"> c #223462",
", c #4B4949",
"< c #87232A",
"1 c #AD7939",
"2 c #EF952C",
"3 c #E09D34",
"4 c #A9895B",
"5 c #BC9C65",
"6 c #EEB74B",
"7 c #ACADAF",
"8 c #AEAFB0",
"9 c #AFB0B1",
"0 c #B1B2B3",
"q c #B3B3B4",
"w c #B7B7B7",
"e c #FFDC8E",
"r c white",
/* pixels */
"wwwwwwwwwwwwwwwwwwwwwwwwwwwwwwwwwwwwwwwwwwwwwwwwwwwwwwwwwwwwwwww",
"wwwwwwwwwwwwwwwwwwwwwwwwwwwwwwwwwwwwwwwwwwwwwwwwwwwwwwwwwwwwwwww",
"wwwwwwwwwwwwwwwwqq00qqwwwwwwww0000wwwwwwwwww00wwqqwwwwwwwwwwwwww",
"wwwwwwwwwwwwwwwwqq00qqwwwwwwww0000wwwwwwwwww00wwqqwwwwwwwwwwwwww",
"ww0000wwwwXXXXXXXXXXXXXXXXXXXXXXXXXXXXXXXXXXXXXXXXXXXX00wwwwwwww",
"ww0000wwwwXXXXXXXXXXXXXXXXXXXXXXXXXXXXXXXXXXXXXXXXXXXX00wwwwwwww",
"00009900XX,,,,,,,,,,,,,,,,,,,,,,,,,,,,,,,,,,,,,,,,,,,,XXwwqqwwww",
"00009900XX,,,,,,,,,,,,,,,,,,,,,,,,,,,,,,,,,,,,,,,,,,,,XXwwqqwwww",
"88ww00XX,,,,,,,,,,,,,,,,,,,,,,,,,,,,,,,,,,,,,,,,,,,,,,,,XX00wwww",
"88ww00XX,,,,,,,,,,,,,,,,,,,,,,,,,,,,,,,,,,,,,,,,,,,,,,,,XX00wwww",
"qqwwXX,,,,,,,,,,,,,,,,,,,,,,,,,,,,,,,,,,,,,,,,,,,,,,,,,,,,XXwwww",
"qqwwXX,,,,,,,,,,,,,,,,,,,,,,,,,,,,,,,,,,,,,,,,,,,,,,,,,,,,XXwwww",
"wwqqXXXXXXXXXXXXXXXXXXXXXXXXXXXXXXXXXXXXXXXXXXXXXXXXXXXXXXXXwwqq",
"wwqqXXXXXXXXXXXXXXXXXXXXXXXXXXXXXXXXXXXXXXXXXXXXXXXXXXXXXXXXwwqq",
"00wwXX,,,,,,,,,,,,,,,,,,,,,,,,,,,,,,,,,,,,,,,,,,,,,,,,,,,,XXwwqq",
"00wwXX,,,,,,,,,,,,,,,,,,,,,,,,,,,,,,,,,,,,,,,,,,,,,,,,,,,,XXwwqq",
"00wwXX,,,,,,,,,,,,,,,,,,,,,,,,,,,,,,,,,,,,,,,,,,,,,,,,,,,,XXqqww",
"00wwXX,,,,,,,,,,,,,,,,,,,,,,,,,,,,,,,,,,,,,,,,,,,,,,,,,,,,XXqqww",
"qq............................................................ww",
"qq............................................................ww",
"qq............................................................ww",
"qq............................................................ww",
"wwwwXX,,,,....,,,,,,,,,,,,111111111111,,,,,,,,,,,,....,,,,XXwwww",
"wwwwXX,,,,....,,,,,,,,,,,,111111111111,,,,,,,,,,,,....,,,,XXwwww",
"wwwwXX,,,,....,,,,,,,,11111133333333111111,,,,,,,,....,,,,XXwwww",
"wwwwXX,,,,....,,,,,,,,11111133333333111111,,,,,,,,....,,,,XXwwww",
"wwwwXX,,,,,,..,,,,,,111133336666666633331111,,,,,,..,,,,,,XXwwww",
"wwwwXX,,,,,,..,,,,,,111133336666666633331111,,,,,,..,,,,,,XXwwww",
"wwwwXX,,,,,,,,,,XX11113333666666666666663311XXXX,,,,,,,,,,XXwwww",
"wwwwXX,,,,,,,,,,XX11113333666666666666663311XXXX,,,,,,,,,,XXwwww",
"wwwwXX,,,,,,,,XX111133336666666666666666663311XXXX,,,,,,,,XXwwww",
"wwwwXX,,,,,,,,XX111133336666666666666666663311XXXX,,,,,,,,XXwwww",
"wwwwXX,,,,,,XXXX113333666666666666666633663311,,XXXX,,,,,,XXwwww",
"wwwwXX,,,,,,XXXX113333666666666666666633663311,,XXXX,,,,,,XXwwww",
"wwwwXX,,,,XXXX11113366666666666666663333663311XX,,XXXX,,,,XXwwww",
"wwwwXX,,,,XXXX11113366666666666666663333663311XX,,XXXX,,,,XXwwww",
"wwwwXX,,,,XX,,11333366666666666666331111666611XX,,,,XX,,,,XXwwww",
"wwwwXX,,,,XX,,11333366666666666666331111666611XX,,,,XX,,,,XXwwww",
"wwwwXX,,,,XX,,1133666666666666663311ee1166661111XX,,XX,,,,XXwwww",
"wwwwXX,,,,XX,,1133666666666666663311ee1166661111XX,,XX,,,,XXwwww",
"qqwwXX,,,,XX1111336666666666663311ee::::::663311XXXXXX,,,,XX00ww",
"qqwwXX,,,,XX1111336666666666663311ee::::::663311XXXXXX,,,,XX00ww",
"qqwwXX,,,,XX11336666666666666611ee::::22::663311XX,,XX,,,,XXwwww",
"qqwwXX,,,,XX11336666666666666611ee::::22::663311XX,,XX,,,,XXwwww",
"wwwwXX,,,,XX11336666666666666611eeee::rr::663311XX,,XX,,,,XXwwww",
"wwwwXX,,,,XX11336666666666666611eeee::rr::663311XX,,XX,,,,XXwwww",
"wwwwXX,,,,XX11336633666666666611eeeeee::ee663311XXXXXX,,,,XXww00",
"wwwwXX,,,,XX11336633666666666611eeeeee::ee663311XXXXXX,,,,XXww00",
"wwwwXX,,,,XX11333333336666666611eeeeeeeeee6611%%XX,,XX,,,,XXwwww",
"wwwwXX,,,,XX11333333336666666611eeeeeeeeee6611%%XX,,XX,,,,XXwwww",
"wwwwXX,,,,XX1133331133336666666611eeeeee551111%%XX,,XX,,,,XXqqww",
"wwwwXX,,,,XX1133331133336666666611eeeeee551111%%XX,,XX,,,,XXqqww",
"wwwwXX,,,,XX1133331133333311666611eeee55113311ooXXXXXX,,,,XXwwww",
"wwwwXX,,,,XX1133331133333311666611eeee55113311ooXXXXXX,,,,XXwwww",
"wwwwXX,,,,XX113333331133331166666611++11113311==XX,,XX,,,,XXwwww",
"wwwwXX,,,,XX113333331133331166666611++11113311==XX,,XX,,,,XXwwww",
"wwwwXXXX,,XX113333331133331111666611++++333311==XX,,XX,,XXXXwwww",
"wwwwXXXX,,XX113333331133331111666611++++333311==XX,,XX,,XXXXwwww",
"wwwwwwXXXXXX113333331111331111116611**++3311oo==XXXXXXXXXX00wwww",
"wwwwwwXXXXXX113333331111331111116611**++3311oo==XXXXXXXXXX00wwww",
"wwwwwwwwXXXX1133331111111111--116611****++11XXXXXXXXXXXXwwwwwwww",
"wwwwwwwwXXXX1133331111111111--116611****++11XXXXXXXXXXXXwwwwwwww",
"wwwwwwqqqq0011113311----11------11--++**++wwwwwwwwwwwwwwwwwwwwww",
"wwwwwwqqqq0011113311----11------11--++**++wwwwwwwwwwwwwwwwwwwwww",
"wwwwwwwwwwwwww113311--------<<--------++;;wwwwwwwwwwwwwwwwwwwwww",
"wwwwwwwwwwwwww113311--------<<--------++;;wwwwwwwwwwwwwwwwwwwwww",
"wwwwwwwwwwwwww1111--<<<<--<<<<<<--<<--44;;ww00wwqqwwwwwwwwwwwwww",
"wwwwwwwwwwwwww1111--<<<<--<<<<<<--<<--44;;ww00wwqqwwwwwwwwwwwwww",
"ww0000wwwwwwww1111--<<<<<<<<<<<<<<<<--44;;wwwwwwwwwwww00wwwwwwww",
"ww0000wwwwwwww1111--<<<<<<<<<<<<<<<<--44;;wwwwwwwwwwww00wwwwwwww",
"00009900qqqqqqww--<<<<<<<<<<<<<<<<--4444;;wwwwwwww0000wwwwqqwwww",
"00009900qqqqqqww--<<<<<<<<<<<<<<<<--4444;;wwwwwwww0000wwwwqqwwww",
"88ww00qqqqqqwwqq--<<<<<<<<<<<<<<----44;;wwwwwwwwwwwwwwwwww00wwww",
"88ww00qqqqqqwwqq--<<<<<<<<<<<<<<----44;;wwwwwwwwwwwwwwwwww00wwww",
"qqwwwwwwwwwwww----<<<<<<<<<<<<<<--4444;;wwwwwwwwwwwwwwwwwwwwwwww",
"qqwwwwwwwwwwww----<<<<<<<<<<<<<<--4444;;wwwwwwwwwwwwwwwwwwwwwwww",
"wwqqwwwwwwwwww--<<<<<<<<<<<<<<----4444;;wwwwwwwwwwwwwwwwwwwwwwqq",
"wwqqwwwwwwwwww--<<<<<<<<<<<<<<----4444;;wwwwwwwwwwwwwwwwwwwwwwqq",
"00wwwwwwwwwwww--<<<<<<<<<<<<----4444;;$$wwwwwwwwwwwwwwwwwwwwwwqq",
"00wwwwwwwwwwww--<<<<<<<<<<<<----4444;;$$wwwwwwwwwwwwwwwwwwwwwwqq",
"00wwwwwwqqwwqq--<<<<<<<<<<<<--::######$$wwwwwwwwwwwwwwwwwwww0qqq",
"00wwwwwwqqwwqq--<<<<<<<<<<<<--::######$$wwwwwwwwwwwwwwwwwwww0qwq",
"qqww0000qq0000----<<<<<<<<<<--::>>>>>>&&$$wwwwwwwwwwwwwwwwwwwwww",
"qqww0000qq0000----<<<<<<<<<<--::>>>>>>&&$$wwwwwwwwwwwwwwwwwwwwww",
"qqqqwwqqwwqqww------<<<<<<<<--::>>>>>>&&$$wwwwwwww00wwwwwwwwqqww",
"qqqqwwqqwwqqww------<<<<<<<<--::>>>>>>&&$$wwwwwwww00wwwwwwwwqqww",
"wwwwwwwwwwwwwwww------<<<<<<--55::>>>>>>&&$$0000qqwwwwwwwwwwwwww",
"wwwwwwwwwwwwwwww------<<<<<<--55::>>>>>>&&$$0000qqwwwwwwwwwwwwww",
"wwwwwwwwwwwwwwwwww$$----<<<<--55::>>>>>>&&$$$$8890wwwwwwwwwwwwww",
"wwwwwwwwwwwwwwwwww$$----<<<<--55::>>>>>>&&$$$$8800wwwwwwwwwwwwww",
"wwwwwwwwwwwwwwwwww$$&&----<<--::::>>>>>>>>&&$$wwwwwwwwwwqq00wwww",
"wwwwwwwwwwwwwwwwww$$&&----<<--::::>>>>>>>>&&$$wwwwwwwwwwqq00wwww",
"wwwwwwwwwwwwwwww$$$$&&>>------>>>>>>>>>>>>&&$$$$wwwwwwwwwwwwwwww",
"wwwwwwwwwwwwwwww$$$$&&>>------>>>>>>>>>>>>&&$$$$wwwwwwwwwwwwwwww",
"wwwwwwwwwwwwwwww$$&&&&>>>>>>>>>>>>>>>>>>>>&&&&$$wwwwwwqqwwwwwwww",
"wwwwwwwwwwwwwwww$$&&&&>>>>>>>>>>>>>>>>>>>>&&&&$$wwwwwwqqwwwwwwww",
"wwwwwwwwwwwwwwww$$&&>>>>>>>>>>>>>>>>>>>>>>>>&&$$wwwwwwww88wwwwww",
"wwwwwwwwwwwwwwww$$&&>>>>>>>>>>>>>>>>>>>>>>>>&&$$wwwwwwww88wwwwww",
"wwwwwwwwwwwwqq$$$$&&>>>>>>>>>>>>>>>>>>>>>>>>&&$$$$wwwwwwwwwwwwww",
"wwwwwwwwwwwwqq$$$$&&>>>>>>>>>>>>>>>>>>>>>>>>&&$$$$wwwwwwwwwwwwww",
"wwwwwwwwwwwwww$$&&>>>>>>>>>>>>>>>>>>>>>>>>>>>>&&$$wwwwwwwwwwwwww",
"wwwwwwwwwwwwww$$&&>>>>>>>>>>>>>>>>>>>>>>>>>>>>&&$$wwwwwwwwwwwwww",
"wwwwwwwwwwww$$&&&&>>>>>>>>>>>>>>>>>>>>>>>>>>>>&&&&$$qqwwwwqqwwww",
"wwwwwwwwwwww$$&&&&>>>>>>>>>>>>>>>>>>>>>>>>>>>>&&&&$$qqwwwwqqwwww",
"qqwwwwwwwwww$$&&&&>>>>>>>>>>>>>>>>>>>>>>>>>>>>&&&&$$wwwwwwqq00ww",
"qqwwwwwwwwww$$&&&&>>>>>>>>>>>>>>>>>>>>>>>>>>>>&&&&$$wwwwwwqq00ww",
"qqwwwwwwwwww$$$$&&>>>>>>>>>>>>>>>>>>>>>>>>>>>>&&$$$$wwwwwwwwwwww",
"qqwwwwwwwwww$$$$&&>>>>>>>>>>>>>>>>>>>>>>>>>>>>&&$$$$wwwwwwwwwwww",
"wwwwwwwwwwwwww$$$$&&>>>>>>>>>>>>>>>>>>>>>>>>&&$$$$00wwwwwwwwwwww",
"wwwwwwwwwwwwww$$$$&&>>>>>>>>>>>>>>>>>>>>>>>>&&$$$$00wwwwwwwwwwww",
"wwwwww00wwwwwwww$$$$&&>>>>>>>>>>>>>>>>>>>>&&$$$$00wwwwwwww00ww00",
"wwwwww00wwwwwwww$$$$&&>>>>>>>>>>>>>>>>>>>>&&$$$$00wwwwwwww00ww00",
"wwwwwwww00qqwwww00$$$$$$&&&&&&&&&&&&&&&&$$$$$$wwwwwwwwwwwwwwwwww",
"wwwwwwww00qqwwww00$$$$$$&&&&&&&&&&&&&&&&$$$$$$wwwwwwwwwwwwwwwwww",
"wwwwwwwwwwwwwwqqqqww$$$$$$$$$$$$$$$$$$$$$$$$wwqqwwwwwwww00wwq0qq",
"wwwwwwwwwwwwwwqqqqww$$$$$$$$$$$$$$$$$$$$$$$$wwqqwwwwwwww00ww00qq",
"wwwwwwwwwwwwqqqqwwww00qq  @@@@  @@@@  wwwwww00wwqqwwwwwwww00wwww",
"wwwwwwwwwwwwqqqqwwww00qq  @@@@  @@@@  wwwwww00wwqqwwwwwwww00wwww",
"wwwwwwwwwwwwwwwwqqqq00ww  OO@@  @@@@@@  00wwwwwwwwwwwwwwwwwwwwww",
"wwwwwwwwwwwwwwwwqqqq00ww  OO@@  @@@@@@  00wwwwwwwwwwwwwwwwwwwwww",
"wwwwwwwwwwwwwwwwwwwwwwwwww      OO@@@@@@  qq7798wwwwwwwwww99wwww",
"wwwwwwwwwwwwwwwwwwwwwwwwww      OO@@@@@@  qq7799wwwwwwwwww00wwww",
"wwwwwwwwwwwwwwwwwwwwwwwwwwqqww          OO0000wwwwwwwwwwqq00wwww",
"wwwwwwwwwwwwwwwwwwwwwwwwwwqqww          OO0000wwwwwwwwwwqq00wwww",
"wwwwwwwwwwwwwwwwwwwwwwwwwwwwwwwwwwww0000wwwwwwqqww0000qqwwwwwwww",
"wwwwwwwwwwwwwwwwwwwwwwwwwwwwwwwwwwww0000wwwwwwq0ww0000qqwwwwwwww",
"wwwwwwqqqq00wwwwwwwwwwwwwwwwwwwwwwwwwwwwwwwwwwwwwwwwwwwwwwwwwwww",
"wwwwwwqqqq00wwwwwwwwwwwwwwwwwwwwwwwwwwwwwwwwwwwwwwwwwwwwwwwwwwww"
};
