/* XPM */
static char *_004[] = {
/* columns rows colors chars-per-pixel */
"64 128 35 1 ",
"  c #090806",
". c #22100F",
"X c #221C16",
"o c #231818",
"O c #3A1A18",
"+ c #28241A",
"@ c #10182C",
"# c #141F38",
"$ c #392120",
"% c #692329",
"& c #56443E",
"* c #594E3A",
"= c #5C523A",
"- c #223462",
"; c #4C4343",
": c #87232A",
"> c #AD7939",
", c #D57B47",
"< c #EF952C",
"1 c #E09D34",
"2 c #A9895B",
"3 c #BC9C65",
"4 c #F19B5E",
"5 c #EEB74B",
"6 c #F1BD61",
"7 c #FFC37F",
"8 c #ACADAF",
"9 c #AEAFB0",
"0 c #AFB0B1",
"q c #B1B2B3",
"w c #B3B3B4",
"e c #B7B7B7",
"r c #FFDC8E",
"t c #ECD2B2",
"y c white",
/* pixels */
"eeeeeeeeeeeeeeeeeeeeeeeeeeeeeeeeeeeeeeeeeeeeeeeeeeeeeeeeeeeeeeee",
"eeeeeeeeeeeeeeeeeeeeeeeeeeeeeeeeeeeeeeeeeeeeeeeeeeeeeeeeeeeeeeee",
"eeeetttteeeeeeeewwqqtttteeeeeeqqqqeeeeeeeettttttwweeeeeetttteeee",
"eeeetttteeeeeeeewwqqtttteeeeeeqqqqeeeeeeeettttttwweeeeeetttteeee",
"eeqqqqtttttteeeeeeeeeetttteeeeeeeeeeeeeeeetteeeeeeeeeetttteeeeee",
"eeqqqqtttttteeeeeeeeeetttteeeeeeeeeeeeeeeetteeeeeeeeeetttteeeeee",
"qqqq00qqwwtttteeeeeeeeeetttttteeeeeeeetttteeeeeeeeqqtttteewweeee",
"qqqq00qqwwtttteeeeeeeeeetttttteeeeeeeetttteeeeeeeeqqtttteewweeee",
"99eeqqwwwwwwttwweeeeeeeeeeeeeeeeeeeeeeeeeeeeeeeeeetttteeeeqqeeee",
"99eeqqwwwwwwttwweeeeeeeeeeeeeeeeeeeeeeeeeeeeeeeeeetttteeeeqqeeee",
"wweeeeeeeeeeeeeeeeeeeeooooooooooooooooooooeeeeeeeeeeeeeeeeeettee",
"wweeeeeeeeeeeeeeeeeeeeooooooooooooooooooooeeeeeeeeeeeeeeeeeettee",
"eetttteeeeeeeeeeoooooooooo;;;;;;;;;;;;ooooooooooeeeeeeeeeettttww",
"eetttteeeeeeeeeeoooooooooo;;;;;;;;;;;;ooooooooooeeeeeeeeeettttww",
"qqeetttteeeeeeoooooo;;;;;;oooooooooooo;;;;;;ooooooeeeeeetttteeww",
"qqeetttteeeeeeoooooo;;;;;;oooooooooooo;;;;;;ooooooeeeeeetttteeww",
"qqeeeetttteeoooo;;;;;;oooooo44444444oooooo;;;;;;ooooeeeetteewwee",
"qqeeeetttteeoooo;;;;;;oooooo44444444oooooo;;;;;;ooooeeeetteewwee",
"wweeqqqqttqqoo;;;;oooo44444444774444444444oooo;;;;ooeeeeeeeeeeee",
"wweeqqqqttqqoo;;;;oooo44444444774444444444oooo;;;;ooeeeeeeeeeeee",
"wwwweewweewwoo;;oooo444444444444444477444444oooo;;ooeeeeeeeewqee",
"wwwweewweewwoo;;oooo444444444444444477444444oooo;;ooeeeeeeeewwee",
"eeeeeeeeeeeeoooooo44447744>>>>>>>>>>>>44774444ooooooeeeeeeeeeeee",
"eeeeeeeeeeeeoooooo44447744>>>>>>>>>>>>44774444ooooooeeeeeeeeeeee",
"eeeeeeeeeeeeoooooooo44>>>>>>11111111>>>>>>44ooooooooeeeeeeeeeeee",
"eeeeeeeeeeeeoooooooo44>>>>>>11111111>>>>>>44ooooooooeeeeeeeeeeee",
"eeeeeeeeeeoooo;;;;oo>>>>1111555555551111>>>>oo;;;;ooooeewwqqeeee",
"eeeeeeeeeeoooo;;;;oo>>>>1111555555551111>>>>oo;;;;ooooeewwqqeeee",
"eeeeeeeeoooo;;;;;;>>>>11115555555555555511>>;;;;;;;;ooooeeeeeeee",
"eeeeeeeeoooo;;;;;;>>>>11115555555555555511>>;;;;;;;;ooooeeeeeeee",
"eeeeeeeeoo;;;;;;>>>>111155555555555555555511>>;;;;;;;;ooeeeeeeee",
"eeeeeeeeoo;;;;;;>>>>111155555555555555555511>>;;;;;;;;ooeeeeeeee",
"eeeeeeoooo;;;;;;>>11115555555555555555115511>>;;;;;;;;ooooeeeeee",
"eeeeeeoooo;;;;;;>>11115555555555555555115511>>;;;;;;;;ooooeeeeee",
"eeeeeeoo;;;;;;>>>>11555555555555555511115511>>;;;;;;;;;;oo66eeee",
"eeeeeeoo;;;;;;>>>>11555555555555555511115511>>;;;;;;;;;;oo66eeee",
"eeee66oo66;;;;>>11115555555555555511>>>>5555>>;;66;;;;66ooeeeeee",
"eeee66oo66;;;;>>11115555555555555511>>>>5555>>;;66;;;;66ooeeeeee",
"eeeeee666666;;>>115555555555555511>>rr>>5555>>>>66;;666666wweeee",
"eeeeee666666;;>>115555555555555511>>rr>>5555>>>>66;;666666wweeee",
"wweeeeoo6666>>>>1155555555555511>>rr======5511>>;;;;6666oowwqqee",
"wweeeeoo6666>>>>1155555555555511>>rr======5511>>;;;;6666oowwqqee",
"wweeeeoo,,66>>1155555555555555>>rr====<<==5511>>666666,,ooeeeeee",
"wweeeeoo,,66>>1155555555555555>>rr====<<==5511>>666666,,ooeeeeee",
"eeeeoooo,,,,>>1155555555555555>>rrrr==yy==5511>>6666,,,,ooooeeee",
"eeeeoooo,,,,>>1155555555555555>>rrrr==yy==5511>>6666,,,,ooooeeee",
"eeeeoooo&&,,>>1155115555555555>>rrrrrr==rr5511>>,,66,,&&ooooeeqq",
"eeeeoooo&&,,>>1155115555555555>>rrrrrr==rr5511>>,,66,,&&ooooeeqq",
"eeeeoo&&&&&&>>1111111155555555>>rrrrrrrrrr55>>66,,&&&&&&&&ooeeee",
"eeeeoo&&&&&&>>1111111155555555>>rrrrrrrrrr55>>66,,&&&&&&&&ooeeee",
"eeeeoo&&&&&&>>1111>>111155555555>>rrrrrr33>>>>oo,,&&&&&&&&oowwee",
"eeeeoo&&&&&&>>1111>>111155555555>>rrrrrr33>>>>oo,,&&&&&&&&oowwee",
"eeeeoooo&&&&>>1111>>111111>>5555>>rrrr33>>11>>&&oooo&&&&ooooeeee",
"eeeeoooo&&&&>>1111>>111111>>5555>>rrrr33>>11>>&&oooo&&&&ooooeeee",
"eeeeeeoooooo>>111111>>1111>>555555>>XX>>>>11>>&&ooooooooooeeeeee",
"eeeeeeoooooo>>111111>>1111>>555555>>XX>>>>11>>&&ooooooooooeeeeee",
"eeeeeeeeeeee>>111111>>1111>>>>5555>>XXXX1111>>ooooooeeeeeeqqeeee",
"eeeeeeeeeeee>>111111>>1111>>>>5555>>XXXX1111>>ooooooeeeeeeqqeeee",
"eeeeeeeeeeee>>111111>>>>11>>>>>>55>>$$XX11>>qqeeeeeeeeeewwqqeeee",
"eeeeeeeeeeee>>111111>>>>11>>>>>>55>>$$XX11>>qqeeeeeeeeeewwqqeeee",
"eeeeeeeeeeee>>1111>>>>>>>>>>%%>>55>>$$$$XX>>eewweewwqqwweeeeeeee",
"eeeeeeeeeeee>>1111>>>>>>>>>>%%>>55>>$$$$XX>>eewweewwqqwweeeeeeee",
"eeeeeewwwwqq>>>>11>>%%%%>>%%%%%%>>%%XX$$XXeeeeeeeeeeeeeeeeeeeeee",
"eeeeeewwwwqq>>>>11>>%%%%>>%%%%%%>>%%XX$$XXeeeeeeeeeeeeeeeeeeeeee",
"eeeeeeeeeeeeee>>11>>%%%%%%%%::%%%%%%%%XX**eeeeeeeeeeeeeeeeeeeeee",
"eeeeeeeeeeeeee>>11>>%%%%%%%%::%%%%%%%%XX**eeeeeeeeeeeeeeeeeeeeee",
"eeeeeeeeeeeeee>>>>%%::::%%::::::%%::%%22**eeqqeewweeeeeeeeeeeeee",
"eeeeeeeeeeeeee>>>>%%::::%%::::::%%::%%22**eeqqeewweeeeeeeeeeeeee",
"eeqqqqeeeeeeee>>>>%%::::::::::::::::%%22**eeeeeeeeeeeeqqeeeeeeee",
"eeqqqqeeeeeeee>>>>%%::::::::::::::::%%22**eeeeeeeeeeeeqqeeeeeeee",
"qqqq00qqwwwwwwee%%::::::::::::::::%%2222**eeeeeeeeqqqqeeeewweeee",
"qqqq00qqwwwwwwee%%::::::::::::::::%%2222**eeeeeeeeqqqqeeeewweeee",
"99eeqqwwwwwweeww%%::::::::::::::%%%%22**eeeeeeeeeeeeeeeeeeqqeeee",
"99eeqqwwwwwweeww%%::::::::::::::%%%%22**eeeeeeeeeeeeeeeeeeqqeeee",
"wweeeeeeeeeeee%%%%::::::::::::::%%2222**eeeeeeeeeeeeeeeeeeeeeeee",
"wweeeeeeeeeeee%%%%::::::::::::::%%2222**eeeeeeeeeeeeeeeeeeeeeeee",
"eewweeeeeeeeee%%::::::::::::::%%%%2222**eeeeeeeeeeeeeeeeeeeeeeww",
"eewweeeeeeeeee%%::::::::::::::%%%%2222**eeeeeeeeeeeeeeeeeeeeeeww",
"qqeeeeeeeeeeee%%::::::::::::%%%%2222**@@eeeeeeeeeeeeeeeeeeeeeeww",
"qqeeeeeeeeeeee%%::::::::::::%%%%2222**@@eeeeeeeeeeeeeeeeeeeeeeww",
"qqeeeeeewweeww%%::::::::::::%%==++++++@@eeeeeeeeeeeeeeeeeeeeqwww",
"qqeeeeeewweeww%%::::::::::::%%==++++++@@eeeeeeeeeeeeeeeeeeeeqwew",
"wweeqqqqwwqqqq%%%%::::::::::%%==------##@@eeeeeeeeeeeeeeeeeeeeee",
"wweeqqqqwwqqqq%%%%::::::::::%%==------##@@eeeeeeeeeeeeeeeeeeeeee",
"wwwweewweewwee%%%%%%::::::::%%==------##@@eeeeeeeeqqeeeeeeeewwee",
"wwwweewweewwee%%%%%%::::::::%%==------##@@eeeeeeeeqqeeeeeeeewwee",
"eeeeeeeeeeeeeeee%%%%%%::::::%%33==------##@@qqqqwweeeeeeeeeeeeee",
"eeeeeeeeeeeeeeee%%%%%%::::::%%33==------##@@qqqqwweeeeeeeeeeeeee",
"eeeeeeeeeeeeeeeeee@@%%%%::::%%33==------##@@@@990qeeeeeeeeeeeeee",
"eeeeeeeeeeeeeeeeee@@%%%%::::%%33==------##@@@@99qqeeeeeeeeeeeeee",
"eeeeeeeeeeeeeeeeee@@##%%%%::%%====--------##@@eeeeeeeeeewwqqeeee",
"eeeeeeeeeeeeeeeeee@@##%%%%::%%====--------##@@eeeeeeeeeewwqqeeee",
"eeeeeeeeeeeeeeee@@@@##--%%%%%%------------##@@@@eeeeeeeeeeeeeeee",
"eeeeeeeeeeeeeeee@@@@##--%%%%%%------------##@@@@eeeeeeeeeeeeeeee",
"eeeeeeeeeeeeeeee@@####--------------------####@@eeeeeewweeeeeeee",
"eeeeeeeeeeeeeeee@@####--------------------####@@eeeeeewweeeeeeee",
"eeeeeeeeeeeeeeee@@##------------------------##@@eeeeeeee99eeeeee",
"eeeeeeeeeeeeeeee@@##------------------------##@@eeeeeeee99eeeeee",
"eeeeeeeeeeeeww@@@@##------------------------##@@@@eeeeeeeeeeeeee",
"eeeeeeeeeeeeww@@@@##------------------------##@@@@eeeeeeeeeeeeee",
"eeeeeeeeeeeeee@@##----------------------------##@@eeeeeeeeeeeeee",
"eeeeeeeeeeeeee@@##----------------------------##@@eeeeeeeeeeeeee",
"eeeeeeeeeeee@@####----------------------------####@@wweeeewweeee",
"eeeeeeeeeeee@@####----------------------------####@@wweeeewweeee",
"wweeeeeeeeee@@####----------------------------####@@eeeeeewwqqee",
"wweeeeeeeeee@@####----------------------------####@@eeeeeewwqqee",
"wweeeeeeeeee@@@@##----------------------------##@@@@eeeeeeeeeeee",
"wweeeeeeeeee@@@@##----------------------------##@@@@eeeeeeeeeeee",
"eeeeeeeeeeeeee@@@@##------------------------##@@@@qqeeeeeeeeeeee",
"eeeeeeeeeeeeee@@@@##------------------------##@@@@qqeeeeeeeeeeee",
"eeeeeeqqeeeeeeee@@@@##--------------------##@@@@qqeeeeeeeeqqeeqq",
"eeeeeeqqeeeeeeee@@@@##--------------------##@@@@qqeeeeeeeeqqeeqq",
"eeeeeeeeqqwweeeeqq@@@@@@################@@@@@@eeeeeeeeeeeeeeeeee",
"eeeeeeeeqqwweeeeqq@@@@@@################@@@@@@eeeeeeeeeeeeeeeeee",
"eeeeeeeeeeeeeewwwwee@@@@@@@@@@@@@@@@@@@@@@@@eewweeeeeeeeqqeewqww",
"eeeeeeeeeeeeeewwwwee@@@@@@@@@@@@@@@@@@@@@@@@eewweeeeeeeeqqeeqqww",
"eeeeeeeeeeeewwwweeeeqqww  OOOO  OOOO  eeeeeeqqeewweeeeeeeeqqeeee",
"eeeeeeeeeeeewwwweeeeqqww  OOOO  OOOO  eeeeeeqqeewweeeeeeeeqqeeee",
"eeeeeeeeeeeeeeeewwwwqqee  ..OO  OOOOOO  qqeeeeeeeeeeeeeeeeeeeeee",
"eeeeeeeeeeeeeeeewwwwqqee  ..OO  OOOOOO  qqeeeeeeeeeeeeeeeeeeeeee",
"eeeeeeeeeeeeeeeeeeeeeeeeee      ..OOOOOO  ww8809eeeeeeeeee00eeee",
"eeeeeeeeeeeeeeeeeeeeeeeeee      ..OOOOOO  ww8800eeeeeeeeeeqqeeee",
"eeeeeeeeeeeeeeeeeeeeeeeeeewwee          ..qqqqeeeeeeeeeewwqqeeee",
"eeeeeeeeeeeeeeeeeeeeeeeeeewwee          ..qqqqeeeeeeeeeewwqqeeee",
"eeeeeeeeeeeeeeeeeeeeeeeeeeeeeeeeeeeeqqqqeeeeeewweeqqqqwweeeeeeee",
"eeeeeeeeeeeeeeeeeeeeeeeeeeeeeeeeeeeeqqqqeeeeeewqeeqqqqwweeeeeeee",
"eeeeeewwwwqqeeeeeeeeeeeeeeeeeeeeeeeeeeeeeeeeeeeeeeeeeeeeeeeeeeee",
"eeeeeewwwwqqeeeeeeeeeeeeeeeeeeeeeeeeeeeeeeeeeeeeeeeeeeeeeeeeeeee"
};
