/* XPM */
static char *_013[] = {
/* columns rows colors chars-per-pixel */
"64 128 31 1 ",
"  c #090806",
". c #22100F",
"X c #30190B",
"o c #221C16",
"O c #3A1A18",
"+ c #28241A",
"@ c #10182C",
"# c #141F38",
"$ c #392120",
"% c #4A3527",
"& c #692329",
"* c #594E3A",
"= c #5C523A",
"- c #223462",
"; c #87232A",
": c #A2501D",
"> c #AD7939",
", c #EF952C",
"< c #E09D34",
"1 c #A9895B",
"2 c #BC9C65",
"3 c #EEB74B",
"4 c #ACADAF",
"5 c #AEAFB0",
"6 c #AFB0B1",
"7 c #B1B2B3",
"8 c #B3B3B4",
"9 c #B7B7B7",
"0 c #FFDC8E",
"q c #EBC8B5",
"w c white",
/* pixels */
"9999999999999999999999999999999999999999999999999999999999999999",
"9999999999999999999999999999999999999999999999999999999999999999",
"9999999999999999887788999999997777999999999977998899999999999999",
"9999999999999999887788999999997777999999999977998899999999999999",
"9977779999999999999999999999999999999999999999999999997799999999",
"9977779999999999999999999999999999999999999999999999997799999999",
"7777667788888899999999999999999999999999999999999977779999889999",
"7777667788888899999999999999999999999999999999999977779999889999",
"5599778888889988999999999999999999999999999999999999999999779999",
"5599778888889988999999999999999999999999999999999999999999779999",
"8899999999999999999999999999999999999999999999999999999999999999",
"8899999999999999999999999999999999999999999999999999999999999999",
"9988999999999999777799999999999999999999999999999999999999999988",
"9988999999999999777799999999999999999999999999999999999999999988",
"7799999999999999999999999999999999999999999999999999999999999988",
"7799999999999999999999999999999999999999999999999999999999999988",
"7799999988998899999999889999999999999999999999999999999999998899",
"7799999988998899999999889999999999999999999999999999999999998899",
"8899777788777777999999999999999999999999999999999999999999999999",
"8899777788777777999999999999999999999999999999999999999999999999",
"8888997899889988888878998899999999999999889999999977999999998799",
"8888998899889988888777998899999999999999889999999977999999998899",
"99999999999999999999999999>>>>>>>>>>>>88667777778899999999999999",
"99999999999999999999999999>>>>>>>>>>>>88667777778899999999999999",
"9999999999999999999999>>>>>><<<<<<<<>>>>>>9988557799999999999999",
"9999999999999999999999>>>>>><<<<<<<<>>>>>>9988557799999999999999",
"99999999999999999999>>>><<<<<<333333<<<<>>>>99999999999988779999",
"99999999999999999999>>>><<<<<<333333<<<<>>>>99999999999988779999",
"99999999999999XXXX77>><<<<333333333333<<<<>>>>99999999XXXX999999",
"99999999999999XXXX77>><<<<333333333333<<<<>>>>99999999XXXX999999",
"99999999999999XXqq>><<<<3333333333333333<<<<>>>>999999XXqqXX9999",
"99999999999999XXqq>><<<<3333333333333333<<<<>>>>999999XXqqXX9999",
"99999999999999XXqq>><<33333333333333333333<<<<>>999999XXqqqqXX99",
"99999999999999XXqq>><<33333333333333333333<<<<>>999999XXqqqqXX99",
"999999999999XXXXXX<<333333<<3333333333333333<<>>>>99XXXXXXqqXX99",
"999999999999XXXXXX<<333333<<3333333333333333<<>>>>99XXXXXXqqXX99",
"999999999999XX::>><<3333>>>><<33333333333333<<<<>>XXXXXX%%XX9999",
"999999999999XX::>><<3333>>>><<33333333333333<<<<>>XXXXXX%%XX9999",
"9999999999XX%%XX>><<33>>>>00>>3333333333333333<<>>XXXX%%%%XX9999",
"9999999999XX%%XX>><<33>>>>00>>3333333333333333<<>>XXXX%%%%XX9999",
"88999999XXXX%%XX>><<33======00>>33333333333333<<>>>>XX%%::XX7799",
"88999999XXXX%%XX>><<33======00>>33333333333333<<>>>>XX%%::XX7799",
"88999999XX%%XXXX>><<33==,,====003333333333333333<<>>%%::::XX9999",
"88999999XX%%XXXX>><<33==,,====003333333333333333<<>>%%::::XX9999",
"999999XXXX::XX::>><<33==ww==0000>>33333333333333<<>>::::XX999999",
"999999XXXX::XX::>><<33==ww==0000>>33333333333333<<>>::::XX999999",
"999999XX::XX%%%%>><<3300==000000>>3333333333<<33<<>>::::XX779977",
"999999XX::XX%%%%>><<3300==000000>>3333333333<<33<<>>::::XX779977",
"9999XXXXXXXX%%%%>><<>>0000000000>>3333>>33<<<<<<<<>>%%::XX999999",
"9999XXXXXXXX%%%%>><<>>0000000000>>3333>>33<<<<<<<<>>%%::XX999999",
"9999XX::XXXX::::>><<>>22000000>>3333>>>><<<<>><<<<>>%%%%XX998888",
"9999XX::XXXX::::>><<>>22000000>>3333>>>><<<<>><<<<>>%%%%XX998898",
"9999XX::%%XXXX::::>>33>>2200>>333333>><<<<>>>><<<<>>%%XXXX779999",
"9999XX::%%XXXX::::>>33>>2200>>333333>><<<<>>>><<<<>>%%XXXX779999",
"9999XXXX::%%XX::::>>33>>>>oo>>33>>>><<<<>>>><<<<<<>>XXXX99999999",
"9999XXXX::%%XX::::>>33>>>>oo>>33>>>><<<<>>>><<<<<<>>XXXX99999999",
"999999XXXX::XXXX::>>33>>oooooo>>>><<<<<<>>>><<<<<<>>XX9999779999",
"999999XXXX::XXXX::>>33>>oooooo>>>><<<<<<>>>><<<<<<>>XX9999779999",
"99999999XXXXXXXXXX>>33>>oo$$oooo>><<<<>>>>>><<<<<<>>999988779999",
"99999999XXXXXXXXXX>>33>>oo$$oooo>><<<<>>>>>><<<<<<>>999988779999",
"999999999999999999>>33oo$$$$oo&&>><<>>>>>>>>>><<>>88778899999999",
"999999999999999999>>33oo$$$$oo&&>><<>>>>>>>>>><<>>88778899999999",
"99999988887799999999>>oo$$oo&&;;;;>>>><<>>&&>><<>>99999999999999",
"99999988887799999999>>oo$$oo&&;;;;>>>><<>>&&>><<>>99999999999999",
"9999999999999999999999**oo&&;;;;;;;;&&>>&&&&&&>>9999999999999999",
"9999999999999999999999**oo&&;;;;;;;;&&>>&&&&&&>>9999999999999999",
"9999999999999999887788**11&&;;;;;;;;;;&&;;;;&&998899999999999999",
"9999999999999999887788**11&&;;;;;;;;;;&&;;;;&&998899999999999999",
"9977779999999999999999**11&&;;;;;;;;;;;;;;;;&&999999997799999999",
"9977779999999999999999**11&&;;;;;;;;;;;;;;;;&&999999997799999999",
"7777667788888899999999**1111&&;;;;;;;;;;;;;;;;&&9977779999889999",
"7777667788888899999999**1111&&;;;;;;;;;;;;;;;;&&9977779999889999",
"559977888888998899999999**11&&&&;;;;;;;;;;;;;;&&9999999999779999",
"559977888888998899999999**11&&&&;;;;;;;;;;;;;;&&9999999999779999",
"889999999999999999999999**1111&&;;;;;;;;;;;;;;&&&&99999999999999",
"889999999999999999999999**1111&&;;;;;;;;;;;;;;&&&&99999999999999",
"998899999999999977779999**1111&&&&;;;;;;;;;;;;;;&&99999999999988",
"998899999999999977779999**1111&&&&;;;;;;;;;;;;;;&&99999999999988",
"779999999999999999999999@@++1111&&&&;;;;;;;;;;;;&&99999999999988",
"779999999999999999999999@@++1111&&&&;;;;;;;;;;;;&&99999999999988",
"779999998899889999999988@@++++++**&&;;;;;;;;;;;;&&99999999997888",
"779999998899889999999988@@++++++**&&;;;;;;;;;;;;&&99999999997898",
"8899777788777777999999@@##------==&&;;;;;;;;;;&&&&99999999999999",
"8899777788777777999999@@##------==&&;;;;;;;;;;&&&&99999999999999",
"8888998899889988888888####------==&&;;;;;;;;&&&&&&77999999998899",
"8888998899889988888888####------==&&;;;;;;;;&&&&&&77999999998899",
"99999999999999999999@@##------==22&&;;;;;;&&&&&&8899999999999999",
"99999999999999999999@@##------==22&&;;;;;;&&&&&&8899999999999999",
"999999999999999999@@@@##------==22&&;;;;&&&&@@557799999999999999",
"999999999999999999@@@@##------==22&&;;;;&&&&@@557799999999999999",
"999999999999999999@@##--------====&&;;&&&&##@@999999999988779999",
"999999999999999999@@##--------====&&;;&&&&##@@999999999988779999",
"9999999999999999@@@@##------------&&&&&&--##@@@@9999999999999999",
"9999999999999999@@@@##------------&&&&&&--##@@@@9999999999999999",
"9999999999999999@@####--------------&&----####@@9999998899999999",
"9999999999999999@@####--------------&&----####@@9999998899999999",
"9999999999999999@@##------------------------##@@9999999955999999",
"9999999999999999@@##------------------------##@@9999999955999999",
"99999999999988@@@@##------------------------##@@@@99999999999999",
"99999999999988@@@@##------------------------##@@@@99999999999999",
"99999999999999@@##----------------------------##@@99999999999999",
"99999999999999@@##----------------------------##@@99999999999999",
"999999999999@@####----------------------------####@@889999889999",
"999999999999@@####----------------------------####@@889999889999",
"889999999999@@####----------------------------####@@999999887799",
"889999999999@@####----------------------------####@@999999887799",
"889999999999@@@@##----------------------------##@@@@999999999999",
"889999999999@@@@##----------------------------##@@@@999999999999",
"99999999999999@@@@##------------------------##@@@@77999999999999",
"99999999999999@@@@##------------------------##@@@@77999999999999",
"9999997799999999@@@@##--------------------##@@@@7799999999779977",
"9999997799999999@@@@##--------------------##@@@@7799999999779977",
"999999997788999977@@@@@@################@@@@@@999999999999999999",
"999999997788999977@@@@@@################@@@@@@999999999999999999",
"99999999999999888899@@@@@@@@@@@@@@@@@@@@@@@@99889999999977998788",
"99999999999999888899@@@@@@@@@@@@@@@@@@@@@@@@99889999999977997788",
"99999999999988889999778899  OOOO  OOOO  999977998899999999779999",
"99999999999988889999778899  OOOO  OOOO  999977998899999999779999",
"999999999999999988887799  OOOOOO  OO..  779999999999999999999999",
"999999999999999988887799  OOOOOO  OO..  779999999999999999999999",
"9999999999999999999999  OOOOOO..      99998844659999999999669999",
"9999999999999999999999  OOOOOO..      99998844669999999999779999",
"9999999999999999999999..          999977667777999999999988779999",
"9999999999999999999999..          999977667777999999999988779999",
"9999999999999999999999999999999999997777999999889977778899999999",
"9999999999999999999999999999999999997777999999879977778899999999",
"9999998888779999999999999999999999999999999999999999999999999999",
"9999998888779999999999999999999999999999999999999999999999999999"
};
