/* XPM */
static char *_019[] = {
/* columns rows colors chars-per-pixel */
"64 128 38 1 ",
"  c #090806",
". c #22100F",
"X c #30190B",
"o c #221C16",
"O c #3A1A18",
"+ c #28241A",
"@ c #10182C",
"# c #141F38",
"$ c #302320",
"% c #392120",
"& c #4A2622",
"* c #4E2926",
"= c #4A3527",
"- c #692329",
"; c #752026",
": c #594E3A",
"> c #5C523A",
", c #223462",
"< c #87232A",
"1 c #A9292F",
"2 c #A2501D",
"3 c #AD7939",
"4 c #D28438",
"5 c #EF952C",
"6 c #E09D34",
"7 c #F0BF3F",
"8 c #A9895B",
"9 c #BC9C65",
"0 c #EEB74B",
"q c #ACADAF",
"w c #AEAFB0",
"e c #AFB0B1",
"r c #B1B2B3",
"t c #B3B3B4",
"y c #B7B7B7",
"u c #FFDC8E",
"i c #EBC8B5",
"p c white",
/* pixels */
"yyyyyyyyyyyyyyyyyyyyyyyyyyyyyyyyyyyyyyyyyyyyyyyyyyyyyyyyyyyyyyyy",
"yyyyyyyyyyyyyyyyyyyyyyyyyyyyyyyyyyyyyyyyyyyyyyyyyyyyyyyyyyyyyyyy",
"yyyyyyyyyyyyyyyyttrrttyyyyyyyyrrrryyyyyyyyyyrryyttyyyyyyyyyyyyyy",
"yyyyyyyyyyyyyyyyttrrttyyyyyyyyrrrryyyyyyyyyyrryyttyyyyyyyyyyyyyy",
"yyrrrryyyyyyyyyyyyyyyyyyyyyyyyyyyyyyyyyyyyyyyyyyyyyyyyrryyyyyyyy",
"yyrrrryyyyyyyyyyyyyyyyyyyyyyyyyyyyyyyyyyyyyyyyyyyyyyyyrryyyyyyyy",
"rrrreerrttttttyyyyyyyyyyyyyyyyyyyyyyyyyyyyyyyyyyyyrrrryyyyttyyyy",
"rrrreerrttttttyyyyyyyyyyyyyyyyyyyyyyyyyyyyyyyyyyyyrrrryyyyttyyyy",
"wwyyrrttttttyyttyyyyyyyyyyyyyyyyyyyyyyyyyyyyyyyyyyyyyyyyyyrryyyy",
"wwyyrrttttttyyttyyyyyyyyyyyyyyyyyyyyyyyyyyyyyyyyyyyyyyyyyyrryyyy",
"ttyyyyyyyyyyyyyyyyyyyyyyyyyyyyyyyyyyyyyyyyyyyyyyyyyyyyyyyyyyyyyy",
"ttyyyyyyyyyyyyyyyyyyyyyyyyyyyyyyyyyyyyyyyyyyyyyyyyyyyyyyyyyyyyyy",
"yyttyyyyyyyyyyyyrrrryyyyyyyyyyyyyyyyyyyyyyyyyyyyyyyyyyyyyyyyyytt",
"yyttyyyyyyyyyyyyrrrryyyyyyyyyyyyyyyyyyyyyyyyyyyyyyyyyyyyyyyyyytt",
"rryyyyyyyyyyyyyyyyyyyyyyyyyyyyyyyy$$$$$$yyyyyyyyyyyyyyyyyyyyyytt",
"rryyyyyyyyyyyyyyyyyyyyyyyyyyyyyyyy$$$$$$yyyyyyyyyyyyyyyyyyyyyytt",
"rryyyyyyttyyttyyyyyyyyttyyyyyyyy$$11;;11$$yyyyyyyyyyyyyyyyyyttyy",
"rryyyyyyttyyttyyyyyyyyttyyyyyyyy$$11;;11$$yyyyyyyyyyyyyyyyyyttyy",
"ttyyrrrrttrrrrrryyyyyyyyyyyyyy$$77;;11;;11$$yyyyyyyyyyyyyyyyyyyy",
"ttyyrrrrttrrrrrryyyyyyyyyyyyyy$$77;;11;;11$$yyyyyyyyyyyyyyyyyyyy",
"ttttyyrtyyttyyttttttrtyyttyy$$****4477;;;;11$$yyyyrryyyyyyyytryy",
"ttttyyttyyttyytttttrrryyttyy$$****4477;;;;11$$yyyyrryyyyyyyyttyy",
"yyyyyyyyyyyyyyyyyyyyyyyyyy3333333333334411;;11$$ttyyyyyyyyyyyyyy",
"yyyyyyyyyyyyyyyyyyyyyyyyyy3333333333334411;;11$$ttyyyyyyyyyyyyyy",
"yyyyyyyyyyyyyyyyyyyyyy3333336666666633333344;;11$$yyyyyyyyyyyyyy",
"yyyyyyyyyyyyyyyyyyyyyy3333336666666633333344;;11$$yyyyyyyyyyyyyy",
"yyyyyyyyyyyyyyyyyyyy33336666000000006666333377;;$$$$yyyyttrryyyy",
"yyyyyyyyyyyyyyyyyyyy33336666000000006666333377;;$$$$yyyyttrryyyy",
"yyyyyyyyyyyyyyXXXX3333666600000000000000663377$$&&$$yyXXXXyyyyyy",
"yyyyyyyyyyyyyyXXXX3333666600000000000000663377$$&&$$yyXXXXyyyyyy",
"yyyyyyyyyyyyyyXX333366660000000000000000006633&&&&$$yyXXiiXXyyyy",
"yyyyyyyyyyyyyyXX333366660000000000000000006633&&&&$$yyXXiiXXyyyy",
"yyyyyyyyyyyyyyXX336666000000000000000066006633&&$$yyyyXXiiiiXXyy",
"yyyyyyyyyyyyyyXX336666000000000000000066006633&&$$yyyyXXiiiiXXyy",
"yyyyyyyyyyyyXX33336600000000000000006666006633$$yyyyXXXXXXiiXXyy",
"yyyyyyyyyyyyXX33336600000000000000006666006633$$yyyyXXXXXXiiXXyy",
"yyyyyyyyyyyyXX33666600000000000000663333000033XXXXXXXXXX==XXyyyy",
"yyyyyyyyyyyyXX33666600000000000000663333000033XXXXXXXXXX==XXyyyy",
"yyyyyyyyyyXX==3366000000000000006633uu3300003333==XXXX====XXyyyy",
"yyyyyyyyyyXX==3366000000000000006633uu3300003333==XXXX====XXyyyy",
"ttyyyyyyXXXX3333660000000000006633uu>>>>>>00663322XXXX==22XXrryy",
"ttyyyyyyXXXX3333660000000000006633uu>>>>>>00663322XXXX==22XXrryy",
"ttyyyyyyXX==33660000000000000033uu>>>>55>>006633XXXX==2222XXyyyy",
"ttyyyyyyXX==33660000000000000033uu>>>>55>>006633XXXX==2222XXyyyy",
"yyyyyyXXXX2233660000000000000033uuuu>>pp>>006633XX==2222XXyyyyyy",
"yyyyyyXXXX2233660000000000000033uuuu>>pp>>006633XX==2222XXyyyyyy",
"yyyyyyXX22XX33660066000000000033uuuuuu>>uu00663322222222XXrryyrr",
"yyyyyyXX22XX33660066000000000033uuuuuu>>uu00663322222222XXrryyrr",
"yyyyXXXXXXXX33666666660000000033uuuuuuuuuu0033XX22====22XXyyyyyy",
"yyyyXXXXXXXX33666666660000000033uuuuuuuuuu0033XX22====22XXyyyyyy",
"yyyyXX22XXXX3366663366660000000033uuuuuu993333XXXXXX====XXyytttt",
"yyyyXX22XXXX3366663366660000000033uuuuuu993333XXXXXX====XXyyttyt",
"yyyyXX22==XX3366663366666633000033uuuu99336633====XX==XXXXrryyyy",
"yyyyXX22==XX3366663366666633000033uuuu99336633====XX==XXXXrryyyy",
"yyyyXXXX22==336666663366663300000033oo33336633====XXXXXXyyyyyyyy",
"yyyyXXXX22==336666663366663300000033oo33336633====XXXXXXyyyyyyyy",
"yyyyyyXXXX22336666663366663333000033oooo66663322XXXXXXyyyyrryyyy",
"yyyyyyXXXX22336666663366663333000033oooo66663322XXXXXXyyyyrryyyy",
"yyyyyyyyXXXX336666663333663333330033%%oo6633XXXXXXXXyyyyttrryyyy",
"yyyyyyyyXXXX336666663333663333330033%%oo6633XXXXXXXXyyyyttrryyyy",
"yyyyyyyyyyyy3366663333333333--330033%%%%oo33yyttyyttrrttyyyyyyyy",
"yyyyyyyyyyyy3366663333333333--330033%%%%oo33yyttyyttrrttyyyyyyyy",
"yyyyyyttttrr33336633----33------33--oo%%ooyyyyyyyyyyyyyyyyyyyyyy",
"yyyyyyttttrr33336633----33------33--oo%%ooyyyyyyyyyyyyyyyyyyyyyy",
"yyyyyyyyyyyyyy336633--------<<--------oo::yyyyyyyyyyyyyyyyyyyyyy",
"yyyyyyyyyyyyyy336633--------<<--------oo::yyyyyyyyyyyyyyyyyyyyyy",
"yyyyyyyyyyyyyy3333--<<<<--<<<<<<--<<--88::yyrryyttyyyyyyyyyyyyyy",
"yyyyyyyyyyyyyy3333--<<<<--<<<<<<--<<--88::yyrryyttyyyyyyyyyyyyyy",
"yyrrrryyyyyyyy3333--<<<<<<<<<<<<<<<<--88::yyyyyyyyyyyyrryyyyyyyy",
"yyrrrryyyyyyyy3333--<<<<<<<<<<<<<<<<--88::yyyyyyyyyyyyrryyyyyyyy",
"rrrreerrttttttyy--<<<<<<<<<<<<<<<<--8888::yyyyyyyyrrrryyyyttyyyy",
"rrrreerrttttttyy--<<<<<<<<<<<<<<<<--8888::yyyyyyyyrrrryyyyttyyyy",
"wwyyrrttttttyytt--<<<<<<<<<<<<<<----88::yyyyyyyyyyyyyyyyyyrryyyy",
"wwyyrrttttttyytt--<<<<<<<<<<<<<<----88::yyyyyyyyyyyyyyyyyyrryyyy",
"ttyyyyyyyyyyyy----<<<<<<<<<<<<<<--8888::yyyyyyyyyyyyyyyyyyyyyyyy",
"ttyyyyyyyyyyyy----<<<<<<<<<<<<<<--8888::yyyyyyyyyyyyyyyyyyyyyyyy",
"yyttyyyyyyyyyy--<<<<<<<<<<<<<<----8888::yyyyyyyyyyyyyyyyyyyyyytt",
"yyttyyyyyyyyyy--<<<<<<<<<<<<<<----8888::yyyyyyyyyyyyyyyyyyyyyytt",
"rryyyyyyyyyyyy--<<<<<<<<<<<<----8888::@@yyyyyyyyyyyyyyyyyyyyyytt",
"rryyyyyyyyyyyy--<<<<<<<<<<<<----8888::@@yyyyyyyyyyyyyyyyyyyyyytt",
"rryyyyyyttyytt--<<<<<<<<<<<<-->>++++++@@yyyyyyyyyyyyyyyyyyyyrttt",
"rryyyyyyttyytt--<<<<<<<<<<<<-->>++++++@@yyyyyyyyyyyyyyyyyyyyrtyt",
"ttyyrrrrttrrrr----<<<<<<<<<<-->>,,,,,,##@@yyyyyyyyyyyyyyyyyyyyyy",
"ttyyrrrrttrrrr----<<<<<<<<<<-->>,,,,,,##@@yyyyyyyyyyyyyyyyyyyyyy",
"ttttyyttyyttyy------<<<<<<<<-->>,,,,,,##@@yyyyyyyyrryyyyyyyyttyy",
"ttttyyttyyttyy------<<<<<<<<-->>,,,,,,##@@yyyyyyyyrryyyyyyyyttyy",
"yyyyyyyyyyyyyyyy------<<<<<<--99>>,,,,,,##@@rrrrttyyyyyyyyyyyyyy",
"yyyyyyyyyyyyyyyy------<<<<<<--99>>,,,,,,##@@rrrrttyyyyyyyyyyyyyy",
"yyyyyyyyyyyyyyyyyy@@----<<<<--99>>,,,,,,##@@@@wweryyyyyyyyyyyyyy",
"yyyyyyyyyyyyyyyyyy@@----<<<<--99>>,,,,,,##@@@@wwrryyyyyyyyyyyyyy",
"yyyyyyyyyyyyyyyyyy@@##----<<-->>>>,,,,,,,,##@@yyyyyyyyyyttrryyyy",
"yyyyyyyyyyyyyyyyyy@@##----<<-->>>>,,,,,,,,##@@yyyyyyyyyyttrryyyy",
"yyyyyyyyyyyyyyyy@@@@##,,------,,,,,,,,,,,,##@@@@yyyyyyyyyyyyyyyy",
"yyyyyyyyyyyyyyyy@@@@##,,------,,,,,,,,,,,,##@@@@yyyyyyyyyyyyyyyy",
"yyyyyyyyyyyyyyyy@@####,,,,,,,,,,,,,,,,,,,,####@@yyyyyyttyyyyyyyy",
"yyyyyyyyyyyyyyyy@@####,,,,,,,,,,,,,,,,,,,,####@@yyyyyyttyyyyyyyy",
"yyyyyyyyyyyyyyyy@@##,,,,,,,,,,,,,,,,,,,,,,,,##@@yyyyyyyywwyyyyyy",
"yyyyyyyyyyyyyyyy@@##,,,,,,,,,,,,,,,,,,,,,,,,##@@yyyyyyyywwyyyyyy",
"yyyyyyyyyyyytt@@@@##,,,,,,,,,,,,,,,,,,,,,,,,##@@@@yyyyyyyyyyyyyy",
"yyyyyyyyyyyytt@@@@##,,,,,,,,,,,,,,,,,,,,,,,,##@@@@yyyyyyyyyyyyyy",
"yyyyyyyyyyyyyy@@##,,,,,,,,,,,,,,,,,,,,,,,,,,,,##@@yyyyyyyyyyyyyy",
"yyyyyyyyyyyyyy@@##,,,,,,,,,,,,,,,,,,,,,,,,,,,,##@@yyyyyyyyyyyyyy",
"yyyyyyyyyyyy@@####,,,,,,,,,,,,,,,,,,,,,,,,,,,,####@@ttyyyyttyyyy",
"yyyyyyyyyyyy@@####,,,,,,,,,,,,,,,,,,,,,,,,,,,,####@@ttyyyyttyyyy",
"ttyyyyyyyyyy@@####,,,,,,,,,,,,,,,,,,,,,,,,,,,,####@@yyyyyyttrryy",
"ttyyyyyyyyyy@@####,,,,,,,,,,,,,,,,,,,,,,,,,,,,####@@yyyyyyttrryy",
"ttyyyyyyyyyy@@@@##,,,,,,,,,,,,,,,,,,,,,,,,,,,,##@@@@yyyyyyyyyyyy",
"ttyyyyyyyyyy@@@@##,,,,,,,,,,,,,,,,,,,,,,,,,,,,##@@@@yyyyyyyyyyyy",
"yyyyyyyyyyyyyy@@@@##,,,,,,,,,,,,,,,,,,,,,,,,##@@@@rryyyyyyyyyyyy",
"yyyyyyyyyyyyyy@@@@##,,,,,,,,,,,,,,,,,,,,,,,,##@@@@rryyyyyyyyyyyy",
"yyyyyyrryyyyyyyy@@@@##,,,,,,,,,,,,,,,,,,,,##@@@@rryyyyyyyyrryyrr",
"yyyyyyrryyyyyyyy@@@@##,,,,,,,,,,,,,,,,,,,,##@@@@rryyyyyyyyrryyrr",
"yyyyyyyyrrttyyyyrr@@@@@@################@@@@@@yyyyyyyyyyyyyyyyyy",
"yyyyyyyyrrttyyyyrr@@@@@@################@@@@@@yyyyyyyyyyyyyyyyyy",
"yyyyyyyyyyyyyyttttyy@@@@@@@@@@@@@@@@@@@@@@@@yyttyyyyyyyyrryytrtt",
"yyyyyyyyyyyyyyttttyy@@@@@@@@@@@@@@@@@@@@@@@@yyttyyyyyyyyrryyrrtt",
"yyyyyyyyyyyyttttyyyyrrtt  OOOO  OOOO  yyyyyyrryyttyyyyyyyyrryyyy",
"yyyyyyyyyyyyttttyyyyrrtt  OOOO  OOOO  yyyyyyrryyttyyyyyyyyrryyyy",
"yyyyyyyyyyyyyyyyttttrryy  ..OO  OOOOOO  rryyyyyyyyyyyyyyyyyyyyyy",
"yyyyyyyyyyyyyyyyttttrryy  ..OO  OOOOOO  rryyyyyyyyyyyyyyyyyyyyyy",
"yyyyyyyyyyyyyyyyyyyyyyyyyy      ..OOOOOO  ttqqewyyyyyyyyyyeeyyyy",
"yyyyyyyyyyyyyyyyyyyyyyyyyy      ..OOOOOO  ttqqeeyyyyyyyyyyrryyyy",
"yyyyyyyyyyyyyyyyyyyyyyyyyyttyy          ..rrrryyyyyyyyyyttrryyyy",
"yyyyyyyyyyyyyyyyyyyyyyyyyyttyy          ..rrrryyyyyyyyyyttrryyyy",
"yyyyyyyyyyyyyyyyyyyyyyyyyyyyyyyyyyyyrrrryyyyyyttyyrrrrttyyyyyyyy",
"yyyyyyyyyyyyyyyyyyyyyyyyyyyyyyyyyyyyrrrryyyyyytryyrrrrttyyyyyyyy",
"yyyyyyttttrryyyyyyyyyyyyyyyyyyyyyyyyyyyyyyyyyyyyyyyyyyyyyyyyyyyy",
"yyyyyyttttrryyyyyyyyyyyyyyyyyyyyyyyyyyyyyyyyyyyyyyyyyyyyyyyyyyyy"
};
