/* XPM */
static char *_001[] = {
/* columns rows colors chars-per-pixel */
"64 128 38 1 ",
"  c #090806",
". c #22100F",
"X c #30190B",
"o c #221C16",
"O c #3A1A18",
"+ c #28241A",
"@ c #10182C",
"# c #141F38",
"$ c #302320",
"% c #392120",
"& c #4A2622",
"* c #4E2926",
"= c #4A3527",
"- c #692329",
"; c #752026",
": c #594E3A",
"> c #5C523A",
", c #223462",
"< c #87232A",
"1 c #A9292F",
"2 c #A2501D",
"3 c #AD7939",
"4 c #D28438",
"5 c #EF952C",
"6 c #E09D34",
"7 c #F0BF3F",
"8 c #A9895B",
"9 c #BC9C65",
"0 c #EEB74B",
"q c #ACADAF",
"w c #AEAFB0",
"e c #AFB0B1",
"r c #B1B2B3",
"t c #B3B3B4",
"y c #B7B7B7",
"u c #FFDC8E",
"i c #EBC8B5",
"p c white",
/* pixels */
"yyyyyyyyyyyyyyyyyyyyyyyyyyyyyyyyyyyyyyyyyyyyyyyyyyyyyyyyyyyyyyyy",
"yyyyyyyyyyyyyyyyyyyyyyyyyyyyyyyyyyyyyyyyyyyyyyyyyyyyyyyyyyyyyyyy",
"yyyyyyyyyyyyyyyyttrrttyyyyyyyyrrrryyyyyyyyyyrryyttyyyyyyyyyyyyyy",
"yyyyyyyyyyyyyyyyttrrttyyyyyyyyrrrryyyyyyyyyyrryyttyyyyyyyyyyyyyy",
"yyrrrryyyyyyyyyyyyyyyyyyyyyyyyyyyyyyyyyyyyyyyyyyyyyyyyrryyyyyyyy",
"yyrrrryyyyyyyyyyyyyyyyyyyyyyyyyyyyyyyyyyyyyyyyyyyyyyyyrryyyyyyyy",
"rrrreerrttttttyyyyyyyyyyyyyyyyyyyyyyyyyyyyyyyyyyyyrrrryyyyttyyyy",
"rrrreerrttttttyyyyyyyyyyyyyyyyyyyyyyyyyyyyyyyyyyyyrrrryyyyttyyyy",
"wwyyrrttttttyyttyyyyyyyyyyyyyyyyyyyyyyyyyyyyyyyyyyyyyyyyyyrryyyy",
"wwyyrrttttttyyttyyyyyyyyyyyyyyyyyyyyyyyyyyyyyyyyyyyyyyyyyyrryyyy",
"ttyyyyyyyyyyyyyyyyyyyyyyyyyyyyyyyyyyyyyyyyyyyyyyyyyyyyyyyyyyyyyy",
"ttyyyyyyyyyyyyyyyyyyyyyyyyyyyyyyyyyyyyyyyyyyyyyyyyyyyyyyyyyyyyyy",
"yyttyyyyyyyyyyyyrrrryyyyyyyyyyyyyyyyyyyyyyyyyyyyyyyyyyyyyyyyyytt",
"yyttyyyyyyyyyyyyrrrryyyyyyyyyyyyyyyyyyyyyyyyyyyyyyyyyyyyyyyyyytt",
"rryyyyyyyyyyyyyyyyyyyyyyyyyyyyyyyy$$$$$$yyyyyyyyyyyyyyyyyyyyyytt",
"rryyyyyyyyyyyyyyyyyyyyyyyyyyyyyyyy$$$$$$yyyyyyyyyyyyyyyyyyyyyytt",
"rryyyyyyttyyttyyyyyyyyttyyyyyyyy$$11;;11$$yyyyyyyyyyyyyyyyyyttyy",
"rryyyyyyttyyttyyyyyyyyttyyyyyyyy$$11;;11$$yyyyyyyyyyyyyyyyyyttyy",
"ttyyrrrrttrrrrrryyyyyyyyyyyyyy$$77;;11;;11$$yyyyyyyyyyyyyyyyyyyy",
"ttyyrrrrttrrrrrryyyyyyyyyyyyyy$$77;;11;;11$$yyyyyyyyyyyyyyyyyyyy",
"ttttyyrtyyttyyttttttrtyyttyy$$****4477;;;;11$$yyyyrryyyyyyyytryy",
"ttttyyttyyttyytttttrrryyttyy$$****4477;;;;11$$yyyyrryyyyyyyyttyy",
"yyyyyyyyyyyyyyyyyyyyyyyyyy3333333333334411;;11$$ttyyyyyyyyyyyyyy",
"yyyyyyyyyyyyyyyyyyyyyyyyyy3333333333334411;;11$$ttyyyyyyyyyyyyyy",
"yyyyyyyyyyyyyyyyyyyyyy3333336666666633333344;;11$$yyyyyyyyyyyyyy",
"yyyyyyyyyyyyyyyyyyyyyy3333336666666633333344;;11$$yyyyyyyyyyyyyy",
"yyyyyyyyyyyyyyyyyyyy33336666660000006666333377;;$$$$yyyyttrryyyy",
"yyyyyyyyyyyyyyyyyyyy33336666660000006666333377;;$$$$yyyyttrryyyy",
"yyyyyyyyyyyyyyyyXXXX33666600000000000066663333$$&&$$yyyyyyyyyyyy",
"yyyyyyyyyyyyyyyyXXXX33666600000000000066663333$$&&$$yyyyyyyyyyyy",
"yyyyyyyyyyyyyyyyXX336666000000000000000066663333&&$$yyttyyyyyyyy",
"yyyyyyyyyyyyyyyyXX336666000000000000000066663333&&$$yyttyyyyyyyy",
"yyyyyyyyyyyyyyyyXX336600000000000000000000666633XXyyyyXXXXyyyyyy",
"yyyyyyyyyyyyyyyyXX336600000000000000000000666633XXyyyyXXXXyyyyyy",
"yyyyyyyyyyyyttXXXX66000000660000000000000000663333XXyyXXiiXXyyyy",
"yyyyyyyyyyyyttXXXX66000000660000000000000000663333XXyyXXiiXXyyyy",
"yyyyyyyyyyyyXX==3366000033336600000000000000666633==XXXXiiiiXXyy",
"yyyyyyyyyyyyXX==3366000033336600000000000000666633==XXXXiiiiXXyy",
"yyyyyyyyyyXX==223366003333uu3300000000000000006633==XXXXXXiiXXyy",
"yyyyyyyyyyXX==223366003333uu3300000000000000006633==XXXXXXiiXXyy",
"ttyyyyyyXX==22XX336600>>>>>>uu3300000000000000663333====XXXXrryy",
"ttyyyyyyXX==22XX336600>>>>>>uu3300000000000000663333====XXXXrryy",
"ttyyyyXX==22XX22336600>>55>>>>uu00000000000000006633==22XXyyyyyy",
"ttyyyyXX==22XX22336600>>55>>>>uu00000000000000006633==22XXyyyyyy",
"yyyyyyXX==22XX==336600>>pp>>uuuu330000000000000066332222XXyyyyyy",
"yyyyyyXX==22XX==336600>>pp>>uuuu330000000000000066332222XXyyyyyy",
"yyyyyyXX22XX====336600uu>>uuuuuu3300000000006600663322XXyyrryyrr",
"yyyyyyXX22XX====336600uu>>uuuuuu3300000000006600663322XXyyrryyrr",
"yyyyyyXX22XX====336633uuuuuuuuuu33000033006666666633XXXXyyyyyyyy",
"yyyyyyXX22XX====336633uuuuuuuuuu33000033006666666633XXXXyyyyyyyy",
"yyyyyyXXXXXX==2233663399uuuuuu3300003333666633666633XXyyrryytttt",
"yyyyyyXXXXXX==2233663399uuuuuu3300003333666633666633XXyyrryytrtt",
"yyyyyyXX22==XX222233003399uu330000003366663333666633XXyyyyrryyyy",
"yyyyyyXX22==XX222233003399uu330000003366663333666633XXyyytrryyyy",
"yyyyyyXXXX22==XX2233003333oo330033336666333366666633yyyyyyyyyyyy",
"yyyyyyXXXX22==XX2233003333oo330033336666333366666633yyyyyyyyyyyy",
"yyyyyyyyXXXX22==XX330033oooooo3333666666333366666633yyyyyyrryyyy",
"yyyyyyyyXXXX22==XX330033oooooo3333666666333366666633yyyyyyrryyyy",
"yyyyyyyyyyXXXXXXXX330033oo%%oooo33666633333366666633yyyyttrryyyy",
"yyyyyyyyyyXXXXXXXX330033oo%%oooo33666633333366666633yyyyttrryyyy",
"yyyyyyyyyyyyyyyyyy3300oo%%%%oo--336633333333336633ttrrttyyyyyyyy",
"yyyyyyyyyyyyyyyyyy3300oo%%%%oo--336633333333336633ttrrttyyyyyyyy",
"yyyyyyttttrryyyyyyyy33oo%%oo--<<<<33336633--336633yyyyyyyyyyyyyy",
"yyyyyyttttrryyyyyyyy33oo%%oo--<<<<33336633--336633yyyyyyyyyyyyyy",
"yyyyyyyyyyyyyyyyyyyyyy::oo--<<<<<<<<--33------33yyyyyyyyyyyyyyyy",
"yyyyyyyyyyyyyyyyyyyyyy::oo--<<<<<<<<--33------33yyyyyyyyyyyyyyyy",
"yyyyyyyyyyyyyyyyttrrtt::88--<<<<<<<<<<--<<<<--yyttyyyyyyyyyyyyyy",
"yyyyyyyyyyyyyyyyttrrtt::88--<<<<<<<<<<--<<<<--yyttyyyyyyyyyyyyyy",
"yyrrrryyyyyyyyyyyyyyyy::88--<<<<<<<<<<<<<<<<--yyyyyyyyrryyyyyyyy",
"yyrrrryyyyyyyyyyyyyyyy::88--<<<<<<<<<<<<<<<<--yyyyyyyyrryyyyyyyy",
"rrrreerrttttttyyyyyyyy::8888--<<<<<<<<<<<<<<<<--yyrrrryyyyttyyyy",
"rrrreerrttttttyyyyyyyy::8888--<<<<<<<<<<<<<<<<--yyrrrryyyyttyyyy",
"wwyyrrttttttyyttyyyyyyyy::88----<<<<<<<<<<<<<<--yyyyyyyyyyrryyyy",
"wwyyrrttttttyyttyyyyyyyy::88----<<<<<<<<<<<<<<--yyyyyyyyyyrryyyy",
"ttyyyyyyyyyyyyyyyyyyyyyy::8888--<<<<<<<<<<<<<<----yyyyyyyyyyyyyy",
"ttyyyyyyyyyyyyyyyyyyyyyy::8888--<<<<<<<<<<<<<<----yyyyyyyyyyyyyy",
"yyttyyyyyyyyyyyyrrrryyyy::8888----<<<<<<<<<<<<<<--yyyyyyyyyyyytt",
"yyttyyyyyyyyyyyyrrrryyyy::8888----<<<<<<<<<<<<<<--yyyyyyyyyyyytt",
"rryyyyyyyyyyyyyyyyyyyyyy@@++8888----<<<<<<<<<<<<--yyyyyyyyyyyytt",
"rryyyyyyyyyyyyyyyyyyyyyy@@++8888----<<<<<<<<<<<<--yyyyyyyyyyyytt",
"rryyyyyyttyyttyyyyyyyytt@@++++++::--<<<<<<<<<<<<--yyyyyyyyyyrttt",
"rryyyyyyttyyttyyyyyyyytt@@++++++::--<<<<<<<<<<<<--yyyyyyyyyyrtyt",
"ttyyrrrrttrrrrrryyyyyy@@##,,,,,,>>--<<<<<<<<<<----yyyyyyyyyyyyyy",
"ttyyrrrrttrrrrrryyyyyy@@##,,,,,,>>--<<<<<<<<<<----yyyyyyyyyyyyyy",
"ttttyyttyyttyytttttttt####,,,,,,>>--<<<<<<<<------rryyyyyyyyttyy",
"ttttyyttyyttyytttttttt####,,,,,,>>--<<<<<<<<------rryyyyyyyyttyy",
"yyyyyyyyyyyyyyyyyyyy@@##,,,,,,>>99--<<<<<<------ttyyyyyyyyyyyyyy",
"yyyyyyyyyyyyyyyyyyyy@@##,,,,,,>>99--<<<<<<------ttyyyyyyyyyyyyyy",
"yyyyyyyyyyyyyyyyyy@@@@##,,,,,,>>99--<<<<----@@wwrryyyyyyyyyyyyyy",
"yyyyyyyyyyyyyyyyyy@@@@##,,,,,,>>99--<<<<----@@wwrryyyyyyyyyyyyyy",
"yyyyyyyyyyyyyyyyyy@@##,,,,,,,,>>>>--<<----##@@yyyyyyyyyyttrryyyy",
"yyyyyyyyyyyyyyyyyy@@##,,,,,,,,>>>>--<<----##@@yyyyyyyyyyttrryyyy",
"yyyyyyyyyyyyyyyy@@@@##,,,,,,,,,,,,------,,##@@@@yyyyyyyyyyyyyyyy",
"yyyyyyyyyyyyyyyy@@@@##,,,,,,,,,,,,------,,##@@@@yyyyyyyyyyyyyyyy",
"yyyyyyyyyyyyyyyy@@####,,,,,,,,,,,,,,--,,,,####@@yyyyyyttyyyyyyyy",
"yyyyyyyyyyyyyyyy@@####,,,,,,,,,,,,,,--,,,,####@@yyyyyyttyyyyyyyy",
"yyyyyyyyyyyyyyyy@@##,,,,,,,,,,,,,,,,,,,,,,,,##@@yyyyyyyywwyyyyyy",
"yyyyyyyyyyyyyyyy@@##,,,,,,,,,,,,,,,,,,,,,,,,##@@yyyyyyyywwyyyyyy",
"yyyyyyyyyyyytt@@@@##,,,,,,,,,,,,,,,,,,,,,,,,##@@@@yyyyyyyyyyyyyy",
"yyyyyyyyyyyytt@@@@##,,,,,,,,,,,,,,,,,,,,,,,,##@@@@yyyyyyyyyyyyyy",
"yyyyyyyyyyyyyy@@##,,,,,,,,,,,,,,,,,,,,,,,,,,,,##@@yyyyyyyyyyyyyy",
"yyyyyyyyyyyyyy@@##,,,,,,,,,,,,,,,,,,,,,,,,,,,,##@@yyyyyyyyyyyyyy",
"yyyyyyyyyyyy@@####,,,,,,,,,,,,,,,,,,,,,,,,,,,,####@@ttyyyyttyyyy",
"yyyyyyyyyyyy@@####,,,,,,,,,,,,,,,,,,,,,,,,,,,,####@@ttyyyyttyyyy",
"ttyyyyyyyyyy@@####,,,,,,,,,,,,,,,,,,,,,,,,,,,,####@@yyyyyyttrryy",
"ttyyyyyyyyyy@@####,,,,,,,,,,,,,,,,,,,,,,,,,,,,####@@yyyyyyttrryy",
"ttyyyyyyyyyy@@@@##,,,,,,,,,,,,,,,,,,,,,,,,,,,,##@@@@yyyyyyyyyyyy",
"ttyyyyyyyyyy@@@@##,,,,,,,,,,,,,,,,,,,,,,,,,,,,##@@@@yyyyyyyyyyyy",
"yyyyyyyyyyyyyy@@@@##,,,,,,,,,,,,,,,,,,,,,,,,##@@@@rryyyyyyyyyyyy",
"yyyyyyyyyyyyyy@@@@##,,,,,,,,,,,,,,,,,,,,,,,,##@@@@rryyyyyyyyyyyy",
"yyyyyyrryyyyyyyy@@@@##,,,,,,,,,,,,,,,,,,,,##@@@@rryyyyyyyyrryyrr",
"yyyyyyrryyyyyyyy@@@@##,,,,,,,,,,,,,,,,,,,,##@@@@rryyyyyyyyrryyrr",
"yyyyyyyyrrttyyyyrr@@@@@@################@@@@@@yyyyyyyyyyyyyyyyyy",
"yyyyyyyyrrttyyyyrr@@@@@@################@@@@@@yyyyyyyyyyyyyyyyyy",
"yyyyyyyyyyyyyyttttyy@@@@@@@@@@@@@@@@@@@@@@@@yyttyyyyyyyyrryytrtt",
"yyyyyyyyyyyyyyttttyy@@@@@@@@@@@@@@@@@@@@@@@@yyttyyyyyyyyrryyrrtt",
"yyyyyyyyyyyyttttyyyyrrttyy  OOOO  OOOO  yyyyrryyttyyyyyyyyrryyyy",
"yyyyyyyyyyyyttttyyyyrrttyy  OOOO  OOOO  yyyyrryyttyyyyyyyyrryyyy",
"yyyyyyyyyyyyyyyyttttrryy  OOOOOO  OO..  rryyyyyyyyyyyyyyyyyyyyyy",
"yyyyyyyyyyyyyyyyttttrryy  OOOOOO  OO..  rryyyyyyyyyyyyyyyyyyyyyy",
"yyyyyyyyyyyyyyyyyyyyyy  OOOOOO..      yyyyttqqewyyyyyyyyyyeeyyyy",
"yyyyyyyyyyyyyyyyyyyyyy  OOOOOO..      yyyyttqqeeyyyyyyyyyyrryyyy",
"yyyyyyyyyyyyyyyyyyyyyy..          yyyyrreerrrryyyyyyyyyyttrryyyy",
"yyyyyyyyyyyyyyyyyyyyyy..          yyyyrreerrrryyyyyyyyyyttrryyyy",
"yyyyyyyyyyyyyyyyyyyyyyyyyyyyyyyyyyyyrrrryyyyyyttyyrrrrttyyyyyyyy",
"yyyyyyyyyyyyyyyyyyyyyyyyyyyyyyyyyyyyrrrryyyyyytryyrrrrttyyyyyyyy",
"yyyyyyttttrryyyyyyyyyyyyyyyyyyyyyyyyyyyyyyyyyyyyyyyyyyyyyyyyyyyy",
"yyyyyyttttrryyyyyyyyyyyyyyyyyyyyyyyyyyyyyyyyyyyyyyyyyyyyyyyyyyyy"
};
