/* XPM */
static char *_012[] = {
/* columns rows colors chars-per-pixel */
"64 128 35 1 ",
"  c #090806",
". c #22100F",
"X c #221C16",
"o c #231818",
"O c #3A1A18",
"+ c #28241A",
"@ c #10182C",
"# c #141F38",
"$ c #392120",
"% c #692329",
"& c #56443E",
"* c #594E3A",
"= c #5C523A",
"- c #223462",
"; c #4C4343",
": c #87232A",
"> c #AD7939",
", c #D57B47",
"< c #EF952C",
"1 c #E09D34",
"2 c #A9895B",
"3 c #BC9C65",
"4 c #F19B5E",
"5 c #EEB74B",
"6 c #F1BD61",
"7 c #FFC37F",
"8 c #ACADAF",
"9 c #AEAFB0",
"0 c #AFB0B1",
"q c #B1B2B3",
"w c #B3B3B4",
"e c #B7B7B7",
"r c #FFDC8E",
"t c #ECD2B2",
"y c white",
/* pixels */
"eeeeeeeeeeeeeeeeeeeeeeeeeeeeeeeeeeeeeeeeeeeeeeeeeeeeeeeeeeeeeeee",
"eeeeeeeeeeeeeeeeeeeeeeeeeeeeeeeeeeeeeeeeeeeeeeeeeeeeeeeeeeeeeeee",
"eeeetttteeeeeeeewwqqtttteeeeeeqqqqeeeeeeeettttttwweeeeeetttteeee",
"eeeetttteeeeeeeewwqqtttteeeeeeqqqqeeeeeeeettttttwweeeeeetttteeee",
"eeqqqqtttttteeeeeeeeeetttteeeeeeeeeeeeeeeetteeeeeeeeeetttteeeeee",
"eeqqqqtttttteeeeeeeeeetttteeeeeeeeeeeeeeeetteeeeeeeeeetttteeeeee",
"qqqq00qqwwtttteeeeeeeeeetttttteeeeeeeetttteeeeeeeeqqtttteewweeee",
"qqqq00qqwwtttteeeeeeeeeetttttteeeeeeeetttteeeeeeeeqqtttteewweeee",
"99eeqqwwwwwwttwweeeeeeeeeeeeeeeeeeeeeeeeeeeeeeeeeetttteeeeqqeeee",
"99eeqqwwwwwwttwweeeeeeeeeeeeeeeeeeeeeeeeeeeeeeeeeetttteeeeqqeeee",
"wweeeeeeeeeeeeeeeeeeeeooooooooooooooooooooeeeeeeeeeeeeeeeeeettee",
"wweeeeeeeeeeeeeeeeeeeeooooooooooooooooooooeeeeeeeeeeeeeeeeeettee",
"eetttteeeeeeeeeeoooooooooo;;;;;;;;;;;;ooooooooooeeeeeeeeeettttww",
"eetttteeeeeeeeeeoooooooooo;;;;;;;;;;;;ooooooooooeeeeeeeeeettttww",
"qqeetttteeeeeeoooooo;;;;;;oooooooooooo;;;;;;ooooooeeeeeetttteeww",
"qqeetttteeeeeeoooooo;;;;;;oooooooooooo;;;;;;ooooooeeeeeetttteeww",
"qqeeeetttteeoooo;;;;;;oooooo44444444oooooo;;;;;;ooooeeeetteewwee",
"qqeeeetttteeoooo;;;;;;oooooo44444444oooooo;;;;;;ooooeeeetteewwee",
"wweeqqqqttqqoo;;;;oooo44444444774444444444oooo;;;;ooeeeeeeeeeeee",
"wweeqqqqttqqoo;;;;oooo44444444774444444444oooo;;;;ooeeeeeeeeeeee",
"wwwweewweewwoo;;oooo444444444444444477444444oooo;;ooeeeeeeeewqee",
"wwwweewweewwoo;;oooo444444444444444477444444oooo;;ooeeeeeeeewwee",
"eeeeeeeeeeeeoooooo44447744>>>>>>>>>>>>44774444ooooooeeeeeeeeeeee",
"eeeeeeeeeeeeoooooo44447744>>>>>>>>>>>>44774444ooooooeeeeeeeeeeee",
"eeeeeeeeeeeeoooooooo44>>>>>>11111111>>>>>>44ooooooooeeeeeeeeeeee",
"eeeeeeeeeeeeoooooooo44>>>>>>11111111>>>>>>44ooooooooeeeeeeeeeeee",
"eeeeeeeeeeoooo;;;;oo>>>>1111115555551111>>>>oo;;;;ooooeewwqqeeee",
"eeeeeeeeeeoooo;;;;oo>>>>1111115555551111>>>>oo;;;;ooooeewwqqeeee",
"eeeeeeeeoooo;;;;;;;;>>11115555555555551111>>>>;;;;;;ooooeeeeeeee",
"eeeeeeeeoooo;;;;;;;;>>11115555555555551111>>>>;;;;;;ooooeeeeeeee",
"eeeeeeeeoo;;;;;;;;>>111155555555555555551111>>>>;;;;;;ooeeeeeeee",
"eeeeeeeeoo;;;;;;;;>>111155555555555555551111>>>>;;;;;;ooeeeeeeee",
"eeeeeeoooo;;;;;;;;>>11555555555555555555551111>>;;;;;;ooooeeeeee",
"eeeeeeoooo;;;;;;;;>>11555555555555555555551111>>;;;;;;ooooeeeeee",
"eeeeeeoo;;;;;;;;;;1155555511555555555555555511>>>>;;;;;;oo66eeee",
"eeeeeeoo;;;;;;;;;;1155555511555555555555555511>>>>;;;;;;oo66eeee",
"eeee66oo66;;;;;;>>115555>>>>11555555555555551111>>;;;;66ooeeeeee",
"eeee66oo66;;;;;;>>115555>>>>11555555555555551111>>;;;;66ooeeeeee",
"eeeeee666666;;;;>>1155>>>>rr>>555555555555555511>>;;666666wweeee",
"eeeeee666666;;;;>>1155>>>>rr>>555555555555555511>>;;666666wweeee",
"wweeeeoo666666;;>>1155======rr>>5555555555555511>>>>6666oowwqqee",
"wweeeeoo666666;;>>1155======rr>>5555555555555511>>>>6666oowwqqee",
"wweeeeoo,,6666;;>>1155==<<====rr555555555555555511>>66,,ooeeeeee",
"wweeeeoo,,6666;;>>1155==<<====rr555555555555555511>>66,,ooeeeeee",
"eeeeoooo,,,,6666>>1155==yy==rrrr>>5555555555555511>>,,,,ooooeeee",
"eeeeoooo,,,,6666>>1155==yy==rrrr>>5555555555555511>>,,,,ooooeeee",
"eeeeoooo&&,,,,66>>1155rr==rrrrrr>>5555555555115511>>,,&&ooooeeqq",
"eeeeoooo&&,,,,66>>1155rr==rrrrrr>>5555555555115511>>,,&&ooooeeqq",
"eeeeoo&&&&&&&&&&>>11>>rrrrrrrrrr>>5555>>5511111111>>&&&&&&ooeeee",
"eeeeoo&&&&&&&&&&>>11>>rrrrrrrrrr>>5555>>5511111111>>&&&&&&ooeeee",
"eeeeoo&&&&&&&&oo>>11>>33rrrrrr>>5555>>>>1111>>1111>>&&&&&&oowwee",
"eeeeoo&&&&&&&&oo>>11>>33rrrrrr>>5555>>>>1111>>1111>>&&&&&&oowwee",
"eeeeoooo&&&&oooo&&>>55>>33rr>>555555>>1111>>>>1111>>&&&&ooooeeee",
"eeeeoooo&&&&oooo&&>>55>>33rr>>555555>>1111>>>>1111>>&&&&ooooeeee",
"eeeeeeoooooooooo&&>>55>>>>XX>>55>>>>1111>>>>111111>>ooooooeeeeee",
"eeeeeeoooooooooo&&>>55>>>>XX>>55>>>>1111>>>>111111>>ooooooeeeeee",
"eeeeeeeeeeeeoooooo>>55>>XXXXXX>>>>111111>>>>111111>>eeeeeeqqeeee",
"eeeeeeeeeeeeoooooo>>55>>XXXXXX>>>>111111>>>>111111>>eeeeeeqqeeee",
"eeeeeeeeeeeeeeeeee>>55>>XX$$XXXX>>1111>>>>>>111111>>eeeewwqqeeee",
"eeeeeeeeeeeeeeeeee>>55>>XX$$XXXX>>1111>>>>>>111111>>eeeewwqqeeee",
"eeeeeeeeeeeeeeeeee>>55XX$$$$XX%%>>11>>>>>>>>>>11>>wwqqwweeeeeeee",
"eeeeeeeeeeeeeeeeee>>55XX$$$$XX%%>>11>>>>>>>>>>11>>wwqqwweeeeeeee",
"eeeeeewwwwqqeeeeeeee>>XX$$XX%%::::>>>>11>>%%>>11>>eeeeeeeeeeeeee",
"eeeeeewwwwqqeeeeeeee>>XX$$XX%%::::>>>>11>>%%>>11>>eeeeeeeeeeeeee",
"eeeeeeeeeeeeeeeeeeeeee**XX%%::::::::%%>>%%%%%%>>eeeeeeeeeeeeeeee",
"eeeeeeeeeeeeeeeeeeeeee**XX%%::::::::%%>>%%%%%%>>eeeeeeeeeeeeeeee",
"eeeeeeeeeeeeeeeewwqqww**22%%::::::::::%%::::%%eewweeeeeeeeeeeeee",
"eeeeeeeeeeeeeeeewwqqww**22%%::::::::::%%::::%%eewweeeeeeeeeeeeee",
"eeqqqqeeeeeeeeeeeeeeee**22%%::::::::::::::::%%eeeeeeeeqqeeeeeeee",
"eeqqqqeeeeeeeeeeeeeeee**22%%::::::::::::::::%%eeeeeeeeqqeeeeeeee",
"qqqq00qqwwwwwweeeeeeee**2222%%::::::::::::::::%%eeqqqqeeeewweeee",
"qqqq00qqwwwwwweeeeeeee**2222%%::::::::::::::::%%eeqqqqeeeewweeee",
"99eeqqwwwwwweewweeeeeeee**22%%%%::::::::::::::%%eeeeeeeeeeqqeeee",
"99eeqqwwwwwweewweeeeeeee**22%%%%::::::::::::::%%eeeeeeeeeeqqeeee",
"wweeeeeeeeeeeeeeeeeeeeee**2222%%::::::::::::::%%%%eeeeeeeeeeeeee",
"wweeeeeeeeeeeeeeeeeeeeee**2222%%::::::::::::::%%%%eeeeeeeeeeeeee",
"eewweeeeeeeeeeeeqqqqeeee**2222%%%%::::::::::::::%%eeeeeeeeeeeeww",
"eewweeeeeeeeeeeeqqqqeeee**2222%%%%::::::::::::::%%eeeeeeeeeeeeww",
"qqeeeeeeeeeeeeeeeeeeeeee@@++2222%%%%::::::::::::%%eeeeeeeeeeeeww",
"qqeeeeeeeeeeeeeeeeeeeeee@@++2222%%%%::::::::::::%%eeeeeeeeeeeeww",
"qqeeeeeewweewweeeeeeeeww@@++++++**%%::::::::::::%%eeeeeeeeeeqwww",
"qqeeeeeewweewweeeeeeeeww@@++++++**%%::::::::::::%%eeeeeeeeeeqwew",
"wweeqqqqwwqqqqqqeeeeee@@##------==%%::::::::::%%%%eeeeeeeeeeeeee",
"wweeqqqqwwqqqqqqeeeeee@@##------==%%::::::::::%%%%eeeeeeeeeeeeee",
"wwwweewweewweewwwwwwww####------==%%::::::::%%%%%%qqeeeeeeeewwee",
"wwwweewweewweewwwwwwww####------==%%::::::::%%%%%%qqeeeeeeeewwee",
"eeeeeeeeeeeeeeeeeeee@@##------==33%%::::::%%%%%%wweeeeeeeeeeeeee",
"eeeeeeeeeeeeeeeeeeee@@##------==33%%::::::%%%%%%wweeeeeeeeeeeeee",
"eeeeeeeeeeeeeeeeee@@@@##------==33%%::::%%%%@@99qqeeeeeeeeeeeeee",
"eeeeeeeeeeeeeeeeee@@@@##------==33%%::::%%%%@@99qqeeeeeeeeeeeeee",
"eeeeeeeeeeeeeeeeee@@##--------====%%::%%%%##@@eeeeeeeeeewwqqeeee",
"eeeeeeeeeeeeeeeeee@@##--------====%%::%%%%##@@eeeeeeeeeewwqqeeee",
"eeeeeeeeeeeeeeee@@@@##------------%%%%%%--##@@@@eeeeeeeeeeeeeeee",
"eeeeeeeeeeeeeeee@@@@##------------%%%%%%--##@@@@eeeeeeeeeeeeeeee",
"eeeeeeeeeeeeeeee@@####--------------%%----####@@eeeeeewweeeeeeee",
"eeeeeeeeeeeeeeee@@####--------------%%----####@@eeeeeewweeeeeeee",
"eeeeeeeeeeeeeeee@@##------------------------##@@eeeeeeee99eeeeee",
"eeeeeeeeeeeeeeee@@##------------------------##@@eeeeeeee99eeeeee",
"eeeeeeeeeeeeww@@@@##------------------------##@@@@eeeeeeeeeeeeee",
"eeeeeeeeeeeeww@@@@##------------------------##@@@@eeeeeeeeeeeeee",
"eeeeeeeeeeeeee@@##----------------------------##@@eeeeeeeeeeeeee",
"eeeeeeeeeeeeee@@##----------------------------##@@eeeeeeeeeeeeee",
"eeeeeeeeeeee@@####----------------------------####@@wweeeewweeee",
"eeeeeeeeeeee@@####----------------------------####@@wweeeewweeee",
"wweeeeeeeeee@@####----------------------------####@@eeeeeewwqqee",
"wweeeeeeeeee@@####----------------------------####@@eeeeeewwqqee",
"wweeeeeeeeee@@@@##----------------------------##@@@@eeeeeeeeeeee",
"wweeeeeeeeee@@@@##----------------------------##@@@@eeeeeeeeeeee",
"eeeeeeeeeeeeee@@@@##------------------------##@@@@qqeeeeeeeeeeee",
"eeeeeeeeeeeeee@@@@##------------------------##@@@@qqeeeeeeeeeeee",
"eeeeeeqqeeeeeeee@@@@##--------------------##@@@@qqeeeeeeeeqqeeqq",
"eeeeeeqqeeeeeeee@@@@##--------------------##@@@@qqeeeeeeeeqqeeqq",
"eeeeeeeeqqwweeeeqq@@@@@@################@@@@@@eeeeeeeeeeeeeeeeee",
"eeeeeeeeqqwweeeeqq@@@@@@################@@@@@@eeeeeeeeeeeeeeeeee",
"eeeeeeeeeeeeeewwwwee@@@@@@@@@@@@@@@@@@@@@@@@eewweeeeeeeeqqeewqww",
"eeeeeeeeeeeeeewwwwee@@@@@@@@@@@@@@@@@@@@@@@@eewweeeeeeeeqqeeqqww",
"eeeeeeeeeeeewwwweeeeqqwwee  OOOO  OOOO  eeeeqqeewweeeeeeeeqqeeee",
"eeeeeeeeeeeewwwweeeeqqwwee  OOOO  OOOO  eeeeqqeewweeeeeeeeqqeeee",
"eeeeeeeeeeeeeeeewwwwqqee  OOOOOO  OO..  qqeeeeeeeeeeeeeeeeeeeeee",
"eeeeeeeeeeeeeeeewwwwqqee  OOOOOO  OO..  qqeeeeeeeeeeeeeeeeeeeeee",
"eeeeeeeeeeeeeeeeeeeeee  OOOOOO..      eeeeww8809eeeeeeeeee00eeee",
"eeeeeeeeeeeeeeeeeeeeee  OOOOOO..      eeeeww8800eeeeeeeeeeqqeeee",
"eeeeeeeeeeeeeeeeeeeeee..          eeeeqq00qqqqeeeeeeeeeewwqqeeee",
"eeeeeeeeeeeeeeeeeeeeee..          eeeeqq00qqqqeeeeeeeeeewwqqeeee",
"eeeeeeeeeeeeeeeeeeeeeeeeeeeeeeeeeeeeqqqqeeeeeewweeqqqqwweeeeeeee",
"eeeeeeeeeeeeeeeeeeeeeeeeeeeeeeeeeeeeqqqqeeeeeewqeeqqqqwweeeeeeee",
"eeeeeewwwwqqeeeeeeeeeeeeeeeeeeeeeeeeeeeeeeeeeeeeeeeeeeeeeeeeeeee",
"eeeeeewwwwqqeeeeeeeeeeeeeeeeeeeeeeeeeeeeeeeeeeeeeeeeeeeeeeeeeeee"
};
