/* XPM */
static char *_016[] = {
/* columns rows colors chars-per-pixel */
"64 128 19 1 ",
"  c #090806",
". c #22100F",
"X c #3A1A18",
"o c #10182C",
"O c #141F38",
"+ c #692329",
"@ c #223462",
"# c #87232A",
"$ c #9A2D35",
"% c #AD7939",
"& c #B63A44",
"* c #E09D34",
"= c #EEB74B",
"- c #F0BF5D",
"; c #AEAFB0",
": c #AFB0B1",
"> c #B1B2B3",
", c #B3B3B4",
"< c #B7B7B7",
/* pixels */
"<<<<<<<<<<<<<<<<<<<<<<<<<<<<<<<<<<<<<<<<<<<<<<<<<<<<<<<<<<<<<<<<",
"<<<<<<<<<<<<<<<<<<<<<<<<<<<<<<<<<<<<<<<<<<<<<<<<<<<<<<<<<<<<<<<<",
"<<<<<<<<<<<<<<<<,,>>,,<<<<<<<<>>>><<<<<<<<<<>><<,,<<<<<<<<<<<<<<",
"<<<<<<<<<<<<<<<<,,>>,,<<<<<<<<>>>><<<<<<<<<<>><<,,<<<<<<<<<<<<<<",
"<<>>>><<<<<<<<<<<<<<<<<<<<<<<<<<<<<<<<<<<<<<<<<<<<<<<<>><<<<<<<<",
"<<>>>><<<<<<<<<<<<<<<<<<<<<<<<<<<<<<<<<<<<<<<<<<<<<<<<>><<<<<<<<",
">>>>::>>,,,,,,<<<<<<<<<<<<<<<<<<<<<<<<<<<<<<<<<<<<>>>><<<<,,<<<<",
">>>>::>>,,,,,,<<<<<<<<<<<<<<<<<<<<<<<<<<<<<<<<<<<<>>>><<<<,,<<<<",
";;<<>>,,,,,,<<,,<<<<<<<<<<<<<<<<<<<<<<<<<<<<<<<<<<<<<<<<<<>><<<<",
";;<<>>,,,,,,<<,,<<<<<<<<<<<<<<<<<<<<<<<<<<<<<<<<<<<<<<<<<<>><<<<",
",,<<<<<<<<<<<<<<<<<<<<<<<<<<<<<<<<<<<<<<<<<<<<<<<<<<<<<<<<<<<<<<",
",,<<<<<<<<<<<<<<<<<<<<<<<<<<<<<<<<<<<<<<<<<<<<<<<<<<<<<<<<<<<<<<",
"<<,,<<<<<<<<<<<<>>>><<<<<<<<<<<<<<<<<<<<<<<<<<<<<<<<<<<<<<<<<<,,",
"<<,,<<<<<<<<<<<<>>>><<<<<<<<<<<<<<<<<<<<<<<<<<<<<<<<<<<<<<<<<<,,",
">><<<<<<<<<<<<<<<<<<<<<<<<<<<<<<<<<<<<<<<<<<<<<<<<<<<<<<<<<<<<,,",
">><<<<<<<<<<<<<<<<<<<<<<<<<<<<<<<<<<<<<<<<<<<<<<<<<<<<<<<<<<<<,,",
">><<<<<<,,<<,,<<<<<<<<,,<<<<<<<<<<<<<<<<<<<<<<<<<<<<<<<<<<<<,,<<",
">><<<<<<,,<<,,<<<<<<<<,,<<<<<<<<<<<<<<<<<<<<<<<<<<<<<<<<<<<<,,<<",
",,<<>>>>,,>>>>>><<<<<<<<<<<<&&&&$$&&<<<<<<<<<<<<<<<<<<<<<<<<<<<<",
",,<<>>>>,,>>>>>><<<<<<<<<<<<&&&&$$&&<<<<<<<<<<<<<<<<<<<<<<<<<<<<",
",,,,<<>,<<,,<<,,,,,,>,<<&&&&$$&&&&$$$$&&,,<<<<<<<<>><<<<<<<<,><<",
",,,,<<,,<<,,<<,,,,,>>><<&&&&$$&&&&$$$$&&,,<<<<<<<<>><<<<<<<<,,<<",
"<<<<<<<<<<<<<<<<<<<<<<<<--%%%%%%%%%%%%$$&&>>>>>>,,<<<<<<<<<<<<<<",
"<<<<<<<<<<<<<<<<<<<<<<<<--%%%%%%%%%%%%$$&&>>>>>>,,<<<<<<<<<<<<<<",
"<<<<<<<<<<<<<<<<<<<<<<%%%%%%********%%%%%%<<,,;;>><<<<<<<<<<<<<<",
"<<<<<<<<<<<<<<<<<<<<<<%%%%%%********%%%%%%<<,,;;>><<<<<<<<<<<<<<",
"<<<<<<<<<<<<<<<<<<<<%%%%****==========**%%%%<<<<<<<<<<<<,,>><<<<",
"<<<<<<<<<<<<<<<<<<<<%%%%****==========**%%%%<<<<<<<<<<<<,,>><<<<",
"<<<<<<<<<<<<<<<<,,%%%%****==============**%%%%<<<<<<<<<<<<<<<<<<",
"<<<<<<<<<<<<<<<<,,%%%%****==============**%%%%<<<<<<<<<<<<<<<<<<",
"<<<<<<<<<<<<<<<<%%%%****==================**%%%%<<<<<<,,<<<<<<<<",
"<<<<<<<<<<<<<<<<%%%%****==================**%%%%<<<<<<,,<<<<<<<<",
"<<<<<<<<<<<<<<<<%%****======================**%%<<<<<<<<;;<<<<<<",
"<<<<<<<<<<<<<<<<%%****======================**%%<<<<<<<<;;<<<<<<",
"<<<<<<<<<<<<,,%%%%**========================**%%%%<<<<<<<<<<<<<<",
"<<<<<<<<<<<<,,%%%%**========================**%%%%<<<<<<<<<<<<<<",
"<<<<<<<<<<<<<<%%**============================**%%<<<<<<<<<<<<<<",
"<<<<<<<<<<<<<<%%**============================**%%<<<<<<<<<<<<<<",
"<<<<<<<<<<<<,,%%**============================**%%,,,,<<<<,,<<<<",
"<<<<<<<<<<<<,,%%**============================**%%,,,,<<<<,,<<<<",
",,<<<<<<<<<<%%**================================**%%<<<<<<,,>><<",
",,<<<<<<<<<<%%**================================**%%<<<<<<,,>><<",
",,<<<<<<<<<<%%**================================**%%<<<<<<<<<<<<",
",,<<<<<<<<<<%%**================================**%%<<<<<<<<<<<<",
"<<<<<<<<<<<<%%**================================**%%<<<<<<<<<<<<",
"<<<<<<<<<<<<%%**================================**%%<<<<<<<<<<<<",
"<<<<<<>><<<<%%**================================**%%<<<<<<>><<>>",
"<<<<<<>><<<<%%**================================**%%<<<<<<>><<>>",
"<<<<<<<<>>,,%%**================================**%%<<<<<<<<<<<<",
"<<<<<<<<>>,,%%**================================**%%<<<<<<<<<<<<",
"<<<<<<<<<<<<%%**================================**%%<<<<>><<,>,,",
"<<<<<<<<<<<<%%**================================**%%<<<<>><<,>,,",
"<<<<<<<<<<<<%%**================================**%%<<<<<<>><<<<",
"<<<<<<<<<<<<%%**================================**%%<<<<<,>><<<<",
"<<<<<<<<<<<<%%**============**==================**%%<<<<<<<<<<<<",
"<<<<<<<<<<<<%%**============**==================**%%<<<<<<<<<<<<",
"<<<<<<<<<<%%%%====****======**========**%%======**%%<<<<<<>><<<<",
"<<<<<<<<<<%%%%====****======**========**%%======**%%<<<<<<>><<<<",
"<<<<<<<<<<%%**====**%%==****%%**======**%%====**%%%%%%<<,,>><<<<",
"<<<<<<<<<<%%**====**%%==****%%**======**%%====**%%%%%%<<,,>><<<<",
"<<<<<<<<<<%%**==%%**%%**%%**%%**====**%%**====**%%**%%,,<<<<<<<<",
"<<<<<<<<<<%%**==%%**%%**%%**%%**====**%%**====**%%**%%,,<<<<<<<<",
"<<<<<<,,,,%%**%%%%**%%**%%****%%**==**%%**====**%%**%%<<<<<<<<<<",
"<<<<<<,,,,%%**%%%%**%%**%%****%%**==**%%**====**%%**%%<<<<<<<<<<",
"<<<<<<<<<<<<%%%%%%%%****%%****%%****%%%%****==**%%**%%<<<<<<<<<<",
"<<<<<<<<<<<<%%%%%%%%****%%****%%****%%%%****==**%%**%%<<<<<<<<<<",
"<<<<<<<<<<<<<<%%##%%****%%%%****%%**%%##%%**==**%%**%%<<<<<<<<<<",
"<<<<<<<<<<<<<<%%##%%****%%%%****%%**%%##%%**==**%%**%%<<<<<<<<<<",
"<<>>>><<<<<<<<%%##%%**%%##%%**%%##%%######%%**%%%%%%%%>><<<<<<<<",
"<<>>>><<<<<<<<%%##%%**%%##%%**%%##%%######%%**%%%%%%%%>><<<<<<<<",
">>>>::>>,,,,++######%%######%%##############%%####++>><<<<,,<<<<",
">>>>::>>,,,,++######%%######%%##############%%####++>><<<<,,<<<<",
";;<<>>,,,,,,++####################################++<<<<<<>><<<<",
";;<<>>,,,,,,++####################################++<<<<<<>><<<<",
",,<<<<<<<<<<++####################################++<<<<<<<<<<<<",
",,<<<<<<<<<<++####################################++<<<<<<<<<<<<",
"<<,,<<<<<<<<++####################################++<<<<<<<<<<,,",
"<<,,<<<<<<<<++####################################++<<<<<<<<<<,,",
">><<<<<<<<++########################################++<<<<<<<<,,",
">><<<<<<<<++########################################++<<<<<<<<,,",
">><<<<<<,,++########################################++<<<<<<>,,,",
">><<<<<<,,++########################################++<<<<<<>,<,",
",,<<>>>>,,++########################################++<<<<<<<<<<",
",,<<>>>>,,++########################################++<<<<<<<<<<",
",,,,<<,,++############################################++<<<<,,<<",
",,,,<<,,++############################################++<<<<,,<<",
"<<<<<<<<++##############++++++++++++++++##############++<<<<<<<<",
"<<<<<<<<++##############++++++++++++++++##############++<<<<<<<<",
"<<<<<<<<++########++++++++@@@@@@@@@@@@++++++++########++<<<<<<<<",
"<<<<<<<<++########++++++++@@@@@@@@@@@@++++++++########++<<<<<<<<",
"<<<<<<<<++####++++++++@@@@@@@@@@@@@@@@@@@@++++++++####++,,>><<<<",
"<<<<<<<<++####++++++++@@@@@@@@@@@@@@@@@@@@++++++++####++,,>><<<<",
"<<<<<<<<++##++++ooooOO@@@@@@@@@@@@@@@@@@@@OOoooo++++##++<<<<<<<<",
"<<<<<<<<++##++++ooooOO@@@@@@@@@@@@@@@@@@@@OOoooo++++##++<<<<<<<<",
"<<<<<<<<++++++<<ooOOOO@@@@@@@@@@@@@@@@@@@@OOOOoo<<++++++<<<<<<<<",
"<<<<<<<<++++++<<ooOOOO@@@@@@@@@@@@@@@@@@@@OOOOoo<<++++++<<<<<<<<",
"<<<<<<<<<<<<<<<<ooOO@@@@@@@@@@@@@@@@@@@@@@@@OOoo<<<<<<<<;;<<<<<<",
"<<<<<<<<<<<<<<<<ooOO@@@@@@@@@@@@@@@@@@@@@@@@OOoo<<<<<<<<;;<<<<<<",
"<<<<<<<<<<<<,,ooooOO@@@@@@@@@@@@@@@@@@@@@@@@OOoooo<<<<<<<<<<<<<<",
"<<<<<<<<<<<<,,ooooOO@@@@@@@@@@@@@@@@@@@@@@@@OOoooo<<<<<<<<<<<<<<",
"<<<<<<<<<<<<<<ooOO@@@@@@@@@@@@@@@@@@@@@@@@@@@@OOoo<<<<<<<<<<<<<<",
"<<<<<<<<<<<<<<ooOO@@@@@@@@@@@@@@@@@@@@@@@@@@@@OOoo<<<<<<<<<<<<<<",
"<<<<<<<<<<<<ooOOOO@@@@@@@@@@@@@@@@@@@@@@@@@@@@OOOOoo,,<<<<,,<<<<",
"<<<<<<<<<<<<ooOOOO@@@@@@@@@@@@@@@@@@@@@@@@@@@@OOOOoo,,<<<<,,<<<<",
",,<<<<<<<<<<ooOOOO@@@@@@@@@@@@@@@@@@@@@@@@@@@@OOOOoo<<<<<<,,>><<",
",,<<<<<<<<<<ooOOOO@@@@@@@@@@@@@@@@@@@@@@@@@@@@OOOOoo<<<<<<,,>><<",
",,<<<<<<<<<<ooooOO@@@@@@@@@@@@@@@@@@@@@@@@@@@@OOoooo<<<<<<<<<<<<",
",,<<<<<<<<<<ooooOO@@@@@@@@@@@@@@@@@@@@@@@@@@@@OOoooo<<<<<<<<<<<<",
"<<<<<<<<<<<<<<ooooOO@@@@@@@@@@@@@@@@@@@@@@@@OOoooo>><<<<<<<<<<<<",
"<<<<<<<<<<<<<<ooooOO@@@@@@@@@@@@@@@@@@@@@@@@OOoooo>><<<<<<<<<<<<",
"<<<<<<>><<<<<<<<ooooOO@@@@@@@@@@@@@@@@@@@@OOoooo>><<<<<<<<>><<>>",
"<<<<<<>><<<<<<<<ooooOO@@@@@@@@@@@@@@@@@@@@OOoooo>><<<<<<<<>><<>>",
"<<<<<<<<>>,,<<<<>>ooooOOOOOOOOOOOOOOOOOOOOoooo<<<<<<<<<<<<<<<<<<",
"<<<<<<<<>>,,<<<<>>ooooOOOOOOOOOOOOOOOOOOOOoooo<<<<<<<<<<<<<<<<<<",
"<<<<<<<<<<<<<<,,,,<<oooooooooooooooooooooooo<<,,<<<<<<<<>><<,>,,",
"<<<<<<<<<<<<<<,,,,<<oooooooooooooooooooooooo<<,,<<<<<<<<>><<>>,,",
"<<<<<<<<<<<<,,,,<<<<....XXXX  <<<<  XXXX....>><<,,<<<<<<<<>><<<<",
"<<<<<<<<<<<<,,,,<<<<....XXXX  <<<<  XXXX....>><<,,<<<<<<<<>><<<<",
"<<<<<<<<<<<<<<<<,,  XXXXXXXX  <<<<  XXXXXXXX  <<<<<<<<<<<<<<<<<<",
"<<<<<<<<<<<<<<<<,,  XXXXXXXX  <<<<  XXXXXXXX  <<<<<<<<<<<<<<<<<<",
"<<<<<<<<<<<<<<<<<<....XXXXXX..<<>>..XXXXXX....:;<<<<<<<<<<::<<<<",
"<<<<<<<<<<<<<<<<<<....XXXXXX..<<>>..XXXXXX....::<<<<<<<<<<>><<<<",
"<<<<<<<<<<<<<<<<<<<<..    ..<<<<,,<<..    ..>><<<<<<<<<<,,>><<<<",
"<<<<<<<<<<<<<<<<<<<<..    ..<<<<,,<<..    ..>><<<<<<<<<<,,>><<<<",
"<<<<<<<<<<<<<<<<<<<<<<<<<<<<<<<<<<<<>>>><<<<<<,,<<>>>>,,<<<<<<<<",
"<<<<<<<<<<<<<<<<<<<<<<<<<<<<<<<<<<<<>>>><<<<<<,,<<>>>>,,<<<<<<<<",
"<<<<<<,,,,>><<<<<<<<<<<<<<<<<<<<<<<<<<<<<<<<<<<<<<<<<<<<<<<<<<<<",
"<<<<<<,,,,>><<<<<<<<<<<<<<<<<<<<<<<<<<<<<<<<<<<<<<<<<<<<<<<<<<<<"
};
