/* XPM */
static char *_016[] = {
/* columns rows colors chars-per-pixel */
"64 128 20 1 ",
"  c #090806",
". c #22100F",
"X c #30190B",
"o c #3A1A18",
"O c #10182C",
"+ c #141F38",
"@ c #4A3527",
"# c #692329",
"$ c #223462",
"% c #87232A",
"& c #A2501D",
"* c #AD7939",
"= c #E09D34",
"- c #EEB74B",
"; c #AEAFB0",
": c #AFB0B1",
"> c #B1B2B3",
", c #B3B3B4",
"< c #B7B7B7",
"1 c #EBC8B5",
/* pixels */
"<<<<<<<<<<<<<<<<<<<<<<<<<<<<<<<<<<<<<<<<<<<<<<<<<<<<<<<<<<<<<<<<",
"<<<<<<<<<<<<<<<<<<<<<<<<<<<<<<<<<<<<<<<<<<<<<<<<<<<<<<<<<<<<<<<<",
"<<<<<<<<<<<<<<<<,,>>,,<<<<<<<<>>>><<<<<<<<<<>><<,,<<<<<<<<<<<<<<",
"<<<<<<<<<<<<<<<<,,>>,,<<<<<<<<>>>><<<<<<<<<<>><<,,<<<<<<<<<<<<<<",
"<<>>>><<<<<<<<<<<<<<<<<<<<<<<<<<<<<<<<<<<<<<<<<<<<<<<<>><<<<<<<<",
"<<>>>><<<<<<<<<<<<<<<<<<<<<<<<<<<<<<<<<<<<<<<<<<<<<<<<>><<<<<<<<",
">>>>::>>,,,,,,<<<<<<<<<<<<<<<<<<<<<<<<<<<<<<<<<<<<>>>><<<<,,<<<<",
">>>>::>>,,,,,,<<<<<<<<<<<<<<<<<<<<<<<<<<<<<<<<<<<<>>>><<<<,,<<<<",
";;<<>>,,,,,,<<,,<<<<<<<<<<<<<<<<<<<<<<<<<<<<<<<<<<<<<<<<<<>><<<<",
";;<<>>,,,,,,<<,,<<<<<<<<<<<<<<<<<<<<<<<<<<<<<<<<<<<<<<<<<<>><<<<",
",,<<<<<<<<<<<<<<<<<<<<<<<<<<<<<<<<<<<<<<<<<<<<<<<<<<<<<<<<<<<<<<",
",,<<<<<<<<<<<<<<<<<<<<<<<<<<<<<<<<<<<<<<<<<<<<<<<<<<<<<<<<<<<<<<",
"<<,,<<<<<<<<<<<<>>>><<<<<<<<<<<<<<<<<<<<<<<<<<<<<<<<<<<<<<<<<<,,",
"<<,,<<<<<<<<<<<<>>>><<<<<<<<<<<<<<<<<<<<<<<<<<<<<<<<<<<<<<<<<<,,",
">><<<<<<<<<<<<<<<<<<<<<<<<<<<<<<<<<<<<<<<<<<<<<<<<<<<<<<<<<<<<,,",
">><<<<<<<<<<<<<<<<<<<<<<<<<<<<<<<<<<<<<<<<<<<<<<<<<<<<<<<<<<<<,,",
">><<<<<<,,<<,,<<<<<<<<,,<<<<<<<<<<<<<<<<<<<<<<<<<<<<<<<<<<<<,,<<",
">><<<<<<,,<<,,<<<<<<<<,,<<<<<<<<<<<<<<<<<<<<<<<<<<<<<<<<<<<<,,<<",
",,<<>>>>,,>>>>>><<<<<<<<<<<<<<<<<<<<<<<<<<<<<<<<<<<<<<<<<<<<<<<<",
",,<<>>>>,,>>>>>><<<<<<<<<<<<<<<<<<<<<<<<<<<<<<<<<<<<<<<<<<<<<<<<",
",,,,<<>,<<,,<<,,,,,,>,<<,,<<<<<<<<<<<<<<,,<<<<<<<<>><<<<<<<<,><<",
",,,,<<,,<<,,<<,,,,,>>><<,,<<<<<<<<<<<<<<,,<<<<<<<<>><<<<<<<<,,<<",
"<<<<<<<<<<<<<<<<<<<<<<<<<<************,,::>>>>>>,,<<<<<<<<<<<<<<",
"<<<<<<<<<<<<<<<<<<<<<<<<<<************,,::>>>>>>,,<<<<<<<<<<<<<<",
"<<<<<<<<<<<<<<<<<<<<<<******========******<<,,;;>><<<<<<<<<<<<<<",
"<<<<<<<<<<<<<<<<<<<<<<******========******<<,,;;>><<<<<<<<<<<<<<",
"<<<<<<<<<<<<<<<<<<<<****====----------==****<<<<<<<<<<<<,,>><<<<",
"<<<<<<<<<<<<<<<<<<<<****====----------==****<<<<<<<<<<<<,,>><<<<",
"<<<<<<<<<<<<<<<<XX****====--------------==****<<<<<<<<<<<<<<<<<<",
"<<<<<<<<<<<<<<<<XX****====--------------==****<<<<<<<<<<<<<<<<<<",
"<<<<<<<<<<<<<<<<****====------------------==****<<<<<<,,<<<<<<<<",
"<<<<<<<<<<<<<<<<****====------------------==****<<<<<<,,<<<<<<<<",
"<<<<<<<<<<<<<<<<**====----------------------==**XX<<<<XXXX<<<<<<",
"<<<<<<<<<<<<<<<<**====----------------------==**XX<<<<XXXX<<<<<<",
"<<<<<<<<<<<<,,****==------------------------==****XX<<XX11XX<<<<",
"<<<<<<<<<<<<,,****==------------------------==****XX<<XX11XX<<<<",
"<<<<<<<<<<<<XX**==----------------------------==**@@XXXX1111XX<<",
"<<<<<<<<<<<<XX**==----------------------------==**@@XXXX1111XX<<",
"<<<<<<<<<<XX@@**==----------------------------==**@@XXXXXX11XX<<",
"<<<<<<<<<<XX@@**==----------------------------==**@@XXXXXX11XX<<",
",,<<<<<<XX@@**==--------------------------------==**@@@@XXXX>><<",
",,<<<<<<XX@@**==--------------------------------==**@@@@XXXX>><<",
",,<<<<XX@@&&**==--------------------------------==**@@&&XX<<<<<<",
",,<<<<XX@@&&**==--------------------------------==**@@&&XX<<<<<<",
"<<<<<<XX@@&&**==--------------------------------==**&&&&XX<<<<<<",
"<<<<<<XX@@&&**==--------------------------------==**&&&&XX<<<<<<",
"<<<<<<XX&&XX**==--------------------------------==**&&XX<<>><<>>",
"<<<<<<XX&&XX**==--------------------------------==**&&XX<<>><<>>",
"<<<<<<XX&&XX**==--------------------------------==**XXXX<<<<<<<<",
"<<<<<<XX&&XX**==--------------------------------==**XXXX<<<<<<<<",
"<<<<<<XXXXXX**==--------------------------------==**XX<<>><<,,,,",
"<<<<<<XXXXXX**==--------------------------------==**XX<<>><<,>,,",
"<<<<<<XX&&@@**==--------------------------------==**XX<<<<>><<<<",
"<<<<<<XX&&@@**==--------------------------------==**XX<<<,>><<<<",
"<<<<<<XXXX&&**==------------==------------------==**<<<<<<<<<<<<",
"<<<<<<XXXX&&**==------------==------------------==**<<<<<<<<<<<<",
"<<<<<<<<XX****----====------==--------==**------==**<<<<<<>><<<<",
"<<<<<<<<XX****----====------==--------==**------==**<<<<<<>><<<<",
"<<<<<<<<<<**==----==**--====**==------==**----==******<<,,>><<<<",
"<<<<<<<<<<**==----==**--====**==------==**----==******<<,,>><<<<",
"<<<<<<<<<<**==--**==**==**==**==----==**==----==**==**,,<<<<<<<<",
"<<<<<<<<<<**==--**==**==**==**==----==**==----==**==**,,<<<<<<<<",
"<<<<<<,,,,**==****==**==**====**==--==**==----==**==**<<<<<<<<<<",
"<<<<<<,,,,**==****==**==**====**==--==**==----==**==**<<<<<<<<<<",
"<<<<<<<<<<<<********====**====**====****====--==**==**<<<<<<<<<<",
"<<<<<<<<<<<<********====**====**====****====--==**==**<<<<<<<<<<",
"<<<<<<<<<<<<<<**%%**====****====**==**%%**==--==**==**<<<<<<<<<<",
"<<<<<<<<<<<<<<**%%**====****====**==**%%**==--==**==**<<<<<<<<<<",
"<<>>>><<<<<<<<**%%**==**%%**==**%%**%%%%%%**==********>><<<<<<<<",
"<<>>>><<<<<<<<**%%**==**%%**==**%%**%%%%%%**==********>><<<<<<<<",
">>>>::>>,,,,##%%%%%%**%%%%%%**%%%%%%%%%%%%%%**%%%%##>><<<<,,<<<<",
">>>>::>>,,,,##%%%%%%**%%%%%%**%%%%%%%%%%%%%%**%%%%##>><<<<,,<<<<",
";;<<>>,,,,,,##%%%%%%%%%%%%%%%%%%%%%%%%%%%%%%%%%%%%##<<<<<<>><<<<",
";;<<>>,,,,,,##%%%%%%%%%%%%%%%%%%%%%%%%%%%%%%%%%%%%##<<<<<<>><<<<",
",,<<<<<<<<<<##%%%%%%%%%%%%%%%%%%%%%%%%%%%%%%%%%%%%##<<<<<<<<<<<<",
",,<<<<<<<<<<##%%%%%%%%%%%%%%%%%%%%%%%%%%%%%%%%%%%%##<<<<<<<<<<<<",
"<<,,<<<<<<<<##%%%%%%%%%%%%%%%%%%%%%%%%%%%%%%%%%%%%##<<<<<<<<<<,,",
"<<,,<<<<<<<<##%%%%%%%%%%%%%%%%%%%%%%%%%%%%%%%%%%%%##<<<<<<<<<<,,",
">><<<<<<<<##%%%%%%%%%%%%%%%%%%%%%%%%%%%%%%%%%%%%%%%%##<<<<<<<<,,",
">><<<<<<<<##%%%%%%%%%%%%%%%%%%%%%%%%%%%%%%%%%%%%%%%%##<<<<<<<<,,",
">><<<<<<,,##%%%%%%%%%%%%%%%%%%%%%%%%%%%%%%%%%%%%%%%%##<<<<<<>,,,",
">><<<<<<,,##%%%%%%%%%%%%%%%%%%%%%%%%%%%%%%%%%%%%%%%%##<<<<<<>,<,",
",,<<>>>>,,##%%%%%%%%%%%%%%%%%%%%%%%%%%%%%%%%%%%%%%%%##<<<<<<<<<<",
",,<<>>>>,,##%%%%%%%%%%%%%%%%%%%%%%%%%%%%%%%%%%%%%%%%##<<<<<<<<<<",
",,,,<<,,##%%%%%%%%%%%%%%%%%%%%%%%%%%%%%%%%%%%%%%%%%%%%##<<<<,,<<",
",,,,<<,,##%%%%%%%%%%%%%%%%%%%%%%%%%%%%%%%%%%%%%%%%%%%%##<<<<,,<<",
"<<<<<<<<##%%%%%%%%%%%%%%################%%%%%%%%%%%%%%##<<<<<<<<",
"<<<<<<<<##%%%%%%%%%%%%%%################%%%%%%%%%%%%%%##<<<<<<<<",
"<<<<<<<<##%%%%%%%%########$$$$$$$$$$$$########%%%%%%%%##<<<<<<<<",
"<<<<<<<<##%%%%%%%%########$$$$$$$$$$$$########%%%%%%%%##<<<<<<<<",
"<<<<<<<<##%%%%########$$$$$$$$$$$$$$$$$$$$########%%%%##,,>><<<<",
"<<<<<<<<##%%%%########$$$$$$$$$$$$$$$$$$$$########%%%%##,,>><<<<",
"<<<<<<<<##%%####OOOO++$$$$$$$$$$$$$$$$$$$$++OOOO####%%##<<<<<<<<",
"<<<<<<<<##%%####OOOO++$$$$$$$$$$$$$$$$$$$$++OOOO####%%##<<<<<<<<",
"<<<<<<<<######<<OO++++$$$$$$$$$$$$$$$$$$$$++++OO<<######<<<<<<<<",
"<<<<<<<<######<<OO++++$$$$$$$$$$$$$$$$$$$$++++OO<<######<<<<<<<<",
"<<<<<<<<<<<<<<<<OO++$$$$$$$$$$$$$$$$$$$$$$$$++OO<<<<<<<<;;<<<<<<",
"<<<<<<<<<<<<<<<<OO++$$$$$$$$$$$$$$$$$$$$$$$$++OO<<<<<<<<;;<<<<<<",
"<<<<<<<<<<<<,,OOOO++$$$$$$$$$$$$$$$$$$$$$$$$++OOOO<<<<<<<<<<<<<<",
"<<<<<<<<<<<<,,OOOO++$$$$$$$$$$$$$$$$$$$$$$$$++OOOO<<<<<<<<<<<<<<",
"<<<<<<<<<<<<<<OO++$$$$$$$$$$$$$$$$$$$$$$$$$$$$++OO<<<<<<<<<<<<<<",
"<<<<<<<<<<<<<<OO++$$$$$$$$$$$$$$$$$$$$$$$$$$$$++OO<<<<<<<<<<<<<<",
"<<<<<<<<<<<<OO++++$$$$$$$$$$$$$$$$$$$$$$$$$$$$++++OO,,<<<<,,<<<<",
"<<<<<<<<<<<<OO++++$$$$$$$$$$$$$$$$$$$$$$$$$$$$++++OO,,<<<<,,<<<<",
",,<<<<<<<<<<OO++++$$$$$$$$$$$$$$$$$$$$$$$$$$$$++++OO<<<<<<,,>><<",
",,<<<<<<<<<<OO++++$$$$$$$$$$$$$$$$$$$$$$$$$$$$++++OO<<<<<<,,>><<",
",,<<<<<<<<<<OOOO++$$$$$$$$$$$$$$$$$$$$$$$$$$$$++OOOO<<<<<<<<<<<<",
",,<<<<<<<<<<OOOO++$$$$$$$$$$$$$$$$$$$$$$$$$$$$++OOOO<<<<<<<<<<<<",
"<<<<<<<<<<<<<<OOOO++$$$$$$$$$$$$$$$$$$$$$$$$++OOOO>><<<<<<<<<<<<",
"<<<<<<<<<<<<<<OOOO++$$$$$$$$$$$$$$$$$$$$$$$$++OOOO>><<<<<<<<<<<<",
"<<<<<<>><<<<<<<<OOOO++$$$$$$$$$$$$$$$$$$$$++OOOO>><<<<<<<<>><<>>",
"<<<<<<>><<<<<<<<OOOO++$$$$$$$$$$$$$$$$$$$$++OOOO>><<<<<<<<>><<>>",
"<<<<<<<<>>,,<<<<>>OOOO++++++++++++++++++++OOOO<<<<<<<<<<<<<<<<<<",
"<<<<<<<<>>,,<<<<>>OOOO++++++++++++++++++++OOOO<<<<<<<<<<<<<<<<<<",
"<<<<<<<<<<<<<<,,,,<<OOOOOOOOOOOOOOOOOOOOOOOO<<,,<<<<<<<<>><<,>,,",
"<<<<<<<<<<<<<<,,,,<<OOOOOOOOOOOOOOOOOOOOOOOO<<,,<<<<<<<<>><<>>,,",
"<<<<<<<<<<<<,,,,<<<<....oooo  <<<<  oooo....>><<,,<<<<<<<<>><<<<",
"<<<<<<<<<<<<,,,,<<<<....oooo  <<<<  oooo....>><<,,<<<<<<<<>><<<<",
"<<<<<<<<<<<<<<<<,,  oooooooo  <<<<  oooooooo  <<<<<<<<<<<<<<<<<<",
"<<<<<<<<<<<<<<<<,,  oooooooo  <<<<  oooooooo  <<<<<<<<<<<<<<<<<<",
"<<<<<<<<<<<<<<<<<<....oooooo..<<>>..oooooo....:;<<<<<<<<<<::<<<<",
"<<<<<<<<<<<<<<<<<<....oooooo..<<>>..oooooo....::<<<<<<<<<<>><<<<",
"<<<<<<<<<<<<<<<<<<<<..    ..<<<<,,<<..    ..>><<<<<<<<<<,,>><<<<",
"<<<<<<<<<<<<<<<<<<<<..    ..<<<<,,<<..    ..>><<<<<<<<<<,,>><<<<",
"<<<<<<<<<<<<<<<<<<<<<<<<<<<<<<<<<<<<>>>><<<<<<,,<<>>>>,,<<<<<<<<",
"<<<<<<<<<<<<<<<<<<<<<<<<<<<<<<<<<<<<>>>><<<<<<,,<<>>>>,,<<<<<<<<",
"<<<<<<,,,,>><<<<<<<<<<<<<<<<<<<<<<<<<<<<<<<<<<<<<<<<<<<<<<<<<<<<",
"<<<<<<,,,,>><<<<<<<<<<<<<<<<<<<<<<<<<<<<<<<<<<<<<<<<<<<<<<<<<<<<"
};
