/* XPM */
static char *_007[] = {
/* columns rows colors chars-per-pixel */
"64 128 33 1 ",
"  c #090806",
". c #22100F",
"X c #221C16",
"o c #3A1A18",
"O c #28241A",
"+ c #10182C",
"@ c #141F38",
"# c #302320",
"$ c #392120",
"% c #4A2622",
"& c #4E2926",
"* c #692329",
"= c #752026",
"- c #594E3A",
"; c #5C523A",
": c #223462",
"> c #87232A",
", c #A9292F",
"< c #AD7939",
"1 c #D28438",
"2 c #EF952C",
"3 c #E09D34",
"4 c #F0BF3F",
"5 c #A9895B",
"6 c #BC9C65",
"7 c #EEB74B",
"8 c #AEAFB0",
"9 c #AFB0B1",
"0 c #B1B2B3",
"q c #B3B3B4",
"w c #B7B7B7",
"e c #FFDC8E",
"r c white",
/* pixels */
"wwwwwwwwwwwwwwwwwwwwwwwwwwwwwwwwwwwwwwwwwwwwwwwwwwwwwwwwwwwwwwww",
"wwwwwwwwwwwwwwwwwwwwwwwwwwwwwwwwwwwwwwwwwwwwwwwwwwwwwwwwwwwwwwww",
"wwwwwwwwwwwwwwwwqq00qqwwwwwwww0000wwwwwwwwww00wwqqwwwwwwwwwwwwww",
"wwwwwwwwwwwwwwwwqq00qqwwwwwwww0000wwwwwwwwww00wwqqwwwwwwwwwwwwww",
"ww0000wwwwwwwwwwwwwwwwwwwwwwwwwwwwwwwwwwwwwwwwwwwwwwww00wwwwwwww",
"ww0000wwwwwwwwwwwwwwwwwwwwwwwwwwwwwwwwwwwwwwwwwwwwwwww00wwwwwwww",
"00009900qqqqqqwwwwwwwwwwwwwwwwwwwwwwwwwwwwwwwwwwww0000wwwwqqwwww",
"00009900qqqqqqwwwwwwwwwwwwwwwwwwwwwwwwwwwwwwwwwwww0000wwwwqqwwww",
"88ww00qqqqqqwwqqwwwwwwwwwwwwwwwwwwwwwwwwwwwwwwwwwwwwwwwwww00wwww",
"88ww00qqqqqqwwqqwwwwwwwwwwwwwwwwwwwwwwwwwwwwwwwwwwwwwwwwww00wwww",
"qqwwwwwwwwwwwwwwwwwwwwwwwwwwwwwwwwwwwwwwwwwwwwwwwwwwwwwwwwwwwwww",
"qqwwwwwwwwwwwwwwwwwwwwwwwwwwwwwwwwwwwwwwwwwwwwwwwwwwwwwwwwwwwwww",
"wwqqwwwwwwwwwwww0000wwwwwwwwwwwwwwwwwwwwwwwwwwwwwwwwwwwwwwwwwwqq",
"wwqqwwwwwwwwwwww0000wwwwwwwwwwwwwwwwwwwwwwwwwwwwwwwwwwwwwwwwwwqq",
"00wwwwwwwwwwwwwwwwwwwwwwwwwwwwwwww######wwwwwwwwwwwwwwwwwwwwwwqq",
"00wwwwwwwwwwwwwwwwwwwwwwwwwwwwwwww######wwwwwwwwwwwwwwwwwwwwwwqq",
"00wwwwwwqqwwqqwwwwwwwwqqwwwwwwww##,,==,,##wwwwwwwwwwwwwwwwwwqqww",
"00wwwwwwqqwwqqwwwwwwwwqqwwwwwwww##,,==,,##wwwwwwwwwwwwwwwwwwqqww",
"qqww0000qq000000wwwwwwwwwwwwww##44==,,==,,##wwwwwwwwwwwwwwwwwwww",
"qqww0000qq000000wwwwwwwwwwwwww##44==,,==,,##wwwwwwwwwwwwwwwwwwww",
"qqqqww0qwwqqwwqqqqqq0qwwqqww##&&&&1144====,,##wwww00wwwwwwwwq0ww",
"qqqqwwqqwwqqwwqqqqq000wwqqww##&&&&1144====,,##wwww00wwwwwwwwqqww",
"wwwwwwwwwwwwwwwwwwwwwwwwww<<<<<<<<<<<<11,,==,,##qqwwwwwwwwwwwwww",
"wwwwwwwwwwwwwwwwwwwwwwwwww<<<<<<<<<<<<11,,==,,##qqwwwwwwwwwwwwww",
"wwwwwwwwwwwwwwwwwwwwww<<<<<<33333333<<<<<<11==,,##wwwwwwwwwwwwww",
"wwwwwwwwwwwwwwwwwwwwww<<<<<<33333333<<<<<<11==,,##wwwwwwwwwwwwww",
"wwwwwwwwwwwwwwwwwwww<<<<3333333333333333<<<<44==####wwwwqq00wwww",
"wwwwwwwwwwwwwwwwwwww<<<<3333333333333333<<<<44==####wwwwqq00wwww",
"wwwwwwwwwwwwwwwwqq<<<<33337777777777773333<<<<##%%##wwwwwwwwwwww",
"wwwwwwwwwwwwwwwwqq<<<<33337777777777773333<<<<##%%##wwwwwwwwwwww",
"wwwwwwwwwwwwwwww<<<<333377777777777777773333<<<<%%##wwqqwwwwwwww",
"wwwwwwwwwwwwwwww<<<<333377777777777777773333<<<<%%##wwqqwwwwwwww",
"wwwwwwwwwwwwwwww<<3333777777337777777777773333<<##wwwwww88wwwwww",
"wwwwwwwwwwwwwwww<<3333777777337777777777773333<<##wwwwww88wwwwww",
"wwwwwwwwwwwwqq<<<<337777773333777777<<77773333<<<<wwwwwwwwwwwwww",
"wwwwwwwwwwwwqq<<<<337777773333777777<<77773333<<<<wwwwwwwwwwwwww",
"wwwwwwwwwwww##<<3333777733<<<<777777<<<<77773333<<wwwwwwwwwwwwww",
"wwwwwwwwwwww##<<3333777733<<<<777777<<<<77773333<<wwwwwwwwwwwwww",
"wwwwwwwwwwww##<<33777733<<ee<<7777<<ee<<<<777733<<qqqqwwwwqqwwww",
"wwwwwwwwwwww##<<33777733<<ee<<7777<<ee<<<<777733<<qqqqwwwwqqwwww",
"qqwwwwwwwwww<<33337777<<;;;;;;77<<;;;;;;<<<<773333<<wwwwwwqq00ww",
"qqwwwwwwwwww<<33337777<<;;;;;;77<<;;;;;;<<<<773333<<wwwwwwqq00ww",
"qqwwwwwwwwww<<337777<<;;;;22;;<<ee;;22;;;;<<773333<<wwwwwwwwwwww",
"qqwwwwwwwwww<<337777<<;;;;22;;<<ee;;22;;;;<<773333<<wwwwwwwwwwww",
"wwwwwwwwwwww<<337777<<ee;;rr;;eeee;;rr;;ee<<777733<<wwwwwwwwwwww",
"wwwwwwwwwwww<<337777<<ee;;rr;;eeee;;rr;;ee<<777733<<wwwwwwwwwwww",
"wwwwww00wwww<<7777<<<<eeee;;eeeeeeee;;eeee<<777733<<wwwwww00ww00",
"wwwwww00wwww<<7777<<<<eeee;;eeeeeeee;;eeee<<777733<<wwwwww00ww00",
"wwwwwwww00qq<<7777<<<<66eeeeeeeeeeeeeeee<<777777<<<<wwwwwwwwwwww",
"wwwwwwww00qq<<7777<<<<66eeeeeeeeeeeeeeee<<777777<<<<wwwwwwwwwwww",
"wwwwwwwwwwww<<7777<<<<<<66eeeeeeeeeeee66<<7777<<33<<wwww00wwq0qq",
"wwwwwwwwwwww<<7777<<<<<<66eeeeeeeeeeee66<<7777<<33<<wwww00wwq0qq",
"wwwwwwwwwwww<<7777<<<<<<<<66eeeeeeee66<<<<<<77<<33<<wwwwww00wwww",
"wwwwwwwwwwww<<7777<<<<<<<<66eeeeeeee66<<<<<<77<<33<<wwwwwq00wwww",
"wwwwwwwwwwww<<7777<<<<<<XXXXOO6666OOXXXX<<<<77<<33<<wwwwwwwwwwww",
"wwwwwwwwwwww<<7777<<<<<<XXXXOO6666OOXXXX<<<<77<<33<<wwwwwwwwwwww",
"wwwwwwwwwwww<<77<<<<XXXX$$XXXXOOOOXXXX$$XXXX<<33<<wwwwwwww00wwww",
"wwwwwwwwwwww<<77<<<<XXXX$$XXXXOOOOXXXX$$XXXX<<33<<wwwwwwww00wwww",
"wwwwwwwwwwww<<77<<XX$$$$$$$$$$XXXX$$$$$$$$XXXX33<<wwwwwwqq00wwww",
"wwwwwwwwwwww<<77<<XX$$$$$$$$$$XXXX$$$$$$$$XXXX33<<wwwwwwqq00wwww",
"wwwwwwwwwwww<<77<<**XXXX$$$$XX$$$$XX$$$$XXXX**<<ww0000qqwwwwwwww",
"wwwwwwwwwwww<<77<<**XXXX$$$$XX$$$$XX$$$$XXXX**<<wwqq00qqwwwwwwww",
"wwwwwwqqqq00ww<<**>>>>>>XX$$XX$$$$XX$$XX>>>>>>**wwwwwwwwwwwwwwww",
"wwwwwwqqqq00ww<<**>>>>>>XX$$XX$$$$XX$$XX>>>>>>**wwwwwwwwwwwwwwww",
"wwwwwwwwwwwwwwww**>>>>>>>>XX$$XXXX$$XX>>>>>>>>**wwwwwwwwwwwwwwww",
"wwwwwwwwwwwwwwww**>>>>>>>>XX$$XXXX$$XX>>>>>>>>**wwwwwwwwwwwwwwww",
"wwwwwwwwwwwwww**>>>>>>>>>>>>55555555>>>>>>>>>>>>**wwwwwwwwwwwwww",
"wwwwwwwwwwwwww**>>>>>>>>>>>>55555555>>>>>>>>>>>>**wwwwwwwwwwwwww",
"ww0000wwwwwwww**>>>>>>>>5555555555555555>>>>>>>>**wwww00wwwwwwww",
"ww0000wwwwwwww**>>>>>>>>5555555555555555>>>>>>>>**wwww00wwwwwwww",
"00009900qqqq**>>>>>>>>55555555555555555555>>>>>>>>**00wwwwqqwwww",
"00009900qqqq**>>>>>>>>55555555555555555555>>>>>>>>**00wwwwqqwwww",
"88ww00qqqqqq**>>>>>>>>55555555555555555555>>>>>>>>**wwwwww00wwww",
"88ww00qqqqqq**>>>>>>>>55555555555555555555>>>>>>>>**wwwwww00wwww",
"qqwwwwwwwwww**>>>>>>OO--5555555555555555--OO>>>>>>**wwwwwwwwwwww",
"qqwwwwwwwwww**>>>>>>OO--5555555555555555--OO>>>>>>**wwwwwwwwwwww",
"wwqqwwwwwwww**>>>>>>OO----555555555555----OO>>>>>>**wwwwwwwwwwqq",
"wwqqwwwwwwww**>>>>>>OO----555555555555----OO>>>>>>**wwwwwwwwwwqq",
"00wwwwwwww**>>>>>>66;;OO----------------OO;;66>>>>>>**wwwwwwwwqq",
"00wwwwwwww**>>>>>>66;;OO----------------OO;;66>>>>>>**wwwwwwwwqq",
"00wwwwwwqq**>>>>;;66;;++OOOOOOOOOOOOOOOO++;;66;;>>>>**wwwwww0qqq",
"00wwwwwwqq**>>>>;;66;;++OOOOOOOOOOOOOOOO++;;66;;>>>>**wwwwww0qwq",
"qqww0000qq**>>>>66;;++++@@::::::::::::@@++++;;66>>>>**wwwwwwwwww",
"qqww0000qq**>>>>66;;++++@@::::::::::::@@++++;;66>>>>**wwwwwwwwww",
"qqqqwwqq**>>>>>>66;;++@@@@::::::::::::@@@@++;;66>>>>>>**wwwwqqww",
"qqqqwwqq**>>>>>>66;;++@@@@::::::::::::@@@@++;;66>>>>>>**wwwwqqww",
"wwwwwwww**>>>>66;;;;++@@::::::::::::::::@@++;;;;66>>>>**wwwwwwww",
"wwwwwwww**>>>>66;;;;++@@::::::::::::::::@@++;;;;66>>>>**wwwwwwww",
"wwwwwwww**>>>>66;;++++@@::::::::::::::::@@++++;;66>>>>**wwwwwwww",
"wwwwwwww**>>>>66;;++++@@::::::::::::::::@@++++;;66>>>>**wwwwwwww",
"wwwwwwww**>>>>;;;;++@@::::::::::::::::::::@@++;;;;>>>>**qq00wwww",
"wwwwwwww**>>>>;;;;++@@::::::::::::::::::::@@++;;;;>>>>**qq00wwww",
"wwwwwwww**>>****++++@@::::::::::::::::::::@@++++****>>**wwwwwwww",
"wwwwwwww**>>****++++@@::::::::::::::::::::@@++++****>>**wwwwwwww",
"wwwwwwww******ww++@@@@::::::::::::::::::::@@@@++ww******wwwwwwww",
"wwwwwwww******ww++@@@@::::::::::::::::::::@@@@++ww******wwwwwwww",
"wwwwwwwwwwwwwwww++@@::::::::::::::::::::::::@@++wwwwwwww88wwwwww",
"wwwwwwwwwwwwwwww++@@::::::::::::::::::::::::@@++wwwwwwww88wwwwww",
"wwwwwwwwwwwwqq++++@@::::::::::::::::::::::::@@++++wwwwwwwwwwwwww",
"wwwwwwwwwwwwqq++++@@::::::::::::::::::::::::@@++++wwwwwwwwwwwwww",
"wwwwwwwwwwwwww++@@::::::::::::::::::::::::::::@@++wwwwwwwwwwwwww",
"wwwwwwwwwwwwww++@@::::::::::::::::::::::::::::@@++wwwwwwwwwwwwww",
"wwwwwwwwwwww++@@@@::::::::::::::::::::::::::::@@@@++qqwwwwqqwwww",
"wwwwwwwwwwww++@@@@::::::::::::::::::::::::::::@@@@++qqwwwwqqwwww",
"qqwwwwwwwwww++@@@@::::::::::::::::::::::::::::@@@@++wwwwwwqq00ww",
"qqwwwwwwwwww++@@@@::::::::::::::::::::::::::::@@@@++wwwwwwqq00ww",
"qqwwwwwwwwww++++@@::::::::::::::::::::::::::::@@++++wwwwwwwwwwww",
"qqwwwwwwwwww++++@@::::::::::::::::::::::::::::@@++++wwwwwwwwwwww",
"wwwwwwwwwwwwww++++@@::::::::::::::::::::::::@@++++00wwwwwwwwwwww",
"wwwwwwwwwwwwww++++@@::::::::::::::::::::::::@@++++00wwwwwwwwwwww",
"wwwwww00wwwwwwww++++@@::::::::::::::::::::@@++++00wwwwwwww00ww00",
"wwwwww00wwwwwwww++++@@::::::::::::::::::::@@++++00wwwwwwww00ww00",
"wwwwwwww00qqwwww00++++@@@@@@@@@@@@@@@@@@@@++++wwwwwwwwwwwwwwwwww",
"wwwwwwww00qqwwww00++++@@@@@@@@@@@@@@@@@@@@++++wwwwwwwwwwwwwwwwww",
"wwwwwwwwwwwwwwqqqqww++++++++++++++++++++++++wwqqwwwwwwww00wwq0qq",
"wwwwwwwwwwwwwwqqqqww++++++++++++++++++++++++wwqqwwwwwwww00ww00qq",
"wwwwwwwwwwwwqqqqwwww  oooooo  wwww  oooooo  00wwqqwwwwwwww00wwww",
"wwwwwwwwwwwwqqqqwwww  oooooo  wwww  oooooo  00wwqqwwwwwwww00wwww",
"wwwwwwwwwwwwwwwwqq  oooooo..  wwww  ..oooooo  wwwwwwwwwwwwwwwwww",
"wwwwwwwwwwwwwwwwqq  oooooo..  wwww  ..oooooo  wwwwwwwwwwwwwwwwww",
"wwwwwwwwwwwwwwwwww  oooo..  wwww00qq  ..oooo  99wwwwwwwwww99wwww",
"wwwwwwwwwwwwwwwwww  oooo..  wwww00qq  ..oooo  99wwwwwwwwww00wwww",
"wwwwwwwwwwwwwwwwww..      qqwwwwqqwwww      ..wwwwwwwwwwqq00wwww",
"wwwwwwwwwwwwwwwwww..      qqwwwwqqwwww      ..wwwwwwwwwwqq00wwww",
"wwwwwwwwwwwwwwwwwwwwwwwwwwwwwwwwwwww0000wwwwwwqqww0000qqwwwwwwww",
"wwwwwwwwwwwwwwwwwwwwwwwwwwwwwwwwwwww0000wwwwwwqqww0000qqwwwwwwww",
"wwwwwwqqqq00wwwwwwwwwwwwwwwwwwwwwwwwwwwwwwwwwwwwwwwwwwwwwwwwwwww",
"wwwwwwqqqq00wwwwwwwwwwwwwwwwwwwwwwwwwwwwwwwwwwwwwwwwwwwwwwwwwwww"
};
