/* XPM */
static char *_017[] = {
/* columns rows colors chars-per-pixel */
"64 128 29 1 ",
"  c #090806",
". c #1C0505",
"X c #0F1017",
"o c #22100F",
"O c #221C16",
"+ c #3A1A18",
"@ c #28241A",
"# c #10182C",
"$ c #141F38",
"% c #392120",
"& c #692329",
"* c #594E3A",
"= c #5C523A",
"- c #223462",
"; c #4B4949",
": c #87232A",
"> c #AD7939",
", c #EF952C",
"< c #E09D34",
"1 c #A9895B",
"2 c #BC9C65",
"3 c #EEB74B",
"4 c #AEAFB0",
"5 c #AFB0B1",
"6 c #B1B2B3",
"7 c #B3B3B4",
"8 c #B7B7B7",
"9 c #FFDC8E",
"0 c white",
/* pixels */
"8888888888888888888888888888888888888888888888888888888888888888",
"8888888888888888888888888888888888888888888888888888888888888888",
"8888888888888888776677888888886666888888888866887788888888888888",
"8888888888888888776677888888886666888888888866887788888888888888",
"8866668888XXXXXXXXXXXXXXXXXXXXXXXXXXXXXXXXXXXXXXXXXXXX6688888888",
"8866668888XXXXXXXXXXXXXXXXXXXXXXXXXXXXXXXXXXXXXXXXXXXX6688888888",
"66665566XX;;;;;;;;;;;;;;;;;;;;;;;;;;;;;;;;;;;;;;;;;;;;XX88778888",
"66665566XX;;;;;;;;;;;;;;;;;;;;;;;;;;;;;;;;;;;;;;;;;;;;XX88778888",
"448866XX;;;;;;;;;;;;;;;;;;;;;;;;;;;;;;;;;;;;;;;;;;;;;;;;XX668888",
"448866XX;;;;;;;;;;;;;;;;;;;;;;;;;;;;;;;;;;;;;;;;;;;;;;;;XX668888",
"7788XX;;;;;;;;;;;;;;;;;;;;;;;;;;;;;;;;;;;;;;;;;;;;;;;;;;;;XX8888",
"7788XX;;;;;;;;;;;;;;;;;;;;;;;;;;;;;;;;;;;;;;;;;;;;;;;;;;;;XX8888",
"8877XXXXXXXXXXXXXXXXXXXXXXXXXXXXXXXXXXXXXXXXXXXXXXXXXXXXXXXX8877",
"8877XXXXXXXXXXXXXXXXXXXXXXXXXXXXXXXXXXXXXXXXXXXXXXXXXXXXXXXX8877",
"6688XX;;;;;;;;;;;;;;;;;;;;;;;;;;;;;;;;;;;;;;;;;;;;;;;;;;;;XX8877",
"6688XX;;;;;;;;;;;;;;;;;;;;;;;;;;;;;;;;;;;;;;;;;;;;;;;;;;;;XX8877",
"6688XX;;;;;;;;;;;;;;;;;;;;;;;;;;;;;;;;;;;;;;;;;;;;;;;;;;;;XX7788",
"6688XX;;;;;;;;;;;;;;;;;;;;;;;;;;;;;;;;;;;;;;;;;;;;;;;;;;;;XX7788",
"77............................................................88",
"77............................................................88",
"77............................................................88",
"77............................................................88",
"8888XX;;;;....;;;;;;;;;;;;>>>>>>>>>>>>;;;;;;;;;;;;....;;;;XX8888",
"8888XX;;;;....;;;;;;;;;;;;>>>>>>>>>>>>;;;;;;;;;;;;....;;;;XX8888",
"8888XX;;;;....;;;;;;;;>>>>>><<<<<<<<>>>>>>;;;;;;;;....;;;;XX8888",
"8888XX;;;;....;;;;;;;;>>>>>><<<<<<<<>>>>>>;;;;;;;;....;;;;XX8888",
"8888XX;;;;;;..;;;;;;>>>><<<<<<<<<<<<<<<<>>>>;;;;;;..;;;;;;XX8888",
"8888XX;;;;;;..;;;;;;>>>><<<<<<<<<<<<<<<<>>>>;;;;;;..;;;;;;XX8888",
"8888XX;;;;;;;;;;XX>>>><<<<333333333333<<<<>>>>XX;;;;;;;;;;XX8888",
"8888XX;;;;;;;;;;XX>>>><<<<333333333333<<<<>>>>XX;;;;;;;;;;XX8888",
"8888XX;;;;;;;;XX>>>><<<<3333333333333333<<<<>>>>XX;;;;;;;;XX8888",
"8888XX;;;;;;;;XX>>>><<<<3333333333333333<<<<>>>>XX;;;;;;;;XX8888",
"8888XX;;;;;;XXXX>><<<<333333<<333333333333<<<<>>XXXX;;;;;;XX8888",
"8888XX;;;;;;XXXX>><<<<333333<<333333333333<<<<>>XXXX;;;;;;XX8888",
"8888XX;;;;XXXX>>>><<333333<<<<333333>>3333<<<<>>>>XXXX;;;;XX8888",
"8888XX;;;;XXXX>>>><<333333<<<<333333>>3333<<<<>>>>XXXX;;;;XX8888",
"8888XX;;;;XX;;>><<<<3333<<>>>>333333>>>>3333<<<<>>;;XX;;;;XX8888",
"8888XX;;;;XX;;>><<<<3333<<>>>>333333>>>>3333<<<<>>;;XX;;;;XX8888",
"8888XX;;;;XX;;>><<3333<<>>99>>3333>>99>>>>3333<<>>;;XX;;;;XX8888",
"8888XX;;;;XX;;>><<3333<<>>99>>3333>>99>>>>3333<<>>;;XX;;;;XX8888",
"7788XX;;;;XX>><<<<3333>>======33>>======>>>>33<<<<>>XX;;;;XX6688",
"7788XX;;;;XX>><<<<3333>>======33>>======>>>>33<<<<>>XX;;;;XX6688",
"7788XX;;;;XX>><<3333>>====,,==>>99==,,====>>33<<<<>>XX;;;;XX8888",
"7788XX;;;;XX>><<3333>>====,,==>>99==,,====>>33<<<<>>XX;;;;XX8888",
"8888XX;;;;XX>><<3333>>99==00==9999==00==99>>3333<<>>XX;;;;XX8888",
"8888XX;;;;XX>><<3333>>99==00==9999==00==99>>3333<<>>XX;;;;XX8888",
"8888XX;;;;XX>>3333>>>>9999==99999999==9999>>3333<<>>XX;;;;XX8866",
"8888XX;;;;XX>>3333>>>>9999==99999999==9999>>3333<<>>XX;;;;XX8866",
"8888XX;;;;XX>>3333>>>>229999999999999999>>333333>>>>XX;;;;XX8888",
"8888XX;;;;XX>>3333>>>>229999999999999999>>333333>>>>XX;;;;XX8888",
"8888XX;;;;XX>>3333>>>>>>2299999999999922>>3333>><<>>XX;;;;XX7788",
"8888XX;;;;XX>>3333>>>>>>2299999999999922>>3333>><<>>XX;;;;XX7788",
"8888XX;;;;XX>>3333>>>>>>>>229999999922>>>>>>33>><<>>XX;;;;XX8888",
"8888XX;;;;XX>>3333>>>>>>>>229999999922>>>>>>33>><<>>XX;;;;XX8888",
"8888XX;;;;XX>>3333>>>>>>OOOO@@2222@@OOOO>>>>33>><<>>XX;;;;XX8888",
"8888XX;;;;XX>>3333>>>>>>OOOO@@2222@@OOOO>>>>33>><<>>XX;;;;XX8888",
"8888XXXX;;XX>>33>>>>OOOO%%OOOO@@@@OOOO%%OOOO>><<>>;;XX;;XXXX8888",
"8888XXXX;;XX>>33>>>>OOOO%%OOOO@@@@OOOO%%OOOO>><<>>;;XX;;XXXX8888",
"888888XXXXXX>>33>>OO%%%%%%%%%%OOOO%%%%%%%%OOOO<<>>XXXXXXXX668888",
"888888XXXXXX>>33>>OO%%%%%%%%%%OOOO%%%%%%%%OOOO<<>>XXXXXXXX668888",
"88888888XXXX>>33>>&&OOOO%%%%OO%%%%OO%%%%OOOO&&>>XXXXXXXX88888888",
"88888888XXXX>>33>>&&OOOO%%%%OO%%%%OO%%%%OOOO&&>>XXXXXXXX88888888",
"88888877776688>>&&::::::OO%%OO%%%%OO%%OO::::::&&8888888888888888",
"88888877776688>>&&::::::OO%%OO%%%%OO%%OO::::::&&8888888888888888",
"8888888888888888&&::::::::OO%%OOOO%%OO::::::::&&8888888888888888",
"8888888888888888&&::::::::OO%%OOOO%%OO::::::::&&8888888888888888",
"88888888888888&&::::::::::::11111111::::::::::::&&88888888888888",
"88888888888888&&::::::::::::11111111::::::::::::&&88888888888888",
"88666688888888&&::::::::1111111111111111::::::::&&88886688888888",
"88666688888888&&::::::::1111111111111111::::::::&&88886688888888",
"666655667777&&::::::::11111111111111111111::::::::&&668888778888",
"666655667777&&::::::::11111111111111111111::::::::&&668888778888",
"448866777777&&::::::::11111111111111111111::::::::&&888888668888",
"448866777777&&::::::::11111111111111111111::::::::&&888888668888",
"778888888888&&::::::@@**1111111111111111**@@::::::&&888888888888",
"778888888888&&::::::@@**1111111111111111**@@::::::&&888888888888",
"887788888888&&::::::@@****111111111111****@@::::::&&888888888877",
"887788888888&&::::::@@****111111111111****@@::::::&&888888888877",
"6688888888&&::::::22==@@****************@@==22::::::&&8888888877",
"6688888888&&::::::22==@@****************@@==22::::::&&8888888877",
"6688888877&&::::==22==##@@@@@@@@@@@@@@@@##==22==::::&&8888886777",
"6688888877&&::::==22==##@@@@@@@@@@@@@@@@##==22==::::&&8888886787",
"7788666677&&::::22==####$$------------$$####==22::::&&8888888888",
"7788666677&&::::22==####$$------------$$####==22::::&&8888888888",
"77778877&&::::::22==##$$$$------------$$$$##==22::::::&&88887788",
"77778877&&::::::22==##$$$$------------$$$$##==22::::::&&88887788",
"88888888&&::::22====##$$----------------$$##====22::::&&88888888",
"88888888&&::::22====##$$----------------$$##====22::::&&88888888",
"88888888&&::::22==####$$----------------$$####==22::::&&88888888",
"88888888&&::::22==####$$----------------$$####==22::::&&88888888",
"88888888&&::::====##$$--------------------$$##====::::&&77668888",
"88888888&&::::====##$$--------------------$$##====::::&&77668888",
"88888888&&::&&&&####$$--------------------$$####&&&&::&&88888888",
"88888888&&::&&&&####$$--------------------$$####&&&&::&&88888888",
"88888888&&&&&&88##$$$$--------------------$$$$##88&&&&&&88888888",
"88888888&&&&&&88##$$$$--------------------$$$$##88&&&&&&88888888",
"8888888888888888##$$------------------------$$##8888888844888888",
"8888888888888888##$$------------------------$$##8888888844888888",
"88888888888877####$$------------------------$$####88888888888888",
"88888888888877####$$------------------------$$####88888888888888",
"88888888888888##$$----------------------------$$##88888888888888",
"88888888888888##$$----------------------------$$##88888888888888",
"888888888888##$$$$----------------------------$$$$##778888778888",
"888888888888##$$$$----------------------------$$$$##778888778888",
"778888888888##$$$$----------------------------$$$$##888888776688",
"778888888888##$$$$----------------------------$$$$##888888776688",
"778888888888####$$----------------------------$$####888888888888",
"778888888888####$$----------------------------$$####888888888888",
"88888888888888####$$------------------------$$####66888888888888",
"88888888888888####$$------------------------$$####66888888888888",
"8888886688888888####$$--------------------$$####6688888888668866",
"8888886688888888####$$--------------------$$####6688888888668866",
"888888886677888866####$$$$$$$$$$$$$$$$$$$$####888888888888888888",
"888888886677888866####$$$$$$$$$$$$$$$$$$$$####888888888888888888",
"88888888888888777788########################88778888888866887677",
"88888888888888777788########################88778888888866886677",
"88888888888877778888  ++++++  8888  ++++++  66887788888888668888",
"88888888888877778888  ++++++  8888  ++++++  66887788888888668888",
"888888888888888877  ++++++oo  8888  oo++++++  888888888888888888",
"888888888888888877  ++++++oo  8888  oo++++++  888888888888888888",
"888888888888888888  ++++oo  88886677  oo++++  558888888888558888",
"888888888888888888  ++++oo  88886677  oo++++  558888888888668888",
"888888888888888888oo      778888778888      oo888888888877668888",
"888888888888888888oo      778888778888      oo888888888877668888",
"8888888888888888888888888888888888886666888888778866667788888888",
"8888888888888888888888888888888888886666888888778866667788888888",
"8888887777668888888888888888888888888888888888888888888888888888",
"8888887777668888888888888888888888888888888888888888888888888888"
};
