/* XPM */
static char *_011[] = {
/* columns rows colors chars-per-pixel */
"64 128 30 1 ",
"  c #090806",
". c #22100F",
"X c #221C16",
"o c #3A1A18",
"O c #28241A",
"+ c #10182C",
"@ c #141F38",
"# c #392120",
"$ c #692329",
"% c #594E3A",
"& c #5C523A",
"* c #223462",
"= c #87232A",
"- c #9A2D35",
"; c #AD7939",
": c #B63A44",
"> c #EF952C",
", c #E09D34",
"< c #A9895B",
"1 c #BC9C65",
"2 c #EEB74B",
"3 c #F0BF5D",
"4 c #ACADAF",
"5 c #AEAFB0",
"6 c #AFB0B1",
"7 c #B1B2B3",
"8 c #B3B3B4",
"9 c #B7B7B7",
"0 c #FFDC8E",
"q c white",
/* pixels */
"9999999999999999999999999999999999999999999999999999999999999999",
"9999999999999999999999999999999999999999999999999999999999999999",
"9999999999999999887788999999997777999999999977998899999999999999",
"9999999999999999887788999999997777999999999977998899999999999999",
"9977779999999999999999999999999999999999999999999999997799999999",
"9977779999999999999999999999999999999999999999999999997799999999",
"7777667788888899999999999999999999999999999999999977779999889999",
"7777667788888899999999999999999999999999999999999977779999889999",
"5599778888889988999999999999999999999999999999999999999999779999",
"5599778888889988999999999999999999999999999999999999999999779999",
"8899999999999999999999999999999999999999999999999999999999999999",
"8899999999999999999999999999999999999999999999999999999999999999",
"9988999999999999777799999999999999999999999999999999999999999988",
"9988999999999999777799999999999999999999999999999999999999999988",
"7799999999999999999999999999999999999999999999999999999999999988",
"7799999999999999999999999999999999999999999999999999999999999988",
"7799999988998899999999889999999999999999999999999999999999998899",
"7799999988998899999999889999999999999999999999999999999999998899",
"8899777788777777999999999999::::--::9999999999999999999999999999",
"8899777788777777999999999999::::--::9999999999999999999999999999",
"888899789988998888887899::::--::::----::889999999977999999998799",
"888899889988998888877799::::--::::----::889999999977999999998899",
"99999999999999999999999933;;;;;;;;;;;;--::7777778899999999999999",
"99999999999999999999999933;;;;;;;;;;;;--::7777778899999999999999",
"9999999999999999999999;;;;;;,,,,,,,,;;;;;;9988557799999999999999",
"9999999999999999999999;;;;;;,,,,,,,,;;;;;;9988557799999999999999",
"99999999999999999999;;;;,,,,,,222222,,,,;;;;99999999999988779999",
"99999999999999999999;;;;,,,,,,222222,,,,;;;;99999999999988779999",
"99999999999999998877;;,,,,222222222222,,,,;;;;999999999999999999",
"99999999999999998877;;,,,,222222222222,,,,;;;;999999999999999999",
"999999999999999988;;,,,,2222222222222222,,,,;;;;9999998899999999",
"999999999999999988;;,,,,2222222222222222,,,,;;;;9999998899999999",
"999999999999999999;;,,22222222222222222222,,,,;;9999999955999999",
"999999999999999999;;,,22222222222222222222,,,,;;9999999955999999",
"999999999999887799,,222222,,2222222222222222,,;;;;99999999999999",
"999999999999887799,,222222,,2222222222222222,,;;;;99999999999999",
"9999999999999999;;,,2222;;;;,,22222222222222,,,,;;99999999999999",
"9999999999999999;;,,2222;;;;,,22222222222222,,,,;;99999999999999",
"9999999999998899;;,,22;;;;00;;2222222222222222,,;;88889999889999",
"9999999999998899;;,,22;;;;00;;2222222222222222,,;;88889999889999",
"8899999999999999;;,,22&&&&&&00;;22222222222222,,;;;;999999887799",
"8899999999999999;;,,22&&&&&&00;;22222222222222,,;;;;999999887799",
"8899999999999999;;,,22&&>>&&&&002222222222222222,,;;999999999999",
"8899999999999999;;,,22&&>>&&&&002222222222222222,,;;999999999999",
"9999999999999999;;,,22&&qq&&0000;;22222222222222,,;;999999999999",
"9999999999999999;;,,22&&qq&&0000;;22222222222222,,;;999999999999",
"9999997799999999;;,,2200&&000000;;2222222222,,22,,;;999999779977",
"9999997799999999;;,,2200&&000000;;2222222222,,22,,;;999999779977",
"9999999977889999;;,,;;0000000000;;2222;;22,,,,,,,,;;999999999999",
"9999999977889999;;,,;;0000000000;;2222;;22,,,,,,,,;;999999999999",
"9999999999999988;;,,;;11000000;;2222;;;;,,,,;;,,,,;;999977998788",
"9999999999999988;;,,;;11000000;;2222;;;;,,,,;;,,,,;;999977998788",
"999999999999888899;;22;;1100;;222222;;,,,,;;;;,,,,;;999999779999",
"999999999999888899;;22;;1100;;222222;;,,,,;;;;,,,,;;999998779999",
"999999999999999988;;22;;;;XX;;22;;;;,,,,;;;;,,,,,,;;999999999999",
"999999999999999988;;22;;;;XX;;22;;;;,,,,;;;;,,,,,,;;999999999999",
"999999999999999999;;22;;XXXXXX;;;;,,,,,,;;;;,,,,,,;;999999779999",
"999999999999999999;;22;;XXXXXX;;;;,,,,,,;;;;,,,,,,;;999999779999",
"999999999999999999;;22;;XX##XXXX;;,,,,;;;;;;,,,,,,;;999988779999",
"999999999999999999;;22;;XX##XXXX;;,,,,;;;;;;,,,,,,;;999988779999",
"999999999999999999;;22XX####XX$$;;,,;;;;;;;;;;,,;;88778899999999",
"999999999999999999;;22XX####XX$$;;,,;;;;;;;;;;,,;;88778899999999",
"99999988887799999999;;XX##XX$$====;;;;,,;;$$;;,,;;99999999999999",
"99999988887799999999;;XX##XX$$====;;;;,,;;$$;;,,;;99999999999999",
"9999999999999999999999%%XX$$========$$;;$$$$$$;;9999999999999999",
"9999999999999999999999%%XX$$========$$;;$$$$$$;;9999999999999999",
"9999999999999999887788%%<<$$==========$$====$$998899999999999999",
"9999999999999999887788%%<<$$==========$$====$$998899999999999999",
"9977779999999999999999%%<<$$================$$999999997799999999",
"9977779999999999999999%%<<$$================$$999999997799999999",
"7777667788888899999999%%<<<<$$================$$9977779999889999",
"7777667788888899999999%%<<<<$$================$$9977779999889999",
"559977888888998899999999%%<<$$$$==============$$9999999999779999",
"559977888888998899999999%%<<$$$$==============$$9999999999779999",
"889999999999999999999999%%<<<<$$==============$$$$99999999999999",
"889999999999999999999999%%<<<<$$==============$$$$99999999999999",
"998899999999999977779999%%<<<<$$$$==============$$99999999999988",
"998899999999999977779999%%<<<<$$$$==============$$99999999999988",
"779999999999999999999999++OO<<<<$$$$============$$99999999999988",
"779999999999999999999999++OO<<<<$$$$============$$99999999999988",
"779999998899889999999988++OOOOOO%%$$============$$99999999997888",
"779999998899889999999988++OOOOOO%%$$============$$99999999997898",
"8899777788777777999999++@@******&&$$==========$$$$99999999999999",
"8899777788777777999999++@@******&&$$==========$$$$99999999999999",
"8888998899889988888888@@@@******&&$$========$$$$$$77999999998899",
"8888998899889988888888@@@@******&&$$========$$$$$$77999999998899",
"99999999999999999999++@@******&&11$$======$$$$$$8899999999999999",
"99999999999999999999++@@******&&11$$======$$$$$$8899999999999999",
"999999999999999999++++@@******&&11$$====$$$$++557799999999999999",
"999999999999999999++++@@******&&11$$====$$$$++557799999999999999",
"999999999999999999++@@********&&&&$$==$$$$@@++999999999988779999",
"999999999999999999++@@********&&&&$$==$$$$@@++999999999988779999",
"9999999999999999++++@@************$$$$$$**@@++++9999999999999999",
"9999999999999999++++@@************$$$$$$**@@++++9999999999999999",
"9999999999999999++@@@@**************$$****@@@@++9999998899999999",
"9999999999999999++@@@@**************$$****@@@@++9999998899999999",
"9999999999999999++@@************************@@++9999999955999999",
"9999999999999999++@@************************@@++9999999955999999",
"99999999999988++++@@************************@@++++99999999999999",
"99999999999988++++@@************************@@++++99999999999999",
"99999999999999++@@****************************@@++99999999999999",
"99999999999999++@@****************************@@++99999999999999",
"999999999999++@@@@****************************@@@@++889999889999",
"999999999999++@@@@****************************@@@@++889999889999",
"889999999999++@@@@****************************@@@@++999999887799",
"889999999999++@@@@****************************@@@@++999999887799",
"889999999999++++@@****************************@@++++999999999999",
"889999999999++++@@****************************@@++++999999999999",
"99999999999999++++@@************************@@++++77999999999999",
"99999999999999++++@@************************@@++++77999999999999",
"9999997799999999++++@@********************@@++++7799999999779977",
"9999997799999999++++@@********************@@++++7799999999779977",
"999999997788999977++++++@@@@@@@@@@@@@@@@++++++999999999999999999",
"999999997788999977++++++@@@@@@@@@@@@@@@@++++++999999999999999999",
"99999999999999888899++++++++++++++++++++++++99889999999977998788",
"99999999999999888899++++++++++++++++++++++++99889999999977997788",
"99999999999988889999778899  oooo  oooo  999977998899999999779999",
"99999999999988889999778899  oooo  oooo  999977998899999999779999",
"999999999999999988887799  oooooo  oo..  779999999999999999999999",
"999999999999999988887799  oooooo  oo..  779999999999999999999999",
"9999999999999999999999  oooooo..      99998844659999999999669999",
"9999999999999999999999  oooooo..      99998844669999999999779999",
"9999999999999999999999..          999977667777999999999988779999",
"9999999999999999999999..          999977667777999999999988779999",
"9999999999999999999999999999999999997777999999889977778899999999",
"9999999999999999999999999999999999997777999999879977778899999999",
"9999998888779999999999999999999999999999999999999999999999999999",
"9999998888779999999999999999999999999999999999999999999999999999"
};
