/* XPM */
static char *_008[] = {
/* columns rows colors chars-per-pixel */
"64 128 33 1 ",
"  c #090806",
". c #1C0505",
"X c #22100F",
"o c #221C16",
"O c #231818",
"+ c #3A1A18",
"@ c #28241A",
"# c #10182C",
"$ c #141F38",
"% c #392120",
"& c #451919",
"* c #692329",
"= c #594E3A",
"- c #5C523A",
"; c #223462",
": c #4C4343",
"> c #87232A",
", c #AD7939",
"< c #D57B47",
"1 c #EF952C",
"2 c #E09D34",
"3 c #A9895B",
"4 c #BC9C65",
"5 c #EEB74B",
"6 c #F1BD61",
"7 c #ACADAF",
"8 c #AEAFB0",
"9 c #AFB0B1",
"0 c #B1B2B3",
"q c #B3B3B4",
"w c #B7B7B7",
"e c #FFDC8E",
"r c white",
/* pixels */
"wwwwwwwwwwwwwwwwwwwwwwwwwwwwwwwwwwwwwwwwwwwwwwwwwwwwwwwwwwwwwwww",
"wwwwwwwwwwwwwwwwwwwwwwwwwwwwwwwwwwwwwwwwwwwwwwwwwwwwwwwwwwwwwwww",
"wwwwwwwwwwwwwwwwqq00qqwwwwwwww0000wwwwwwwwww00wwqqwwwwwwwwwwwwww",
"wwwwwwwwwwwwwwwwqq00qqwwwwwwww0000wwwwwwwwww00wwqqwwwwwwwwwwwwww",
"ww0000wwwwOOOOOOOOOOOOOOOOOOOOOOOOOOOOOOOOOOOOOOOOOOOO00wwwwwwww",
"ww0000wwwwOOOOOOOOOOOOOOOOOOOOOOOOOOOOOOOOOOOOOOOOOOOO00wwwwwwww",
"00009900OO::::::::::::::::::::::::::::::::::::::::::::OOwwqqwwww",
"00009900OO::::::::::::::::::::::::::::::::::::::::::::OOwwqqwwww",
"88ww00OO::::::::::::::::::::::::::::::::::::::::::::::::OO00wwww",
"88ww00OO::::::::::::::::::::::::::::::::::::::::::::::::OO00wwww",
"qqwwOO::::::::::::::::::::::::::::::::::::::::::::::::::::OOwwww",
"qqwwOO::::::::::::::::::::::::::::::::::::::::::::::::::::OOwwww",
"wwqqOOOOOOOOOOOOOOOOOOOOOOOOOOOOOOOOOOOOOOOOOOOOOOOOOOOOOOOOwwqq",
"wwqqOOOOOOOOOOOOOOOOOOOOOOOOOOOOOOOOOOOOOOOOOOOOOOOOOOOOOOOOwwqq",
"00wwOO::::::::::::::::::::::::::::::::::::::::::::::::::::OOwwqq",
"00wwOO::::::::::::::::::::::::::::::::::::::::::::::::::::OOwwqq",
"00wwOO::::::::::::::::::::::::::::::::::::::::::::::::::::OOqqww",
"00wwOO::::::::::::::::::::::::::::::::::::::::::::::::::::OOqqww",
"qq............................................................ww",
"qq............................................................ww",
"qq............................................................ww",
"qq............................................................ww",
"wwwwOO::::....::::::::::::,,,,,,,,,,,,::::::::::::....::::OOwwww",
"wwwwOO::::....::::::::::::,,,,,,,,,,,,::::::::::::....::::OOwwww",
"wwwwOO::::....::::::::,,,,,,22222222,,,,,,::::::::....::::OOwwww",
"wwwwOO::::....::::::::,,,,,,22222222,,,,,,::::::::....::::OOwwww",
"wwwwOO::::::..::::::,,,,2222225555552222,,,,::::::..::::::OOwwww",
"wwwwOO::::::..::::::,,,,2222225555552222,,,,::::::..::::::OOwwww",
"wwwwOO::::::::::OOOO,,22225555555555552222,,,,OO::::::::::OOwwww",
"wwwwOO::::::::::OOOO,,22225555555555552222,,,,OO::::::::::OOwwww",
"wwwwOO::::::::OOOO,,222255555555555555552222,,,,OO::::::::OOwwww",
"wwwwOO::::::::OOOO,,222255555555555555552222,,,,OO::::::::OOwwww",
"wwwwOO::::::OOOO::,,22555555555555555555552222,,OOOO::::::OOwwww",
"wwwwOO::::::OOOO::,,22555555555555555555552222,,OOOO::::::OOwwww",
"wwwwOO::::OOOO::OO2255555522555555555555555522,,,,OOOO::::OOwwww",
"wwwwOO::::OOOO::OO2255555522555555555555555522,,,,OOOO::::OOwwww",
"wwwwOO::::OO::::,,225555,,,,22555555555555552222,,::OO::::OOwwww",
"wwwwOO::::OO::::,,225555,,,,22555555555555552222,,::OO::::OOwwww",
"wwwwOO::::OO::OO,,2255,,,,ee,,555555555555555522,,::OO::::OOwwww",
"wwwwOO::::OO::OO,,2255,,,,ee,,555555555555555522,,::OO::::OOwwww",
"qqwwOO::::OOOOOO,,2255------ee,,5555555555555522,,,,6666::OO00ww",
"qqwwOO::::OOOOOO,,2255------ee,,5555555555555522,,,,6666::OO00ww",
"qqwwOO::::6666OO,,2255--11----ee555555555555555522,,OO::::OOwwww",
"qqwwOO::::6666OO,,2255--11----ee555555555555555522,,OO::::OOwwww",
"wwwwOO::::OO6666,,2255--rr--eeee,,5555555555555522,,OO::::OOwwww",
"wwwwOO::::OO6666,,2255--rr--eeee,,5555555555555522,,OO::::OOwwww",
"wwwwOO::::OO6666,,2255ee--eeeeee,,5555555555225522,,OO::::OOww00",
"wwwwOO::::OO6666,,2255ee--eeeeee,,5555555555225522,,OO::::OOww00",
"wwwwOO::::OO66<<,,22,,eeeeeeeeee,,5555,,5522222222,,OO::::OOwwww",
"wwwwOO::::OO66<<,,22,,eeeeeeeeee,,5555,,5522222222,,OO::::OOwwww",
"wwwwOO::::OO6666,,22,,44eeeeee,,5555,,,,2222,,2222,,OO::::OOqqww",
"wwwwOO::::OO6666,,22,,44eeeeee,,5555,,,,2222,,2222,,OO::::OOqqww",
"wwwwOO::::OOOO6666,,55,,44ee,,555555,,2222,,,,2222,,OO::::OOwwww",
"wwwwOO::::OOOO6666,,55,,44ee,,555555,,2222,,,,2222,,OO::::OOwwww",
"wwwwOO::::OO::OO66,,55,,,,oo,,55,,,,2222,,,,222222,,OO::::OOwwww",
"wwwwOO::::OO::OO66,,55,,,,oo,,55,,,,2222,,,,222222,,OO::::OOwwww",
"wwwwOOOO::OO::OO&&,,55,,oooooo,,,,222222,,,,222222,,OO::OOOOwwww",
"wwwwOOOO::OO::OO&&,,55,,oooooo,,,,222222,,,,222222,,OO::OOOOwwww",
"wwwwwwOOOOOOOOOO&&,,55,,oo%%oooo,,2222,,,,,,222222,,OOOOOO00wwww",
"wwwwwwOOOOOOOOOO&&,,55,,oo%%oooo,,2222,,,,,,222222,,OOOOOO00wwww",
"wwwwwwwwOOOOOOOOOO,,55oo%%%%oo**,,22,,,,,,,,,,22,,OOOOOOwwwwwwww",
"wwwwwwwwOOOOOOOOOO,,55oo%%%%oo**,,22,,,,,,,,,,22,,OOOOOOwwwwwwww",
"wwwwwwqqqq00wwwwwwww,,oo%%oo**>>>>,,,,22,,**,,22,,wwwwwwwwwwwwww",
"wwwwwwqqqq00wwwwwwww,,oo%%oo**>>>>,,,,22,,**,,22,,wwwwwwwwwwwwww",
"wwwwwwwwwwwwwwwwwwwwww==oo**>>>>>>>>**,,******,,wwwwwwwwwwwwwwww",
"wwwwwwwwwwwwwwwwwwwwww==oo**>>>>>>>>**,,******,,wwwwwwwwwwwwwwww",
"wwwwwwwwwwwwwwwwqq00qq==33**>>>>>>>>>>**>>>>**wwqqwwwwwwwwwwwwww",
"wwwwwwwwwwwwwwwwqq00qq==33**>>>>>>>>>>**>>>>**wwqqwwwwwwwwwwwwww",
"ww0000wwwwwwwwwwwwwwww==33**>>>>>>>>>>>>>>>>**wwwwwwww00wwwwwwww",
"ww0000wwwwwwwwwwwwwwww==33**>>>>>>>>>>>>>>>>**wwwwwwww00wwwwwwww",
"00009900qqqqqqwwwwwwww==3333**>>>>>>>>>>>>>>>>**ww0000wwwwqqwwww",
"00009900qqqqqqwwwwwwww==3333**>>>>>>>>>>>>>>>>**ww0000wwwwqqwwww",
"88ww00qqqqqqwwqqwwwwwwww==33****>>>>>>>>>>>>>>**wwwwwwwwww00wwww",
"88ww00qqqqqqwwqqwwwwwwww==33****>>>>>>>>>>>>>>**wwwwwwwwww00wwww",
"qqwwwwwwwwwwwwwwwwwwwwww==3333**>>>>>>>>>>>>>>****wwwwwwwwwwwwww",
"qqwwwwwwwwwwwwwwwwwwwwww==3333**>>>>>>>>>>>>>>****wwwwwwwwwwwwww",
"wwqqwwwwwwwwwwww0000wwww==3333****>>>>>>>>>>>>>>**wwwwwwwwwwwwqq",
"wwqqwwwwwwwwwwww0000wwww==3333****>>>>>>>>>>>>>>**wwwwwwwwwwwwqq",
"00wwwwwwwwwwwwwwwwwwwwww##@@3333****>>>>>>>>>>>>**wwwwwwwwwwwwqq",
"00wwwwwwwwwwwwwwwwwwwwww##@@3333****>>>>>>>>>>>>**wwwwwwwwwwwwqq",
"00wwwwwwqqwwqqwwwwwwwwqq##@@@@@@==**>>>>>>>>>>>>**wwwwwwwwww0qqq",
"00wwwwwwqqwwqqwwwwwwwwqq##@@@@@@==**>>>>>>>>>>>>**wwwwwwwwww0qwq",
"qqww0000qq000000wwwwww##$$;;;;;;--**>>>>>>>>>>****wwwwwwwwwwwwww",
"qqww0000qq000000wwwwww##$$;;;;;;--**>>>>>>>>>>****wwwwwwwwwwwwww",
"qqqqwwqqwwqqwwqqqqqqqq$$$$;;;;;;--**>>>>>>>>******00wwwwwwwwqqww",
"qqqqwwqqwwqqwwqqqqqqqq$$$$;;;;;;--**>>>>>>>>******00wwwwwwwwqqww",
"wwwwwwwwwwwwwwwwwwww##$$;;;;;;--44**>>>>>>******qqwwwwwwwwwwwwww",
"wwwwwwwwwwwwwwwwwwww##$$;;;;;;--44**>>>>>>******qqwwwwwwwwwwwwww",
"wwwwwwwwwwwwwwwwww####$$;;;;;;--44**>>>>****##8800wwwwwwwwwwwwww",
"wwwwwwwwwwwwwwwwww####$$;;;;;;--44**>>>>****##8800wwwwwwwwwwwwww",
"wwwwwwwwwwwwwwwwww##$$;;;;;;;;----**>>****$$##wwwwwwwwwwqq00wwww",
"wwwwwwwwwwwwwwwwww##$$;;;;;;;;----**>>****$$##wwwwwwwwwwqq00wwww",
"wwwwwwwwwwwwwwww####$$;;;;;;;;;;;;******;;$$####wwwwwwwwwwwwwwww",
"wwwwwwwwwwwwwwww####$$;;;;;;;;;;;;******;;$$####wwwwwwwwwwwwwwww",
"wwwwwwwwwwwwwwww##$$$$;;;;;;;;;;;;;;**;;;;$$$$##wwwwwwqqwwwwwwww",
"wwwwwwwwwwwwwwww##$$$$;;;;;;;;;;;;;;**;;;;$$$$##wwwwwwqqwwwwwwww",
"wwwwwwwwwwwwwwww##$$;;;;;;;;;;;;;;;;;;;;;;;;$$##wwwwwwww88wwwwww",
"wwwwwwwwwwwwwwww##$$;;;;;;;;;;;;;;;;;;;;;;;;$$##wwwwwwww88wwwwww",
"wwwwwwwwwwwwqq####$$;;;;;;;;;;;;;;;;;;;;;;;;$$####wwwwwwwwwwwwww",
"wwwwwwwwwwwwqq####$$;;;;;;;;;;;;;;;;;;;;;;;;$$####wwwwwwwwwwwwww",
"wwwwwwwwwwwwww##$$;;;;;;;;;;;;;;;;;;;;;;;;;;;;$$##wwwwwwwwwwwwww",
"wwwwwwwwwwwwww##$$;;;;;;;;;;;;;;;;;;;;;;;;;;;;$$##wwwwwwwwwwwwww",
"wwwwwwwwwwww##$$$$;;;;;;;;;;;;;;;;;;;;;;;;;;;;$$$$##qqwwwwqqwwww",
"wwwwwwwwwwww##$$$$;;;;;;;;;;;;;;;;;;;;;;;;;;;;$$$$##qqwwwwqqwwww",
"qqwwwwwwwwww##$$$$;;;;;;;;;;;;;;;;;;;;;;;;;;;;$$$$##wwwwwwqq00ww",
"qqwwwwwwwwww##$$$$;;;;;;;;;;;;;;;;;;;;;;;;;;;;$$$$##wwwwwwqq00ww",
"qqwwwwwwwwww####$$;;;;;;;;;;;;;;;;;;;;;;;;;;;;$$####wwwwwwwwwwww",
"qqwwwwwwwwww####$$;;;;;;;;;;;;;;;;;;;;;;;;;;;;$$####wwwwwwwwwwww",
"wwwwwwwwwwwwww####$$;;;;;;;;;;;;;;;;;;;;;;;;$$####00wwwwwwwwwwww",
"wwwwwwwwwwwwww####$$;;;;;;;;;;;;;;;;;;;;;;;;$$####00wwwwwwwwwwww",
"wwwwww00wwwwwwww####$$;;;;;;;;;;;;;;;;;;;;$$####00wwwwwwww00ww00",
"wwwwww00wwwwwwww####$$;;;;;;;;;;;;;;;;;;;;$$####00wwwwwwww00ww00",
"wwwwwwww00qqwwww00######$$$$$$$$$$$$$$$$######wwwwwwwwwwwwwwwwww",
"wwwwwwww00qqwwww00######$$$$$$$$$$$$$$$$######wwwwwwwwwwwwwwwwww",
"wwwwwwwwwwwwwwqqqqww########################wwqqwwwwwwww00wwq0qq",
"wwwwwwwwwwwwwwqqqqww########################wwqqwwwwwwww00ww00qq",
"wwwwwwwwwwwwqqqqwwww00qqww  ++++  ++++  wwww00wwqqwwwwwwww00wwww",
"wwwwwwwwwwwwqqqqwwww00qqww  ++++  ++++  wwww00wwqqwwwwwwww00wwww",
"wwwwwwwwwwwwwwwwqqqq00ww  ++++++  ++XX  00wwwwwwwwwwwwwwwwwwwwww",
"wwwwwwwwwwwwwwwwqqqq00ww  ++++++  ++XX  00wwwwwwwwwwwwwwwwwwwwww",
"wwwwwwwwwwwwwwwwwwwwww  ++++++XX      wwwwqq7798wwwwwwwwww99wwww",
"wwwwwwwwwwwwwwwwwwwwww  ++++++XX      wwwwqq7799wwwwwwwwww00wwww",
"wwwwwwwwwwwwwwwwwwwwwwXX          wwww00990000wwwwwwwwwwqq00wwww",
"wwwwwwwwwwwwwwwwwwwwwwXX          wwww00990000wwwwwwwwwwqq00wwww",
"wwwwwwwwwwwwwwwwwwwwwwwwwwwwwwwwwwww0000wwwwwwqqww0000qqwwwwwwww",
"wwwwwwwwwwwwwwwwwwwwwwwwwwwwwwwwwwww0000wwwwwwq0ww0000qqwwwwwwww",
"wwwwwwqqqq00wwwwwwwwwwwwwwwwwwwwwwwwwwwwwwwwwwwwwwwwwwwwwwwwwwww",
"wwwwwwqqqq00wwwwwwwwwwwwwwwwwwwwwwwwwwwwwwwwwwwwwwwwwwwwwwwwwwww"
};
