/* XPM */
static char *_004[] = {
/* columns rows colors chars-per-pixel */
"64 128 30 1 ",
"  c #090806",
". c #22100F",
"X c #221C16",
"o c #3A1A18",
"O c #28241A",
"+ c #10182C",
"@ c #141F38",
"# c #392120",
"$ c #692329",
"% c #594E3A",
"& c #5C523A",
"* c #223462",
"= c #87232A",
"- c #9A2D35",
"; c #AD7939",
": c #B63A44",
"> c #EF952C",
", c #E09D34",
"< c #A9895B",
"1 c #BC9C65",
"2 c #EEB74B",
"3 c #F0BF5D",
"4 c #ACADAF",
"5 c #AEAFB0",
"6 c #AFB0B1",
"7 c #B1B2B3",
"8 c #B3B3B4",
"9 c #B7B7B7",
"0 c #FFDC8E",
"q c white",
/* pixels */
"9999999999999999999999999999999999999999999999999999999999999999",
"9999999999999999999999999999999999999999999999999999999999999999",
"9999999999999999887788999999997777999999999977998899999999999999",
"9999999999999999887788999999997777999999999977998899999999999999",
"9977779999999999999999999999999999999999999999999999997799999999",
"9977779999999999999999999999999999999999999999999999997799999999",
"7777667788888899999999999999999999999999999999999977779999889999",
"7777667788888899999999999999999999999999999999999977779999889999",
"5599778888889988999999999999999999999999999999999999999999779999",
"5599778888889988999999999999999999999999999999999999999999779999",
"8899999999999999999999999999999999999999999999999999999999999999",
"8899999999999999999999999999999999999999999999999999999999999999",
"9988999999999999777799999999999999999999999999999999999999999988",
"9988999999999999777799999999999999999999999999999999999999999988",
"7799999999999999999999999999999999999999999999999999999999999988",
"7799999999999999999999999999999999999999999999999999999999999988",
"7799999988998899999999889999999999999999999999999999999999998899",
"7799999988998899999999889999999999999999999999999999999999998899",
"8899777788777777999999999999::::--::9999999999999999999999999999",
"8899777788777777999999999999::::--::9999999999999999999999999999",
"888899789988998888887899::::--::::----::889999999977999999998799",
"888899889988998888877799::::--::::----::889999999977999999998899",
"99999999999999999999999933;;;;;;;;;;;;--::7777778899999999999999",
"99999999999999999999999933;;;;;;;;;;;;--::7777778899999999999999",
"9999999999999999999999;;;;;;,,,,,,,,;;;;;;9988557799999999999999",
"9999999999999999999999;;;;;;,,,,,,,,;;;;;;9988557799999999999999",
"99999999999999999999;;;;,,,,22222222,,,,;;;;99999999999988779999",
"99999999999999999999;;;;,,,,22222222,,,,;;;;99999999999988779999",
"999999999999999988;;;;,,,,22222222222222,,;;99999999999999999999",
"999999999999999988;;;;,,,,22222222222222,,;;99999999999999999999",
"9999999999999999;;;;,,,,222222222222222222,,;;999999998899999999",
"9999999999999999;;;;,,,,222222222222222222,,;;999999998899999999",
"9999999999999999;;,,,,2222222222222222,,22,,;;999999999955999999",
"9999999999999999;;,,,,2222222222222222,,22,,;;999999999955999999",
"99999999999988;;;;,,2222222222222222,,,,22,,;;999999999999999999",
"99999999999988;;;;,,2222222222222222,,,,22,,;;999999999999999999",
"99999999999999;;,,,,22222222222222,,;;;;2222;;998899999999999999",
"99999999999999;;,,,,22222222222222,,;;;;2222;;998899999999999999",
"99999999999988;;,,22222222222222,,;;00;;2222;;;;8888889999889999",
"99999999999988;;,,22222222222222,,;;00;;2222;;;;8888889999889999",
"889999999999;;;;,,222222222222,,;;00&&&&&&22,,;;9999999999887799",
"889999999999;;;;,,222222222222,,;;00&&&&&&22,,;;9999999999887799",
"889999999999;;,,22222222222222;;00&&&&>>&&22,,;;9999999999999999",
"889999999999;;,,22222222222222;;00&&&&>>&&22,,;;9999999999999999",
"999999999999;;,,22222222222222;;0000&&qq&&22,,;;5566999999999999",
"999999999999;;,,22222222222222;;0000&&qq&&22,,;;5566999999999999",
"999999779999;;,,22,,2222222222;;000000&&0022,,;;7799999999779977",
"999999779999;;,,22,,2222222222;;000000&&0022,,;;7799999999779977",
"999999997788;;,,,,,,,,22222222;;000000000022;;999999999999999999",
"999999997788;;,,,,,,,,22222222;;000000000022;;999999999999999999",
"999999999999;;,,,,;;,,,,22222222;;00000011;;;;889999999977998788",
"999999999999;;,,,,;;,,,,22222222;;00000011;;;;889999999977998788",
"999999999999;;,,,,;;,,,,,,;;2222;;000011;;,,;;998899999999779999",
"999999999999;;,,,,;;,,,,,,;;2222;;000011;;,,;;998899999998779999",
"999999999999;;,,,,,,;;,,,,;;222222;;XX;;;;,,;;999999999999999999",
"999999999999;;,,,,,,;;,,,,;;222222;;XX;;;;,,;;999999999999999999",
"999999999999;;,,,,,,;;,,,,;;;;2222;;XXXX,,,,;;669999999999779999",
"999999999999;;,,,,,,;;,,,,;;;;2222;;XXXX,,,,;;669999999999779999",
"999999999999;;,,,,,,;;;;,,;;;;;;22;;##XX,,;;77999999999988779999",
"999999999999;;,,,,,,;;;;,,;;;;;;22;;##XX,,;;77999999999988779999",
"999999999999;;,,,,;;;;;;;;;;$$;;22;;####XX;;99889977778899999999",
"999999999999;;,,,,;;;;;;;;;;$$;;22;;####XX;;99889977778899999999",
"999999888877;;;;,,;;$$$$;;$$$$$$;;$$XX##XX9999999999999999999999",
"999999888877;;;;,,;;$$$$;;$$$$$$;;$$XX##XX9999999999999999999999",
"99999999999999;;,,;;$$$$$$$$==$$$$$$$$XX%%9999999999999999999999",
"99999999999999;;,,;;$$$$$$$$==$$$$$$$$XX%%9999999999999999999999",
"99999999999999;;;;$$====$$======$$==$$<<%%9977998899999999999999",
"99999999999999;;;;$$====$$======$$==$$<<%%9977998899999999999999",
"99777799999999;;;;$$================$$<<%%9999999999997799999999",
"99777799999999;;;;$$================$$<<%%9999999999997799999999",
"7777667788888899$$================$$<<<<%%9999999977779999889999",
"7777667788888899$$================$$<<<<%%9999999977779999889999",
"5599778888889988$$==============$$$$<<%%999999999999999999779999",
"5599778888889988$$==============$$$$<<%%999999999999999999779999",
"88999999999999$$$$==============$$<<<<%%999999999999999999999999",
"88999999999999$$$$==============$$<<<<%%999999999999999999999999",
"99889999999999$$==============$$$$<<<<%%999999999999999999999988",
"99889999999999$$==============$$$$<<<<%%999999999999999999999988",
"77999999999999$$============$$$$<<<<%%++999999999999999999999988",
"77999999999999$$============$$$$<<<<%%++999999999999999999999988",
"77999999889988$$============$$&&OOOOOO++999999999999999999997888",
"77999999889988$$============$$&&OOOOOO++999999999999999999997898",
"88997777887777$$$$==========$$&&******@@++9999999999999999999999",
"88997777887777$$$$==========$$&&******@@++9999999999999999999999",
"88889988998899$$$$$$========$$&&******@@++9999999977999999998899",
"88889988998899$$$$$$========$$&&******@@++9999999977999999998899",
"9999999999999999$$$$$$======$$11&&******@@++77778899999999999999",
"9999999999999999$$$$$$======$$11&&******@@++77778899999999999999",
"999999999999999999++$$$$====$$11&&******@@++++556799999999999999",
"999999999999999999++$$$$====$$11&&******@@++++557799999999999999",
"999999999999999999++@@$$$$==$$&&&&********@@++999999999988779999",
"999999999999999999++@@$$$$==$$&&&&********@@++999999999988779999",
"9999999999999999++++@@**$$$$$$************@@++++9999999999999999",
"9999999999999999++++@@**$$$$$$************@@++++9999999999999999",
"9999999999999999++@@@@********************@@@@++9999998899999999",
"9999999999999999++@@@@********************@@@@++9999998899999999",
"9999999999999999++@@************************@@++9999999955999999",
"9999999999999999++@@************************@@++9999999955999999",
"99999999999988++++@@************************@@++++99999999999999",
"99999999999988++++@@************************@@++++99999999999999",
"99999999999999++@@****************************@@++99999999999999",
"99999999999999++@@****************************@@++99999999999999",
"999999999999++@@@@****************************@@@@++889999889999",
"999999999999++@@@@****************************@@@@++889999889999",
"889999999999++@@@@****************************@@@@++999999887799",
"889999999999++@@@@****************************@@@@++999999887799",
"889999999999++++@@****************************@@++++999999999999",
"889999999999++++@@****************************@@++++999999999999",
"99999999999999++++@@************************@@++++77999999999999",
"99999999999999++++@@************************@@++++77999999999999",
"9999997799999999++++@@********************@@++++7799999999779977",
"9999997799999999++++@@********************@@++++7799999999779977",
"999999997788999977++++++@@@@@@@@@@@@@@@@++++++999999999999999999",
"999999997788999977++++++@@@@@@@@@@@@@@@@++++++999999999999999999",
"99999999999999888899++++++++++++++++++++++++99889999999977998788",
"99999999999999888899++++++++++++++++++++++++99889999999977997788",
"999999999999888899997788  oooo  oooo  99999977998899999999779999",
"999999999999888899997788  oooo  oooo  99999977998899999999779999",
"999999999999999988887799  ..oo  oooooo  779999999999999999999999",
"999999999999999988887799  ..oo  oooooo  779999999999999999999999",
"99999999999999999999999999      ..oooooo  8844659999999999669999",
"99999999999999999999999999      ..oooooo  8844669999999999779999",
"999999999999999999999999998899          ..7777999999999988779999",
"999999999999999999999999998899          ..7777999999999988779999",
"9999999999999999999999999999999999997777999999889977778899999999",
"9999999999999999999999999999999999997777999999879977778899999999",
"9999998888779999999999999999999999999999999999999999999999999999",
"9999998888779999999999999999999999999999999999999999999999999999"
};
