/* XPM */
static char *_003[] = {
/* columns rows colors chars-per-pixel */
"64 128 30 1 ",
"  c #090806",
". c #22100F",
"X c #30190B",
"o c #221C16",
"O c #3A1A18",
"+ c #28241A",
"@ c #10182C",
"# c #141F38",
"$ c #392120",
"% c #4A3527",
"& c #692329",
"* c #594E3A",
"= c #5C523A",
"- c #223462",
"; c #87232A",
": c #A2501D",
"> c #AD7939",
", c #EF952C",
"< c #E09D34",
"1 c #A9895B",
"2 c #BC9C65",
"3 c #EEB74B",
"4 c #AEAFB0",
"5 c #AFB0B1",
"6 c #B1B2B3",
"7 c #B3B3B4",
"8 c #B7B7B7",
"9 c #FFDC8E",
"0 c #EBC8B5",
"q c white",
/* pixels */
"8888888888888888888888888888888888888888888888888888888888888888",
"8888888888888888888888888888888888888888888888888888888888888888",
"8888888888888888776677888888886666888888888866887788888888888888",
"8888888888888888776677888888886666888888888866887788888888888888",
"8866668888888888888888888888888888888888888888888888886688888888",
"8866668888888888888888888888888888888888888888888888886688888888",
"6666556677777788888888888888888888888888888888888866668888778888",
"6666556677777788888888888888888888888888888888888866668888778888",
"4488667777778877888888888888888888888888888888888888888888668888",
"4488667777778877888888888888888888888888888888888888888888668888",
"7788888888888888888888888888888888888888888888888888888888888888",
"7788888888888888888888888888888888888888888888888888888888888888",
"8877888888888888666688888888888888888888888888888888888888888877",
"8877888888888888666688888888888888888888888888888888888888888877",
"6688888888888888888888888888888888888888888888888888888888888877",
"6688888888888888888888888888888888888888888888888888888888888877",
"6688888877887788888888778888888888888888888888888888888888887788",
"6688888877887788888888778888888888888888888888888888888888887788",
"7788666677666666888888888888888888888888888888888888888888888888",
"7788666677666666888888888888888888888888888888888888888888888888",
"7777886788778877777767887788888888888888778888888866888888887688",
"7777887788778877777666887788888888888888778888888866888888887788",
"88888888888888888888888888>>>>>>>>>>>>77556666667788888888888888",
"88888888888888888888888888>>>>>>>>>>>>77556666667788888888888888",
"8888888888888888888888>>>>>><<<<<<<<>>>>>>8877446688888888888888",
"8888888888888888888888>>>>>><<<<<<<<>>>>>>8877446688888888888888",
"88888888888888888888>>>><<<<<<<<<<<<<<<<>>>>88888888888877668888",
"88888888888888888888>>>><<<<<<<<<<<<<<<<>>>>88888888888877668888",
"88888888888888XXXX>>>><<<<333333333333<<<<>>>>88888888XXXX888888",
"88888888888888XXXX>>>><<<<333333333333<<<<>>>>88888888XXXX888888",
"88888888888888XX>>>><<<<3333333333333333<<<<>>>>888888XX00XX8888",
"88888888888888XX>>>><<<<3333333333333333<<<<>>>>888888XX00XX8888",
"88888888888888XX>><<<<333333<<333333333333<<<<>>888888XX0000XX88",
"88888888888888XX>><<<<333333<<333333333333<<<<>>888888XX0000XX88",
"888888888888XX>>>><<333333<<<<333333>>3333<<<<>>>>88XXXXXX00XX88",
"888888888888XX>>>><<333333<<<<333333>>3333<<<<>>>>88XXXXXX00XX88",
"888888888888XX>><<<<3333<<>>>>333333>>>>3333<<<<>>XXXXXX%%XX8888",
"888888888888XX>><<<<3333<<>>>>333333>>>>3333<<<<>>XXXXXX%%XX8888",
"8888888888XX%%>><<3333<<>>99>>3333>>99>>>>3333<<>>XXXX%%%%XX8888",
"8888888888XX%%>><<3333<<>>99>>3333>>99>>>>3333<<>>XXXX%%%%XX8888",
"77888888XXXX>><<<<3333>>======33>>======>>>>33<<<<>>XX%%::XX6688",
"77888888XXXX>><<<<3333>>======33>>======>>>>33<<<<>>XX%%::XX6688",
"77888888XX%%>><<3333>>====,,==>>99==,,====>>33<<<<>>%%::::XX8888",
"77888888XX%%>><<3333>>====,,==>>99==,,====>>33<<<<>>%%::::XX8888",
"888888XXXX::>><<3333>>99==qq==9999==qq==99>>3333<<>>::::XX888888",
"888888XXXX::>><<3333>>99==qq==9999==qq==99>>3333<<>>::::XX888888",
"888888XX::XX>>3333>>>>9999==99999999==9999>>3333<<>>::::XX668866",
"888888XX::XX>>3333>>>>9999==99999999==9999>>3333<<>>::::XX668866",
"8888XXXXXXXX>>3333>>>>229999999999999999>>333333>>>>%%::XX888888",
"8888XXXXXXXX>>3333>>>>229999999999999999>>333333>>>>%%::XX888888",
"8888XX::XXXX>>3333>>>>>>2299999999999922>>3333>><<>>%%%%XX887777",
"8888XX::XXXX>>3333>>>>>>2299999999999922>>3333>><<>>%%%%XX887787",
"8888XX::%%XX>>3333>>>>>>>>229999999922>>>>>>33>><<>>%%XXXX668888",
"8888XX::%%XX>>3333>>>>>>>>229999999922>>>>>>33>><<>>%%XXXX668888",
"8888XXXX::%%>>3333>>>>>>oooo++2222++oooo>>>>33>><<>>XXXX88888888",
"8888XXXX::%%>>3333>>>>>>oooo++2222++oooo>>>>33>><<>>XXXX88888888",
"888888XXXX::>>33>>>>oooo$$oooo++++oooo$$oooo>><<>>XXXX8888668888",
"888888XXXX::>>33>>>>oooo$$oooo++++oooo$$oooo>><<>>XXXX8888668888",
"88888888XXXX>>33>>oo$$$$$$$$$$oooo$$$$$$$$oooo<<>>XX888877668888",
"88888888XXXX>>33>>oo$$$$$$$$$$oooo$$$$$$$$oooo<<>>XX888877668888",
"888888888888>>33>>&&oooo$$$$oo$$$$oo$$$$oooo&&>>8877667788888888",
"888888888888>>33>>&&oooo$$$$oo$$$$oo$$$$oooo&&>>8877667788888888",
"88888877776688>>&&;;;;;;oo$$oo$$$$oo$$oo;;;;;;&&8888888888888888",
"88888877776688>>&&;;;;;;oo$$oo$$$$oo$$oo;;;;;;&&8888888888888888",
"8888888888888888&&;;;;;;;;oo$$oooo$$oo;;;;;;;;&&8888888888888888",
"8888888888888888&&;;;;;;;;oo$$oooo$$oo;;;;;;;;&&8888888888888888",
"88888888888888&&;;;;;;;;;;;;11111111;;;;;;;;;;;;&&88888888888888",
"88888888888888&&;;;;;;;;;;;;11111111;;;;;;;;;;;;&&88888888888888",
"88666688888888&&;;;;;;;;1111111111111111;;;;;;;;&&88886688888888",
"88666688888888&&;;;;;;;;1111111111111111;;;;;;;;&&88886688888888",
"666655667777&&;;;;;;;;11111111111111111111;;;;;;;;&&668888778888",
"666655667777&&;;;;;;;;11111111111111111111;;;;;;;;&&668888778888",
"448866777777&&;;;;;;;;11111111111111111111;;;;;;;;&&888888668888",
"448866777777&&;;;;;;;;11111111111111111111;;;;;;;;&&888888668888",
"778888888888&&;;;;;;++**1111111111111111**++;;;;;;&&888888888888",
"778888888888&&;;;;;;++**1111111111111111**++;;;;;;&&888888888888",
"887788888888&&;;;;;;++****111111111111****++;;;;;;&&888888888877",
"887788888888&&;;;;;;++****111111111111****++;;;;;;&&888888888877",
"6688888888&&;;;;;;22==++****************++==22;;;;;;&&8888888877",
"6688888888&&;;;;;;22==++****************++==22;;;;;;&&8888888877",
"6688888877&&;;;;==22==@@++++++++++++++++@@==22==;;;;&&8888886777",
"6688888877&&;;;;==22==@@++++++++++++++++@@==22==;;;;&&8888886787",
"7788666677&&;;;;22==@@@@##------------##@@@@==22;;;;&&8888888888",
"7788666677&&;;;;22==@@@@##------------##@@@@==22;;;;&&8888888888",
"77778877&&;;;;;;22==@@####------------####@@==22;;;;;;&&88887788",
"77778877&&;;;;;;22==@@####------------####@@==22;;;;;;&&88887788",
"88888888&&;;;;22====@@##----------------##@@====22;;;;&&88888888",
"88888888&&;;;;22====@@##----------------##@@====22;;;;&&88888888",
"88888888&&;;;;22==@@@@##----------------##@@@@==22;;;;&&88888888",
"88888888&&;;;;22==@@@@##----------------##@@@@==22;;;;&&88888888",
"88888888&&;;;;====@@##--------------------##@@====;;;;&&77668888",
"88888888&&;;;;====@@##--------------------##@@====;;;;&&77668888",
"88888888&&;;&&&&@@@@##--------------------##@@@@&&&&;;&&88888888",
"88888888&&;;&&&&@@@@##--------------------##@@@@&&&&;;&&88888888",
"88888888&&&&&&88@@####--------------------####@@88&&&&&&88888888",
"88888888&&&&&&88@@####--------------------####@@88&&&&&&88888888",
"8888888888888888@@##------------------------##@@8888888844888888",
"8888888888888888@@##------------------------##@@8888888844888888",
"88888888888877@@@@##------------------------##@@@@88888888888888",
"88888888888877@@@@##------------------------##@@@@88888888888888",
"88888888888888@@##----------------------------##@@88888888888888",
"88888888888888@@##----------------------------##@@88888888888888",
"888888888888@@####----------------------------####@@778888778888",
"888888888888@@####----------------------------####@@778888778888",
"778888888888@@####----------------------------####@@888888776688",
"778888888888@@####----------------------------####@@888888776688",
"778888888888@@@@##----------------------------##@@@@888888888888",
"778888888888@@@@##----------------------------##@@@@888888888888",
"88888888888888@@@@##------------------------##@@@@66888888888888",
"88888888888888@@@@##------------------------##@@@@66888888888888",
"8888886688888888@@@@##--------------------##@@@@6688888888668866",
"8888886688888888@@@@##--------------------##@@@@6688888888668866",
"888888886677888866@@@@####################@@@@888888888888888888",
"888888886677888866@@@@####################@@@@888888888888888888",
"88888888888888777788@@@@@@@@@@@@@@@@@@@@@@@@88778888888866887677",
"88888888888888777788@@@@@@@@@@@@@@@@@@@@@@@@88778888888866886677",
"88888888888877778888  OOOOOO  8888  OOOOOO  66887788888888668888",
"88888888888877778888  OOOOOO  8888  OOOOOO  66887788888888668888",
"888888888888888877  OOOOOO..  8888  ..OOOOOO  888888888888888888",
"888888888888888877  OOOOOO..  8888  ..OOOOOO  888888888888888888",
"888888888888888888  OOOO..  88886677  ..OOOO  558888888888558888",
"888888888888888888  OOOO..  88886677  ..OOOO  558888888888668888",
"888888888888888888..      778888778888      ..888888888877668888",
"888888888888888888..      778888778888      ..888888888877668888",
"8888888888888888888888888888888888886666888888778866667788888888",
"8888888888888888888888888888888888886666888888778866667788888888",
"8888887777668888888888888888888888888888888888888888888888888888",
"8888887777668888888888888888888888888888888888888888888888888888"
};
