/* XPM */
static char *_005[] = {
/* columns rows colors chars-per-pixel */
"64 128 31 1 ",
"  c #090806",
". c #1A0808",
"X c #200909",
"o c #300000",
"O c #3E0D03",
"+ c #22100F",
"@ c #221C16",
"# c #3A1A18",
"$ c #28241A",
"% c #10182C",
"& c #141F38",
"* c #392120",
"= c #692329",
"- c #594E3A",
"; c #5C523A",
": c #223462",
"> c #87232A",
", c #AD7939",
"< c #EF952C",
"1 c #E09D34",
"2 c #A9895B",
"3 c #BC9C65",
"4 c #EEB74B",
"5 c #ACADAF",
"6 c #AEAFB0",
"7 c #AFB0B1",
"8 c #B1B2B3",
"9 c #B3B3B4",
"0 c #B7B7B7",
"q c #FFDC8E",
"w c white",
/* pixels */
"XXXXXXXXXXXXXXXXXXXXXXXXXXXXXXXXXXXXXXXXXXXXXXXXXXXXXXXXXXXXXXXX",
"XXXXXXXXXXXXXXXXXXXXXXXXXXXXXXXXXXXXXXXXXXXXXXXXXXXXXXXXXXXXXXXX",
"XX..............XXXXXXXXXXXXXXXXXXXXXXXXXXXXXX..............XXXX",
"XX..............XXXXXXXXXXXXXXXXXXXXXXXXXXXXXX..............XXXX",
"XX..XXXXXXXXXX..XXXXXX................XXXXXXXX..XXXXXXXXXX..XXXX",
"XX..XXXXXXXXXX..XXXXXX................XXXXXXXX..XXXXXXXXXX..XXXX",
"XX..XXXXXXXXXX..XXXXXX..XXXXXXXXXXXX..XXXXXXXX..XXXXXXXXXX..XXXX",
"XX..XXXXXXXXXX..XXXXXX..XXXXXXXXXXXX..XXXXXXXX..XXXXXXXXXX..XXXX",
"XX..............XXXXXX..XXXXXXXXXXXX..XXXXXXXX..............XXXX",
"XX..............XXXXXX..XXXXXXXXXXXX..XXXXXXXX..............XXXX",
"XXXXXXXXXXXXXXXXXXXXXX................XXXXXXXXXXXXXXXXXXXXXXXXXX",
"XXXXXXXXXXXXXXXXXXXXXX................XXXXXXXXXXXXXXXXXXXXXXXXXX",
"XXXXXXXXXXXXXXXXXXXXXXXXXXXXXXXXXXXXXXXXXXXXXXXXXXXXXXXXXXXXXXXX",
"XXXXXXXXXXXXXXXXXXXXXXXXXXXXXXXXXXXXXXXXXXXXXXXXXXXXXXXXXXXXXXXX",
"oooooooooooooooooooooooooooooooooooooooooooooooooooooooooooooooo",
"oooooooooooooooooooooooooooooooooooooooooooooooooooooooooooooooo",
"OOOOOOOOOOOOOOOOooooooOOOOOOOOOOOOOOooooooOOOOOOOOOOOOOOooooooOO",
"OOOOOOOOOOOOOOOOooooooOOOOOOOOOOOOOOooooooOOOOOOOOOOOOOOooooooOO",
"OOOOOOOOOOOOOOOOOOooOOOOOOOOOOOOOOOOOOooOOOOOOOOOOOOOOOOOOooOOOO",
"OOOOOOOOOOOOOOOOOOooOOOOOOOOOOOOOOOOOOooOOOOOOOOOOOOOOOOOOooOOOO",
"OOOOOOOOOOOOOOOOOOooOOOOOOOOOOOOOOOOOOooOOOOOOOOOOOOOOOOOOooOOOO",
"OOOOOOOOOOOOOOOOOOooOOOOOOOOOOOOOOOOOOooOOOOOOOOOOOOOOOOOOooOOOO",
"OOOOOOOOOOOOOOOOooooooOOOO,,,,,,,,,,,,ooooOOOOOOOOOOOOOOooooooOO",
"OOOOOOOOOOOOOOOOooooooOOOO,,,,,,,,,,,,ooooOOOOOOOOOOOOOOooooooOO",
"oooooooooooooooooooooo,,,,,,11111111,,,,,,oooooooooooooooooooooo",
"oooooooooooooooooooooo,,,,,,11111111,,,,,,oooooooooooooooooooooo",
"OOOOOOooooooOOOOOOOO,,,,1111114444441111,,,,OOOOOOooooooOOOOOOOO",
"OOOOOOooooooOOOOOOOO,,,,1111114444441111,,,,OOOOOOooooooOOOOOOOO",
"OOOOOOOOooOOOOOOOOOO,,11114444444444441111,,,,OOOOOOooOOOOOOOOOO",
"OOOOOOOOooOOOOOOOOOO,,11114444444444441111,,,,OOOOOOooOOOOOOOOOO",
"OOOOOOOOooOOOOOOOO,,111144444444444444441111,,,,OOOOooOOOOOOOOOO",
"OOOOOOOOooOOOOOOOO,,111144444444444444441111,,,,OOOOooOOOOOOOOOO",
"OOOOOOooooooOOOOOO,,11444444444444444444441111,,OOooooooOOOOOOOO",
"OOOOOOooooooOOOOOO,,11444444444444444444441111,,OOooooooOOOOOOOO",
"oooooooooooooooooo1144444411444444444444444411,,,,oooooooooooooo",
"oooooooooooooooooo1144444411444444444444444411,,,,oooooooooooooo",
"OOOOOOOOOOOOOOOO,,114444,,,,11444444444444441111,,OOOOOOooooooOO",
"OOOOOOOOOOOOOOOO,,114444,,,,11444444444444441111,,OOOOOOooooooOO",
"OOOOOOOOOOOOOOOO,,1144,,,,qq,,444444444444444411,,OOOOOOOOooOOOO",
"OOOOOOOOOOOOOOOO,,1144,,,,qq,,444444444444444411,,OOOOOOOOooOOOO",
"OOOOOOOOOOOOOOOO,,1144;;;;;;qq,,4444444444444411,,,,OOOOOOooOOOO",
"OOOOOOOOOOOOOOOO,,1144;;;;;;qq,,4444444444444411,,,,OOOOOOooOOOO",
"OOOOOOOOOOOOOOOO,,1144;;<<;;;;qq444444444444444411,,OOOOooooooOO",
"OOOOOOOOOOOOOOOO,,1144;;<<;;;;qq444444444444444411,,OOOOooooooOO",
"oooooooooooooooo,,1144;;ww;;qqqq,,4444444444444411,,oooooooooooo",
"oooooooooooooooo,,1144;;ww;;qqqq,,4444444444444411,,oooooooooooo",
"OOOOOOooooooOOOO,,1144qq;;qqqqqq,,4444444444114411,,ooooOOOOOOOO",
"OOOOOOooooooOOOO,,1144qq;;qqqqqq,,4444444444114411,,ooooOOOOOOOO",
"OOOOOOOOooOOOOOO,,11,,qqqqqqqqqq,,4444,,4411111111,,ooOOOOOOOOOO",
"OOOOOOOOooOOOOOO,,11,,qqqqqqqqqq,,4444,,4411111111,,ooOOOOOOOOOO",
"OOOOOOOOooOOOOOO,,11,,33qqqqqq,,4444,,,,1111,,1111,,ooOOOOOOOOOO",
"OOOOOOOOooOOOOOO,,11,,33qqqqqq,,4444,,,,1111,,1111,,ooOOOOOOOOOO",
"OOOOOOooooooOOOOOO,,44,,33qq,,444444,,1111,,,,1111,,ooooOOOOOOOO",
"OOOOOOooooooOOOOOO,,44,,33qq,,444444,,1111,,,,1111,,ooooOOOOOOOO",
"oooooooooooooooooo,,44,,,,@@,,44,,,,1111,,,,111111,,oooooooooooo",
"oooooooooooooooooo,,44,,,,@@,,44,,,,1111,,,,111111,,oooooooooooo",
"OOOOOOOOOOOOOOOOoo,,44,,@@@@@@,,,,111111,,,,111111,,OOOOOOoooooo",
"OOOOOOOOOOOOOOOOoo,,44,,@@@@@@,,,,111111,,,,111111,,OOOOOOoooooo",
"OOOOOOOOOOOOOOOOOO,,44,,@@**@@@@,,1111,,,,,,111111,,OOOOOOOOooOO",
"OOOOOOOOOOOOOOOOOO,,44,,@@**@@@@,,1111,,,,,,111111,,OOOOOOOOooOO",
"OOOOOOOOOOOOOOOOOO,,44@@****@@==,,11,,,,,,,,,,11,,OOOOOOOOOOooOO",
"OOOOOOOOOOOOOOOOOO,,44@@****@@==,,11,,,,,,,,,,11,,OOOOOOOOOOooOO",
"OOOOOOOOOOOOOOOOoooo,,@@**@@==>>>>,,,,11,,==,,11,,OOOOOOOOoooooo",
"OOOOOOOOOOOOOOOOoooo,,@@**@@==>>>>,,,,11,,==,,11,,OOOOOOOOoooooo",
"0000000000000000000000--@@==>>>>>>>>==,,======,,0000000000000000",
"0000000000000000000000--@@==>>>>>>>>==,,======,,0000000000000000",
"0000000000000000998899--22==>>>>>>>>>>==>>>>==009900000000000000",
"0000000000000000998899--22==>>>>>>>>>>==>>>>==009900000000000000",
"0088880000000000000000--22==>>>>>>>>>>>>>>>>==000000008800000000",
"0088880000000000000000--22==>>>>>>>>>>>>>>>>==000000008800000000",
"8888778899999900000000--2222==>>>>>>>>>>>>>>>>==0088880000990000",
"8888778899999900000000--2222==>>>>>>>>>>>>>>>>==0088880000990000",
"660088999999009900000000--22====>>>>>>>>>>>>>>==0000000000880000",
"660088999999009900000000--22====>>>>>>>>>>>>>>==0000000000880000",
"990000000000000000000000--2222==>>>>>>>>>>>>>>====00000000000000",
"990000000000000000000000--2222==>>>>>>>>>>>>>>====00000000000000",
"009900000000000088880000--2222====>>>>>>>>>>>>>>==00000000000099",
"009900000000000088880000--2222====>>>>>>>>>>>>>>==00000000000099",
"880000000000000000000000%%$$2222====>>>>>>>>>>>>==00000000000099",
"880000000000000000000000%%$$2222====>>>>>>>>>>>>==00000000000099",
"880000009900990000000099%%$$$$$$--==>>>>>>>>>>>>==00000000008999",
"880000009900990000000099%%$$$$$$--==>>>>>>>>>>>>==00000000008909",
"9900888899888888000000%%&&::::::;;==>>>>>>>>>>====00000000000000",
"9900888899888888000000%%&&::::::;;==>>>>>>>>>>====00000000000000",
"9999009900990099999999&&&&::::::;;==>>>>>>>>======88000000009900",
"9999009900990099999999&&&&::::::;;==>>>>>>>>======88000000009900",
"00000000000000000000%%&&::::::;;33==>>>>>>======9900000000000000",
"00000000000000000000%%&&::::::;;33==>>>>>>======9900000000000000",
"000000000000000000%%%%&&::::::;;33==>>>>====%%668800000000000000",
"000000000000000000%%%%&&::::::;;33==>>>>====%%668800000000000000",
"000000000000000000%%&&::::::::;;;;==>>====&&%%000000000099880000",
"000000000000000000%%&&::::::::;;;;==>>====&&%%000000000099880000",
"0000000000000000%%%%&&::::::::::::======::&&%%%%0000000000000000",
"0000000000000000%%%%&&::::::::::::======::&&%%%%0000000000000000",
"0000000000000000%%&&&&::::::::::::::==::::&&&&%%0000009900000000",
"0000000000000000%%&&&&::::::::::::::==::::&&&&%%0000009900000000",
"0000000000000000%%&&::::::::::::::::::::::::&&%%0000000066000000",
"0000000000000000%%&&::::::::::::::::::::::::&&%%0000000066000000",
"00000000000099%%%%&&::::::::::::::::::::::::&&%%%%00000000000000",
"00000000000099%%%%&&::::::::::::::::::::::::&&%%%%00000000000000",
"00000000000000%%&&::::::::::::::::::::::::::::&&%%00000000000000",
"00000000000000%%&&::::::::::::::::::::::::::::&&%%00000000000000",
"000000000000%%&&&&::::::::::::::::::::::::::::&&&&%%990000990000",
"000000000000%%&&&&::::::::::::::::::::::::::::&&&&%%990000990000",
"990000000000%%&&&&::::::::::::::::::::::::::::&&&&%%000000998800",
"990000000000%%&&&&::::::::::::::::::::::::::::&&&&%%000000998800",
"990000000000%%%%&&::::::::::::::::::::::::::::&&%%%%000000000000",
"990000000000%%%%&&::::::::::::::::::::::::::::&&%%%%000000000000",
"00000000000000%%%%&&::::::::::::::::::::::::&&%%%%88000000000000",
"00000000000000%%%%&&::::::::::::::::::::::::&&%%%%88000000000000",
"0000008800000000%%%%&&::::::::::::::::::::&&%%%%8800000000880088",
"0000008800000000%%%%&&::::::::::::::::::::&&%%%%8800000000880088",
"000000008899000088%%%%%%&&&&&&&&&&&&&&&&%%%%%%000000000000000000",
"000000008899000088%%%%%%&&&&&&&&&&&&&&&&%%%%%%000000000000000000",
"00000000000000999900%%%%%%%%%%%%%%%%%%%%%%%%00990000000088009899",
"00000000000000999900%%%%%%%%%%%%%%%%%%%%%%%%00990000000088008899",
"00000000000099990000889900  ####  ####  000088009900000000880000",
"00000000000099990000889900  ####  ####  000088009900000000880000",
"000000000000000099998800  ######  ##++  880000000000000000000000",
"000000000000000099998800  ######  ##++  880000000000000000000000",
"0000000000000000000000  ######X+      00009955760000000000770000",
"0000000000000000000000  ######++      00009955770000000000880000",
"0000000000000000000000++          000088778888000000000099880000",
"0000000000000000000000++          000088778888000000000099880000",
"0000000000000000000000000000000000008888000000990088889900000000",
"0000000000000000000000000000000000008888000000980088889900000000",
"0000009999880000000000000000000000000000000000000000000000000000",
"0000009999880000000000000000000000000000000000000000000000000000"
};
