/* XPM */
static char *_006[] = {
/* columns rows colors chars-per-pixel */
"64 128 34 1 ",
"  c #090806",
". c #22100F",
"X c #221C16",
"o c #231818",
"O c #3A1A18",
"+ c #28241A",
"@ c #10182C",
"# c #141F38",
"$ c #392120",
"% c #692329",
"& c #56443E",
"* c #594E3A",
"= c #5C523A",
"- c #223462",
"; c #4C4343",
": c #87232A",
"> c #AD7939",
", c #D57B47",
"< c #EF952C",
"1 c #E09D34",
"2 c #A9895B",
"3 c #BC9C65",
"4 c #F19B5E",
"5 c #EEB74B",
"6 c #F1BD61",
"7 c #FFC37F",
"8 c #AEAFB0",
"9 c #AFB0B1",
"0 c #B1B2B3",
"q c #B3B3B4",
"w c #B7B7B7",
"e c #FFDC8E",
"r c #ECD2B2",
"t c white",
/* pixels */
"wwwwwwwwwwwwwwwwwwwwwwwwwwwwwwwwwwwwwwwwwwwwwwwwwwwwwwwwwwwwwwww",
"wwwwwwwwwwwwwwwwwwwwwwwwwwwwwwwwwwwwwwwwwwwwwwwwwwwwwwwwwwwwwwww",
"wwwwrrrrwwwwwwwwqq00rrrrwwwwww0000wwwwwwwwrrrrrrqqwwwwwwrrrrwwww",
"wwwwrrrrwwwwwwwwqq00rrrrwwwwww0000wwwwwwwwrrrrrrqqwwwwwwrrrrwwww",
"ww0000rrrrrrwwwwwwwwwwrrrrwwwwwwwwwwwwwwwwrrwwwwwwwwwwrrrrwwwwww",
"ww0000rrrrrrwwwwwwwwwwrrrrwwwwwwwwwwwwwwwwrrwwwwwwwwwwrrrrwwwwww",
"00009900qqrrrrwwwwwwwwwwrrrrrrwwwwwwwwrrrrwwwwwwww00rrrrwwqqwwww",
"00009900qqrrrrwwwwwwwwwwrrrrrrwwwwwwwwrrrrwwwwwwww00rrrrwwqqwwww",
"88ww00qqqqqqrrqqwwwwwwwwwwwwwwwwwwwwwwwwwwwwwwwwwwrrrrwwww00wwww",
"88ww00qqqqqqrrqqwwwwwwwwwwwwwwwwwwwwwwwwwwwwwwwwwwrrrrwwww00wwww",
"qqwwwwwwwwwwwwwwwwwwwwoooooooooooooooooooowwwwwwwwwwwwwwwwwwrrww",
"qqwwwwwwwwwwwwwwwwwwwwoooooooooooooooooooowwwwwwwwwwwwwwwwwwrrww",
"wwrrrrwwwwwwwwwwoooooooooo;;;;;;;;;;;;oooooooooowwwwwwwwwwrrrrqq",
"wwrrrrwwwwwwwwwwoooooooooo;;;;;;;;;;;;oooooooooowwwwwwwwwwrrrrqq",
"00wwrrrrwwwwwwoooooo;;;;;;oooooooooooo;;;;;;oooooowwwwwwrrrrwwqq",
"00wwrrrrwwwwwwoooooo;;;;;;oooooooooooo;;;;;;oooooowwwwwwrrrrwwqq",
"00wwwwrrrrwwoooo;;;;;;oooooo44444444oooooo;;;;;;oooowwwwrrwwqqww",
"00wwwwrrrrwwoooo;;;;;;oooooo44444444oooooo;;;;;;oooowwwwrrwwqqww",
"qqww0000rr00oo;;;;oooo44444444774444444444oooo;;;;oowwwwwwwwwwww",
"qqww0000rr00oo;;;;oooo44444444774444444444oooo;;;;oowwwwwwwwwwww",
"qqqqwwqqwwqqoo;;oooo444444444444444477444444oooo;;oowwwwwwwwq0ww",
"qqqqwwqqwwqqoo;;oooo444444444444444477444444oooo;;oowwwwwwwwqqww",
"wwwwwwwwwwwwoooooo44447744>>>>>>>>>>>>44774444oooooowwwwwwwwwwww",
"wwwwwwwwwwwwoooooo44447744>>>>>>>>>>>>44774444oooooowwwwwwwwwwww",
"wwwwwwwwwwwwoooooooo44>>>>>>11111111>>>>>>44oooooooowwwwwwwwwwww",
"wwwwwwwwwwwwoooooooo44>>>>>>11111111>>>>>>44oooooooowwwwwwwwwwww",
"wwwwwwwwwwoooo;;;;oo>>>>1111111111111111>>>>oo;;;;oooowwqq00wwww",
"wwwwwwwwwwoooo;;;;oo>>>>1111111111111111>>>>oo;;;;oooowwqq00wwww",
"wwwwwwwwoooo;;;;;;>>>>11115555555555551111>>>>;;;;;;oooowwwwwwww",
"wwwwwwwwoooo;;;;;;>>>>11115555555555551111>>>>;;;;;;oooowwwwwwww",
"wwwwwwwwoo;;;;;;>>>>111155555555555555551111>>>>;;;;;;oowwwwwwww",
"wwwwwwwwoo;;;;;;>>>>111155555555555555551111>>>>;;;;;;oowwwwwwww",
"wwwwwwoooo;;;;;;>>1111555555115555555555551111>>;;;;;;oooowwwwww",
"wwwwwwoooo;;;;;;>>1111555555115555555555551111>>;;;;;;oooowwwwww",
"wwwwwwoo;;;;;;>>>>115555551111555555>>55551111>>>>;;;;;;oo66wwww",
"wwwwwwoo;;;;;;>>>>115555551111555555>>55551111>>>>;;;;;;oo66wwww",
"wwww66oo66;;;;>>1111555511>>>>555555>>>>55551111>>;;;;66oowwwwww",
"wwww66oo66;;;;>>1111555511>>>>555555>>>>55551111>>;;;;66oowwwwww",
"wwwwww666666;;>>11555511>>ee>>5555>>ee>>>>555511>>;;666666qqwwww",
"wwwwww666666;;>>11555511>>ee>>5555>>ee>>>>555511>>;;666666qqwwww",
"qqwwwwoo6666>>11115555>>======55>>======>>>>551111>>6666ooqq00ww",
"qqwwwwoo6666>>11115555>>======55>>======>>>>551111>>6666ooqq00ww",
"qqwwwwoo,,66>>115555>>====<<==>>ee==<<====>>551111>>66,,oowwwwww",
"qqwwwwoo,,66>>115555>>====<<==>>ee==<<====>>551111>>66,,oowwwwww",
"wwwwoooo,,,,>>115555>>ee==tt==eeee==tt==ee>>555511>>,,,,oooowwww",
"wwwwoooo,,,,>>115555>>ee==tt==eeee==tt==ee>>555511>>,,,,oooowwww",
"wwwwoooo&&,,>>5555>>>>eeee==eeeeeeee==eeee>>555511>>,,&&ooooww00",
"wwwwoooo&&,,>>5555>>>>eeee==eeeeeeee==eeee>>555511>>,,&&ooooww00",
"wwwwoo&&&&&&>>5555>>>>33eeeeeeeeeeeeeeee>>555555>>>>&&&&&&oowwww",
"wwwwoo&&&&&&>>5555>>>>33eeeeeeeeeeeeeeee>>555555>>>>&&&&&&oowwww",
"wwwwoo&&&&&&>>5555>>>>>>33eeeeeeeeeeee33>>5555>>11>>&&&&&&ooqqww",
"wwwwoo&&&&&&>>5555>>>>>>33eeeeeeeeeeee33>>5555>>11>>&&&&&&ooqqww",
"wwwwoooo&&&&>>5555>>>>>>>>33eeeeeeee33>>>>>>55>>11>>&&&&oooowwww",
"wwwwoooo&&&&>>5555>>>>>>>>33eeeeeeee33>>>>>>55>>11>>&&&&oooowwww",
"wwwwwwoooooo>>5555>>>>>>XXXX++3333++XXXX>>>>55>>11>>oooooowwwwww",
"wwwwwwoooooo>>5555>>>>>>XXXX++3333++XXXX>>>>55>>11>>oooooowwwwww",
"wwwwwwwwwwww>>55>>>>XXXX$$XXXX++++XXXX$$XXXX>>11>>oowwwwww00wwww",
"wwwwwwwwwwww>>55>>>>XXXX$$XXXX++++XXXX$$XXXX>>11>>oowwwwww00wwww",
"wwwwwwwwwwww>>55>>XX$$$$$$$$$$XXXX$$$$$$$$XXXX11>>wwwwwwqq00wwww",
"wwwwwwwwwwww>>55>>XX$$$$$$$$$$XXXX$$$$$$$$XXXX11>>wwwwwwqq00wwww",
"wwwwwwwwwwww>>55>>%%XXXX$$$$XX$$$$XX$$$$XXXX%%>>wwqq00qqwwwwwwww",
"wwwwwwwwwwww>>55>>%%XXXX$$$$XX$$$$XX$$$$XXXX%%>>wwqq00qqwwwwwwww",
"wwwwwwqqqq00ww>>%%::::::XX$$XX$$$$XX$$XX::::::%%wwwwwwwwwwwwwwww",
"wwwwwwqqqq00ww>>%%::::::XX$$XX$$$$XX$$XX::::::%%wwwwwwwwwwwwwwww",
"wwwwwwwwwwwwwwww%%::::::::XX$$XXXX$$XX::::::::%%wwwwwwwwwwwwwwww",
"wwwwwwwwwwwwwwww%%::::::::XX$$XXXX$$XX::::::::%%wwwwwwwwwwwwwwww",
"wwwwwwwwwwwwww%%::::::::::::22222222::::::::::::%%wwwwwwwwwwwwww",
"wwwwwwwwwwwwww%%::::::::::::22222222::::::::::::%%wwwwwwwwwwwwww",
"ww0000wwwwwwww%%::::::::2222222222222222::::::::%%wwww00wwwwwwww",
"ww0000wwwwwwww%%::::::::2222222222222222::::::::%%wwww00wwwwwwww",
"00009900qqqq%%::::::::22222222222222222222::::::::%%00wwwwqqwwww",
"00009900qqqq%%::::::::22222222222222222222::::::::%%00wwwwqqwwww",
"88ww00qqqqqq%%::::::::22222222222222222222::::::::%%wwwwww00wwww",
"88ww00qqqqqq%%::::::::22222222222222222222::::::::%%wwwwww00wwww",
"qqwwwwwwwwww%%::::::++**2222222222222222**++::::::%%wwwwwwwwwwww",
"qqwwwwwwwwww%%::::::++**2222222222222222**++::::::%%wwwwwwwwwwww",
"wwqqwwwwwwww%%::::::++****222222222222****++::::::%%wwwwwwwwwwqq",
"wwqqwwwwwwww%%::::::++****222222222222****++::::::%%wwwwwwwwwwqq",
"00wwwwwwww%%::::::33==++****************++==33::::::%%wwwwwwwwqq",
"00wwwwwwww%%::::::33==++****************++==33::::::%%wwwwwwwwqq",
"00wwwwwwqq%%::::==33==@@++++++++++++++++@@==33==::::%%wwwwww0qqq",
"00wwwwwwqq%%::::==33==@@++++++++++++++++@@==33==::::%%wwwwww0qwq",
"qqww0000qq%%::::33==@@@@##------------##@@@@==33::::%%wwwwwwwwww",
"qqww0000qq%%::::33==@@@@##------------##@@@@==33::::%%wwwwwwwwww",
"qqqqwwqq%%::::::33==@@####------------####@@==33::::::%%wwwwqqww",
"qqqqwwqq%%::::::33==@@####------------####@@==33::::::%%wwwwqqww",
"wwwwwwww%%::::33====@@##----------------##@@====33::::%%wwwwwwww",
"wwwwwwww%%::::33====@@##----------------##@@====33::::%%wwwwwwww",
"wwwwwwww%%::::33==@@@@##----------------##@@@@==33::::%%wwwwwwww",
"wwwwwwww%%::::33==@@@@##----------------##@@@@==33::::%%wwwwwwww",
"wwwwwwww%%::::====@@##--------------------##@@====::::%%qq00wwww",
"wwwwwwww%%::::====@@##--------------------##@@====::::%%qq00wwww",
"wwwwwwww%%::%%%%@@@@##--------------------##@@@@%%%%::%%wwwwwwww",
"wwwwwwww%%::%%%%@@@@##--------------------##@@@@%%%%::%%wwwwwwww",
"wwwwwwww%%%%%%ww@@####--------------------####@@ww%%%%%%wwwwwwww",
"wwwwwwww%%%%%%ww@@####--------------------####@@ww%%%%%%wwwwwwww",
"wwwwwwwwwwwwwwww@@##------------------------##@@wwwwwwww88wwwwww",
"wwwwwwwwwwwwwwww@@##------------------------##@@wwwwwwww88wwwwww",
"wwwwwwwwwwwwqq@@@@##------------------------##@@@@wwwwwwwwwwwwww",
"wwwwwwwwwwwwqq@@@@##------------------------##@@@@wwwwwwwwwwwwww",
"wwwwwwwwwwwwww@@##----------------------------##@@wwwwwwwwwwwwww",
"wwwwwwwwwwwwww@@##----------------------------##@@wwwwwwwwwwwwww",
"wwwwwwwwwwww@@####----------------------------####@@qqwwwwqqwwww",
"wwwwwwwwwwww@@####----------------------------####@@qqwwwwqqwwww",
"qqwwwwwwwwww@@####----------------------------####@@wwwwwwqq00ww",
"qqwwwwwwwwww@@####----------------------------####@@wwwwwwqq00ww",
"qqwwwwwwwwww@@@@##----------------------------##@@@@wwwwwwwwwwww",
"qqwwwwwwwwww@@@@##----------------------------##@@@@wwwwwwwwwwww",
"wwwwwwwwwwwwww@@@@##------------------------##@@@@00wwwwwwwwwwww",
"wwwwwwwwwwwwww@@@@##------------------------##@@@@00wwwwwwwwwwww",
"wwwwww00wwwwwwww@@@@##--------------------##@@@@00wwwwwwww00ww00",
"wwwwww00wwwwwwww@@@@##--------------------##@@@@00wwwwwwww00ww00",
"wwwwwwww00qqwwww00@@@@####################@@@@wwwwwwwwwwwwwwwwww",
"wwwwwwww00qqwwww00@@@@####################@@@@wwwwwwwwwwwwwwwwww",
"wwwwwwwwwwwwwwqqqqww@@@@@@@@@@@@@@@@@@@@@@@@wwqqwwwwwwww00wwq0qq",
"wwwwwwwwwwwwwwqqqqww@@@@@@@@@@@@@@@@@@@@@@@@wwqqwwwwwwww00ww00qq",
"wwwwwwwwwwwwqqqqwwww  OOOOOO  wwww  OOOOOO  00wwqqwwwwwwww00wwww",
"wwwwwwwwwwwwqqqqwwww  OOOOOO  wwww  OOOOOO  00wwqqwwwwwwww00wwww",
"wwwwwwwwwwwwwwwwqq  OOOOOO..  wwww  ..OOOOOO  wwwwwwwwwwwwwwwwww",
"wwwwwwwwwwwwwwwwqq  OOOOOO..  wwww  ..OOOOOO  wwwwwwwwwwwwwwwwww",
"wwwwwwwwwwwwwwwwww  OOOO..  wwww00qq  ..OOOO  99wwwwwwwwww99wwww",
"wwwwwwwwwwwwwwwwww  OOOO..  wwww00qq  ..OOOO  99wwwwwwwwww00wwww",
"wwwwwwwwwwwwwwwwww..      qqwwwwqqwwww      ..wwwwwwwwwwqq00wwww",
"wwwwwwwwwwwwwwwwww..      qqwwwwqqwwww      ..wwwwwwwwwwqq00wwww",
"wwwwwwwwwwwwwwwwwwwwwwwwwwwwwwwwwwww0000wwwwwwqqww0000qqwwwwwwww",
"wwwwwwwwwwwwwwwwwwwwwwwwwwwwwwwwwwww0000wwwwwwqqww0000qqwwwwwwww",
"wwwwwwqqqq00wwwwwwwwwwwwwwwwwwwwwwwwwwwwwwwwwwwwwwwwwwwwwwwwwwww",
"wwwwwwqqqq00wwwwwwwwwwwwwwwwwwwwwwwwwwwwwwwwwwwwwwwwwwwwwwwwwwww"
};
