/* XPM */
static char *_007[] = {
/* columns rows colors chars-per-pixel */
"64 128 32 1 ",
"  c #090806",
". c #1C0505",
"X c #0F1017",
"o c #200000",
"O c #22100F",
"+ c #221C16",
"@ c #3A1A18",
"# c #28241A",
"$ c #10182C",
"% c #141F38",
"& c #392120",
"* c #402828",
"= c #692329",
"- c #594E3A",
"; c #5C523A",
": c #223462",
"> c #4B4949",
", c #87232A",
"< c #AD7939",
"1 c #EF952C",
"2 c #E09D34",
"3 c #A9895B",
"4 c #BC9C65",
"5 c #EEB74B",
"6 c #ACADAF",
"7 c #AEAFB0",
"8 c #AFB0B1",
"9 c #B1B2B3",
"0 c #B3B3B4",
"q c #B7B7B7",
"w c #FFDC8E",
"e c white",
/* pixels */
"qqqqqqqqqqqqqqqqqqqqqqqqqqqqqqqqqqqqqqqqqqqqqqqqqqqqqqqqqqqqqqqq",
"qqqqqqqqqqqqqqqqqqqqqqqqqqqqqqqqqqqqqqqqqqqqqqqqqqqqqqqqqqqqqqqq",
"qqqqqqqqqqqqqqqq009900qqqqqqqq9999qqqqqqqqqq99qq00qqqqqqqqqqqqqq",
"qqqqqqqqqqqqqqqq009900qqqqqqqq9999qqqqqqqqqq99qq00qqqqqqqqqqqqqq",
"qq9999qqqqXXXXXXXXXXXXXXXXXXXXXXXXXXXXXXXXXXXXXXXXXXXX99qqqqqqqq",
"qq9999qqqqXXXXXXXXXXXXXXXXXXXXXXXXXXXXXXXXXXXXXXXXXXXX99qqqqqqqq",
"99998899XX>>>>>>>>>>>>>>>>>>>>>>>>>>>>>>>>>>>>>>>>>>>>XXqq00qqqq",
"99998899XX>>>>>>>>>>>>>>>>>>>>>>>>>>>>>>>>>>>>>>>>>>>>XXqq00qqqq",
"77qq99XX>>>>>>>>>>>>>>>>>>>>>>>>>>>>>>>>>>>>>>>>>>>>>>>>XX99qqqq",
"77qq99XX>>>>>>>>>>>>>>>>>>>>>>>>>>>>>>>>>>>>>>>>>>>>>>>>XX99qqqq",
"00qqXX>>>>>>>>>>>>>>>>>>>>>>>>>>>>>>>>>>>>>>>>>>>>>>>>>>>>XXqqqq",
"00qqXX>>>>>>>>>>>>>>>>>>>>>>>>>>>>>>>>>>>>>>>>>>>>>>>>>>>>XXqqqq",
"qq00XXXXXXXXXXXXXXXXXXXXXXXXXXXXXXXXXXXXXXXXXXXXXXXXXXXXXXXXqq00",
"qq00XXXXXXXXXXXXXXXXXXXXXXXXXXXXXXXXXXXXXXXXXXXXXXXXXXXXXXXXqq00",
"99qqXX>>>>>>>>>>>>>>>>>>>>>>>>>>>>>>>>>>>>>>>>>>>>>>>>>>>>XXqq00",
"99qqXX>>>>>>>>>>>>>>>>>>>>>>>>>>>>>>>>>>>>>>>>>>>>>>>>>>>>XXqq00",
"99qqXX>>>>>>>>>>>>>>>>>>>>>>>>>>>>>>>>>>>>>>>>>>>>>>>>>>>>XX00qq",
"99qqXX>>>>>>>>>>>>>>>>>>>>>>>>>>>>>>>>>>>>>>>>>>>>>>>>>>>>XX00qq",
"00............................................................qq",
"00............................................................qq",
"00............................................................qq",
"00............................................................qq",
"qqqqXX>>>>....>>>>>>>>>>>><<<<<<<<<<<<>>>>>>>>>>>>....>>>>XXqqqq",
"qqqqXX>>>>....>>>>>>>>>>>><<<<<<<<<<<<>>>>>>>>>>>>....>>>>XXqqqq",
"qqqqXX>>>>....>>>>>>>><<<<<<22222222<<<<<<>>>>>>>>....>>>>XXqqqq",
"qqqqXX>>>>....>>>>>>>><<<<<<22222222<<<<<<>>>>>>>>....>>>>XXqqqq",
"qqqqXX>>>>>>..>>>>>><<<<2222225555552222<<<<>>>>>>..>>>>>>XXqqqq",
"qqqqXX>>>>>>..>>>>>><<<<2222225555552222<<<<>>>>>>..>>>>>>XXqqqq",
"qqqqXX>>>>>>>>>>XXXX<<22225555555555552222<<<<XX>>>>>>>>>>XXqqqq",
"qqqqXX>>>>>>>>>>XXXX<<22225555555555552222<<<<XX>>>>>>>>>>XXqqqq",
"qqqqXX>>>>>>>>XXXX<<222255555555555555552222<<<<XX>>>>>>>>XXqqqq",
"qqqqXX>>>>>>>>XXXX<<222255555555555555552222<<<<XX>>>>>>>>XXqqqq",
"qqqqXX>>>>>>XXXX>><<22555555555555555555552222<<XXXX>>>>>>XXqqqq",
"qqqqXX>>>>>>XXXX>><<22555555555555555555552222<<XXXX>>>>>>XXqqqq",
"qqqqXX>>>>XXXX>>XX2255555522555555555555555522<<<<XXXX>>>>XXqqqq",
"qqqqXX>>>>XXXX>>XX2255555522555555555555555522<<<<XXXX>>>>XXqqqq",
"qqqqXX>>>>XX>>>><<225555<<<<22555555555555552222<<>>XX>>>>XXqqqq",
"qqqqXX>>>>XX>>>><<225555<<<<22555555555555552222<<>>XX>>>>XXqqqq",
"qqqqXX>>>>XX>>XX<<2255<<<<ww<<555555555555555522<<>>XX>>>>XXqqqq",
"qqqqXX>>>>XX>>XX<<2255<<<<ww<<555555555555555522<<>>XX>>>>XXqqqq",
"00qqXX>>>>XXXXXX<<2255;;;;;;ww<<5555555555555522<<<<XX>>>>XX99qq",
"00qqXX>>>>XXXXXX<<2255;;;;;;ww<<5555555555555522<<<<XX>>>>XX99qq",
"00qqXX>>>>XX>>XX<<2255;;11;;;;ww555555555555555522<<XX>>>>XXqqqq",
"00qqXX>>>>XX>>XX<<2255;;11;;;;ww555555555555555522<<XX>>>>XXqqqq",
"qqqqXX>>>>XX>>XX<<2255;;ee;;wwww<<5555555555555522<<XX>>>>XXqqqq",
"qqqqXX>>>>XX>>XX<<2255;;ee;;wwww<<5555555555555522<<XX>>>>XXqqqq",
"qqqqXX>>>>XXXXXX<<2255ww;;wwwwww<<5555555555225522<<XX>>>>XXqq99",
"qqqqXX>>>>XXXXXX<<2255ww;;wwwwww<<5555555555225522<<XX>>>>XXqq99",
"qqqqXX>>>>XX>>XX<<22<<wwwwwwwwww<<5555<<5522222222<<XX>>>>XXqqqq",
"qqqqXX>>>>XX>>XX<<22<<wwwwwwwwww<<5555<<5522222222<<XX>>>>XXqqqq",
"qqqqXX>>>>XX>>XX<<22<<44wwwwww<<5555<<<<2222<<2222<<XX>>>>XX00qq",
"qqqqXX>>>>XX>>XX<<22<<44wwwwww<<5555<<<<2222<<2222<<XX>>>>XX00qq",
"qqqqXX>>>>XXXXXXoo<<55<<44ww<<555555<<2222<<<<2222<<XX>>>>XXqqqq",
"qqqqXX>>>>XXXXXXoo<<55<<44ww<<555555<<2222<<<<2222<<XX>>>>XXqqqq",
"qqqqXX>>>>XX>>XX**<<55<<<<++<<55<<<<2222<<<<222222<<XX>>>>XXqqqq",
"qqqqXX>>>>XX>>XX**<<55<<<<++<<55<<<<2222<<<<222222<<XX>>>>XXqqqq",
"qqqqXXXX>>XX>>XX**<<55<<++++++<<<<222222<<<<222222<<XX>>XXXXqqqq",
"qqqqXXXX>>XX>>XX**<<55<<++++++<<<<222222<<<<222222<<XX>>XXXXqqqq",
"qqqqqqXXXXXXXXXX**<<55<<++&&++++<<2222<<<<<<222222<<XXXXXX99qqqq",
"qqqqqqXXXXXXXXXX**<<55<<++&&++++<<2222<<<<<<222222<<XXXXXX99qqqq",
"qqqqqqqqXXXXXXXXXX<<55++&&&&++==<<22<<<<<<<<<<22<<XXXXXXqqqqqqqq",
"qqqqqqqqXXXXXXXXXX<<55++&&&&++==<<22<<<<<<<<<<22<<XXXXXXqqqqqqqq",
"qqqqqq000099qqqqqqqq<<++&&++==,,,,<<<<22<<==<<22<<qqqqqqqqqqqqqq",
"qqqqqq000099qqqqqqqq<<++&&++==,,,,<<<<22<<==<<22<<qqqqqqqqqqqqqq",
"qqqqqqqqqqqqqqqqqqqqqq--++==,,,,,,,,==<<======<<qqqqqqqqqqqqqqqq",
"qqqqqqqqqqqqqqqqqqqqqq--++==,,,,,,,,==<<======<<qqqqqqqqqqqqqqqq",
"qqqqqqqqqqqqqqqq009900--33==,,,,,,,,,,==,,,,==qq00qqqqqqqqqqqqqq",
"qqqqqqqqqqqqqqqq009900--33==,,,,,,,,,,==,,,,==qq00qqqqqqqqqqqqqq",
"qq9999qqqqqqqqqqqqqqqq--33==,,,,,,,,,,,,,,,,==qqqqqqqq99qqqqqqqq",
"qq9999qqqqqqqqqqqqqqqq--33==,,,,,,,,,,,,,,,,==qqqqqqqq99qqqqqqqq",
"99998899000000qqqqqqqq--3333==,,,,,,,,,,,,,,,,==qq9999qqqq00qqqq",
"99998899000000qqqqqqqq--3333==,,,,,,,,,,,,,,,,==qq9999qqqq00qqqq",
"77qq99000000qq00qqqqqqqq--33====,,,,,,,,,,,,,,==qqqqqqqqqq99qqqq",
"77qq99000000qq00qqqqqqqq--33====,,,,,,,,,,,,,,==qqqqqqqqqq99qqqq",
"00qqqqqqqqqqqqqqqqqqqqqq--3333==,,,,,,,,,,,,,,====qqqqqqqqqqqqqq",
"00qqqqqqqqqqqqqqqqqqqqqq--3333==,,,,,,,,,,,,,,====qqqqqqqqqqqqqq",
"qq00qqqqqqqqqqqq9999qqqq--3333====,,,,,,,,,,,,,,==qqqqqqqqqqqq00",
"qq00qqqqqqqqqqqq9999qqqq--3333====,,,,,,,,,,,,,,==qqqqqqqqqqqq00",
"99qqqqqqqqqqqqqqqqqqqqqq$$##3333====,,,,,,,,,,,,==qqqqqqqqqqqq00",
"99qqqqqqqqqqqqqqqqqqqqqq$$##3333====,,,,,,,,,,,,==qqqqqqqqqqqq00",
"99qqqqqq00qq00qqqqqqqq00$$######--==,,,,,,,,,,,,==qqqqqqqqqq9000",
"99qqqqqq00qq00qqqqqqqq00$$######--==,,,,,,,,,,,,==qqqqqqqqqq90q0",
"00qq999900999999qqqqqq$$%%::::::;;==,,,,,,,,,,====qqqqqqqqqqqqqq",
"00qq999900999999qqqqqq$$%%::::::;;==,,,,,,,,,,====qqqqqqqqqqqqqq",
"0000qq00qq00qq00000000%%%%::::::;;==,,,,,,,,======99qqqqqqqq00qq",
"0000qq00qq00qq00000000%%%%::::::;;==,,,,,,,,======99qqqqqqqq00qq",
"qqqqqqqqqqqqqqqqqqqq$$%%::::::;;44==,,,,,,======00qqqqqqqqqqqqqq",
"qqqqqqqqqqqqqqqqqqqq$$%%::::::;;44==,,,,,,======00qqqqqqqqqqqqqq",
"qqqqqqqqqqqqqqqqqq$$$$%%::::::;;44==,,,,====$$7799qqqqqqqqqqqqqq",
"qqqqqqqqqqqqqqqqqq$$$$%%::::::;;44==,,,,====$$7799qqqqqqqqqqqqqq",
"qqqqqqqqqqqqqqqqqq$$%%::::::::;;;;==,,====%%$$qqqqqqqqqq0099qqqq",
"qqqqqqqqqqqqqqqqqq$$%%::::::::;;;;==,,====%%$$qqqqqqqqqq0099qqqq",
"qqqqqqqqqqqqqqqq$$$$%%::::::::::::======::%%$$$$qqqqqqqqqqqqqqqq",
"qqqqqqqqqqqqqqqq$$$$%%::::::::::::======::%%$$$$qqqqqqqqqqqqqqqq",
"qqqqqqqqqqqqqqqq$$%%%%::::::::::::::==::::%%%%$$qqqqqq00qqqqqqqq",
"qqqqqqqqqqqqqqqq$$%%%%::::::::::::::==::::%%%%$$qqqqqq00qqqqqqqq",
"qqqqqqqqqqqqqqqq$$%%::::::::::::::::::::::::%%$$qqqqqqqq77qqqqqq",
"qqqqqqqqqqqqqqqq$$%%::::::::::::::::::::::::%%$$qqqqqqqq77qqqqqq",
"qqqqqqqqqqqq00$$$$%%::::::::::::::::::::::::%%$$$$qqqqqqqqqqqqqq",
"qqqqqqqqqqqq00$$$$%%::::::::::::::::::::::::%%$$$$qqqqqqqqqqqqqq",
"qqqqqqqqqqqqqq$$%%::::::::::::::::::::::::::::%%$$qqqqqqqqqqqqqq",
"qqqqqqqqqqqqqq$$%%::::::::::::::::::::::::::::%%$$qqqqqqqqqqqqqq",
"qqqqqqqqqqqq$$%%%%::::::::::::::::::::::::::::%%%%$$00qqqq00qqqq",
"qqqqqqqqqqqq$$%%%%::::::::::::::::::::::::::::%%%%$$00qqqq00qqqq",
"00qqqqqqqqqq$$%%%%::::::::::::::::::::::::::::%%%%$$qqqqqq0099qq",
"00qqqqqqqqqq$$%%%%::::::::::::::::::::::::::::%%%%$$qqqqqq0099qq",
"00qqqqqqqqqq$$$$%%::::::::::::::::::::::::::::%%$$$$qqqqqqqqqqqq",
"00qqqqqqqqqq$$$$%%::::::::::::::::::::::::::::%%$$$$qqqqqqqqqqqq",
"qqqqqqqqqqqqqq$$$$%%::::::::::::::::::::::::%%$$$$99qqqqqqqqqqqq",
"qqqqqqqqqqqqqq$$$$%%::::::::::::::::::::::::%%$$$$99qqqqqqqqqqqq",
"qqqqqq99qqqqqqqq$$$$%%::::::::::::::::::::%%$$$$99qqqqqqqq99qq99",
"qqqqqq99qqqqqqqq$$$$%%::::::::::::::::::::%%$$$$99qqqqqqqq99qq99",
"qqqqqqqq9900qqqq99$$$$$$%%%%%%%%%%%%%%%%$$$$$$qqqqqqqqqqqqqqqqqq",
"qqqqqqqq9900qqqq99$$$$$$%%%%%%%%%%%%%%%%$$$$$$qqqqqqqqqqqqqqqqqq",
"qqqqqqqqqqqqqq0000qq$$$$$$$$$$$$$$$$$$$$$$$$qq00qqqqqqqq99qq0900",
"qqqqqqqqqqqqqq0000qq$$$$$$$$$$$$$$$$$$$$$$$$qq00qqqqqqqq99qq9900",
"qqqqqqqqqqqq0000qqqq9900qq  @@@@  @@@@  qqqq99qq00qqqqqqqq99qqqq",
"qqqqqqqqqqqq0000qqqq9900qq  @@@@  @@@@  qqqq99qq00qqqqqqqq99qqqq",
"qqqqqqqqqqqqqqqq000099qq  @@@@@@  @@OO  99qqqqqqqqqqqqqqqqqqqqqq",
"qqqqqqqqqqqqqqqq000099qq  @@@@@@  @@OO  99qqqqqqqqqqqqqqqqqqqqqq",
"qqqqqqqqqqqqqqqqqqqqqq  @@@@@@OO      qqqq006687qqqqqqqqqq88qqqq",
"qqqqqqqqqqqqqqqqqqqqqq  @@@@@@OO      qqqq006688qqqqqqqqqq99qqqq",
"qqqqqqqqqqqqqqqqqqqqqqOO          qqqq99889999qqqqqqqqqq0099qqqq",
"qqqqqqqqqqqqqqqqqqqqqqOO          qqqq99889999qqqqqqqqqq0099qqqq",
"qqqqqqqqqqqqqqqqqqqqqqqqqqqqqqqqqqqq9999qqqqqq00qq999900qqqqqqqq",
"qqqqqqqqqqqqqqqqqqqqqqqqqqqqqqqqqqqq9999qqqqqq09qq999900qqqqqqqq",
"qqqqqq000099qqqqqqqqqqqqqqqqqqqqqqqqqqqqqqqqqqqqqqqqqqqqqqqqqqqq",
"qqqqqq000099qqqqqqqqqqqqqqqqqqqqqqqqqqqqqqqqqqqqqqqqqqqqqqqqqqqq"
};
