/* XPM */
static char *_002[] = {
/* columns rows colors chars-per-pixel */
"64 64 15 1 ",
"  c #302320",
". c #4A2622",
"X c #4E2926",
"o c #5D2E2A",
"O c #752026",
"+ c #6E342F",
"@ c #A9292F",
"# c #D28438",
"$ c #F0BF3F",
"% c #ACADAF",
"& c #AEAFB0",
"* c #AFB0B1",
"= c #B1B2B3",
"- c #B3B3B4",
"; c #B7B7B7",
/* pixels */
";;;;;;;;;;;;;;;;;;;;;;;;;;;;;;;;;;;;;;;;;;;;;;;;;;;;;;;;;;;;;;;;",
";;;;;;;;;;;;;;;;;;;;;;;;;;;;;;;;;;;;;;;;;;;;;;;;;;;;;;;;;;;;;;;;",
";;;;;;;;;;;;;;;;--==--;;;;;;;;====;;;;;;;;;;==;;--;;;;;;;;;;;;;;",
";;;;;;;;;;;;;;;;--==--;;;;;;;;====;;;;;;;;;;==;;--;;;;;;;;;;;;;;",
";;====;;;;;;;;;;;;;;;;;;;;;;;;;;;;;;;;;;;;;;;;;;;;;;;;==;;;;;;;;",
";;====;;;;;;;;;;;;;;;;;;;;;;;;;;;;;;;;;;;;;;;;;;;;;;;;==;;;;;;;;",
"====**==------;;;;;;;;;;;;;;;;;;;;;;;;;;;;;;;;;;;;====;;;;--;;;;",
"====**==------;;;;;;;;;;;;;;;;;;;;;;;;;;;;;;;;;;;;====;;;;--;;;;",
"&&;;==------;;--;;;;;;;;;;;;;;;;;;;;;;;;;;;;;;;;;;;;;;;;;;==;;;;",
"&&;;==------;;--;;;;;;;;;;;;;;;;;;;;;;;;;;;;;;;;;;;;;;;;;;==;;;;",
"--;;;;;;;;;;;;;;;;;;;;;;;;;;;;;;;;;;;;;;;;;;;;;;;;;;;;;;;;;;;;;;",
"--;;;;;;;;;;;;;;;;;;;;;;;;;;;;;;;;;;;;;;;;;;;;;;;;;;;;;;;;;;;;;;",
";;--;;;;;;;;;;;;====;;;;;;;;;;;;;;;;;;;;;;;;;;;;;;;;;;;;;;;;;;--",
";;--;;;;;;;;;;;;====;;;;;;;;;;;;;;;;;;;;;;;;;;;;;;;;;;;;;;;;;;--",
"==;;;;;;;;;;;;;;;;;;;;;;;;;;;;;;;;      ;;;;;;;;;;;;;;;;;;;;;;--",
"==;;;;;;;;;;;;;;;;;;;;;;;;;;;;;;;;      ;;;;;;;;;;;;;;;;;;;;;;--",
"==;;;;;;--;;--;;;;;;;;==;;;;;;;;  @@OO@@  ;;;;;;;;;;;;;;;;;;=---",
"==;;;;;;--;;--;;;;;;;;==;;;;;;;;  @@OO@@  ;;;;;;;;;;;;;;;;;;=-;-",
"--;;====--======;;;;;;;;;;;;;;  $$OO@@OO@@  ;;;;;;;;;;;;;;;;;;;;",
"--;;====--======;;;;;;;;;;;;;;  $$OO@@OO@@  ;;;;;;;;;;;;;;;;;;;;",
"----;;--;;--;;--------;;--;;  XXXX##$$OOOO@@  ;;;;==;;;;;;;;--;;",
"----;;--;;--;;--------;;--;;  XXXX##$$OOOO@@  ;;;;==;;;;;;;;--;;",
";;;;;;;;;;;;;;;;;;;;;;;;;;  XXXXXXXX$$##@@OO@@  --;;;;;;;;;;;;;;",
";;;;;;;;;;;;;;;;;;;;;;;;;;  XXXXXXXX$$##@@OO@@  --;;;;;;;;;;;;;;",
";;;;;;;;;;;;;;;;;;;;;;;;  XXXXXXXX....##$$##OO@@  ;;;;;;;;;;;;;;",
";;;;;;;;;;;;;;;;;;;;;;;;  XXXXXXXX....##$$##OO@@  ;;;;;;;;;;;;;;",
";;;;;;;;;;;;;;;;;;;;;;  ++++++XX........##$$$$OO    ;;;;--==;;;;",
";;;;;;;;;;;;;;;;;;;;;;  ++++++XX........##$$$$OO    ;;;;--==;;;;",
";;;;;;;;;;;;;;;;--==  ++++++++oooo..........$$  ..  ;;;;;;;;;;;;",
";;;;;;;;;;;;;;;;--==  ++++++++oooo..........$$  ..  ;;;;;;;;;;;;",
";;;;;;;;;;;;;;;;--  ++++++++oooooooo........  ....  ;;--;;;;;;;;",
";;;;;;;;;;;;;;;;--  ++++++++oooooooo........  ....  ;;--;;;;;;;;",
";;;;;;;;;;;;;;;;  ++++++++oooooooooooo....  ....  ;;;;;;&&;;;;;;",
";;;;;;;;;;;;;;;;  ++++++++oooooooooooo....  ....  ;;;;;;&&;;;;;;",
";;;;;;;;;;;;--  ++++++++oooooooooooooooo        ;;;;;;;;;;;;;;;;",
";;;;;;;;;;;;--  ++++++++oooooooooooooooo        ;;;;;;;;;;;;;;;;",
";;;;;;;;;;;;  oo  ++++oooooooooooooooo  oooo  ;;--;;;;;;;;;;;;;;",
";;;;;;;;;;;;  oo  ++++oooooooooooooooo  oooo  ;;--;;;;;;;;;;;;;;",
";;;;;;;;;;;;  oooo  oooooooooooooooo  oooo  ----------;;;;--;;;;",
";;;;;;;;;;;;  oooo  oooooooooooooooo  oooo  -------==-;;;;--;;;;",
"--;;;;;;;;;;;;  oooo  oooooooooooo  oooo  ;;;;--;;;;;;;;;;--==;;",
"--;;;;;;;;;;;;  oooo  oooooooooooo  oooo  ;;;;--;;;;;;;;;;--==;;",
"--;;;;;;;;;;;;;;  oooo  oooooooo  oooo  ;;;;====;;;;;;;;;;;;;;;;",
"--;;;;;;;;;;;;;;  oooo  oooooooo  oooo  ;;;;====;;;;;;;;;;;;;;;;",
";;;;;;;;;;;;;;;;;;  oooo  oooo  oooo  ;;;;;;====**==;;;;;;;;;;;;",
";;;;;;;;;;;;;;;;;;  oooo  oooo  oooo  ;;;;;;====**==;;;;;;;;;;;;",
";;;;;;==;;;;;;;;;;;;  oooo    oooo  ;;;;;;;;;;--==;;;;;;;;==;;==",
";;;;;;==;;;;;;;;;;;;  oooo    oooo  ;;;;;;;;;;--==;;;;;;;;==;;==",
";;;;;;;;==--;;;;====;;  oooo  oo  ;;;;;;;;;;;;;;;;;;;;;;;;;;;;;;",
";;;;;;;;==--;;;;====;;  oooo  oo  ;;;;;;;;;;;;;;;;;;;;;;;;;;;;;;",
";;;;;;;;;;;;;;----;;;;;;  oooo  ;;;;;;;;;;;;;;--;;;;;;;;==;;-=--",
";;;;;;;;;;;;;;----;;;;;;  oooo  ;;;;;;;;;;;;;;--;;;;;;;;==;;==--",
";;;;;;;;;;;;----;;;;==--;;    ;;;;;;;;;;;;;;==;;--;;;;;;;;==;;;;",
";;;;;;;;;;;;----;;;;==--;;    ;;;;;;;;;;;;;;==;;--;;;;;;;;==;;;;",
";;;;;;;;;;;;;;;;----==;;--;;;;;;;;;;;;;;==;;;;;;;;;;;;;;;;;;;;;;",
";;;;;;;;;;;;;;;;----==;;==;;;;;;;;;;;;;;==;;;;;;;;;;;;;;;;;;;;;;",
";;;;;;;;;;;;;;;;;;;;;;;;;;--;;;;==----;;;;--%%*&;;;;;;;;;;**;;;;",
";;;;;;;;;;;;;;;;;;;;;;;;;;--;;;;==----;;;;--%%**;;;;;;;;;;==;;;;",
";;;;;;;;;;;;;;;;;;;;;;;;;;--;;;;--;;;;==**====;;;;;;;;;;--==;;;;",
";;;;;;;;;;;;;;;;;;;;;;;;;;--;;;;--;;;;==**====;;;;;;;;;;--==;;;;",
";;;;;;;;;;;;;;;;;;;;;;;;;;;;;;;;;;;;====;;;;;;--;;====--;;;;;;;;",
";;;;;;;;;;;;;;;;;;;;;;;;;;;;;;;;;;;;====;;;;;;-=;;====--;;;;;;;;",
";;;;;;----==;;;;;;;;;;;;;;;;;;;;;;;;;;;;;;;;;;;;;;;;;;;;;;;;;;;;",
";;;;;;----==;;;;;;;;;;;;;;;;;;;;;;;;;;;;;;;;;;;;;;;;;;;;;;;;;;;;"
};
