/* XPM */
static char *_001[] = {
/* columns rows colors chars-per-pixel */
"64 128 31 1 ",
"  c #090806",
". c #22100F",
"X c #221C16",
"o c #3A1A18",
"O c #0E3417",
"+ c #28241A",
"@ c #10182C",
"# c #1B1C28",
"$ c #141F38",
"% c #392120",
"& c #692329",
"* c #594E3A",
"= c #5C523A",
"- c #223462",
"; c #4B4949",
": c #474A50",
"> c #87232A",
", c #AD7939",
"< c #EF952C",
"1 c #E09D34",
"2 c #A9895B",
"3 c #BC9C65",
"4 c #EEB74B",
"5 c #ACADAF",
"6 c #AEAFB0",
"7 c #AFB0B1",
"8 c #B1B2B3",
"9 c #B3B3B4",
"0 c #B7B7B7",
"q c #FFDC8E",
"w c white",
/* pixels */
"0000000000000000000000000000000000000000000000000000000000000000",
"0000000000000000000000000000000000000000000000000000000000000000",
"0000000000000000998899000000008888000000000088009900000000000000",
"0000000000000000998899000000008888000000000088009900000000000000",
"0088880000000000000000000000000000000000000000000000008800000000",
"0088880000000000000000000000000000000000000000000000008800000000",
"8888778899999900000000000000000000000000000000000088880000990000",
"8888778899999900000000000000000000000000000000000088880000990000",
"6600889999990099000000000000000000000000000000000000000000880000",
"6600889999990099000000000000000000000000000000000000000000880000",
"9900000000000000000000####################0000000000000000000000",
"9900000000000000000000####################0000000000000000000000",
"0099000000000000##########;;;;;;;;;;;;##########0000000000000099",
"0099000000000000##########;;;;;;;;;;;;##########0000000000000099",
"88000000000000######;;;;;;############;;;;;;######00000000000099",
"88000000000000######;;;;;;############;;;;;;######00000000000099",
"880000009900####;;;;;;######OOOOOOOO######;;;;;;####000000009900",
"880000009900####;;;;;;######OOOOOOOO######;;;;;;####000000009900",
"990088889988##;;;;####OOOOOOOOOOOOOOOOOOOO####;;;;##000000000000",
"990088889988##;;;;####OOOOOOOOOOOOOOOOOOOO####;;;;##000000000000",
"999900890099##;;####OOOOOOOOOOOOOOOOOOOOOOOO####;;##000000009800",
"999900990099##;;####OOOOOOOOOOOOOOOOOOOOOOOO####;;##000000009900",
"000000000000######OOOOOOOO,,,,,,,,,,,,OOOOOOOO######000000000000",
"000000000000######OOOOOOOO,,,,,,,,,,,,OOOOOOOO######000000000000",
"000000000000########OO,,,,,,11111111,,,,,,OO########000000000000",
"000000000000########OO,,,,,,11111111,,,,,,OO########000000000000",
"0000000000####;;;;##,,,,1111444444441111,,,,##;;;;####0099880000",
"0000000000####;;;;##,,,,1111444444441111,,,,##;;;;####0099880000",
"00000000####;;;;;;,,,,11114444444444444411,,;;;;;;;;####00000000",
"00000000####;;;;;;,,,,11114444444444444411,,;;;;;;;;####00000000",
"00000000##;;;;;;,,,,111144444444444444444411,,;;;;;;;;##00000000",
"00000000##;;;;;;,,,,111144444444444444444411,,;;;;;;;;##00000000",
"000000####;;;;;;,,11114444444444444444114411,,;;;;;;;;####000000",
"000000####;;;;;;,,11114444444444444444114411,,;;;;;;;;####000000",
"000000##;;;;;;,,,,11444444444444444411114411,,;;;;;;;;;;##000000",
"000000##;;;;;;,,,,11444444444444444411114411,,;;;;;;;;;;##000000",
"000000##;;;;;;,,11114444444444444411,,,,4444,,;;;;;;;;;;##000000",
"000000##;;;;;;,,11114444444444444411,,,,4444,,;;;;;;;;;;##000000",
"000000##;;;;;;,,114444444444444411,,qq,,4444,,,,;;;;;;;;##990000",
"000000##;;;;;;,,114444444444444411,,qq,,4444,,,,;;;;;;;;##990000",
"990000####;;,,,,1144444444444411,,qq======4411,,;;;;;;####998800",
"990000####;;,,,,1144444444444411,,qq======4411,,;;;;;;####998800",
"990000######,,1144444444444444,,qq====<<==4411,,;;;;######000000",
"990000######,,1144444444444444,,qq====<<==4411,,;;;;######000000",
"0000########,,1144444444444444,,qqqq==ww==4411,,############0000",
"0000########,,1144444444444444,,qqqq==ww==4411,,############0000",
"0000####::::,,1144114444444444,,qqqqqq==qq4411,,::::::::####0088",
"0000####::::,,1144114444444444,,qqqqqq==qq4411,,::::::::####0088",
"0000##::::::,,1111111144444444,,qqqqqqqqqq44,,##::::::::::##0000",
"0000##::::::,,1111111144444444,,qqqqqqqqqq44,,##::::::::::##0000",
"0000##::::::,,1111,,111144444444,,qqqqqq33,,,,####::::::::##9900",
"0000##::::::,,1111,,111144444444,,qqqqqq33,,,,####::::::::##9900",
"0000####::::,,1111,,111111,,4444,,qqqq33,,11,,::####::::####0000",
"0000####::::,,1111,,111111,,4444,,qqqq33,,11,,::####::::####0000",
"000000######,,111111,,1111,,444444,,XX,,,,11,,::##########000000",
"000000######,,111111,,1111,,444444,,XX,,,,11,,::##########000000",
"000000000000,,111111,,1111,,,,4444,,XXXX1111,,######000000880000",
"000000000000,,111111,,1111,,,,4444,,XXXX1111,,######000000880000",
"000000000000,,111111,,,,11,,,,,,44,,%%XX11,,88000000000099880000",
"000000000000,,111111,,,,11,,,,,,44,,%%XX11,,88000000000099880000",
"000000000000,,1111,,,,,,,,,,&&,,44,,%%%%XX,,00990099889900000000",
"000000000000,,1111,,,,,,,,,,&&,,44,,%%%%XX,,00990099889900000000",
"000000999988,,,,11,,&&&&,,&&&&&&,,&&XX%%XX0000000000000000000000",
"000000999988,,,,11,,&&&&,,&&&&&&,,&&XX%%XX0000000000000000000000",
"00000000000000,,11,,&&&&&&&&>>&&&&&&&&XX**0000000000000000000000",
"00000000000000,,11,,&&&&&&&&>>&&&&&&&&XX**0000000000000000000000",
"00000000000000,,,,&&>>>>&&>>>>>>&&>>&&22**0088009900000000000000",
"00000000000000,,,,&&>>>>&&>>>>>>&&>>&&22**0088009900000000000000",
"00888800000000,,,,&&>>>>>>>>>>>>>>>>&&22**0000000000008800000000",
"00888800000000,,,,&&>>>>>>>>>>>>>>>>&&22**0000000000008800000000",
"8888778899999900&&>>>>>>>>>>>>>>>>&&2222**0000000088880000990000",
"8888778899999900&&>>>>>>>>>>>>>>>>&&2222**0000000088880000990000",
"6600889999990099&&>>>>>>>>>>>>>>&&&&22**000000000000000000880000",
"6600889999990099&&>>>>>>>>>>>>>>&&&&22**000000000000000000880000",
"99000000000000&&&&>>>>>>>>>>>>>>&&2222**000000000000000000000000",
"99000000000000&&&&>>>>>>>>>>>>>>&&2222**000000000000000000000000",
"00990000000000&&>>>>>>>>>>>>>>&&&&2222**000000000000000000000099",
"00990000000000&&>>>>>>>>>>>>>>&&&&2222**000000000000000000000099",
"88000000000000&&>>>>>>>>>>>>&&&&2222**@@000000000000000000000099",
"88000000000000&&>>>>>>>>>>>>&&&&2222**@@000000000000000000000099",
"88000000990099&&>>>>>>>>>>>>&&==++++++@@000000000000000000008999",
"88000000990099&&>>>>>>>>>>>>&&==++++++@@000000000000000000008909",
"99008888998888&&&&>>>>>>>>>>&&==------$$@@0000000000000000000000",
"99008888998888&&&&>>>>>>>>>>&&==------$$@@0000000000000000000000",
"99990099009900&&&&&&>>>>>>>>&&==------$$@@0000000088000000009900",
"99990099009900&&&&&&>>>>>>>>&&==------$$@@0000000088000000009900",
"0000000000000000&&&&&&>>>>>>&&33==------$$@@88889900000000000000",
"0000000000000000&&&&&&>>>>>>&&33==------$$@@88889900000000000000",
"000000000000000000@@&&&&>>>>&&33==------$$@@@@667800000000000000",
"000000000000000000@@&&&&>>>>&&33==------$$@@@@668800000000000000",
"000000000000000000@@$$&&&&>>&&====--------$$@@000000000099880000",
"000000000000000000@@$$&&&&>>&&====--------$$@@000000000099880000",
"0000000000000000@@@@$$--&&&&&&------------$$@@@@0000000000000000",
"0000000000000000@@@@$$--&&&&&&------------$$@@@@0000000000000000",
"0000000000000000@@$$$$--------------------$$$$@@0000009900000000",
"0000000000000000@@$$$$--------------------$$$$@@0000009900000000",
"0000000000000000@@$$------------------------$$@@0000000066000000",
"0000000000000000@@$$------------------------$$@@0000000066000000",
"00000000000099@@@@$$------------------------$$@@@@00000000000000",
"00000000000099@@@@$$------------------------$$@@@@00000000000000",
"00000000000000@@$$----------------------------$$@@00000000000000",
"00000000000000@@$$----------------------------$$@@00000000000000",
"000000000000@@$$$$----------------------------$$$$@@990000990000",
"000000000000@@$$$$----------------------------$$$$@@990000990000",
"990000000000@@$$$$----------------------------$$$$@@000000998800",
"990000000000@@$$$$----------------------------$$$$@@000000998800",
"990000000000@@@@$$----------------------------$$@@@@000000000000",
"990000000000@@@@$$----------------------------$$@@@@000000000000",
"00000000000000@@@@$$------------------------$$@@@@88000000000000",
"00000000000000@@@@$$------------------------$$@@@@88000000000000",
"0000008800000000@@@@$$--------------------$$@@@@8800000000880088",
"0000008800000000@@@@$$--------------------$$@@@@8800000000880088",
"000000008899000088@@@@@@$$$$$$$$$$$$$$$$@@@@@@000000000000000000",
"000000008899000088@@@@@@$$$$$$$$$$$$$$$$@@@@@@000000000000000000",
"00000000000000999900@@@@@@@@@@@@@@@@@@@@@@@@00990000000088009899",
"00000000000000999900@@@@@@@@@@@@@@@@@@@@@@@@00990000000088008899",
"000000000000999900008899  oooo  oooo  00000088009900000000880000",
"000000000000999900008899  oooo  oooo  00000088009900000000880000",
"000000000000000099998800  ..oo  oooooo  880000000000000000000000",
"000000000000000099998800  ..oo  oooooo  880000000000000000000000",
"00000000000000000000000000      ..oooooo  9955760000000000770000",
"00000000000000000000000000      ..oooooo  9955770000000000880000",
"000000000000000000000000009900          ..8888000000000099880000",
"000000000000000000000000009900          ..8888000000000099880000",
"0000000000000000000000000000000000008888000000990088889900000000",
"0000000000000000000000000000000000008888000000980088889900000000",
"0000009999880000000000000000000000000000000000000000000000000000",
"0000009999880000000000000000000000000000000000000000000000000000"
};
