/* XPM */
static char *_015[] = {
/* columns rows colors chars-per-pixel */
"64 64 9 1 ",
"  c #30190B",
". c #4A3527",
"X c #A2501D",
"o c #AEAFB0",
"O c #AFB0B1",
"+ c #B1B2B3",
"@ c #B3B3B4",
"# c #B7B7B7",
"$ c #EBC8B5",
/* pixels */
"################################################################",
"################################################################",
"################@@++@@########++++##########++##@@##############",
"################@@++@@########++++##########++##@@##############",
"##++++################################################++########",
"##++++################################################++########",
"++++OO++@@@@@@####################################++++####@@####",
"++++OO++@@@@@@####################################++++####@@####",
"oo##++@@@@@@##@@##########################################++####",
"oo##++@@@@@@##@@##########################################++####",
"@@##############################################################",
"@@##############################################################",
"##@@############++++##########################################@@",
"##@@############++++##########################################@@",
"++############################################################@@",
"++############################################################@@",
"++######@@##@@########++####################################+@@@",
"++######@@##@@########++####################################+@#@",
"@@##++++@@++++++################################################",
"@@##++++@@++++++################################################",
"@@@@##@@##@@##@@@@@@@@##@@##############@@########++########@@##",
"@@@@##@@##@@##@@@@@@@@##@@##############@@########++########@@##",
"####################################@@@@OO++++++@@##############",
"####################################@@@@OO++++++@@##############",
"############################################@@ooO+##############",
"############################################@@oo++##############",
"########################################################@@++####",
"########################################################@@++####",
"################    ##########@@++@@@@##########################",
"################    ##########@@++@@@@##########################",
"################  $$  @@                    ##########@@########",
"################  $$  @@                    ##########@@########",
"################  $$$$  ....................      ####    ######",
"################  $$$$  ....................      ####    ######",
"############@@        ......XXXXXX............      ##  $$  ####",
"############@@        ......XXXXXX............      ##  $$  ####",
"############  ..XX  XX......XXXXXXXX................    $$$$  ##",
"############  ..XX  XX......XXXXXXXX................    $$$$  ##",
"##########  ..XX  XXXX....XXXXXXXX..........XXXX....      $$  ##",
"##########  ..XX  XXXX....XXXXXXXX..........XXXX....      $$  ##",
"@@######  ..XX  XXXX......XXXXXX..........XXXXXX    ....    ++##",
"@@######  ..XX  XXXX......XXXXXX..........XXXXXX    ....    ++##",
"@@####  ..XX  XXXX......XXXXXX..........XXXXXX  ......XX  ######",
"@@####  ..XX  XXXX......XXXXXX..........XXXXXX  ......XX  ######",
"######  ..XX  ..........XXXX..........XXXXXX  ..XXXXXXXX  ######",
"######  ..XX  ..........XXXX..........XXXXXX  ..XXXXXXXX  ######",
"######  XX  ............XX................  XXXXXXXXXX  ##++##++",
"######  XX  ............XX................  XXXXXXXXXX  ##++##++",
"######  XX  ....XX......................  XXXX..XXXX    ########",
"######  XX  ....XX......................  XXXX..XXXX    ########",
"######      ..XXXXXX............XXXXXXXX  XX......XX  ##++##@+@@",
"######      ..XXXXXX............XXXXXXXX  XX......XX  ##++##++@@",
"######  XX..  XXXXXX..........XXXXXX          ....    ####++####",
"######  XX..  XXXXXX..........XXXXXX          ....    ####++####",
"######    XX..  XXXX........XXXXXX  ..........      ############",
"######    XX..  XXXX........XXXXXX  ..........      ############",
"########    XX..  XX......XXXXXX  ....XXXXXX      ########OO####",
"########    XX..  XX......XXXXXX  ....XXXXXX      ########++####",
"##########                                      ########@@++####",
"##########                                      ########@@++####",
"####################################++++######@@##++++@@########",
"####################################++++######@@##++++@@########",
"######@@@@++####################################################",
"######@@@@++####################################################"
};
