/* XPM */
static char *_014[] = {
/* columns rows colors chars-per-pixel */
"64 64 2 1 ",
"  c #1A0808",
". c #200909",
/* pixels */
"................................................................",
"................................................................",
"................................................................",
"................................................................",
"..            ......................................        ....",
"..            ......................................        ....",
"..  ........  ......................................  ....  ....",
"..  ........  ......................................  ....  ....",
"..  ........  ......................................    ..  ....",
"..  ........  ......................................    ..  ....",
"..            ................          ..............      ....",
"..            ................          ..............      ....",
"..............................  ......    ......................",
"..............................  ......    ......................",
"..............................  ........  ......................",
"..............................  ........  ......................",
"..............................      ....  ......................",
"..............................      ....  ......................",
"..................................        ......................",
"..................................        ......................",
"................................................................",
"................................................................",
"..................................................          ....",
"..................................................          ....",
"..............................      ............    ......  ....",
"..............................      ............    ......  ....",
"........            ........    ..  ............  ........  ....",
"........            ........    ..  ............  ........  ....",
"........  ........  ........  ....  ............  ........  ....",
"........  ........  ........  ....  ............  ........  ....",
"........  ........  ........        ............            ....",
"........  ........  ........        ............            ....",
"........  ........  ............................................",
"........  ........  ............................................",
"........            ............................................",
"........            ............................................",
"................................................................",
"................................................................",
"..............................              ....................",
"..............................              ....................",
"..............................  ..........    ..................",
"..............................  ..........    ..................",
"..............................  ............  ..................",
"..............................  ............  ..................",
"..............................  ............  ..................",
"..............................  ............  ..................",
"..............................  ..........  ....................",
"..............................  ..........  ....................",
"..............................              ....................",
"..............................              ....................",
"..........            ..........................................",
"..........            ..........................................",
"..........  ........  ..........................              ..",
"..........  ........  ..........................              ..",
"..........  ........  ......        ............  ..........  ..",
"..........  ........  ......        ............  ..........  ..",
"........    ........  ......  ......  ..........  ..........  ..",
"........    ........  ......  ......  ..........  ..........  ..",
"........  ..........  ......  ......  ..........  ..........  ..",
"........  ..........  ......  ......  ..........  ..........  ..",
"........              ......          ..........            ....",
"........              ......          ..........            ....",
"................................................................",
"................................................................"
};
