/* XPM */
static char *_000[] = {
/* columns rows colors chars-per-pixel */
"64 64 4 1 ",
"  c #1A0808",
". c #200909",
"X c #300000",
"o c #3E0D03",
/* pixels */
"................................................................",
"................................................................",
"..              ..............................              ....",
"..              ..............................              ....",
"..  ..........  ......                ........  ..........  ....",
"..  ..........  ......                ........  ..........  ....",
"..  ..........  ......  ............  ........  ..........  ....",
"..  ..........  ......  ............  ........  ..........  ....",
"..              ......  ............  ........              ....",
"..              ......  ............  ........              ....",
"......................                ..........................",
"......................                ..........................",
"................................................................",
"................................................................",
"XXXXXXXXXXXXXXXXXXXXXXXXXXXXXXXXXXXXXXXXXXXXXXXXXXXXXXXXXXXXXXXX",
"XXXXXXXXXXXXXXXXXXXXXXXXXXXXXXXXXXXXXXXXXXXXXXXXXXXXXXXXXXXXXXXX",
"ooooooooooooooooXXXXXXooooooooooooooXXXXXXooooooooooooooXXXXXXoo",
"ooooooooooooooooXXXXXXooooooooooooooXXXXXXooooooooooooooXXXXXXoo",
"ooooooooooooooooooXXooooooooooooooooooXXooooooooooooooooooXXoooo",
"ooooooooooooooooooXXooooooooooooooooooXXooooooooooooooooooXXoooo",
"ooooooooooooooooooXXooooooooooooooooooXXooooooooooooooooooXXoooo",
"ooooooooooooooooooXXooooooooooooooooooXXooooooooooooooooooXXoooo",
"ooooooooooooooooXXXXXXooooooooooooooXXXXXXooooooooooooooXXXXXXoo",
"ooooooooooooooooXXXXXXooooooooooooooXXXXXXooooooooooooooXXXXXXoo",
"XXXXXXXXXXXXXXXXXXXXXXXXXXXXXXXXXXXXXXXXXXXXXXXXXXXXXXXXXXXXXXXX",
"XXXXXXXXXXXXXXXXXXXXXXXXXXXXXXXXXXXXXXXXXXXXXXXXXXXXXXXXXXXXXXXX",
"ooooooXXXXXXooooooooooooooooXXXXXXooooooooooooooooXXXXXXoooooooo",
"ooooooXXXXXXooooooooooooooooXXXXXXooooooooooooooooXXXXXXoooooooo",
"ooooooooXXooooooooooooooooooooXXooooooooooooooooooooXXoooooooooo",
"ooooooooXXooooooooooooooooooooXXooooooooooooooooooooXXoooooooooo",
"ooooooooXXooooooooooooooooooooXXooooooooooooooooooooXXoooooooooo",
"ooooooooXXooooooooooooooooooooXXooooooooooooooooooooXXoooooooooo",
"ooooooXXXXXXooooooooooooooooXXXXXXooooooooooooooooXXXXXXoooooooo",
"ooooooXXXXXXooooooooooooooooXXXXXXooooooooooooooooXXXXXXoooooooo",
"XXXXXXXXXXXXXXXXXXXXXXXXXXXXXXXXXXXXXXXXXXXXXXXXXXXXXXXXXXXXXXXX",
"XXXXXXXXXXXXXXXXXXXXXXXXXXXXXXXXXXXXXXXXXXXXXXXXXXXXXXXXXXXXXXXX",
"ooooooooooooooooXXXXXXooooooooooooooXXXXXXooooooooooooooXXXXXXoo",
"ooooooooooooooooXXXXXXooooooooooooooXXXXXXooooooooooooooXXXXXXoo",
"ooooooooooooooooooXXooooooooooooooooooXXooooooooooooooooooXXoooo",
"ooooooooooooooooooXXooooooooooooooooooXXooooooooooooooooooXXoooo",
"ooooooooooooooooooXXooooooooooooooooooXXooooooooooooooooooXXoooo",
"ooooooooooooooooooXXooooooooooooooooooXXooooooooooooooooooXXoooo",
"ooooooooooooooooXXXXXXooooooooooooooXXXXXXooooooooooooooXXXXXXoo",
"ooooooooooooooooXXXXXXooooooooooooooXXXXXXooooooooooooooXXXXXXoo",
"XXXXXXXXXXXXXXXXXXXXXXXXXXXXXXXXXXXXXXXXXXXXXXXXXXXXXXXXXXXXXXXX",
"XXXXXXXXXXXXXXXXXXXXXXXXXXXXXXXXXXXXXXXXXXXXXXXXXXXXXXXXXXXXXXXX",
"ooooooXXXXXXooooooooooooooooXXXXXXooooooooooooooooXXXXXXoooooooo",
"ooooooXXXXXXooooooooooooooooXXXXXXooooooooooooooooXXXXXXoooooooo",
"ooooooooXXooooooooooooooooooooXXooooooooooooooooooooXXoooooooooo",
"ooooooooXXooooooooooooooooooooXXooooooooooooooooooooXXoooooooooo",
"ooooooooXXooooooooooooooooooooXXooooooooooooooooooooXXoooooooooo",
"ooooooooXXooooooooooooooooooooXXooooooooooooooooooooXXoooooooooo",
"ooooooXXXXXXooooooooooooooooXXXXXXooooooooooooooooXXXXXXoooooooo",
"ooooooXXXXXXooooooooooooooooXXXXXXooooooooooooooooXXXXXXoooooooo",
"XXXXXXXXXXXXXXXXXXXXXXXXXXXXXXXXXXXXXXXXXXXXXXXXXXXXXXXXXXXXXXXX",
"XXXXXXXXXXXXXXXXXXXXXXXXXXXXXXXXXXXXXXXXXXXXXXXXXXXXXXXXXXXXXXXX",
"ooooooooooooooooXXXXXXooooooooooooooXXXXXXooooooooooooooooXXXXXX",
"ooooooooooooooooXXXXXXooooooooooooooXXXXXXooooooooooooooooXXXXXX",
"ooooooooooooooooooXXooooooooooooooooooXXooooooooooooooooooooXXoo",
"ooooooooooooooooooXXooooooooooooooooooXXooooooooooooooooooooXXoo",
"ooooooooooooooooooXXooooooooooooooooooXXooooooooooooooooooooXXoo",
"ooooooooooooooooooXXooooooooooooooooooXXooooooooooooooooooooXXoo",
"ooooooooooooooooXXXXXXooooooooooooooXXXXXXooooooooooooooooXXXXXX",
"ooooooooooooooooXXXXXXooooooooooooooXXXXXXooooooooooooooooXXXXXX"
};
