/* XPM */
static char *_002[] = {
/* columns rows colors chars-per-pixel */
"64 64 9 1 ",
"  c None",
". c #231818",
"X c #56443E",
"o c #4C4343",
"O c #D57B47",
"+ c #F19B5E",
"@ c #F1BD61",
"# c #FFC37F",
"$ c #ECD2B2",
/* pixels */
"                                                                ",
"                                                                ",
"    $$$$            $$$$                  $$$$$$        $$$$    ",
"    $$$$            $$$$                  $$$$$$        $$$$    ",
"      $$$$$$          $$$$                $$          $$$$      ",
"      $$$$$$          $$$$                $$          $$$$      ",
"          $$$$          $$$$$$        $$$$          $$$$        ",
"          $$$$          $$$$$$        $$$$          $$$$        ",
"            $$                                    $$$$          ",
"            $$                                    $$$$          ",
"                      ....................                  $$  ",
"                      ....................                  $$  ",
"  $$$$          ..........oooooooooooo..........          $$$$  ",
"  $$$$          ..........oooooooooooo..........          $$$$  ",
"    $$$$      ......oooooo............oooooo......      $$$$    ",
"    $$$$      ......oooooo............oooooo......      $$$$    ",
"      $$$$  ....oooooo......++++++++......oooooo....    $$      ",
"      $$$$  ....oooooo......++++++++......oooooo....    $$      ",
"        $$  ..oooo....++++++++##++++++++++....oooo..            ",
"        $$  ..oooo....++++++++##++++++++++....oooo..            ",
"            ..oo....++++++++++++++++##++++++....oo..            ",
"            ..oo....++++++++++++++++##++++++....oo..            ",
"            ......++++##++++##++++++++++##++++......            ",
"            ......++++##++++##++++++++++##++++......            ",
"            ........++++++++++++++++++++++++........            ",
"            ........++++++++++++++++++++++++........            ",
"          ....oooo............................oooo....          ",
"          ....oooo............................oooo....          ",
"        ....oooooooooooooooooooooooooooooooooooooooo....        ",
"        ....oooooooooooooooooooooooooooooooooooooooo....        ",
"        ..oooooooooooooooooooooooooooooooooooooooooooo..        ",
"        ..oooooooooooooooooooooooooooooooooooooooooooo..        ",
"      ....oooooooooooooooooooooooooooooooooooooooooooo....      ",
"      ....oooooooooooooooooooooooooooooooooooooooooooo....      ",
"      ..oooooooooooooooooooooooooooooooooooooooooooooooo..@@    ",
"      ..oooooooooooooooooooooooooooooooooooooooooooooooo..@@    ",
"    @@..@@oooooo@@oooooo@@@@oooooooo@@oooooooooo@@oooo@@..      ",
"    @@..@@oooooo@@oooooo@@@@oooooooo@@oooooooooo@@oooo@@..      ",
"      @@@@@@oooooooo@@oooooooo@@oooo@@oooo@@oooo@@oo@@@@@@      ",
"      @@@@@@oooooooo@@oooooooo@@oooo@@oooo@@oooo@@oo@@@@@@      ",
"      ..@@@@@@oooo@@@@oo@@@@oooo@@oooooooooooo@@oooo@@@@..      ",
"      ..@@@@@@oooo@@@@oo@@@@oooo@@oooooooooooo@@oooo@@@@..      ",
"      ..OO@@@@oooo@@@@@@@@@@oooo@@@@@@@@oo@@oo@@@@@@@@OO..      ",
"      ..OO@@@@oooo@@@@@@@@@@oooo@@@@@@@@oo@@oo@@@@@@@@OO..      ",
"    ....OOOO@@@@@@@@@@@@@@@@oo@@@@@@@@@@@@@@@@@@@@@@OOOO....    ",
"    ....OOOO@@@@@@@@@@@@@@@@oo@@@@@@@@@@@@@@@@@@@@@@OOOO....    ",
"    ....XXOOOO@@@@OO@@@@@@@@@@@@@@OO@@@@OO@@@@OOOO@@OOXX....    ",
"    ....XXOOOO@@@@OO@@@@@@@@@@@@@@OO@@@@OO@@@@OOOO@@OOXX....    ",
"    ..XXXXXXXXXXOOOOOO@@@@OO@@@@OOOO@@OOOO@@@@@@OOXXXXXXXX..    ",
"    ..XXXXXXXXXXOOOOOO@@@@OO@@@@OOOO@@OOOO@@@@@@OOXXXXXXXX..    ",
"    ..XXXXXXXX....OOOOXXOOOOOO@@OOOO@@OOXX@@@@..OOXXXXXXXX..    ",
"    ..XXXXXXXX....OOOOXXOOOOOO@@OOOO@@OOXX@@@@..OOXXXXXXXX..    ",
"    ....XXXX....XXXXXXXX..OOOOXXXXXX....XXXXXXXX....XXXX....    ",
"    ....XXXX....XXXXXXXX..OOOOXXXXXX....XXXXXXXX....XXXX....    ",
"      ..........XXXXXX....XXXXXXXXXXXX....XXXXXX..........      ",
"      ..........XXXXXX....XXXXXXXXXXXX....XXXXXX..........      ",
"            ................XXXXXXXX................            ",
"            ................XXXXXXXX................            ",
"                    ........................                    ",
"                    ........................                    ",
"                          ............                          ",
"                          ............                          ",
"                                                                ",
"                                                                "
};
