/* XPM */
static char *_004[] = {
/* columns rows colors chars-per-pixel */
"64 64 9 1 ",
"  c None",
". c #1C0505",
"X c #200000",
"o c #231818",
"O c #451919",
"+ c #4C4343",
"@ c #913000",
"# c #D57B47",
"$ c #F1BD61",
/* pixels */
"                                                                ",
"                                                                ",
"                                                                ",
"                                                                ",
"          oooooooooooooooooooooooooooooooooooooooooooo          ",
"          oooooooooooooooooooooooooooooooooooooooooooo          ",
"        oo++++++++++++++++++++++++++++++++++++++++++++oo        ",
"        oo++++++++++++++++++++++++++++++++++++++++++++oo        ",
"      oo++++++++++++++++++++++++++++++++++++++++++++++++oo      ",
"      oo++++++++++++++++++++++++++++++++++++++++++++++++oo      ",
"    oo++++++++++++++++++++++++++++++++++++++++++++++++++++oo    ",
"    oo++++++++++++++++++++++++++++++++++++++++++++++++++++oo    ",
"    oooooooooooooooooooooooooooooooooooooooooooooooooooooooo    ",
"    oooooooooooooooooooooooooooooooooooooooooooooooooooooooo    ",
"    oo++++++++++++++++++++++++++++++++++++++++++++++++++++oo    ",
"    oo++++++++++++++++++++++++++++++++++++++++++++++++++++oo    ",
"    oo++++++++++++++++++++++++++++++++++++++++++++++++++++oo    ",
"    oo++++++++++++++++++++++++++++++++++++++++++++++++++++oo    ",
"  ............................................................  ",
"  ............................................................  ",
"  ............................................................  ",
"  ............................................................  ",
"    oo++++....++++++++++++++++++++++++++++++++++++....++++oo    ",
"    oo++++....++++++++++++++++++++++++++++++++++++....++++oo    ",
"    oo++++....++++++++++++++++++++++++++++++++++++....++++oo    ",
"    oo++++....++++++++++++++++++++++++++++++++++++....++++oo    ",
"    oo++++++..++++++++++++++++++++++++++++++++++++..++++++oo    ",
"    oo++++++..++++++++++++++++++++++++++++++++++++..++++++oo    ",
"    oo++++++++++oooooooooooooooooooooooooooooooo++++++++++oo    ",
"    oo++++++++++oooooooooooooooooooooooooooooooo++++++++++oo    ",
"    oo++++++++oooo++++oo++++++oooo++++++oo++++oooo++++++++oo    ",
"    oo++++++++oooo++++oo++++++oooo++++++oo++++oooo++++++++oo    ",
"    oo++++++oooo++++oooooooooooooooooooooooo++++oooo++++++oo    ",
"    oo++++++oooo++++oooooooooooooooooooooooo++++oooo++++++oo    ",
"    oo++++oooo++oooooo@@@@@@@@@@@@@@@@@@@@oooooo++oooo++++oo    ",
"    oo++++oooo++oooooo@@@@@@@@@@@@@@@@@@@@oooooo++oooo++++oo    ",
"    oo++++oo++++oo@@@@@@@@@@@@@@@@@@@@@@@@@@@@oo++++oo++++oo    ",
"    oo++++oo++++oo@@@@@@@@@@@@@@@@@@@@@@@@@@@@oo++++oo++++oo    ",
"    oo++++oo++oooo@@@@@@@@@@@@@@$$@@@@@@@@@@$$oooo++oo++++oo    ",
"    oo++++oo++oooo@@@@@@@@@@@@@@$$@@@@@@@@@@$$oooo++oo++++oo    ",
"    oo++++oooooo@@@@$$@@@@$$$$@@$$$$@@@@@@$$$$@@oooo$$$$++oo    ",
"    oo++++oooooo@@@@$$@@@@$$$$@@$$$$@@@@@@$$$$@@oooo$$$$++oo    ",
"    oo++++$$$$oo@@@@$$@@@@$$$$@@@@$$@@@@@@@@@@@@oo++oo++++oo    ",
"    oo++++$$$$oo@@@@$$@@@@$$$$@@@@$$@@@@@@@@@@@@oo++oo++++oo    ",
"    oo++++oo$$$$@@@@@@@@@@$$$$@@@@@@@@@@@@$$$$@@$$$$oo++++oo    ",
"    oo++++oo$$$$@@@@@@@@@@$$$$@@@@@@@@@@@@$$$$@@$$$$oo++++oo    ",
"    oo++++oo$$$$$$$$$$@@$$$$$$$$$$$$$$$$$$$$$$$$$$$$oo++++oo    ",
"    oo++++oo$$$$$$$$$$@@$$$$$$$$$$$$$$$$$$$$$$$$$$$$oo++++oo    ",
"    oo++++oo$$######$$$$$$##$$$$##$$$$$$$$##$$$$##$$oo++++oo    ",
"    oo++++oo$$######$$$$$$##$$$$##$$$$$$$$##$$$$##$$oo++++oo    ",
"    oo++++oo$$$$####$$$$####$$$$####$$$$####$$####$$oo++++oo    ",
"    oo++++oo$$$$####$$$$####$$$$####$$$$####$$####$$oo++++oo    ",
"    oo++++oooo$$$$##$$$$####$$$$####$$$$####$$##$$$$oo++++oo    ",
"    oo++++oooo$$$$##$$$$####$$$$####$$$$####$$##$$$$oo++++oo    ",
"    oo++++oo++oo$$OOOOXXXXOO$$$$##$$$$XXXXOOOOOO$$++oo++++oo    ",
"    oo++++oo++oo$$OOOOXXXXOO$$$$##$$$$XXXXOOOOOO$$++oo++++oo    ",
"    oooo++oo++ooOOOOXXXXOOOOOOXXXXOOOOOOXXXXOOOOoo++oo++oooo    ",
"    oooo++oo++ooOOOOXXXXOOOOOOXXXXOOOOOOXXXXOOOOoo++oo++oooo    ",
"      ooooooooooOOXXXXOOOOOOXXXXXXXXOOOOOOXXXXOOoooooooooo      ",
"      ooooooooooOOXXXXOOOOOOXXXXXXXXOOOOOOXXXXOOoooooooooo      ",
"        oooooooooooooooooooooooooooooooooooooooooooooooo        ",
"        oooooooooooooooooooooooooooooooooooooooooooooooo        ",
"                                                                ",
"                                                                "
};
