/* XPM */
static char *_008[] = {
/* columns rows colors chars-per-pixel */
"64 128 22 1 ",
"  c None",
". c #090806",
"X c #22100F",
"o c #221C16",
"O c #3A1A18",
"+ c #28241A",
"@ c #10182C",
"# c #141F38",
"$ c #392120",
"% c #692329",
"& c #594E3A",
"* c #5C523A",
"= c #223462",
"- c #87232A",
"; c #AD7939",
": c #EF952C",
"> c #E09D34",
", c #A9895B",
"< c #BC9C65",
"1 c #EEB74B",
"2 c #FFDC8E",
"3 c white",
/* pixels */
"                                                                ",
"                                                                ",
"                                                                ",
"                                                                ",
"                                                                ",
"                                                                ",
"                                                                ",
"                                                                ",
"                                                                ",
"                                                                ",
"                                                                ",
"                                                                ",
"                                                                ",
"                                                                ",
"                                                                ",
"                                                                ",
"                                                                ",
"                                                                ",
"                                                                ",
"                                                                ",
"                                                                ",
"                                                                ",
"                          ;;;;;;;;;;;;                          ",
"                          ;;;;;;;;;;;;                          ",
"                      ;;;;;;>>>>>>>>;;;;;;                      ",
"                      ;;;;;;>>>>>>>>;;;;;;                      ",
"                    ;;;;>>>>11111111>>>>;;;;                    ",
"                    ;;;;>>>>11111111>>>>;;;;                    ",
"                  ;;;;>>>>11111111111111>>;;                    ",
"                  ;;;;>>>>11111111111111>>;;                    ",
"                ;;;;>>>>111111111111111111>>;;                  ",
"                ;;;;>>>>111111111111111111>>;;                  ",
"                ;;>>>>1111111111111111>>11>>;;                  ",
"                ;;>>>>1111111111111111>>11>>;;                  ",
"              ;;;;>>1111111111111111>>>>11>>;;                  ",
"              ;;;;>>1111111111111111>>>>11>>;;                  ",
"              ;;>>>>11111111111111>>;;;;1111;;                  ",
"              ;;>>>>11111111111111>>;;;;1111;;                  ",
"              ;;>>11111111111111>>;;22;;1111;;;;                ",
"              ;;>>11111111111111>>;;22;;1111;;;;                ",
"            ;;;;>>111111111111>>;;22******11>>;;                ",
"            ;;;;>>111111111111>>;;22******11>>;;                ",
"            ;;>>11111111111111;;22****::**11>>;;                ",
"            ;;>>11111111111111;;22****::**11>>;;                ",
"            ;;>>11111111111111;;2222**33**11>>;;                ",
"            ;;>>11111111111111;;2222**33**11>>;;                ",
"            ;;>>11>>1111111111;;222222**2211>>;;                ",
"            ;;>>11>>1111111111;;222222**2211>>;;                ",
"            ;;>>>>>>>>11111111;;222222222211;;                  ",
"            ;;>>>>>>>>11111111;;222222222211;;                  ",
"            ;;>>>>;;>>>>11111111;;222222<<;;;;                  ",
"            ;;>>>>;;>>>>11111111;;222222<<;;;;                  ",
"            ;;>>>>;;>>>>>>;;1111;;2222<<;;>>;;                  ",
"            ;;>>>>;;>>>>>>;;1111;;2222<<;;>>;;                  ",
"            ;;>>>>>>;;>>>>;;111111;;oo;;;;>>;;                  ",
"            ;;>>>>>>;;>>>>;;111111;;oo;;;;>>;;                  ",
"            ;;>>>>>>;;>>>>;;;;1111;;oooo>>>>;;                  ",
"            ;;>>>>>>;;>>>>;;;;1111;;oooo>>>>;;                  ",
"            ;;>>>>>>;;;;>>;;;;;;11;;$$oo>>;;                    ",
"            ;;>>>>>>;;;;>>;;;;;;11;;$$oo>>;;                    ",
"            ;;>>>>;;;;;;;;;;%%;;11;;$$$$oo;;                    ",
"            ;;>>>>;;;;;;;;;;%%;;11;;$$$$oo;;                    ",
"            ;;;;>>;;%%%%;;%%%%%%;;%%oo$$oo                      ",
"            ;;;;>>;;%%%%;;%%%%%%;;%%oo$$oo                      ",
"              ;;>>;;%%%%%%%%--%%%%%%%%oo&&                      ",
"              ;;>>;;%%%%%%%%--%%%%%%%%oo&&                      ",
"              ;;;;%%----%%------%%--%%,,&&                      ",
"              ;;;;%%----%%------%%--%%,,&&                      ",
"              ;;;;%%----------------%%,,&&                      ",
"              ;;;;%%----------------%%,,&&                      ",
"                %%----------------%%,,,,&&                      ",
"                %%----------------%%,,,,&&                      ",
"                %%--------------%%%%,,&&                        ",
"                %%--------------%%%%,,&&                        ",
"              %%%%--------------%%,,,,&&                        ",
"              %%%%--------------%%,,,,&&                        ",
"              %%--------------%%%%,,,,&&                        ",
"              %%--------------%%%%,,,,&&                        ",
"              %%------------%%%%,,,,&&@@                        ",
"              %%------------%%%%,,,,&&@@                        ",
"              %%------------%%**++++++@@                        ",
"              %%------------%%**++++++@@                        ",
"              %%%%----------%%**======##@@                      ",
"              %%%%----------%%**======##@@                      ",
"              %%%%%%--------%%**======##@@                      ",
"              %%%%%%--------%%**======##@@                      ",
"                %%%%%%------%%<<**======##@@                    ",
"                %%%%%%------%%<<**======##@@                    ",
"                  @@%%%%----%%<<**======##@@@@                  ",
"                  @@%%%%----%%<<**======##@@@@                  ",
"                  @@##%%%%--%%****========##@@                  ",
"                  @@##%%%%--%%****========##@@                  ",
"                @@@@##==%%%%%%============##@@@@                ",
"                @@@@##==%%%%%%============##@@@@                ",
"                @@####====================####@@                ",
"                @@####====================####@@                ",
"                @@##========================##@@                ",
"                @@##========================##@@                ",
"              @@@@##========================##@@@@              ",
"              @@@@##========================##@@@@              ",
"              @@##============================##@@              ",
"              @@##============================##@@              ",
"            @@####============================####@@            ",
"            @@####============================####@@            ",
"            @@####============================####@@            ",
"            @@####============================####@@            ",
"            @@@@##============================##@@@@            ",
"            @@@@##============================##@@@@            ",
"              @@@@##========================##@@@@              ",
"              @@@@##========================##@@@@              ",
"                @@@@##====================##@@@@                ",
"                @@@@##====================##@@@@                ",
"                  @@@@@@################@@@@@@                  ",
"                  @@@@@@################@@@@@@                  ",
"                    @@@@@@@@@@@@@@@@@@@@@@@@                    ",
"                    @@@@@@@@@@@@@@@@@@@@@@@@                    ",
"                        ..OOOO..OOOO..                          ",
"                        ..OOOO..OOOO..                          ",
"                        ..XXOO..OOOOOO..                        ",
"                        ..XXOO..OOOOOO..                        ",
"                          ......XXOOOOOO..                      ",
"                          ......XXOOOOOO..                      ",
"                              ..........XX                      ",
"                              ..........XX                      ",
"                                                                ",
"                                                                ",
"                                                                ",
"                                                                "
};
