/* XPM */
static char *_005[] = {
/* columns rows colors chars-per-pixel */
"64 64 10 1 ",
"  c None",
". c #302320",
"X c #4A2622",
"o c #4E2926",
"O c #5D2E2A",
"+ c #752026",
"@ c #6E342F",
"# c #A9292F",
"$ c #D28438",
"% c #F0BF3F",
/* pixels */
"                                                                ",
"                                                                ",
"                                                                ",
"                                                                ",
"                                                                ",
"                                                                ",
"                                                                ",
"                                                                ",
"                                                                ",
"                                                                ",
"                                                                ",
"                                                                ",
"                                                                ",
"                                                                ",
"                                  ......                        ",
"                                  ......                        ",
"                                ..##++##..                      ",
"                                ..##++##..                      ",
"                              ..%%++##++##..                    ",
"                              ..%%++##++##..                    ",
"                            ..oooo$$%%++++##..                  ",
"                            ..oooo$$%%++++##..                  ",
"                          ..oooooooo%%$$##++##..                ",
"                          ..oooooooo%%$$##++##..                ",
"                        ..ooooooooXXXX$$%%$$++##..              ",
"                        ..ooooooooXXXX$$%%$$++##..              ",
"                      ..@@@@@@ooXXXXXXXX$$%%%%++....            ",
"                      ..@@@@@@ooXXXXXXXX$$%%%%++....            ",
"                    ..@@@@@@@@OOOOXXXXXXXXXX%%..XX..            ",
"                    ..@@@@@@@@OOOOXXXXXXXXXX%%..XX..            ",
"                  ..@@@@@@@@OOOOOOOOXXXXXXXX..XXXX..            ",
"                  ..@@@@@@@@OOOOOOOOXXXXXXXX..XXXX..            ",
"                ..@@@@@@@@OOOOOOOOOOOOXXXX..XXXX..              ",
"                ..@@@@@@@@OOOOOOOOOOOOXXXX..XXXX..              ",
"              ..@@@@@@@@OOOOOOOOOOOOOOOO........                ",
"              ..@@@@@@@@OOOOOOOOOOOOOOOO........                ",
"            ..OO..@@@@OOOOOOOOOOOOOOOO..OOOO..                  ",
"            ..OO..@@@@OOOOOOOOOOOOOOOO..OOOO..                  ",
"            ..OOOO..OOOOOOOOOOOOOOOO..OOOO..                    ",
"            ..OOOO..OOOOOOOOOOOOOOOO..OOOO..                    ",
"              ..OOOO..OOOOOOOOOOOO..OOOO..                      ",
"              ..OOOO..OOOOOOOOOOOO..OOOO..                      ",
"                ..OOOO..OOOOOOOO..OOOO..                        ",
"                ..OOOO..OOOOOOOO..OOOO..                        ",
"                  ..OOOO..OOOO..OOOO..                          ",
"                  ..OOOO..OOOO..OOOO..                          ",
"                    ..OOOO....OOOO..                            ",
"                    ..OOOO....OOOO..                            ",
"                      ..OOOO..OO..                              ",
"                      ..OOOO..OO..                              ",
"                        ..OOOO..                                ",
"                        ..OOOO..                                ",
"                          ....                                  ",
"                          ....                                  ",
"                                                                ",
"                                                                ",
"                                                                ",
"                                                                ",
"                                                                ",
"                                                                ",
"                                                                ",
"                                                                ",
"                                                                ",
"                                                                "
};
