/* XPM */
static char *_008[] = {
/* columns rows colors chars-per-pixel */
"64 128 22 1 ",
"  c None",
". c #090806",
"X c #22100F",
"o c #221C16",
"O c #3A1A18",
"+ c #28241A",
"@ c #10182C",
"# c #141F38",
"$ c #392120",
"% c #692329",
"& c #594E3A",
"* c #5C523A",
"= c #223462",
"- c #87232A",
"; c #AD7939",
": c #EF952C",
"> c #E09D34",
", c #A9895B",
"< c #BC9C65",
"1 c #EEB74B",
"2 c #FFDC8E",
"3 c white",
/* pixels */
"                                                                ",
"                                                                ",
"                                                                ",
"                                                                ",
"                                                                ",
"                                                                ",
"                                                                ",
"                                                                ",
"                                                                ",
"                                                                ",
"                                                                ",
"                                                                ",
"                                                                ",
"                                                                ",
"                                                                ",
"                                                                ",
"                                                                ",
"                                                                ",
"                                                                ",
"                                                                ",
"                                                                ",
"                                                                ",
"                          ;;;;;;;;;;;;                          ",
"                          ;;;;;;;;;;;;                          ",
"                      ;;;;;;>>>>>>>>;;;;;;                      ",
"                      ;;;;;;>>>>>>>>;;;;;;                      ",
"                    ;;;;>>>>>>111111>>>>;;;;                    ",
"                    ;;;;>>>>>>111111>>>>;;;;                    ",
"                    ;;>>>>111111111111>>>>;;;;                  ",
"                    ;;>>>>111111111111>>>>;;;;                  ",
"                  ;;>>>>1111111111111111>>>>;;;;                ",
"                  ;;>>>>1111111111111111>>>>;;;;                ",
"                  ;;>>11111111111111111111>>>>;;                ",
"                  ;;>>11111111111111111111>>>>;;                ",
"                  >>111111>>1111111111111111>>;;;;              ",
"                  >>111111>>1111111111111111>>;;;;              ",
"                ;;>>1111;;;;>>11111111111111>>>>;;              ",
"                ;;>>1111;;;;>>11111111111111>>>>;;              ",
"                ;;>>11;;;;22;;1111111111111111>>;;              ",
"                ;;>>11;;;;22;;1111111111111111>>;;              ",
"                ;;>>11******22;;11111111111111>>;;;;            ",
"                ;;>>11******22;;11111111111111>>;;;;            ",
"                ;;>>11**::****221111111111111111>>;;            ",
"                ;;>>11**::****221111111111111111>>;;            ",
"                ;;>>11**33**2222;;11111111111111>>;;            ",
"                ;;>>11**33**2222;;11111111111111>>;;            ",
"                ;;>>1122**222222;;1111111111>>11>>;;            ",
"                ;;>>1122**222222;;1111111111>>11>>;;            ",
"                ;;>>;;2222222222;;1111;;11>>>>>>>>;;            ",
"                ;;>>;;2222222222;;1111;;11>>>>>>>>;;            ",
"                ;;>>;;<<222222;;1111;;;;>>>>;;>>>>;;            ",
"                ;;>>;;<<222222;;1111;;;;>>>>;;>>>>;;            ",
"                  ;;11;;<<22;;111111;;>>>>;;;;>>>>;;            ",
"                  ;;11;;<<22;;111111;;>>>>;;;;>>>>;;            ",
"                  ;;11;;;;oo;;11;;;;>>>>;;;;>>>>>>;;            ",
"                  ;;11;;;;oo;;11;;;;>>>>;;;;>>>>>>;;            ",
"                  ;;11;;oooooo;;;;>>>>>>;;;;>>>>>>;;            ",
"                  ;;11;;oooooo;;;;>>>>>>;;;;>>>>>>;;            ",
"                  ;;11;;oo$$oooo;;>>>>;;;;;;>>>>>>;;            ",
"                  ;;11;;oo$$oooo;;>>>>;;;;;;>>>>>>;;            ",
"                  ;;11oo$$$$oo%%;;>>;;;;;;;;;;>>;;              ",
"                  ;;11oo$$$$oo%%;;>>;;;;;;;;;;>>;;              ",
"                    ;;oo$$oo%%----;;;;>>;;%%;;>>;;              ",
"                    ;;oo$$oo%%----;;;;>>;;%%;;>>;;              ",
"                      &&oo%%--------%%;;%%%%%%;;                ",
"                      &&oo%%--------%%;;%%%%%%;;                ",
"                      &&,,%%----------%%----%%                  ",
"                      &&,,%%----------%%----%%                  ",
"                      &&,,%%----------------%%                  ",
"                      &&,,%%----------------%%                  ",
"                      &&,,,,%%----------------%%                ",
"                      &&,,,,%%----------------%%                ",
"                        &&,,%%%%--------------%%                ",
"                        &&,,%%%%--------------%%                ",
"                        &&,,,,%%--------------%%%%              ",
"                        &&,,,,%%--------------%%%%              ",
"                        &&,,,,%%%%--------------%%              ",
"                        &&,,,,%%%%--------------%%              ",
"                        @@++,,,,%%%%------------%%              ",
"                        @@++,,,,%%%%------------%%              ",
"                        @@++++++&&%%------------%%              ",
"                        @@++++++&&%%------------%%              ",
"                      @@##======**%%----------%%%%              ",
"                      @@##======**%%----------%%%%              ",
"                      ####======**%%--------%%%%%%              ",
"                      ####======**%%--------%%%%%%              ",
"                    @@##======**<<%%------%%%%%%                ",
"                    @@##======**<<%%------%%%%%%                ",
"                  @@@@##======**<<%%----%%%%@@                  ",
"                  @@@@##======**<<%%----%%%%@@                  ",
"                  @@##========****%%--%%%%##@@                  ",
"                  @@##========****%%--%%%%##@@                  ",
"                @@@@##============%%%%%%==##@@@@                ",
"                @@@@##============%%%%%%==##@@@@                ",
"                @@####==============%%====####@@                ",
"                @@####==============%%====####@@                ",
"                @@##========================##@@                ",
"                @@##========================##@@                ",
"              @@@@##========================##@@@@              ",
"              @@@@##========================##@@@@              ",
"              @@##============================##@@              ",
"              @@##============================##@@              ",
"            @@####============================####@@            ",
"            @@####============================####@@            ",
"            @@####============================####@@            ",
"            @@####============================####@@            ",
"            @@@@##============================##@@@@            ",
"            @@@@##============================##@@@@            ",
"              @@@@##========================##@@@@              ",
"              @@@@##========================##@@@@              ",
"                @@@@##====================##@@@@                ",
"                @@@@##====================##@@@@                ",
"                  @@@@@@################@@@@@@                  ",
"                  @@@@@@################@@@@@@                  ",
"                    @@@@@@@@@@@@@@@@@@@@@@@@                    ",
"                    @@@@@@@@@@@@@@@@@@@@@@@@                    ",
"                          ..OOOO..OOOO..                        ",
"                          ..OOOO..OOOO..                        ",
"                        ..OOOOOO..OOXX..                        ",
"                        ..OOOOOO..OOXX..                        ",
"                      ..OOOOOOXX......                          ",
"                      ..OOOOOOXX......                          ",
"                      XX..........                              ",
"                      XX..........                              ",
"                                                                ",
"                                                                ",
"                                                                ",
"                                                                "
};
