/* XPM */
static char *_010[] = {
/* columns rows colors chars-per-pixel */
"64 128 12 1 ",
"  c None",
". c #090806",
"X c #22100F",
"o c #3A1A18",
"O c #10182C",
"+ c #141F38",
"@ c #692329",
"# c #223462",
"$ c #87232A",
"% c #AD7939",
"& c #E09D34",
"* c #EEB74B",
/* pixels */
"                                                                ",
"                                                                ",
"                                                                ",
"                                                                ",
"                                                                ",
"                                                                ",
"                                                                ",
"                                                                ",
"                                                                ",
"                                                                ",
"                                                                ",
"                                                                ",
"                                                                ",
"                                                                ",
"                                                                ",
"                                                                ",
"                                                                ",
"                                                                ",
"                                                                ",
"                                                                ",
"                                                                ",
"                                                                ",
"                          %%%%%%%%%%%%                          ",
"                          %%%%%%%%%%%%                          ",
"                      %%%%%%&&&&&&&&%%%%%%                      ",
"                      %%%%%%&&&&&&&&%%%%%%                      ",
"                    %%%%&&&&**********&&%%%%                    ",
"                    %%%%&&&&**********&&%%%%                    ",
"                  %%%%&&&&**************&&%%%%                  ",
"                  %%%%&&&&**************&&%%%%                  ",
"                %%%%&&&&******************&&%%%%                ",
"                %%%%&&&&******************&&%%%%                ",
"                %%&&&&**********************&&%%                ",
"                %%&&&&**********************&&%%                ",
"              %%%%&&************************&&%%%%              ",
"              %%%%&&************************&&%%%%              ",
"              %%&&****************************&&%%              ",
"              %%&&****************************&&%%              ",
"              %%&&****************************&&%%              ",
"              %%&&****************************&&%%              ",
"            %%&&********************************&&%%            ",
"            %%&&********************************&&%%            ",
"            %%&&********************************&&%%            ",
"            %%&&********************************&&%%            ",
"            %%&&********************************&&%%            ",
"            %%&&********************************&&%%            ",
"            %%&&********************************&&%%            ",
"            %%&&********************************&&%%            ",
"            %%&&********************************&&%%            ",
"            %%&&********************************&&%%            ",
"            %%&&********************************&&%%            ",
"            %%&&********************************&&%%            ",
"            %%&&********************************&&%%            ",
"            %%&&********************************&&%%            ",
"            %%&&************&&******************&&%%            ",
"            %%&&************&&******************&&%%            ",
"          %%%%****&&&&******&&********&&%%******&&%%            ",
"          %%%%****&&&&******&&********&&%%******&&%%            ",
"          %%&&****&&%%**&&&&%%&&******&&%%****&&%%%%%%          ",
"          %%&&****&&%%**&&&&%%&&******&&%%****&&%%%%%%          ",
"          %%&&**%%&&%%&&%%&&%%&&****&&%%&&****&&%%&&%%          ",
"          %%&&**%%&&%%&&%%&&%%&&****&&%%&&****&&%%&&%%          ",
"          %%&&%%%%&&%%&&%%&&&&%%&&**&&%%&&****&&%%&&%%          ",
"          %%&&%%%%&&%%&&%%&&&&%%&&**&&%%&&****&&%%&&%%          ",
"            %%%%%%%%&&&&%%&&&&%%&&&&%%%%&&&&**&&%%&&%%          ",
"            %%%%%%%%&&&&%%&&&&%%&&&&%%%%&&&&**&&%%&&%%          ",
"              %%$$%%&&&&%%%%&&&&%%&&%%$$%%&&**&&%%&&%%          ",
"              %%$$%%&&&&%%%%&&&&%%&&%%$$%%&&**&&%%&&%%          ",
"              %%$$%%&&%%$$%%&&%%$$%%$$$$$$%%&&%%%%%%%%          ",
"              %%$$%%&&%%$$%%&&%%$$%%$$$$$$%%&&%%%%%%%%          ",
"            @@$$$$$$%%$$$$$$%%$$$$$$$$$$$$$$%%$$$$@@            ",
"            @@$$$$$$%%$$$$$$%%$$$$$$$$$$$$$$%%$$$$@@            ",
"            @@$$$$$$$$$$$$$$$$$$$$$$$$$$$$$$$$$$$$@@            ",
"            @@$$$$$$$$$$$$$$$$$$$$$$$$$$$$$$$$$$$$@@            ",
"            @@$$$$$$$$$$$$$$$$$$$$$$$$$$$$$$$$$$$$@@            ",
"            @@$$$$$$$$$$$$$$$$$$$$$$$$$$$$$$$$$$$$@@            ",
"            @@$$$$$$$$$$$$$$$$$$$$$$$$$$$$$$$$$$$$@@            ",
"            @@$$$$$$$$$$$$$$$$$$$$$$$$$$$$$$$$$$$$@@            ",
"          @@$$$$$$$$$$$$$$$$$$$$$$$$$$$$$$$$$$$$$$$$@@          ",
"          @@$$$$$$$$$$$$$$$$$$$$$$$$$$$$$$$$$$$$$$$$@@          ",
"          @@$$$$$$$$$$$$$$$$$$$$$$$$$$$$$$$$$$$$$$$$@@          ",
"          @@$$$$$$$$$$$$$$$$$$$$$$$$$$$$$$$$$$$$$$$$@@          ",
"          @@$$$$$$$$$$$$$$$$$$$$$$$$$$$$$$$$$$$$$$$$@@          ",
"          @@$$$$$$$$$$$$$$$$$$$$$$$$$$$$$$$$$$$$$$$$@@          ",
"        @@$$$$$$$$$$$$$$$$$$$$$$$$$$$$$$$$$$$$$$$$$$$$@@        ",
"        @@$$$$$$$$$$$$$$$$$$$$$$$$$$$$$$$$$$$$$$$$$$$$@@        ",
"        @@$$$$$$$$$$$$$$@@@@@@@@@@@@@@@@$$$$$$$$$$$$$$@@        ",
"        @@$$$$$$$$$$$$$$@@@@@@@@@@@@@@@@$$$$$$$$$$$$$$@@        ",
"        @@$$$$$$$$@@@@@@@@############@@@@@@@@$$$$$$$$@@        ",
"        @@$$$$$$$$@@@@@@@@############@@@@@@@@$$$$$$$$@@        ",
"        @@$$$$@@@@@@@@####################@@@@@@@@$$$$@@        ",
"        @@$$$$@@@@@@@@####################@@@@@@@@$$$$@@        ",
"        @@$$@@@@OOOO++####################++OOOO@@@@$$@@        ",
"        @@$$@@@@OOOO++####################++OOOO@@@@$$@@        ",
"        @@@@@@  OO++++####################++++OO  @@@@@@        ",
"        @@@@@@  OO++++####################++++OO  @@@@@@        ",
"                OO++########################++OO                ",
"                OO++########################++OO                ",
"              OOOO++########################++OOOO              ",
"              OOOO++########################++OOOO              ",
"              OO++############################++OO              ",
"              OO++############################++OO              ",
"            OO++++############################++++OO            ",
"            OO++++############################++++OO            ",
"            OO++++############################++++OO            ",
"            OO++++############################++++OO            ",
"            OOOO++############################++OOOO            ",
"            OOOO++############################++OOOO            ",
"              OOOO++########################++OOOO              ",
"              OOOO++########################++OOOO              ",
"                OOOO++####################++OOOO                ",
"                OOOO++####################++OOOO                ",
"                  OOOO++++++++++++++++++++OOOO                  ",
"                  OOOO++++++++++++++++++++OOOO                  ",
"                    OOOOOOOOOOOOOOOOOOOOOOOO                    ",
"                    OOOOOOOOOOOOOOOOOOOOOOOO                    ",
"                    XXXXoooo..    ..ooooXXXX                    ",
"                    XXXXoooo..    ..ooooXXXX                    ",
"                  ..oooooooo..    ..oooooooo..                  ",
"                  ..oooooooo..    ..oooooooo..                  ",
"                  XXXXooooooXX    XXooooooXXXX                  ",
"                  XXXXooooooXX    XXooooooXXXX                  ",
"                    XX....XX        XX....XX                    ",
"                    XX....XX        XX....XX                    ",
"                                                                ",
"                                                                ",
"                                                                ",
"                                                                "
};
