/* XPM */
static char *_006[] = {
/* columns rows colors chars-per-pixel */
"64 128 22 1 ",
"  c None",
". c #090806",
"X c #22100F",
"o c #221C16",
"O c #3A1A18",
"+ c #28241A",
"@ c #10182C",
"# c #141F38",
"$ c #392120",
"% c #692329",
"& c #594E3A",
"* c #5C523A",
"= c #223462",
"- c #87232A",
"; c #AD7939",
": c #EF952C",
"> c #E09D34",
", c #A9895B",
"< c #BC9C65",
"1 c #EEB74B",
"2 c #FFDC8E",
"3 c white",
/* pixels */
"                                                                ",
"                                                                ",
"                                                                ",
"                                                                ",
"                                                                ",
"                                                                ",
"                                                                ",
"                                                                ",
"                                                                ",
"                                                                ",
"                                                                ",
"                                                                ",
"                                                                ",
"                                                                ",
"                                                                ",
"                                                                ",
"                                                                ",
"                                                                ",
"                                                                ",
"                                                                ",
"                                                                ",
"                                                                ",
"                          ;;;;;;;;;;;;                          ",
"                          ;;;;;;;;;;;;                          ",
"                      ;;;;;;>>>>>>>>;;;;;;                      ",
"                      ;;;;;;>>>>>>>>;;;;;;                      ",
"                    ;;;;>>>>>>>>>>>>>>>>;;;;                    ",
"                    ;;;;>>>>>>>>>>>>>>>>;;;;                    ",
"                  ;;;;>>>>111111111111>>>>;;;;                  ",
"                  ;;;;>>>>111111111111>>>>;;;;                  ",
"                ;;;;>>>>1111111111111111>>>>;;;;                ",
"                ;;;;>>>>1111111111111111>>>>;;;;                ",
"                ;;>>>>111111>>111111111111>>>>;;                ",
"                ;;>>>>111111>>111111111111>>>>;;                ",
"              ;;;;>>111111>>>>111111;;1111>>>>;;;;              ",
"              ;;;;>>111111>>>>111111;;1111>>>>;;;;              ",
"              ;;>>>>1111>>;;;;111111;;;;1111>>>>;;              ",
"              ;;>>>>1111>>;;;;111111;;;;1111>>>>;;              ",
"              ;;>>1111>>;;22;;1111;;22;;;;1111>>;;              ",
"              ;;>>1111>>;;22;;1111;;22;;;;1111>>;;              ",
"            ;;>>>>1111;;******11;;******;;;;11>>>>;;            ",
"            ;;>>>>1111;;******11;;******;;;;11>>>>;;            ",
"            ;;>>1111;;****::**;;22**::****;;11>>>>;;            ",
"            ;;>>1111;;****::**;;22**::****;;11>>>>;;            ",
"            ;;>>1111;;22**33**2222**33**22;;1111>>;;            ",
"            ;;>>1111;;22**33**2222**33**22;;1111>>;;            ",
"            ;;1111;;;;2222**22222222**2222;;1111>>;;            ",
"            ;;1111;;;;2222**22222222**2222;;1111>>;;            ",
"            ;;1111;;;;<<2222222222222222;;111111;;;;            ",
"            ;;1111;;;;<<2222222222222222;;111111;;;;            ",
"            ;;1111;;;;;;<<222222222222<<;;1111;;>>;;            ",
"            ;;1111;;;;;;<<222222222222<<;;1111;;>>;;            ",
"            ;;1111;;;;;;;;<<22222222<<;;;;;;11;;>>;;            ",
"            ;;1111;;;;;;;;<<22222222<<;;;;;;11;;>>;;            ",
"            ;;1111;;;;;;oooo++<<<<++oooo;;;;11;;>>;;            ",
"            ;;1111;;;;;;oooo++<<<<++oooo;;;;11;;>>;;            ",
"            ;;11;;;;oooo$$oooo++++oooo$$oooo;;>>;;              ",
"            ;;11;;;;oooo$$oooo++++oooo$$oooo;;>>;;              ",
"            ;;11;;oo$$$$$$$$$$oooo$$$$$$$$oooo>>;;              ",
"            ;;11;;oo$$$$$$$$$$oooo$$$$$$$$oooo>>;;              ",
"            ;;11;;%%oooo$$$$oo$$$$oo$$$$oooo%%;;                ",
"            ;;11;;%%oooo$$$$oo$$$$oo$$$$oooo%%;;                ",
"              ;;%%------oo$$oo$$$$oo$$oo------%%                ",
"              ;;%%------oo$$oo$$$$oo$$oo------%%                ",
"                %%--------oo$$oooo$$oo--------%%                ",
"                %%--------oo$$oooo$$oo--------%%                ",
"              %%------------,,,,,,,,------------%%              ",
"              %%------------,,,,,,,,------------%%              ",
"              %%--------,,,,,,,,,,,,,,,,--------%%              ",
"              %%--------,,,,,,,,,,,,,,,,--------%%              ",
"            %%--------,,,,,,,,,,,,,,,,,,,,--------%%            ",
"            %%--------,,,,,,,,,,,,,,,,,,,,--------%%            ",
"            %%--------,,,,,,,,,,,,,,,,,,,,--------%%            ",
"            %%--------,,,,,,,,,,,,,,,,,,,,--------%%            ",
"            %%------++&&,,,,,,,,,,,,,,,,&&++------%%            ",
"            %%------++&&,,,,,,,,,,,,,,,,&&++------%%            ",
"            %%------++&&&&,,,,,,,,,,,,&&&&++------%%            ",
"            %%------++&&&&,,,,,,,,,,,,&&&&++------%%            ",
"          %%------<<**++&&&&&&&&&&&&&&&&++**<<------%%          ",
"          %%------<<**++&&&&&&&&&&&&&&&&++**<<------%%          ",
"          %%----**<<**@@++++++++++++++++@@**<<**----%%          ",
"          %%----**<<**@@++++++++++++++++@@**<<**----%%          ",
"          %%----<<**@@@@##============##@@@@**<<----%%          ",
"          %%----<<**@@@@##============##@@@@**<<----%%          ",
"        %%------<<**@@####============####@@**<<------%%        ",
"        %%------<<**@@####============####@@**<<------%%        ",
"        %%----<<****@@##================##@@****<<----%%        ",
"        %%----<<****@@##================##@@****<<----%%        ",
"        %%----<<**@@@@##================##@@@@**<<----%%        ",
"        %%----<<**@@@@##================##@@@@**<<----%%        ",
"        %%----****@@##====================##@@****----%%        ",
"        %%----****@@##====================##@@****----%%        ",
"        %%--%%%%@@@@##====================##@@@@%%%%--%%        ",
"        %%--%%%%@@@@##====================##@@@@%%%%--%%        ",
"        %%%%%%  @@####====================####@@  %%%%%%        ",
"        %%%%%%  @@####====================####@@  %%%%%%        ",
"                @@##========================##@@                ",
"                @@##========================##@@                ",
"              @@@@##========================##@@@@              ",
"              @@@@##========================##@@@@              ",
"              @@##============================##@@              ",
"              @@##============================##@@              ",
"            @@####============================####@@            ",
"            @@####============================####@@            ",
"            @@####============================####@@            ",
"            @@####============================####@@            ",
"            @@@@##============================##@@@@            ",
"            @@@@##============================##@@@@            ",
"              @@@@##========================##@@@@              ",
"              @@@@##========================##@@@@              ",
"                @@@@##====================##@@@@                ",
"                @@@@##====================##@@@@                ",
"                  @@@@####################@@@@                  ",
"                  @@@@####################@@@@                  ",
"                    @@@@@@@@@@@@@@@@@@@@@@@@                    ",
"                    @@@@@@@@@@@@@@@@@@@@@@@@                    ",
"                    ..OOOOOO..    ..OOOOOO..                    ",
"                    ..OOOOOO..    ..OOOOOO..                    ",
"                  ..OOOOOOXX..    ..XXOOOOOO..                  ",
"                  ..OOOOOOXX..    ..XXOOOOOO..                  ",
"                  ..OOOOXX..        ..XXOOOO..                  ",
"                  ..OOOOXX..        ..XXOOOO..                  ",
"                  XX......            ......XX                  ",
"                  XX......            ......XX                  ",
"                                                                ",
"                                                                ",
"                                                                ",
"                                                                "
};
