/* XPM */
static char *_011[] = {
/* columns rows colors chars-per-pixel */
"64 64 6 1 ",
"  c #ACADAF",
". c #AEAFB0",
"X c #AFB0B1",
"o c #B1B2B3",
"O c #B3B3B4",
"+ c #B7B7B7",
/* pixels */
"++++++++++++++++++++++++++++++++++++++++++++++++++++++++++++++++",
"++++++++++++++++++++++++++++++++++++++++++++++++++++++++++++++++",
"++++++++++++++++OOooOO++++++++oooo++++++++++oo++OO++++++++++++++",
"++++++++++++++++OOooOO++++++++oooo++++++++++oo++OO++++++++++++++",
"++oooo++++++++++++++++++++++++++++++++++++++++++++++++oo++++++++",
"++oooo++++++++++++++++++++++++++++++++++++++++++++++++oo++++++++",
"ooooXXooOOOOOO++++++++++++++++++++++++++++++++++++oooo++++OO++++",
"ooooXXooOOOOOO++++++++++++++++++++++++++++++++++++oooo++++OO++++",
"..++ooOOOOOO++OO++++++++++++++++++++++++++++++++++++++++++oo++++",
"..++ooOOOOOO++OO++++++++++++++++++++++++++++++++++++++++++oo++++",
"OO++++++++++++++++++++++++++++++++++++++++++++++++++++++++++++++",
"OO++++++++++++++++++++++++++++++++++++++++++++++++++++++++++++++",
"++OO++++++++++++oooo++++++++++++++++++++++++++++++++++++++++++OO",
"++OO++++++++++++oooo++++++++++++++++++++++++++++++++++++++++++OO",
"oo++++++++++++++++++++++++++++++++++++++++++++++++++++++++++++OO",
"oo++++++++++++++++++++++++++++++++++++++++++++++++++++++++++++OO",
"oo++++++OO++OO++++++++oo++++++++++++++++++++++++++++++++++++oOOO",
"oo++++++OO++OO++++++++oo++++++++++++++++++++++++++++++++++++oO+O",
"OO++ooooOOoooooo++++++++++++++++++++++++++++++++++++++++++++++++",
"OO++ooooOOoooooo++++++++++++++++++++++++++++++++++++++++++++++++",
"OOOO++OO++OO++OOOOOOOO++OO++++++++++++++OO++++++++oo++++++++OO++",
"OOOO++OO++OO++OOOOOOOO++OO++++++++++++++OO++++++++oo++++++++OO++",
"++++++++++++++++++++++++++++++++++++OOOOXXooooooOO++++++++++++++",
"++++++++++++++++++++++++++++++++++++OOOOXXooooooOO++++++++++++++",
"++++++++++++++++++++++++++++++++++++++++++++OO..Xo++++++++++++++",
"++++++++++++++++++++++++++++++++++++++++++++OO..oo++++++++++++++",
"++++++++++++++++++++++++++++++++++++++++++++++++++++++++OOoo++++",
"++++++++++++++++++++++++++++++++++++++++++++++++++++++++OOoo++++",
"++++++++++++++++OOoo++++++++++OOooOOOO++++++++++++++++++++++++++",
"++++++++++++++++OOoo++++++++++OOooOOOO++++++++++++++++++++++++++",
"++++++++++++++++OOooooOOooOO++++++  ++OO++++++++++++++OO++++++++",
"++++++++++++++++OOooooOOooOO++++++  ++OO++++++++++++++OO++++++++",
"++++++++++++++++++++oo++++++++++++++++++++++++++++++++++..++++++",
"++++++++++++++++++++oo++++++++++++++++++++++++++++++++++..++++++",
"++++++++++++OOoo++++++++++++++++++++++++oo++++++++++++++++++++++",
"++++++++++++OOoo++++++++++++++++++++++++oo++++++++++++++++++++++",
"++++++++++++++++OOoo++++++++++++++++OO++++++++++OO++++++++++++++",
"++++++++++++++++OOoo++++++++++++++++OO++++++++++OO++++++++++++++",
"++++++++++++OO++++++++++++++++++oO++++++++++OOOOOOOOOO++++OO++++",
"++++++++++++OO++++++++++++++++++OO++++++++++OOOOOOOooO++++OO++++",
"OO++++++++++++++++Oo++++++++OOOO++++++++++++++OO++++++++++OOoo++",
"OO++++++++++++++++OO++++++++OOOO++++++++++++++OO++++++++++OOoo++",
"OO++++++++++++++++++++++++++ooOO++++++++++++oooo++++++++++++++++",
"OO++++++++++++++++++++++++++ooOO++++++++++++oooo++++++++++++++++",
"++++++++++++++++++++++++++++++OO++++++++++++ooooXXoo++++++++++++",
"++++++++++++++++++++++++++++++OO++++++++++++ooooXXoo++++++++++++",
"++++++oo++++++++++++++++++++++++++++++++++++++OOoo++++++++oo++oo",
"++++++oo++++++++++++++++++++++++++++++++++++++OOoo++++++++oo++oo",
"++++++++ooOO++++oooo++++++++++++++++++++++++++++++++++++++++++++",
"++++++++ooOO++++oooo++++++++++++++++++++++++++++++++++++++++++++",
"++++++++++++++OOOO++++++++++++++++++++++++++++OO++++++++oo++OoOO",
"++++++++++++++OOOO++++++++++++++++++++++++++++OO++++++++oo++ooOO",
"++++++++++++OOOO++++ooOO++++++++++++++++++++oo++OO++++++++oo++++",
"++++++++++++OOOO++++ooOO++++++++++++++++++++oo++OO++++++++oo++++",
"++++++++++++++++OOOOoo++OO++++++++++++++oo++++++++++++++++++++++",
"++++++++++++++++OOOOoo++oo++++++++++++++oo++++++++++++++++++++++",
"++++++++++++++++++++++++++OO++++ooOOOO++++OO  X.++++++++++XX++++",
"++++++++++++++++++++++++++OO++++ooOOOO++++OO  XX++++++++++oo++++",
"++++++++++++++++++++++++++OO++++OO++++ooXXoooo++++++++++OOoo++++",
"++++++++++++++++++++++++++OO++++OO++++ooXXoooo++++++++++OOoo++++",
"++++++++++++++++++++++++++++++++++++oooo++++++OO++ooooOO++++++++",
"++++++++++++++++++++++++++++++++++++oooo++++++Oo++ooooOO++++++++",
"++++++OOOOoo++++++++++++++++++++++++++++++++++++++++++++++++++++",
"++++++OOOOoo++++++++++++++++++++++++++++++++++++++++++++++++++++"
};
