/* XPM */
static char *_013[] = {
/* columns rows colors chars-per-pixel */
"64 64 5 1 ",
"  c None",
". c #30190B",
"X c #4A3527",
"o c #A2501D",
"O c #EBC8B5",
/* pixels */
"                                                                ",
"                                                                ",
"                                                                ",
"                                                                ",
"                                                                ",
"                                                                ",
"                                                                ",
"                                                                ",
"                                                                ",
"                                                                ",
"                                                                ",
"                                                                ",
"                                                                ",
"                                                                ",
"                                                                ",
"                                                                ",
"                                                                ",
"                                                                ",
"                                                                ",
"                                                                ",
"                                                                ",
"                                                                ",
"                                                                ",
"                                                                ",
"                                                                ",
"                                                                ",
"                                                                ",
"                                                                ",
"                ....                                            ",
"                ....                                            ",
"                ..OO..  ....................                    ",
"                ..OO..  ....................                    ",
"                ..OOOO..XXXXXXXXXXXXXXXXXXXX......    ....      ",
"                ..OOOO..XXXXXXXXXXXXXXXXXXXX......    ....      ",
"              ........XXXXXXooooooXXXXXXXXXXXX......  ..OO..    ",
"              ........XXXXXXooooooXXXXXXXXXXXX......  ..OO..    ",
"            ..XXoo..ooXXXXXXooooooooXXXXXXXXXXXXXXXX....OOOO..  ",
"            ..XXoo..ooXXXXXXooooooooXXXXXXXXXXXXXXXX....OOOO..  ",
"          ..XXoo..ooooXXXXooooooooXXXXXXXXXXooooXXXX......OO..  ",
"          ..XXoo..ooooXXXXooooooooXXXXXXXXXXooooXXXX......OO..  ",
"        ..XXoo..ooooXXXXXXooooooXXXXXXXXXXoooooo....XXXX....    ",
"        ..XXoo..ooooXXXXXXooooooXXXXXXXXXXoooooo....XXXX....    ",
"      ..XXoo..ooooXXXXXXooooooXXXXXXXXXXoooooo..XXXXXXoo..      ",
"      ..XXoo..ooooXXXXXXooooooXXXXXXXXXXoooooo..XXXXXXoo..      ",
"      ..XXoo..XXXXXXXXXXooooXXXXXXXXXXoooooo..XXoooooooo..      ",
"      ..XXoo..XXXXXXXXXXooooXXXXXXXXXXoooooo..XXoooooooo..      ",
"      ..oo..XXXXXXXXXXXXooXXXXXXXXXXXXXXXX..oooooooooo..        ",
"      ..oo..XXXXXXXXXXXXooXXXXXXXXXXXXXXXX..oooooooooo..        ",
"      ..oo..XXXXooXXXXXXXXXXXXXXXXXXXXXX..ooooXXoooo....        ",
"      ..oo..XXXXooXXXXXXXXXXXXXXXXXXXXXX..ooooXXoooo....        ",
"      ......XXooooooXXXXXXXXXXXXoooooooo..ooXXXXXXoo..          ",
"      ......XXooooooXXXXXXXXXXXXoooooooo..ooXXXXXXoo..          ",
"      ..ooXX..ooooooXXXXXXXXXXoooooo..........XXXX....          ",
"      ..ooXX..ooooooXXXXXXXXXXoooooo..........XXXX....          ",
"      ....ooXX..ooooXXXXXXXXoooooo..XXXXXXXXXX......            ",
"      ....ooXX..ooooXXXXXXXXoooooo..XXXXXXXXXX......            ",
"        ....ooXX..ooXXXXXXoooooo..XXXXoooooo......              ",
"        ....ooXX..ooXXXXXXoooooo..XXXXoooooo......              ",
"          ......................................                ",
"          ......................................                ",
"                                                                ",
"                                                                ",
"                                                                ",
"                                                                "
};
