/* XPM */
static char *_012[] = {
/* columns rows colors chars-per-pixel */
"64 64 5 1 ",
"  c None",
". c #30190B",
"X c #4A3527",
"o c #A2501D",
"O c #EBC8B5",
/* pixels */
"                                                                ",
"                                                                ",
"                                                                ",
"                                                                ",
"                                                                ",
"                                                                ",
"                                                                ",
"                                                                ",
"                                                                ",
"                                                                ",
"                                                                ",
"                                                                ",
"                                                                ",
"                                                                ",
"                                                                ",
"                                                                ",
"                                                                ",
"                                                                ",
"                                                                ",
"                                                                ",
"                                                                ",
"                                                                ",
"                                                                ",
"                                                                ",
"                                                                ",
"                                                                ",
"                                                                ",
"                                                                ",
"              ....                                    ....      ",
"              ....                                    ....      ",
"              ..OO..                                  ..OO..    ",
"              ..OO..                                  ..OO..    ",
"              ..OOOO..                                ..OOOO..  ",
"              ..OOOO..                                ..OOOO..  ",
"            ..........                              ......OO..  ",
"            ..........                              ......OO..  ",
"            ..oo..........              ................XX..    ",
"            ..oo..........              ................XX..    ",
"          ..XX....XXXXXX....        ....XXXXXXXXXX....XXXX..    ",
"          ..XX....XXXXXX....        ....XXXXXXXXXX....XXXX..    ",
"        ....XX....ooooXXXX..........XXXXXXXXoooooo....XXoo..    ",
"        ....XX....ooooXXXX..........XXXXXXXXoooooo....XXoo..    ",
"        ..XX....ooooooXXXXXXXXXXXXXXXXXXXXoooooo....XXoooo..    ",
"        ..XX....ooooooXXXXXXXXXXXXXXXXXXXXoooooo....XXoooo..    ",
"      ....oo..ooooooXXXXXXooooooXXXXXXXXoooooooo..XXoooo..      ",
"      ....oo..ooooooXXXXXXooooooXXXXXXXXoooooooo..XXoooo..      ",
"      ..oo..XXXXXXXXXXXXooooooXXXXXXXXXXXXoooo..oooooooo..      ",
"      ..oo..XXXXXXXXXXXXooooooXXXXXXXXXXXXoooo..oooooooo..      ",
"    ........XXXXXXXXXXXXooooXXXXXXXXXXXXXXXXXX..ooXXXXoo..      ",
"    ........XXXXXXXXXXXXooooXXXXXXXXXXXXXXXXXX..ooXXXXoo..      ",
"    ..oo....ooooooXXXXXXooXXXXXXXXXXXXoooooo........XXXX..      ",
"    ..oo....ooooooXXXXXXooXXXXXXXXXXXXoooooo........XXXX..      ",
"    ..ooXX....ooooooXXXXXXXXXXXXXXXXoooooo....XXXX..XX....      ",
"    ..ooXX....ooooooXXXXXXXXXXXXXXXXoooooo....XXXX..XX....      ",
"    ....ooXX..ooooooXXXXXXXXXXXXoooooooo....XXXXXX......        ",
"    ....ooXX..ooooooXXXXXXXXXXXXoooooooo....XXXXXX......        ",
"      ....oo....ooooooXXXXXXXXoooooooo....XXoooo......          ",
"      ....oo....ooooooXXXXXXXXoooooooo....XXoooo......          ",
"        ............................................            ",
"        ............................................            ",
"                                                                ",
"                                                                ",
"                                                                ",
"                                                                "
};
