/* XPM */
static char *_002[] = {
/* columns rows colors chars-per-pixel */
"128 128 14 1 ",
"  c #231818",
". c #56443E",
"X c #4C4343",
"o c #D57B47",
"O c #F19B5E",
"+ c #F1BD61",
"@ c #FFC37F",
"# c #AEAFB0",
"$ c #AFB0B1",
"% c #B0B0B1",
"& c #B1B2B3",
"* c #B3B3B4",
"= c #B7B7B7",
"- c #ECD2B2",
/* pixels */
"================================================================================================================================",
"================================================================================================================================",
"================================================================================================================================",
"================================================================================================================================",
"========--------================****&&&&--------============&&&&&&&&================------------****============--------========",
"========--------================****&&&&--------============&&&&&&&&================------------****============--------========",
"========--------================****&&&&--------============&&&&&&&&================------------****============--------========",
"========--------================****&&&&--------============&&&&&&&&================------------****============--------========",
"====&&&&&&&&------------====================--------================================----====================--------============",
"====&&&&&&&&------------====================--------================================----====================--------============",
"====&&&&&&&&------------====================--------================================----====================--------============",
"====&&&&&&&&------------====================--------================================----====================--------============",
"&&&&&&&&$$$$&&&&****--------====================------------================--------================&&&&--------====****========",
"&&&&&&&&$$$$&&&&****--------====================------------================--------================&&&&--------====****========",
"&&&&&&&&$$$$&&&&****--------====================------------================--------================&&&&--------====****========",
"&&&&&&&&$$$$&&&&****--------====================------------================--------================&&&&--------====****========",
"####====&&&&************----****====================================================================--------========&&&&========",
"####====&&&&************----****====================================================================--------========&&&&========",
"####====&&&&************----****====================================================================--------========&&&&========",
"####====&&&&************----****====================================================================--------========&&&&========",
"****=================================***====                                        ====================================----====",
"****==================================**====                                        ====================================----====",
"****========================================                                        ====================================----====",
"****========================================                                        ====================================----====",
"====--------===================*                    XXXXXXXXXXXXXXXXXXXXXXXX                    ====================--------****",
"====--------==================**                    XXXXXXXXXXXXXXXXXXXXXXXX                    ====================--------****",
"====--------====================                    XXXXXXXXXXXXXXXXXXXXXXXX                    ====================--------****",
"====--------====================                    XXXXXXXXXXXXXXXXXXXXXXXX                    ====================--------****",
"&&&&====--------============            XXXXXXXXXXXX                        XXXXXXXXXXXX            ============--------====****",
"&&&&====--------============            XXXXXXXXXXXX                        XXXXXXXXXXXX            ============--------====****",
"&&&&====--------============            XXXXXXXXXXXX                        XXXXXXXXXXXX            ============--------====****",
"&&&&====--------============            XXXXXXXXXXXX                        XXXXXXXXXXXX            ============--------====****",
"&&&&========--------====        XXXXXXXXXXXX            OOOOOOOOOOOOOOOO            XXXXXXXXXXXX        ========----====********",
"&&&&========--------====        XXXXXXXXXXXX            OOOOOOOOOOOOOOOO            XXXXXXXXXXXX        ========----====********",
"&&&&========--------====        XXXXXXXXXXXX            OOOOOOOOOOOOOOOO            XXXXXXXXXXXX        ========----====*****=**",
"&&&&========--------====        XXXXXXXXXXXX            OOOOOOOOOOOOOOOO            XXXXXXXXXXXX        ========----====****==**",
"****====&&&&&&&&----&&&&    XXXXXXXX        OOOOOOOOOOOOOOOO@@@@OOOOOOOOOOOOOOOOOOOO        XXXXXXXX    ========================",
"****====&&&&&&&&----&&&&    XXXXXXXX        OOOOOOOOOOOOOOOO@@@@OOOOOOOOOOOOOOOOOOOO        XXXXXXXX    ========================",
"****====&&&&&&&&----&&&&    XXXXXXXX        OOOOOOOOOOOOOOOO@@@@OOOOOOOOOOOOOOOOOOOO        XXXXXXXX    ========================",
"****====&&&&&&&&----&&&&    XXXXXXXX        OOOOOOOOOOOOOOOO@@@@OOOOOOOOOOOOOOOOOOOO        XXXXXXXX    ========================",
"********====****====****    XXXX        OOOOOOOOOOOOOOOOOOOOOOOOOOOOOOOO@@@@OOOOOOOOOOOO        XXXX    ================&&&*====",
"********====****====****    XXXX        OOOOOOOOOOOOOOOOOOOOOOOOOOOOOOOO@@@@OOOOOOOOOOOO        XXXX    ================&&**====",
"********====****====****    XXXX        OOOOOOOOOOOOOOOOOOOOOOOOOOOOOOOO@@@@OOOOOOOOOOOO        XXXX    ================&&&&====",
"********====****====****    XXXX        OOOOOOOOOOOOOOOOOOOOOOOOOOOOOOOO@@@@OOOOOOOOOOOO        XXXX    ================&&&&====",
"========================            OOOOOOOO@@@@OOOOOOOO@@@@OOOOOOOOOOOOOOOOOOOO@@@@OOOOOOOO            ========================",
"========================            OOOOOOOO@@@@OOOOOOOO@@@@OOOOOOOOOOOOOOOOOOOO@@@@OOOOOOOO            ========================",
"========================            OOOOOOOO@@@@OOOOOOOO@@@@OOOOOOOOOOOOOOOOOOOO@@@@OOOOOOOO            ========================",
"========================            OOOOOOOO@@@@OOOOOOOO@@@@OOOOOOOOOOOOOOOOOOOO@@@@OOOOOOOO            ========================",
"========================                OOOOOOOOOOOOOOOOOOOOOOOOOOOOOOOOOOOOOOOOOOOOOOOO                ========================",
"========================                OOOOOOOOOOOOOOOOOOOOOOOOOOOOOOOOOOOOOOOOOOOOOOOO                ========================",
"========================                OOOOOOOOOOOOOOOOOOOOOOOOOOOOOOOOOOOOOOOOOOOOOOOO                ====**==================",
"========================                OOOOOOOOOOOOOOOOOOOOOOOOOOOOOOOOOOOOOOOOOOOOOOOO                ====*===================",
"====================        XXXXXXXX                                                        XXXXXXXX        ====****&&&&========",
"====================        XXXXXXXX                                                        XXXXXXXX        ====****&&&&========",
"====================        XXXXXXXX                                                        XXXXXXXX        ====****&&&&========",
"====================        XXXXXXXX                                                        XXXXXXXX        ====****&&&&========",
"================        XXXXXXXXXXXXXXXXXXXXXXXXXXXXXXXXXXXXXXXXXXXXXXXXXXXXXXXXXXXXXXXXXXXXXXXXXXXXXXXX        ================",
"================        XXXXXXXXXXXXXXXXXXXXXXXXXXXXXXXXXXXXXXXXXXXXXXXXXXXXXXXXXXXXXXXXXXXXXXXXXXXXXXXX        ================",
"================        XXXXXXXXXXXXXXXXXXXXXXXXXXXXXXXXXXXXXXXXXXXXXXXXXXXXXXXXXXXXXXXXXXXXXXXXXXXXXXXX        ================",
"================        XXXXXXXXXXXXXXXXXXXXXXXXXXXXXXXXXXXXXXXXXXXXXXXXXXXXXXXXXXXXXXXXXXXXXXXXXXXXXXXX        ================",
"================    XXXXXXXXXXXXXXXXXXXXXXXXXXXXXXXXXXXXXXXXXXXXXXXXXXXXXXXXXXXXXXXXXXXXXXXXXXXXXXXXXXXXXXXX    ================",
"================    XXXXXXXXXXXXXXXXXXXXXXXXXXXXXXXXXXXXXXXXXXXXXXXXXXXXXXXXXXXXXXXXXXXXXXXXXXXXXXXXXXXXXXXX    ================",
"================    XXXXXXXXXXXXXXXXXXXXXXXXXXXXXXXXXXXXXXXXXXXXXXXXXXXXXXXXXXXXXXXXXXXXXXXXXXXXXXXXXXXXXXXX    ================",
"================    XXXXXXXXXXXXXXXXXXXXXXXXXXXXXXXXXXXXXXXXXXXXXXXXXXXXXXXXXXXXXXXXXXXXXXXXXXXXXXXXXXXXXXXX    ================",
"============        XXXXXXXXXXXXXXXXXXXXXXXXXXXXXXXXXXXXXXXXXXXXXXXXXXXXXXXXXXXXXXXXXXXXXXXXXXXXXXXXXXXXXXXX        ============",
"============        XXXXXXXXXXXXXXXXXXXXXXXXXXXXXXXXXXXXXXXXXXXXXXXXXXXXXXXXXXXXXXXXXXXXXXXXXXXXXXXXXXXXXXXX        ============",
"============        XXXXXXXXXXXXXXXXXXXXXXXXXXXXXXXXXXXXXXXXXXXXXXXXXXXXXXXXXXXXXXXXXXXXXXXXXXXXXXXXXXXXXXXX        ============",
"============        XXXXXXXXXXXXXXXXXXXXXXXXXXXXXXXXXXXXXXXXXXXXXXXXXXXXXXXXXXXXXXXXXXXXXXXXXXXXXXXXXXXXXXXX        ============",
"============    XXXXXXXXXXXXXXXXXXXXXXXXXXXXXXXXXXXXXXXXXXXXXXXXXXXXXXXXXXXXXXXXXXXXXXXXXXXXXXXXXXXXXXXXXXXXXXXX    ++++========",
"============    XXXXXXXXXXXXXXXXXXXXXXXXXXXXXXXXXXXXXXXXXXXXXXXXXXXXXXXXXXXXXXXXXXXXXXXXXXXXXXXXXXXXXXXXXXXXXXXX    ++++========",
"============    XXXXXXXXXXXXXXXXXXXXXXXXXXXXXXXXXXXXXXXXXXXXXXXXXXXXXXXXXXXXXXXXXXXXXXXXXXXXXXXXXXXXXXXXXXXXXXXX    ++++========",
"============    XXXXXXXXXXXXXXXXXXXXXXXXXXXXXXXXXXXXXXXXXXXXXXXXXXXXXXXXXXXXXXXXXXXXXXXXXXXXXXXXXXXXXXXXXXXXXXXX    ++++========",
"========++++    ++++XXXXXXXXXXXX++++XXXXXXXXXXXX++++++++XXXXXXXXXXXXXXXX++++XXXXXXXXXXXXXXXXXXXX++++XXXXXXXX++++    ============",
"========++++    ++++XXXXXXXXXXXX++++XXXXXXXXXXXX++++++++XXXXXXXXXXXXXXXX++++XXXXXXXXXXXXXXXXXXXX++++XXXXXXXX++++    ============",
"========++++    ++++XXXXXXXXXXXX++++XXXXXXXXXXXX++++++++XXXXXXXXXXXXXXXX++++XXXXXXXXXXXXXXXXXXXX++++XXXXXXXX++++    ============",
"========++++    ++++XXXXXXXXXXXX++++XXXXXXXXXXXX++++++++XXXXXXXXXXXXXXXX++++XXXXXXXXXXXXXXXXXXXX++++XXXXXXXX++++    ============",
"============++++++++++++XXXXXXXXXXXXXXXX++++XXXXXXXXXXXXXXXX++++XXXXXXXX++++XXXXXXXX++++XXXXXXXX++++XXXX++++++++++++****========",
"============++++++++++++XXXXXXXXXXXXXXXX++++XXXXXXXXXXXXXXXX++++XXXXXXXX++++XXXXXXXX++++XXXXXXXX++++XXXX++++++++++++****========",
"============++++++++++++XXXXXXXXXXXXXXXX++++XXXXXXXXXXXXXXXX++++XXXXXXXX++++XXXXXXXX++++XXXXXXXX++++XXXX++++++++++++****========",
"============++++++++++++XXXXXXXXXXXXXXXX++++XXXXXXXXXXXXXXXX++++XXXXXXXX++++XXXXXXXX++++XXXXXXXX++++XXXX++++++++++++****========",
"****========    ++++++++++++XXXXXXXX++++++++XXXX++++++++XXXXXXXX++++XXXXXXXXXXXXXXXXXXXXXXXX++++XXXXXXXX++++++++    ****&&&&====",
"****========    ++++++++++++XXXXXXXX++++++++XXXX++++++++XXXXXXXX++++XXXXXXXXXXXXXXXXXXXXXXXX++++XXXXXXXX++++++++    ****&&&&====",
"****========    ++++++++++++XXXXXXXX++++++++XXXX++++++++XXXXXXXX++++XXXXXXXXXXXXXXXXXXXXXXXX++++XXXXXXXX++++++++    ****&&&&====",
"****========    ++++++++++++XXXXXXXX++++++++XXXX++++++++XXXXXXXX++++XXXXXXXXXXXXXXXXXXXXXXXX++++XXXXXXXX++++++++    ****&&&&====",
"****========    oooo++++++++XXXXXXXX++++++++++++++++++++XXXXXXXX++++++++++++++++XXXX++++XXXX++++++++++++++++oooo    ============",
"****========    oooo++++++++XXXXXXXX++++++++++++++++++++XXXXXXXX++++++++++++++++XXXX++++XXXX++++++++++++++++oooo    ============",
"****========    oooo++++++++XXXXXXXX++++++++++++++++++++XXXXXXXX++++++++++++++++XXXX++++XXXX++++++++++++++++oooo    ============",
"****========    oooo++++++++XXXXXXXX++++++++++++++++++++XXXXXXXX++++++++++++++++XXXX++++XXXX++++++++++++++++oooo    ============",
"========        oooooooo++++++++++++++++++++++++++++++++XXXX++++++++++++++++++++++++++++++++++++++++++++oooooooo        ========",
"========        oooooooo++++++++++++++++++++++++++++++++XXXX++++++++++++++++++++++++++++++++++++++++++++oooooooo        ========",
"========        oooooooo++++++++++++++++++++++++++++++++XXXX++++++++++++++++++++++++++++++++++++++++++++oooooooo        ========",
"========        oooooooo++++++++++++++++++++++++++++++++XXXX++++++++++++++++++++++++++++++++++++++++++++oooooooo        ========",
"========        ....oooooooo++++++++oooo++++++++++++++++++++++++++++oooo++++++++oooo++++++++oooooooo++++oooo....        ====&&&&",
"========        ....oooooooo++++++++oooo++++++++++++++++++++++++++++oooo++++++++oooo++++++++oooooooo++++oooo....        ====&&&&",
"========        ....oooooooo++++++++oooo++++++++++++++++++++++++++++oooo++++++++oooo++++++++oooooooo++++oooo....        ====&&&&",
"========        ....oooooooo++++++++oooo++++++++++++++++++++++++++++oooo++++++++oooo++++++++oooooooo++++oooo....        ====&&&&",
"========    ....................oooooooooooo++++++++oooo++++++++oooooooo++++oooooooo++++++++++++oooo................    ========",
"========    ....................oooooooooooo++++++++oooo++++++++oooooooo++++oooooooo++++++++++++oooo................    ========",
"========    ....................oooooooooooo++++++++oooo++++++++oooooooo++++oooooooo++++++++++++oooo................    ========",
"========    ....................oooooooooooo++++++++oooo++++++++oooooooo++++oooooooo++++++++++++oooo................    ========",
"========    ................        oooooooo....oooooooooooo++++oooooooo++++oooo....++++++++    oooo................    ****==**",
"========    ................        oooooooo....oooooooooooo++++oooooooo++++oooo....++++++++    oooo................    ****==*=",
"========    ................        oooooooo....oooooooooooo++++oooooooo++++oooo....++++++++    oooo................    ****====",
"========    ................        oooooooo....oooooooooooo++++oooooooo++++oooo....++++++++    oooo................    ****====",
"========        ........        ................    oooooooo............        ................        ........        ========",
"========        ........        ................    oooooooo............        ................        ........        ========",
"========        ........        ................    oooooooo............        ................        ........        ========",
"========        ........        ................    oooooooo............        ................        ........        ========",
"============                    ............        ........................        ............                    ============",
"============                    ............        ........................        ............                    ============",
"============                    ............        ........................        ............                    ============",
"============                    ............        ........................        ............                    ============",
"========================                                ................                                ============&&&&========",
"========================                                ................                                ============&&&&========",
"========================                                ................                                ============&&&&========",
"========================                                ................                                ============&&&&========",
"========================================                                                &&&&============*=======****&&&&========",
"========================================                                                ##&&============**======****&&&&========",
"=================*======================                                                ####============****====****&&&&========",
"================**======================                                                ####============****====****&&&&========",
"====================================================                        &&&&============****====****&&&&****================",
"====================================================                        &&&&============****====****&&&&****================",
"====================================================                        &&&&**==========****====****&&&&****================",
"====================================================                        &&&&*===========****====****&&&&****================",
"============&&******&&&&========================================================================================================",
"============&&******&&&&========================================================================================================",
"============&&&*****&&&&========================================================================================================",
"============&&&&****&&&&========================================================================================================"
};
