/* XPM */
static char *_004[] = {
/* columns rows colors chars-per-pixel */
"128 128 14 1 ",
"  c #1C0505",
". c #200000",
"X c #231818",
"o c #451919",
"O c #4C4343",
"+ c #913000",
"@ c #D57B47",
"# c #F1BD61",
"$ c #AEAFB0",
"% c #AFB0B1",
"& c #B0B0B1",
"* c #B1B2B3",
"= c #B3B3B4",
"- c #B7B7B7",
/* pixels */
"--------------------------------------------------------------------------------------------------------------------------------",
"--------------------------------------------------------------------------------------------------------------------------------",
"--------------------------------------------------------------------------------------------------------------------------------",
"--------------------------------------------------------------------------------------------------------------------------------",
"--------------------------------====*****===----------------********--------------------****----====----------------------------",
"--------------------------------====******==----------------********--------------------$$**----====----------------------------",
"--------------------------------====********----------------********--------------------$$$$----====----------------------------",
"--------------------------------====********----------------********--------------------$$$$----====----------------------------",
"----********--------XXXXXXXXXXXXXXXXXXXXXXXXXXXXXXXXXXXXXXXXXXXXXXXXXXXXXXXXXXXXXXXXXXXXXXXXXXXXXXXXXXXXXXXX****----------------",
"----********--------XXXXXXXXXXXXXXXXXXXXXXXXXXXXXXXXXXXXXXXXXXXXXXXXXXXXXXXXXXXXXXXXXXXXXXXXXXXXXXXXXXXXXXXX****----------------",
"----********--------XXXXXXXXXXXXXXXXXXXXXXXXXXXXXXXXXXXXXXXXXXXXXXXXXXXXXXXXXXXXXXXXXXXXXXXXXXXXXXXXXXXXXXXX****----------------",
"----********--------XXXXXXXXXXXXXXXXXXXXXXXXXXXXXXXXXXXXXXXXXXXXXXXXXXXXXXXXXXXXXXXXXXXXXXXXXXXXXXXXXXXXXXXX****----------------",
"********%%%%****XXXXOOOOOOOOOOOOOOOOOOOOOOOOOOOOOOOOOOOOOOOOOOOOOOOOOOOOOOOOOOOOOOOOOOOOOOOOOOOOOOOOOOOOOOOOXXXX----====--------",
"********%%%%****XXXXOOOOOOOOOOOOOOOOOOOOOOOOOOOOOOOOOOOOOOOOOOOOOOOOOOOOOOOOOOOOOOOOOOOOOOOOOOOOOOOOOOOOOOOOXXXX----====--------",
"********%%%%****XXXXOOOOOOOOOOOOOOOOOOOOOOOOOOOOOOOOOOOOOOOOOOOOOOOOOOOOOOOOOOOOOOOOOOOOOOOOOOOOOOOOOOOOOOOOXXXX----====--------",
"********%%%%****XXXXOOOOOOOOOOOOOOOOOOOOOOOOOOOOOOOOOOOOOOOOOOOOOOOOOOOOOOOOOOOOOOOOOOOOOOOOOOOOOOOOOOOOOOOOXXXX----====--------",
"$$$$----****XXXXOOOOOOOOOOOOOOOOOOOOOOOOOOOOOOOOOOOOOOOOOOOOOOOOOOOOOOOOOOOOOOOOOOOOOOOOOOOOOOOOOOOOOOOOOOOOOOOOXXXX****--------",
"$$$$----****XXXXOOOOOOOOOOOOOOOOOOOOOOOOOOOOOOOOOOOOOOOOOOOOOOOOOOOOOOOOOOOOOOOOOOOOOOOOOOOOOOOOOOOOOOOOOOOOOOOOXXXX****--------",
"$$$$----****XXXXOOOOOOOOOOOOOOOOOOOOOOOOOOOOOOOOOOOOOOOOOOOOOOOOOOOOOOOOOOOOOOOOOOOOOOOOOOOOOOOOOOOOOOOOOOOOOOOOXXXX****--------",
"$$$$----****XXXXOOOOOOOOOOOOOOOOOOOOOOOOOOOOOOOOOOOOOOOOOOOOOOOOOOOOOOOOOOOOOOOOOOOOOOOOOOOOOOOOOOOOOOOOOOOOOOOOXXXX****--------",
"====----XXXXOOOOOOOOOOOOOOOOOOOOOOOOOOOOOOOOOOOOOOOOOOOOOOOOOOOOOOOOOOOOOOOOOOOOOOOOOOOOOOOOOOOOOOOOOOOOOOOOOOOOOOOOXXXX--------",
"====----XXXXOOOOOOOOOOOOOOOOOOOOOOOOOOOOOOOOOOOOOOOOOOOOOOOOOOOOOOOOOOOOOOOOOOOOOOOOOOOOOOOOOOOOOOOOOOOOOOOOOOOOOOOOXXXX--------",
"====----XXXXOOOOOOOOOOOOOOOOOOOOOOOOOOOOOOOOOOOOOOOOOOOOOOOOOOOOOOOOOOOOOOOOOOOOOOOOOOOOOOOOOOOOOOOOOOOOOOOOOOOOOOOOXXXX--------",
"====----XXXXOOOOOOOOOOOOOOOOOOOOOOOOOOOOOOOOOOOOOOOOOOOOOOOOOOOOOOOOOOOOOOOOOOOOOOOOOOOOOOOOOOOOOOOOOOOOOOOOOOOOOOOOXXXX--------",
"----====XXXXXXXXXXXXXXXXXXXXXXXXXXXXXXXXXXXXXXXXXXXXXXXXXXXXXXXXXXXXXXXXXXXXXXXXXXXXXXXXXXXXXXXXXXXXXXXXXXXXXXXXXXXXXXXX----====",
"----====XXXXXXXXXXXXXXXXXXXXXXXXXXXXXXXXXXXXXXXXXXXXXXXXXXXXXXXXXXXXXXXXXXXXXXXXXXXXXXXXXXXXXXXXXXXXXXXXXXXXXXXXXXXXXXXX----====",
"----====XXXXXXXXXXXXXXXXXXXXXXXXXXXXXXXXXXXXXXXXXXXXXXXXXXXXXXXXXXXXXXXXXXXXXXXXXXXXXXXXXXXXXXXXXXXXXXXXXXXXXXXXXXXXXXXX----====",
"----====XXXXXXXXXXXXXXXXXXXXXXXXXXXXXXXXXXXXXXXXXXXXXXXXXXXXXXXXXXXXXXXXXXXXXXXXXXXXXXXXXXXXXXXXXXXXXXXXXXXXXXXXXXXXXXXX----====",
"****----XXXXOOOOOOOOOOOOOOOOOOOOOOOOOOOOOOOOOOOOOOOOOOOOOOOOOOOOOOOOOOOOOOOOOOOOOOOOOOOOOOOOOOOOOOOOOOOOOOOOOOOOOOOOXXXX----====",
"****----XXXXOOOOOOOOOOOOOOOOOOOOOOOOOOOOOOOOOOOOOOOOOOOOOOOOOOOOOOOOOOOOOOOOOOOOOOOOOOOOOOOOOOOOOOOOOOOOOOOOOOOOOOOOXXXX----====",
"****----XXXXOOOOOOOOOOOOOOOOOOOOOOOOOOOOOOOOOOOOOOOOOOOOOOOOOOOOOOOOOOOOOOOOOOOOOOOOOOOOOOOOOOOOOOOOOOOOOOOOOOOOOOOOXXXX----====",
"****----XXXXOOOOOOOOOOOOOOOOOOOOOOOOOOOOOOOOOOOOOOOOOOOOOOOOOOOOOOOOOOOOOOOOOOOOOOOOOOOOOOOOOOOOOOOOOOOOOOOOOOOOOOOOXXXX----====",
"****----XXXXOOOOOOOOOOOOOOOOOOOOOOOOOOOOOOOOOOOOOOOOOOOOOOOOOOOOOOOOOOOOOOOOOOOOOOOOOOOOOOOOOOOOOOOOOOOOOOOOOOOOOOOOXXXX========",
"****----XXXXOOOOOOOOOOOOOOOOOOOOOOOOOOOOOOOOOOOOOOOOOOOOOOOOOOOOOOOOOOOOOOOOOOOOOOOOOOOOOOOOOOOOOOOOOOOOOOOOOOOOOOOOXXXX========",
"****----XXXXOOOOOOOOOOOOOOOOOOOOOOOOOOOOOOOOOOOOOOOOOOOOOOOOOOOOOOOOOOOOOOOOOOOOOOOOOOOOOOOOOOOOOOOOOOOOOOOOOOOOOOOOXXXX=====-==",
"****----XXXXOOOOOOOOOOOOOOOOOOOOOOOOOOOOOOOOOOOOOOOOOOOOOOOOOOOOOOOOOOOOOOOOOOOOOOOOOOOOOOOOOOOOOOOOOOOOOOOOOOOOOOOOXXXX====--==",
"====                                                                                                                        ----",
"====                                                                                                                        ----",
"====                                                                                                                        ----",
"====                                                                                                                        ----",
"====                                                                                                                        ----",
"====                                                                                                                        ----",
"====                                                                                                                        ----",
"====                                                                                                                        ----",
"--------XXXXOOOOOOOO        OOOOOOOOOOOOOOOOOOOOOOOOOOOOOOOOOOOOOOOOOOOOOOOOOOOOOOOOOOOOOOOOOOOOOOOO        OOOOOOOOXXXX--------",
"--------XXXXOOOOOOOO        OOOOOOOOOOOOOOOOOOOOOOOOOOOOOOOOOOOOOOOOOOOOOOOOOOOOOOOOOOOOOOOOOOOOOOOO        OOOOOOOOXXXX--------",
"--------XXXXOOOOOOOO        OOOOOOOOOOOOOOOOOOOOOOOOOOOOOOOOOOOOOOOOOOOOOOOOOOOOOOOOOOOOOOOOOOOOOOOO        OOOOOOOOXXXX--------",
"--------XXXXOOOOOOOO        OOOOOOOOOOOOOOOOOOOOOOOOOOOOOOOOOOOOOOOOOOOOOOOOOOOOOOOOOOOOOOOOOOOOOOOO        OOOOOOOOXXXX--------",
"--------XXXXOOOOOOOO        OOOOOOOOOOOOOOOOOOOOOOOOOOOOOOOOOOOOOOOOOOOOOOOOOOOOOOOOOOOOOOOOOOOOOOOO        OOOOOOOOXXXX--------",
"--------XXXXOOOOOOOO        OOOOOOOOOOOOOOOOOOOOOOOOOOOOOOOOOOOOOOOOOOOOOOOOOOOOOOOOOOOOOOOOOOOOOOOO        OOOOOOOOXXXX--------",
"--------XXXXOOOOOOOO        OOOOOOOOOOOOOOOOOOOOOOOOOOOOOOOOOOOOOOOOOOOOOOOOOOOOOOOOOOOOOOOOOOOOOOOO        OOOOOOOOXXXX--------",
"--------XXXXOOOOOOOO        OOOOOOOOOOOOOOOOOOOOOOOOOOOOOOOOOOOOOOOOOOOOOOOOOOOOOOOOOOOOOOOOOOOOOOOO        OOOOOOOOXXXX--------",
"--------XXXXOOOOOOOOOOOO    OOOOOOOOOOOOOOOOOOOOOOOOOOOOOOOOOOOOOOOOOOOOOOOOOOOOOOOOOOOOOOOOOOOOOOOO    OOOOOOOOOOOOXXXX--------",
"--------XXXXOOOOOOOOOOOO    OOOOOOOOOOOOOOOOOOOOOOOOOOOOOOOOOOOOOOOOOOOOOOOOOOOOOOOOOOOOOOOOOOOOOOOO    OOOOOOOOOOOOXXXX--------",
"--------XXXXOOOOOOOOOOOO    OOOOOOOOOOOOOOOOOOOOOOOOOOOOOOOOOOOOOOOOOOOOOOOOOOOOOOOOOOOOOOOOOOOOOOOO    OOOOOOOOOOOOXXXX--------",
"--------XXXXOOOOOOOOOOOO    OOOOOOOOOOOOOOOOOOOOOOOOOOOOOOOOOOOOOOOOOOOOOOOOOOOOOOOOOOOOOOOOOOOOOOOO    OOOOOOOOOOOOXXXX--------",
"--------XXXXOOOOOOOOOOOOOOOOOOOOXXXXXXXXXXXXXXXXXXXXXXXXXXXXXXXXXXXXXXXXXXXXXXXXXXXXXXXXXXXXXXXXOOOOOOOOOOOOOOOOOOOOXXXX--------",
"--------XXXXOOOOOOOOOOOOOOOOOOOOXXXXXXXXXXXXXXXXXXXXXXXXXXXXXXXXXXXXXXXXXXXXXXXXXXXXXXXXXXXXXXXXOOOOOOOOOOOOOOOOOOOOXXXX--------",
"--------XXXXOOOOOOOOOOOOOOOOOOOOXXXXXXXXXXXXXXXXXXXXXXXXXXXXXXXXXXXXXXXXXXXXXXXXXXXXXXXXXXXXXXXXOOOOOOOOOOOOOOOOOOOOXXXX--------",
"--------XXXXOOOOOOOOOOOOOOOOOOOOXXXXXXXXXXXXXXXXXXXXXXXXXXXXXXXXXXXXXXXXXXXXXXXXXXXXXXXXXXXXXXXXOOOOOOOOOOOOOOOOOOOOXXXX--------",
"--------XXXXOOOOOOOOOOOOOOOOXXXXXXXXOOOOOOOOXXXXOOOOOOOOOOOOXXXXXXXXOOOOOOOOOOOOXXXXOOOOOOOOXXXXXXXXOOOOOOOOOOOOOOOOXXXX--------",
"--------XXXXOOOOOOOOOOOOOOOOXXXXXXXXOOOOOOOOXXXXOOOOOOOOOOOOXXXXXXXXOOOOOOOOOOOOXXXXOOOOOOOOXXXXXXXXOOOOOOOOOOOOOOOOXXXX--------",
"--------XXXXOOOOOOOOOOOOOOOOXXXXXXXXOOOOOOOOXXXXOOOOOOOOOOOOXXXXXXXXOOOOOOOOOOOOXXXXOOOOOOOOXXXXXXXXOOOOOOOOOOOOOOOOXXXX--------",
"--------XXXXOOOOOOOOOOOOOOOOXXXXXXXXOOOOOOOOXXXXOOOOOOOOOOOOXXXXXXXXOOOOOOOOOOOOXXXXOOOOOOOOXXXXXXXXOOOOOOOOOOOOOOOOXXXX--------",
"--------XXXXOOOOOOOOOOOOXXXXXXXXOOOOOOOOXXXXXXXXXXXXXXXXXXXXXXXXXXXXXXXXXXXXXXXXXXXXXXXXOOOOOOOOXXXXXXXXOOOOOOOOOOOOXXXX--------",
"--------XXXXOOOOOOOOOOOOXXXXXXXXOOOOOOOOXXXXXXXXXXXXXXXXXXXXXXXXXXXXXXXXXXXXXXXXXXXXXXXXOOOOOOOOXXXXXXXXOOOOOOOOOOOOXXXX--------",
"--------XXXXOOOOOOOOOOOOXXXXXXXXOOOOOOOOXXXXXXXXXXXXXXXXXXXXXXXXXXXXXXXXXXXXXXXXXXXXXXXXOOOOOOOOXXXXXXXXOOOOOOOOOOOOXXXX--------",
"--------XXXXOOOOOOOOOOOOXXXXXXXXOOOOOOOOXXXXXXXXXXXXXXXXXXXXXXXXXXXXXXXXXXXXXXXXXXXXXXXXOOOOOOOOXXXXXXXXOOOOOOOOOOOOXXXX--------",
"--------XXXXOOOOOOOOXXXXXXXXOOOOXXXXXXXXXXXX++++++++++++++++++++++++++++++++++++++++XXXXXXXXXXXXOOOOXXXXXXXXOOOOOOOOXXXX--------",
"--------XXXXOOOOOOOOXXXXXXXXOOOOXXXXXXXXXXXX++++++++++++++++++++++++++++++++++++++++XXXXXXXXXXXXOOOOXXXXXXXXOOOOOOOOXXXX--------",
"--------XXXXOOOOOOOOXXXXXXXXOOOOXXXXXXXXXXXX++++++++++++++++++++++++++++++++++++++++XXXXXXXXXXXXOOOOXXXXXXXXOOOOOOOOXXXX--------",
"--------XXXXOOOOOOOOXXXXXXXXOOOOXXXXXXXXXXXX++++++++++++++++++++++++++++++++++++++++XXXXXXXXXXXXOOOOXXXXXXXXOOOOOOOOXXXX--------",
"--------XXXXOOOOOOOOXXXXOOOOOOOOXXXX++++++++++++++++++++++++++++++++++++++++++++++++++++++++XXXXOOOOOOOOXXXXOOOOOOOOXXXX--------",
"--------XXXXOOOOOOOOXXXXOOOOOOOOXXXX++++++++++++++++++++++++++++++++++++++++++++++++++++++++XXXXOOOOOOOOXXXXOOOOOOOOXXXX--------",
"--------XXXXOOOOOOOOXXXXOOOOOOOOXXXX++++++++++++++++++++++++++++++++++++++++++++++++++++++++XXXXOOOOOOOOXXXXOOOOOOOOXXXX--------",
"--------XXXXOOOOOOOOXXXXOOOOOOOOXXXX++++++++++++++++++++++++++++++++++++++++++++++++++++++++XXXXOOOOOOOOXXXXOOOOOOOOXXXX--------",
"--------XXXXOOOOOOOOXXXXOOOOXXXXXXXX++++++++++++++++++++++++++++####++++++++++++++++++++####XXXXXXXXOOOOXXXXOOOOOOOOXXXX--------",
"--------XXXXOOOOOOOOXXXXOOOOXXXXXXXX++++++++++++++++++++++++++++####++++++++++++++++++++####XXXXXXXXOOOOXXXXOOOOOOOOXXXX--------",
"--------XXXXOOOOOOOOXXXXOOOOXXXXXXXX++++++++++++++++++++++++++++####++++++++++++++++++++####XXXXXXXXOOOOXXXXOOOOOOOOXXXX--------",
"--------XXXXOOOOOOOOXXXXOOOOXXXXXXXX++++++++++++++++++++++++++++####++++++++++++++++++++####XXXXXXXXOOOOXXXXOOOOOOOOXXXX--------",
"====----XXXXOOOOOOOOXXXXXXXXXXXX++++++++####++++++++########++++########++++++++++++########++++XXXXXXXX########OOOOXXXX****----",
"====----XXXXOOOOOOOOXXXXXXXXXXXX++++++++####++++++++########++++########++++++++++++########++++XXXXXXXX########OOOOXXXX****----",
"====----XXXXOOOOOOOOXXXXXXXXXXXX++++++++####++++++++########++++########++++++++++++########++++XXXXXXXX########OOOOXXXX****----",
"====----XXXXOOOOOOOOXXXXXXXXXXXX++++++++####++++++++########++++########++++++++++++########++++XXXXXXXX########OOOOXXXX****----",
"====----XXXXOOOOOOOO########XXXX++++++++####++++++++########++++++++####++++++++++++++++++++++++XXXXOOOOXXXXOOOOOOOOXXXX--------",
"====----XXXXOOOOOOOO########XXXX++++++++####++++++++########++++++++####++++++++++++++++++++++++XXXXOOOOXXXXOOOOOOOOXXXX--------",
"====----XXXXOOOOOOOO########XXXX++++++++####++++++++########++++++++####++++++++++++++++++++++++XXXXOOOOXXXXOOOOOOOOXXXX--------",
"====----XXXXOOOOOOOO########XXXX++++++++####++++++++########++++++++####++++++++++++++++++++++++XXXXOOOOXXXXOOOOOOOOXXXX--------",
"--------XXXXOOOOOOOOXXXX########++++++++++++++++++++########++++++++++++++++++++++++########++++########XXXXOOOOOOOOXXXX--------",
"--------XXXXOOOOOOOOXXXX########++++++++++++++++++++########++++++++++++++++++++++++########++++########XXXXOOOOOOOOXXXX--------",
"--------XXXXOOOOOOOOXXXX########++++++++++++++++++++########++++++++++++++++++++++++########++++########XXXXOOOOOOOOXXXX--------",
"--------XXXXOOOOOOOOXXXX########++++++++++++++++++++########++++++++++++++++++++++++########++++########XXXXOOOOOOOOXXXX--------",
"--------XXXXOOOOOOOOXXXX####################++++########################################################XXXXOOOOOOOOXXXX----****",
"--------XXXXOOOOOOOOXXXX####################++++########################################################XXXXOOOOOOOOXXXX----****",
"--------XXXXOOOOOOOOXXXX####################++++########################################################XXXXOOOOOOOOXXXX----****",
"--------XXXXOOOOOOOOXXXX####################++++########################################################XXXXOOOOOOOOXXXX----****",
"--------XXXXOOOOOOOOXXXX####@@@@@@@@@@@@############@@@@########@@@@################@@@@########@@@@####XXXXOOOOOOOOXXXX--------",
"--------XXXXOOOOOOOOXXXX####@@@@@@@@@@@@############@@@@########@@@@################@@@@########@@@@####XXXXOOOOOOOOXXXX--------",
"--------XXXXOOOOOOOOXXXX####@@@@@@@@@@@@############@@@@########@@@@################@@@@########@@@@####XXXXOOOOOOOOXXXX--------",
"--------XXXXOOOOOOOOXXXX####@@@@@@@@@@@@############@@@@########@@@@################@@@@########@@@@####XXXXOOOOOOOOXXXX--------",
"--------XXXXOOOOOOOOXXXX########@@@@@@@@########@@@@@@@@########@@@@@@@@########@@@@@@@@####@@@@@@@@####XXXXOOOOOOOOXXXX====--==",
"--------XXXXOOOOOOOOXXXX########@@@@@@@@########@@@@@@@@########@@@@@@@@########@@@@@@@@####@@@@@@@@####XXXXOOOOOOOOXXXX====--=-",
"--------XXXXOOOOOOOOXXXX########@@@@@@@@########@@@@@@@@########@@@@@@@@########@@@@@@@@####@@@@@@@@####XXXXOOOOOOOOXXXX====----",
"--------XXXXOOOOOOOOXXXX########@@@@@@@@########@@@@@@@@########@@@@@@@@########@@@@@@@@####@@@@@@@@####XXXXOOOOOOOOXXXX====----",
"--------XXXXOOOOOOOOXXXXXXXX########@@@@########@@@@@@@@########@@@@@@@@########@@@@@@@@####@@@@########XXXXOOOOOOOOXXXX--------",
"--------XXXXOOOOOOOOXXXXXXXX########@@@@########@@@@@@@@########@@@@@@@@########@@@@@@@@####@@@@########XXXXOOOOOOOOXXXX--------",
"--------XXXXOOOOOOOOXXXXXXXX########@@@@########@@@@@@@@########@@@@@@@@########@@@@@@@@####@@@@########XXXXOOOOOOOOXXXX--------",
"--------XXXXOOOOOOOOXXXXXXXX########@@@@########@@@@@@@@########@@@@@@@@########@@@@@@@@####@@@@########XXXXOOOOOOOOXXXX--------",
"--------XXXXOOOOOOOOXXXXOOOOXXXX####oooooooo........oooo########@@@@########........oooooooooooo####OOOOXXXXOOOOOOOOXXXX--------",
"--------XXXXOOOOOOOOXXXXOOOOXXXX####oooooooo........oooo########@@@@########........oooooooooooo####OOOOXXXXOOOOOOOOXXXX--------",
"--------XXXXOOOOOOOOXXXXOOOOXXXX####oooooooo........oooo########@@@@########........oooooooooooo####OOOOXXXXOOOOOOOOXXXX--------",
"--------XXXXOOOOOOOOXXXXOOOOXXXX####oooooooo........oooo########@@@@########........oooooooooooo####OOOOXXXXOOOOOOOOXXXX--------",
"--------XXXXXXXXOOOOXXXXOOOOXXXXoooooooo........oooooooooooo........oooooooooooo........ooooooooXXXXOOOOXXXXOOOOXXXXXXXX--------",
"--------XXXXXXXXOOOOXXXXOOOOXXXXoooooooo........oooooooooooo........oooooooooooo........ooooooooXXXXOOOOXXXXOOOOXXXXXXXX--------",
"--------XXXXXXXXOOOOXXXXOOOOXXXXoooooooo........oooooooooooo........oooooooooooo........ooooooooXXXXOOOOXXXXOOOOXXXXXXXX--------",
"--------XXXXXXXXOOOOXXXXOOOOXXXXoooooooo........oooooooooooo........oooooooooooo........ooooooooXXXXOOOOXXXXOOOOXXXXXXXX--------",
"------------XXXXXXXXXXXXXXXXXXXXoooo........oooooooooooo................oooooooooooo........ooooXXXXXXXXXXXXXXXXXXXX****--------",
"------------XXXXXXXXXXXXXXXXXXXXoooo........oooooooooooo................oooooooooooo........ooooXXXXXXXXXXXXXXXXXXXX****--------",
"------------XXXXXXXXXXXXXXXXXXXXoooo........oooooooooooo................oooooooooooo........ooooXXXXXXXXXXXXXXXXXXXX****--------",
"------------XXXXXXXXXXXXXXXXXXXXoooo........oooooooooooo................oooooooooooo........ooooXXXXXXXXXXXXXXXXXXXX****--------",
"----------------XXXXXXXXXXXXXXXXXXXXXXXXXXXXXXXXXXXXXXXXXXXXXXXXXXXXXXXXXXXXXXXXXXXXXXXXXXXXXXXXXXXXXXXXXXXXXXXX----------------",
"----------------XXXXXXXXXXXXXXXXXXXXXXXXXXXXXXXXXXXXXXXXXXXXXXXXXXXXXXXXXXXXXXXXXXXXXXXXXXXXXXXXXXXXXXXXXXXXXXXX----------------",
"----------------XXXXXXXXXXXXXXXXXXXXXXXXXXXXXXXXXXXXXXXXXXXXXXXXXXXXXXXXXXXXXXXXXXXXXXXXXXXXXXXXXXXXXXXXXXXXXXXX----------------",
"----------------XXXXXXXXXXXXXXXXXXXXXXXXXXXXXXXXXXXXXXXXXXXXXXXXXXXXXXXXXXXXXXXXXXXXXXXXXXXXXXXXXXXXXXXXXXXXXXXX----------------",
"------------**======****--------------------------------------------------------------------------------------------------------",
"------------**======****--------------------------------------------------------------------------------------------------------",
"------------***=====****--------------------------------------------------------------------------------------------------------",
"------------****====****--------------------------------------------------------------------------------------------------------"
};
