/* XPM */
static char *_009[] = {
/* columns rows colors chars-per-pixel */
"128 128 17 1 ",
"  c #302320",
". c #4A2622",
"X c #4E2926",
"o c #5D2E2A",
"O c #752026",
"+ c #6E342F",
"@ c #A9292F",
"# c #D28438",
"$ c #F0BF3F",
"% c #ACADAF",
"& c #AEAFB0",
"* c #AFB0B1",
"= c #B0B0B1",
"- c #B1B2B3",
"; c #B3B3B4",
": c #B4B4B5",
"> c #B7B7B7",
/* pixels */
">>>>>>>>>>>>>>>>>>>>>>>>>>>>>>>>>>>>>>>>>>>>>>>>>>>>>>>>>>>>>>>>>>>>>>>>>>>>>>>>>>>>>>>>>>>>>>>>>>>>>>>>>>>>>>>>>>>>>>>>>>>>>>>>",
">>>>>>>>>>>>>>>>>>>>>>>>>>>>>>>>>>>>>>>>>>>>>>>>>>>>>>>>>>>>>>>>>>>>>>>>>>>>>>>>>>>>>>>>>>>>>>>>>>>>>>>>>>>>>>>>>>>>>>>>>>>>>>>>",
">>>>>>>>>>>>>>>>>>>>>>>>>>>>>>>>>>>>>>>>>>>>>>>>>>>>>>>>>>>>>>>>>>>>>>>>>>>>>>>>>>>>>>>>>>>>>>>>>>>>>>>>>>>>>>>>>>>>>>>>>>>>>>>>",
">>>>>>>>>>>>>>>>>>>>>>>>>>>>>>>>>>>>>>>>>>>>>>>>>>>>>>>>>>>>>>>>>>>>>>>>>>>>>>>>>>>>>>>>>>>>>>>>>>>>>>>>>>>>>>>>>>>>>>>>>>>>>>>>",
">>>>>>>>>>>>>>>>>>>>>>>>>>>>>>>>;;;;-----;;;>>>>>>>>>>>>>>>>-------->>>>>>>>>>>>>>>>>>>>---->>>>;;;;>>>>>>>>>>>>>>>>>>>>>>>>>>>>",
">>>>>>>>>>>>>>>>>>>>>>>>>>>>>>>>;;;;------;;>>>>>>>>>>>>>>>>-------->>>>>>>>>>>>>>>>>>>>&&-->>>>;;;;>>>>>>>>>>>>>>>>>>>>>>>>>>>>",
">>>>>>>>>>>>>>>>>>>>>>>>>>>>>>>>;;;;-------->>>>>>>>>>>>>>>>-------->>>>>>>>>>>>>>>>>>>>&&&&>>>>;;;;>>>>>>>>>>>>>>>>>>>>>>>>>>>>",
">>>>>>>>>>>>>>>>>>>>>>>>>>>>>>>>;;;;-------->>>>>>>>>>>>>>>>-------->>>>>>>>>>>>>>>>>>>>&&&&>>>>;;;;>>>>>>>>>>>>>>>>>>>>>>>>>>>>",
">>>>-------->>>>>>>>>>>>>>>>>>>>>>>>>>>>>>>>>>>>>>>>>>>>>>>>>>>>>>>>>>>>>>>>>>>>>>>>>>>>>>>>>>>>>>>>>>>>>>>>---->>>>>>>>>>>>>>>>",
">>>>-------->>>>>>>>>>>>>>>>>>>>>>>>>>>>>>>>>>>>>>>>>>>>>>>>>>>>>>>>>>>>>>>>>>>>>>>>>>>>>>>>>>>>>>>>>>>>>>>>---->>>>>>>>>>>>>>>>",
">>>>-------->>>>>>>>>>>>>>>>>>>>>>>>>>>>>>>>>>>>>>>>>>>>>>>>>>>>>>>>>>>>>>>>>>>>>>>>>>>>>>>>>>>>>>>>>>>>>>>>---->>>>>>>>>>>>>>>>",
">>>>-------->>>>>>>>>>>>>>>>>>>>>>>>>>>>>>>>>>>>>>>>>>>>>>>>>>>>>>>>>>>>>>>>>>>>>>>>>>>>>>>>>>>>>>>>>>>>>>>>---->>>>>>>>>>>>>>>>",
"--------****----;;;;;;;;;;;;>>>>>>>>>>>>>>>>>>>>>>>>>>>>>>>>>>>>>>>>>>>>>>>>>>>>>>>>>>>>>>>>>>>>>>>>-------->>>>>>>>;;;;>>>>>>>>",
"--------****----;;;;;;;;;;;;>>>>>>>>>>>>>>>>>>>>>>>>>>>>>>>>>>>>>>>>>>>>>>>>>>>>>>>>>>>>>>>>>>>>>>>>-------->>>>>>>>;;;;>>>>>>>>",
"--------****----;;;;;;;;;;;;>>>>>>>>>>>>>>>>>>>>>>>>>>>>>>>>>>>>>>>>>>>>>>>>>>>>>>>>>>>>>>>>>>>>>>>>-------->>>>>>>>;;;;>>>>>>>>",
"--------****----;;;;;;;;;;;;>>>>>>>>>>>>>>>>>>>>>>>>>>>>>>>>>>>>>>>>>>>>>>>>>>>>>>>>>>>>>>>>>>>>>>>>-------->>>>>>>>;;;;>>>>>>>>",
"&&&&>>>>----;;;;;;;;;;;;>>>>--;;>>>>>>>>>>>>>>>>>>>>>>>>>>>>>>>>>>>>>>>>>>>>>>>>>>>>>>>>>>>>>>>>>>>>>>>>>>>>>>>>>>>>---->>>>>>>>",
"&&&&>>>>----;;;;;;;;;;;;>>>>--;;>>>>>>>>>>>>>>>>>>>>>>>>>>>>>>>>>>>>>>>>>>>>>>>>>>>>>>>>>>>>>>>>>>>>>>>>>>>>>>>>>>>>---->>>>>>>>",
"&&&&>>>>----;;;;;;;;;;;;>>>>---;>>>>>>>>>>>>>>>>>>>>>>>>>>>>>>>>>>>>>>>>>>>>>>>>>>>>>>>>>>>>>>>>>>>>>>>>>>>>>>>>>>>>---->>>>>>>>",
"&&&&>>>>----;;;;;;;;;;;;>>>>---->>>>>>>>>>>>>>>>>>>>>>>>>>>>>>>>>>>>>>>>>>>>>>>>>>>>>>>>>>>>>>>>>>>>>>>>>>>>>>>>>>>>---->>>>>>>>",
";;;;>>>>>>>>>>>>>>>>>>>>>>>>>>>>>>>>>;;;>>>>>>>>>>>>>>>>>>>>>>>>>>>>>>>>>>>>>>>>>>>>>>>>>>>>>>>>>>>>>>>>>>>>>>>>>>>>>>>>>>>>>>>>",
";;;;>>>>>>>>>>>>>>>>>>>>>>>>>>>>>>>>>>;;>>>>>>>>>>>>>>>>>>>>>>>>>>>>>>>>>>>>>>>>>>>>>>>>>>>>>>>>>>>>>>>>>>>>>>>>>>>>>>>>>>>>>>>>",
";;;;>>>>>>>>>>>>>>>>>>>>>>>>>>>>>>>>>>>>>>>>>>>>>>>>>>>>>>>>>>>>>>>>>>>>>>>>>>>>>>>>>>>>>>>>>>>>>>>>>>>>>>>>>>>>>>>>>>>>>>>>>>>>",
";;;;>>>>>>>>>>>>>>>>>>>>>>>>>>>>>>>>>>>>>>>>>>>>>>>>>>>>>>>>>>>>>>>>>>>>>>>>>>>>>>>>>>>>>>>>>>>>>>>>>>>>>>>>>>>>>>>>>>>>>>>>>>>>",
">>>>;;;;>>>>>>>>>>>>>>>>>>>>>>>;-------->>>>>>>>>>>>>>>>>>>>>>>>>>>>>>>>>>>>>>>>>>>>>>>>>>>>>>>>>>>>>>>>>>>>>>>>>>>>>>>>>>>>;;;;",
">>>>;;;;>>>>>>>>>>>>>>>>>>>>>>;;-------->>>>>>>>>>>>>>>>>>>>>>>>>>>>>>>>>>>>>>>>>>>>>>>>>>>>>>>>>>>>>>>>>>>>>>>>>>>>>>>>>>>>;;;;",
">>>>;;;;>>>>>>>>>>>>>>>>>>>>>>>>-------->>>>>>>>>>>>>>>>>>>>>>>>>>>>>>>>>>>>;;>>>>>>>>>>>>>>>>>>>>>>>>>>>>>>>>>>>>>>>>>>>>>>;;;;",
">>>>;;;;>>>>>>>>>>>>>>>>>>>>>>>>-------->>>>>>>>>>>>>>>>>>>>>>>>>>>>>>>>>>>>;;>>>>>>>>>>>>>>>>>>>>>>>>>>>>>>>>>>>>>>>>>>>>>>;;;;",
"---->>>>>>>>>>>>>>>>>>>>>>>>>>>>>>>>>>>>>>>>>>>>>>>>>>>>>>>>>>>>>>>>            >>>>>>>>>>>>>>>>>>>>>>>>>>>>>>>>>>>>>>>>>>>>;;;;",
"---->>>>>>>>>>>>>>>>>>>>>>>>>>>>>>>>>>>>>>>>>>>>>>>>>>>>>>>>>>>>>>>>            >>>>>>>>>>>>>>>>>>>>>>>>>>>>>>>>>>>>>>>>>>>>;;;;",
"---->>>>>>>>>>>>>>>>>>>>>>>>>>>>>>>>>>>>>>>>>>>>>>>>>>>>>>>>>>>>>>>>            >;>>>>>>>>>>>>>>>>>>>>>>>>>>>>>>>>>>>>>>>>>>;;;;",
"---->>>>>>>>>>>>>>>>>>>>>>>>>>>>>>>>>>>>>>>>>>>>>>>>>>>>>>>>>>>>>>>>            ;;>>>>>>>>>>>>>>>>>>>>>>>>>>>>>>>>>>>>>>>>>>;;;;",
"---->>>>>>>>>>>>;;;;>>>>;;;;>>>>>>>>>>>>>>>>--;;>>>>>>>>>>>>>>>>    @@@@OOOO@@@@    >>>>>>>>>>>>>>>>>>>>>>>>>>>>>>>>>>>>;;;;;;;;",
"---->>>>>>>>>>>>;;;;>>>>;;;;>>>>>>>>>>>>>>>>--;->>>>>>>>>>>>>>>>    @@@@OOOO@@@@    >>>>>>>>>>>>>>>>>>>>>>>>>>>>>>>>>>>>;;;;;;;;",
"---->>>>>>>>>>>>;;;;>>>>;;;;>>>>>>>>>>>>>>>>---->>>>>>>>>>>>>>>>    @@@@OOOO@@@@    >>>>>>>>>>>>>>>>>>>>>>>>>>>>>>>>>>>>;;;;;>;;",
"---->>>>>>>>>>>>;;;;>>>>;;;;>>>>>>>>>>>>>>>>---->>>>>>>>>>>>>>>>    @@@@OOOO@@@@    >>>>>>>>>>>>>>>>>>>>>>>>>>>>>>>>>>>>;;;;>>;;",
";;;;>>>>--------;;;;------------>>>>>>>>>>>>>>>>>>>>>>>>>>>>    $$$$OOOO@@@@OOOO@@@@    >>>>>>>>>>>>>>>>>>>>>>>>>>>>>>>>>>>>>>>>",
";;;;>>>>--------;;;;------------>>>>>>>>>>>>>>>>>>>>>>>>>>>>    $$$$OOOO@@@@OOOO@@@@    >>>>>>>>>>>>>>>>>>>>>>>>>>>>>>>>>>>>>>>>",
";;;;>>>>--------;;;;------------>;>>>>>>>>>>>>>>>>>>>>>>>>>>    $$$$OOOO@@@@OOOO@@@@    >>>>>>>>>>>>>>>>>>>>>>>>>>>>>>>>>>>>>>>>",
";;;;>>>>--------;;;;------------;;>>>>>>>>>>>>>>>>>>>>>>>>>>    $$$$OOOO@@@@OOOO@@@@    >>>>>>>>>>>>>>>>>>>>>>>>>>>>>>>>>>>>>>>>",
";;;;;;;;>>>>;;;;>>>>;;;;>>>>--;;----;;;;;;;;>>>>;;;;>>>>    XXXXXXXX####$$$$OOOOOOOO@@@@    >>>>>>>>---->>>>>>>>>>>>>>>>---;>>>>",
";;;;;;;;>>>>;;;;>>>>;;;;>>>>--;;--;-;;;;;;;;>>>>;;;;>>>>    XXXXXXXX####$$$$OOOOOOOO@@@@    >>>>>>>>---->>>>>>>>>>>>>>>>--;;>>>>",
";;;;;;;;>>>>;;;;>>>>;;;;>>>>---;;;;;;;;;;;;;>>>>;;;;>>>>    XXXXXXXX####$$$$OOOOOOOO@@@@    >>>>>>>>---->>>>>>>>>>>>>>>>---->>>>",
";;;;;;;;>>>>;;;;>>>>;;;;>>>>----;;;;;;;;;;;;>>>>;;;;>>>>    XXXXXXXX####$$$$OOOOOOOO@@@@    >>>>>>>>---->>>>>>>>>>>>>>>>---->>>>",
">>>>>>>>>>>>>>>>>>>>>>>>>>>>>>>>>>>>>>>>>>>>>>>>>>>>    XXXXXXXXXXXXXXXX$$$$####@@@@OOOO@@@@    ---->>>>>>>>>>>>>>>>>>>>>>>>>>>>",
">>>>>>>>>>>>>>>>>>>>>>>>>>>>>>>>>>>>>>>>>>>>>>>>>>>>    XXXXXXXXXXXXXXXX$$$$####@@@@OOOO@@@@    ---->>>>>>>>>>>>>>>>>>>>>>>>>>>>",
">>>>>>>>>>>>>>>>>>>>>>>>>>>>>>>>>>>>>>>>>>>>>>>>>>>>    XXXXXXXXXXXXXXXX$$$$####@@@@OOOO@@@@    ;;-->>>>>>>>>>>>>>>>>>>>>>>>>>>>",
">>>>>>>>>>>>>>>>>>>>>>>>>>>>>>>>>>>>>>>>>>>>>>>>>>>>    XXXXXXXXXXXXXXXX$$$$####@@@@OOOO@@@@    ;;-->>>>>>>>>>>>>>>>>>>>>>>>>>>>",
">>>>>>>>>>>>>>>>>>>>>>>>>>>>>>>>>>>>>>>>>>>>>>>>    XXXXXXXXXXXXXXXX........####$$$$####OOOO@@@@    >>>>>>>>>>>>>>>>>>>>>>>>>>>>",
">>>>>>>>>>>>>>>>>>>>>>>>>>>>>>>>>>>>>>>>>>>>>>>>    XXXXXXXXXXXXXXXX........####$$$$####OOOO@@@@    >>>>>>>>>>>>>>>>>>>>>>>>>>>>",
">>>>>>>>>>>>>>>>>>>>>>>>>>>>>>>>>>>>>>>>>>>>>>>>    XXXXXXXXXXXXXXXX........####$$$$####OOOO@@@@    >>>>>>>>;;>>>>>>>>>>>>>>>>>>",
">>>>>>>>>>>>>>>>>>>>>>>>>>>>>>>>>>>>>>>>>>>>>>>>    XXXXXXXXXXXXXXXX........####$$$$####OOOO@@@@    >>>>>>>>;;;>>>>>>>>>>>>>>>>>",
">>>>>>>>>>>>>>>>>>>>>>>>>>>>>>;;>>>>>>>>>>>>    ++++++++++++XXXX................####$$$$$$$$OOOO        >>>>>>>>;;;;---->>>>>>>>",
">>>>>>>>>>>>>>>>>>>>>>>>>>>>>>;>>>>>>>>>>>>>    ++++++++++++XXXX................####$$$$$$$$OOOO        >>>>>>>>;;;;---->>>>>>>>",
">>>>>>>>>>>>>>>>>>>>>>>>>>>>>>>>>>>>>>>>>>>>    ++++++++++++XXXX................####$$$$$$$$OOOO        >>>>>>>>;;;;---->>>>>>>>",
">>>>>>>>>>>>>>>>>>>>>>>>>>>>>>>>>>>>>>>>>>>>    ++++++++++++XXXX................####$$$$$$$$OOOO        >>>>>>>>;;;;---->>>>>>>>",
">>>>>>>>>>>>>>>>>>>>>>>>>>>>>>>>;;;;----    ++++++++++++++++oooooooo....................$$$$    ....    >>>>>>>>>>>>>>>>>>>>>>>>",
">>>>>>>>>>>>>>>>>>>>>>>>>>>>>>>>;;;;----    ++++++++++++++++oooooooo....................$$$$    ....    >>>>>>>>>>>>>>>>>>>>>>>>",
">>>>>>>>>>>>>>>>>>>>>>>>>>>>>>>>;;;;----    ++++++++++++++++oooooooo....................$$$$    ....    >>>>>>>>>>>>>>>>>>>>>>>>",
">>>>>>>>>>>>>>>>>>>>>>>>>>>>>>>>;;;;----    ++++++++++++++++oooooooo....................$$$$    ....    >>>>>>>>>>>>>>>>>>>>>>>>",
">>>>>>>>>>>>>>>>>>>>>>>>>>>>>>>>;;;;    ++++++++++++++++oooooooooooooooo................    ........    >>>>;;;;>>>>>>>>>>>>>>>>",
">>>>>>>>>>>>>>>>>>>>>>>>>>>>>>>>;;;;    ++++++++++++++++oooooooooooooooo................    ........    >>>>;;;;>>>>>>>>>>>>>>>>",
">>>>>>>>>>>>>>>>>>>>>>>>>>>>>>>>;;;;    ++++++++++++++++oooooooooooooooo................    ........    >>>>;;;;>>>>>>>>>>>>>>>>",
">>>>>>>>>>>>>>>>>>>>>>>>>>>>>>>>;;;;    ++++++++++++++++oooooooooooooooo................    ........    >>>>;;;;>>>>>>>>>>>>>>>>",
">>>>>>>>>>>>>>>>>>>>>>>>>>>>>>>>    ++++++++++++++++oooooooooooooooooooooooo........    ........    >>>>>>>>>>>>&&&&>>>>>>>>>>>>",
">>>>>>>>>>>>>>>>>>>>>>>>>>>>>>>>    ++++++++++++++++oooooooooooooooooooooooo........    ........    >>>>>>>>>>>>&&&&>>>>>>>>>>>>",
">>>>>>>>>>>>>>>>>>>>>>>>>>>>>>>>    ++++++++++++++++oooooooooooooooooooooooo........    ........    >>>>>>>>>>>>&&&&>>>>>>>>>>>>",
">>>>>>>>>>>>>>>>>>>>>>>>>>>>>>>>    ++++++++++++++++oooooooooooooooooooooooo........    ........    >>>>>>>>>>>>&&&&>>>>>>>>>>>>",
">>>>>>>>>>>>>>>>>>>>>>>>;;;;    ++++++++++++++++oooooooooooooooooooooooooooooooo                >>>>>>>>>>>>>>>>>>>>>>>>>>>>>>>>",
">>>>>>>>>>>>>>>>>>>>>>>>;;;;    ++++++++++++++++oooooooooooooooooooooooooooooooo                >>>>>>>>>>>>>>>>>>>>>>>>>>>>>>>>",
">>>>>>>>>>>>>>>>>>>>>>>>;;;;    ++++++++++++++++oooooooooooooooooooooooooooooooo                >>>>>>>>>>>>>>>>>>>>>>>>>>>>>>>>",
">>>>>>>>>>>>>>>>>>>>>>>>;;;;    ++++++++++++++++oooooooooooooooooooooooooooooooo                >>>>>>>>>>>>>>>>>>>>>>>>>>>>>>>>",
">>>>>>>>>>>>>>>>>>>>>>>>    oooo    ++++++++oooooooooooooooooooooooooooooooo    oooooooo    >>>>;;;;>>>>>>>>>>>>>>>>>>>>>>>>>>>>",
">>>>>>>>>>>>>>>>>>>>>>>>    oooo    ++++++++oooooooooooooooooooooooooooooooo    oooooooo    >>>>;;;;>>>>>>>>>>>>>>>>>>>>>>>>>>>>",
">>>>>>>>>>>>>>>>>>>>>>>>    oooo    ++++++++oooooooooooooooooooooooooooooooo    oooooooo    >>>>;;;;>>>>>>>>>>>>>>>>>>>>>>>>>>>>",
">>>>>>>>>>>>>>>>>>>>>>>>    oooo    ++++++++oooooooooooooooooooooooooooooooo    oooooooo    >>>>;;;;>>>>>>>>>>>>>>>>>>>>>>>>>>>>",
">>>>>>>>>>>>>>>>>>>>>>>>    oooooooo    oooooooooooooooooooooooooooooooo    oooooooo    ;;;;;;;;;;;;;;;;;;;;>>>>>>>>;;;;>>>>>>>>",
">>>>>>>>>>>>>>>>>>>>>>>>    oooooooo    oooooooooooooooooooooooooooooooo    oooooooo    ;;;;;;;;;;;;;;;;;;;;>>>>>>>>;;;;>>>>>>>>",
">>>>>>>>>>>>>>>>>>>>>>>>    oooooooo    oooooooooooooooooooooooooooooooo    oooooooo    ;;;;;;;;;;;;;;;;;;;;>>>>>>>>;;;;>>>>>>>>",
">>>>>>>>>>>>>>>>>>>>>>>>    oooooooo    oooooooooooooooooooooooooooooooo    oooooooo    ;;;;;;;;;;;;;;;;;;;;>>>>>>>>;;;;>>>>>>>>",
";;;;>>>>>>>>>>>>>>>>>>>>>>>>    oooooooo    oooooooooooooooooooooooo    oooooooo    >>>>>>>>---->>>>>>>>>>>>>>>>>>>>;;;;---->>>>",
";;;;>>>>>>>>>>>>>>>>>>>>>>>>    oooooooo    oooooooooooooooooooooooo    oooooooo    >>>>>>>>---->>>>>>>>>>>>>>>>>>>>;;;;---->>>>",
";;;;>>>>>>>>>>>>>>>>>>>>>>>>    oooooooo    oooooooooooooooooooooooo    oooooooo    >>>>>>>>;;-->>>>>>>>>>>>>>>>>>>>;;;;---->>>>",
";;;;>>>>>>>>>>>>>>>>>>>>>>>>    oooooooo    oooooooooooooooooooooooo    oooooooo    >>>>>>>>;;-->>>>>>>>>>>>>>>>>>>>;;;;---->>>>",
";;;;>>>>>>>>>>>>>>>>>>>>>>>>>>>>    oooooooo    oooooooooooooooo    oooooooo    >>>>>>>>-------->>>>>>>>>>>>>>>>>>>>>>>>>>>>>>>>",
";;;;>>>>>>>>>>>>>>>>>>>>>>>>>>>>    oooooooo    oooooooooooooooo    oooooooo    >>>>>>>>-------->>>>>>>>>>>>>>>>>>>>>>>>>>>>>>>>",
";;;;>>>>>>>>>>>>>>>>>>>>>>>>>>>>    oooooooo    oooooooooooooooo    oooooooo    >>>>>>>>-------->>>>>>>>>>>>>>>>>>>>>>>>>>>>>>>>",
";;;;>>>>>>>>>>>>>>>>>>>>>>>>>>>>    oooooooo    oooooooooooooooo    oooooooo    >>>>>>>>-------->>>>>>>>>>>>>>>>>>>>>>>>>>>>>>>>",
">>>>>>>>>>>>>>>>>>>>>>>>>>>>>>>>>>>>    oooooooo    oooooooo    oooooooo    >>>>>>>>>>>>--------****---->>>>>>>>>>>>>>>>>>>>>>>>",
">>>>>>>>>>>>>>>>>>>>>>>>>>>>>>>>>>>>    oooooooo    oooooooo    oooooooo    >>>>>>>>>>>>--------****---->>>>>>>>>>>>>>>>>>>>>>>>",
">>>>>>>>>>>>>>>>>>>>>>>>>>>>>>>>>>>>    oooooooo    oooooooo    oooooooo    >>>>>>>>>>>>--------****---->>>>>>>>>>>>>>>>>>>>>>>>",
">>>>>>>>>>>>>>>>>>>>>>>>>>>>>>>>>>>>    oooooooo    oooooooo    oooooooo    >>>>>>>>>>>>--------****---->>>>>>>>>>>>>>>>>>>>>>>>",
">>>>>>>>>>>>---->>>>>>>>>>>>>>>>>>>>>>>>    oooooooo        oooooooo    >>>>>>>>>>>>>>>>>>>>;;;;---->>>>>>>>>>>>>>>>---->>>>----",
">>>>>>>>>>>>---->>>>>>>>>>>>>>>>>>>>>>>>    oooooooo        oooooooo    >>>>>>>>>>>>>>>>>>>>;;;;---->>>>>>>>>>>>>>>>---->>>>----",
">>>>>>>>>>>>---->>>>>>>>>>>>>>>>>>>>>>>>    oooooooo        oooooooo    >>>>>>>>>>>>>>>>>;>>;;;;---->>>>>>>>>>>>>>>>---->>>>----",
">>>>>>>>>>>>---->>>>>>>>>>>>>>>>>>>>>>>>    oooooooo        oooooooo    >>>>>>>>>>>>>>>>;;>>;;;;---->>>>>>>>>>>>>>>>---->>>>----",
">>>>>>>>>>>>>>>>----;;;;>>>>>>>>-------->>>>    oooooooo    oooo    >>>>>>>>>>>>>>>>>>>>>>>>>>>>>>>>>>>>>>>>>>>>>>>>>>>>>>>>>>>>",
">>>>>>>>>>>>>>>>----;;;;>>>>>>>>-------->>>>    oooooooo    oooo    >>>>>>>>>>>>>>>>>>>>>>>>>>>>>>>>>>>>>>>>>>>>>>>>>>>>>>>>>>>>",
">>>>>>>>>>>>>>>>----;;;;>>>>>>>>-------->>>>    oooooooo    oooo    >>>>>>>>>>>>>>>>>>>>>>>>>>>>>>>>>>>>>>>>>>>>>>>>>>>>>>>>>>>>",
">>>>>>>>>>>>>>>>----;;;;>>>>>>>>-------->>>>    oooooooo    oooo    >>>>>>>>>>>>>>>>>>>>>>>>>>>>>>>>>>>>>>>>>>>>>>>>>>>>>>>>>>>>",
">>>>>>>>>>>>>>>>>>>>>>>>>>;;--;;;;;;>>>>>>>>>>>>    oooooooo    >>>>>>>>>>>>>>>>>>>>>>>>>>>>;;;;>>>>>>>>>>>>>>>>---->>>>;;;;>>;;",
">>>>>>>>>>>>>>>>>>>>>>>>>>;;--;;;;;;>>>>>>>>>>>>    oooooooo    >>>>>>>>>>>>>>>>>>>>>>>>>>>>;;;;>>>>>>>>>>>>>>>>---->>>>;;;;>>;;",
">>>>>>>>>>>>>>>>>>>>>>>>>>>>-;;;;;;;>>>>>>>>>>>>    oooooooo    >>>>>>>>>>>>>>>>>>>>>>>>>>>>;;;;>>>>>>>>>>>>>>>>---->>>>;;;;>>>>",
">>>>>>>>>>>>>>>>>>>>>>>>>>>>-;;;;;;;>>>>>>>>>>>>    oooooooo    >>>>>>>>>>>>>>>>>>>>>>>>>>>>;;;;>>>>>>>>>>>>>>>>---->>>>;;;;>>>>",
">>>>>>>>>>>>>>>>>>>>>>>>;;;;---->>>>>>>>----;;;;>>>>        >>>>>>>>>>>>>>>>>>>>>>>>>>>>---->>>>---->>>>>>>>>>>>>;;;---->>>>>>>>",
">>>>>>>>>>>>>>>>>>>>>>>>;;;;;--->>>>>>>>----;;;;>>>>        >>>>>>>>>>>>>>>>>>>>>>>>>>>>---->>>>;--->>>>>>>>>>>>>>;;---->>>>>>>>",
">>>>>>>>>>>>>>>>>>>>>>>>;;;;;;-->>>>>>>>----;;;;>>>>        >>>>>;>>>>>>>>>>>>>>>>>>>>>>---->>>>;;-->>>>>>>>>>>>>>>>---->>>>>>>>",
">>>>>>>>>>>>>>>>>>>>>>>>;;;;;;-->>>>>>>>----;;;;>>>>        >>>>;;>>>>>>>>>>>>>>>>>>>>>>---->>>>;;-->>>>>>>>>>>>>>>>---->>>>>>>>",
">>>>>>>>>>>>>>>>>>>>>>>>>>>>>>>>;;;;;;;;---->>>>;;;;>>>>>>>>>>>>>>>>>>>>>>>>>>>>---->>>>>>>>>>>>>>>>>>>>>>>>>>>>>>>>>>>>>>>>>>>>",
">>>>>>>>>>>>>>>>>>>>>>>>>>>>>>>>;;;;;;;;---->>>>;;;;>>>>>>>>>>>>>>>>>>>>>>>>>>>>---->>>>>>>>>>>>>>>>>>>>>>>>>>>>>>>>>>>>>>>>>>>>",
">>>>>>>>>>>>>>>>>>>>>>>>>>>>>>>>;;;;;;;;---->>>>;;;;>>>>>>>>>>>>>>>>>>>>>>>>>>>>---->>>>>>>>>>>>>>>>>>>>>>>>>>>>>>>>>>>>>>>>>>>>",
">>>>>>>>>>>>>>>>>>>>>>>>>>>>>>>>;;;;;;;;---->>>>;;;;>>>>>>>>>>>>>>>>>>>>>>>>>>>>---->>>>>>>>>>>>>>>>>>>>>>>>>>>>>>>>>>>>>>>>>>>>",
">>>>>>>>>>>>>>>>>>>>>>>>>>>>>>>>>>>>>>>>>>>>>>>>>>>>;;;;>>>>>>>>----;;;;;;;;>>>>>>>>;;;;%%%%****>>>>>>>>>>>>>>>>>>>>---->>>>>>>>",
">>>>>>>>>>>>>>>>>>>>>>>>>>>>>>>>>>>>>>>>>>>>>>>>>>>>;;;;>>>>>>>>----;;;;;;;;>>>>>>>>;;;;%%%%****>>>>>>>>>>>>>>>>>>>>---->>>>>>>>",
">>>>>>>>>>>>>>>>>>>>>>>>>>>>>>>>>>>>>>>>>>>>>>>>>>>>;;;;>>>>>>>>----;;;;;;;;>>>>>>>>;;;;%%%%****>>>>>>>>>>>>>>>>>>>>---->>>>>>>>",
">>>>>>>>>>>>>>>>>>>>>>>>>>>>>>>>>>>>>>>>>>>>>>>>>>>>;;;;>>>>>>>>----;;;;;;;;>>>>>>>>;;;;%%%%****>>>>>>>>>>>>>>>>>>>>---->>>>>>>>",
">>>>>>>>>>>>>>>>>>>>>>>>>>>>>>>>>>>>>>>>>>>>>>>>>>>>;;;;>>>>>>>>;;;;>>>>>>>>----*&&&-------->>>>>>>>>>>>;>>>>>>>;;;;---->>>>>>>>",
">>>>>>>>>>>>>>>>>>>>>>>>>>>>>>>>>>>>>>>>>>>>>>>>>>>>;;;;>>>>>>>>;;;;>>>>>>>>----*&&&----&&-->>>>>>>>>>>>;;>>>>>>;;;;---->>>>>>>>",
">>>>>>>>>>>>>>>>>;>>>>>>>>>>>>>>>>>>>>>>>>>>>>>>>>>>;;;;>>>>>>>>;;;;>>>>>>>>----**&&----&&&&>>>>>>>>>>>>;;;;>>>>;;;;---->>>>>>>>",
">>>>>>>>>>>>>>>>;;>>>>>>>>>>>>>>>>>>>>>>>>>>>>>>>>>>;;;;>>>>>>>>;;;;>>>>>>>>----**&&----&&&&>>>>>>>>>>>>;;;;>>>>;;;;---->>>>>>>>",
">>>>>>>>>>>>>>>>>>>>>>>>>>>>>>>>>>>>>>>>>>>>>>>>>>>>>>>>>>>>>>>>>>>>>>>>-------->>>>>>>>>>>>;;;;>>>>;;;;----;;;;>>>>>>>>>>>>>>>>",
">>>>>>>>>>>>>>>>>>>>>>>>>>>>>>>>>>>>>>>>>>>>>>>>>>>>>>>>>>>>>>>>>>>>>>>>-------->>>>>>>>>>>>;;;;>>>>;;;;----;;;;>>>>>>>>>>>>>>>>",
">>>>>>>>>>>>>>>>>>>>>>>>>>>>>>>>>>>>>>>>>>>>>>>>>>>>>>>>>>>>>>>>>>>>>>>>;;------;;>>>>>>>>>>;;;;>>>>;;;;----;;;;>>>>>>>>>>>>>>>>",
">>>>>>>>>>>>>>>>>>>>>>>>>>>>>>>>>>>>>>>>>>>>>>>>>>>>>>>>>>>>>>>>>>>>>>>>;-------;>>>>>>>>>>>;;;;>>>>;;;;----;;;;>>>>>>>>>>>>>>>>",
">>>>>>>>>>>>--;;;;;;---->>>>>>>>>>>>>>>>>>>>>>>>>>>>>>>>>>>>>>>>>>>>>>>>>>>>>>>>>>>>>>>>>>>>>>>>>>>>>>>>>>>>>>>>>>>>>>>>>>>>>>>>",
">>>>>>>>>>>>--;;;;;;---->>>>>>>>>>>>>>>>>>>>>>>>>>>>>>>>>>>>>>>>>>>>>>>>>>>>>>>>>>>>>>>>>>>>>>>>>>>>>>>>>>>>>>>>>>>>>>>>>>>>>>>>",
">>>>>>>>>>>>---;;;;;---->>>>>>>>>>>>>>>>>>>>>>>>>>>>>>>>>>>>>>>>>>>>>>>>>>>>>>>>>>>>>>>>>>>>>>>>>>>>>>>>>>>>>>>>>>>>>>>>>>>>>>>>",
">>>>>>>>>>>>----;;;;---->>>>>>>>>>>>>>>>>>>>>>>>>>>>>>>>>>>>>>>>>>>>>>>>>>>>>>>>>>>>>>>>>>>>>>>>>>>>>>>>>>>>>>>>>>>>>>>>>>>>>>>>"
};
