/* XPM */
static char *_007[] = {
/* columns rows colors chars-per-pixel */
"128 128 10 1 ",
"  c #30190B",
". c #4A3527",
"X c #A2501D",
"o c #AEAFB0",
"O c #AFB0B1",
"+ c #B0B0B1",
"@ c #B1B2B3",
"# c #B3B3B4",
"$ c #B7B7B7",
"% c #EBC8B5",
/* pixels */
"$$$$$$$$$$$$$$$$$$$$$$$$$$$$$$$$$$$$$$$$$$$$$$$$$$$$$$$$$$$$$$$$$$$$$$$$$$$$$$$$$$$$$$$$$$$$$$$$$$$$$$$$$$$$$$$$$$$$$$$$$$$$$$$$",
"$$$$$$$$$$$$$$$$$$$$$$$$$$$$$$$$$$$$$$$$$$$$$$$$$$$$$$$$$$$$$$$$$$$$$$$$$$$$$$$$$$$$$$$$$$$$$$$$$$$$$$$$$$$$$$$$$$$$$$$$$$$$$$$$",
"$$$$$$$$$$$$$$$$$$$$$$$$$$$$$$$$$$$$$$$$$$$$$$$$$$$$$$$$$$$$$$$$$$$$$$$$$$$$$$$$$$$$$$$$$$$$$$$$$$$$$$$$$$$$$$$$$$$$$$$$$$$$$$$$",
"$$$$$$$$$$$$$$$$$$$$$$$$$$$$$$$$$$$$$$$$$$$$$$$$$$$$$$$$$$$$$$$$$$$$$$$$$$$$$$$$$$$$$$$$$$$$$$$$$$$$$$$$$$$$$$$$$$$$$$$$$$$$$$$$",
"$$$$$$$$$$$$$$$$$$$$$$$$$$$$$$$$####@@@@@###$$$$$$$$$$$$$$$$@@@@@@@@$$$$$$$$$$$$$$$$$$$$@@@@$$$$####$$$$$$$$$$$$$$$$$$$$$$$$$$$$",
"$$$$$$$$$$$$$$$$$$$$$$$$$$$$$$$$####@@@@@@##$$$$$$$$$$$$$$$$@@@@@@@@$$$$$$$$$$$$$$$$$$$$oo@@$$$$####$$$$$$$$$$$$$$$$$$$$$$$$$$$$",
"$$$$$$$$$$$$$$$$$$$$$$$$$$$$$$$$####@@@@@@@@$$$$$$$$$$$$$$$$@@@@@@@@$$$$$$$$$$$$$$$$$$$$oooo$$$$####$$$$$$$$$$$$$$$$$$$$$$$$$$$$",
"$$$$$$$$$$$$$$$$$$$$$$$$$$$$$$$$####@@@@@@@@$$$$$$$$$$$$$$$$@@@@@@@@$$$$$$$$$$$$$$$$$$$$oooo$$$$####$$$$$$$$$$$$$$$$$$$$$$$$$$$$",
"$$$$@@@@@@@@$$$$$$$$$$$$$$$$$$$$$$$$$$$$$$$$$$$$$$$$$$$$$$$$$$$$$$$$$$$$$$$$$$$$$$$$$$$$$$$$$$$$$$$$$$$$$$$$@@@@$$$$$$$$$$$$$$$$",
"$$$$@@@@@@@@$$$$$$$$$$$$$$$$$$$$$$$$$$$$$$$$$$$$$$$$$$$$$$$$$$$$$$$$$$$$$$$$$$$$$$$$$$$$$$$$$$$$$$$$$$$$$$$$@@@@$$$$$$$$$$$$$$$$",
"$$$$@@@@@@@@$$$$$$$$$$$$$$$$$$$$$$$$$$$$$$$$$$$$$$$$$$$$$$$$$$$$$$$$$$$$$$$$$$$$$$$$$$$$$$$$$$$$$$$$$$$$$$$$@@@@$$$$$$$$$$$$$$$$",
"$$$$@@@@@@@@$$$$$$$$$$$$$$$$$$$$$$$$$$$$$$$$$$$$$$$$$$$$$$$$$$$$$$$$$$$$$$$$$$$$$$$$$$$$$$$$$$$$$$$$$$$$$$$$@@@@$$$$$$$$$$$$$$$$",
"@@@@@@@@OOOO@@@@############$$$$$$$$$$$$$$$$$$$$$$$$$$$$$$$$$$$$$$$$$$$$$$$$$$$$$$$$$$$$$$$$$$$$$$$$@@@@@@@@$$$$$$$$####$$$$$$$$",
"@@@@@@@@OOOO@@@@############$$$$$$$$$$$$$$$$$$$$$$$$$$$$$$$$$$$$$$$$$$$$$$$$$$$$$$$$$$$$$$$$$$$$$$$$@@@@@@@@$$$$$$$$####$$$$$$$$",
"@@@@@@@@OOOO@@@@############$$$$$$$$$$$$$$$$$$$$$$$$$$$$$$$$$$$$$$$$$$$$$$$$$$$$$$$$$$$$$$$$$$$$$$$$@@@@@@@@$$$$$$$$####$$$$$$$$",
"@@@@@@@@OOOO@@@@############$$$$$$$$$$$$$$$$$$$$$$$$$$$$$$$$$$$$$$$$$$$$$$$$$$$$$$$$$$$$$$$$$$$$$$$$@@@@@@@@$$$$$$$$####$$$$$$$$",
"oooo$$$$@@@@############$$$$@@##$$$$$$$$$$$$$$$$$$$$$$$$$$$$$$$$$$$$$$$$$$$$$$$$$$$$$$$$$$$$$$$$$$$$$$$$$$$$$$$$$$$$@@@@$$$$$$$$",
"oooo$$$$@@@@############$$$$@@##$$$$$$$$$$$$$$$$$$$$$$$$$$$$$$$$$$$$$$$$$$$$$$$$$$$$$$$$$$$$$$$$$$$$$$$$$$$$$$$$$$$$@@@@$$$$$$$$",
"oooo$$$$@@@@############$$$$@@@#$$$$$$$$$$$$$$$$$$$$$$$$$$$$$$$$$$$$$$$$$$$$$$$$$$$$$$$$$$$$$$$$$$$$$$$$$$$$$$$$$$$$@@@@$$$$$$$$",
"oooo$$$$@@@@############$$$$@@@@$$$$$$$$$$$$$$$$$$$$$$$$$$$$$$$$$$$$$$$$$$$$$$$$$$$$$$$$$$$$$$$$$$$$$$$$$$$$$$$$$$$$@@@@$$$$$$$$",
"####$$$$$$$$$$$$$$$$$$$$$$$$$$$$$$$$$###$$$$$$$$$$$$$$$$$$$$$$$$$$$$$$$$$$$$$$$$$$$$$$$$$$$$$$$$$$$$$$$$$$$$$$$$$$$$$$$$$$$$$$$$",
"####$$$$$$$$$$$$$$$$$$$$$$$$$$$$$$$$$$##$$$$$$$$$$$$$$$$$$$$$$$$$$$$$$$$$$$$$$$$$$$$$$$$$$$$$$$$$$$$$$$$$$$$$$$$$$$$$$$$$$$$$$$$",
"####$$$$$$$$$$$$$$$$$$$$$$$$$$$$$$$$$$$$$$$$$$$$$$$$$$$$$$$$$$$$$$$$$$$$$$$$$$$$$$$$$$$$$$$$$$$$$$$$$$$$$$$$$$$$$$$$$$$$$$$$$$$$",
"####$$$$$$$$$$$$$$$$$$$$$$$$$$$$$$$$$$$$$$$$$$$$$$$$$$$$$$$$$$$$$$$$$$$$$$$$$$$$$$$$$$$$$$$$$$$$$$$$$$$$$$$$$$$$$$$$$$$$$$$$$$$$",
"$$$$####$$$$$$$$$$$$$$$$$$$$$$$#@@@@@@@@$$$$$$$$$$$$$$$$$$$$$$$$$$$$$$$$$$$$##$$$$$$$$$$$$$$$$$$$$$$$$$$$$$$$$$$$$$$$$$$$$$$####",
"$$$$####$$$$$$$$$$$$$$$$$$$$$$##@@@@@@@@$$$$$$$$$$$$$$$$$$$$$$$$$$$$$$$$$$$$##$$$$$$$$$$$$$$$$$$$$$$$$$$$$$$$$$$$$$$$$$$$$$$####",
"$$$$####$$$$$$$$$$$$$$$$$$$$$$$$@@@@@@@@$$$$$$$$$$$$$$$$$$$$$$$$$$$$$$$$$$$$##$$$$$$$$$$$$$$$$$$$$$$$$$$$$$$$$$$$$$$$$$$$$$$####",
"$$$$####$$$$$$$$$$$$$$$$$$$$$$$$@@@@@@@@$$$$$$$$$$$$$$$$$$$$$$$$$$$$$$$$$$$$##$$$$$$$$$$$$$$$$$$$$$$$$$$$$$$$$$$$$$$$$$$$$$$####",
"@@@@$$$$$$$$$$$$$$$$$$$$$$$$$$$$$$$$$$$$$$$$$$$$$$$$$$$$$$$$$$$$$$$$$$$$$$$$#$$$$$$$$$$$$$$$$$$$$$$$$$$$$$$$$$$$$$$$$$$$$$$$####",
"@@@@$$$$$$$$$$$$$$$$$$$$$$$$$$$$$$$$$$$$$$$$$$$$$$$$$$$$$$$$$$$$$$$$$$$$$$$$##$$$$$$$$$$$$$$$$$$$$$$$$$$$$$$$$$$$$$$$$$$$$$$####",
"@@@@$$$$$$$$$$$$$$$$$$$$$$$$$$$$$$$$$$$$$$$$$$$$$$$$$$$$$$$$$$$$$$$$$$$$$$$$####$#$$$$$$$$$$$$$$$$$$$$$$$$$$$$$$$$$$$$$$$$$$####",
"@@@@$$$$$$$$$$$$$$$$$$$$$$$$$$$$$$$$$$$$$$$$$$$$$$$$$$$$$$$$$$$$$$$$$$$$$$$$######$$$$$$$$$$$$$$$$$$$$$$$$$$$$$$$$$$$$$$$$$$####",
"@@@@$$$$$$$$$$$$####$$$$####$$$$$$$$$$$$$$$$@@##$$$$$$$$$$$$$$$$$$$$$$$$$$$$$$$$$$$$$$$$$$$$$$$$$$$$$$$$$$$$$$$$$$$$$$$$########",
"@@@@$$$$$$$$$$$$####$$$$####$$$$$$$$$$$$$$$$@@#@$$$$$$$$$$$$$$$$$$$$$$$$$$$$$$$$$$$$$$$$$$$$$$$$$$$$$$$$$$$$$$$$$$$$$$$$########",
"@@@@$$$$$$$$$$$$####$$$$####$$$$$$$$$$$$$$$$@@@@$$$$$$$$$$$$$$$$$$$$$$$$$$$$$$$$$$$$$$$$$$$$$$$$$$$$$$$$$$$$$$$$$$$$$$$$#####$##",
"@@@@$$$$$$$$$$$$####$$$$####$$$$$$$$$$$$$$$$@@@@$$$$$$$$$$$$$$$$$$$$$$$$$$$$$$$$$$$$$$$$$$$$$$$$$$$$$$$$$$$$$$$$$$$$$$$$####$$##",
"####$$$$@@@@@@@@####@@@@@@@@@@@@$$$$$$$$$$$$$$$$$$$$$$$$$$$$$$$$$$$$$$$$$$$$$$$$$$$$$$$$$$$$$$$$$$$$$$$$$$$$$$$$$$$$$$$$$$$$$$$$",
"####$$$$@@@@@@@@####@@@@@@@@@@@@$$$$$$$$$$$$$$$$$$$$$$$$$$$$$$$$$$$$$$$$$$$$$$$$$$$$$$$$$$$$$$$$$$$$$$$$$$$$$$$$$$$$$$$$$$$$$$$$",
"####$$$$@@@@@@@@####@@@@@@@@@@@@$#$$$$$$$$$$$$$$$$$$$$$$$$$$$$$$$$$$$$$$$$$$$$$$$$$$$$$$$$$$$$$$$$$$$$$$$$$$$$$$$$$$$$$$$$$$$$$$",
"####$$$$@@@@@@@@####@@@@@@@@@@@@##$$$$$$$$$$$$$$$$$$$$$$$$$$$$$$$$$$$$$$$$$$$$$$$$$$$$$$$$$$$$$$$$$$$$$$$$$$$$$$$$$$$$$$$$$$$$$$",
"########$$$$####$$$$####$$$$@@##@@@@########$$$$####$$$$$$$$$$$$$$$$$$$$$$$$$$$$####$$$$$$$$$$$$$$$$@@@@$$$$$$$$$$$$$$$$@@@#$$$$",
"########$$$$####$$$$####$$$$@@##@@#@########$$$$####$$$$$$$$$$$$$$$$$$$$$$$$$$$$####$$$$$$$$$$$$$$$$@@@@$$$$$$$$$$$$$$$$@@##$$$$",
"########$$$$####$$$$####$$$$@@@#############$$$$####$$$$$$$$$$$$$$$$$$$$$$$$$$$$####$$$$$$$$$$$$$$$$@@@@$$$$$$$$$$$$$$$$@@@@$$$$",
"########$$$$####$$$$####$$$$@@@@############$$$$####$$$$$$$$$$$$$$$$$$$$$$$$$$$$####$$$$$$$$$$$$$$$$@@@@$$$$$$$$$$$$$$$$@@@@$$$$",
"$$$$$$$$$$$$$$$$$$$$$$$$$$$$$$$$$$$$$$$$$$$$$$$$$$$$$$$$$$$$$$$$$$$$$$$$########OOOO@@@@@@@@@@@@@@@@$$$$$$$$$$$$$$$$$$$$$$$$$$$$",
"$$$$$$$$$$$$$$$$$$$$$$$$$$$$$$$$$$$$$$$$$$$$$$$$$$$$$$$$$$$$$$$$$$$$$$$$########OOOO@@@@@@@@@@@@@@@@$$$$$$$$$$$$$$$$$$$$$$$$$$$$",
"$$$$$$$$$$$$$$$$$$$$$$$$$$$$$$$$$$$$$$$$$$$$$$$$$$$$$$$$$$$$$$$$$$$$$$$$########OOOO@@@@@@@@@@@@##@@$$$$$$$$$$$$$$$$$$$$$$$$$$$$",
"$$$$$$$$$$$$$$$$$$$$$$$$$$$$$$$$$$$$$$$$$$$$$$$$$$$$$$$$$$$$$$$$$$$$$$$$########OOOO@@@@@@@@@@@@##@@$$$$$$$$$$$$$$$$$$$$$$$$$$$$",
"$$$$$$$$$$$$$$$$$$$$$$$$$$$$$$$$$$$$$$$$$$$$$$$$$$$$$$$$$$$$$$$$$$$$$$$$$$$$$$$$$$$$$$$$####oooo@@@@$$$$$$$$$$$$$$$$$$$$$$$$$$$$",
"$$$$$$$$$$$$$$$$$$$$$$$$$$$$$$$$$$$$$$$$$$$$$$$$$$$$$$$$$$$$$$$$$$$$$$$$$$$$$$$$$$$$$$$$####oooo@@@@$$$$$$$$$$$$$$$$$$$$$$$$$$$$",
"$$$$$$$$$$$$$$$$$$$$$$$$$$$$$$$$$$$$$$$$$$$$$$$$$$$$$$$$$$$$$$$$$$$$$$$$##$$$$$$$$$$$$$$####oooo@@@@$$$$$$$$##$$$$$$$$$$$$$$$$$$",
"$$$$$$$$$$$$$$$$$$$$$$$$$$$$$$$$$$$$$$$$$$$$$$$$$$$$$$$$$$$$$$$$$$$$$$$$#$$$$$$$$$$$$$$$####oooo@@@@$$$$$$$$###$$$$$$$$$$$$$$$$$",
"$$$$$$$$$$$$$$$$$$$$$$$$$$$$$$##$$$$$$$$$$$$$$$$$$$$$$$$$$$$$$$$$$$$$$$$$$$$$$$$$$$$$$$$$$$$$$$$$$$$$$$$$$$$$$$$####@@@@$$$$$$$$",
"$$$$$$$$$$$$$$$$$$$$$$$$$$$$$$#$$$$$$$$$$$$$$$$$$$$$$$$$$$$$$$$$$$$$$$$$$$$$$$$$$$$$$$$$$$$$$$$$$$$$$$$$$$$$$$$$####@@@@$$$$$$$$",
"$$$$$$$$$$$$$$$$$$$$$$$$$$$$$$$$$$$$$$$$$$$$$$$$$$$$$$$$$$$$$$$$$$$$$$$$$$$$$$$$$$$$$$$$$$$$$$$$$$$$$$$$$$$$$$$$####@@@@$$$$$$$$",
"$$$$$$$$$$$$$$$$$$$$$$$$$$$$$$$$$$$$$$$$$$$$$$$$$$$$$$$$$$$$$$$$$$$$$$$$$$$$$$$$$$$$$$$$$$$$$$$$$$$$$$$$$$$$$$$$####@@@@$$$$$$$$",
"$$$$$$$$$$$$$$$$$$$$$$$$$$$$$$$$        $$$$$$$$$$$$$$$$$$$$@@@@@@@@####@@@@$$$$$$$$$$$$$$$$$$$$$$$$$$$$$$$$$$$$$$$$$$$$$$$$$$$$",
"$$$$$$$$$$$$$$$$$$$$$$$$$$$$$$$$        $$$$$$$$$$$$$$$$$$$$@@@@@@@@#####@@@$$$$$$$$$$$$$$$$$$$$$$$$$$$$$$$$$$$$$$$$$$$$$$$$$$$$",
"$$$$$$$$$$$$$$$$$$$$$$$$$$$$$$$$        $$$$$$$$$$$$$$$$$$$$##@@@@@@######@@$$$$$$$$$$$$$$$$$$$$$$$$$$$$$$$$$$$$$$$$$$$$$$$$$$$$",
"$$$$$$$$$$$$$$$$$$$$$$$$$$$$$$$$        $$$$$$$$$$$$$$$$$$$$##@@@@@@######@@$$$$$$$$$$$$$$$$$$$$$$$$$$$$$$$$$$$$$$$$$$$$$$$$$$$$",
"$$$$$$$$$$$$$$$$$$$$$$$$$$$$$$$$    %%%%    ####                                        $$$$$$$$$$$$$$$$$$$$####$$$$$$$$$$$$$$$$",
"$$$$$$$$$$$$$$$$$$$$$$$$$$$$$$$$    %%%%    ####                                        $$$$$$$$$$$$$$$$$$$$####$$$$$$$$$$$$$$$$",
"$$$$$$$$$$$$$$$$$$$$$$$$$$$$$$$$    %%%%    ####                                        $$$$$$$$$$$$$$$$$$$$####$$$$$$$$$$$$$$$$",
"$$$$$$$$$$$$$$$$$$$$$$$$$$$$$$$$    %%%%    ####                                        $$$$$$$$$$$$$$$$$$$$####$$$$$$$$$$$$$$$$",
"$$$$$$$$$$$$$$$$$$$$$$$$$$$$$$$$    %%%%%%%%    ........................................            $$$$$$$$        $$$$$$$$$$$$",
"$$$$$$$$$$$$$$$$$$$$$$$$$$$$$$$$    %%%%%%%%    ........................................            $$$$$$$$        $$$$$$$$$$$$",
"$$$$$$$$$$$$$$$$$$$$$$$$$$$$$$$$    %%%%%%%%    ........................................            $$$$$$$$        $$$$$$$$$$$$",
"$$$$$$$$$$$$$$$$$$$$$$$$$$$$$$$$    %%%%%%%%    ........................................            $$$$$$$$        $$$$$$$$$$$$",
"$$$$$$$$$$$$$$$$$$$$$$$$####                ............XXXXXXXXXXXX........................            $$$$    %%%%    $$$$$$$$",
"$$$$$$$$$$$$$$$$$$$$$$$$####                ............XXXXXXXXXXXX........................            $$$$    %%%%    $$$$$$$$",
"$$$$$$$$$$$$$$$$$$$$$$$$####                ............XXXXXXXXXXXX........................            $$$$    %%%%    $$$$$$$$",
"$$$$$$$$$$$$$$$$$$$$$$$$####                ............XXXXXXXXXXXX........................            $$$$    %%%%    $$$$$$$$",
"$$$$$$$$$$$$$$$$$$$$$$$$    ....XXXX    XXXX............XXXXXXXXXXXXXXXX................................        %%%%%%%%    $$$$",
"$$$$$$$$$$$$$$$$$$$$$$$$    ....XXXX    XXXX............XXXXXXXXXXXXXXXX................................        %%%%%%%%    $$$$",
"$$$$$$$$$$$$$$$$$$$$$$$$    ....XXXX    XXXX............XXXXXXXXXXXXXXXX................................        %%%%%%%%    $$$$",
"$$$$$$$$$$$$$$$$$$$$$$$$    ....XXXX    XXXX............XXXXXXXXXXXXXXXX................................        %%%%%%%%    $$$$",
"$$$$$$$$$$$$$$$$$$$$    ....XXXX    XXXXXXXX........XXXXXXXXXXXXXXXX....................XXXXXXXX........            %%%%    $$$$",
"$$$$$$$$$$$$$$$$$$$$    ....XXXX    XXXXXXXX........XXXXXXXXXXXXXXXX....................XXXXXXXX........            %%%%    $$$$",
"$$$$$$$$$$$$$$$$$$$$    ....XXXX    XXXXXXXX........XXXXXXXXXXXXXXXX....................XXXXXXXX........            %%%%    $$$$",
"$$$$$$$$$$$$$$$$$$$$    ....XXXX    XXXXXXXX........XXXXXXXXXXXXXXXX....................XXXXXXXX........            %%%%    $$$$",
"####$$$$$$$$$$$$    ....XXXX    XXXXXXXX............XXXXXXXXXXXX....................XXXXXXXXXXXX        ........        @@@@$$$$",
"####$$$$$$$$$$$$    ....XXXX    XXXXXXXX............XXXXXXXXXXXX....................XXXXXXXXXXXX        ........        @@@@$$$$",
"####$$$$$$$$$$$$    ....XXXX    XXXXXXXX............XXXXXXXXXXXX....................XXXXXXXXXXXX        ........        @@@@$$$$",
"####$$$$$$$$$$$$    ....XXXX    XXXXXXXX............XXXXXXXXXXXX....................XXXXXXXXXXXX        ........        @@@@$$$$",
"####$$$$$$$$    ....XXXX    XXXXXXXX............XXXXXXXXXXXX....................XXXXXXXXXXXX    ............XXXX    $$$$$$$$$$$$",
"####$$$$$$$$    ....XXXX    XXXXXXXX............XXXXXXXXXXXX....................XXXXXXXXXXXX    ............XXXX    $$$$$$$$$$$$",
"####$$$$$$$$    ....XXXX    XXXXXXXX............XXXXXXXXXXXX....................XXXXXXXXXXXX    ............XXXX    $$$$$$$$$$$$",
"####$$$$$$$$    ....XXXX    XXXXXXXX............XXXXXXXXXXXX....................XXXXXXXXXXXX    ............XXXX    $$$$$$$$$$$$",
"$$$$$$$$$$$$    ....XXXX    ....................XXXXXXXX....................XXXXXXXXXXXX    ....XXXXXXXXXXXXXXXX    $$$$$$$$$$$$",
"$$$$$$$$$$$$    ....XXXX    ....................XXXXXXXX....................XXXXXXXXXXXX    ....XXXXXXXXXXXXXXXX    $$$$$$$$$$$$",
"$$$$$$$$$$$$    ....XXXX    ....................XXXXXXXX....................XXXXXXXXXXXX    ....XXXXXXXXXXXXXXXX    $$$$$$$$$$$$",
"$$$$$$$$$$$$    ....XXXX    ....................XXXXXXXX....................XXXXXXXXXXXX    ....XXXXXXXXXXXXXXXX    $$$$$$$$$$$$",
"$$$$$$$$$$$$    XXXX    ........................XXXX................................    XXXXXXXXXXXXXXXXXXXX    $$$$@@@@$$$$@@@@",
"$$$$$$$$$$$$    XXXX    ........................XXXX................................    XXXXXXXXXXXXXXXXXXXX    $$$$@@@@$$$$@@@@",
"$$$$$$$$$$$$    XXXX    ........................XXXX................................    XXXXXXXXXXXXXXXXXXXX    $$$$@@@@$$$$@@@@",
"$$$$$$$$$$$$    XXXX    ........................XXXX................................    XXXXXXXXXXXXXXXXXXXX    $$$$@@@@$$$$@@@@",
"$$$$$$$$$$$$    XXXX    ........XXXX............................................    XXXXXXXX....XXXXXXXX        $$$$$$$$$$$$$$$$",
"$$$$$$$$$$$$    XXXX    ........XXXX............................................    XXXXXXXX....XXXXXXXX        $$$$$$$$$$$$$$$$",
"$$$$$$$$$$$$    XXXX    ........XXXX............................................    XXXXXXXX....XXXXXXXX        $$$$$$$$$$$$$$$$",
"$$$$$$$$$$$$    XXXX    ........XXXX............................................    XXXXXXXX....XXXXXXXX        $$$$$$$$$$$$$$$$",
"$$$$$$$$$$$$            ....XXXXXXXXXXXX........................XXXXXXXXXXXXXXXX    XXXX............XXXX    $$$$@@@@$$$$####$$##",
"$$$$$$$$$$$$            ....XXXXXXXXXXXX........................XXXXXXXXXXXXXXXX    XXXX............XXXX    $$$$@@@@$$$$####$$##",
"$$$$$$$$$$$$            ....XXXXXXXXXXXX........................XXXXXXXXXXXXXXXX    XXXX............XXXX    $$$$@@@@$$$$####$$$$",
"$$$$$$$$$$$$            ....XXXXXXXXXXXX........................XXXXXXXXXXXXXXXX    XXXX............XXXX    $$$$@@@@$$$$####$$$$",
"$$$$$$$$$$$$    XXXX....    XXXXXXXXXXXX....................XXXXXXXXXXXX                    ........        $$$$$###@@@@$$$$$$$$",
"$$$$$$$$$$$$    XXXX....    XXXXXXXXXXXX....................XXXXXXXXXXXX                    ........        $$$$$$##@@@@$$$$$$$$",
"$$$$$$$$$$$$    XXXX....    XXXXXXXXXXXX....................XXXXXXXXXXXX                    ........        $$$$$$$$@@@@$$$$$$$$",
"$$$$$$$$$$$$    XXXX....    XXXXXXXXXXXX....................XXXXXXXXXXXX                    ........        $$$$$$$$@@@@$$$$$$$$",
"$$$$$$$$$$$$        XXXX....    XXXXXXXX................XXXXXXXXXXXX    ....................            $$$$$$$$$$$$$$$$$$$$$$$$",
"$$$$$$$$$$$$        XXXX....    XXXXXXXX................XXXXXXXXXXXX    ....................            $$$$$$$$$$$$$$$$$$$$$$$$",
"$$$$$$$$$$$$        XXXX....    XXXXXXXX................XXXXXXXXXXXX    ....................            $$$$$$$$$$$$$$$$$$$$$$$$",
"$$$$$$$$$$$$        XXXX....    XXXXXXXX................XXXXXXXXXXXX    ....................            $$$$$$$$$$$$$$$$$$$$$$$$",
"$$$$$$$$$$$$$$$$        XXXX....    XXXX............XXXXXXXXXXXX    ........XXXXXXXXXXXX            $$$$$$$$$$$$$$$$@@@@$$$$$$$$",
"$$$$$$$$$$$$$$$$        XXXX....    XXXX............XXXXXXXXXXXX    ........XXXXXXXXXXXX            $$$$$$$$$$$$$$$$@@@@$$$$$$$$",
"$$$$$$$$$$$$$$$$        XXXX....    XXXX............XXXXXXXXXXXX    ........XXXXXXXXXXXX            $$$$$$$$$$$$$$$$@@@@$$$$$$$$",
"$$$$$$$$$$$$$$$$        XXXX....    XXXX............XXXXXXXXXXXX    ........XXXXXXXXXXXX            $$$$$$$$$$$$$$$$@@@@$$$$$$$$",
"$$$$$$$$$$$$$$$$$$$$                                                                            $$$$$$$$#$$$$$$$####@@@@$$$$$$$$",
"$$$$$$$$$$$$$$$$$$$$                                                                            $$$$$$$$##$$$$$$####@@@@$$$$$$$$",
"$$$$$$$$$$$$$$$$$#$$                                                                            $$$$$$$$####$$$$####@@@@$$$$$$$$",
"$$$$$$$$$$$$$$$$##$$                                                                            $$$$$$$$####$$$$####@@@@$$$$$$$$",
"$$$$$$$$$$$$$$$$$$$$$$$$$$$$$$$$$$$$$$$$$$$$$$$$$$$$$$$$$$$$$$$$$$$$$$$$@@@@@@@@$$$$$$$$$$$$####$$$$####@@@@####$$$$$$$$$$$$$$$$",
"$$$$$$$$$$$$$$$$$$$$$$$$$$$$$$$$$$$$$$$$$$$$$$$$$$$$$$$$$$$$$$$$$$$$$$$$@@@@@@@@$$$$$$$$$$$$####$$$$####@@@@####$$$$$$$$$$$$$$$$",
"$$$$$$$$$$$$$$$$$$$$$$$$$$$$$$$$$$$$$$$$$$$$$$$$$$$$$$$$$$$$$$$$$$$$$$$$##@@@@@@##$$$$$$$$$$####$$$$####@@@@####$$$$$$$$$$$$$$$$",
"$$$$$$$$$$$$$$$$$$$$$$$$$$$$$$$$$$$$$$$$$$$$$$$$$$$$$$$$$$$$$$$$$$$$$$$$#@@@@@@@#$$$$$$$$$$$####$$$$####@@@@####$$$$$$$$$$$$$$$$",
"$$$$$$$$$$$$@@######@@@@$$$$$$$$$$$$$$$$$$$$$$$$$$$$$$$$$$$$$$$$$$$$$$$$$$$$$$$$$$$$$$$$$$$$$$$$$$$$$$$$$$$$$$$$$$$$$$$$$$$$$$$$",
"$$$$$$$$$$$$@@######@@@@$$$$$$$$$$$$$$$$$$$$$$$$$$$$$$$$$$$$$$$$$$$$$$$$$$$$$$$$$$$$$$$$$$$$$$$$$$$$$$$$$$$$$$$$$$$$$$$$$$$$$$$$",
"$$$$$$$$$$$$@@@#####@@@@$$$$$$$$$$$$$$$$$$$$$$$$$$$$$$$$$$$$$$$$$$$$$$$$$$$$$$$$$$$$$$$$$$$$$$$$$$$$$$$$$$$$$$$$$$$$$$$$$$$$$$$$",
"$$$$$$$$$$$$@@@@####@@@@$$$$$$$$$$$$$$$$$$$$$$$$$$$$$$$$$$$$$$$$$$$$$$$$$$$$$$$$$$$$$$$$$$$$$$$$$$$$$$$$$$$$$$$$$$$$$$$$$$$$$$$$"
};
