/* XPM */
static char *_000[] = {
/* columns rows colors chars-per-pixel */
"32 32 2 1 ",
"  c #1A0808",
". c #200909",
/* pixels */
"................................",
"................................",
".      ...................    ..",
". .... ................... .. ..",
". .... ...................  . ..",
".      ........     .......   ..",
"............... ...  ...........",
"............... .... ...........",
"...............   .. ...........",
".................    ...........",
"................................",
".........................     ..",
"...............   ......  ... ..",
"....      ....  . ...... .... ..",
".... .... .... .. ...... .... ..",
".... .... ....    ......      ..",
".... .... ......................",
"....      ......................",
"................................",
"...............       ..........",
"............... .....  .........",
"............... ...... .........",
"............... ...... .........",
"............... ..... ..........",
"...............       ..........",
".....      .....................",
"..... .... .............       .",
"..... .... ...    ...... ..... .",
"....  .... ... ... ..... ..... .",
".... ..... ... ... ..... ..... .",
"....       ...     .....      ..",
"................................"
};
