/* XPM */
static char *_002[] = {
/* columns rows colors chars-per-pixel */
"32 32 5 1 ",
"  c None",
". c #0E3417",
"X c #1B1C28",
"o c #4B4949",
"O c #474A50",
/* pixels */
"                                ",
"                                ",
"                                ",
"                                ",
"                                ",
"           XXXXXXXXXX           ",
"        XXXXXooooooXXXXX        ",
"       XXXoooXXXXXXoooXXX       ",
"      XXoooXXX....XXXoooXX      ",
"      XooXX..........XXooX      ",
"      XoXX............XXoX      ",
"      XXX..............XXX      ",
"      XXXX............XXXX      ",
"     XXooXXXXXXXXXXXXXXooXX     ",
"    XXooooooooooooooooooooXX    ",
"    XooooooooooooooooooooooX    ",
"   XXooooooooooooooooooooooXX   ",
"   XooooooooooooooooooooooooX   ",
"   XooooooooooooooooooooooooX   ",
"   XooooooooooooooooooooooooX   ",
"   XXooooooooooooooooooooooXX   ",
"   XXXooooooooooooooooooooXXX   ",
"  XXXXXXXooooooooooooooXXXXXXX  ",
"  XXOOOOXXXXXooooooXXXXXOOOOXX  ",
"  XOOOOOXOOXXXXXXXXXXOOXOOOOOX  ",
"  XOOOOXXOOOXXOOOOXXOOOXXOOOOX  ",
"  XXOOXXOOOOXXOOOOXXOOOOXXOOXX  ",
"   XXXXXOOOXXOOOOOOXXOOOXXXXX   ",
"      XXXXXXXXOOOOXXXXXXXX      ",
"          XXXXXXXXXXXX          ",
"             XXXXXX             ",
"                                "
};
