/* XPM */
static char *_004[] = {
/* columns rows colors chars-per-pixel */
"32 32 7 1 ",
"  c None",
". c #1C0505",
"X c #0F1017",
"o c #200000",
"O c #191D30",
"+ c #402828",
"@ c #4B4949",
/* pixels */
"                                ",
"                                ",
"     XXXXXXXXXXXXXXXXXXXXXX     ",
"    X@@@@@@@@@@@@@@@@@@@@@@X    ",
"   X@@@@@@@@@@@@@@@@@@@@@@@@X   ",
"  X@@@@@@@@@@@@@@@@@@@@@@@@@@X  ",
"  XXXXXXXXXXXXXXXXXXXXXXXXXXXX  ",
"  X@@@@@@@@@@@@@@@@@@@@@@@@@@X  ",
"  X@@@@@@@@@@@@@@@@@@@@@@@@@@X  ",
" .............................. ",
" .............................. ",
"  X@@..@@@@@@@@@@@@@@@@@@..@@X  ",
"  X@@..@@@@@@@@@@@@@@@@@@..@@X  ",
"  X@@@.@@@@@@@@@@@@@@@@@@.@@@X  ",
"  X@@@@@XXXXXXXXXXXXXXXX@@@@@X  ",
"  X@@@@XX@@X@@@XX@@@X@@XX@@@@X  ",
"  X@@@XX@@XXXXXXXXXXXX@@XX@@@X  ",
"  X@@XX@XXXOOOOOOOOOOXXX@XX@@X  ",
"  X@@X@@XOOOOOOOOOOOOOOX@@X@@X  ",
"  X@@X@XXOOOOOOOOOOOOOOXX@X@@X  ",
"  X@@XXXOOOOOOOOOOOOOOOOXXX@@X  ",
"  X@@X@XOOOOOOOOOOOOOOOOX@X@@X  ",
"  X@@X@XOOOOOOOOOOOOOOOOX@X@@X  ",
"  X@@XXXOOOOOOOOOOOOOOOOXXX@@X  ",
"  X@@X@XOOOOOOOOOOOOOOOOX@X@@X  ",
"  X@@X@XOoooOOOOOOOOoooOX@X@@X  ",
"  X@@XXXo++oooooooooo++oXXX@@X  ",
"  X@@X@X+++oo++oo++oo+++X@X@@X  ",
"  XX@X@X++oo+++oo+++oo++X@X@XX  ",
"   XXXXX+oo+++oooo+++oo+XXXXX   ",
"    XXXXXXXXXXXXXXXXXXXXXXXX    ",
"                                "
};
