/* XPM */
static char *_009[] = {
/* columns rows colors chars-per-pixel */
"32 64 22 1 ",
"  c None",
". c #090806",
"X c #22100F",
"o c #221C16",
"O c #3A1A18",
"+ c #28241A",
"@ c #10182C",
"# c #141F38",
"$ c #392120",
"% c #692329",
"& c #594E3A",
"* c #5C523A",
"= c #223462",
"- c #87232A",
"; c #AD7939",
": c #EF952C",
"> c #E09D34",
", c #A9895B",
"< c #BC9C65",
"1 c #EEB74B",
"2 c #FFDC8E",
"3 c white",
/* pixels */
"                                ",
"                                ",
"                                ",
"                                ",
"                                ",
"                                ",
"                                ",
"                                ",
"                                ",
"                                ",
"                                ",
"             ;;;;;;             ",
"           ;;;>>>>;;;           ",
"          ;;>>>111>>;;          ",
"          ;>>111111>>;;         ",
"         ;>>11111111>>;;        ",
"         ;>1111111111>>;        ",
"         >111>11111111>;;       ",
"        ;>11;;>1111111>>;       ",
"        ;>1;;2;11111111>;       ",
"        ;>1***2;1111111>;;      ",
"        ;>1*:**211111111>;      ",
"        ;>1*3*22;1111111>;      ",
"        ;>12*222;11111>1>;      ",
"        ;>;22222;11;1>>>>;      ",
"        ;>;<222;11;;>>;>>;      ",
"         ;1;<2;111;>>;;>>;      ",
"         ;1;;o;1;;>>;;>>>;      ",
"         ;1;ooo;;>>>;;>>>;      ",
"         ;1;o$oo;>>;;;>>>;      ",
"         ;1o$$o%;>;;;;;>;       ",
"          ;o$o%--;;>;%;>;       ",
"           &o%----%;%%%;        ",
"           &,%-----%--%         ",
"           &,%--------%         ",
"           &,,%--------%        ",
"            &,%%-------%        ",
"            &,,%-------%%       ",
"            &,,%%-------%       ",
"            @+,,%%------%       ",
"            @+++&%------%       ",
"           @#===*%-----%%       ",
"           ##===*%----%%%       ",
"          @#===*<%---%%%        ",
"         @@#===*<%--%%@         ",
"         @#====**%-%%#@         ",
"        @@#======%%%=#@@        ",
"        @##=======%==##@        ",
"        @#============#@        ",
"       @@#============#@@       ",
"       @#==============#@       ",
"      @##==============##@      ",
"      @##==============##@      ",
"      @@#==============#@@      ",
"       @@#============#@@       ",
"        @@#==========#@@        ",
"         @@@########@@@         ",
"          @@@@@@@@@@@@          ",
"             .OO.OO.            ",
"            .OOO.OX.            ",
"           .OOOX...             ",
"           X.....               ",
"                                ",
"                                "
};
