/* XPM */
static char *_006[] = {
/* columns rows colors chars-per-pixel */
"32 64 22 1 ",
"  c None",
". c #090806",
"X c #22100F",
"o c #221C16",
"O c #3A1A18",
"+ c #28241A",
"@ c #10182C",
"# c #141F38",
"$ c #392120",
"% c #692329",
"& c #594E3A",
"* c #5C523A",
"= c #223462",
"- c #87232A",
"; c #AD7939",
": c #EF952C",
"> c #E09D34",
", c #A9895B",
"< c #BC9C65",
"1 c #EEB74B",
"2 c #FFDC8E",
"3 c white",
/* pixels */
"                                ",
"                                ",
"                                ",
"                                ",
"                                ",
"                                ",
"                                ",
"                                ",
"                                ",
"                                ",
"                                ",
"             ;;;;;;             ",
"           ;;;>>>>;;;           ",
"          ;;>>>>>>>>;;          ",
"         ;;>>111111>>;;         ",
"        ;;>>11111111>>;;        ",
"        ;>>111>111111>>;        ",
"       ;;>111>>111;11>>;;       ",
"       ;>>11>;;111;;11>>;       ",
"       ;>11>;2;11;2;;11>;       ",
"      ;>>11;***1;***;;1>>;      ",
"      ;>11;**:*;2*:**;1>>;      ",
"      ;>11;2*3*22*3*2;11>;      ",
"      ;11;;22*2222*22;11>;      ",
"      ;11;;<22222222;111;;      ",
"      ;11;;;<222222<;11;>;      ",
"      ;11;;;;<2222<;;;1;>;      ",
"      ;11;;;oo+<<+oo;;1;>;      ",
"      ;1;;oo$oo++oo$oo;>;       ",
"      ;1;o$$$$$oo$$$$oo>;       ",
"      ;1;%oo$$o$$o$$oo%;        ",
"       ;%---o$o$$o$o---%        ",
"        %----o$oo$o----%        ",
"       %------,,,,------%       ",
"       %----,,,,,,,,----%       ",
"      %----,,,,,,,,,,----%      ",
"      %----,,,,,,,,,,----%      ",
"      %---+&,,,,,,,,&+---%      ",
"      %---+&&,,,,,,&&+---%      ",
"     %---<*+&&&&&&&&+*<---%     ",
"     %--*<*@++++++++@*<*--%     ",
"     %--<*@@#======#@@*<--%     ",
"    %---<*@##======##@*<---%    ",
"    %--<**@#========#@**<--%    ",
"    %--<*@@#========#@@*<--%    ",
"    %--**@#==========#@**--%    ",
"    %-%%@@#==========#@@%%-%    ",
"    %%% @##==========##@ %%%    ",
"        @#============#@        ",
"       @@#============#@@       ",
"       @#==============#@       ",
"      @##==============##@      ",
"      @##==============##@      ",
"      @@#==============#@@      ",
"       @@#============#@@       ",
"        @@#==========#@@        ",
"         @@##########@@         ",
"          @@@@@@@@@@@@          ",
"          .OOO.  .OOO.          ",
"         .OOOX.  .XOOO.         ",
"         .OOX.    .XOO.         ",
"         X...      ...X         ",
"                                ",
"                                "
};
