/* XPM */
static char *_008[] = {
/* columns rows colors chars-per-pixel */
"32 64 22 1 ",
"  c None",
". c #090806",
"X c #22100F",
"o c #221C16",
"O c #3A1A18",
"+ c #28241A",
"@ c #10182C",
"# c #141F38",
"$ c #392120",
"% c #692329",
"& c #594E3A",
"* c #5C523A",
"= c #223462",
"- c #87232A",
"; c #AD7939",
": c #EF952C",
"> c #E09D34",
", c #A9895B",
"< c #BC9C65",
"1 c #EEB74B",
"2 c #FFDC8E",
"3 c white",
/* pixels */
"                                ",
"                                ",
"                                ",
"                                ",
"                                ",
"                                ",
"                                ",
"                                ",
"                                ",
"                                ",
"                                ",
"             ;;;;;;             ",
"           ;;;>>>>;;;           ",
"          ;;>>1111>>;;          ",
"         ;;>>1111111>;          ",
"        ;;>>111111111>;         ",
"        ;>>11111111>1>;         ",
"       ;;>11111111>>1>;         ",
"       ;>>1111111>;;11;         ",
"       ;>1111111>;2;11;;        ",
"      ;;>111111>;2***1>;        ",
"      ;>1111111;2**:*1>;        ",
"      ;>1111111;22*3*1>;        ",
"      ;>1>11111;222*21>;        ",
"      ;>>>>1111;222221;         ",
"      ;>>;>>1111;222<;;         ",
"      ;>>;>>>;11;22<;>;         ",
"      ;>>>;>>;111;o;;>;         ",
"      ;>>>;>>;;11;oo>>;         ",
"      ;>>>;;>;;;1;$o>;          ",
"      ;>>;;;;;%;1;$$o;          ",
"      ;;>;%%;%%%;%o$o           ",
"       ;>;%%%%-%%%%o&           ",
"       ;;%--%---%-%,&           ",
"       ;;%--------%,&           ",
"        %--------%,,&           ",
"        %-------%%,&            ",
"       %%-------%,,&            ",
"       %-------%%,,&            ",
"       %------%%,,&@            ",
"       %------%*+++@            ",
"       %%-----%*===#@           ",
"       %%%----%*===#@           ",
"        %%%---%<*===#@          ",
"         @%%--%<*===#@@         ",
"         @#%%-%**====#@         ",
"        @@#=%%%======#@@        ",
"        @##==========##@        ",
"        @#============#@        ",
"       @@#============#@@       ",
"       @#==============#@       ",
"      @##==============##@      ",
"      @##==============##@      ",
"      @@#==============#@@      ",
"       @@#============#@@       ",
"        @@#==========#@@        ",
"         @@@########@@@         ",
"          @@@@@@@@@@@@          ",
"            .OO.OO.             ",
"            .XO.OOO.            ",
"             ...XOOO.           ",
"               .....X           ",
"                                ",
"                                "
};
