/* XPM */
static char *_006[] = {
/* columns rows colors chars-per-pixel */
"32 32 10 1 ",
"  c None",
". c #302320",
"X c #4A2622",
"o c #4E2926",
"O c #5D2E2A",
"+ c #752026",
"@ c #6E342F",
"# c #A9292F",
"$ c #D28438",
"% c #F0BF3F",
/* pixels */
"                                ",
"                                ",
"                                ",
"                                ",
"                                ",
"                                ",
"                                ",
"                 ...            ",
"                .#+#.           ",
"               .%+#+#.          ",
"              .oo$%++#.         ",
"             .oooo%$#+#.        ",
"            .ooooXX$%$+#.       ",
"           .@@@oXXXX$%%+..      ",
"          .@@@@OOXXXXX%.X.      ",
"         .@@@@OOOOXXXX.XX.      ",
"        .@@@@OOOOOOXX.XX.       ",
"       .@@@@OOOOOOOO....        ",
"      .O.@@OOOOOOOO.OO.         ",
"      .OO.OOOOOOOO.OO.          ",
"       .OO.OOOOOO.OO.           ",
"        .OO.OOOO.OO.            ",
"         .OO.OO.OO.             ",
"          .OO..OO.              ",
"           .OO.O.               ",
"            .OO.                ",
"             ..                 ",
"                                ",
"                                ",
"                                ",
"                                ",
"                                "
};
