/* XPM */
static char *_014[] = {
/* columns rows colors chars-per-pixel */
"32 32 5 1 ",
"  c None",
". c #30190B",
"X c #4A3527",
"o c #A2501D",
"O c #EBC8B5",
/* pixels */
"                                ",
"                                ",
"                                ",
"                                ",
"                                ",
"                                ",
"                                ",
"                                ",
"                                ",
"                                ",
"                                ",
"                                ",
"                                ",
"                                ",
"        ..                      ",
"        .O. ..........          ",
"        .OO.XXXXXXXXXX...  ..   ",
"       ....XXXoooXXXXXX... .O.  ",
"      .Xo.oXXXooooXXXXXXXX..OO. ",
"     .Xo.ooXXooooXXXXXooXX...O. ",
"    .Xo.ooXXXoooXXXXXooo..XX..  ",
"   .Xo.ooXXXoooXXXXXooo.XXXo.   ",
"   .Xo.XXXXXooXXXXXooo.Xoooo.   ",
"   .o.XXXXXXoXXXXXXXX.ooooo.    ",
"   .o.XXoXXXXXXXXXXX.ooXoo..    ",
"   ...XoooXXXXXXoooo.oXXXo.     ",
"   .oX.oooXXXXXooo.....XX..     ",
"   ..oX.ooXXXXooo.XXXXX...      ",
"    ..oX.oXXXooo.XXooo...       ",
"     ...................        ",
"                                ",
"                                "
};
