/* XPM */
static char *_013[] = {
/* columns rows colors chars-per-pixel */
"32 32 5 1 ",
"  c None",
". c #30190B",
"X c #4A3527",
"o c #A2501D",
"O c #EBC8B5",
/* pixels */
"                                ",
"                                ",
"                                ",
"                                ",
"                                ",
"                                ",
"                                ",
"                                ",
"                                ",
"                                ",
"                                ",
"                                ",
"                                ",
"                                ",
"       ..                  ..   ",
"       .O.                 .O.  ",
"       .OO.                .OO. ",
"      .....               ...O. ",
"      .o.....       ........X.  ",
"     .X..XXX..    ..XXXXX..XX.  ",
"    ..X..ooXX.....XXXXooo..Xo.  ",
"    .X..oooXXXXXXXXXXooo..Xoo.  ",
"   ..o.oooXXXoooXXXXoooo.Xoo.   ",
"   .o.XXXXXXoooXXXXXXoo.oooo.   ",
"  ....XXXXXXooXXXXXXXXX.oXXo.   ",
"  .o..oooXXXoXXXXXXooo....XX.   ",
"  .oX..oooXXXXXXXXooo..XX.X..   ",
"  ..oX.oooXXXXXXoooo..XXX...    ",
"   ..o..oooXXXXoooo..Xoo...     ",
"    ......................      ",
"                                ",
"                                "
};
