/* XPM */
static char *_006[] = {
/* columns rows colors chars-per-pixel */
"128 128 4 1 ",
"  c #1A0808",
". c #200909",
"X c #300000",
"o c #3E0D03",
/* pixels */
"................................................................................................................................",
"................................................................................................................................",
"................................................................................................................................",
"................................................................................................................................",
"....                            ............................................................                            ........",
"....                            ............................................................                            ........",
"....                            ............................................................                            ........",
"....                            ............................................................                            ........",
"....    ....................    ............                                ................    ....................    ........",
"....    ....................    ............                                ................    ....................    ........",
"....    ....................    ............                                ................    ....................    ........",
"....    ....................    ............                                ................    ....................    ........",
"....    ....................    ............    ........................    ................    ....................    ........",
"....    ....................    ............    ........................    ................    ....................    ........",
"....    ....................    ............    ........................    ................    ....................    ........",
"....    ....................    ............    ........................    ................    ....................    ........",
"....                            ............    ........................    ................                            ........",
"....                            ............    ........................    ................                            ........",
"....                            ............    ........................    ................                            ........",
"....                            ............    ........................    ................                            ........",
"............................................                                ....................................................",
"............................................                                ....................................................",
"............................................                                ....................................................",
"............................................                                ....................................................",
"................................................................................................................................",
"................................................................................................................................",
"................................................................................................................................",
"................................................................................................................................",
"XXXXXXXXXXXXXXXXXXXXXXXXXXXXXXXXXXXXXXXXXXXXXXXXXXXXXXXXXXXXXXXXXXXXXXXXXXXXXXXXXXXXXXXXXXXXXXXXXXXXXXXXXXXXXXXXXXXXXXXXXXXXXXXX",
"XXXXXXXXXXXXXXXXXXXXXXXXXXXXXXXXXXXXXXXXXXXXXXXXXXXXXXXXXXXXXXXXXXXXXXXXXXXXXXXXXXXXXXXXXXXXXXXXXXXXXXXXXXXXXXXXXXXXXXXXXXXXXXXX",
"XXXXXXXXXXXXXXXXXXXXXXXXXXXXXXXXXXXXXXXXXXXXXXXXXXXXXXXXXXXXXXXXXXXXXXXXXXXXXXXXXXXXXXXXXXXXXXXXXXXXXXXXXXXXXXXXXXXXXXXXXXXXXXXX",
"XXXXXXXXXXXXXXXXXXXXXXXXXXXXXXXXXXXXXXXXXXXXXXXXXXXXXXXXXXXXXXXXXXXXXXXXXXXXXXXXXXXXXXXXXXXXXXXXXXXXXXXXXXXXXXXXXXXXXXXXXXXXXXXX",
"ooooooooooooooooooooooooooooooooXXXXXXXXXXXXooooooooooooooooooooooooooooXXXXXXXXXXXXooooooooooooooooooooooooooooXXXXXXXXXXXXoooo",
"ooooooooooooooooooooooooooooooooXXXXXXXXXXXXooooooooooooooooooooooooooooXXXXXXXXXXXXooooooooooooooooooooooooooooXXXXXXXXXXXXoooo",
"ooooooooooooooooooooooooooooooooXXXXXXXXXXXXooooooooooooooooooooooooooooXXXXXXXXXXXXooooooooooooooooooooooooooooXXXXXXXXXXXXoooo",
"ooooooooooooooooooooooooooooooooXXXXXXXXXXXXooooooooooooooooooooooooooooXXXXXXXXXXXXooooooooooooooooooooooooooooXXXXXXXXXXXXoooo",
"ooooooooooooooooooooooooooooooooooooXXXXooooooooooooooooooooooooooooooooooooXXXXooooooooooooooooooooooooooooooooooooXXXXoooooooo",
"ooooooooooooooooooooooooooooooooooooXXXXooooooooooooooooooooooooooooooooooooXXXXooooooooooooooooooooooooooooooooooooXXXXoooooooo",
"ooooooooooooooooooooooooooooooooooooXXXXooooooooooooooooooooooooooooooooooooXXXXooooooooooooooooooooooooooooooooooooXXXXoooooooo",
"ooooooooooooooooooooooooooooooooooooXXXXooooooooooooooooooooooooooooooooooooXXXXooooooooooooooooooooooooooooooooooooXXXXoooooooo",
"ooooooooooooooooooooooooooooooooooooXXXXooooooooooooooooooooooooooooooooooooXXXXooooooooooooooooooooooooooooooooooooXXXXoooooooo",
"ooooooooooooooooooooooooooooooooooooXXXXooooooooooooooooooooooooooooooooooooXXXXooooooooooooooooooooooooooooooooooooXXXXoooooooo",
"ooooooooooooooooooooooooooooooooooooXXXXooooooooooooooooooooooooooooooooooooXXXXooooooooooooooooooooooooooooooooooooXXXXoooooooo",
"ooooooooooooooooooooooooooooooooooooXXXXooooooooooooooooooooooooooooooooooooXXXXooooooooooooooooooooooooooooooooooooXXXXoooooooo",
"ooooooooooooooooooooooooooooooooXXXXXXXXXXXXooooooooooooooooooooooooooooXXXXXXXXXXXXooooooooooooooooooooooooooooXXXXXXXXXXXXoooo",
"ooooooooooooooooooooooooooooooooXXXXXXXXXXXXooooooooooooooooooooooooooooXXXXXXXXXXXXooooooooooooooooooooooooooooXXXXXXXXXXXXoooo",
"ooooooooooooooooooooooooooooooooXXXXXXXXXXXXooooooooooooooooooooooooooooXXXXXXXXXXXXooooooooooooooooooooooooooooXXXXXXXXXXXXoooo",
"ooooooooooooooooooooooooooooooooXXXXXXXXXXXXooooooooooooooooooooooooooooXXXXXXXXXXXXooooooooooooooooooooooooooooXXXXXXXXXXXXoooo",
"XXXXXXXXXXXXXXXXXXXXXXXXXXXXXXXXXXXXXXXXXXXXXXXXXXXXXXXXXXXXXXXXXXXXXXXXXXXXXXXXXXXXXXXXXXXXXXXXXXXXXXXXXXXXXXXXXXXXXXXXXXXXXXXX",
"XXXXXXXXXXXXXXXXXXXXXXXXXXXXXXXXXXXXXXXXXXXXXXXXXXXXXXXXXXXXXXXXXXXXXXXXXXXXXXXXXXXXXXXXXXXXXXXXXXXXXXXXXXXXXXXXXXXXXXXXXXXXXXXX",
"XXXXXXXXXXXXXXXXXXXXXXXXXXXXXXXXXXXXXXXXXXXXXXXXXXXXXXXXXXXXXXXXXXXXXXXXXXXXXXXXXXXXXXXXXXXXXXXXXXXXXXXXXXXXXXXXXXXXXXXXXXXXXXXX",
"XXXXXXXXXXXXXXXXXXXXXXXXXXXXXXXXXXXXXXXXXXXXXXXXXXXXXXXXXXXXXXXXXXXXXXXXXXXXXXXXXXXXXXXXXXXXXXXXXXXXXXXXXXXXXXXXXXXXXXXXXXXXXXXX",
"ooooooooooooXXXXXXXXXXXXooooooooooooooooooooooooooooooooXXXXXXXXXXXXooooooooooooooooooooooooooooooooXXXXXXXXXXXXoooooooooooooooo",
"ooooooooooooXXXXXXXXXXXXooooooooooooooooooooooooooooooooXXXXXXXXXXXXooooooooooooooooooooooooooooooooXXXXXXXXXXXXoooooooooooooooo",
"ooooooooooooXXXXXXXXXXXXooooooooooooooooooooooooooooooooXXXXXXXXXXXXooooooooooooooooooooooooooooooooXXXXXXXXXXXXoooooooooooooooo",
"ooooooooooooXXXXXXXXXXXXooooooooooooooooooooooooooooooooXXXXXXXXXXXXooooooooooooooooooooooooooooooooXXXXXXXXXXXXoooooooooooooooo",
"ooooooooooooooooXXXXooooooooooooooooooooooooooooooooooooooooXXXXooooooooooooooooooooooooooooooooooooooooXXXXoooooooooooooooooooo",
"ooooooooooooooooXXXXooooooooooooooooooooooooooooooooooooooooXXXXooooooooooooooooooooooooooooooooooooooooXXXXoooooooooooooooooooo",
"ooooooooooooooooXXXXooooooooooooooooooooooooooooooooooooooooXXXXooooooooooooooooooooooooooooooooooooooooXXXXoooooooooooooooooooo",
"ooooooooooooooooXXXXooooooooooooooooooooooooooooooooooooooooXXXXooooooooooooooooooooooooooooooooooooooooXXXXoooooooooooooooooooo",
"ooooooooooooooooXXXXooooooooooooooooooooooooooooooooooooooooXXXXooooooooooooooooooooooooooooooooooooooooXXXXoooooooooooooooooooo",
"ooooooooooooooooXXXXooooooooooooooooooooooooooooooooooooooooXXXXooooooooooooooooooooooooooooooooooooooooXXXXoooooooooooooooooooo",
"ooooooooooooooooXXXXooooooooooooooooooooooooooooooooooooooooXXXXooooooooooooooooooooooooooooooooooooooooXXXXoooooooooooooooooooo",
"ooooooooooooooooXXXXooooooooooooooooooooooooooooooooooooooooXXXXooooooooooooooooooooooooooooooooooooooooXXXXoooooooooooooooooooo",
"ooooooooooooXXXXXXXXXXXXooooooooooooooooooooooooooooooooXXXXXXXXXXXXooooooooooooooooooooooooooooooooXXXXXXXXXXXXoooooooooooooooo",
"ooooooooooooXXXXXXXXXXXXooooooooooooooooooooooooooooooooXXXXXXXXXXXXooooooooooooooooooooooooooooooooXXXXXXXXXXXXoooooooooooooooo",
"ooooooooooooXXXXXXXXXXXXooooooooooooooooooooooooooooooooXXXXXXXXXXXXooooooooooooooooooooooooooooooooXXXXXXXXXXXXoooooooooooooooo",
"ooooooooooooXXXXXXXXXXXXooooooooooooooooooooooooooooooooXXXXXXXXXXXXooooooooooooooooooooooooooooooooXXXXXXXXXXXXoooooooooooooooo",
"XXXXXXXXXXXXXXXXXXXXXXXXXXXXXXXXXXXXXXXXXXXXXXXXXXXXXXXXXXXXXXXXXXXXXXXXXXXXXXXXXXXXXXXXXXXXXXXXXXXXXXXXXXXXXXXXXXXXXXXXXXXXXXXX",
"XXXXXXXXXXXXXXXXXXXXXXXXXXXXXXXXXXXXXXXXXXXXXXXXXXXXXXXXXXXXXXXXXXXXXXXXXXXXXXXXXXXXXXXXXXXXXXXXXXXXXXXXXXXXXXXXXXXXXXXXXXXXXXXX",
"XXXXXXXXXXXXXXXXXXXXXXXXXXXXXXXXXXXXXXXXXXXXXXXXXXXXXXXXXXXXXXXXXXXXXXXXXXXXXXXXXXXXXXXXXXXXXXXXXXXXXXXXXXXXXXXXXXXXXXXXXXXXXXXX",
"XXXXXXXXXXXXXXXXXXXXXXXXXXXXXXXXXXXXXXXXXXXXXXXXXXXXXXXXXXXXXXXXXXXXXXXXXXXXXXXXXXXXXXXXXXXXXXXXXXXXXXXXXXXXXXXXXXXXXXXXXXXXXXXX",
"ooooooooooooooooooooooooooooooooXXXXXXXXXXXXooooooooooooooooooooooooooooXXXXXXXXXXXXooooooooooooooooooooooooooooXXXXXXXXXXXXoooo",
"ooooooooooooooooooooooooooooooooXXXXXXXXXXXXooooooooooooooooooooooooooooXXXXXXXXXXXXooooooooooooooooooooooooooooXXXXXXXXXXXXoooo",
"ooooooooooooooooooooooooooooooooXXXXXXXXXXXXooooooooooooooooooooooooooooXXXXXXXXXXXXooooooooooooooooooooooooooooXXXXXXXXXXXXoooo",
"ooooooooooooooooooooooooooooooooXXXXXXXXXXXXooooooooooooooooooooooooooooXXXXXXXXXXXXooooooooooooooooooooooooooooXXXXXXXXXXXXoooo",
"ooooooooooooooooooooooooooooooooooooXXXXooooooooooooooooooooooooooooooooooooXXXXooooooooooooooooooooooooooooooooooooXXXXoooooooo",
"ooooooooooooooooooooooooooooooooooooXXXXooooooooooooooooooooooooooooooooooooXXXXooooooooooooooooooooooooooooooooooooXXXXoooooooo",
"ooooooooooooooooooooooooooooooooooooXXXXooooooooooooooooooooooooooooooooooooXXXXooooooooooooooooooooooooooooooooooooXXXXoooooooo",
"ooooooooooooooooooooooooooooooooooooXXXXooooooooooooooooooooooooooooooooooooXXXXooooooooooooooooooooooooooooooooooooXXXXoooooooo",
"ooooooooooooooooooooooooooooooooooooXXXXooooooooooooooooooooooooooooooooooooXXXXooooooooooooooooooooooooooooooooooooXXXXoooooooo",
"ooooooooooooooooooooooooooooooooooooXXXXooooooooooooooooooooooooooooooooooooXXXXooooooooooooooooooooooooooooooooooooXXXXoooooooo",
"ooooooooooooooooooooooooooooooooooooXXXXooooooooooooooooooooooooooooooooooooXXXXooooooooooooooooooooooooooooooooooooXXXXoooooooo",
"ooooooooooooooooooooooooooooooooooooXXXXooooooooooooooooooooooooooooooooooooXXXXooooooooooooooooooooooooooooooooooooXXXXoooooooo",
"ooooooooooooooooooooooooooooooooXXXXXXXXXXXXooooooooooooooooooooooooooooXXXXXXXXXXXXooooooooooooooooooooooooooooXXXXXXXXXXXXoooo",
"ooooooooooooooooooooooooooooooooXXXXXXXXXXXXooooooooooooooooooooooooooooXXXXXXXXXXXXooooooooooooooooooooooooooooXXXXXXXXXXXXoooo",
"ooooooooooooooooooooooooooooooooXXXXXXXXXXXXooooooooooooooooooooooooooooXXXXXXXXXXXXooooooooooooooooooooooooooooXXXXXXXXXXXXoooo",
"ooooooooooooooooooooooooooooooooXXXXXXXXXXXXooooooooooooooooooooooooooooXXXXXXXXXXXXooooooooooooooooooooooooooooXXXXXXXXXXXXoooo",
"XXXXXXXXXXXXXXXXXXXXXXXXXXXXXXXXXXXXXXXXXXXXXXXXXXXXXXXXXXXXXXXXXXXXXXXXXXXXXXXXXXXXXXXXXXXXXXXXXXXXXXXXXXXXXXXXXXXXXXXXXXXXXXXX",
"XXXXXXXXXXXXXXXXXXXXXXXXXXXXXXXXXXXXXXXXXXXXXXXXXXXXXXXXXXXXXXXXXXXXXXXXXXXXXXXXXXXXXXXXXXXXXXXXXXXXXXXXXXXXXXXXXXXXXXXXXXXXXXXX",
"XXXXXXXXXXXXXXXXXXXXXXXXXXXXXXXXXXXXXXXXXXXXXXXXXXXXXXXXXXXXXXXXXXXXXXXXXXXXXXXXXXXXXXXXXXXXXXXXXXXXXXXXXXXXXXXXXXXXXXXXXXXXXXXX",
"XXXXXXXXXXXXXXXXXXXXXXXXXXXXXXXXXXXXXXXXXXXXXXXXXXXXXXXXXXXXXXXXXXXXXXXXXXXXXXXXXXXXXXXXXXXXXXXXXXXXXXXXXXXXXXXXXXXXXXXXXXXXXXXX",
"ooooooooooooXXXXXXXXXXXXooooooooooooooooooooooooooooooooXXXXXXXXXXXXooooooooooooooooooooooooooooooooXXXXXXXXXXXXoooooooooooooooo",
"ooooooooooooXXXXXXXXXXXXooooooooooooooooooooooooooooooooXXXXXXXXXXXXooooooooooooooooooooooooooooooooXXXXXXXXXXXXoooooooooooooooo",
"ooooooooooooXXXXXXXXXXXXooooooooooooooooooooooooooooooooXXXXXXXXXXXXooooooooooooooooooooooooooooooooXXXXXXXXXXXXoooooooooooooooo",
"ooooooooooooXXXXXXXXXXXXooooooooooooooooooooooooooooooooXXXXXXXXXXXXooooooooooooooooooooooooooooooooXXXXXXXXXXXXoooooooooooooooo",
"ooooooooooooooooXXXXooooooooooooooooooooooooooooooooooooooooXXXXooooooooooooooooooooooooooooooooooooooooXXXXoooooooooooooooooooo",
"ooooooooooooooooXXXXooooooooooooooooooooooooooooooooooooooooXXXXooooooooooooooooooooooooooooooooooooooooXXXXoooooooooooooooooooo",
"ooooooooooooooooXXXXooooooooooooooooooooooooooooooooooooooooXXXXooooooooooooooooooooooooooooooooooooooooXXXXoooooooooooooooooooo",
"ooooooooooooooooXXXXooooooooooooooooooooooooooooooooooooooooXXXXooooooooooooooooooooooooooooooooooooooooXXXXoooooooooooooooooooo",
"ooooooooooooooooXXXXooooooooooooooooooooooooooooooooooooooooXXXXooooooooooooooooooooooooooooooooooooooooXXXXoooooooooooooooooooo",
"ooooooooooooooooXXXXooooooooooooooooooooooooooooooooooooooooXXXXooooooooooooooooooooooooooooooooooooooooXXXXoooooooooooooooooooo",
"ooooooooooooooooXXXXooooooooooooooooooooooooooooooooooooooooXXXXooooooooooooooooooooooooooooooooooooooooXXXXoooooooooooooooooooo",
"ooooooooooooooooXXXXooooooooooooooooooooooooooooooooooooooooXXXXooooooooooooooooooooooooooooooooooooooooXXXXoooooooooooooooooooo",
"ooooooooooooXXXXXXXXXXXXooooooooooooooooooooooooooooooooXXXXXXXXXXXXooooooooooooooooooooooooooooooooXXXXXXXXXXXXoooooooooooooooo",
"ooooooooooooXXXXXXXXXXXXooooooooooooooooooooooooooooooooXXXXXXXXXXXXooooooooooooooooooooooooooooooooXXXXXXXXXXXXoooooooooooooooo",
"ooooooooooooXXXXXXXXXXXXooooooooooooooooooooooooooooooooXXXXXXXXXXXXooooooooooooooooooooooooooooooooXXXXXXXXXXXXoooooooooooooooo",
"ooooooooooooXXXXXXXXXXXXooooooooooooooooooooooooooooooooXXXXXXXXXXXXooooooooooooooooooooooooooooooooXXXXXXXXXXXXoooooooooooooooo",
"XXXXXXXXXXXXXXXXXXXXXXXXXXXXXXXXXXXXXXXXXXXXXXXXXXXXXXXXXXXXXXXXXXXXXXXXXXXXXXXXXXXXXXXXXXXXXXXXXXXXXXXXXXXXXXXXXXXXXXXXXXXXXXXX",
"XXXXXXXXXXXXXXXXXXXXXXXXXXXXXXXXXXXXXXXXXXXXXXXXXXXXXXXXXXXXXXXXXXXXXXXXXXXXXXXXXXXXXXXXXXXXXXXXXXXXXXXXXXXXXXXXXXXXXXXXXXXXXXXX",
"XXXXXXXXXXXXXXXXXXXXXXXXXXXXXXXXXXXXXXXXXXXXXXXXXXXXXXXXXXXXXXXXXXXXXXXXXXXXXXXXXXXXXXXXXXXXXXXXXXXXXXXXXXXXXXXXXXXXXXXXXXXXXXXX",
"XXXXXXXXXXXXXXXXXXXXXXXXXXXXXXXXXXXXXXXXXXXXXXXXXXXXXXXXXXXXXXXXXXXXXXXXXXXXXXXXXXXXXXXXXXXXXXXXXXXXXXXXXXXXXXXXXXXXXXXXXXXXXXXX",
"ooooooooooooooooooooooooooooooooXXXXXXXXXXXXooooooooooooooooooooooooooooXXXXXXXXXXXXooooooooooooooooooooooooooooooooXXXXXXXXXXXX",
"ooooooooooooooooooooooooooooooooXXXXXXXXXXXXooooooooooooooooooooooooooooXXXXXXXXXXXXooooooooooooooooooooooooooooooooXXXXXXXXXXXX",
"ooooooooooooooooooooooooooooooooXXXXXXXXXXXXooooooooooooooooooooooooooooXXXXXXXXXXXXooooooooooooooooooooooooooooooooXXXXXXXXXXXX",
"ooooooooooooooooooooooooooooooooXXXXXXXXXXXXooooooooooooooooooooooooooooXXXXXXXXXXXXooooooooooooooooooooooooooooooooXXXXXXXXXXXX",
"ooooooooooooooooooooooooooooooooooooXXXXooooooooooooooooooooooooooooooooooooXXXXooooooooooooooooooooooooooooooooooooooooXXXXoooo",
"ooooooooooooooooooooooooooooooooooooXXXXooooooooooooooooooooooooooooooooooooXXXXooooooooooooooooooooooooooooooooooooooooXXXXoooo",
"ooooooooooooooooooooooooooooooooooooXXXXooooooooooooooooooooooooooooooooooooXXXXooooooooooooooooooooooooooooooooooooooooXXXXoooo",
"ooooooooooooooooooooooooooooooooooooXXXXooooooooooooooooooooooooooooooooooooXXXXooooooooooooooooooooooooooooooooooooooooXXXXoooo",
"ooooooooooooooooooooooooooooooooooooXXXXooooooooooooooooooooooooooooooooooooXXXXooooooooooooooooooooooooooooooooooooooooXXXXoooo",
"ooooooooooooooooooooooooooooooooooooXXXXooooooooooooooooooooooooooooooooooooXXXXooooooooooooooooooooooooooooooooooooooooXXXXoooo",
"ooooooooooooooooooooooooooooooooooooXXXXooooooooooooooooooooooooooooooooooooXXXXooooooooooooooooooooooooooooooooooooooooXXXXoooo",
"ooooooooooooooooooooooooooooooooooooXXXXooooooooooooooooooooooooooooooooooooXXXXooooooooooooooooooooooooooooooooooooooooXXXXoooo",
"ooooooooooooooooooooooooooooooooXXXXXXXXXXXXooooooooooooooooooooooooooooXXXXXXXXXXXXooooooooooooooooooooooooooooooooXXXXXXXXXXXX",
"ooooooooooooooooooooooooooooooooXXXXXXXXXXXXooooooooooooooooooooooooooooXXXXXXXXXXXXooooooooooooooooooooooooooooooooXXXXXXXXXXXX",
"ooooooooooooooooooooooooooooooooXXXXXXXXXXXXooooooooooooooooooooooooooooXXXXXXXXXXXXooooooooooooooooooooooooooooooooXXXXXXXXXXXX",
"ooooooooooooooooooooooooooooooooXXXXXXXXXXXXooooooooooooooooooooooooooooXXXXXXXXXXXXooooooooooooooooooooooooooooooooXXXXXXXXXXXX"
};
