/* XPM */
static char *_002[] = {
/* columns rows colors chars-per-pixel */
"128 128 9 1 ",
"  c None",
". c #231818",
"X c #56443E",
"o c #4C4343",
"O c #D57B47",
"+ c #F19B5E",
"@ c #F1BD61",
"# c #FFC37F",
"$ c #ECD2B2",
/* pixels */
"                                                                                                                                ",
"                                                                                                                                ",
"                                                                                                                                ",
"                                                                                                                                ",
"        $$$$$$$$                        $$$$$$$$                                    $$$$$$$$$$$$                $$$$$$$$        ",
"        $$$$$$$$                        $$$$$$$$                                    $$$$$$$$$$$$                $$$$$$$$        ",
"        $$$$$$$$                        $$$$$$$$                                    $$$$$$$$$$$$                $$$$$$$$        ",
"        $$$$$$$$                        $$$$$$$$                                    $$$$$$$$$$$$                $$$$$$$$        ",
"            $$$$$$$$$$$$                    $$$$$$$$                                $$$$                    $$$$$$$$            ",
"            $$$$$$$$$$$$                    $$$$$$$$                                $$$$                    $$$$$$$$            ",
"            $$$$$$$$$$$$                    $$$$$$$$                                $$$$                    $$$$$$$$            ",
"            $$$$$$$$$$$$                    $$$$$$$$                                $$$$                    $$$$$$$$            ",
"                    $$$$$$$$                    $$$$$$$$$$$$                $$$$$$$$                    $$$$$$$$                ",
"                    $$$$$$$$                    $$$$$$$$$$$$                $$$$$$$$                    $$$$$$$$                ",
"                    $$$$$$$$                    $$$$$$$$$$$$                $$$$$$$$                    $$$$$$$$                ",
"                    $$$$$$$$                    $$$$$$$$$$$$                $$$$$$$$                    $$$$$$$$                ",
"                        $$$$                                                                        $$$$$$$$                    ",
"                        $$$$                                                                        $$$$$$$$                    ",
"                        $$$$                                                                        $$$$$$$$                    ",
"                        $$$$                                                                        $$$$$$$$                    ",
"                                            ........................................                                    $$$$    ",
"                                            ........................................                                    $$$$    ",
"                                            ........................................                                    $$$$    ",
"                                            ........................................                                    $$$$    ",
"    $$$$$$$$                    ....................oooooooooooooooooooooooo....................                    $$$$$$$$    ",
"    $$$$$$$$                    ....................oooooooooooooooooooooooo....................                    $$$$$$$$    ",
"    $$$$$$$$                    ....................oooooooooooooooooooooooo....................                    $$$$$$$$    ",
"    $$$$$$$$                    ....................oooooooooooooooooooooooo....................                    $$$$$$$$    ",
"        $$$$$$$$            ............oooooooooooo........................oooooooooooo............            $$$$$$$$        ",
"        $$$$$$$$            ............oooooooooooo........................oooooooooooo............            $$$$$$$$        ",
"        $$$$$$$$            ............oooooooooooo........................oooooooooooo............            $$$$$$$$        ",
"        $$$$$$$$            ............oooooooooooo........................oooooooooooo............            $$$$$$$$        ",
"            $$$$$$$$    ........oooooooooooo............++++++++++++++++............oooooooooooo........        $$$$            ",
"            $$$$$$$$    ........oooooooooooo............++++++++++++++++............oooooooooooo........        $$$$            ",
"            $$$$$$$$    ........oooooooooooo............++++++++++++++++............oooooooooooo........        $$$$            ",
"            $$$$$$$$    ........oooooooooooo............++++++++++++++++............oooooooooooo........        $$$$            ",
"                $$$$    ....oooooooo........++++++++++++++++####++++++++++++++++++++........oooooooo....                        ",
"                $$$$    ....oooooooo........++++++++++++++++####++++++++++++++++++++........oooooooo....                        ",
"                $$$$    ....oooooooo........++++++++++++++++####++++++++++++++++++++........oooooooo....                        ",
"                $$$$    ....oooooooo........++++++++++++++++####++++++++++++++++++++........oooooooo....                        ",
"                        ....oooo........++++++++++++++++++++++++++++++++####++++++++++++........oooo....                        ",
"                        ....oooo........++++++++++++++++++++++++++++++++####++++++++++++........oooo....                        ",
"                        ....oooo........++++++++++++++++++++++++++++++++####++++++++++++........oooo....                        ",
"                        ....oooo........++++++++++++++++++++++++++++++++####++++++++++++........oooo....                        ",
"                        ............++++++++####++++++++####++++++++++++++++++++####++++++++............                        ",
"                        ............++++++++####++++++++####++++++++++++++++++++####++++++++............                        ",
"                        ............++++++++####++++++++####++++++++++++++++++++####++++++++............                        ",
"                        ............++++++++####++++++++####++++++++++++++++++++####++++++++............                        ",
"                        ................++++++++++++++++++++++++++++++++++++++++++++++++................                        ",
"                        ................++++++++++++++++++++++++++++++++++++++++++++++++................                        ",
"                        ................++++++++++++++++++++++++++++++++++++++++++++++++................                        ",
"                        ................++++++++++++++++++++++++++++++++++++++++++++++++................                        ",
"                    ........oooooooo........................................................oooooooo........                    ",
"                    ........oooooooo........................................................oooooooo........                    ",
"                    ........oooooooo........................................................oooooooo........                    ",
"                    ........oooooooo........................................................oooooooo........                    ",
"                ........oooooooooooooooooooooooooooooooooooooooooooooooooooooooooooooooooooooooooooooooo........                ",
"                ........oooooooooooooooooooooooooooooooooooooooooooooooooooooooooooooooooooooooooooooooo........                ",
"                ........oooooooooooooooooooooooooooooooooooooooooooooooooooooooooooooooooooooooooooooooo........                ",
"                ........oooooooooooooooooooooooooooooooooooooooooooooooooooooooooooooooooooooooooooooooo........                ",
"                ....oooooooooooooooooooooooooooooooooooooooooooooooooooooooooooooooooooooooooooooooooooooooo....                ",
"                ....oooooooooooooooooooooooooooooooooooooooooooooooooooooooooooooooooooooooooooooooooooooooo....                ",
"                ....oooooooooooooooooooooooooooooooooooooooooooooooooooooooooooooooooooooooooooooooooooooooo....                ",
"                ....oooooooooooooooooooooooooooooooooooooooooooooooooooooooooooooooooooooooooooooooooooooooo....                ",
"            ........oooooooooooooooooooooooooooooooooooooooooooooooooooooooooooooooooooooooooooooooooooooooo........            ",
"            ........oooooooooooooooooooooooooooooooooooooooooooooooooooooooooooooooooooooooooooooooooooooooo........            ",
"            ........oooooooooooooooooooooooooooooooooooooooooooooooooooooooooooooooooooooooooooooooooooooooo........            ",
"            ........oooooooooooooooooooooooooooooooooooooooooooooooooooooooooooooooooooooooooooooooooooooooo........            ",
"            ....oooooooooooooooooooooooooooooooooooooooooooooooooooooooooooooooooooooooooooooooooooooooooooooooo....@@@@        ",
"            ....oooooooooooooooooooooooooooooooooooooooooooooooooooooooooooooooooooooooooooooooooooooooooooooooo....@@@@        ",
"            ....oooooooooooooooooooooooooooooooooooooooooooooooooooooooooooooooooooooooooooooooooooooooooooooooo....@@@@        ",
"            ....oooooooooooooooooooooooooooooooooooooooooooooooooooooooooooooooooooooooooooooooooooooooooooooooo....@@@@        ",
"        @@@@....@@@@oooooooooooo@@@@oooooooooooo@@@@@@@@oooooooooooooooo@@@@oooooooooooooooooooo@@@@oooooooo@@@@....            ",
"        @@@@....@@@@oooooooooooo@@@@oooooooooooo@@@@@@@@oooooooooooooooo@@@@oooooooooooooooooooo@@@@oooooooo@@@@....            ",
"        @@@@....@@@@oooooooooooo@@@@oooooooooooo@@@@@@@@oooooooooooooooo@@@@oooooooooooooooooooo@@@@oooooooo@@@@....            ",
"        @@@@....@@@@oooooooooooo@@@@oooooooooooo@@@@@@@@oooooooooooooooo@@@@oooooooooooooooooooo@@@@oooooooo@@@@....            ",
"            @@@@@@@@@@@@oooooooooooooooo@@@@oooooooooooooooo@@@@oooooooo@@@@oooooooo@@@@oooooooo@@@@oooo@@@@@@@@@@@@            ",
"            @@@@@@@@@@@@oooooooooooooooo@@@@oooooooooooooooo@@@@oooooooo@@@@oooooooo@@@@oooooooo@@@@oooo@@@@@@@@@@@@            ",
"            @@@@@@@@@@@@oooooooooooooooo@@@@oooooooooooooooo@@@@oooooooo@@@@oooooooo@@@@oooooooo@@@@oooo@@@@@@@@@@@@            ",
"            @@@@@@@@@@@@oooooooooooooooo@@@@oooooooooooooooo@@@@oooooooo@@@@oooooooo@@@@oooooooo@@@@oooo@@@@@@@@@@@@            ",
"            ....@@@@@@@@@@@@oooooooo@@@@@@@@oooo@@@@@@@@oooooooo@@@@oooooooooooooooooooooooo@@@@oooooooo@@@@@@@@....            ",
"            ....@@@@@@@@@@@@oooooooo@@@@@@@@oooo@@@@@@@@oooooooo@@@@oooooooooooooooooooooooo@@@@oooooooo@@@@@@@@....            ",
"            ....@@@@@@@@@@@@oooooooo@@@@@@@@oooo@@@@@@@@oooooooo@@@@oooooooooooooooooooooooo@@@@oooooooo@@@@@@@@....            ",
"            ....@@@@@@@@@@@@oooooooo@@@@@@@@oooo@@@@@@@@oooooooo@@@@oooooooooooooooooooooooo@@@@oooooooo@@@@@@@@....            ",
"            ....OOOO@@@@@@@@oooooooo@@@@@@@@@@@@@@@@@@@@oooooooo@@@@@@@@@@@@@@@@oooo@@@@oooo@@@@@@@@@@@@@@@@OOOO....            ",
"            ....OOOO@@@@@@@@oooooooo@@@@@@@@@@@@@@@@@@@@oooooooo@@@@@@@@@@@@@@@@oooo@@@@oooo@@@@@@@@@@@@@@@@OOOO....            ",
"            ....OOOO@@@@@@@@oooooooo@@@@@@@@@@@@@@@@@@@@oooooooo@@@@@@@@@@@@@@@@oooo@@@@oooo@@@@@@@@@@@@@@@@OOOO....            ",
"            ....OOOO@@@@@@@@oooooooo@@@@@@@@@@@@@@@@@@@@oooooooo@@@@@@@@@@@@@@@@oooo@@@@oooo@@@@@@@@@@@@@@@@OOOO....            ",
"        ........OOOOOOOO@@@@@@@@@@@@@@@@@@@@@@@@@@@@@@@@oooo@@@@@@@@@@@@@@@@@@@@@@@@@@@@@@@@@@@@@@@@@@@@OOOOOOOO........        ",
"        ........OOOOOOOO@@@@@@@@@@@@@@@@@@@@@@@@@@@@@@@@oooo@@@@@@@@@@@@@@@@@@@@@@@@@@@@@@@@@@@@@@@@@@@@OOOOOOOO........        ",
"        ........OOOOOOOO@@@@@@@@@@@@@@@@@@@@@@@@@@@@@@@@oooo@@@@@@@@@@@@@@@@@@@@@@@@@@@@@@@@@@@@@@@@@@@@OOOOOOOO........        ",
"        ........OOOOOOOO@@@@@@@@@@@@@@@@@@@@@@@@@@@@@@@@oooo@@@@@@@@@@@@@@@@@@@@@@@@@@@@@@@@@@@@@@@@@@@@OOOOOOOO........        ",
"        ........XXXXOOOOOOOO@@@@@@@@OOOO@@@@@@@@@@@@@@@@@@@@@@@@@@@@OOOO@@@@@@@@OOOO@@@@@@@@OOOOOOOO@@@@OOOOXXXX........        ",
"        ........XXXXOOOOOOOO@@@@@@@@OOOO@@@@@@@@@@@@@@@@@@@@@@@@@@@@OOOO@@@@@@@@OOOO@@@@@@@@OOOOOOOO@@@@OOOOXXXX........        ",
"        ........XXXXOOOOOOOO@@@@@@@@OOOO@@@@@@@@@@@@@@@@@@@@@@@@@@@@OOOO@@@@@@@@OOOO@@@@@@@@OOOOOOOO@@@@OOOOXXXX........        ",
"        ........XXXXOOOOOOOO@@@@@@@@OOOO@@@@@@@@@@@@@@@@@@@@@@@@@@@@OOOO@@@@@@@@OOOO@@@@@@@@OOOOOOOO@@@@OOOOXXXX........        ",
"        ....XXXXXXXXXXXXXXXXXXXXOOOOOOOOOOOO@@@@@@@@OOOO@@@@@@@@OOOOOOOO@@@@OOOOOOOO@@@@@@@@@@@@OOOOXXXXXXXXXXXXXXXX....        ",
"        ....XXXXXXXXXXXXXXXXXXXXOOOOOOOOOOOO@@@@@@@@OOOO@@@@@@@@OOOOOOOO@@@@OOOOOOOO@@@@@@@@@@@@OOOOXXXXXXXXXXXXXXXX....        ",
"        ....XXXXXXXXXXXXXXXXXXXXOOOOOOOOOOOO@@@@@@@@OOOO@@@@@@@@OOOOOOOO@@@@OOOOOOOO@@@@@@@@@@@@OOOOXXXXXXXXXXXXXXXX....        ",
"        ....XXXXXXXXXXXXXXXXXXXXOOOOOOOOOOOO@@@@@@@@OOOO@@@@@@@@OOOOOOOO@@@@OOOOOOOO@@@@@@@@@@@@OOOOXXXXXXXXXXXXXXXX....        ",
"        ....XXXXXXXXXXXXXXXX........OOOOOOOOXXXXOOOOOOOOOOOO@@@@OOOOOOOO@@@@OOOOXXXX@@@@@@@@....OOOOXXXXXXXXXXXXXXXX....        ",
"        ....XXXXXXXXXXXXXXXX........OOOOOOOOXXXXOOOOOOOOOOOO@@@@OOOOOOOO@@@@OOOOXXXX@@@@@@@@....OOOOXXXXXXXXXXXXXXXX....        ",
"        ....XXXXXXXXXXXXXXXX........OOOOOOOOXXXXOOOOOOOOOOOO@@@@OOOOOOOO@@@@OOOOXXXX@@@@@@@@....OOOOXXXXXXXXXXXXXXXX....        ",
"        ....XXXXXXXXXXXXXXXX........OOOOOOOOXXXXOOOOOOOOOOOO@@@@OOOOOOOO@@@@OOOOXXXX@@@@@@@@....OOOOXXXXXXXXXXXXXXXX....        ",
"        ........XXXXXXXX........XXXXXXXXXXXXXXXX....OOOOOOOOXXXXXXXXXXXX........XXXXXXXXXXXXXXXX........XXXXXXXX........        ",
"        ........XXXXXXXX........XXXXXXXXXXXXXXXX....OOOOOOOOXXXXXXXXXXXX........XXXXXXXXXXXXXXXX........XXXXXXXX........        ",
"        ........XXXXXXXX........XXXXXXXXXXXXXXXX....OOOOOOOOXXXXXXXXXXXX........XXXXXXXXXXXXXXXX........XXXXXXXX........        ",
"        ........XXXXXXXX........XXXXXXXXXXXXXXXX....OOOOOOOOXXXXXXXXXXXX........XXXXXXXXXXXXXXXX........XXXXXXXX........        ",
"            ....................XXXXXXXXXXXX........XXXXXXXXXXXXXXXXXXXXXXXX........XXXXXXXXXXXX....................            ",
"            ....................XXXXXXXXXXXX........XXXXXXXXXXXXXXXXXXXXXXXX........XXXXXXXXXXXX....................            ",
"            ....................XXXXXXXXXXXX........XXXXXXXXXXXXXXXXXXXXXXXX........XXXXXXXXXXXX....................            ",
"            ....................XXXXXXXXXXXX........XXXXXXXXXXXXXXXXXXXXXXXX........XXXXXXXXXXXX....................            ",
"                        ................................XXXXXXXXXXXXXXXX................................                        ",
"                        ................................XXXXXXXXXXXXXXXX................................                        ",
"                        ................................XXXXXXXXXXXXXXXX................................                        ",
"                        ................................XXXXXXXXXXXXXXXX................................                        ",
"                                        ................................................                                        ",
"                                        ................................................                                        ",
"                                        ................................................                                        ",
"                                        ................................................                                        ",
"                                                    ........................                                                    ",
"                                                    ........................                                                    ",
"                                                    ........................                                                    ",
"                                                    ........................                                                    ",
"                                                                                                                                ",
"                                                                                                                                ",
"                                                                                                                                ",
"                                                                                                                                "
};
