/* XPM */
static char *_007[] = {
/* columns rows colors chars-per-pixel */
"128 128 10 1 ",
"  c #0E3417",
". c #1B1C28",
"X c #4B4949",
"o c #474A50",
"O c #AEAFB0",
"+ c #AFB0B1",
"@ c #B0B0B1",
"# c #B1B2B3",
"$ c #B3B3B4",
"% c #B7B7B7",
/* pixels */
"%%%%%%%%%%%%%%%%%%%%%%%%%%%%%%%%%%%%%%%%%%%%%%%%%%%%%%%%%%%%%%%%%%%%%%%%%%%%%%%%%%%%%%%%%%%%%%%%%%%%%%%%%%%%%%%%%%%%%%%%%%%%%%%%",
"%%%%%%%%%%%%%%%%%%%%%%%%%%%%%%%%%%%%%%%%%%%%%%%%%%%%%%%%%%%%%%%%%%%%%%%%%%%%%%%%%%%%%%%%%%%%%%%%%%%%%%%%%%%%%%%%%%%%%%%%%%%%%%%%",
"%%%%%%%%%%%%%%%%%%%%%%%%%%%%%%%%%%%%%%%%%%%%%%%%%%%%%%%%%%%%%%%%%%%%%%%%%%%%%%%%%%%%%%%%%%%%%%%%%%%%%%%%%%%%%%%%%%%%%%%%%%%%%%%%",
"%%%%%%%%%%%%%%%%%%%%%%%%%%%%%%%%%%%%%%%%%%%%%%%%%%%%%%%%%%%%%%%%%%%%%%%%%%%%%%%%%%%%%%%%%%%%%%%%%%%%%%%%%%%%%%%%%%%%%%%%%%%%%%%%",
"%%%%%%%%%%%%%%%%%%%%%%%%%%%%%%%%$$$$#####$$$%%%%%%%%%%%%%%%%########%%%%%%%%%%%%%%%%%%%%####%%%%$$$$%%%%%%%%%%%%%%%%%%%%%%%%%%%%",
"%%%%%%%%%%%%%%%%%%%%%%%%%%%%%%%%$$$$######$$%%%%%%%%%%%%%%%%########%%%%%%%%%%%%%%%%%%%%OO##%%%%$$$$%%%%%%%%%%%%%%%%%%%%%%%%%%%%",
"%%%%%%%%%%%%%%%%%%%%%%%%%%%%%%%%$$$$########%%%%%%%%%%%%%%%%########%%%%%%%%%%%%%%%%%%%%OOOO%%%%$$$$%%%%%%%%%%%%%%%%%%%%%%%%%%%%",
"%%%%%%%%%%%%%%%%%%%%%%%%%%%%%%%%$$$$########%%%%%%%%%%%%%%%%########%%%%%%%%%%%%%%%%%%%%OOOO%%%%$$$$%%%%%%%%%%%%%%%%%%%%%%%%%%%%",
"%%%%########%%%%%%%%%%%%%%%%%%%%%%%%%%%%%%%%%%%%%%%%%%%%%%%%%%%%%%%%%%%%%%%%%%%%%%%%%%%%%%%%%%%%%%%%%%%%%%%%####%%%%%%%%%%%%%%%%",
"%%%%########%%%%%%%%%%%%%%%%%%%%%%%%%%%%%%%%%%%%%%%%%%%%%%%%%%%%%%%%%%%%%%%%%%%%%%%%%%%%%%%%%%%%%%%%%%%%%%%%####%%%%%%%%%%%%%%%%",
"%%%%########%%%%%%%%%%%%%%%%%%%%%%%%%%%%%%%%%%%%%%%%%%%%%%%%%%%%%%%%%%%%%%%%%%%%%%%%%%%%%%%%%%%%%%%%%%%%%%%%####%%%%%%%%%%%%%%%%",
"%%%%########%%%%%%%%%%%%%%%%%%%%%%%%%%%%%%%%%%%%%%%%%%%%%%%%%%%%%%%%%%%%%%%%%%%%%%%%%%%%%%%%%%%%%%%%%%%%%%%%####%%%%%%%%%%%%%%%%",
"########++++####$$$$$$$$$$$$%%%%%%%%%%%%%%%%%%%%%%%%%%%%%%%%%%%%%%%%%%%%%%%%%%%%%%%%%%%%%%%%%%%%%%%%########%%%%%%%%$$$$%%%%%%%%",
"########++++####$$$$$$$$$$$$%%%%%%%%%%%%%%%%%%%%%%%%%%%%%%%%%%%%%%%%%%%%%%%%%%%%%%%%%%%%%%%%%%%%%%%%########%%%%%%%%$$$$%%%%%%%%",
"########++++####$$$$$$$$$$$$%%%%%%%%%%%%%%%%%%%%%%%%%%%%%%%%%%%%%%%%%%%%%%%%%%%%%%%%%%%%%%%%%%%%%%%%########%%%%%%%%$$$$%%%%%%%%",
"########++++####$$$$$$$$$$$$%%%%%%%%%%%%%%%%%%%%%%%%%%%%%%%%%%%%%%%%%%%%%%%%%%%%%%%%%%%%%%%%%%%%%%%%########%%%%%%%%$$$$%%%%%%%%",
"OOOO%%%%####$$$$$$$$$$$$%%%%##$$%%%%%%%%%%%%%%%%%%%%%%%%%%%%%%%%%%%%%%%%%%%%%%%%%%%%%%%%%%%%%%%%%%%%%%%%%%%%%%%%%%%%####%%%%%%%%",
"OOOO%%%%####$$$$$$$$$$$$%%%%##$$%%%%%%%%%%%%%%%%%%%%%%%%%%%%%%%%%%%%%%%%%%%%%%%%%%%%%%%%%%%%%%%%%%%%%%%%%%%%%%%%%%%%####%%%%%%%%",
"OOOO%%%%####$$$$$$$$$$$$%%%%###$%%%%%%%%%%%%%%%%%%%%%%%%%%%%%%%%%%%%%%%%%%%%%%%%%%%%%%%%%%%%%%%%%%%%%%%%%%%%%%%%%%%%####%%%%%%%%",
"OOOO%%%%####$$$$$$$$$$$$%%%%####%%%%%%%%%%%%%%%%%%%%%%%%%%%%%%%%%%%%%%%%%%%%%%%%%%%%%%%%%%%%%%%%%%%%%%%%%%%%%%%%%%%%####%%%%%%%%",
"$$$$%%%%%%%%%%%%%%%%%%%%%%%%%%%%%%%%%$$$%%%%........................................%%%%%%%%%%%%%%%%%%%%%%%%%%%%%%%%%%%%%%%%%%%%",
"$$$$%%%%%%%%%%%%%%%%%%%%%%%%%%%%%%%%%%$$%%%%........................................%%%%%%%%%%%%%%%%%%%%%%%%%%%%%%%%%%%%%%%%%%%%",
"$$$$%%%%%%%%%%%%%%%%%%%%%%%%%%%%%%%%%%%%%%%%........................................%%%%%%%%%%%%%%%%%%%%%%%%%%%%%%%%%%%%%%%%%%%%",
"$$$$%%%%%%%%%%%%%%%%%%%%%%%%%%%%%%%%%%%%%%%%........................................%%%%%%%%%%%%%%%%%%%%%%%%%%%%%%%%%%%%%%%%%%%%",
"%%%%$$$$%%%%%%%%%%%%%%%%%%%%%%%$....................XXXXXXXXXXXXXXXXXXXXXXXX....................%%%%%%%%%%%%%%%%%%%%%%%%%%%%$$$$",
"%%%%$$$$%%%%%%%%%%%%%%%%%%%%%%$$....................XXXXXXXXXXXXXXXXXXXXXXXX....................%%%%%%%%%%%%%%%%%%%%%%%%%%%%$$$$",
"%%%%$$$$%%%%%%%%%%%%%%%%%%%%%%%%....................XXXXXXXXXXXXXXXXXXXXXXXX....................%%%%%%%%%%%%%%%%%%%%%%%%%%%%$$$$",
"%%%%$$$$%%%%%%%%%%%%%%%%%%%%%%%%....................XXXXXXXXXXXXXXXXXXXXXXXX....................%%%%%%%%%%%%%%%%%%%%%%%%%%%%$$$$",
"####%%%%%%%%%%%%%%%%%%%%%%%%............XXXXXXXXXXXX........................XXXXXXXXXXXX............%%%%%%%%%%%%%%%%%%%%%%%%$$$$",
"####%%%%%%%%%%%%%%%%%%%%%%%%............XXXXXXXXXXXX........................XXXXXXXXXXXX............%%%%%%%%%%%%%%%%%%%%%%%%$$$$",
"####%%%%%%%%%%%%%%%%%%%%%%%%............XXXXXXXXXXXX........................XXXXXXXXXXXX............%%%%%%%%%%%%%%%%%%%%%%%%$$$$",
"####%%%%%%%%%%%%%%%%%%%%%%%%............XXXXXXXXXXXX........................XXXXXXXXXXXX............%%%%%%%%%%%%%%%%%%%%%%%%$$$$",
"####%%%%%%%%%%%%$$$$%%%%........XXXXXXXXXXXX............                ............XXXXXXXXXXXX........%%%%%%%%%%%%%%%%$$$$$$$$",
"####%%%%%%%%%%%%$$$$%%%%........XXXXXXXXXXXX............                ............XXXXXXXXXXXX........%%%%%%%%%%%%%%%%$$$$$$$$",
"####%%%%%%%%%%%%$$$$%%%%........XXXXXXXXXXXX............                ............XXXXXXXXXXXX........%%%%%%%%%%%%%%%%$$$$$%$$",
"####%%%%%%%%%%%%$$$$%%%%........XXXXXXXXXXXX............                ............XXXXXXXXXXXX........%%%%%%%%%%%%%%%%$$$$%%$$",
"$$$$%%%%########$$$$####....XXXXXXXX........                                        ........XXXXXXXX....%%%%%%%%%%%%%%%%%%%%%%%%",
"$$$$%%%%########$$$$####....XXXXXXXX........                                        ........XXXXXXXX....%%%%%%%%%%%%%%%%%%%%%%%%",
"$$$$%%%%########$$$$####....XXXXXXXX........                                        ........XXXXXXXX....%%%%%%%%%%%%%%%%%%%%%%%%",
"$$$$%%%%########$$$$####....XXXXXXXX........                                        ........XXXXXXXX....%%%%%%%%%%%%%%%%%%%%%%%%",
"$$$$$$$$%%%%$$$$%%%%$$$$....XXXX........                                                ........XXXX....%%%%%%%%%%%%%%%%###$%%%%",
"$$$$$$$$%%%%$$$$%%%%$$$$....XXXX........                                                ........XXXX....%%%%%%%%%%%%%%%%##$$%%%%",
"$$$$$$$$%%%%$$$$%%%%$$$$....XXXX........                                                ........XXXX....%%%%%%%%%%%%%%%%####%%%%",
"$$$$$$$$%%%%$$$$%%%%$$$$....XXXX........                                                ........XXXX....%%%%%%%%%%%%%%%%####%%%%",
"%%%%%%%%%%%%%%%%%%%%%%%%............                                                        ............%%%%%%%%%%%%%%%%%%%%%%%%",
"%%%%%%%%%%%%%%%%%%%%%%%%............                                                        ............%%%%%%%%%%%%%%%%%%%%%%%%",
"%%%%%%%%%%%%%%%%%%%%%%%%............                                                        ............%%%%%%%%%%%%%%%%%%%%%%%%",
"%%%%%%%%%%%%%%%%%%%%%%%%............                                                        ............%%%%%%%%%%%%%%%%%%%%%%%%",
"%%%%%%%%%%%%%%%%%%%%%%%%................                                                ................%%%%%%%%%%%%%%%%%%%%%%%%",
"%%%%%%%%%%%%%%%%%%%%%%%%................                                                ................%%%%%%%%%%%%%%%%%%%%%%%%",
"%%%%%%%%%%%%%%%%%%%%%%%%................                                                ................%%%%$$%%%%%%%%%%%%%%%%%%",
"%%%%%%%%%%%%%%%%%%%%%%%%................                                                ................%%%%$%%%%%%%%%%%%%%%%%%%",
"%%%%%%%%%%%%%%%%%%%%........XXXXXXXX........................................................XXXXXXXX........%%%%$$$$####%%%%%%%%",
"%%%%%%%%%%%%%%%%%%%%........XXXXXXXX........................................................XXXXXXXX........%%%%$$$$####%%%%%%%%",
"%%%%%%%%%%%%%%%%%%%%........XXXXXXXX........................................................XXXXXXXX........%%%%$$$$####%%%%%%%%",
"%%%%%%%%%%%%%%%%%%%%........XXXXXXXX........................................................XXXXXXXX........%%%%$$$$####%%%%%%%%",
"%%%%%%%%%%%%%%%%........XXXXXXXXXXXXXXXXXXXXXXXXXXXXXXXXXXXXXXXXXXXXXXXXXXXXXXXXXXXXXXXXXXXXXXXXXXXXXXXX........%%%%%%%%%%%%%%%%",
"%%%%%%%%%%%%%%%%........XXXXXXXXXXXXXXXXXXXXXXXXXXXXXXXXXXXXXXXXXXXXXXXXXXXXXXXXXXXXXXXXXXXXXXXXXXXXXXXX........%%%%%%%%%%%%%%%%",
"%%%%%%%%%%%%%%%%........XXXXXXXXXXXXXXXXXXXXXXXXXXXXXXXXXXXXXXXXXXXXXXXXXXXXXXXXXXXXXXXXXXXXXXXXXXXXXXXX........%%%%%%%%%%%%%%%%",
"%%%%%%%%%%%%%%%%........XXXXXXXXXXXXXXXXXXXXXXXXXXXXXXXXXXXXXXXXXXXXXXXXXXXXXXXXXXXXXXXXXXXXXXXXXXXXXXXX........%%%%%%%%%%%%%%%%",
"%%%%%%%%%%%%%%%%....XXXXXXXXXXXXXXXXXXXXXXXXXXXXXXXXXXXXXXXXXXXXXXXXXXXXXXXXXXXXXXXXXXXXXXXXXXXXXXXXXXXXXXXX....%%%%%%%%%%%%%%%%",
"%%%%%%%%%%%%%%%%....XXXXXXXXXXXXXXXXXXXXXXXXXXXXXXXXXXXXXXXXXXXXXXXXXXXXXXXXXXXXXXXXXXXXXXXXXXXXXXXXXXXXXXXX....%%%%%%%%%%%%%%%%",
"%%%%%%%%%%%%%%%%....XXXXXXXXXXXXXXXXXXXXXXXXXXXXXXXXXXXXXXXXXXXXXXXXXXXXXXXXXXXXXXXXXXXXXXXXXXXXXXXXXXXXXXXX....%%%%%%%%%%%%%%%%",
"%%%%%%%%%%%%%%%%....XXXXXXXXXXXXXXXXXXXXXXXXXXXXXXXXXXXXXXXXXXXXXXXXXXXXXXXXXXXXXXXXXXXXXXXXXXXXXXXXXXXXXXXX....%%%%%%%%%%%%%%%%",
"%%%%%%%%%%%%........XXXXXXXXXXXXXXXXXXXXXXXXXXXXXXXXXXXXXXXXXXXXXXXXXXXXXXXXXXXXXXXXXXXXXXXXXXXXXXXXXXXXXXXX........%%%%%%%%%%%%",
"%%%%%%%%%%%%........XXXXXXXXXXXXXXXXXXXXXXXXXXXXXXXXXXXXXXXXXXXXXXXXXXXXXXXXXXXXXXXXXXXXXXXXXXXXXXXXXXXXXXXX........%%%%%%%%%%%%",
"%%%%%%%%%%%%........XXXXXXXXXXXXXXXXXXXXXXXXXXXXXXXXXXXXXXXXXXXXXXXXXXXXXXXXXXXXXXXXXXXXXXXXXXXXXXXXXXXXXXXX........%%%%%%%%%%%%",
"%%%%%%%%%%%%........XXXXXXXXXXXXXXXXXXXXXXXXXXXXXXXXXXXXXXXXXXXXXXXXXXXXXXXXXXXXXXXXXXXXXXXXXXXXXXXXXXXXXXXX........%%%%%%%%%%%%",
"%%%%%%%%%%%%....XXXXXXXXXXXXXXXXXXXXXXXXXXXXXXXXXXXXXXXXXXXXXXXXXXXXXXXXXXXXXXXXXXXXXXXXXXXXXXXXXXXXXXXXXXXXXXXX....%%%%%%%%%%%%",
"%%%%%%%%%%%%....XXXXXXXXXXXXXXXXXXXXXXXXXXXXXXXXXXXXXXXXXXXXXXXXXXXXXXXXXXXXXXXXXXXXXXXXXXXXXXXXXXXXXXXXXXXXXXXX....%%%%%%%%%%%%",
"%%%%%%%%%%%%....XXXXXXXXXXXXXXXXXXXXXXXXXXXXXXXXXXXXXXXXXXXXXXXXXXXXXXXXXXXXXXXXXXXXXXXXXXXXXXXXXXXXXXXXXXXXXXXX....%%%%%%%%%%%%",
"%%%%%%%%%%%%....XXXXXXXXXXXXXXXXXXXXXXXXXXXXXXXXXXXXXXXXXXXXXXXXXXXXXXXXXXXXXXXXXXXXXXXXXXXXXXXXXXXXXXXXXXXXXXXX....%%%%%%%%%%%%",
"%%%%%%%%%%%%....XXXXXXXXXXXXXXXXXXXXXXXXXXXXXXXXXXXXXXXXXXXXXXXXXXXXXXXXXXXXXXXXXXXXXXXXXXXXXXXXXXXXXXXXXXXXXXXX....%%%%%%%%%%%%",
"%%%%%%%%%%%%....XXXXXXXXXXXXXXXXXXXXXXXXXXXXXXXXXXXXXXXXXXXXXXXXXXXXXXXXXXXXXXXXXXXXXXXXXXXXXXXXXXXXXXXXXXXXXXXX....%%%%%%%%%%%%",
"%%%%%%%%%%%%....XXXXXXXXXXXXXXXXXXXXXXXXXXXXXXXXXXXXXXXXXXXXXXXXXXXXXXXXXXXXXXXXXXXXXXXXXXXXXXXXXXXXXXXXXXXXXXXX....%%%%%%%%%%%%",
"%%%%%%%%%%%%....XXXXXXXXXXXXXXXXXXXXXXXXXXXXXXXXXXXXXXXXXXXXXXXXXXXXXXXXXXXXXXXXXXXXXXXXXXXXXXXXXXXXXXXXXXXXXXXX....%%%%%%%%%%%%",
"%%%%%%%%%%%%....XXXXXXXXXXXXXXXXXXXXXXXXXXXXXXXXXXXXXXXXXXXXXXXXXXXXXXXXXXXXXXXXXXXXXXXXXXXXXXXXXXXXXXXXXXXXXXXX....$$$$%%%%%%%%",
"%%%%%%%%%%%%....XXXXXXXXXXXXXXXXXXXXXXXXXXXXXXXXXXXXXXXXXXXXXXXXXXXXXXXXXXXXXXXXXXXXXXXXXXXXXXXXXXXXXXXXXXXXXXXX....$$$$%%%%%%%%",
"%%%%%%%%%%%%....XXXXXXXXXXXXXXXXXXXXXXXXXXXXXXXXXXXXXXXXXXXXXXXXXXXXXXXXXXXXXXXXXXXXXXXXXXXXXXXXXXXXXXXXXXXXXXXX....$$$$%%%%%%%%",
"%%%%%%%%%%%%....XXXXXXXXXXXXXXXXXXXXXXXXXXXXXXXXXXXXXXXXXXXXXXXXXXXXXXXXXXXXXXXXXXXXXXXXXXXXXXXXXXXXXXXXXXXXXXXX....$$$$%%%%%%%%",
"$$$$%%%%%%%%........XXXXXXXXXXXXXXXXXXXXXXXXXXXXXXXXXXXXXXXXXXXXXXXXXXXXXXXXXXXXXXXXXXXXXXXXXXXXXXXXXXXXXXXX........$$$$####%%%%",
"$$$$%%%%%%%%........XXXXXXXXXXXXXXXXXXXXXXXXXXXXXXXXXXXXXXXXXXXXXXXXXXXXXXXXXXXXXXXXXXXXXXXXXXXXXXXXXXXXXXXX........$$$$####%%%%",
"$$$$%%%%%%%%........XXXXXXXXXXXXXXXXXXXXXXXXXXXXXXXXXXXXXXXXXXXXXXXXXXXXXXXXXXXXXXXXXXXXXXXXXXXXXXXXXXXXXXXX........$$$$####%%%%",
"$$$$%%%%%%%%........XXXXXXXXXXXXXXXXXXXXXXXXXXXXXXXXXXXXXXXXXXXXXXXXXXXXXXXXXXXXXXXXXXXXXXXXXXXXXXXXXXXXXXXX........$$$$####%%%%",
"$$$$%%%%%%%%............XXXXXXXXXXXXXXXXXXXXXXXXXXXXXXXXXXXXXXXXXXXXXXXXXXXXXXXXXXXXXXXXXXXXXXXXXXXXXXXX............%%%%%%%%%%%%",
"$$$$%%%%%%%%............XXXXXXXXXXXXXXXXXXXXXXXXXXXXXXXXXXXXXXXXXXXXXXXXXXXXXXXXXXXXXXXXXXXXXXXXXXXXXXXX............%%%%%%%%%%%%",
"$$$$%%%%%%%%............XXXXXXXXXXXXXXXXXXXXXXXXXXXXXXXXXXXXXXXXXXXXXXXXXXXXXXXXXXXXXXXXXXXXXXXXXXXXXXXX............%%%%%%%%%%%%",
"$$$$%%%%%%%%............XXXXXXXXXXXXXXXXXXXXXXXXXXXXXXXXXXXXXXXXXXXXXXXXXXXXXXXXXXXXXXXXXXXXXXXXXXXXXXXX............%%%%%%%%%%%%",
"%%%%%%%%............................XXXXXXXXXXXXXXXXXXXXXXXXXXXXXXXXXXXXXXXXXXXXXXXXXXXXXXXX............................%%%%%%%%",
"%%%%%%%%............................XXXXXXXXXXXXXXXXXXXXXXXXXXXXXXXXXXXXXXXXXXXXXXXXXXXXXXXX............................%%%%%%%%",
"%%%%%%%%............................XXXXXXXXXXXXXXXXXXXXXXXXXXXXXXXXXXXXXXXXXXXXXXXXXXXXXXXX............................%%%%%%%%",
"%%%%%%%%............................XXXXXXXXXXXXXXXXXXXXXXXXXXXXXXXXXXXXXXXXXXXXXXXXXXXXXXXX............................%%%%%%%%",
"%%%%%%%%........oooooooooooooooo....................XXXXXXXXXXXXXXXXXXXXXXXX....................oooooooooooooooo........%%%%####",
"%%%%%%%%........oooooooooooooooo....................XXXXXXXXXXXXXXXXXXXXXXXX....................oooooooooooooooo........%%%%####",
"%%%%%%%%........oooooooooooooooo....................XXXXXXXXXXXXXXXXXXXXXXXX....................oooooooooooooooo........%%%%####",
"%%%%%%%%........oooooooooooooooo....................XXXXXXXXXXXXXXXXXXXXXXXX....................oooooooooooooooo........%%%%####",
"%%%%%%%%....oooooooooooooooooooo....oooooooo........................................oooooooo....oooooooooooooooooooo....%%%%%%%%",
"%%%%%%%%....oooooooooooooooooooo....oooooooo........................................oooooooo....oooooooooooooooooooo....%%%%%%%%",
"%%%%%%%%....oooooooooooooooooooo....oooooooo........................................oooooooo....oooooooooooooooooooo....%%%%%%%%",
"%%%%%%%%....oooooooooooooooooooo....oooooooo........................................oooooooo....oooooooooooooooooooo....%%%%%%%%",
"%%%%%%%%....oooooooooooooooo........oooooooooooo........oooooooooooooooo........oooooooooooo........oooooooooooooooo....$$$$%%$$",
"%%%%%%%%....oooooooooooooooo........oooooooooooo........oooooooooooooooo........oooooooooooo........oooooooooooooooo....$$$$%%$%",
"%%%%%%%%....oooooooooooooooo........oooooooooooo........oooooooooooooooo........oooooooooooo........oooooooooooooooo....$$$$%%%%",
"%%%%%%%%....oooooooooooooooo........oooooooooooo........oooooooooooooooo........oooooooooooo........oooooooooooooooo....$$$$%%%%",
"%%%%%%%%........oooooooo........oooooooooooooooo........oooooooooooooooo........oooooooooooooooo........oooooooo........%%%%%%%%",
"%%%%%%%%........oooooooo........oooooooooooooooo........oooooooooooooooo........oooooooooooooooo........oooooooo........%%%%%%%%",
"%%%%%%%%........oooooooo........oooooooooooooooo........oooooooooooooooo........oooooooooooooooo........oooooooo........%%%%%%%%",
"%%%%%%%%........oooooooo........oooooooooooooooo........oooooooooooooooo........oooooooooooooooo........oooooooo........%%%%%%%%",
"%%%%%%%%%%%%....................oooooooooooo........oooooooooooooooooooooooo........oooooooooooo....................%%%%%%%%%%%%",
"%%%%%%%%%%%%....................oooooooooooo........oooooooooooooooooooooooo........oooooooooooo....................%%%%%%%%%%%%",
"%%%%%%%%%%%%....................oooooooooooo........oooooooooooooooooooooooo........oooooooooooo....................%%%%%%%%%%%%",
"%%%%%%%%%%%%....................oooooooooooo........oooooooooooooooooooooooo........oooooooooooo....................%%%%%%%%%%%%",
"%%%%%%%%%%%%%%%%%%%%%%%%................................oooooooooooooooo................................%%%%%%%%%%%%####%%%%%%%%",
"%%%%%%%%%%%%%%%%%%%%%%%%................................oooooooooooooooo................................%%%%%%%%%%%%####%%%%%%%%",
"%%%%%%%%%%%%%%%%%%%%%%%%................................oooooooooooooooo................................%%%%%%%%%%%%####%%%%%%%%",
"%%%%%%%%%%%%%%%%%%%%%%%%................................oooooooooooooooo................................%%%%%%%%%%%%####%%%%%%%%",
"%%%%%%%%%%%%%%%%%%%%%%%%%%%%%%%%%%%%%%%%................................................####%%%%%%%%%%%%$%%%%%%%$$$$####%%%%%%%%",
"%%%%%%%%%%%%%%%%%%%%%%%%%%%%%%%%%%%%%%%%................................................OO##%%%%%%%%%%%%$$%%%%%%$$$$####%%%%%%%%",
"%%%%%%%%%%%%%%%%%$%%%%%%%%%%%%%%%%%%%%%%................................................OOOO%%%%%%%%%%%%$$$$%%%%$$$$####%%%%%%%%",
"%%%%%%%%%%%%%%%%$$%%%%%%%%%%%%%%%%%%%%%%................................................OOOO%%%%%%%%%%%%$$$$%%%%$$$$####%%%%%%%%",
"%%%%%%%%%%%%%%%%%%%%%%%%%%%%%%%%%%%%%%%%%%%%%%%%%%%%........................####%%%%%%%%%%%%$$$$%%%%$$$$####$$$$%%%%%%%%%%%%%%%%",
"%%%%%%%%%%%%%%%%%%%%%%%%%%%%%%%%%%%%%%%%%%%%%%%%%%%%........................####%%%%%%%%%%%%$$$$%%%%$$$$####$$$$%%%%%%%%%%%%%%%%",
"%%%%%%%%%%%%%%%%%%%%%%%%%%%%%%%%%%%%%%%%%%%%%%%%%%%%........................####$$%%%%%%%%%%$$$$%%%%$$$$####$$$$%%%%%%%%%%%%%%%%",
"%%%%%%%%%%%%%%%%%%%%%%%%%%%%%%%%%%%%%%%%%%%%%%%%%%%%........................####$%%%%%%%%%%%$$$$%%%%$$$$####$$$$%%%%%%%%%%%%%%%%",
"%%%%%%%%%%%%##$$$$$$####%%%%%%%%%%%%%%%%%%%%%%%%%%%%%%%%%%%%%%%%%%%%%%%%%%%%%%%%%%%%%%%%%%%%%%%%%%%%%%%%%%%%%%%%%%%%%%%%%%%%%%%%",
"%%%%%%%%%%%%##$$$$$$####%%%%%%%%%%%%%%%%%%%%%%%%%%%%%%%%%%%%%%%%%%%%%%%%%%%%%%%%%%%%%%%%%%%%%%%%%%%%%%%%%%%%%%%%%%%%%%%%%%%%%%%%",
"%%%%%%%%%%%%###$$$$$####%%%%%%%%%%%%%%%%%%%%%%%%%%%%%%%%%%%%%%%%%%%%%%%%%%%%%%%%%%%%%%%%%%%%%%%%%%%%%%%%%%%%%%%%%%%%%%%%%%%%%%%%",
"%%%%%%%%%%%%####$$$$####%%%%%%%%%%%%%%%%%%%%%%%%%%%%%%%%%%%%%%%%%%%%%%%%%%%%%%%%%%%%%%%%%%%%%%%%%%%%%%%%%%%%%%%%%%%%%%%%%%%%%%%%"
};
