/* XPM */
static char *_004[] = {
/* columns rows colors chars-per-pixel */
"128 128 9 1 ",
"  c None",
". c #1C0505",
"X c #200000",
"o c #231818",
"O c #451919",
"+ c #4C4343",
"@ c #913000",
"# c #D57B47",
"$ c #F1BD61",
/* pixels */
"                                                                                                                                ",
"                                                                                                                                ",
"                                                                                                                                ",
"                                                                                                                                ",
"                                                                                                                                ",
"                                                                                                                                ",
"                                                                                                                                ",
"                                                                                                                                ",
"                    oooooooooooooooooooooooooooooooooooooooooooooooooooooooooooooooooooooooooooooooooooooooo                    ",
"                    oooooooooooooooooooooooooooooooooooooooooooooooooooooooooooooooooooooooooooooooooooooooo                    ",
"                    oooooooooooooooooooooooooooooooooooooooooooooooooooooooooooooooooooooooooooooooooooooooo                    ",
"                    oooooooooooooooooooooooooooooooooooooooooooooooooooooooooooooooooooooooooooooooooooooooo                    ",
"                oooo++++++++++++++++++++++++++++++++++++++++++++++++++++++++++++++++++++++++++++++++++++++++oooo                ",
"                oooo++++++++++++++++++++++++++++++++++++++++++++++++++++++++++++++++++++++++++++++++++++++++oooo                ",
"                oooo++++++++++++++++++++++++++++++++++++++++++++++++++++++++++++++++++++++++++++++++++++++++oooo                ",
"                oooo++++++++++++++++++++++++++++++++++++++++++++++++++++++++++++++++++++++++++++++++++++++++oooo                ",
"            oooo++++++++++++++++++++++++++++++++++++++++++++++++++++++++++++++++++++++++++++++++++++++++++++++++oooo            ",
"            oooo++++++++++++++++++++++++++++++++++++++++++++++++++++++++++++++++++++++++++++++++++++++++++++++++oooo            ",
"            oooo++++++++++++++++++++++++++++++++++++++++++++++++++++++++++++++++++++++++++++++++++++++++++++++++oooo            ",
"            oooo++++++++++++++++++++++++++++++++++++++++++++++++++++++++++++++++++++++++++++++++++++++++++++++++oooo            ",
"        oooo++++++++++++++++++++++++++++++++++++++++++++++++++++++++++++++++++++++++++++++++++++++++++++++++++++++++oooo        ",
"        oooo++++++++++++++++++++++++++++++++++++++++++++++++++++++++++++++++++++++++++++++++++++++++++++++++++++++++oooo        ",
"        oooo++++++++++++++++++++++++++++++++++++++++++++++++++++++++++++++++++++++++++++++++++++++++++++++++++++++++oooo        ",
"        oooo++++++++++++++++++++++++++++++++++++++++++++++++++++++++++++++++++++++++++++++++++++++++++++++++++++++++oooo        ",
"        oooooooooooooooooooooooooooooooooooooooooooooooooooooooooooooooooooooooooooooooooooooooooooooooooooooooooooooooo        ",
"        oooooooooooooooooooooooooooooooooooooooooooooooooooooooooooooooooooooooooooooooooooooooooooooooooooooooooooooooo        ",
"        oooooooooooooooooooooooooooooooooooooooooooooooooooooooooooooooooooooooooooooooooooooooooooooooooooooooooooooooo        ",
"        oooooooooooooooooooooooooooooooooooooooooooooooooooooooooooooooooooooooooooooooooooooooooooooooooooooooooooooooo        ",
"        oooo++++++++++++++++++++++++++++++++++++++++++++++++++++++++++++++++++++++++++++++++++++++++++++++++++++++++oooo        ",
"        oooo++++++++++++++++++++++++++++++++++++++++++++++++++++++++++++++++++++++++++++++++++++++++++++++++++++++++oooo        ",
"        oooo++++++++++++++++++++++++++++++++++++++++++++++++++++++++++++++++++++++++++++++++++++++++++++++++++++++++oooo        ",
"        oooo++++++++++++++++++++++++++++++++++++++++++++++++++++++++++++++++++++++++++++++++++++++++++++++++++++++++oooo        ",
"        oooo++++++++++++++++++++++++++++++++++++++++++++++++++++++++++++++++++++++++++++++++++++++++++++++++++++++++oooo        ",
"        oooo++++++++++++++++++++++++++++++++++++++++++++++++++++++++++++++++++++++++++++++++++++++++++++++++++++++++oooo        ",
"        oooo++++++++++++++++++++++++++++++++++++++++++++++++++++++++++++++++++++++++++++++++++++++++++++++++++++++++oooo        ",
"        oooo++++++++++++++++++++++++++++++++++++++++++++++++++++++++++++++++++++++++++++++++++++++++++++++++++++++++oooo        ",
"    ........................................................................................................................    ",
"    ........................................................................................................................    ",
"    ........................................................................................................................    ",
"    ........................................................................................................................    ",
"    ........................................................................................................................    ",
"    ........................................................................................................................    ",
"    ........................................................................................................................    ",
"    ........................................................................................................................    ",
"        oooo++++++++........++++++++++++++++++++++++++++++++++++++++++++++++++++++++++++++++++++++++........++++++++oooo        ",
"        oooo++++++++........++++++++++++++++++++++++++++++++++++++++++++++++++++++++++++++++++++++++........++++++++oooo        ",
"        oooo++++++++........++++++++++++++++++++++++++++++++++++++++++++++++++++++++++++++++++++++++........++++++++oooo        ",
"        oooo++++++++........++++++++++++++++++++++++++++++++++++++++++++++++++++++++++++++++++++++++........++++++++oooo        ",
"        oooo++++++++........++++++++++++++++++++++++++++++++++++++++++++++++++++++++++++++++++++++++........++++++++oooo        ",
"        oooo++++++++........++++++++++++++++++++++++++++++++++++++++++++++++++++++++++++++++++++++++........++++++++oooo        ",
"        oooo++++++++........++++++++++++++++++++++++++++++++++++++++++++++++++++++++++++++++++++++++........++++++++oooo        ",
"        oooo++++++++........++++++++++++++++++++++++++++++++++++++++++++++++++++++++++++++++++++++++........++++++++oooo        ",
"        oooo++++++++++++....++++++++++++++++++++++++++++++++++++++++++++++++++++++++++++++++++++++++....++++++++++++oooo        ",
"        oooo++++++++++++....++++++++++++++++++++++++++++++++++++++++++++++++++++++++++++++++++++++++....++++++++++++oooo        ",
"        oooo++++++++++++....++++++++++++++++++++++++++++++++++++++++++++++++++++++++++++++++++++++++....++++++++++++oooo        ",
"        oooo++++++++++++....++++++++++++++++++++++++++++++++++++++++++++++++++++++++++++++++++++++++....++++++++++++oooo        ",
"        oooo++++++++++++++++++++oooooooooooooooooooooooooooooooooooooooooooooooooooooooooooooooo++++++++++++++++++++oooo        ",
"        oooo++++++++++++++++++++oooooooooooooooooooooooooooooooooooooooooooooooooooooooooooooooo++++++++++++++++++++oooo        ",
"        oooo++++++++++++++++++++oooooooooooooooooooooooooooooooooooooooooooooooooooooooooooooooo++++++++++++++++++++oooo        ",
"        oooo++++++++++++++++++++oooooooooooooooooooooooooooooooooooooooooooooooooooooooooooooooo++++++++++++++++++++oooo        ",
"        oooo++++++++++++++++oooooooo++++++++oooo++++++++++++oooooooo++++++++++++oooo++++++++oooooooo++++++++++++++++oooo        ",
"        oooo++++++++++++++++oooooooo++++++++oooo++++++++++++oooooooo++++++++++++oooo++++++++oooooooo++++++++++++++++oooo        ",
"        oooo++++++++++++++++oooooooo++++++++oooo++++++++++++oooooooo++++++++++++oooo++++++++oooooooo++++++++++++++++oooo        ",
"        oooo++++++++++++++++oooooooo++++++++oooo++++++++++++oooooooo++++++++++++oooo++++++++oooooooo++++++++++++++++oooo        ",
"        oooo++++++++++++oooooooo++++++++oooooooooooooooooooooooooooooooooooooooooooooooo++++++++oooooooo++++++++++++oooo        ",
"        oooo++++++++++++oooooooo++++++++oooooooooooooooooooooooooooooooooooooooooooooooo++++++++oooooooo++++++++++++oooo        ",
"        oooo++++++++++++oooooooo++++++++oooooooooooooooooooooooooooooooooooooooooooooooo++++++++oooooooo++++++++++++oooo        ",
"        oooo++++++++++++oooooooo++++++++oooooooooooooooooooooooooooooooooooooooooooooooo++++++++oooooooo++++++++++++oooo        ",
"        oooo++++++++oooooooo++++oooooooooooo@@@@@@@@@@@@@@@@@@@@@@@@@@@@@@@@@@@@@@@@oooooooooooo++++oooooooo++++++++oooo        ",
"        oooo++++++++oooooooo++++oooooooooooo@@@@@@@@@@@@@@@@@@@@@@@@@@@@@@@@@@@@@@@@oooooooooooo++++oooooooo++++++++oooo        ",
"        oooo++++++++oooooooo++++oooooooooooo@@@@@@@@@@@@@@@@@@@@@@@@@@@@@@@@@@@@@@@@oooooooooooo++++oooooooo++++++++oooo        ",
"        oooo++++++++oooooooo++++oooooooooooo@@@@@@@@@@@@@@@@@@@@@@@@@@@@@@@@@@@@@@@@oooooooooooo++++oooooooo++++++++oooo        ",
"        oooo++++++++oooo++++++++oooo@@@@@@@@@@@@@@@@@@@@@@@@@@@@@@@@@@@@@@@@@@@@@@@@@@@@@@@@oooo++++++++oooo++++++++oooo        ",
"        oooo++++++++oooo++++++++oooo@@@@@@@@@@@@@@@@@@@@@@@@@@@@@@@@@@@@@@@@@@@@@@@@@@@@@@@@oooo++++++++oooo++++++++oooo        ",
"        oooo++++++++oooo++++++++oooo@@@@@@@@@@@@@@@@@@@@@@@@@@@@@@@@@@@@@@@@@@@@@@@@@@@@@@@@oooo++++++++oooo++++++++oooo        ",
"        oooo++++++++oooo++++++++oooo@@@@@@@@@@@@@@@@@@@@@@@@@@@@@@@@@@@@@@@@@@@@@@@@@@@@@@@@oooo++++++++oooo++++++++oooo        ",
"        oooo++++++++oooo++++oooooooo@@@@@@@@@@@@@@@@@@@@@@@@@@@@$$$$@@@@@@@@@@@@@@@@@@@@$$$$oooooooo++++oooo++++++++oooo        ",
"        oooo++++++++oooo++++oooooooo@@@@@@@@@@@@@@@@@@@@@@@@@@@@$$$$@@@@@@@@@@@@@@@@@@@@$$$$oooooooo++++oooo++++++++oooo        ",
"        oooo++++++++oooo++++oooooooo@@@@@@@@@@@@@@@@@@@@@@@@@@@@$$$$@@@@@@@@@@@@@@@@@@@@$$$$oooooooo++++oooo++++++++oooo        ",
"        oooo++++++++oooo++++oooooooo@@@@@@@@@@@@@@@@@@@@@@@@@@@@$$$$@@@@@@@@@@@@@@@@@@@@$$$$oooooooo++++oooo++++++++oooo        ",
"        oooo++++++++oooooooooooo@@@@@@@@$$$$@@@@@@@@$$$$$$$$@@@@$$$$$$$$@@@@@@@@@@@@$$$$$$$$@@@@oooooooo$$$$$$$$++++oooo        ",
"        oooo++++++++oooooooooooo@@@@@@@@$$$$@@@@@@@@$$$$$$$$@@@@$$$$$$$$@@@@@@@@@@@@$$$$$$$$@@@@oooooooo$$$$$$$$++++oooo        ",
"        oooo++++++++oooooooooooo@@@@@@@@$$$$@@@@@@@@$$$$$$$$@@@@$$$$$$$$@@@@@@@@@@@@$$$$$$$$@@@@oooooooo$$$$$$$$++++oooo        ",
"        oooo++++++++oooooooooooo@@@@@@@@$$$$@@@@@@@@$$$$$$$$@@@@$$$$$$$$@@@@@@@@@@@@$$$$$$$$@@@@oooooooo$$$$$$$$++++oooo        ",
"        oooo++++++++$$$$$$$$oooo@@@@@@@@$$$$@@@@@@@@$$$$$$$$@@@@@@@@$$$$@@@@@@@@@@@@@@@@@@@@@@@@oooo++++oooo++++++++oooo        ",
"        oooo++++++++$$$$$$$$oooo@@@@@@@@$$$$@@@@@@@@$$$$$$$$@@@@@@@@$$$$@@@@@@@@@@@@@@@@@@@@@@@@oooo++++oooo++++++++oooo        ",
"        oooo++++++++$$$$$$$$oooo@@@@@@@@$$$$@@@@@@@@$$$$$$$$@@@@@@@@$$$$@@@@@@@@@@@@@@@@@@@@@@@@oooo++++oooo++++++++oooo        ",
"        oooo++++++++$$$$$$$$oooo@@@@@@@@$$$$@@@@@@@@$$$$$$$$@@@@@@@@$$$$@@@@@@@@@@@@@@@@@@@@@@@@oooo++++oooo++++++++oooo        ",
"        oooo++++++++oooo$$$$$$$$@@@@@@@@@@@@@@@@@@@@$$$$$$$$@@@@@@@@@@@@@@@@@@@@@@@@$$$$$$$$@@@@$$$$$$$$oooo++++++++oooo        ",
"        oooo++++++++oooo$$$$$$$$@@@@@@@@@@@@@@@@@@@@$$$$$$$$@@@@@@@@@@@@@@@@@@@@@@@@$$$$$$$$@@@@$$$$$$$$oooo++++++++oooo        ",
"        oooo++++++++oooo$$$$$$$$@@@@@@@@@@@@@@@@@@@@$$$$$$$$@@@@@@@@@@@@@@@@@@@@@@@@$$$$$$$$@@@@$$$$$$$$oooo++++++++oooo        ",
"        oooo++++++++oooo$$$$$$$$@@@@@@@@@@@@@@@@@@@@$$$$$$$$@@@@@@@@@@@@@@@@@@@@@@@@$$$$$$$$@@@@$$$$$$$$oooo++++++++oooo        ",
"        oooo++++++++oooo$$$$$$$$$$$$$$$$$$$$@@@@$$$$$$$$$$$$$$$$$$$$$$$$$$$$$$$$$$$$$$$$$$$$$$$$$$$$$$$$oooo++++++++oooo        ",
"        oooo++++++++oooo$$$$$$$$$$$$$$$$$$$$@@@@$$$$$$$$$$$$$$$$$$$$$$$$$$$$$$$$$$$$$$$$$$$$$$$$$$$$$$$$oooo++++++++oooo        ",
"        oooo++++++++oooo$$$$$$$$$$$$$$$$$$$$@@@@$$$$$$$$$$$$$$$$$$$$$$$$$$$$$$$$$$$$$$$$$$$$$$$$$$$$$$$$oooo++++++++oooo        ",
"        oooo++++++++oooo$$$$$$$$$$$$$$$$$$$$@@@@$$$$$$$$$$$$$$$$$$$$$$$$$$$$$$$$$$$$$$$$$$$$$$$$$$$$$$$$oooo++++++++oooo        ",
"        oooo++++++++oooo$$$$############$$$$$$$$$$$$####$$$$$$$$####$$$$$$$$$$$$$$$$####$$$$$$$$####$$$$oooo++++++++oooo        ",
"        oooo++++++++oooo$$$$############$$$$$$$$$$$$####$$$$$$$$####$$$$$$$$$$$$$$$$####$$$$$$$$####$$$$oooo++++++++oooo        ",
"        oooo++++++++oooo$$$$############$$$$$$$$$$$$####$$$$$$$$####$$$$$$$$$$$$$$$$####$$$$$$$$####$$$$oooo++++++++oooo        ",
"        oooo++++++++oooo$$$$############$$$$$$$$$$$$####$$$$$$$$####$$$$$$$$$$$$$$$$####$$$$$$$$####$$$$oooo++++++++oooo        ",
"        oooo++++++++oooo$$$$$$$$########$$$$$$$$########$$$$$$$$########$$$$$$$$########$$$$########$$$$oooo++++++++oooo        ",
"        oooo++++++++oooo$$$$$$$$########$$$$$$$$########$$$$$$$$########$$$$$$$$########$$$$########$$$$oooo++++++++oooo        ",
"        oooo++++++++oooo$$$$$$$$########$$$$$$$$########$$$$$$$$########$$$$$$$$########$$$$########$$$$oooo++++++++oooo        ",
"        oooo++++++++oooo$$$$$$$$########$$$$$$$$########$$$$$$$$########$$$$$$$$########$$$$########$$$$oooo++++++++oooo        ",
"        oooo++++++++oooooooo$$$$$$$$####$$$$$$$$########$$$$$$$$########$$$$$$$$########$$$$####$$$$$$$$oooo++++++++oooo        ",
"        oooo++++++++oooooooo$$$$$$$$####$$$$$$$$########$$$$$$$$########$$$$$$$$########$$$$####$$$$$$$$oooo++++++++oooo        ",
"        oooo++++++++oooooooo$$$$$$$$####$$$$$$$$########$$$$$$$$########$$$$$$$$########$$$$####$$$$$$$$oooo++++++++oooo        ",
"        oooo++++++++oooooooo$$$$$$$$####$$$$$$$$########$$$$$$$$########$$$$$$$$########$$$$####$$$$$$$$oooo++++++++oooo        ",
"        oooo++++++++oooo++++oooo$$$$OOOOOOOOXXXXXXXXOOOO$$$$$$$$####$$$$$$$$XXXXXXXXOOOOOOOOOOOO$$$$++++oooo++++++++oooo        ",
"        oooo++++++++oooo++++oooo$$$$OOOOOOOOXXXXXXXXOOOO$$$$$$$$####$$$$$$$$XXXXXXXXOOOOOOOOOOOO$$$$++++oooo++++++++oooo        ",
"        oooo++++++++oooo++++oooo$$$$OOOOOOOOXXXXXXXXOOOO$$$$$$$$####$$$$$$$$XXXXXXXXOOOOOOOOOOOO$$$$++++oooo++++++++oooo        ",
"        oooo++++++++oooo++++oooo$$$$OOOOOOOOXXXXXXXXOOOO$$$$$$$$####$$$$$$$$XXXXXXXXOOOOOOOOOOOO$$$$++++oooo++++++++oooo        ",
"        oooooooo++++oooo++++ooooOOOOOOOOXXXXXXXXOOOOOOOOOOOOXXXXXXXXOOOOOOOOOOOOXXXXXXXXOOOOOOOOoooo++++oooo++++oooooooo        ",
"        oooooooo++++oooo++++ooooOOOOOOOOXXXXXXXXOOOOOOOOOOOOXXXXXXXXOOOOOOOOOOOOXXXXXXXXOOOOOOOOoooo++++oooo++++oooooooo        ",
"        oooooooo++++oooo++++ooooOOOOOOOOXXXXXXXXOOOOOOOOOOOOXXXXXXXXOOOOOOOOOOOOXXXXXXXXOOOOOOOOoooo++++oooo++++oooooooo        ",
"        oooooooo++++oooo++++ooooOOOOOOOOXXXXXXXXOOOOOOOOOOOOXXXXXXXXOOOOOOOOOOOOXXXXXXXXOOOOOOOOoooo++++oooo++++oooooooo        ",
"            ooooooooooooooooooooOOOOXXXXXXXXOOOOOOOOOOOOXXXXXXXXXXXXXXXXOOOOOOOOOOOOXXXXXXXXOOOOoooooooooooooooooooo            ",
"            ooooooooooooooooooooOOOOXXXXXXXXOOOOOOOOOOOOXXXXXXXXXXXXXXXXOOOOOOOOOOOOXXXXXXXXOOOOoooooooooooooooooooo            ",
"            ooooooooooooooooooooOOOOXXXXXXXXOOOOOOOOOOOOXXXXXXXXXXXXXXXXOOOOOOOOOOOOXXXXXXXXOOOOoooooooooooooooooooo            ",
"            ooooooooooooooooooooOOOOXXXXXXXXOOOOOOOOOOOOXXXXXXXXXXXXXXXXOOOOOOOOOOOOXXXXXXXXOOOOoooooooooooooooooooo            ",
"                oooooooooooooooooooooooooooooooooooooooooooooooooooooooooooooooooooooooooooooooooooooooooooooooo                ",
"                oooooooooooooooooooooooooooooooooooooooooooooooooooooooooooooooooooooooooooooooooooooooooooooooo                ",
"                oooooooooooooooooooooooooooooooooooooooooooooooooooooooooooooooooooooooooooooooooooooooooooooooo                ",
"                oooooooooooooooooooooooooooooooooooooooooooooooooooooooooooooooooooooooooooooooooooooooooooooooo                ",
"                                                                                                                                ",
"                                                                                                                                ",
"                                                                                                                                ",
"                                                                                                                                "
};
