/* XPM */
static char *_005[] = {
/* columns rows colors chars-per-pixel */
"128 128 10 1 ",
"  c None",
". c #302320",
"X c #4A2622",
"o c #4E2926",
"O c #5D2E2A",
"+ c #752026",
"@ c #6E342F",
"# c #A9292F",
"$ c #D28438",
"% c #F0BF3F",
/* pixels */
"                                                                                                                                ",
"                                                                                                                                ",
"                                                                                                                                ",
"                                                                                                                                ",
"                                                                                                                                ",
"                                                                                                                                ",
"                                                                                                                                ",
"                                                                                                                                ",
"                                                                                                                                ",
"                                                                                                                                ",
"                                                                                                                                ",
"                                                                                                                                ",
"                                                                                                                                ",
"                                                                                                                                ",
"                                                                                                                                ",
"                                                                                                                                ",
"                                                                                                                                ",
"                                                                                                                                ",
"                                                                                                                                ",
"                                                                                                                                ",
"                                                                                                                                ",
"                                                                                                                                ",
"                                                                                                                                ",
"                                                                                                                                ",
"                                                                                                                                ",
"                                                                                                                                ",
"                                                                                                                                ",
"                                                                                                                                ",
"                                                                    ............                                                ",
"                                                                    ............                                                ",
"                                                                    ............                                                ",
"                                                                    ............                                                ",
"                                                                ....####++++####....                                            ",
"                                                                ....####++++####....                                            ",
"                                                                ....####++++####....                                            ",
"                                                                ....####++++####....                                            ",
"                                                            ....%%%%++++####++++####....                                        ",
"                                                            ....%%%%++++####++++####....                                        ",
"                                                            ....%%%%++++####++++####....                                        ",
"                                                            ....%%%%++++####++++####....                                        ",
"                                                        ....oooooooo$$$$%%%%++++++++####....                                    ",
"                                                        ....oooooooo$$$$%%%%++++++++####....                                    ",
"                                                        ....oooooooo$$$$%%%%++++++++####....                                    ",
"                                                        ....oooooooo$$$$%%%%++++++++####....                                    ",
"                                                    ....oooooooooooooooo%%%%$$$$####++++####....                                ",
"                                                    ....oooooooooooooooo%%%%$$$$####++++####....                                ",
"                                                    ....oooooooooooooooo%%%%$$$$####++++####....                                ",
"                                                    ....oooooooooooooooo%%%%$$$$####++++####....                                ",
"                                                ....ooooooooooooooooXXXXXXXX$$$$%%%%$$$$++++####....                            ",
"                                                ....ooooooooooooooooXXXXXXXX$$$$%%%%$$$$++++####....                            ",
"                                                ....ooooooooooooooooXXXXXXXX$$$$%%%%$$$$++++####....                            ",
"                                                ....ooooooooooooooooXXXXXXXX$$$$%%%%$$$$++++####....                            ",
"                                            ....@@@@@@@@@@@@ooooXXXXXXXXXXXXXXXX$$$$%%%%%%%%++++........                        ",
"                                            ....@@@@@@@@@@@@ooooXXXXXXXXXXXXXXXX$$$$%%%%%%%%++++........                        ",
"                                            ....@@@@@@@@@@@@ooooXXXXXXXXXXXXXXXX$$$$%%%%%%%%++++........                        ",
"                                            ....@@@@@@@@@@@@ooooXXXXXXXXXXXXXXXX$$$$%%%%%%%%++++........                        ",
"                                        ....@@@@@@@@@@@@@@@@OOOOOOOOXXXXXXXXXXXXXXXXXXXX%%%%....XXXX....                        ",
"                                        ....@@@@@@@@@@@@@@@@OOOOOOOOXXXXXXXXXXXXXXXXXXXX%%%%....XXXX....                        ",
"                                        ....@@@@@@@@@@@@@@@@OOOOOOOOXXXXXXXXXXXXXXXXXXXX%%%%....XXXX....                        ",
"                                        ....@@@@@@@@@@@@@@@@OOOOOOOOXXXXXXXXXXXXXXXXXXXX%%%%....XXXX....                        ",
"                                    ....@@@@@@@@@@@@@@@@OOOOOOOOOOOOOOOOXXXXXXXXXXXXXXXX....XXXXXXXX....                        ",
"                                    ....@@@@@@@@@@@@@@@@OOOOOOOOOOOOOOOOXXXXXXXXXXXXXXXX....XXXXXXXX....                        ",
"                                    ....@@@@@@@@@@@@@@@@OOOOOOOOOOOOOOOOXXXXXXXXXXXXXXXX....XXXXXXXX....                        ",
"                                    ....@@@@@@@@@@@@@@@@OOOOOOOOOOOOOOOOXXXXXXXXXXXXXXXX....XXXXXXXX....                        ",
"                                ....@@@@@@@@@@@@@@@@OOOOOOOOOOOOOOOOOOOOOOOOXXXXXXXX....XXXXXXXX....                            ",
"                                ....@@@@@@@@@@@@@@@@OOOOOOOOOOOOOOOOOOOOOOOOXXXXXXXX....XXXXXXXX....                            ",
"                                ....@@@@@@@@@@@@@@@@OOOOOOOOOOOOOOOOOOOOOOOOXXXXXXXX....XXXXXXXX....                            ",
"                                ....@@@@@@@@@@@@@@@@OOOOOOOOOOOOOOOOOOOOOOOOXXXXXXXX....XXXXXXXX....                            ",
"                            ....@@@@@@@@@@@@@@@@OOOOOOOOOOOOOOOOOOOOOOOOOOOOOOOO................                                ",
"                            ....@@@@@@@@@@@@@@@@OOOOOOOOOOOOOOOOOOOOOOOOOOOOOOOO................                                ",
"                            ....@@@@@@@@@@@@@@@@OOOOOOOOOOOOOOOOOOOOOOOOOOOOOOOO................                                ",
"                            ....@@@@@@@@@@@@@@@@OOOOOOOOOOOOOOOOOOOOOOOOOOOOOOOO................                                ",
"                        ....OOOO....@@@@@@@@OOOOOOOOOOOOOOOOOOOOOOOOOOOOOOOO....OOOOOOOO....                                    ",
"                        ....OOOO....@@@@@@@@OOOOOOOOOOOOOOOOOOOOOOOOOOOOOOOO....OOOOOOOO....                                    ",
"                        ....OOOO....@@@@@@@@OOOOOOOOOOOOOOOOOOOOOOOOOOOOOOOO....OOOOOOOO....                                    ",
"                        ....OOOO....@@@@@@@@OOOOOOOOOOOOOOOOOOOOOOOOOOOOOOOO....OOOOOOOO....                                    ",
"                        ....OOOOOOOO....OOOOOOOOOOOOOOOOOOOOOOOOOOOOOOOO....OOOOOOOO....                                        ",
"                        ....OOOOOOOO....OOOOOOOOOOOOOOOOOOOOOOOOOOOOOOOO....OOOOOOOO....                                        ",
"                        ....OOOOOOOO....OOOOOOOOOOOOOOOOOOOOOOOOOOOOOOOO....OOOOOOOO....                                        ",
"                        ....OOOOOOOO....OOOOOOOOOOOOOOOOOOOOOOOOOOOOOOOO....OOOOOOOO....                                        ",
"                            ....OOOOOOOO....OOOOOOOOOOOOOOOOOOOOOOOO....OOOOOOOO....                                            ",
"                            ....OOOOOOOO....OOOOOOOOOOOOOOOOOOOOOOOO....OOOOOOOO....                                            ",
"                            ....OOOOOOOO....OOOOOOOOOOOOOOOOOOOOOOOO....OOOOOOOO....                                            ",
"                            ....OOOOOOOO....OOOOOOOOOOOOOOOOOOOOOOOO....OOOOOOOO....                                            ",
"                                ....OOOOOOOO....OOOOOOOOOOOOOOOO....OOOOOOOO....                                                ",
"                                ....OOOOOOOO....OOOOOOOOOOOOOOOO....OOOOOOOO....                                                ",
"                                ....OOOOOOOO....OOOOOOOOOOOOOOOO....OOOOOOOO....                                                ",
"                                ....OOOOOOOO....OOOOOOOOOOOOOOOO....OOOOOOOO....                                                ",
"                                    ....OOOOOOOO....OOOOOOOO....OOOOOOOO....                                                    ",
"                                    ....OOOOOOOO....OOOOOOOO....OOOOOOOO....                                                    ",
"                                    ....OOOOOOOO....OOOOOOOO....OOOOOOOO....                                                    ",
"                                    ....OOOOOOOO....OOOOOOOO....OOOOOOOO....                                                    ",
"                                        ....OOOOOOOO........OOOOOOOO....                                                        ",
"                                        ....OOOOOOOO........OOOOOOOO....                                                        ",
"                                        ....OOOOOOOO........OOOOOOOO....                                                        ",
"                                        ....OOOOOOOO........OOOOOOOO....                                                        ",
"                                            ....OOOOOOOO....OOOO....                                                            ",
"                                            ....OOOOOOOO....OOOO....                                                            ",
"                                            ....OOOOOOOO....OOOO....                                                            ",
"                                            ....OOOOOOOO....OOOO....                                                            ",
"                                                ....OOOOOOOO....                                                                ",
"                                                ....OOOOOOOO....                                                                ",
"                                                ....OOOOOOOO....                                                                ",
"                                                ....OOOOOOOO....                                                                ",
"                                                    ........                                                                    ",
"                                                    ........                                                                    ",
"                                                    ........                                                                    ",
"                                                    ........                                                                    ",
"                                                                                                                                ",
"                                                                                                                                ",
"                                                                                                                                ",
"                                                                                                                                ",
"                                                                                                                                ",
"                                                                                                                                ",
"                                                                                                                                ",
"                                                                                                                                ",
"                                                                                                                                ",
"                                                                                                                                ",
"                                                                                                                                ",
"                                                                                                                                ",
"                                                                                                                                ",
"                                                                                                                                ",
"                                                                                                                                ",
"                                                                                                                                ",
"                                                                                                                                ",
"                                                                                                                                ",
"                                                                                                                                ",
"                                                                                                                                "
};
