/* XPM */
static char *_006[] = {
/* columns rows colors chars-per-pixel */
"128 128 6 1 ",
"  c None",
". c #3E0D03",
"X c #9A2D35",
"o c #B63A44",
"O c #D1A752",
"+ c #F0BF5D",
/* pixels */
"                                                                                                                                ",
"                                                                                                                                ",
"                                                                                                                                ",
"                                                                                                                                ",
"                                                                                                                                ",
"                                                                                                                                ",
"                                                                                                                                ",
"                                                                                                                                ",
"                                                                                                                                ",
"                                                                                                                                ",
"                                                                                                                                ",
"                                                                                                                                ",
"                                                                                                                                ",
"                                                                                                                                ",
"                                                                                                                                ",
"                                                                                                                                ",
"                                                                                                                                ",
"                                                                                                                                ",
"                                                                                                                                ",
"                                                                                                                                ",
"                                                                                                                                ",
"                                                                                                                                ",
"                                                                                                                                ",
"                                                                                                                                ",
"                                                                                                                                ",
"                                                                                                                                ",
"                                                                                                                                ",
"                                                                                                                                ",
"                                                                                                                                ",
"                                                                                                                                ",
"                                                                                                                                ",
"                                                                                                                                ",
"                                                                                                                                ",
"                                                                                                                                ",
"                                                                                                                                ",
"                                                                                                                                ",
"                                                        ooooooooXXXXoooo                                                        ",
"                                                        ooooooooXXXXoooo                                                        ",
"                                                        ooooooooXXXXoooo                                                        ",
"                                                        ooooooooXXXXoooo                                                        ",
"                                                ooooooooXXXXooooooooXXXXXXXXoooo                                                ",
"                                                ooooooooXXXXooooooooXXXXXXXXoooo                                                ",
"                                                ooooooooXXXXooooooooXXXXXXXXoooo                                                ",
"                                                ooooooooXXXXooooooooXXXXXXXXoooo                                                ",
"                                                ++++XXXXooooooooooooXXXXooooXXXXoooo                                            ",
"                                                ++++XXXXooooooooooooXXXXooooXXXXoooo                                            ",
"                                                ++++XXXXooooooooooooXXXXooooXXXXoooo                                            ",
"                                                ++++XXXXooooooooooooXXXXooooXXXXoooo                                            ",
"                                            ++++++++ooooooooXXXXooooooooXXXXXXXXoooo                                            ",
"                                            ++++++++ooooooooXXXXooooooooXXXXXXXXoooo                                            ",
"                                            ++++++++ooooooooXXXXooooooooXXXXXXXXoooo                                            ",
"                                            ++++++++ooooooooXXXXooooooooXXXXXXXXoooo                                            ",
"                                            ++++OOOO++++XXXXooooXXXXXXXXooooooooXXXXoooo                                        ",
"                                            ++++OOOO++++XXXXooooXXXXXXXXooooooooXXXXoooo                                        ",
"                                            ++++OOOO++++XXXXooooXXXXXXXXooooooooXXXXoooo                                        ",
"                                            ++++OOOO++++XXXXooooXXXXXXXXooooooooXXXXoooo                                        ",
"                                        ....++++++++++++OOOO++++OOOOooooXXXXooooOOOO                                            ",
"                                        ....++++++++++++OOOO++++OOOOooooXXXXooooOOOO                                            ",
"                                        ....++++++++++++OOOO++++OOOOooooXXXXooooOOOO                                            ",
"                                        ....++++++++++++OOOO++++OOOOooooXXXXooooOOOO                                            ",
"                                        ........++++OOOOOOOO++++OOOO++++OOOOOOOOOOOO                                            ",
"                                        ........++++OOOOOOOO++++OOOO++++OOOOOOOOOOOO                                            ",
"                                        ........++++OOOOOOOO++++OOOO++++OOOOOOOOOOOO                                            ",
"                                        ........++++OOOOOOOO++++OOOO++++OOOOOOOOOOOO                                            ",
"                                        ++++....++++OOOO++++OOOO++++OOOOOOOOOOOO++++....                                        ",
"                                        ++++....++++OOOO++++OOOO++++OOOOOOOOOOOO++++....                                        ",
"                                        ++++....++++OOOO++++OOOO++++OOOOOOOOOOOO++++....                                        ",
"                                        ++++....++++OOOO++++OOOO++++OOOOOOOOOOOO++++....                                        ",
"                                        ++++............++++OOOO++++OOOO++++OOOO........                                        ",
"                                        ++++............++++OOOO++++OOOO++++OOOO........                                        ",
"                                        ++++............++++OOOO++++OOOO++++OOOO........                                        ",
"                                        ++++............++++OOOO++++OOOO++++OOOO........                                        ",
"                                    ++++OOOO++++OOOO........................................                                    ",
"                                    ++++OOOO++++OOOO........................................                                    ",
"                                    ++++OOOO++++OOOO........................................                                    ",
"                                    ++++OOOO++++OOOO........................................                                    ",
"                                    ++++OOOO++++OOOO++++OOOO++++OOOO++++OOOO++++....    ........                                ",
"                                    ++++OOOO++++OOOO++++OOOO++++OOOO++++OOOO++++....    ........                                ",
"                                    ++++OOOO++++OOOO++++OOOO++++OOOO++++OOOO++++....    ........                                ",
"                                    ++++OOOO++++OOOO++++OOOO++++OOOO++++OOOO++++....    ........                                ",
"                                        ++++OOOOOOOOOOOOOOOO++++OOOO++++++++    ....        ....                                ",
"                                        ++++OOOOOOOOOOOOOOOO++++OOOO++++++++    ....        ....                                ",
"                                        ++++OOOOOOOOOOOOOOOO++++OOOO++++++++    ....        ....                                ",
"                                        ++++OOOOOOOOOOOOOOOO++++OOOO++++++++    ....        ....                                ",
"                                        ++++OOOO++++OOOO++++OOOO++++OOOO++++                                                    ",
"                                        ++++OOOO++++OOOO++++OOOO++++OOOO++++                                                    ",
"                                        ++++OOOO++++OOOO++++OOOO++++OOOO++++                                                    ",
"                                        ++++OOOO++++OOOO++++OOOO++++OOOO++++                                                    ",
"                                                ++++OOOO++++OOOO++++++++                                                        ",
"                                                ++++OOOO++++OOOO++++++++                                                        ",
"                                                ++++OOOO++++OOOO++++++++                                                        ",
"                                                ++++OOOO++++OOOO++++++++                                                        ",
"                                                            ++++                                                                ",
"                                                            ++++                                                                ",
"                                                            ++++                                                                ",
"                                                            ++++                                                                ",
"                                                                                                                                ",
"                                                                                                                                ",
"                                                                                                                                ",
"                                                                                                                                ",
"                                                                                                                                ",
"                                                                                                                                ",
"                                                                                                                                ",
"                                                                                                                                ",
"                                                                                                                                ",
"                                                                                                                                ",
"                                                                                                                                ",
"                                                                                                                                ",
"                                                                                                                                ",
"                                                                                                                                ",
"                                                                                                                                ",
"                                                                                                                                ",
"                                                                                                                                ",
"                                                                                                                                ",
"                                                                                                                                ",
"                                                                                                                                ",
"                                                                                                                                ",
"                                                                                                                                ",
"                                                                                                                                ",
"                                                                                                                                ",
"                                                                                                                                ",
"                                                                                                                                ",
"                                                                                                                                ",
"                                                                                                                                ",
"                                                                                                                                ",
"                                                                                                                                ",
"                                                                                                                                ",
"                                                                                                                                "
};
