/* XPM */
static char *_013[] = {
/* columns rows colors chars-per-pixel */
"128 128 5 1 ",
"  c None",
". c #30190B",
"X c #4A3527",
"o c #A2501D",
"O c #EBC8B5",
/* pixels */
"                                                                                                                                ",
"                                                                                                                                ",
"                                                                                                                                ",
"                                                                                                                                ",
"                                                                                                                                ",
"                                                                                                                                ",
"                                                                                                                                ",
"                                                                                                                                ",
"                                                                                                                                ",
"                                                                                                                                ",
"                                                                                                                                ",
"                                                                                                                                ",
"                                                                                                                                ",
"                                                                                                                                ",
"                                                                                                                                ",
"                                                                                                                                ",
"                                                                                                                                ",
"                                                                                                                                ",
"                                                                                                                                ",
"                                                                                                                                ",
"                                                                                                                                ",
"                                                                                                                                ",
"                                                                                                                                ",
"                                                                                                                                ",
"                                                                                                                                ",
"                                                                                                                                ",
"                                                                                                                                ",
"                                                                                                                                ",
"                                                                                                                                ",
"                                                                                                                                ",
"                                                                                                                                ",
"                                                                                                                                ",
"                                                                                                                                ",
"                                                                                                                                ",
"                                                                                                                                ",
"                                                                                                                                ",
"                                                                                                                                ",
"                                                                                                                                ",
"                                                                                                                                ",
"                                                                                                                                ",
"                                                                                                                                ",
"                                                                                                                                ",
"                                                                                                                                ",
"                                                                                                                                ",
"                                                                                                                                ",
"                                                                                                                                ",
"                                                                                                                                ",
"                                                                                                                                ",
"                                                                                                                                ",
"                                                                                                                                ",
"                                                                                                                                ",
"                                                                                                                                ",
"                                                                                                                                ",
"                                                                                                                                ",
"                                                                                                                                ",
"                                                                                                                                ",
"                                ........                                                                                        ",
"                                ........                                                                                        ",
"                                ........                                                                                        ",
"                                ........                                                                                        ",
"                                ....OOOO....    ........................................                                        ",
"                                ....OOOO....    ........................................                                        ",
"                                ....OOOO....    ........................................                                        ",
"                                ....OOOO....    ........................................                                        ",
"                                ....OOOOOOOO....XXXXXXXXXXXXXXXXXXXXXXXXXXXXXXXXXXXXXXXX............        ........            ",
"                                ....OOOOOOOO....XXXXXXXXXXXXXXXXXXXXXXXXXXXXXXXXXXXXXXXX............        ........            ",
"                                ....OOOOOOOO....XXXXXXXXXXXXXXXXXXXXXXXXXXXXXXXXXXXXXXXX............        ........            ",
"                                ....OOOOOOOO....XXXXXXXXXXXXXXXXXXXXXXXXXXXXXXXXXXXXXXXX............        ........            ",
"                            ................XXXXXXXXXXXXooooooooooooXXXXXXXXXXXXXXXXXXXXXXXX............    ....OOOO....        ",
"                            ................XXXXXXXXXXXXooooooooooooXXXXXXXXXXXXXXXXXXXXXXXX............    ....OOOO....        ",
"                            ................XXXXXXXXXXXXooooooooooooXXXXXXXXXXXXXXXXXXXXXXXX............    ....OOOO....        ",
"                            ................XXXXXXXXXXXXooooooooooooXXXXXXXXXXXXXXXXXXXXXXXX............    ....OOOO....        ",
"                        ....XXXXoooo....ooooXXXXXXXXXXXXooooooooooooooooXXXXXXXXXXXXXXXXXXXXXXXXXXXXXXXX........OOOOOOOO....    ",
"                        ....XXXXoooo....ooooXXXXXXXXXXXXooooooooooooooooXXXXXXXXXXXXXXXXXXXXXXXXXXXXXXXX........OOOOOOOO....    ",
"                        ....XXXXoooo....ooooXXXXXXXXXXXXooooooooooooooooXXXXXXXXXXXXXXXXXXXXXXXXXXXXXXXX........OOOOOOOO....    ",
"                        ....XXXXoooo....ooooXXXXXXXXXXXXooooooooooooooooXXXXXXXXXXXXXXXXXXXXXXXXXXXXXXXX........OOOOOOOO....    ",
"                    ....XXXXoooo....ooooooooXXXXXXXXooooooooooooooooXXXXXXXXXXXXXXXXXXXXooooooooXXXXXXXX............OOOO....    ",
"                    ....XXXXoooo....ooooooooXXXXXXXXooooooooooooooooXXXXXXXXXXXXXXXXXXXXooooooooXXXXXXXX............OOOO....    ",
"                    ....XXXXoooo....ooooooooXXXXXXXXooooooooooooooooXXXXXXXXXXXXXXXXXXXXooooooooXXXXXXXX............OOOO....    ",
"                    ....XXXXoooo....ooooooooXXXXXXXXooooooooooooooooXXXXXXXXXXXXXXXXXXXXooooooooXXXXXXXX............OOOO....    ",
"                ....XXXXoooo....ooooooooXXXXXXXXXXXXooooooooooooXXXXXXXXXXXXXXXXXXXXoooooooooooo........XXXXXXXX........        ",
"                ....XXXXoooo....ooooooooXXXXXXXXXXXXooooooooooooXXXXXXXXXXXXXXXXXXXXoooooooooooo........XXXXXXXX........        ",
"                ....XXXXoooo....ooooooooXXXXXXXXXXXXooooooooooooXXXXXXXXXXXXXXXXXXXXoooooooooooo........XXXXXXXX........        ",
"                ....XXXXoooo....ooooooooXXXXXXXXXXXXooooooooooooXXXXXXXXXXXXXXXXXXXXoooooooooooo........XXXXXXXX........        ",
"            ....XXXXoooo....ooooooooXXXXXXXXXXXXooooooooooooXXXXXXXXXXXXXXXXXXXXoooooooooooo....XXXXXXXXXXXXoooo....            ",
"            ....XXXXoooo....ooooooooXXXXXXXXXXXXooooooooooooXXXXXXXXXXXXXXXXXXXXoooooooooooo....XXXXXXXXXXXXoooo....            ",
"            ....XXXXoooo....ooooooooXXXXXXXXXXXXooooooooooooXXXXXXXXXXXXXXXXXXXXoooooooooooo....XXXXXXXXXXXXoooo....            ",
"            ....XXXXoooo....ooooooooXXXXXXXXXXXXooooooooooooXXXXXXXXXXXXXXXXXXXXoooooooooooo....XXXXXXXXXXXXoooo....            ",
"            ....XXXXoooo....XXXXXXXXXXXXXXXXXXXXooooooooXXXXXXXXXXXXXXXXXXXXoooooooooooo....XXXXoooooooooooooooo....            ",
"            ....XXXXoooo....XXXXXXXXXXXXXXXXXXXXooooooooXXXXXXXXXXXXXXXXXXXXoooooooooooo....XXXXoooooooooooooooo....            ",
"            ....XXXXoooo....XXXXXXXXXXXXXXXXXXXXooooooooXXXXXXXXXXXXXXXXXXXXoooooooooooo....XXXXoooooooooooooooo....            ",
"            ....XXXXoooo....XXXXXXXXXXXXXXXXXXXXooooooooXXXXXXXXXXXXXXXXXXXXoooooooooooo....XXXXoooooooooooooooo....            ",
"            ....oooo....XXXXXXXXXXXXXXXXXXXXXXXXooooXXXXXXXXXXXXXXXXXXXXXXXXXXXXXXXX....oooooooooooooooooooo....                ",
"            ....oooo....XXXXXXXXXXXXXXXXXXXXXXXXooooXXXXXXXXXXXXXXXXXXXXXXXXXXXXXXXX....oooooooooooooooooooo....                ",
"            ....oooo....XXXXXXXXXXXXXXXXXXXXXXXXooooXXXXXXXXXXXXXXXXXXXXXXXXXXXXXXXX....oooooooooooooooooooo....                ",
"            ....oooo....XXXXXXXXXXXXXXXXXXXXXXXXooooXXXXXXXXXXXXXXXXXXXXXXXXXXXXXXXX....oooooooooooooooooooo....                ",
"            ....oooo....XXXXXXXXooooXXXXXXXXXXXXXXXXXXXXXXXXXXXXXXXXXXXXXXXXXXXX....ooooooooXXXXoooooooo........                ",
"            ....oooo....XXXXXXXXooooXXXXXXXXXXXXXXXXXXXXXXXXXXXXXXXXXXXXXXXXXXXX....ooooooooXXXXoooooooo........                ",
"            ....oooo....XXXXXXXXooooXXXXXXXXXXXXXXXXXXXXXXXXXXXXXXXXXXXXXXXXXXXX....ooooooooXXXXoooooooo........                ",
"            ....oooo....XXXXXXXXooooXXXXXXXXXXXXXXXXXXXXXXXXXXXXXXXXXXXXXXXXXXXX....ooooooooXXXXoooooooo........                ",
"            ............XXXXooooooooooooXXXXXXXXXXXXXXXXXXXXXXXXoooooooooooooooo....ooooXXXXXXXXXXXXoooo....                    ",
"            ............XXXXooooooooooooXXXXXXXXXXXXXXXXXXXXXXXXoooooooooooooooo....ooooXXXXXXXXXXXXoooo....                    ",
"            ............XXXXooooooooooooXXXXXXXXXXXXXXXXXXXXXXXXoooooooooooooooo....ooooXXXXXXXXXXXXoooo....                    ",
"            ............XXXXooooooooooooXXXXXXXXXXXXXXXXXXXXXXXXoooooooooooooooo....ooooXXXXXXXXXXXXoooo....                    ",
"            ....ooooXXXX....ooooooooooooXXXXXXXXXXXXXXXXXXXXoooooooooooo....................XXXXXXXX........                    ",
"            ....ooooXXXX....ooooooooooooXXXXXXXXXXXXXXXXXXXXoooooooooooo....................XXXXXXXX........                    ",
"            ....ooooXXXX....ooooooooooooXXXXXXXXXXXXXXXXXXXXoooooooooooo....................XXXXXXXX........                    ",
"            ....ooooXXXX....ooooooooooooXXXXXXXXXXXXXXXXXXXXoooooooooooo....................XXXXXXXX........                    ",
"            ........ooooXXXX....ooooooooXXXXXXXXXXXXXXXXoooooooooooo....XXXXXXXXXXXXXXXXXXXX............                        ",
"            ........ooooXXXX....ooooooooXXXXXXXXXXXXXXXXoooooooooooo....XXXXXXXXXXXXXXXXXXXX............                        ",
"            ........ooooXXXX....ooooooooXXXXXXXXXXXXXXXXoooooooooooo....XXXXXXXXXXXXXXXXXXXX............                        ",
"            ........ooooXXXX....ooooooooXXXXXXXXXXXXXXXXoooooooooooo....XXXXXXXXXXXXXXXXXXXX............                        ",
"                ........ooooXXXX....ooooXXXXXXXXXXXXoooooooooooo....XXXXXXXXoooooooooooo............                            ",
"                ........ooooXXXX....ooooXXXXXXXXXXXXoooooooooooo....XXXXXXXXoooooooooooo............                            ",
"                ........ooooXXXX....ooooXXXXXXXXXXXXoooooooooooo....XXXXXXXXoooooooooooo............                            ",
"                ........ooooXXXX....ooooXXXXXXXXXXXXoooooooooooo....XXXXXXXXoooooooooooo............                            ",
"                    ............................................................................                                ",
"                    ............................................................................                                ",
"                    ............................................................................                                ",
"                    ............................................................................                                ",
"                                                                                                                                ",
"                                                                                                                                ",
"                                                                                                                                ",
"                                                                                                                                ",
"                                                                                                                                ",
"                                                                                                                                ",
"                                                                                                                                ",
"                                                                                                                                "
};
