/* XPM */
static char *_012[] = {
/* columns rows colors chars-per-pixel */
"128 128 5 1 ",
"  c None",
". c #30190B",
"X c #4A3527",
"o c #A2501D",
"O c #EBC8B5",
/* pixels */
"                                                                                                                                ",
"                                                                                                                                ",
"                                                                                                                                ",
"                                                                                                                                ",
"                                                                                                                                ",
"                                                                                                                                ",
"                                                                                                                                ",
"                                                                                                                                ",
"                                                                                                                                ",
"                                                                                                                                ",
"                                                                                                                                ",
"                                                                                                                                ",
"                                                                                                                                ",
"                                                                                                                                ",
"                                                                                                                                ",
"                                                                                                                                ",
"                                                                                                                                ",
"                                                                                                                                ",
"                                                                                                                                ",
"                                                                                                                                ",
"                                                                                                                                ",
"                                                                                                                                ",
"                                                                                                                                ",
"                                                                                                                                ",
"                                                                                                                                ",
"                                                                                                                                ",
"                                                                                                                                ",
"                                                                                                                                ",
"                                                                                                                                ",
"                                                                                                                                ",
"                                                                                                                                ",
"                                                                                                                                ",
"                                                                                                                                ",
"                                                                                                                                ",
"                                                                                                                                ",
"                                                                                                                                ",
"                                                                                                                                ",
"                                                                                                                                ",
"                                                                                                                                ",
"                                                                                                                                ",
"                                                                                                                                ",
"                                                                                                                                ",
"                                                                                                                                ",
"                                                                                                                                ",
"                                                                                                                                ",
"                                                                                                                                ",
"                                                                                                                                ",
"                                                                                                                                ",
"                                                                                                                                ",
"                                                                                                                                ",
"                                                                                                                                ",
"                                                                                                                                ",
"                                                                                                                                ",
"                                                                                                                                ",
"                                                                                                                                ",
"                                                                                                                                ",
"                            ........                                                                        ........            ",
"                            ........                                                                        ........            ",
"                            ........                                                                        ........            ",
"                            ........                                                                        ........            ",
"                            ....OOOO....                                                                    ....OOOO....        ",
"                            ....OOOO....                                                                    ....OOOO....        ",
"                            ....OOOO....                                                                    ....OOOO....        ",
"                            ....OOOO....                                                                    ....OOOO....        ",
"                            ....OOOOOOOO....                                                                ....OOOOOOOO....    ",
"                            ....OOOOOOOO....                                                                ....OOOOOOOO....    ",
"                            ....OOOOOOOO....                                                                ....OOOOOOOO....    ",
"                            ....OOOOOOOO....                                                                ....OOOOOOOO....    ",
"                        ....................                                                            ............OOOO....    ",
"                        ....................                                                            ............OOOO....    ",
"                        ....................                                                            ............OOOO....    ",
"                        ....................                                                            ............OOOO....    ",
"                        ....oooo....................                            ................................XXXX....        ",
"                        ....oooo....................                            ................................XXXX....        ",
"                        ....oooo....................                            ................................XXXX....        ",
"                        ....oooo....................                            ................................XXXX....        ",
"                    ....XXXX........XXXXXXXXXXXX........                ........XXXXXXXXXXXXXXXXXXXX........XXXXXXXX....        ",
"                    ....XXXX........XXXXXXXXXXXX........                ........XXXXXXXXXXXXXXXXXXXX........XXXXXXXX....        ",
"                    ....XXXX........XXXXXXXXXXXX........                ........XXXXXXXXXXXXXXXXXXXX........XXXXXXXX....        ",
"                    ....XXXX........XXXXXXXXXXXX........                ........XXXXXXXXXXXXXXXXXXXX........XXXXXXXX....        ",
"                ........XXXX........ooooooooXXXXXXXX....................XXXXXXXXXXXXXXXXoooooooooooo........XXXXoooo....        ",
"                ........XXXX........ooooooooXXXXXXXX....................XXXXXXXXXXXXXXXXoooooooooooo........XXXXoooo....        ",
"                ........XXXX........ooooooooXXXXXXXX....................XXXXXXXXXXXXXXXXoooooooooooo........XXXXoooo....        ",
"                ........XXXX........ooooooooXXXXXXXX....................XXXXXXXXXXXXXXXXoooooooooooo........XXXXoooo....        ",
"                ....XXXX........ooooooooooooXXXXXXXXXXXXXXXXXXXXXXXXXXXXXXXXXXXXXXXXoooooooooooo........XXXXoooooooo....        ",
"                ....XXXX........ooooooooooooXXXXXXXXXXXXXXXXXXXXXXXXXXXXXXXXXXXXXXXXoooooooooooo........XXXXoooooooo....        ",
"                ....XXXX........ooooooooooooXXXXXXXXXXXXXXXXXXXXXXXXXXXXXXXXXXXXXXXXoooooooooooo........XXXXoooooooo....        ",
"                ....XXXX........ooooooooooooXXXXXXXXXXXXXXXXXXXXXXXXXXXXXXXXXXXXXXXXoooooooooooo........XXXXoooooooo....        ",
"            ........oooo....ooooooooooooXXXXXXXXXXXXooooooooooooXXXXXXXXXXXXXXXXoooooooooooooooo....XXXXoooooooo....            ",
"            ........oooo....ooooooooooooXXXXXXXXXXXXooooooooooooXXXXXXXXXXXXXXXXoooooooooooooooo....XXXXoooooooo....            ",
"            ........oooo....ooooooooooooXXXXXXXXXXXXooooooooooooXXXXXXXXXXXXXXXXoooooooooooooooo....XXXXoooooooo....            ",
"            ........oooo....ooooooooooooXXXXXXXXXXXXooooooooooooXXXXXXXXXXXXXXXXoooooooooooooooo....XXXXoooooooo....            ",
"            ....oooo....XXXXXXXXXXXXXXXXXXXXXXXXooooooooooooXXXXXXXXXXXXXXXXXXXXXXXXoooooooo....oooooooooooooooo....            ",
"            ....oooo....XXXXXXXXXXXXXXXXXXXXXXXXooooooooooooXXXXXXXXXXXXXXXXXXXXXXXXoooooooo....oooooooooooooooo....            ",
"            ....oooo....XXXXXXXXXXXXXXXXXXXXXXXXooooooooooooXXXXXXXXXXXXXXXXXXXXXXXXoooooooo....oooooooooooooooo....            ",
"            ....oooo....XXXXXXXXXXXXXXXXXXXXXXXXooooooooooooXXXXXXXXXXXXXXXXXXXXXXXXoooooooo....oooooooooooooooo....            ",
"        ................XXXXXXXXXXXXXXXXXXXXXXXXooooooooXXXXXXXXXXXXXXXXXXXXXXXXXXXXXXXXXXXX....ooooXXXXXXXXoooo....            ",
"        ................XXXXXXXXXXXXXXXXXXXXXXXXooooooooXXXXXXXXXXXXXXXXXXXXXXXXXXXXXXXXXXXX....ooooXXXXXXXXoooo....            ",
"        ................XXXXXXXXXXXXXXXXXXXXXXXXooooooooXXXXXXXXXXXXXXXXXXXXXXXXXXXXXXXXXXXX....ooooXXXXXXXXoooo....            ",
"        ................XXXXXXXXXXXXXXXXXXXXXXXXooooooooXXXXXXXXXXXXXXXXXXXXXXXXXXXXXXXXXXXX....ooooXXXXXXXXoooo....            ",
"        ....oooo........ooooooooooooXXXXXXXXXXXXooooXXXXXXXXXXXXXXXXXXXXXXXXoooooooooooo................XXXXXXXX....            ",
"        ....oooo........ooooooooooooXXXXXXXXXXXXooooXXXXXXXXXXXXXXXXXXXXXXXXoooooooooooo................XXXXXXXX....            ",
"        ....oooo........ooooooooooooXXXXXXXXXXXXooooXXXXXXXXXXXXXXXXXXXXXXXXoooooooooooo................XXXXXXXX....            ",
"        ....oooo........ooooooooooooXXXXXXXXXXXXooooXXXXXXXXXXXXXXXXXXXXXXXXoooooooooooo................XXXXXXXX....            ",
"        ....ooooXXXX........ooooooooooooXXXXXXXXXXXXXXXXXXXXXXXXXXXXXXXXoooooooooooo........XXXXXXXX....XXXX........            ",
"        ....ooooXXXX........ooooooooooooXXXXXXXXXXXXXXXXXXXXXXXXXXXXXXXXoooooooooooo........XXXXXXXX....XXXX........            ",
"        ....ooooXXXX........ooooooooooooXXXXXXXXXXXXXXXXXXXXXXXXXXXXXXXXoooooooooooo........XXXXXXXX....XXXX........            ",
"        ....ooooXXXX........ooooooooooooXXXXXXXXXXXXXXXXXXXXXXXXXXXXXXXXoooooooooooo........XXXXXXXX....XXXX........            ",
"        ........ooooXXXX....ooooooooooooXXXXXXXXXXXXXXXXXXXXXXXXoooooooooooooooo........XXXXXXXXXXXX............                ",
"        ........ooooXXXX....ooooooooooooXXXXXXXXXXXXXXXXXXXXXXXXoooooooooooooooo........XXXXXXXXXXXX............                ",
"        ........ooooXXXX....ooooooooooooXXXXXXXXXXXXXXXXXXXXXXXXoooooooooooooooo........XXXXXXXXXXXX............                ",
"        ........ooooXXXX....ooooooooooooXXXXXXXXXXXXXXXXXXXXXXXXoooooooooooooooo........XXXXXXXXXXXX............                ",
"            ........oooo........ooooooooooooXXXXXXXXXXXXXXXXoooooooooooooooo........XXXXoooooooo............                    ",
"            ........oooo........ooooooooooooXXXXXXXXXXXXXXXXoooooooooooooooo........XXXXoooooooo............                    ",
"            ........oooo........ooooooooooooXXXXXXXXXXXXXXXXoooooooooooooooo........XXXXoooooooo............                    ",
"            ........oooo........ooooooooooooXXXXXXXXXXXXXXXXoooooooooooooooo........XXXXoooooooo............                    ",
"                ........................................................................................                        ",
"                ........................................................................................                        ",
"                ........................................................................................                        ",
"                ........................................................................................                        ",
"                                                                                                                                ",
"                                                                                                                                ",
"                                                                                                                                ",
"                                                                                                                                ",
"                                                                                                                                ",
"                                                                                                                                ",
"                                                                                                                                ",
"                                                                                                                                "
};
